<svg xmlns="http://www.w3.org/2000/svg" width="275" height="468">
<path d="M59.3 18c-1 0-2.4 .4-3 .8-.7 .4-2 3-2.8 5.7-.8 2.8-1.5 7.8-1.5 11.3 0 4.5 .5 6.7 1.8 8 .9 1 2.4 2.1 3.2 2.5 .8 .4 1.1 .9 .5 1.2-.5 .2-1.8 1-2.8 1.7-1.4 1-2 3.1-2.5 8.3l-.5 7 2.7 2 2.7 2-1.8 1.8-1.8 1.9 1.2 6.6c0.7 3.7 1.8 7 2.5 7.4 .7 .4 2.7 .8 4.3 .8 1.8 0 4.7-1.2 7.3-3 3.7-2.7 4.4-2.8 5.7-1.5 1.3 1.3 1.5 6.7 1.5 36 0 19 .4 35.3 .9 36.3 .4 .9 2.1 2.3 3.7 3 1.6 .8 4.1 1.1 5.7 .8 1.5-.3 3.6-1.5 4.7-2.6l2-2 0-64.2 .1-64.3-2.3-2.2c-1.6-1.6-3.6-2.3-6.3-2.3-2.5 0-5 .7-6.7 2l-2.8 2-7-3.5c-3.8-1.9-7.8-3.5-8.7-3.5ZM59 21c0.3 0 3.7 1.5 7.7 3.2l7.2 3.3 .6 4.3c0.3 2.7 .9 4.1 1.8 3.9 .7-.3 1.2-2.1 1.2-4.6 0-3.8 .4-4.5 3.6-6.4l3.6-2.2 2.4 1.6 2.4 1.6 .8 27.4c0.4 15.1 .7 43.2 .7 62.4l0.1 35-2.1 2.8c-1.2 1.6-2.9 2.7-4.2 2.7-1.3 0-3.3-1-4.6-2.3l-2.3-2.2 .1-35.2c0-22.6-.4-35.5-1-35.8-.5-.3-.8-1.4-.5-2.5 .3-1.1 .1-2.2-.5-2.5-.5-.3-1.4 .4-2 1.5-.5 1.1-1.7 2-2.5 2-.8 0-3 1.2-4.7 2.6-2.1 1.6-4.2 2.4-5.8 2.2-2.1-.3-2.6-1-3.5-5.5-.9-4.5-.8-5.4 .8-7 1.2-1.1 1.6-2.6 1.3-4-.3-1.3-1.5-2.5-2.6-2.8-1.7-.4-2-1.3-2-5.7 0-2.9 .4-5.7 .8-6.3 .4-.5 1.6-1.5 2.7-2.1 1.1-.6 2.1-2.1 2.3-3.3 .1-1.5-.7-2.6-2.9-3.8l-3.1-1.8 .4-8.6c0.2-5.8 .8-9.1 1.8-10.3 .8-.9 1.7-1.7 2-1.6ZM78 39c-.5 0-1.2 .3-1.4 .8-.3 .4-.2 2.4 .2 4.5 .4 2 1 3.7 1.5 3.7 .4 0 .9-.4 1.2-1l0.5-1-.5-3.5c-.3-1.9-.9-3.5-1.5-3.5ZM79.3 51c-.5 0-1.1 .3-1.6 .7-.4 .5-.7 2.5-.7 4.6 0 2.4 .4 3.6 1.3 3.4 .6-.2 1.3-2.2 1.5-4.5 .1-2.3-.1-4.2-.5-4.2ZM78.1 63.5l-.9-1-.5 1c-.2 .6-.7 2.7-1.1 4.8-.5 2.9-.3 3.7 .9 3.7 1 0 1.7-1.3 2-3.7 .3-2.1 .2-4.2-.4-4.8ZM188.5 111c-2.7 .1-6.3 .8-8 1.6-1.6 .9-3.8 2.8-4.9 4.2l-1.8 2.7 2.1 5.3c1.1 2.8 2.1 5.4 2.1 5.7 0 .3-4.2 2.5-9.2 4.8-6.3 3-9.9 5.3-11.2 7.3-1 1.6-2.1 4.5-2.4 6.4-.2 1.9 1.7 23.8 4.3 48.5 3.5 33.2 5.2 45.8 6.4 48 .9 1.7 3.2 3.8 5.1 4.7 2.8 1.4 6.1 1.8 16.5 1.8 10.8 0 13.6-.3 16.5-1.9 1.9-1 4.2-3.1 5.1-4.7 1.2-2.1 3-15.5 6.4-48.4 2.8-26.4 4.5-47.1 4.1-49.2-.3-2.1-1.6-4.9-2.8-6.3-1.3-1.4-5.9-4.1-10.3-6.1-4.4-1.9-8.4-3.8-8.8-4.2-.5-.4 .1-2.9 1.3-5.7 1.2-2.7 2-6.1 1.8-7.5-.2-1.5-1.7-3.3-3.8-4.7-2.6-1.7-4.8-2.3-8.5-2.3ZM188.3 114.1c2-.1 5.1 .6 6.7 1.4 1.7 .8 3 2.2 3 3 0 .8-.9 3.9-2 6.8-1.8 4.5-1.9 5.5-.7 7.2 .7 1.1 5.1 3.6 9.7 5.5 6.1 2.6 8.8 4.3 10.2 6.5 1 1.7 1.8 4.8 1.8 7 0 2.2-2.1 23.6-4.6 47.5l-4.6 43.5-3.4 3.3-3.4 3.2-13.2 0c-11.5 0-13.7-.3-16.5-2-1.8-1.1-3.5-2.8-3.8-3.7-.2-1-2.5-21-5-44.5-2.5-23.6-4.5-44.7-4.5-47 0-2.5 .9-5.6 2-7.3 1.4-2.1 4.2-4 10.1-6.5 4.5-1.9 8.9-4.5 9.8-5.8l1.6-2.3-2.3-5.2-2.2-5.2 1.7-1.9c1-1 2.7-2.2 3.8-2.7 1.1-.4 3.7-.8 5.8-.8ZM187.5 130c-3.3 0-4.5 .4-4.5 1.5 0 1.1 1 1.4 4.2 1.3 2.3-.2 4.3-.9 4.5-1.5 .2-.9-1.1-1.3-4.2-1.3ZM186.5 171c-1.4 0-2.5 .5-2.5 1 0 .6 1.5 1.5 3.3 2 1.7 .6 3.5 1 4 1 .4 0 .7-.7 .7-1.5 0-.8-.7-1.7-1.5-2-.8-.3-2.6-.5-4-.5ZM179.5 173c-.8 0-2.2 1-3 2.3-.8 1.2-1.5 2.8-1.5 3.5 0 .6 .5 1.2 1 1.2 .6 0 1.9-1.3 3-3 1.1-1.6 2-3.2 2-3.5 0-.3-.7-.5-1.5-.5ZM194.8 177c-.5 0-1 .5-1.3 1-.3 .6 .2 2.4 1 4 .8 1.7 2 3 2.5 3 .6 0 1-.7 1-1.5 0-.8-.6-2.6-1.2-4-.7-1.4-1.6-2.5-2-2.5ZM174.3 183.5c-.5-.2-1.1-.1-1.6 .3-.4 .4-.7 2.4-.7 4.5 0 2.6 .4 3.7 1.5 3.7 1.1 0 1.5-1.1 1.5-4 0-2.2-.3-4.2-.7-4.5ZM198.5 189c-1.1 0-1.4 1-1.2 4.3 .1 2.3 .7 4.2 1.2 4.2 .6 0 1.1-1.9 1.3-4.2 .1-3.3-.2-4.3-1.3-4.3ZM173.3 196c-1.5 0-1.7 .5-1 3.2 .4 1.8 .7 3.6 .7 4.1 0 .4 .8 .7 1.8 .7 1.4 0 1.6-.5 .9-3.2-.4-1.8-.7-3.6-.7-4 0-.5-.8-.8-1.7-.8ZM54.3 201c-1.9 .1-4.1 1.4-6.8 4.2l-4 4 1 19.7c0.6 10.8 1 23 .9 27.1-.1 5-1.1 11.4-3.3 19.5-1.8 6.6-3 12.9-2.7 14 .4 1.1 2.6 3.5 5.1 5.3 4 2.8 4.5 3.7 4.5 7 0 2 .9 5.2 2 7 1.1 1.7 3.5 3.8 5.3 4.6 1.7 .7 7 1.9 11.7 2.6 5.3 .8 13 1.1 20.5 .7 8.6-.4 14.5-1.3 20.8-3.1 4.8-1.4 10.5-3.5 12.7-4.6 3.2-1.6 4-2.5 4-4.7 0-1.6-1-6.2-2.1-10.3-1.1-4.1-2.2-11.8-2.5-17-.4-6.9-.2-11.4 1-16.5 .9-3.8 2.2-10.4 2.8-14.5 .9-5.7 .9-9 0-14-.6-3.6-2.5-9.2-4.1-12.5-1.6-3.3-5.4-8.6-8.5-11.7-4.1-4.3-6.3-5.8-8.3-5.8-1.6 0-5 .7-7.8 1.5-2.7 .9-7.9 2-11.5 2.5l-6.5 1-10.7-3c-6-1.7-12-3-13.5-3ZM198 201c-.5 0-1.4 1.1-2 2.5-.5 1.4-1 3.2-1 4 0 .8 .5 1.5 1 1.5 .6 0 1.5-.9 2-2 .6-1.1 1-2.9 1-4 0-1.1-.4-2-1-2ZM55.5 204c1.1 0 5.8 1.2 10.5 2.5 5.2 1.5 11.1 2.5 15 2.5 3.9 0 9.9-.9 15-2.4l8.5-2.4 5.3 5.2c3.3 3.1 6.7 7.8 8.8 12.1 2.8 5.6 3.6 8.6 4.1 15 .4 6.4 .1 9.7-1.8 16.5-1.7 6.5-2.3 11.2-2.3 20 0 7.3 .6 14.1 1.6 18.5 .9 3.9 2.1 8.1 2.7 9.5 .5 1.4 .6 3 .3 3.7-.4 .6-3.6 2.3-7.2 3.6-3.6 1.4-10 3.2-14.2 4.1-4.4 .9-12.6 1.6-18.5 1.6-6 0-13.7-.5-17.3-1.1-3.6-.7-7.7-1.8-9.2-2.5-1.6-.8-3.2-2.3-3.8-3.4-.5-1.1-1-3.8-1-6l0-4-5.2-4.4-5.3-4.4 2.3-7.8c1.2-4.4 2.9-11 3.7-14.9 1.2-6 1.2-10.1 0-29.5-1-17.8-1.1-23.1-.1-25.5 .7-1.6 2.3-3.8 3.7-4.8 1.3-.9 3.3-1.7 4.4-1.7ZM177 207c-.5 0-1 .6-1 1.3-.1 .6 .8 2.4 2 4 1.1 1.5 2.5 2.7 3 2.7 .6 0 1-.4 1-1 0-.5-.9-2.3-2-4-1.1-1.6-2.4-3-3-3ZM53 211.2c-1.2-.5-1.4 .1-.7 3.4 .4 2.1 1.1 4.4 1.7 4.9 .5 .6 1.2 .8 1.6 .5 .3-.3 .2-2.3-.3-4.4-.4-2.2-1.5-4.2-2.3-4.4ZM192.8 212.1c-.7 0-2.8 .7-4.5 1.5-1.8 .8-3.1 1.9-2.8 2.4 .3 .6 1.3 1 2.3 1 .9 0 2.7-.7 4-1.5 1.2-.8 2.2-1.9 2.2-2.5 0-.5-.6-1-1.2-.9ZM85 214c-.5 0-1 .7-1 1.5 0 .8 .6 2.6 1.3 4 .6 1.4 1.8 2.5 2.5 2.5 .6 0 1.2-.2 1.2-.5 0-.3-.7-2.1-1.5-4-.8-1.9-1.9-3.5-2.5-3.5ZM56.3 223.3c-.7-.1-1.3 .6-1.3 1.7 0 1.1 .5 3.2 1 4.8 .7 1.8 1.4 2.4 2.1 1.7 .6-.6 .7-2.3 .2-4.4-.4-1.9-1.4-3.6-2-3.8ZM90 225.5c-.5-.6-1-.6-1.4 .3-.3 .6-.4 2.1-.1 3.2 .3 1.1 1.1 1.8 1.8 1.6 .6-.1 1-1.2 .9-2.2-.2-1-.7-2.3-1.2-2.9ZM58.5 235c-.9 0-1.5 .9-1.5 2.3 0 1.2 .2 3.2 .5 4.5 .3 1.2 1 2.2 1.5 2.2 .6 0 1-2 1-4.5 0-3.3-.4-4.5-1.5-4.5ZM59.5 247c-1.1 0-1.5 1.2-1.5 4.5 0 3.3 .4 4.5 1.5 4.5 1.1 0 1.5-1.2 1.5-4.5 0-3.3-.4-4.5-1.5-4.5ZM59.3 259.4c-.9-.3-1.4 .9-1.7 3.4-.2 2 0 4.2 .5 4.7 .5 .6 1.1 .8 1.4 .5 .2-.3 .6-2.3 .7-4.4 .2-2.4-.2-4-.9-4.2ZM58 271c-.5 0-1.3 1.2-1.6 2.8-.3 1.5-.8 3.3-1 4-.2 .6 .1 1.5 .7 2 .6 .4 1.5 0 2-.8 .5-.8 .9-3 .9-4.7 0-1.8-.4-3.3-1-3.3ZM55.8 281c-.5 0-1 .7-1.3 1.5-.3 .8-.5 2.4-.5 3.5 0 1.1 .5 2 1 2 .6 0 1.2-.9 1.5-2 .4-1.6 .9-1.8 2.5-1 1.1 .6 2.5 1 3 1 .6 0 1-.7 1-1.5 0-.8-1.5-2-3.2-2.5-1.8-.6-3.6-1-4-1ZM69.6 285.3c-3.3-.7-3.9-.5-3.4 .7 .2 .8 2.2 1.9 4.4 2.3 2.1 .5 4.1 .6 4.4 .3 .3-.4 .1-1.1-.5-1.6-.5-.6-2.8-1.3-4.9-1.7ZM82.3 287.6c-3.4-.5-4.3-.3-4.3 .9 0 1 1.2 1.6 3.8 1.9 2 .2 4.2 0 4.7-.5 .6-.5 .8-1 .5-1.3-.3-.2-2.4-.6-4.7-1ZM107.3 287c-2.1 0-4.1 .3-4.5 .7-.4 .5-.5 1.1-.3 1.6 .3 .4 1.6 .7 3 .7 1.4 0 3.2-.2 4-.5 .8-.3 1.5-.9 1.5-1.5 0-.5-1.7-1-3.7-1ZM94.5 288c-3.1 0-4.4 .4-4.2 1.3 .2 .7 2 1.2 4.2 1.2 2.2 0 4-.5 4.2-1.2 .2-.9-1.1-1.3-4.2-1.3ZM173.5 316.4c-4-.2-8.7 .2-11 .9-2.2 .7-5.6 2.2-7.5 3.4-1.9 1.2-5.2 3.9-7.2 6.2-2.1 2.3-4.6 5.6-5.5 7.5l-1.8 3.5-7.2 1c-4 .6-8 1.8-8.8 2.6-.8 .8-1.5 2.6-1.5 4 0 1.4 .5 3.7 1.1 5.3 .5 1.5 2.2 4 3.7 5.5 1.5 1.6 3.9 3.5 5.5 4.3 1.5 .8 3.6 1.4 4.7 1.4 1.1 0 4.6 2.3 7.8 5.1 3.1 2.8 7.9 6.5 10.5 8.2 2.6 1.8 4.7 3.5 4.7 4 0 .4-3.4 6.7-7.6 14l-7.7 13.2 .6 5.5c0.4 3 1.8 7.9 3.2 10.8 1.4 2.8 4.5 7.2 7 9.7 2.5 2.5 6.3 5.4 8.5 6.5 2.2 1.1 7.9 3 12.8 4.1 6.9 1.7 10.5 2 17.7 1.6 5.4-.4 11.6-1.5 15.5-2.8 3.6-1.3 9.8-4.6 13.9-7.3 4.4-3 9.2-7.4 11.6-10.6 2.3-3 5-7.1 6-9 1-1.9 1.7-5.3 1.7-7.5-.1-2.5 .7-5.8 2.3-9 1.4-2.7 2.5-6.7 2.5-8.7 0-2.1-.3-4.5-.7-5.4-.5-.9-2.3-2.5-4-3.5l-3.3-1.9 .7-5.7 .7-5.8-3-2.7c-1.6-1.6-4.4-3-6.1-3.3-1.9-.3-4.9 .2-6.8 1-2.9 1.2-3.8 2.4-5 6.3-.9 3-3 6.3-5.7 9-2.4 2.4-5.6 4.5-7.3 4.9-1.6 .3-4.2 .3-5.7-.1-1.6-.3-3.9-1.8-5.3-3.3-1.4-1.6-2.7-3.9-2.9-5.3-.3-1.5 .6-4.4 2.4-7.5 1.6-2.7 3.6-7.7 4.5-11 1-3.3 1.8-8.2 1.8-11 .1-3.5-.7-6.5-2.4-9.8-1.3-2.7-3.6-6.3-5-8-1.4-1.8-5.5-4.7-9-6.6-5.1-2.7-7.8-3.4-13.4-3.7ZM173 319.4c3.6 .1 8.5 1.2 11 2.3 2.5 1 6.2 3.7 8.4 5.9 2.1 2.1 4.6 5.5 5.6 7.4 1 1.9 2.1 4.9 2.4 6.5 .4 1.7 0 5.9-.8 9.8-.9 3.7-2.9 9.4-4.6 12.7-1.6 3.3-3 7.5-3 9.3 0 1.7 .9 4.7 2 6.5 1.1 1.7 3.6 3.9 5.5 4.7 1.9 .8 4.7 1.5 6.3 1.5 1.5 0 4.6-.9 7-2 2.4-1.2 5.5-3.8 7.2-6.2 1.7-2.4 3.8-6.2 4.8-8.6 1.4-3.4 2.3-4.4 4.7-4.8 1.7-.4 3.9-.2 5 .4 1.1 .5 2.8 1.8 3.7 2.8 1.4 1.6 1.5 2.7 .7 6.4-.5 2.5-.7 5.2-.4 6 .3 .8 2 2.4 3.8 3.5 2.6 1.6 3.3 2.8 3.5 5.8 .1 2.3-.7 5.4-2.2 8.5-1.6 3.1-2.4 6.2-2.3 9.2 .1 3.6-.6 5.6-3.4 10-2 3-6.3 8-9.5 11-3.3 3-8.4 6.7-11.4 8.2-3 1.4-8.2 3.3-11.5 4.2-3.3 .9-9 1.6-12.7 1.6-3.8 0-10.1-.7-14-1.6-4-.9-9.3-2.7-11.8-3.9-2.5-1.3-6.4-4.3-8.6-6.7-2.3-2.3-5.2-6.3-6.4-8.8-1.2-2.5-2.5-6.5-2.8-9l-.5-4.5 6.5-11.5c3.6-6.3 7.1-12.5 7.7-13.7 .6-1.3 .9-3.1 .7-4-.3-1-2.9-3.5-5.8-5.5-2.9-2-7.3-5.4-9.7-7.5l-4.4-3.8-.1-4.9c-.1-3-.6-5.1-1.3-5.3-.9-.2-1.3 1.1-1.3 4.2l0 4.5-3.2-1c-1.8-.6-4.3-1.7-5.5-2.5-1.3-.8-3.2-3-4.3-4.7-1.1-1.8-2-4.3-2-5.5 0-1.3 .8-2.7 1.8-3.2 .9-.4 4.1-1.1 7-1.5l5.2-.6 .3 3.2c0.1 1.7 .8 3.3 1.5 3.5 .8 .2 1.2-1 1.2-3.7 0-2.2 .9-5.8 2-8 1.1-2.2 3.5-5.6 5.3-7.6 1.7-2 5-4.6 7.2-5.7 2.2-1.1 5.1-2.4 6.5-2.8 1.4-.5 5.4-.7 9-.5ZM155.3 338c-.7 0-2 1-2.8 2.3-.8 1.2-1.5 3.7-1.5 5.5 0 1.7 .5 4.1 1 5.2 .6 1.1 2 2 3.3 2 1.2 .1 2.7-.5 3.4-1.2 .7-.7 1.5-2.6 1.9-4.3 .4-1.8 .1-4-.6-5.5-.7-1.4-1.8-2.8-2.4-3.2-.6-.4-1.7-.8-2.3-.8ZM156.8 342.3c0.7 .6 1.3 2.1 1.2 3.2 0 1.1-.4 2.7-.9 3.5-.5 .8-1.4 1.2-2 .8-.6-.5-1.1-2.3-1.1-4 0-1.8 .3-3.6 .7-4 .5-.5 1.4-.2 2.1 .5ZM181 395c-1.1 0-2.2 .7-2.5 1.5-.3 .8 0 1.7 .5 2 .6 .3 1.7-.1 2.5-.7 .9-.7 1.6-1.6 1.5-2 0-.5-.9-.8-2-.8ZM194.3 398.6c-2.3-.4-3.3-.2-3.3 .7 0 .6 1.6 1.7 3.5 2.2l3.6 1 .6-1c0.3-.5 .1-1.3-.3-1.6-.5-.4-2.4-1-4.1-1.3ZM176 401c-.5 0-1.4 1.1-2 2.5-.5 1.4-1 3.2-1 4 0 .8 .6 1.5 1.3 1.5 .6 0 1.5-1.4 2-3.2 .4-1.8 .7-3.6 .7-4 0-.5-.4-.8-1-.8ZM203.3 403c-.7 0-1.3 .3-1.3 .8 0 .4 1.3 1.9 2.8 3.5 1.5 1.5 3 2.7 3.5 2.7 .4 0 .7-.6 .7-1.2 0-.7-1-2.3-2.2-3.5-1.3-1.3-2.9-2.3-3.5-2.3ZM210 412c-.5 0-1.7 1.5-2.5 3.3-.9 1.7-1.5 3.5-1.5 4 0 .4 .6 .7 1.3 .7 .6 0 1.8-1.1 2.5-2.5 .6-1.4 1.2-3.2 1.2-4 0-.8-.4-1.5-1-1.5ZM176 413c-.5 0-1 .6-1 1.3 0 .6 1 2.2 2.2 3.4 1.3 1.3 2.6 2.3 3.1 2.3 .4 0 .7-.6 .7-1.2-.1-.7-1-2.3-2-3.5-1.1-1.3-2.4-2.3-3-2.3ZM184.3 421c-.2 0-.5 .5-.8 1-.3 .6 .9 1.7 2.5 2.5 1.7 .8 3.7 1.5 4.5 1.5 .8 0 1.5-.4 1.5-1 0-.5-1.7-1.7-3.7-2.5-2.1-.9-3.9-1.5-4-1.5ZM202.3 422.1c-1 .1-2.9 .4-4.2 .7-1.3 .4-2.6 1.3-2.8 2-.1 .6 .6 1.2 1.7 1.2 1.1 0 3.1-.6 4.5-1.2 1.4-.7 2.5-1.6 2.5-2 0-.5-.8-.8-1.7-.7Z"/>
</svg>