<svg xmlns="http://www.w3.org/2000/svg" width="300" height="300">
<path d="M62 8c-1.4 0-3.5 .7-4.7 1.5-1.3 .8-3.3 3.4-4.4 5.8-1.2 2.3-3 7.1-4 10.7-1.1 3.6-2.6 11.7-3.5 18-1.1 8.2-2.1 11.8-3.3 12.6-.9 .6-4 3.1-7 5.5l-5.4 4.4 .7 9.5 .7 9.5-7.1 9.5c-3.9 5.2-8.9 13.1-11.1 17.5-2.6 5.1-4.1 9.5-4.2 12.2-.2 3.1 .4 4.8 1.8 6.3 1.1 1.1 3.9 2.5 6.3 3 2.7 .7 6.4 .7 10.5 0 3.4-.5 9.1-1.9 12.7-3 3.6-1.1 7.2-2 8-2 .8 0 4.5 4.1 8.1 9.2 3.7 5.1 10 13.1 14.1 17.8 4.1 4.7 11.2 11.9 15.9 16 4.6 4.2 11 9.6 14.2 12 3.2 2.5 6 5.1 6.2 5.8 .3 .6-1.3 5.6-3.6 11-2.2 5.3-4.5 10.9-5 12.5-.5 1.5-1.7 2.9-2.6 3.2-1 .3-3.5-.1-5.5-1-2.1-.8-4.8-1.5-6-1.5-1.3-.1-2.8 .5-3.5 1.2-.7 .7-2.3 10.5-3.7 21.8-1.4 11.6-2.1 21.1-1.7 22 .5 .8 17.9 8.6 38.7 17.3 20.9 8.7 38.6 15.7 39.4 15.7 .8 0 2.7-1.2 4.1-2.7 1.4-1.6 7.4-9 13.2-16.5 8.4-10.9 10.6-14.4 10.5-16.5-.3-2.3-1.3-3.3-5.6-5.3-2.9-1.4-5.4-3.1-5.7-3.7-.3-.7 1.9-7 4.8-14l5.4-12.8 14.4 .4c7.9 .1 18-.2 22.4-.8 4.4-.6 11.6-2 16-3.2 4.4-1.1 12.2-4 17.3-6.5 5.1-2.5 12.2-6.9 16.1-10.1 3.7-3.2 8.9-8.5 11.5-11.8 2.7-3.3 6.1-8.7 7.6-12 1.6-3.3 3.6-8.9 4.6-12.5 1.1-4.1 1.7-10.2 1.7-16.5 0-6.3-.6-12.8-1.8-17.5-1-4.1-3.2-10.9-4.9-15-1.8-4.1-5.8-11.5-9-16.5-3.8-5.9-9.7-12.8-17-20-6.2-6.2-14.8-13.5-19.6-16.6-4.7-3.1-12.5-7.7-17.5-10.2-4.9-2.4-13-5.9-18-7.7-4.9-1.7-13.3-4.2-18.5-5.5-5.2-1.3-14.9-3.2-21.5-4.1-8.1-1.2-18-1.7-30.5-1.7-12.8 0-21.9 .6-29.5 1.8-6 1-12.3 1.9-13.9 1.9-2.6 .1-3.4-.7-7.5-7.9-2.6-4.4-6.2-10-8.1-12.3-1.9-2.4-4.8-5.2-6.5-6.3-1.6-1-4.1-1.9-5.5-1.9ZM63 9.5c1.4 .4 4.1 1.9 6 3.3 1.9 1.5 5.3 5.6 7.6 9.2 2.3 3.6 5.2 8.7 6.5 11.4l2.4 4.8 5-.5c2.8-.3 10.2-1.3 16.5-2.2 9.1-1.4 15.8-1.6 32-1.2 16.4 .4 23.3 1 34.5 3.1 7.7 1.5 19.4 4.5 26 6.7 6.6 2.3 15.8 6 20.5 8.4 4.7 2.4 12.8 7.1 18 10.5 6.2 4.1 13.3 10.1 20.5 17.4 6.1 6.1 12.8 13.8 15 17.1 2.2 3.3 5.4 8.9 7.2 12.5 1.8 3.6 4.5 10.1 6 14.5 2.4 7.1 2.7 9.6 2.7 22 .1 12.1-.2 14.9-2.2 21-1.3 3.9-3.8 9.5-5.5 12.5-1.8 3-5 7.6-7.2 10.2-2.2 2.5-6.9 7-10.5 9.8-3.6 2.9-10.1 7-14.5 9.1-4.4 2.1-11.8 4.9-16.5 6.3-4.7 1.3-13.2 2.9-19 3.6-6.2 .7-15.3 .9-22 .5-6.3-.3-12-.2-12.6 .2-.7 .4-3.5 6.4-6.4 13.3-2.9 7-4.9 13.4-4.7 14.5 .3 1.2 2.5 2.9 5.4 4.1 2.6 1.2 5.1 3 5.6 4 .5 1.2 .1 2.8-1 4.4-.9 1.4-6.3 8.4-11.9 15.5-5.6 7.2-10.9 13.6-11.8 14.3-1.3 1-7-1-34.8-12.4-18.3-7.5-35.7-14.7-38.5-16l-5.3-2.4 0-3.2c0-1.8 1-11.2 2.1-20.8 1.3-11 2.6-18.1 3.5-19 1.2-1.3 1.9-1.3 6.2 .3 2.6 .9 5.4 1.7 6.2 1.7 .8 .1 2.2-.7 3.1-1.7 .9-1 3.8-6.9 6.3-13 2.5-6.2 4.6-12.2 4.6-13.3 0-1.3-2.9-4.2-8.7-8.7-4.9-3.7-13.8-11.7-19.8-17.8-6.1-6-14.6-15.7-18.8-21.5-4.3-5.8-8.7-11.5-9.7-12.7-1.1-1.3-2.8-2.1-3.7-1.9-1 .2-6.1 1.6-11.3 3.1-7.1 2.1-11.1 2.7-15.6 2.4-4.4-.3-6.8-1-8.3-2.4-1.4-1.3-2.2-3.2-2.1-5.5 0-1.9 1.3-6.2 2.8-9.5 1.6-3.3 4.8-8.9 7.2-12.5 2.4-3.6 6.3-9 8.8-12 3.7-4.6 4.3-6 3.8-8.5-.4-1.6-1-5.7-1.3-9l-.6-6 5.4-4.4c3-2.4 6.2-4.9 7.1-5.5 1.3-.8 2.3-4.4 3.7-14.1 1.1-7.2 2.7-15.5 3.7-18.5 .9-3 2.5-7.2 3.5-9.2 1-2.1 2.9-4.5 4.2-5.3 1.3-1 3.2-1.3 4.7-1ZM123.3 199c-1-.1-2.5 .7-3.4 1.7-.8 1-3.2 5.9-5.2 10.8-2 5-3.7 9.9-3.7 11-.1 1.1 .5 2.5 1.2 3.2 .7 .6 9.5 4.6 19.6 8.7 10 4.2 18.8 7.6 19.5 7.6 .6 0 1.8-.4 2.4-.8 .7-.4 3.3-5.4 5.7-11.2 3-7.2 4.2-11.2 3.8-12.8-.4-1.2-1.4-2.5-2.2-2.8-.8-.3-5.3-1.9-10-3.6-4.7-1.7-12.4-5-17.2-7.4-4.9-2.4-9.6-4.4-10.5-4.4ZM123.3 200c0.4 0 4.6 2 9.5 4.3 4.8 2.4 12.1 5.6 16.2 7.2 4.1 1.5 8.8 3.2 10.3 3.9 1.6 .6 2.8 1.8 2.7 2.9 0 .9-1.9 6.2-4.2 11.7-2.4 5.5-4.7 10.2-5.3 10.5-.5 .2-8-2.5-16.5-5.9-8.5-3.5-17.2-7-19.2-8-2.1-.9-4.1-2.2-4.4-2.8-.3-.7 1.4-6 3.7-11.8 2.3-5.8 4.7-10.8 5.3-11.2 .6-.4 1.4-.8 1.9-.8Z"/>
</svg>