<svg xmlns="http://www.w3.org/2000/svg" width="300" height="300">
<path d="M150 8.1c-3.6 0-7.4 .4-8.5 .9-1.1 .4-29.9 11.9-64 25.5-34.1 13.5-63 25.3-64.2 26.1-1.4 .8-2.3 2.4-2.3 3.9 0 1.5 .9 3 2.3 3.9 1.2 .7 5.2 2.3 9 3.5 3.7 1.2 7.1 2.9 7.6 3.9 .7 1.2 .4 2.7-1.1 5.2l-2.1 3.5 1.9 3.1 1.9 3.2-2.7 3.1c-1.6 1.7-2.8 3.6-2.8 4.1 0 .6 .7 2.5 1.6 4.3 .9 1.7 1.4 4.3 1.1 5.7-.3 1.4-2.1 4.3-3.9 6.5-1.9 2.2-3.7 5.6-4.1 7.5-.4 1.9-.3 5.8 .3 8.5 .6 2.8 2 6.4 3 8 1.1 1.7 2.1 5.5 2.3 8.5 .2 3 0 12-.4 20-.5 8-1.6 21.9-2.4 31-.9 9.1-2.9 27.3-4.6 40.5-1.6 13.2-3.8 29.2-4.8 35.5-1.4 8.9-1.6 12-.7 13.9 .6 1.4 2.4 2.8 4.1 3.2 1.7 .4 4 .3 5.3-.2 1.2-.5 2.4-1.7 2.7-2.6 .2-1 1.1-6.7 2-12.8 .9-6 2.3-13.8 3.1-17.2 .8-3.5 1.9-7.2 2.4-8.3 .6-1.1 1.8-2 2.8-2 .9-.1 2.2 .5 2.8 1.2 .7 .7 1.9 4.6 2.8 8.6 .9 3.9 1.6 9.5 1.6 12.2 0 2.8 .7 6.4 1.5 8 .8 1.7 2.7 3.9 4.3 4.9 1.5 1.1 4.5 2.6 6.7 3.4 3 1.1 4.5 1.2 6.3 .3 1.2-.6 2.4-1.8 2.5-2.6 .2-.8-.4-3.5-1.4-6-.9-2.5-2.6-8.3-3.7-13-1.1-4.7-2.7-13-3.6-18.5-.8-5.5-2.2-16.7-3.1-25-.8-8.2-2.4-29.2-3.5-46.5l-2-31.5 2.1-5.5c1.4-3.7 2.2-7.9 2.2-12.5 .1-5.3-.4-8-2.1-11.2l-2.2-4.3 2.5-7.5c1.4-4.1 2.5-8.7 2.5-10.2 0-1.6 .5-3.4 1.2-4.1 .7-.7 2.2-1.2 3.3-1.2 1.1 0 8.5 2.6 16.5 5.8 11.2 4.5 14.6 6.2 14.8 7.7 .2 1.1-1.8 5.8-4.4 10.5-2.6 4.7-7.3 13.9-10.6 20.5-5.2 10.7-5.7 12.2-4.5 14 .8 1.1 3.4 2.6 5.8 3.3 2.4 .7 8.7 2.7 13.9 4.3 5.2 1.7 13.6 5.1 18.5 7.6 5 2.5 12.1 6.6 15.9 9.1 3.8 2.6 11 8.7 16 13.5 5.3 5.1 9.9 8.8 11.1 8.8 1.1 0 4.7-2.1 8-4.7 3.3-2.5 10.1-7.1 15-10.2 5-3 13.5-7.7 19-10.3 5.5-2.5 14.3-6.3 19.5-8.2 5.2-2 14.2-4.9 20-6.6 5.8-1.6 12.4-3.4 14.8-4 2.4-.7 4.6-1.9 5.2-3.1 .8-1.5 .4-3.6-1.6-8.7-1.5-3.8-4.9-11.3-7.7-16.8-2.7-5.5-6.4-12.5-8.3-15.5-1.8-3-3.3-6.5-3.4-7.7 0-2 3.7-4.1 29.3-16.6 16-7.8 29.6-14.9 30.1-15.7 .4-.8 .6-2.5 .2-3.7-.4-1.4-2.2-3-4.8-4.2-2.4-1-32-12.2-65.8-24.9l-61.5-23.2-6.5 .1ZM149.8 9.1c4.5-.1 14.1 3.2 70.5 24.4 39.7 14.9 65.7 25.2 66.4 26.2 .7 1 .9 2.5 .5 3.3-.4 .8-13.9 7.9-29.9 15.7-21.6 10.5-29.4 14.8-29.8 16.3-.3 1.2 1 4.7 3.4 8.8 2.1 3.7 5.9 10.8 8.4 15.7 2.4 5 5.7 11.9 7.1 15.5 1.4 3.6 2.6 7.3 2.6 8.3 0 .9-1 2.1-2.2 2.7-1.3 .5-6.1 1.9-10.8 3.1-4.7 1.1-13.2 3.7-19 5.6-5.8 1.9-15 5.5-20.5 7.9-5.5 2.4-14.7 7.1-20.5 10.4-5.8 3.3-14.1 8.7-18.5 12-5 3.8-8.7 5.8-9.7 5.5-1-.3-5.1-3.8-9-7.8-4-4-10.2-9.3-13.8-11.9-3.6-2.5-8.7-5.9-11.5-7.5-2.7-1.7-8.4-4.5-12.5-6.3-4.1-1.9-12.9-5-19.5-7.1-6.8-2-12.4-4.3-13-5.2-.8-1.3 .6-4.8 5.7-14.9 3.7-7.3 8.5-16.7 10.7-20.8 2.9-5.5 3.7-8 3.1-9.5-.5-1.4-4.6-3.6-12.6-6.9-6.6-2.7-13.9-5.4-16.4-6.1-3.7-1.1-4.9-1.1-6.5-.1-1.2 .8-2.3 3-2.8 5.7-.4 2.4-1.7 7.3-2.9 10.9l-2.1 6.5 2.1 5.3c1.4 3.2 2.2 7.3 2.2 10.7 0 3-1 8.5-2.2 12.3l-2.2 6.7 1.8 28c0.9 15.4 2.4 35 3.2 43.5 .8 8.5 2.1 20.2 3 26 .8 5.8 2.2 13.9 3 18 .9 4.1 2.8 11 4.2 15.3l2.7 7.8-1.7 1.7-1.8 1.7-4.2-1.5c-2.3-.8-5.6-2.8-7.4-4.5l-3.1-3-.8-8c-.4-4.4-1.5-10.9-2.4-14.5-1.2-5-2.2-6.7-4.1-7.7-2-1-2.9-1-4.5 .1-1.1 .7-2.6 3.3-3.2 5.7-.7 2.4-2.2 10.7-3.4 18.4-1.1 7.7-2.5 15-3 16.3-.7 1.6-1.7 2.2-4.1 2.2-1.8 .1-4-.6-4.8-1.6-1.3-1.4-1.1-4 1.7-23.8 1.8-12.1 4-27.7 4.8-34.6 .8-6.9 2.4-21.9 3.5-33.5 1-11.5 2.2-28.2 2.6-37l0.7-16-3.1-6c-2.4-4.5-3.2-7.4-3.2-11.5 0-4.9 .4-6.1 4.1-11 3.4-4.6 4-6 3.6-9-.3-1.9-.8-4.8-1.2-6.5-.5-2.3-.2-3.4 1.4-4.7 1.2-1 2.1-2.7 2.1-3.8 0-1.1-.6-3.1-1.2-4.5-1.1-2.2-1-3.1 .5-5.5 .9-1.7 1.7-3.6 1.7-4.2 .1-.7-.5-1.9-1.2-2.5-.7-.7-4.9-2.5-9.2-4-4.4-1.6-8.4-3.5-9-4.5-.8-1.2-.7-2 .4-3.3 .8-.9 22.6-10 48.5-20.2 25.9-10.2 55.1-21.9 65-25.9 13.9-5.6 19.2-7.2 23.3-7.3ZM272.8 163c-.7 0-5.1 2.3-9.8 5.2-4.7 3-21.3 14.3-37 25.3l-28.5 19.9-4.5 .2c-2.5 .1-6.4 1.1-8.7 2.3-2.4 1.1-4.9 3-5.5 4.1-1 1.4-5.6 3.2-17.3 6.4-8.8 2.5-21.4 6.1-28 8.1-6.6 2-17.6 5.7-24.5 8.2-6.9 2.5-14.3 5.4-16.5 6.5-2.2 1.2-5.2 2.9-6.7 3.9-1.7 1.1-2.8 2.8-2.8 4.2 0 1.2 2.8 7.8 6.3 14.6 3.4 6.8 7.8 14.1 9.7 16.2 2.5 2.8 4.3 3.8 6.5 3.8 2.1 .1 7-2.5 16-8.3 7.2-4.5 17.3-10.8 22.5-13.8 5.2-3 14.5-8.3 20.5-11.6 6.1-3.4 11.7-6.2 12.5-6.2 .8-.1 2.1 .6 2.8 1.5 1 1.2 .9 3-.3 9.3-.9 4.2-1.4 10.2-1.3 13.2 .3 4.7 .7 5.6 2.8 6.7 2.2 1 3.1 .9 7-1.3 2.5-1.3 6.8-4.7 9.5-7.4l5-5-2.6-11.3c-1.7-7.1-2.3-11.8-1.7-12.9 .4-1 1.6-1.8 2.6-1.8 .9 0 5.8 4.3 10.7 9.6l9 9.6 5.5-.7c3-.3 7.6-1.3 10.3-2.1 2.6-.8 5.4-2.4 6.2-3.6 .8-1.3 1.5-3.1 1.5-4 0-1-1.1-2.8-2.5-4-1.4-1.3-6.5-4.6-11.3-7.4-7.1-4.1-8.7-5.4-8.7-7.4l0-2.4 33-13.8c18.2-7.7 33.8-14.6 34.8-15.6 1-1 1.8-3.1 1.7-5.2 0-1.9-.7-6-1.6-9-.9-3-3-8.1-4.7-11.4-1.8-3.2-4.9-7.4-6.9-9.2-2.1-1.9-4.4-3.4-5-3.4ZM272.5 164.9c1.1 0 3.6 1.7 5.6 3.8 1.9 2.1 4.9 6.7 6.7 10.3 1.7 3.6 3.7 9 4.3 12 1.1 4.7 1 5.9-.3 8-1.2 1.9-7.3 4.9-26.4 12.9-13.7 5.8-28.7 12.1-33.3 14-5.8 2.5-8.6 4.3-9.2 5.9-.7 1.7-.4 2.7 1.4 4.5 1.3 1.2 6.3 4.5 11.2 7.2 4.8 2.8 9.1 5.8 9.6 6.8 .6 1.1 .4 2.5-.6 4.2-1 1.7-3.2 3-6.7 4-2.9 .8-7.4 1.5-10 1.5l-4.8 0-8.2-9c-6.7-7.2-8.8-9-11-9-1.8 0-3.2 .7-3.8 2-.7 1.4-.4 4.8 1.1 11.8 1.1 5.3 2.2 10.3 2.5 11 .2 .6-1.6 3.3-4 6-2.4 2.6-6.4 5.8-9 7.2-3.6 2-5 2.3-6.3 1.4-1-.6-1.9-2.4-2.1-4-.2-1.6 .4-6.7 1.2-11.4 .9-4.7 1.6-9.5 1.6-10.7 0-1.4-1-2.9-2.5-3.8l-2.5-1.5-5.2 2.6c-2.9 1.5-12.7 7-21.8 12.2-9.1 5.2-22.3 13.2-29.5 17.8-7.1 4.6-13.9 8.3-15 8.3-1.1 0-3.6-1.7-5.5-3.7-1.9-2.1-6.4-9.6-9.9-16.7-4.5-9.4-6.1-13.4-5.4-14.5 .5-.8 4.7-3.4 9.4-5.7 4.6-2.3 16.1-6.7 25.4-9.8 9.4-3.2 26.5-8.3 38-11.6 16.9-4.7 21.4-6.3 23-8.3 1.1-1.3 3.6-3.2 5.5-4.1 2.3-1.2 4.6-1.5 6.8-1.1l3.2 .6 25.3-17.7c13.8-9.7 30.6-21.2 37.2-25.5 6.6-4.3 12.9-7.9 14-7.9Z"/>
</svg>