<svg xmlns="http://www.w3.org/2000/svg" width="300" height="300">
<path d="M262.5 10c-3.8 .1-9.5 .8-12.5 1.6-3 .8-9.3 3.3-14 5.6-7 3.5-10.3 6.1-18.6 14.3-5.6 5.5-12.8 13.6-16 18-3.3 4.4-8.1 12.2-10.7 17.3-3.5 6.9-5.4 9.5-7.4 10.3-1.6 .5-4 2.2-5.6 3.7-1.5 1.5-3.2 4.8-4 7.5-.6 2.7-1.8 5.3-2.4 5.8-.7 .5-2 .7-2.8 .4-.8-.3-2.5-2.1-3.7-4.1-1.3-2-3.6-4.5-5.3-5.5-1.6-1-4.7-1.9-6.7-1.9-2.1 0-5 .6-6.5 1.4-1.6 .8-3.6 2.2-4.5 3.2-1 1.1-2.1 4.3-2.5 7.3-.5 3-1.2 5.5-1.8 5.7-.5 .2-10.2 .6-21.5 .8-13 .2-24.5 .9-31.5 2.1-6 .9-13.5 1.5-16.5 1.2-3-.2-8.6-1.7-12.5-3.2-3.8-1.5-11.2-5.2-16.2-8.1-5.1-3-10.2-5.4-11.3-5.4-1.1 0-3.1 1.5-4.4 3.3-1.3 1.7-3.3 5-4.4 7.2-1.1 2.2-2.9 7.2-4.1 11-1.2 3.9-2.8 11.1-3.6 16-.7 5-1.7 12.8-2 17.5-.4 4.7-.2 14 .4 20.8 .6 6.7 2 16.6 3.2 22 1.2 5.3 4.3 15.6 6.9 22.7 2.8 7.6 5.5 17.1 6.4 23 .9 5.5 2.2 12.7 2.7 16 .6 3.3 1.9 7.9 3 10.3 1 2.3 3.1 5.4 4.7 6.8 1.5 1.4 4.3 3.4 6.2 4.4 1.9 1 9.1 3 16 4.4 6.9 1.5 15.2 3.4 18.5 4.2 3.3 .9 10.3 3.1 15.5 4.9 5.2 1.8 13.1 4.1 17.5 5.1 6.5 1.6 11.7 1.9 28.5 1.8 13.4 0 25-.7 33.5-1.8 7.2-.9 16.8-2.6 21.5-3.7 4.7-1.1 10.4-2.9 12.8-4 2.3-1 4.5-2.7 4.9-3.6 .3-1 .1-4.5-.6-7.8-.7-3.3-3.5-10.9-6.3-17-2.7-6-6-13.7-7.3-17-1.3-3.3-2.8-8.9-3.5-12.5-.8-4.8-.8-8.9 0-15.5 .5-4.9 1.4-14.2 1.9-20.5 .5-6.3 .6-15.1 .1-19.5-.4-4.4-.4-8.7 0-9.5 .4-.8 3.4-2.1 6.6-2.7 3.6-.8 6.8-2.1 8.1-3.5 1.2-1.3 2.5-3.9 2.9-5.8 .4-2.2 .1-4.9-1-7.5-.8-2.2-2.8-5.2-4.3-6.7-1.5-1.5-4.6-3.3-6.8-4.1-2.2-.8-4.1-2.1-4.2-3-.2-1 .6-2.9 1.6-4.4 1.1-1.6 2.9-4.8 4-7.3 1.1-2.5 2.4-7.2 2.9-10.5 .6-3.9 .6-8.2-.1-12.5l-1-6.5 3.2-7c1.8-3.8 5.6-10.4 8.4-14.5 2.9-4.1 9-11.3 13.7-16.1 6.8-6.9 10.2-9.4 17-12.8 5.2-2.6 10.7-4.5 14.1-4.9l5.7-.7 3.6 3.8c2.6 2.7 3.6 4.6 3.6 7 0 1.7-.9 4.9-2 7-1.1 2-5.1 7.9-8.9 13-3.8 5-7.8 11-8.9 13.2-1.1 2.2-2.7 6.5-3.6 9.5-.9 3-1.6 8.2-1.6 11.5 .1 3.3 .9 8.2 1.8 11 1.1 3.1 2.6 5.5 4.2 6.4 1.5 .8 3.6 1.1 5.3 .7 1.5-.3 2.9-1.5 3.2-2.6 .3-1.1 0-3.7-.6-5.7-.7-2.2-.9-6.5-.6-10.3 .4-4.7 1.6-8.5 4.1-13.5 2-3.8 6.2-10.1 9.5-14 3.3-3.8 7.4-9.2 9-12 1.7-2.7 3.7-7.7 4.6-11 .9-3.6 1.3-7.6 .9-10-.3-2.2-1.6-5.8-2.9-8-1.2-2.2-3.9-5.2-5.9-6.7-2-1.6-5.5-3.5-7.8-4.3-2.5-.9-7.3-1.5-11.3-1.5ZM262.3 11.1c2-.1 6.1 .4 9 1.1 2.9 .6 7 2.5 9.1 4.2 2.2 1.7 5 5.1 6.4 7.6 1.9 3.7 2.3 5.6 2 11-.2 4.5-1.2 8.2-3 12-1.5 3-6.2 9.8-10.4 15-4.3 5.2-9.1 12.4-10.8 16l-3.1 6.5 0 11c0 6.1-.3 11.6-.7 12.3-.5 .6-1.4 1.2-2 1.2-.7 .1-2.5-1-3.9-2.2-2-1.8-2.8-3.9-3.8-9.8-1.1-6.4-1.1-8.5 .3-14.2 .9-3.8 2.7-8.9 4-11.5 1.3-2.7 5.6-9.1 9.5-14.3 3.9-5.2 8.1-11.5 9.2-14 1.9-3.9 2-5 1-8.2-.6-2.1-2.4-4.9-4.1-6.3-2.3-1.9-4.1-2.5-8-2.5-2.7 0-7.6 .9-10.7 2-3.2 1.2-8.7 4-12.3 6.4-3.6 2.4-9.4 7.4-12.9 11.2-3.5 3.8-8.6 10.1-11.4 13.9-2.7 3.9-6.8 10.8-9 15.5l-3.9 8.5 1.1 3.5c0.6 1.9 1.1 5.6 1.1 8.3 0 2.6-.5 6.8-1 9.5-.6 2.6-2.6 7.4-4.6 10.7-2.1 3.6-3.4 7-3.2 8.5 .2 1.9 1.2 2.8 4.3 3.8 2.2 .7 5.1 2.3 6.3 3.5 1.3 1.2 3 3.4 3.8 5 .8 1.5 1.4 4.6 1.4 7 0 3.1-.6 4.8-2.2 6.4-1.4 1.4-4.2 2.6-7.4 3-2.8 .5-5.8 1.4-6.7 2.1-1.5 1.1-1.6 2.7-1.1 14.5 .5 9.6 .2 17.4-1.1 28.7-1 8.6-1.5 18.2-1.2 21.5 .4 3.3 1.7 9.2 3.1 13 1.3 3.9 4.7 12 7.5 18 2.8 6.1 5.8 13.7 6.7 17 .9 3.3 1.4 6.8 1 7.8-.3 .9-2.5 2.5-4.8 3.5-2.4 1.1-7.4 2.6-11.3 3.5-3.8 1-11.5 2.4-17 3.1-5.5 .8-16.5 2-24.5 2.7-8 .6-18.7 .8-24 .5-5.2-.4-12.9-1.4-17-2.2-4.1-.7-13.3-3.4-20.5-5.8-7.1-2.5-19.7-5.9-28-7.6-8.2-1.7-16.8-3.9-19-4.9-2.2-1-5.3-3.1-6.9-4.7-1.5-1.6-3.4-4.1-4.2-5.6-.8-1.6-2.1-6.7-3-11.5-.8-4.9-2.4-13.3-3.4-18.8-1.1-5.5-3.8-14.9-6.1-21-2.3-6-5.3-15.9-6.7-22l-2.6-11 0-22-.1-22 2.7-11c1.4-6 3.8-13.7 5.3-17 1.4-3.3 3.7-7.5 5.1-9.2 1.3-1.8 2.9-3.3 3.4-3.3 .6 0 5.6 2.7 11.3 5.9 5.6 3.3 13.7 7.1 18 8.5 4.2 1.4 10.1 2.6 13 2.7 2.8 0 10.6-.7 17.2-1.7 7.2-1 19.6-1.7 31-1.9 10.5-.1 19.5-.4 20-.7 .6-.3 1.3-2.8 1.7-5.4 .4-2.7 1.6-6 2.6-7.4 1-1.4 3.2-3.1 4.8-3.8 1.6-.8 4.4-1.1 6.4-.8 1.9 .3 4.8 1.8 6.5 3.4 1.7 1.6 3.8 4.1 4.8 5.5 1 1.6 2.7 2.7 4 2.7 1.2 .1 2.7-.5 3.4-1.2 .6-.7 1.6-3.3 2.3-5.8 .6-2.5 2.2-5.6 3.3-6.8 1.2-1.3 3.7-3 5.5-3.8 2.6-1.1 4.1-3.2 7.9-10.6 2.6-5.1 8-13.6 11.9-18.8 3.9-5.2 11.1-13.3 16-18 6.7-6.4 11.1-9.6 17.4-12.7 4.7-2.4 11.4-4.9 15-5.7 3.6-.8 8.2-1.5 10.3-1.5Z"/>
</svg>