<svg xmlns="http://www.w3.org/2000/svg" width="300" height="300">
<path d="M104 7.5c-4.7-.2-11.2 0-14.5 .5-3.3 .4-8.9 1.6-12.5 2.5-3.6 .9-10.1 3-14.5 4.6-4.4 1.6-10.7 4.6-14 6.7-3.3 2.1-7.8 5.9-10 8.4-2.2 2.5-5.3 7.1-6.9 10.4-1.6 3.2-3.7 9.3-4.8 13.4-1 4.1-2.4 14.7-3 23.5-.9 12.2-1.6 16.9-3.1 20-1.1 2.2-3.2 5.8-4.7 8-1.6 2.2-4 6.5-5.4 9.5-1.4 3-2.6 6.7-2.6 8.3 0 1.6 1 3.7 2.5 5.2 1.4 1.4 4.4 3 6.8 3.6 3.2 .9 5.7 .9 10.2-.1 3.3-.6 10.6-3.5 16.2-6.3 9.1-4.6 10.5-5 11.7-3.7 .8 .9 1.6 5.1 2 11 .3 5.2 .1 13-.4 17.3-.7 5-2.5 11.5-5.5 18.7-2.5 6.1-5.2 14-6.1 17.8-1 3.9-1.7 11.1-1.7 17.2 0 6.8 .5 12.7 1.6 16.8 .9 3.4 3 8.8 4.6 12 1.6 3.1 5.1 8.1 7.7 11.1 3.2 3.4 7.2 6.4 11.4 8.5 4.9 2.4 8.1 3.2 13.5 3.4 5 .3 8.5-.1 12.5-1.5 3-1.1 8.2-3.7 11.4-5.9 3.2-2.1 6.5-5.1 7.2-6.6 .8-1.6 1.4-4.5 1.4-6.5 0-2.1-.7-4.8-1.5-6-.8-1.3-3-3-4.7-3.9-1.9-.9-4.6-1.4-6.3-1.2-1.6 .3-5.2 2.1-8 4-2.7 1.9-6.3 3.8-8 4.2-1.9 .5-4.3 .2-6.5-.7-1.9-.8-5.9-3.3-8.7-5.6-3.8-2.9-6.1-5.8-8-9.8-2.3-5.1-2.6-6.7-2.1-12.8 .4-5.1 1.8-10.2 5.2-19 2.6-6.6 5.6-14.7 6.6-18 1-3.3 2.6-9.6 3.5-14 .8-4.4 1.9-12.8 2.3-18.8 .5-7.9 1.1-11 2.2-11.7 .8-.5 1.7-1 2-1 .3 0 1 .4 1.7 .8 .7 .4 2.7 6.8 4.6 14.2 1.9 7.4 4.9 16.9 6.7 21 1.8 4.1 5.2 10.4 7.5 14 2.3 3.6 6.2 8.5 8.7 11 2.5 2.5 8.7 6.8 13.8 9.5 7.3 3.9 10.9 6.7 16.9 13 4.5 4.8 9.1 10.9 11.3 15 2 3.9 4.3 9.5 5.2 12.5 .9 3 1.6 7.2 1.6 9.3 0 2-.5 5.6-1.1 8l-1.1 4.2 1.1 3.8c0.7 2.4 2.2 4.4 4.4 5.7 1.7 1.1 4.9 2 7 2 2 0 5-.9 6.7-2 2.2-1.5 3.4-3.4 4.4-7.2 .8-2.9 1.8-7.5 2.1-10.3 .4-2.7 .1-8.6-.5-13-.6-4.4-2.3-10.9-3.7-14.5-1.4-3.6-4.5-9.4-6.8-13-2.4-3.6-7.3-9.3-10.9-12.7-3.6-3.5-9-7.6-11.8-9.3-2.9-1.6-8.9-4.2-13.3-5.7-4.4-1.5-9.8-4.1-12-5.8-2.2-1.7-5.5-5.5-7.2-8.5-2.4-4-3.7-7.9-4.7-14.5-.8-4.9-2-12.6-2.6-17-.7-4.4-1.8-10.2-2.6-13-.8-2.7-1.2-5.8-.9-6.7 .3-1 1.5-1.8 2.8-1.8 1.7-.1 3.3 1.8 7.6 8.7 2.9 4.8 7.9 12.1 11 16.2 3.1 4.1 8.5 10.1 12.1 13.3 3.6 3.3 9.2 7.3 12.5 8.8 4 2 9.4 3.5 16 4.4 5.5 .8 12.5 2.3 15.5 3.4 3 1 7.5 3.2 10 4.9 2.5 1.6 5.8 4.5 7.4 6.4 1.6 1.9 4 5.7 5.5 8.4l2.6 5 .1 19c0.1 10.5 .7 24.2 1.4 30.5 .6 6.3 1.7 14.3 2.5 17.8 .8 3.4 2.8 8.8 4.4 12 1.6 3.1 4.4 7.3 6.3 9.3 1.8 1.9 5.6 5 8.3 6.9 2.8 1.9 7.5 4.3 10.5 5.4 3.5 1.2 8.2 2 13 2 6.2 .1 8.5-.4 13-2.6 3.2-1.5 7.8-5 11-8.5 3-3.2 6.8-8.3 8.3-11.3 1.5-3 2.7-6.7 2.7-8.2 0-1.6-.7-4.1-1.5-5.8-.8-1.6-2.8-3.7-4.5-4.5-1.6-.8-4.5-1.5-6.2-1.5-2-.1-4.5 .9-6.2 2.2-1.6 1.3-4 4.4-5.2 7.1-1.3 2.6-3.3 5.2-4.4 5.7-1.1 .6-3.3 1-5 1-1.6 0-5.2-1.1-8-2.5-3-1.5-6.2-4.2-8.1-6.7-1.6-2.4-3.9-7.2-4.9-10.8-1.1-3.6-2.9-15.5-4-26.5-1.2-11-3-23.6-4.1-28-1.2-4.4-3.3-10.5-4.8-13.5-1.5-3-4.1-7.5-5.8-10-1.6-2.5-5.7-7-9-10-3.3-3-8.9-6.9-12.4-8.6-3.5-1.8-9.3-4.1-12.9-5.2-3.6-1.1-10-2.5-14.2-3.1-4.3-.6-9-1.7-10.5-2.5-1.6-.8-4.4-3.2-6.4-5.3-2.1-2.1-5.3-6.3-7.2-9.3-1.9-3-6-10.7-9.1-17-3.2-6.3-5.6-12.4-5.4-13.5 .2-1.1 1.2-2.1 2.3-2.3 1.2-.1 5.6 2.5 11 6.5 5 3.8 12.6 8.7 17 10.9 4.4 2.3 10.9 5.1 14.5 6.2 3.6 1.1 7.6 2.3 9 2.7 1.4 .3 11.5 1 22.5 1.4 16.6 .7 20.9 1.2 25.5 2.9 3.4 1.3 7.5 4 10.8 7.1 2.8 2.8 6.3 7.4 7.7 10.1 1.4 2.8 3.2 7.8 4.1 11.3 1.2 4.3 1.5 8.3 1.1 13.2-.4 3.9-1.5 10-2.7 13.8-1.1 3.7-3.3 8.2-4.9 10-1.5 1.7-3.3 4.2-4 5.5-.6 1.2-1.1 3.7-1.1 5.5 0 1.7 .8 4.3 1.7 5.7 .9 1.4 2.4 3 3.3 3.7 .8 .6 2.7 1.4 4.3 1.7 1.6 .4 4.4-.1 6.9-1.1 2.3-1 5.8-3.8 7.9-6.3 2-2.5 4.8-6.7 6.2-9.5 1.4-2.7 3.1-7.2 3.8-10 .7-3.1 1-8.9 .7-15.5-.4-8.1-1.1-12.4-3.4-19-1.6-4.7-5-12-7.4-16.4-2.5-4.3-7-10.8-10-14.4-3.4-4-8-8-12-10.4-3.6-2.1-9-4.6-12-5.5-4.3-1.3-9.2-1.6-21.7-1.5-10.7 .1-18.8-.3-23.5-1.2-4-.8-9.5-2.4-12.3-3.6-2.7-1.2-7.9-4.1-11.5-6.4-3.6-2.4-8.6-6.2-11.2-8.5-3.3-2.8-4.8-4.9-4.8-6.6 0-1.9 .8-2.8 3.3-3.7 1.7-.6 7.5-3.3 12.7-6 5.2-2.6 12.3-7 15.8-9.8 3.4-2.7 7.3-6.9 8.7-9.2 1.3-2.4 2.5-5 2.5-5.8 0-.8-.7-2.3-1.7-3.3-1.2-1.1-5.2-2.3-11.3-3.2-5.2-.9-12.9-2.2-17-3-5.8-1.2-9.2-2.6-15-6.5-4.1-2.7-10.2-6.3-13.5-7.9-3.3-1.7-9.6-4-14-5.1-4.4-1.1-11.8-2.2-16.5-2.5ZM100 9.1c7.3-.1 13 .5 18.8 1.9 4.5 1.1 11.2 3.5 15 5.4 3.7 1.8 10.1 5.6 14.2 8.3 5.6 3.7 9.1 5.2 14 6.1 3.6 .7 11 1.9 16.5 2.7 6.8 1 10.6 2 11.8 3.2 1.5 1.5 1.6 2.3 .6 4.8-.6 1.7-3.7 5.5-6.8 8.5-3.2 3-9.6 7.6-14.2 10.3-4.6 2.6-11 5.7-14.3 7-3.2 1.2-6.2 3-6.7 4-.5 .9-.7 2.6-.4 3.7 .3 1.1 3.6 4.6 7.4 7.8 3.8 3.1 9.3 7.2 12.3 8.9 2.9 1.8 8.7 4.5 12.8 6l7.5 2.7 22 .6c19.2 .6 22.7 .9 27.5 2.8 3 1.2 7.7 3.6 10.4 5.4 2.8 1.8 7 5.8 9.5 8.8 2.5 3 6 7.8 7.8 10.5 1.8 2.8 4.8 8.6 6.7 13 1.9 4.4 4.2 11.5 5 15.8 .9 4.2 1.6 10.5 1.6 14 0 3.4-.5 8.2-1.1 10.7-.6 2.5-2.2 6.8-3.6 9.5-1.4 2.8-4.2 7-6.2 9.4-2 2.4-4.8 5-6.3 5.7-1.6 .8-3.9 1.4-5.3 1.4-1.4 0-3.7-.6-5.1-1.2-1.5-.7-3.3-2.5-4-4-.8-1.6-1.4-3.7-1.4-4.8 0-1.1 .5-3 1.1-4.2 .7-1.3 2.4-3.6 3.8-5.3 1.5-1.6 3.8-6.1 5.2-10 2-5.9 2.4-8.9 2.4-18.5l0-11.5-3.7-7.7c-2.1-4.3-5.7-9.7-8-12.1-2.4-2.4-6.8-5.5-9.8-6.9-3.1-1.6-8.8-3.2-13.2-3.7-4.3-.6-13.5-1.1-20.5-1.1-9.3 0-14.9-.5-20.3-1.9-4.1-1-10.9-3.4-15-5.3-4.1-1.9-11.3-6-16-9.2-4.7-3.1-10.2-7.1-12.3-8.9l-3.7-3.2-2.5 1.3c-1.4 .6-2.8 2-3.2 3-.4 1.1 1.6 6.2 5.7 14.2 3.4 6.9 7.8 14.9 9.6 17.8 1.9 2.8 5.1 7.1 7.2 9.3 2 2.3 5.1 4.8 6.7 5.6 1.7 .9 7.1 2.2 12 3 5 .8 12.2 2.5 16 3.8 3.9 1.3 9.3 3.6 12 5.2 2.8 1.5 7.7 5.3 11 8.4 3.3 3.2 7.5 8.1 9.2 11 1.8 3 4.5 8.3 5.9 11.9 1.5 3.6 3.2 9.4 4 13 .7 3.6 2 13.7 2.9 22.5 .8 8.8 2.2 19.4 3.1 23.5 .9 4.1 2.8 9.7 4.3 12.4 1.4 2.7 4.2 6.2 6.1 7.8 1.9 1.6 5.5 3.5 8 4.3 3.2 1 5.6 1.1 8.3 .4 3.1-.7 4.2-1.8 7-6.6 1.7-3.1 4.3-6.5 5.7-7.5 1.4-1 3.6-1.9 5-1.8 1.4 0 4 .9 5.8 2 1.9 1.2 3.6 3.3 4.2 5.3 .8 2.4 .7 4.3-.6 7.7-.8 2.5-2.8 6.3-4.3 8.5-1.6 2.2-5.2 6.2-8.2 8.8-3 2.6-7.4 5.4-9.9 6.3-2.5 .8-7 1.4-10 1.4-3 0-7.7-.6-10.5-1.4-2.7-.8-7-2.6-9.5-4-2.5-1.3-6.7-4.6-9.3-7.3-2.7-2.6-5.9-6.8-7.2-9.3-1.2-2.5-3-7-3.9-10-.9-3-2.1-9.1-2.7-13.5-.6-4.4-1.4-19-1.8-32.5l-.7-24.5-2.4-4.9c-1.4-2.7-3.9-6.5-5.6-8.5-1.7-2-5.3-5-8-6.8-2.7-1.7-7.6-4-10.9-5.2-3.3-1.1-10-2.5-15-3.1-5.8-.8-11.2-2.2-15.2-4.1-3.8-1.7-9-5.4-12.9-9.1-3.7-3.5-9-9.4-11.9-13.3-2.8-3.8-7.6-11-10.6-15.8-3-4.8-6.2-9-7.1-9.2-1-.3-2.7 0-3.8 .5-1.6 .8-1.9 1.8-1.6 4.8 .2 2 1.1 7.1 1.9 11.2 .9 4.1 2.3 12.7 3.2 19 1 7.5 2.4 13.4 4.1 17 1.4 3 3.7 6.8 5.2 8.3 1.5 1.6 4.5 3.9 6.7 5.2 2.2 1.3 7.4 3.5 11.5 5 4.1 1.4 9.9 4 12.8 5.8 3 1.7 8.7 6.7 12.8 11 5.7 5.9 8.4 9.8 11.8 17 2.4 5 4.9 11.6 5.5 14.5 .6 2.8 1.1 8.6 1.1 12.7 0 4.1-.6 9.8-1.2 12.6-.7 2.9-2.3 6.2-3.5 7.5-1.3 1.3-3.5 2.7-5 3l-2.8 .6-2.2-.6c-1.3-.3-3.4-1.7-4.8-3.1l-2.5-2.5 .6-11.2 .7-11.3-2.5-7c-1.3-3.8-4.4-10.1-7-14-2.5-3.8-7.4-9.8-10.9-13.3-4.2-4-9.5-7.9-15.3-11-5.4-2.8-10.7-6.7-13.7-9.7-2.6-2.7-5.6-6.1-6.7-7.5-1-1.4-3.2-5-4.9-8-1.7-3-4.5-9.5-6.3-14.5-1.7-4.9-4.1-13-5.2-18-1.1-4.9-2.4-9.8-2.9-10.7-.5-1-2-1.8-3.4-1.8-1.4 0-3.1 .6-3.7 1.3-.7 .7-1.6 5.6-2 10.8-.4 5.2-1.5 13.3-2.3 18.2-.8 4.8-2.8 12.6-4.4 17.5-1.6 4.8-4.8 13.7-7.1 19.7-3.5 9.1-4.3 12.2-4.3 18-.1 4.9 .5 8.1 1.7 10.5 1 1.9 2.8 4.9 4 6.5 1.3 1.7 5.1 4.9 8.7 7.3 4.3 2.9 7.4 4.3 9.7 4.2 1.7 0 4.7-.7 6.5-1.6 1.7-1 4.6-2.7 6.2-4 2-1.6 4.4-2.4 7.3-2.4 3.4 0 4.8 .6 7.2 3 2 2 3 4 3 6 0 1.7-.6 4.2-1.4 5.8-.7 1.5-4 4.5-7.2 6.6-3.2 2.2-8.6 4.8-11.9 5.9-4 1.2-7.8 1.7-11.5 1.4-3-.2-8.1-1.6-11.2-3.1-3.2-1.4-7.9-4.6-10.5-7-2.7-2.4-6.2-7-7.9-10.2-1.7-3.3-4-8.4-5-11.4-1.5-4.4-1.9-8.4-1.9-19.5l0.1-14 3.6-10c1.9-5.5 4.8-13.1 6.4-17l2.8-7 .1-16.1c0-12.9-.3-16.4-1.5-17.8-.8-.9-2.3-1.7-3.2-1.6-1 0-5.3 1.8-9.5 4-4.3 2.1-9.8 4.6-12.3 5.5-2.5 .8-7 1.5-10 1.5-3.5 0-6.6-.7-8.5-1.8-1.6-1-3.3-3-3.7-4.5-.6-1.8-.2-4.1 1-6.9 1-2.4 3.4-6.8 5.4-9.8 1.9-3 4.5-7.4 5.6-9.7 1.8-3.5 2.4-7.2 3.2-19 .5-8.2 1.5-17.5 2.1-20.8 .6-3.3 2-8.5 3.2-11.5 1.1-3 3.4-7.7 5.2-10.5 1.7-2.7 5.4-6.9 8.1-9.3 2.7-2.4 7.6-5.6 10.9-7.2 3.3-1.6 9.6-4.1 14-5.5 4.4-1.5 10.9-3.3 14.5-4 3.6-.7 11.2-1.4 17-1.4Z"/>
</svg>