<svg xmlns="http://www.w3.org/2000/svg" width="300" height="300">
<path d="M162.8 7.1c-.7 0-3.5 .6-6.3 1.4-3.2 .8-6 2.4-7.7 4.4-1.6 1.7-2.8 4.2-2.8 5.6 0 1.4 1.1 4.6 2.4 7.3 1.3 2.6 6.1 9.9 10.7 16.4 4.6 6.4 13.1 17.3 18.9 24.3 5.8 7 11.4 13.8 12.5 15.1l2 2.3-2 2.1c-1.1 1.1-2.8 2.1-3.7 2-1 0-4.2-2.6-7-5.8-2.9-3.2-8.2-8.1-11.8-10.8-3.6-2.7-9.2-6.1-12.5-7.6-3.3-1.5-8.9-3.5-12.5-4.5-5.1-1.4-10.1-1.8-23.5-1.8-14.4 .1-18.3 .4-25.5 2.3-4.7 1.3-13.2 4.6-19 7.4-8.8 4.2-11.7 6.3-18.1 12.7-5.9 5.9-8.1 8.9-9.9 13.6-1.4 3.7-2.5 9.1-2.8 14-.3 6 .1 10 1.6 16 1.1 4.4 4.2 12.6 6.8 18.3 3.7 7.7 4.6 10.8 3.9 11.9-.5 .8-4 3.3-7.7 5.4-3.8 2.1-7.7 3.9-8.8 3.9-1.3 0-3-1.6-4.7-4.2-1.4-2.4-4.2-7.6-6.2-11.7-2-4.1-4.7-8.2-6.1-9.3-1.4-1-3.3-1.9-4.2-1.8-1 0-3.9 1.9-6.4 4.3l-4.5 4.2 .3 5.5c0.3 4 1.6 7.8 4.7 14 2.4 4.7 7.1 12.9 10.5 18.3 3.4 5.4 9.5 14.4 13.7 20 4.2 5.6 12.1 15.2 17.6 21.2 5.4 6.1 14.2 14.8 19.3 19.4 5.2 4.6 13.6 11.4 18.5 15.1 5 3.8 11.3 7.8 14 9 3.5 1.5 5.9 2 8 1.6 1.7-.4 4.9-2.2 7.3-4.1 2.9-2.4 4.2-4.3 4.2-6 0-1.4-1.2-3.9-2.7-5.6-1.6-1.7-4.4-4.1-6.3-5.2-1.9-1.1-5.4-3.5-7.7-5.4-2.4-1.8-4.3-4.1-4.3-5 .1-1 2.4-4.6 5.3-8.1 3.2-3.8 6-6.3 7.2-6.3 1.1 0 2.7 .8 3.5 1.7 .8 .9 7.8 7 15.5 13.4 7.7 6.4 20.1 16.4 27.5 22.2 7.4 5.7 20.4 15.5 28.8 21.6 8.3 6.2 15.7 11.2 16.2 11.2 .6 0 9.4-5.6 19.8-12.5 15.6-10.4 19.1-13.2 21-16.8 1.3-2.3 2.9-4.5 3.5-4.9 .7-.4 1.9-.3 2.7 .2 .8 .4 2.6 4.3 4 8.6 1.4 4.3 3.1 8.4 3.8 9.1 .6 .7 2.2 1.3 3.5 1.3 1.2 0 4.1-.9 6.5-2 2.3-1.1 4.7-2.9 5.2-4 .7-1.4 .6-3.2-.6-6.2-.8-2.4-3.3-6.5-5.4-9.3-2.2-2.7-4-5.7-4-6.5-.1-.8 .5-2 1.2-2.6 .7-.6 5.3-2.8 10.2-5 4.9-2.1 9.5-4.8 10.2-5.9 .8-1.1 1.4-3.6 1.4-5.5 0-1.9-.9-4.8-1.9-6.5-1-1.6-2.9-3.3-4.2-3.7-1.4-.4-3.8-.1-5.9 .9-1.9 .8-6 3.9-9 6.9-3 2.9-6.2 5.4-7 5.4-.8 .1-2-.5-2.5-1.2-.6-.7-2.1-4.6-3.3-8.5-1.4-4.8-2.9-7.6-4.2-8.3-1.1-.5-3.8-1-6-1-2.9 0-4.7 .7-6.5 2.5-1.4 1.4-2.5 3.2-2.5 4 0 .8 .5 2.5 1.2 3.8 .6 1.2 3.1 4.7 5.4 7.7 2.4 3 4.4 6.2 4.4 7 .1 .8-.6 2.1-1.5 2.8-.9 .8-3 1-5.7 .6-2.9-.4-13 .9-29.8 3.6-14.5 2.4-26.7 4-28.2 3.6-1.6-.3-5.9-3.6-9.6-7.3-3.8-3.8-7.8-8.7-9-11-1.6-3.1-2.2-6.1-2.2-10.5 0-5 .7-7.7 3.1-12.8 2.4-4.9 6-9.5 15-18.7 6.6-6.8 14.6-16 18-20.5 3.5-4.9 6.6-10.4 7.5-13.3 .8-2.7 1.4-8.6 1.4-13 0-4.4-.6-10.2-1.4-13-.7-2.7-2.8-8.6-4.6-13-2.4-5.8-3-8.4-2.3-9.5 .6-.8 2.1-1.6 3.4-1.8 2-.2 3.2 1 7.9 8.5 3 4.8 11.1 16.6 18 26.3 6.9 9.6 14.3 19.9 16.5 22.7 2.2 2.8 5 5.6 6.3 6.2 1.2 .6 3.7 1.1 5.5 1.1 2.4-.1 4.2-1.1 7.4-4.3 3-3 4.2-5 4.3-7.2 0-1.7-1.2-4.8-2.7-7-1.4-2.2-5.2-7.1-8.3-11-3.2-3.8-9.7-11.5-14.5-17-4.8-5.5-12.9-14.4-17.9-19.8l-9.1-9.8 .3-4.2c0.1-2.3-.3-5-1-5.9-.7-.9-3-2.3-5-3.2-2.1-.9-3.8-2.3-3.8-3.1 0-.8-3.6-8.6-8-17.2-4.5-8.7-12.9-23.9-18.8-33.7-8.9-14.8-11.3-18.1-13.9-19.3-1.8-.7-3.9-1.3-4.5-1.2ZM162.8 9.1c2.8-.1 4.8 .5 6 1.7 .9 .9 5.4 7.8 9.9 15.2 4.4 7.4 11.5 19.8 15.7 27.5 4.2 7.7 8.9 17.1 10.4 20.9 2.3 6 3.2 7.2 6.2 8.3 1.9 .7 4.1 2.4 4.8 3.8 .6 1.4 1 3.9 .7 5.5-.4 2.7 .6 4.1 9.4 13.8 5.5 5.9 15.8 17.6 23 26 7.2 8.3 14.7 17.6 16.7 20.5 2.5 3.7 3.4 5.9 3.1 7.7-.3 1.4-2.4 4.2-4.6 6.3-2.3 2-5.1 3.7-6.3 3.7-1.3-.1-3.3-.6-4.5-1.3-1.2-.7-4.5-4.3-7.5-8.2-2.9-3.8-10.7-14.7-17.3-24.1-6.6-9.3-14-20.2-16.5-24.2-2.5-3.9-5.2-7.3-6-7.5-.8-.2-2.5 0-3.7 .4-1.3 .5-2.7 1.8-3.3 2.9-.8 1.6-.3 3.5 2.1 8.8 1.7 3.7 4 10.1 5 14.2 1.1 4.1 1.9 10.3 1.9 13.8 0 3.7-.8 8.5-2 12-1.2 3.1-4.6 9.1-7.8 13.2-3.1 4.1-11.1 13.1-17.7 20-8.6 8.9-12.8 14.2-14.8 18.3-1.5 3.1-3 8.3-3.3 11.5-.6 4.9-.3 6.5 2 11.5 1.6 3.5 5 8.1 9.1 12.2 3.6 3.6 7.7 7.1 9.3 7.9l2.7 1.5 27.3-4.5c21.2-3.4 27.9-4.2 30.2-3.4l3 1 2-1c1.1-.5 2.5-1.9 3-3 .6-1.1 .7-2.6 .3-3.2-.3-.7-2.5-3.8-4.8-6.8-2.3-3-4.7-6.5-5.3-7.7-1-1.8-.9-2.8 .3-4.8 1-1.7 2.7-2.7 5.3-3.1 2-.3 4.6-.2 5.7 .3 1.3 .7 2.9 3.6 4.5 8.4 1.3 4.1 3.3 8.2 4.5 9.2 1.1 1 2.3 1.8 2.8 1.7 .4 0 3.9-2.9 7.7-6.5 3.9-3.6 8.2-6.8 9.8-7.1 1.5-.3 3.7-.1 5 .5 1.3 .6 2.7 2.8 3.5 5.2 1 3.4 1 4.5-.3 6.7-1 1.7-4.3 3.8-10 6.3-4.7 2.1-9.3 4.2-10.2 4.8-1 .6-1.8 2.2-1.8 3.6 0 1.4 1.8 4.9 3.9 7.8 2.2 2.8 4.4 6.4 5 8 .6 1.5 1.1 3.6 1.1 4.7 0 1.2-1.3 2.8-3.2 4-1.8 1.1-5 2-7 2l-3.8 0-2.7-8.6c-1.7-5.2-3.5-9-4.5-9.5-1-.5-2.7-.7-3.8-.4-1.1 .3-2.9 2.4-4 4.8-1.7 3.7-4.1 5.7-20.2 16.5-10.1 6.7-19 12.2-19.8 12.2-.8 0-9.1-5.7-18.5-12.6-9.3-6.9-22.4-16.8-29-21.9-6.6-5.1-19-15.2-27.5-22.4-8.5-7.2-16.1-13.1-16.7-13.1-.7 0-3.1 1.9-5.3 4.3-2.2 2.3-5.2 5.9-6.8 7.9l-2.7 3.8 1.8 2.5c0.9 1.4 5 4.7 9 7.3 3.9 2.7 8.2 6.2 9.5 7.8 1.2 1.6 2.3 3.5 2.2 4.2 0 .6-1.9 2.8-4.2 4.7-3.3 2.7-5.2 3.5-8 3.5-2.1 0-5.3-.7-7-1.6-1.8-.9-7.3-4.7-12.3-8.4-4.9-3.7-13.3-10.5-18.5-15.2-5.2-4.6-12.6-11.8-16.4-15.9-3.8-4.1-10.5-11.9-14.9-17.4-4.4-5.5-11.6-15.4-15.9-22-4.4-6.6-10.4-16.9-13.5-23-4.7-9.5-5.4-11.5-4.9-15 .3-2.2 1.6-5.1 2.8-6.3 1.3-1.3 3.4-3 4.8-3.7 2.1-1.2 2.8-1.2 4.8 0 1.2 .8 4.4 5.9 7.1 11.3 2.8 5.3 5.9 10.9 7 12.5 1.2 1.5 2.8 2.7 3.6 2.7 .8 0 5.3-2.1 10-4.7 4.7-2.7 8.8-5.6 9-6.5 .3-1-.5-3.7-1.6-6-1.2-2.4-3.7-7.9-5.6-12.3-1.9-4.4-4.1-11.6-5-16-1-5.1-1.3-10.1-.9-13.7 .3-3.2 1.5-8.2 2.6-11 1.1-2.9 3.5-7.1 5.2-9.4 1.8-2.3 5.6-6 8.3-8.3 2.8-2.3 8.4-5.9 12.5-8 4.1-2.1 11.1-5 15.5-6.4 4.4-1.4 12.5-3.1 18-3.7 5.9-.8 13.7-1 19-.7 5 .4 12.4 1.5 16.5 2.6 4.1 1 10 3.1 13 4.6 3 1.5 7.3 4 9.5 5.5 2.2 1.5 7.7 6.4 12.3 10.9 4.5 4.4 8.5 8.1 9 8.1 .4 .1 1.9-.8 3.5-2 1.5-1.1 2.7-2.9 2.7-4 0-1.1-1.9-4.1-4.2-6.8-2.4-2.6-7.9-9.2-12.4-14.7-4.4-5.5-10.7-13.6-14-18-3.2-4.4-8-11.6-10.7-16-2.6-4.4-4.7-8.8-4.7-9.7 0-1 1.1-3.1 2.5-4.8 1.4-1.6 4-3.4 5.8-3.9 1.7-.5 5.1-1 7.5-1ZM118.5 75.1c-4.9 0-12.1 .7-16 1.6-3.8 .8-9.4 2.3-12.2 3.4-3 1.1-6.2 3.1-7.4 4.7-1.8 2.2-2 3.7-1.7 8.7 .3 3.8 1.6 8.4 3.4 12.5 1.7 3.6 4.6 8.7 6.5 11.5 1.9 2.7 5.5 7.1 8.2 9.7 2.6 2.7 7.1 6 10 7.4 2.8 1.5 7.5 2.9 10.2 3.1 3.2 .4 7.2-.1 11-1.1 3.3-1 10.3-3.6 15.5-5.9 5.2-2.2 13.8-6.3 19-9 5.2-2.7 9.8-5.5 10.2-6.1 .4-.6 .8-2.2 .8-3.6 0-1.4-1.2-4.9-2.7-7.9-1.7-3.4-5.4-7.8-9.4-11.5-3.7-3.4-9.7-7.8-13.5-9.8-3.8-2-10.5-4.6-14.9-5.8-5.4-1.4-10.9-2-17-1.9ZM118.3 76.1c3.1 0 9.2 .6 13.5 1.4 4.6 .9 11.1 3.1 16.2 5.7 6.4 3.2 10.3 6 16.1 11.7 5.8 5.8 8 8.8 9.3 12.6 .9 2.8 1.4 5.7 1.1 6.5-.3 .8-6.5 4.5-13.7 8.2-7.3 3.6-16.7 7.9-20.8 9.6-4.1 1.6-10 3.5-13 4.2-4.6 1.1-6.4 1-11-.3-3-.9-8-3.3-11-5.5-3-2.1-7.7-6.8-10.4-10.3-2.6-3.5-5.7-8.2-6.9-10.4-1.1-2.2-2.8-6.5-3.9-9.5-1-3-1.8-6.8-1.8-8.5 0-1.6 .7-4 1.5-5.2 .8-1.3 2.7-2.9 4.3-3.7 1.5-.8 6.3-2.3 10.7-3.4 4.4-1.2 9.4-2.3 11-2.5 1.7-.2 5.6-.5 8.8-.6ZM67.5 167c-.5 0-4.8 2.2-9.5 4.9-7 4-8.5 5.3-8.7 7.5-.2 1.8 1.1 4.5 3.9 8.4 2.4 3.1 6.9 8.9 10.2 12.7 3.2 3.9 9.8 10.9 14.5 15.8 5.2 5.3 9.4 8.7 10.6 8.7 1.1 0 2.5-.4 3-.8 .6-.4 3.6-3.7 6.8-7.4 3.1-3.8 5.7-7.5 5.7-8.3 0-.8-3.6-5.4-8.1-10.2-4.4-4.9-11.7-13.3-16.1-18.8-4.4-5.5-8.7-10.6-9.7-11.3-.9-.7-2-1.2-2.6-1.2ZM67.5 169c1.4 0 3.9 2.4 8.1 7.7 3.3 4.3 10.6 12.9 16.2 19.1 5.6 6.1 10.2 11.9 10.2 12.7 0 .8-2.3 4.3-5.1 7.8-2.8 3.4-6 6.7-7.1 7.2-1.8 .9-3.4-.4-12.2-9.5-5.6-5.8-14.2-15.4-19-21.5-5.5-7-8.6-11.7-8.4-13 .2-1.2 2.9-3.4 7.8-6.2 4.1-2.3 8.4-4.2 9.5-4.3Z"/>
</svg>