<svg xmlns="http://www.w3.org/2000/svg" width="1991" height="1799">
<path d="M995.5 0l-995.5 0 0 899.5 0 899.5 995.5 0 995.5 0 0-899.5 0-899.5-995.5 0ZM1153 59.9c0.8 0 1.2 .4 .8 .8l-.8 .8-.7-.8c-.5-.4-.1-.8 .7-.8ZM902.2 120.9c2.4 .2 7.5 .2 11.3 .1 3.9-.1 20.5-.2 37-.3 25.8-.1 30.8 .1 35.8 1.6 3.3 1 8.9 1.7 13.5 1.7 4.2-.1 9.5 .1 11.7 .3 2.2 .2 5.4 1 7 1.7 1.7 .8 5.5 1.4 8.5 1.4 3 0 7.8-.1 10.5-.4 2.8-.2 8.1 .1 11.9 .6 3.7 .5 7.3 1.5 8 2.2 .6 .7 1.6 1.3 2.1 1.3 .6-.1 2.2 .6 3.8 1.4 2.2 1.2 3.1 1.3 4.7 .3 1.5-.9 2.3-1 2.8-.2 .4 .6 3.2 1 6.2 .9 3-.1 8.9 .2 13 .7 4.1 .5 9.8 .9 12.6 1.1 2.8 .1 5.8 .8 6.7 1.5 1 .6 2.2 1 2.7 .7 .6-.3 1.7 .6 2.5 2 1 1.7 2.1 2.3 3.5 2 1.1-.3 2.8-.1 3.8 .3 .9 .5 2.8 1.5 4.2 2.2 1.4 .7 5.9 2.1 10 3.2 4.1 1 9.1 2.1 11 2.4 1.9 .3 4.4 1.4 5.5 2.4 1.1 1 3.7 2.3 5.8 2.9 2.5 .7 3.8 .8 4 .1 .1-.6 3.4 .5 7.2 2.5 3.9 1.9 7.8 3.5 8.8 3.5 .9 0 1.9 .5 2.2 1 .3 .6 1.9 .8 3.5 .5 1.8-.3 2.8-.1 2.5 .5-.3 .6 .1 1 .8 1 .6 0 2 .8 3 1.8l1.8 1.7-.1-1.7c0-1.4 .6-1.2 3 1.2 1.7 1.7 3.8 3 4.8 3 .9 0 3.3 1.1 5.2 2.5 1.9 1.4 4.1 2.5 4.8 2.5 .6 0 1.8 .6 2.5 1.4 .6 .7 3.1 1.8 5.5 2.5 2.3 .6 4.6 1.9 5.1 2.9 .4 .9 2.1 2.3 3.7 3 1.6 .7 4 1.1 5.4 .9 1.6-.3 2.9 .2 3.8 1.4 .6 1.1 2.3 1.9 3.7 1.9 1.4 0 2.5 .5 2.5 1 0 .6 1.4 1 3 1 1.7 0 3.2 .5 3.5 1 .3 .6 1.1 .8 1.8 .6 .6-.3 2.4 .5 3.8 1.7 1.5 1.3 5.6 2.8 10 3.6 4.1 .8 8.1 2.1 8.9 2.9 .8 .7 2.1 1.1 2.8 .8 .7-.4 1.8 .6 2.7 2.4 .8 1.7 2.2 3 3 3 .8 0 1.5 .5 1.5 1 0 .6 .9 1 2 1 1.1 0 2.1 .4 2.3 .9 .1 .5 3.2 2.7 6.9 4.8 3.7 2.1 6.4 4.2 6 4.7-.4 .5 .1 .6 1.3 .2 1.3-.4 2.7 0 4 1.3 1.1 1 3.4 2.2 5 2.6 1.7 .4 4.7 2 6.8 3.6 2 1.6 4.2 2.9 4.7 2.9 .6 0 1.3 .6 1.8 1.4 .4 .7 2.2 2.1 4 3 1.7 .9 3.2 2.1 3.2 2.6 0 .6 1 1.3 2.3 1.6 1.2 .3 2.8 .6 3.5 .5 .6-.1 1.2 .4 1.2 .9 0 .6 .7 1 1.5 1 .8 0 2.5 .6 3.7 1.3 1.3 .6 3 2.1 3.8 3.2 .8 1 4.2 3.9 7.5 6.3 3.3 2.3 5.6 4.3 5 4.3-.5 0 0 .4 1.3 1 1.2 .5 2 1.4 1.7 1.9-.3 .6 .1 1 .8 1 .6 .1 2.3 1.4 3.7 3.1 1.4 1.6 3.1 2.9 3.8 2.9 .6 0 1.2 .5 1.2 1 0 .6 .5 1 1 1 .6 0 2.1 1.4 3.5 3 1.4 1.7 3.3 3 4.3 3 .9-.1 4.1 1.7 7 4 2.8 2.2 5 4.5 4.7 5-.3 .6 .4 1 1.5 1 1.2 0 2.2 .8 2.5 2 .3 1.1 1.6 2.5 3 3 1.4 .6 3.1 2.1 3.8 3.5 .6 1.4 1.5 2.5 2 2.5 .4 0 .7 .7 .7 1.5 0 .8 .8 1.4 1.8 1.3 .9-.1 2.7 .3 4 1 1.2 .7 2.2 2.1 2.2 3.2 0 1.1 .6 1.9 1.3 1.7 .6-.2 2 .7 3 2 .9 1.3 1.7 2.8 1.7 3.3 0 .6 1.7 1.7 3.8 2.5 2 .8 3.5 1.7 3.2 2-.3 .3 1.5 2.8 4 5.5 2.5 2.8 5.1 5 5.8 5 .6 0 1.2 .7 1.2 1.5 0 .8 .7 1.5 1.5 1.5 .8 0 1.7 .9 2 2 .3 1.2 1.1 1.8 2 1.5 .9-.3 1.9 .4 2.5 2 .6 1.4 1.7 2.5 2.5 2.5 .8 0 2 1 2.6 2.3 .6 1.2 2.1 3.2 3.3 4.5 1.1 1.2 2.9 3 3.9 4 .9 .9 1.7 2 1.7 2.5 0 .4 1.4 2.1 3 3.7 2 2 3 4 3 6 0 1.7 .4 2.8 1 2.5 .6-.3 .8 .7 .4 2.8-.3 1.7-1 4.6-1.5 6.2-.5 1.7-.9 4.4-.9 6 0 1.7-.7 4.4-1.6 6-.9 1.7-1.8 4.1-2 5.5-.3 1.4-.6 6.1-.9 10.5-.2 4.4-.7 10.5-1 13.5-.3 3-1.1 6.1-1.8 6.9-.6 .8-1.1 2.4-.9 3.5 .2 1.2-.3 2.8-1.1 3.6-.8 .8-1.9 2.9-2.4 4.5-.6 1.7-1.5 3.9-1.9 5-.4 1.1-.8 3.4-1 5-.2 1.7-.7 3.2-1.3 3.5-.5 .3-1 1.4-1 2.5-.1 1.1-.2 3.5-.3 5.3-.2 1.8-.9 3.6-1.6 4-.8 .4-1 1.4-.5 2.7 .5 1.5 .4 1.8-.5 1.3-.7-.5-1.2-.2-1.2 .7 0 .8-.5 1.6-1 1.8-.6 .1-1.3 1.8-1.6 3.7-.3 1.9-1.1 4.1-1.7 4.9-.7 .8-1.2 2.7-1.2 4.3 0 1.6-.6 3.2-1.3 3.6-.7 .4-1.2 1.2-1 1.7 .1 .6-.5 2.6-1.4 4.5-.8 1.9-2.3 5.6-3.2 8.3-.9 2.6-1.4 5-1.1 5.5 .3 .4-.4 1.6-1.5 2.7-1.4 1.4-1.9 2.9-1.7 5 .3 1.7-.2 4.2-.9 5.8-.8 1.5-1.5 4.7-1.6 7.2-.2 2.5-.6 4.5-1 4.5-.5 0-.8 .9-.8 2 0 1.1-.4 2-1 2-.5 0-.8 .5-.5 1 .3 .6-.5 2.9-1.6 5.3-1.2 2.3-2.5 5-3 6-.5 .9-.9 2.4-.9 3.2 0 .8-.7 1.7-1.5 2-1 .3-1.4 1.4-1.1 3.3 .2 1.5-.1 3.6-.7 4.7-.5 1.1-1.4 2.8-1.9 3.8-.4 .9-.8 2.5-.8 3.5 0 .9-.3 2.1-.7 2.5-.4 .5-.8 1.2-.9 1.5 0 .4-.3 1.4-.7 2.2-.3 .8-.8 2.9-1.2 4.5-.4 1.7-.9 4.9-1.1 7.3-.2 2.3-.9 5.2-1.5 6.5-.6 1.2-.8 2.8-.5 3.5 .3 .6 .2 1.2-.4 1.2-.5 0-1 1.8-1 4 0 2.3-.4 3.8-1 3.5-.6-.3-1 1-1 3 0 1.9-.4 3.7-1 4-.5 .3-1 1.4-1 2.5 0 1.1-.9 3.7-2 5.8-1.1 2-2 4.3-2 5 0 .6-.4 1.2-1 1.2-.5 0-.9 1.7-.7 3.8 .2 2-.2 4.6-.9 5.7-.7 1.1-1 2.5-.8 3 .3 .6-.4 2.7-1.5 4.8-1.5 2.6-1.8 4.2-1.2 5.5 .7 1.2 .4 2.6-1 4.7-1 1.7-1.9 4.7-1.9 6.8 0 2-.4 3.9-1 4.2-.5 .3-.8 1-.5 1.5 .3 .6 .2 1-.2 1-.5 0-.9 2.1-1.1 4.8-.2 2.6-.8 5.3-1.3 6-.5 .6-.6 1.8-.3 2.5 .4 .6-.3 2.3-1.4 3.7-1.3 1.7-2 4-2 7-.1 2.5-.6 5-1.2 5.5-.5 .6-1 2.1-1.1 3.5 0 1.4-.7 4.3-1.5 6.5-.8 2.2-1.6 4.5-1.8 5-.2 .6-.7 2.1-1.3 3.5-.5 1.4-.9 4.1-.9 6 .1 2.3-.5 3.9-1.6 4.8-1.2 .8-1.8 2.5-1.8 5 0 2-.7 4.6-1.5 5.7-.9 1.1-1.5 2.7-1.5 3.5 0 .8-.7 4-1.6 7-.9 3-2.7 7.6-4 10.3-1.3 2.6-2.4 5.4-2.4 6.2 0 .8-.9 3.2-2.1 5.3-1.2 2-2.5 4.3-3 5-.5 .6-.7 1.7-.4 2.2 .3 .6-.1 2.5-.9 4.3-.8 1.7-2.8 4.4-4.5 6-1.7 1.5-3.7 2.7-4.3 2.7-.7-.1-2.2 .9-3.3 2-1.1 1.1-3.2 2.1-4.7 2-1.6 0-5.3-1.5-8.3-3.2-3-1.8-5.8-4.2-6.1-5.3-.4-1.1-1.3-2.6-2.1-3.2-.7-.7-1.3-2-1.3-2.8 0-.9-.5-1.2-1.2-.7-.9 .5-1 .2-.5-1 .5-1.2-.2-3-2.2-5.5-1.6-2.1-2.9-4.2-2.9-4.8 0-.5 .4-1.2 .9-1.5 .5-.3 0-2.3-1.1-4.5-1.1-2.2-2-4.8-2-5.7 0-1-.4-2-1-2.3-.5-.3-1-2.7-1-5.5 0-2.7-.4-5-1-5-.6 0-.7-.8-.2-2 .5-1.3 .1-2.6-1.3-4-1.3-1.4-1.6-2.4-.9-2.8 .6-.4 1.1-1.6 1-2.8 0-1.1-.8-2.9-1.6-3.9-.8-1-1.4-3.1-1.2-4.6 .1-1.6-.1-2.9-.5-2.9-.5 0-1.1-1.8-1.5-4-.5-2.2-1.2-4-1.8-4-.5 0-1-1-1-2.2 0-1.3-.6-4-1.5-6-.8-2.1-1.5-4.8-1.5-6 .1-1.3-.8-3.1-2-4-1.1-1-1.8-2.4-1.5-3 .3-.7-.8-3.2-2.5-5.5-1.6-2.4-3-4.7-3-5.3 0-.5-1-2.7-2.1-4.7-1.2-2.1-2.5-4-3-4.3-.5-.3-1.1-1.6-1.4-3-.3-1.4-2.1-4-4-5.7-1.9-1.8-3.2-3.5-2.7-3.8 .4-.3-.2-1.4-1.3-2.5-1.1-1.2-2.9-2.4-4-2.7-1.1-.3-2.8-1.7-3.7-3-1-1.2-2.2-2.3-2.8-2.3-.5 0-2.3-1.1-4-2.5-1.6-1.4-3.7-2.5-4.5-2.5-.8 0-1.5-.3-1.5-.7 0-.5-1.8-1.6-4-2.5-2.2-1-4.3-1.8-4.7-1.8-.5 0-1.5-.7-2.3-1.4-.8-.8-4-1.7-7-2-3-.4-5.9-1.1-6.5-1.6-.5-.5-1.4-.7-1.8-.2-.5 .4-1.9 .7-3 .8-1.2 .1-6 .4-10.7 .8-4.7 .4-8.9 1-9.5 1.4-.5 .4-2.9 .8-5.2 .9-2.4 .2-6 1-8 1.8-2.1 .8-3.9 1.4-4 1.3-.1-.2-2.4 .2-5 .8-2.6 .7-4.7 1.6-4.6 2 .1 .5-1.1 .9-2.5 1-1.5 0-4 .4-5.7 .9-1.6 .4-3.6 1.3-4.3 1.9-1 .8-1.6 .7-2.2-.4-.5-.9-1.4-1.2-2.4-.7-1.1 .5-1.8 .1-2.2-1-.3-1-.9-2.5-1.3-3.3-.4-.8-.5-4-.3-7 .2-3.8 .6-5 1.3-4 .7 1.3 .9 1.2 .9-.2 0-1 .7-1.8 1.5-1.8 .8 0 1.5-.9 1.5-2 0-1.1 .5-2 1-2 .6 0 1-.7 1-1.5 0-.9 .9-1.5 2.5-1.5 1.4 0 2.9-.8 3.5-1.7 .5-1 .7-2.1 .5-2.5-.3-.5 1.2-1.6 3.3-2.5 2-1 4.2-2.1 4.7-2.6 .6-.4 2.6-1.9 4.5-3.2 2.8-2 3.8-2.2 4.8-1.2 1 .9 1.3 .9 1.3-.3-.1-.8 1.1-2.1 2.7-2.8 1.5-.7 3.2-1.2 3.7-1.2 .6 0 1.7-.7 2.5-1.5 .8-.8 3.9-1.6 6.8-1.7 3.3-.2 5.2-.7 5.2-1.5 0-.7 .8-1.3 1.8-1.3 .9 .1 2.4-.7 3.2-1.6 .8-.9 1.6-3 1.8-4.6 .1-1.5-.2-3-.8-3.3-.5-.3-1-2.4-1-4.7 .1-3.4-.4-4.7-2.5-6.3-1.4-1.1-2.5-2.7-2.5-3.5 0-.8-1.5-2.1-3.2-2.9-2.6-1.1-3-1.5-1.8-2.2 1.3-.7 1.2-.9-.2-.9-1 0-1.8-.4-1.8-1 0-.5-.4-.8-1-.5-.5 .3-1-.3-1-1.2 0-1.1-1.8-2.8-4.7-4.3-2.6-1.4-5.5-3.4-6.6-4.5-1-1.1-2.9-2.6-4-3.2-1.2-.7-3-1.5-3.9-1.8-1-.3-1.8-1.1-1.8-1.7 0-.7-1.2-2.1-2.7-3-1.6-.9-5.8-4.6-9.5-8.2-3.8-3.6-7.6-6.6-8.5-6.6-1-.1-2.3-.8-3-1.8-.6-.9-1.5-1.7-2-1.7-.4-.1-3.2-1.2-6.1-2.5-2.9-1.4-5.4-3.2-5.7-4-.2-.8-2.5-3-5-4.7-2.5-1.8-5.4-3.3-6.5-3.3-1.1 0-2-.4-2-1 0-.5-.7-1-1.5-1-.8 0-1.7-.7-2-1.5-.3-.8-1.2-1.5-2-1.5-.8 0-1.5-.4-1.5-1 0-.5-.6-1-1.2-1-.7 .1-2.2-.9-3.3-2-1.1-1.1-2.6-2.1-3.2-2-.7 0-1.5-.7-1.8-1.5-.3-.8-1.2-1.3-2-1-.8 .3-1.5-.1-1.5-.7 0-.7-1.4-2-3.2-2.8-1.8-.8-3.3-2.2-3.3-3 0-.9-.9-1.5-2.2-1.5-1.1 0-1.9-.3-1.7-.7 .2-.5-.6-1.6-1.9-2.5-1.3-1-2.3-2.6-2.3-3.5 .1-1 .7-1.8 1.4-1.8 .6 0 1.1-.6 .9-1.2-.2-.7-1-1.3-1.8-1.3-1.1 0-1.4-2.2-1.4-11-.1-8-.6-12.2-1.8-15.5-1.3-3.2-2.4-4.6-4-4.8-1.2-.2-4.4-.4-7.2-.4-2.7-.1-7.5 .2-10.5 .5-3 .4-5.6 .8-5.7 .9-.1 .2-2-.1-4.2-.7-2.2-.5-4.3-1.7-4.5-2.5-.3-.8-1.1-2.3-1.8-3.2-1-1.4-1.1-2.9-.2-7 .6-2.9 1-6.1 .8-7-.2-1-.8-1.6-1.4-1.3-.5 .3-1-.4-1-1.5 0-1.1-.4-2.2-1-2.5-.5-.3-1-1.4-1-2.5 0-1.1-.7-2-1.5-2-.8 0-1.7-.6-2-1.2-.4-.9-2.6-1.2-7-1-3.6 .1-7.4 .7-8.5 1.2-1.1 .6-3.2 1-4.7 1-1.6 0-3.9 .9-5.3 2-1.4 1.1-3.3 2-4.2 2-1 0-1.8 .3-1.8 .8 0 .4-2.4 .5-5.3 .3-2.8-.2-5.6-.7-6.2-1.2-.5-.5-1.7-.9-2.5-.9-.8 0-4-2.3-7-5.1-3-2.8-6.6-6-7.9-7.2-1.4-1.3-4-2.3-6-2.4-2.4-.1-4.4 .5-5.8 1.7-1.3 1.1-2.6 2-3 2-.5 0-3.1 2.1-5.9 4.7-2.9 2.7-5.4 5.7-5.7 6.8-.3 1.1-2.1 3.6-3.9 5.6-1.8 2-3.9 4.4-4.5 5.5-.7 1-2.1 3.6-3 5.7-1 2-2.1 3.7-2.5 3.7-.5 0-.6 .9-.3 2 .3 1.1 .2 2-.2 2-.5-.1-1.5 1.4-2.3 3.2-.8 1.8-3.5 5.2-6 7.5-2.5 2.4-5.3 4.5-6.2 4.8-1 .3-1.8 .8-1.8 1.3 0 .4-1.7 1.2-3.7 1.9-2.1 .7-6.7 1.5-10.3 1.8-3.6 .3-7.6 .8-9 1-1.4 .2-5.2 .6-8.5 1-3.3 .3-7.1 .8-8.5 .9-1.4 .2-4.7 .7-7.5 1.1-2.7 .4-7.4 1.4-10.2 2.1-2.9 .8-5.6 1.3-6 1.2-.5-.1-1.9 .4-3.3 1.1-1.6 .9-4 1.1-6.7 .7-2.5-.3-4.5-.2-4.8 .4-.3 .6-1.7 1.5-3.2 2.1-1.6 .6-4.8 1.2-7.3 1.3-2.5 .2-6.6 1.3-9.2 2.5-2.7 1.1-5.4 1.8-6 1.5-.7-.3-2 .2-2.8 1.1-.9 .9-3.1 1.6-5.2 1.5-2.1 0-3.8 .5-3.8 1 0 .6-1.2 1.5-2.7 2-1.6 .6-3.9 1.5-5.3 2.1-1.4 .6-3.7 1.7-5.2 2.5-1.6 .8-3.5 1.1-4.4 .7-.9-.5-1.9-.3-2.2 .2-.4 .6-1.7 1.6-2.9 2.3-1.3 .6-2.9 1.2-3.5 1.2-.7-.1-2.2 .9-3.3 2-1.1 1.1-2.8 2.1-3.7 2-1 0-2 .5-2.3 1-.3 .6-3.5 2.4-7.2 4.1-3.8 1.6-7.8 3.2-9 3.5-1.3 .2-2.3 .9-2.3 1.4 0 .6-.7 1-1.5 1-1 0-1.3 .7-1 2 .3 1.2-.1 2.2-1 2.5-.8 .3-1.5 1-1.5 1.5 0 .6 .6 .7 1.3 .4 .9-.6 .9-.4-.1 .7-.7 .8-1.2 2.3-1.2 3.4 0 1.1 .7 2.9 1.5 4 .8 1.1 1.2 2.5 .8 3-.3 .6-.9 .4-1.4-.5-.7-1.3-.9-1.2-.9 .3 0 .9 .7 1.9 1.5 2.2 .8 .3 1.5 1.2 1.5 2 0 .8 1.5 3.4 3.3 5.8 1.8 2.3 4.1 5.2 5.2 6.5 1.1 1.2 2.5 2.2 3 2.2 .6 .1 2 1.2 3.3 2.5 1.2 1.4 2.7 2.5 3.2 2.5 .6 0 1.2 1.1 1.5 2.5 .3 1.4 1 2.3 1.5 2 .6-.3 1.6 .4 2.3 1.5 .6 1.1 2 2 3 2 1 0 1.5 .5 1.1 1.3-.3 .6 .1 1.5 .8 1.8 .8 .4 1.2 2.2 1 5-.1 2.4-.6 5.9-1 7.8-.4 1.9-1.3 3.6-1.9 3.7-.7 .2-1.3 1.3-1.3 2.4 0 1.1-.4 2-1 2-.5 0-1.7 .7-2.5 1.5-1.1 1.1-2.4 1.3-5 .8-2-.5-3.5-1.1-3.5-1.5 0-.5-1.3-.8-3-.8-2 0-3.2-.6-3.6-1.7-.3-1-.6-2-.6-2.3-.1-.3-2.1-2.1-4.6-4-3.8-2.9-5.1-3.4-8.6-3.2-3.4 .3-4.2 0-4.6-1.6-.4-1.5-1.1-1.8-3-1.5-1.6 .3-3.6-.4-5.5-1.9-1.9-1.4-4.1-2.2-6-2-1.6 .1-3.7-.2-4.5-.7-.9-.5-5.1-.3-10.5 .4-4.9 .7-9.7 1-10.5 .8-.8-.3-1.8 0-2.2 .6-.5 .6-2 1.1-3.5 1.1-1.6-.1-3.7 .9-4.8 2-1.1 1.1-2.4 2-3 2-.5 0-2.2 .5-3.7 1.2-1.6 .7-2.8 1.6-2.8 2.1 0 .4-.7 .7-1.5 .7-.8 0-1.6 .5-1.7 1.1-.2 .6-1.6 1.1-3.2 1.2-1.9 .1-4.3 1.7-7.5 5-2.8 2.9-5.2 4.5-6.1 4.2-.9-.4-2 .3-2.8 1.7-.6 1.3-2.8 3-4.8 3.8-2 .8-4.3 2.3-5.2 3.4-1 1-1.7 2.1-1.6 2.5 .1 .3-.6 1.6-1.5 2.9-.9 1.3-2.4 2.5-3.3 2.8-1 .2-1.8 1.1-1.8 1.9 0 .8-.7 1.5-1.5 1.5-.8 0-3.7 2.1-6.3 4.8-2.7 2.6-5.6 5.9-6.5 7.5-.9 1.5-1.7 3.6-1.7 4.7 0 1.1-.6 2-1.2 2-.7 0-1 .3-.5 .7 .4 .5-.2 1.7-1.2 2.8-1.1 1.1-3.5 4.9-5.4 8.5-1.9 3.6-3.3 7.1-3.1 7.8 .2 .6-.3 1.2-1.1 1.2-.8 0-1.5 .9-1.5 2 0 1.1-.4 2.2-1 2.5-.5 .3-.9 1.1-.9 1.8l0.1 1.2-.1 2.8c0 1.5-.5 2.5-1.1 2.2-.5-.3-1.3 .5-1.6 1.8-.3 1.2-.6 2.5-.5 3 .1 .4-1 3.3-2.4 6.5-1.4 3.1-2.4 6.2-2.1 6.7 .2 .6-.6 3.3-1.8 6-1.3 2.8-3.2 5.7-4.2 6.6-1 .9-3.2 2.1-4.9 2.7-1.6 .5-4.7 1.3-6.7 1.6-2.8 .5-3.6 .3-3-.6 .5-.9 .1-1-1.3-.6-1.3 .4-2.9-.2-4.7-1.8-1.6-1.3-2.6-3-2.5-3.6 .2-.7-.4-2-1.3-2.8-1-.8-2.1-3.1-2.6-5-.4-1.9-.9-8.4-1-14.5-.1-6-.4-13.5-.8-16.5-.3-3-.7-8.1-.9-11.3-.1-3.3 .1-6.1 .6-6.3 .4-.2 .7-1.9 .7-3.6 0-1.8-.7-4.6-1.5-6.3-.9-1.6-1.5-3.9-1.3-5 .2-1.1 .8-2.3 1.3-2.7 .6-.5 .4-1.1-.5-1.7-1.1-.6-1.2-1.3-.5-2.2 .5-.8 1-2.5 1.1-3.9 0-1.4-.4-2.8-1-3.2-.7-.4-.8-1.3-.2-2.5 .5-1 .8-2.2 .6-2.8-.1-.5-.3-2.8-.4-5-.1-2.2 .3-4.6 .8-5.4 .6-.8 1.2-4.7 1.4-8.8 .1-5.3-.2-7.9-1.4-9.5-1-1.5-1.3-3.4-1-5.5 .4-2.1 .2-3.5-.6-3.9-1-.5-.9-.9 .2-1.5l1.5-.9-1.5-1-1.5-1 1.5-.9c1.1-.6 1.2-1 .3-1.5-.7-.3-1.1-1.4-.8-2.3 .3-1 0-2.1-.7-2.5-1-.6-1-1 .2-1.8 .8-.5 1.6-2.2 1.8-3.7 .2-1.5 .3-5 .4-7.8 0-2.7-.1-8.3-.1-12.2-.1-5.1-.5-7.3-1.3-7.3-.9 0-.8-.3 .2-.9 1-.6 1.2-1.3 .6-2.2-.6-1-1-1.1-1.5-.2-.3 .6-.6-2.1-.5-6 0-4-.5-8-1-8.9-.8-1.3-.7-2.4 .2-4l1.4-2.3-1.4-.8c-.7-.5-.9-1-.3-1.3 .6-.2 .9-3.6 .8-7.6-.1-4-.2-13.8-.4-21.8-.1-9.7 .2-15.8 1.1-18.5 .7-2.3 1-5.6 .6-7.7-.4-2.3-.2-3.8 .4-3.8 .6 0 .3-1.2-.7-2.7-.9-1.6-1.8-4.1-2-5.8-.2-1.6-.6-4.1-1-5.5-.3-1.4-.7-3.6-.9-5-.2-1.4-.4-6.5-.4-11.5-.1-4.9 .2-10.2 .5-11.7 .3-1.6-.1-3.9-1-5.3-.9-1.5-1.1-2.6-.5-2.7 .6-.2 1.3-3.8 1.5-8 .3-5 .1-7.6-.5-7.3-.6 .3-.7-.6-.2-2.5 .5-2.2 .3-3-.5-3-1 0-1.3-2.9-1.3-11.2 0-6.2-.5-12.8-1-14.5-.6-1.8-.7-4.3-.2-5.5 .4-1.3 .7-3.6 .5-5.3-.1-1.6-.5-7.9-.9-14-.4-6-.6-12-.6-13.2 .1-1.3-.2-2.3-.8-2.3-.5 0-.9-1.1-.7-2.5 .1-1.4 .7-2.5 1.2-2.5l1 0-1-.8c-.5-.4-1.1-3.4-1.1-6.7-.1-3.3-.2-8.8-.3-12.2-.1-3.9-.5-6.1-1.1-5.8-.5 .3-1 .1-1-.5 0-.5 .5-1 1-1 .6 0 1-1 1-2.2 .1-1.3-.6-3-1.5-3.8-.9-.8-1.6-2.1-1.5-2.7 0-.7 .5-1.3 1-1.3 .6 0 1-1.3 1-3 0-2 .6-3.2 1.8-3.6 1.3-.5 1.4-.8 .4-1.3-1-.4-.7-1.3 1.2-3.1 1.4-1.4 2.6-3.1 2.6-3.7 0-.7 1.5-2.2 3.3-3.3 1.7-1.1 2.8-2 2.2-2-.5 0 1-1.8 3.5-4 2.5-2.2 5.6-4.2 7-4.5 1.4-.3 3.2-.7 4-.8 .8-.1 2.4-1.2 3.5-2.3 1.1-1.2 3.8-2.5 6-2.9 2.2-.4 5.2-1.8 6.8-3.1 1.5-1.3 3.4-2.2 4.2-1.9 .8 .3 1.5 .1 1.5-.5 0-.5 1.7-1.9 3.8-3.1 2-1.1 4.5-1.8 5.5-1.5 1 .4 1.9 0 2.2-.9 .3-.8 1.9-1.7 3.5-2 1.7-.3 3-.8 3-1.2 0-.5 1.8-1.1 4-1.5 2.6-.5 5.3-2.1 7.8-4.4 2.8-2.7 3.9-3.3 4.4-2.3 .6 1 .8 1.1 .8 .2 0-.7 .6-1.3 1.3-1.3 .6 .1 1.9-.7 2.8-1.7 .9-1 3.9-2.4 6.5-3.2 2.7-.8 5.1-1.7 5.4-2.1 .3-.4 2.1-1.4 4-2.3 1.9-1 4.7-1.7 6.3-1.7 1.5 0 2.9-.4 3.2-1 .3-.5 1.4-.8 2.5-.5 1.1 .3 2.2 .1 2.5-.5 .3-.5 1.4-1 2.5-1 1.1 0 2.7-.7 3.5-1.5 .8-.8 1.2-1.8 .8-2.1-.5-.3-.3-.5 .2-.3 .6 .1 2.9-.2 5.3-.7 2.3-.5 4.2-1.2 4.2-1.6 0-.5 .7-.8 1.5-.8 .8 0 1.5-.4 1.5-1 0-.5 1.9-.9 4.2-.7 3.3 .1 4.3-.2 4.3-1.3 0-.9 .9-1.4 2-1.3 1.1 .1 3.2-.7 4.8-1.8 1.5-1 3.6-1.7 4.7-1.4 1.1 .3 3-.1 4.3-.8 1.2-.7 4.2-1.9 6.7-2.7 2.5-.8 4.7-1.4 5-1.5 .3-.1 1.9-.5 3.5-1 1.7-.4 4.2-1.6 5.8-2.6 1.5-1.1 4.3-1.9 6.2-1.9 1.9 0 3.7-.4 4-1 .3-.5 1.3-.7 2.3-.3 1.3 .6 1.5 .5 .7-.7-.8-1.2-.7-1.3 1-.3 1.3 .7 2.8 .8 4.5 .2 1.4-.6 3.1-.7 3.8-.4 .6 .3 1.4 .1 1.7-.5 .3-.5 1.5-.9 2.8-.8l2.2 .1 3.3-.1c2.2-.2 3-.6 2.5-1.4-.6-.9-.3-1 1-.5 1.1 .5 1.9 .2 2.2-.8 .3-.8 1.6-1.5 3-1.5 1.4 0 2.6-.6 2.8-1.2 .2-.8 2.2-1.4 4.8-1.5 2.4-.1 6.2-.3 8.4-.4 2.2-.1 4.9-.7 6-1.5 1.1-.7 4.7-1.7 8-2.3 3.3-.6 7.8-1.4 10-1.8 2.2-.4 5.8-.7 8-.7 2.5 0 4.4-.6 5.2-1.5 .7-1 3.7-1.9 8-2.4 3.7-.4 8.2-.9 9.8-1.2 1.7-.2 5.1-.7 7.8-1 2.6-.3 5.6-.9 6.7-1.5 1.1-.5 6.2-1 11.3-.9 5 0 10.8 .1 12.7 .2 1.9 .2 4-.1 4.5-.5 .6-.4 3.5-.9 6.7-1 3.1-.2 5.8-.5 6.1-.8 .3-.3 2.5-.3 4.9-.1ZM554.7 376.3c-.4-.5-.8-.1-.8 .7 0 .8 .4 1.2 .8 .8l0.8-.8-.8-.7ZM298 523.9c0.8 .4 2.9 1.6 4.7 2.6 2.3 1.5 3.3 3 3.7 5.5 .3 1.9 1.5 4.3 2.6 5.3 1.1 .9 1.8 2.4 1.5 3.2-.3 .8-.2 1.5 .3 1.5 .4 0 .6 1.2 .5 2.8-.1 1.5 .7 4.5 1.7 6.7 1.1 2.2 1.7 4.3 1.5 4.8-.3 .4-.1 .8 .4 1 .5 .1 1.1 2.5 1.3 5.2 .3 2.8 1.2 6.6 2.2 8.5 .9 1.9 1.6 5.5 1.6 8 0 2.5 .6 5.4 1.4 6.5 .8 1.1 1.4 3.4 1.3 5 0 1.7 .4 3.7 .9 4.5 .5 .8 .9 3.3 1 5.5 0 2.2 .8 5.2 1.7 6.8 1 1.5 1.5 3.6 1.2 4.7-.3 1.1 0 3 .7 4.3 .7 1.2 1.1 3 1 4-.1 1.1 .3 1.5 1.1 1.1 .9-.6 .9-.4-.1 .7-.7 .8-1.2 2.2-1.2 3.2 0 .9 .9 1.9 2 2.2 1.1 .3 3 2.1 4.3 4 1.2 1.9 2.6 3.2 3.1 2.7 .5-.4 .6-.1 .3 .6-.4 .6-.1 1.3 .6 1.3 .6 .1 1.7 .1 2.2 0 .6-.1 2.8 1.3 5 3.1 2.2 1.8 4.7 3.3 5.5 3.3 .8 0 2.1 .4 2.8 .8 .6 .4 2.3 .5 3.7 .2 1.4-.3 3.2 .1 4.1 .8 1 .8 2.6 .9 4.5 .5 2.5-.7 2.8-.6 2.2 1-.5 1.4-.4 1.5 .8 .6 .9-.8 3.4-.9 7.4-.4 3.3 .4 8 1.5 10.5 2.4 2.5 .9 5.2 1.6 6 1.6 .8 .1 2.9 .9 4.7 1.8 1.7 .9 5.3 2.8 8 4.2 2.6 1.4 5.1 2.9 5.5 3.5 .3 .5 1.3 .7 2.2 .3 1.1-.5 2.2-.1 3.4 1.3 .9 1.2 2.8 2.7 4.2 3.4 1.4 .7 3.4 1.3 4.5 1.2 1.3-.1 1.9 .3 1.6 1.3-.2 .8-.5 3.3-.8 5.5-.2 2.2-.9 5.7-1.6 7.8-.7 2.1-1.5 3.7-1.9 3.7-.5 0-1 1.7-1.3 3.8-.3 2-1.4 4.4-2.5 5.2-1.5 1.2-1.7 1.8-.7 2.8 1 1.1 .9 1.3-.5 .8-1-.3-1.8-.1-1.8 .4 0 .6 .6 1 1.3 1 .6 0 .4 .5-.5 1-1 .6-2.7 3.1-3.9 5.8-1.2 2.6-3.4 7.4-5 10.7-1.6 3.3-2.9 6.6-2.9 7.3 0 .6-1.1 2.2-2.5 3.5-1.3 1.2-2.5 2.7-2.5 3.2 0 .6-.8 1.8-1.8 2.8-1.3 1.4-1.4 2-.4 2.5 1 .6 1 1-.3 2.2-1.3 1.2-1.5 2.7-1.1 7.3 .4 3.3 .2 5.8-.4 6-.5 .1-.6 1.7-.2 3.8 .4 2.2 1.8 4.5 3.5 5.8 1.8 1.4 2.5 2.7 2.2 4.1-.3 1.3 .2 2.3 1.5 3 1.1 .6 1.9 1.6 1.7 2.3-.2 .6 .7 2.2 2 3.5 1.3 1.2 2.3 2.7 2.3 3.2 0 .6 1.8 1.6 3.9 2.3 2.3 .7 3.8 1.7 3.5 2.5-.2 .6 .2 1.2 .9 1.2 .6-.1 2.4 1.1 4 2.5 1.5 1.4 2.5 3 2.2 3.5-.3 .6 .2 1.5 1 2 .8 .6 2 .8 2.5 .5 .6-.3 1.2 .6 1.5 2 .3 1.4 .8 2.5 1.3 2.5 .4 0 2.6 1.8 5 4 2.3 2.2 4.2 4.7 4.2 5.5 0 .8 .5 1.3 1 1 .6-.3 2.5 1 4.3 2.8 1.9 1.7 5.4 5 7.8 7.3 2.4 2.2 5.4 5.4 6.7 7 1.2 1.6 2.6 2.6 3 2.2 .4-.4 1.9-.1 3.5 .7 2 1.1 2.5 2 2 3.3-.6 1.4-.4 1.5 .8 .5 1.1-1 1.6-.8 2.7 1.2 .7 1.5 1.9 2.4 2.9 2.3 1-.2 1.8 .2 1.8 .7 0 .6 1.8 2.9 4.1 5 2.2 2.2 4.7 3.8 5.5 3.5 .9-.2 1.1 0 .7 .8-.5 .7-.2 1.2 .7 1.2 .8 0 1.8 .7 2.3 1.5 .4 .7 2.3 2.5 4.2 3.9 1.9 1.4 3.7 2.3 4 2.1 .3-.3 1.7 .9 3.3 2.5 1.5 1.7 2.7 3.5 2.7 4 0 .6 .8 1.1 1.8 1.2 .9 0 2.2 .1 2.8 .2 .7 .1 2 .9 3 1.8 1.1 1 3 1.8 4.4 1.8 1.4 0 3.3 .9 4.3 2 1.1 1.3 2.2 1.7 3.2 1.3 .9-.5 2.2-.1 3.3 1 .9 .9 2 1.4 2.5 1 .4-.5 .7-.2 .7 .5 0 .7 1.4 1.2 3.5 1.2 1.9 0 3.5 .5 3.5 1 0 .6 .9 1 2 1 1.1 0 2.2 .7 2.5 1.5 .3 .8 2.6 2.9 5.3 4.6 2.6 1.8 5.3 3.9 6 4.8l1.2 1.6 0-1.7c0-1.5 .6-1.4 4.3 1.1 2.3 1.5 5.6 4.2 7.2 5.9 1.7 1.7 4 3.4 5.3 3.7 1.2 .3 2.2 1.1 2.2 1.8 0 .6 1.2 2 2.8 3 1.5 1 3.8 3.4 5.2 5.3 1.4 1.9 3.1 3.5 3.8 3.4 .7 0 1.2 1.2 1.2 2.8 0 2.2 .5 2.8 3.2 3.5 2.5 .6 2.9 1 1.8 1.6-1.3 .8-1.2 1.1 .5 2 1.1 .6 2.3 .7 2.7 .3 .4-.4 1 .7 1.4 2.3 .4 1.7 1.4 3.8 2.3 4.7 .9 1 1.3 2.4 .9 3-.3 .7 .4 2.5 1.8 4.1 1.5 1.6 2.9 2.4 3.6 2 .9-.5 1-.4 .5 .5-.4 .7 .4 2.1 2.1 3.6 1.5 1.4 3.4 2.2 4.2 1.9 1.1-.4 1.2-.3 .5 .6-.7 .9-.3 2.1 1.3 3.9 1.3 1.5 3.4 2.7 4.5 2.7 1.2 0 3.5 .9 5.1 2 1.5 1.1 3.8 3.7 5 5.8 1.3 2.4 2.7 3.7 3.6 3.4 .9-.3 2.1 .7 3 2.7 .8 1.7 1.3 3.4 1.2 3.9-.1 .4 .7 .7 1.8 .7 1.1 0 4.5 2.6 7.8 6 3.2 3.3 6.6 5.9 7.7 5.9 1.1 .1 3.1 1 4.5 2.3 1.4 1.2 3.4 2.2 4.6 2.2 1.6 .1 1.9 .6 1.5 2-.5 1.6-.2 1.8 1.7 1.3 1.5-.5 2.4-.2 3 .9 .5 1.1 1.5 1.4 3.5 1 1.5-.4 2.7-.2 2.7 .4 0 .6 1.7 .7 4.3 .4 3.3-.6 5-.2 8.2 1.6 2.2 1.3 5.9 4.2 8.2 6.4l4.1 4.1-.9 4.5c-.5 2.5-.7 5.3-.4 6.3 .3 .9-.3 2.5-1.4 3.5-1.1 1-2.4 4.3-3.1 8.2-.6 3.6-1.9 8.3-2.8 10.5-.9 2.2-2.4 5.1-3.3 6.5-.9 1.4-2.1 3.7-2.6 5.3-.4 1.5-1.4 3-2 3.2-.7 .3-1.3 1.4-1.3 2.5 0 1.1-.4 2.2-1 2.5-.5 .3-1.2 1.9-1.5 3.5-.3 1.7-.9 3-1.5 3-.5 0-1 .9-1 2 0 1.1-1.1 3.2-2.5 4.8-1.4 1.5-2.3 3.2-2.1 3.7 .3 .6-.2 2-1 3.3-.8 1.2-1.1 3-.8 4 .4 1-.5 3.3-2.1 5.7-1.6 2.3-2.6 5-2.4 6.2 .2 1.3 .1 2.3-.3 2.3-.5 0-.6 .7-.3 1.5 .3 .8-.4 2.9-1.5 4.5-1.1 1.7-1.8 3.7-1.5 4.5 .3 .8-.2 2.5-1 3.8-.8 1.2-1.5 3-1.5 4 0 1.2-.5 1.5-1.6 1-1.2-.6-1.5-.4-1 1 .3 .9 .2 1.7-.4 1.7-.5 0-.8 1.1-.5 2.5 .3 1.5-.1 3.1-1 4-.8 .8-1.3 2.2-1 3 .3 .8 .1 1.5-.5 1.5-.5 0-.8 .6-.6 1.3 .2 .6-.2 1.9-.8 2.7-.7 .8-1.8 3.8-2.5 6.5-.7 2.8-1.9 5.7-2.6 6.5-.8 .8-1.8 3.6-2.2 6.2-.4 2.6-1.6 5.2-2.6 6-1 .7-1.9 2.3-2 3.6-.1 1.2-.5 2.2-.9 2.2-.5 0-.8 .7-.8 1.5 0 .8-.7 1.7-1.5 2-.9 .3-1.5 1.7-1.5 3.8 0 1.7-.6 4.1-1.5 5.2-.8 1.1-1.4 2.9-1.5 4 0 1.1-.5 2.6-1.2 3.3-.7 .7-.8 1.2-.3 1.2 .6-.1 .4 .6-.2 1.5-.7 .8-1.1 2.2-.8 3 .3 .8-.4 2.9-1.5 4.5-1.1 1.7-2.8 4.2-3.8 5.8-1.1 1.5-2.9 5.7-4 9.5-1.2 3.7-2.8 6.7-3.4 6.7-.7 0-2.4 1.4-3.8 3-1.4 1.6-4.1 4-6 5.4-1.9 1.4-4.1 2.3-4.7 2-.7-.2-1.9 0-2.5 .5-.7 .5-3.5 .9-6.3 1-2.7 0-5.2 .4-5.5 .8-.3 .4-3.2 .9-6.5 1.1-3.3 .2-7.6 .8-9.5 1.4-1.9 .6-5.1 1.7-7 2.5-1.9 .8-5 2.1-6.7 2.9-1.8 .8-4.4 1.4-5.8 1.4-1.4 0-3.3 .9-4.2 2-1 1.1-2.7 2-3.8 2-1.1 0-3.5 1.2-5.2 2.5-1.8 1.4-3.3 2.3-3.3 2 0-.3-.9 0-2 .5-1.1 .6-1.8 1.5-1.5 2 .3 .6-.1 1-.7 1-.7 0-3.2 1.5-5.5 3.5-2.4 1.9-5.4 3.5-6.8 3.5-1.4 0-2.7 .7-3 1.5-.3 .9-1.7 1.5-3.5 1.5-2.1 0-2.8 .4-2.3 1.3l0.7 1.2-1.7-1.2c-1-.8-3-1.1-4.9-.7-2.4 .5-4.3 .1-7-1.5-2.1-1.1-4.4-2.1-5-2.1-.7 0-2.3-1-3.6-2.3-1.3-1.2-2.9-2.2-3.5-2.3-.7-.1-2.2-.4-3.4-.8-1.3-.3-2.3-.9-2.3-1.3 0-.5-2.7-.9-6-1-3.3-.2-6.2 .2-6.5 .7-.3 .6-1.4 .8-2.5 .5-1.4-.4-3.2 .8-6.5 4.3-2.5 2.6-4.6 5.2-4.6 5.7-.1 .6-.2 1.5-.4 2-.1 .6-.6 1.9-1 3-.5 1.1-1.7 2.6-2.7 3.3-1 .6-1.8 1.9-1.8 2.7 0 .8-1.2 2-2.7 2.6-1.6 .6-3.7 1.2-4.8 1.3-1.1 .2-3.5 .6-5.2 1-2.3 .4-3.3 .2-3.3-.6l0.1-1.3-1.6 1.3c-.9 .7-2 .9-2.7 .3-.7-.5-2.2-.5-3.3 0-1.1 .4-4.2 .8-7 .8-3.2 0-5.5 .6-6.5 1.6-.8 .8-1.7 1.3-2 1.1-.3-.3-1.3-.1-2.2 .4-1 .6-2 2.2-2.3 3.8-.3 1.5-1.4 3.8-2.5 5.2-1.4 1.6-2 3.6-1.8 5.8 .2 1.9 0 3.5-.4 3.8-.5 .2-.6 2.2-.3 4.4 .3 2.2 .1 4.2-.5 4.5-.5 .3-.8 1-.5 1.5 .3 .6-.3 1.9-1.2 3-1 1.2-2.7 2.1-3.8 2.1-1.1 0-3.2-.9-4.7-2.1-1.6-1.1-3.7-2-4.8-2-1.2 0-2.6-1.2-3.5-3-.8-1.6-1.9-2.8-2.5-2.5-.5 .3-1.2-.4-1.5-1.5-.3-1.1-.9-1.8-1.5-1.5-.5 .3-1.9-.4-3-1.5l-2-2 1.8-.1c1.3 0 1.2-.2-.5-1-1.3-.5-2.3-1.2-2.3-1.6 0-.5 .5-1.3 1.2-2 1-.9 .8-1.3-.9-1.7-1.3-.3-2.4-1.2-2.4-1.8l-.1-1.3 .1-1.2c0-.7-1.5-1.9-3.4-2.5-1.9-.7-3.5-1.9-3.5-2.5 0-.7-.4-1.3-1-1.3-.5 0-.8-.4-.5-1 .3-.5-.1-1-.7-1-.9 0-.8-.3 .2-.9 1.1-.6 1.2-1 .3-1.5-.7-.3-1.7-.4-2.3-.1-.5 .3-1 .1-1-.5 0-.5-.9-2.3-2-4-1.1-1.6-1.8-3.7-1.5-4.5 .3-.8 .1-1.5-.5-1.5-.5 0-1.9-.9-3-2-1.1-1.1-1.7-2.2-1.2-2.5 .4-.3-.3-1.2-1.5-2-1.3-.8-2.3-2.2-2.3-3 0-1-.7-1.3-2-1-1.3 .3-2.4-.2-3-1.2-.5-1-.7-2.1-.5-2.5 .3-.5-.4-1.8-1.5-3-1.2-1.3-3-4.1-4.2-6.3-1.1-2.2-3.3-5.3-4.9-7-1.6-1.6-2.9-3.8-2.9-4.7 0-1-.4-1.8-1-1.8-.5 0-1.6-1.5-2.3-3.2-.7-1.8-2.4-4.9-3.8-6.8-1.3-1.9-2.9-4.2-3.4-5.1-.6-.9-2.2-3.5-3.7-5.8-1.6-2.2-2.6-4.5-2.3-5.1 .3-.5 .1-1.2-.5-1.5-.5-.3-1.5-1.7-2.2-3.2-.6-1.6-1-3.4-1-4 .1-.7-.5-1.5-1.3-1.8-.8-.3-1.5-1.2-1.5-2 0-.9-.6-1.3-1.5-1-.9 .3-1.4 0-1.1-.7 .2-.7-.7-3.2-2-5.5-1.3-2.4-2.4-5-2.4-5.8 0-.8-.7-1.5-1.5-1.5-.8 0-1.3-.4-1-1 .3-.5 .1-2.3-.5-4-.5-1.6-1.4-2.8-2-2.5-.5 .3-1 .2-1-.2 .1-.5-1.3-2.3-3-4-1.6-1.8-2.7-3.9-2.4-4.5 .3-.7-.2-2-1.1-2.8-.9-.8-1.6-2.3-1.5-3.2 0-1-.6-1.8-1.2-1.8-.8 0-1.3-1.4-1.3-3.8 0-2.4-.8-4.7-2.2-6.5-1.3-1.5-2.1-3.1-1.8-3.7 .3-.5-.4-1.8-1.4-2.7-1-1-2.2-3.6-2.6-5.8-.5-2.2-1.6-5.1-2.7-6.5-1-1.4-1.9-3.3-1.8-4.2 0-1-.4-1.8-1-1.8-.5 0-1-1.1-1-2.5 0-1.4-.4-2.5-1-2.5-.5 0-1.2-1.5-1.5-3.2-.3-1.8-.6-3.7-.8-4.3-.2-.5-.9-2.3-1.6-4-.7-1.6-2.1-4.7-3.2-6.7-1-2.1-1.9-4.5-1.9-5.3 0-.8-.4-1.3-1-1-.5 .3-1.3-1.4-1.6-3.7-.4-2.4-.6-4.5-.6-4.8 0-.3-.5-1.2-1.2-2-.7-.8-2-3.4-2.9-5.7-1-2.4-1.5-5.4-1.2-6.8 .4-1.8 .1-2.5-1-2.5-.9 0-1.4-.7-1.1-1.7 .1-1 0-2.7-.5-3.8-.4-1.1-1.1-2.9-1.5-4-.4-1.1-.6-2.9-.5-4 .1-1.1-.9-3.7-2.3-5.7-1.7-2.5-2.6-5.2-2.6-7.8 0-2.5-.5-4-1.2-4.1l-1.3-.1 1.3-.4c0.9-.3 .7-1.9-1-6.6-1.2-3.5-2.4-7-2.6-7.8-.3-.8-.4-2.3-.4-3.2 .1-1-.5-2-1.3-2.3-.8-.3-1.5-1.4-1.5-2.5 0-1.1 .5-2 1-2 .6 0 1-.7 1-1.5 0-.8-.8-1.5-1.7-1.5-1.6 0-1.7-.6-1.2-4.7 .4-3.4 .2-5.2-.8-6-.7-.7-1.4-3-1.5-5 0-2.1-.1-4.7 0-5.8 .1-1.1-.4-2.6-1.1-3.3-1-1-.9-1.3 .3-1.3 1.2 .1 1.2-.1 .1-.7-.9-.4-1.1-1.6-.7-3.4 .4-2 .2-2.9-.9-3.3-1.2-.4-1.5-2.3-1.2-10.1 .1-5.3-.1-9.8-.5-10-.5-.2-.8-1.5-.8-2.9 0-1.4-.4-2.3-1-2-.5 .3-1-.3-1-1.2 0-1-.3-2.2-.7-2.6-.5-.5-.9-1.6-1.1-2.5-.1-1-.5-3.5-.7-5.7-.3-2.2-.8-4.1-1.3-4.2-.4-.2-.6-3.9-.4-8.3 .1-6-.2-8.4-1.3-9.5-.8-.8-1.5-2.1-1.5-2.7-.1-.9 .4-.9 1.5 .2 1.1 1.1 1.6 1.1 1.5 .3 0-.7-.7-1.5-1.5-1.8-.8-.3-1.5-1.5-1.5-2.7 0-1.9 .2-2 1-.8 .7 1.1 1 .7 1-1.7 0-1.8-.4-3.3-1-3.3-.5 0-1-.4-1-1 0-.5 .5-.7 1.2-.2 .9 .5 1-3.8 .3-18.8-.4-10.7-.8-22.2-.8-25.5 0-3.3-.4-6.2-.9-6.5-.5-.3-.3-1.2 .5-2 1.3-1.2 1.5-5.3 1.4-24.2-.1-14.4 .2-23 .8-23.3 .6-.3 .5-.7-.2-1-.7-.3-1.3-.9-1.3-1.5 0-.5 .8-1 1.8-1 1.4 0 1.5-.2 .2-.9-.8-.6-1.8-.8-2.2-.5-.5 .2-.8 0-.8-.6 0-.5 .5-1 1-1 .6 0 1-1 .9-2.2 0-1.3 .2-3.9 .6-5.8 .4-1.9 .8-4.8 .9-6.5 .1-1.6 .6-3.7 1.1-4.5 .5-.8 1-3.1 1.2-5 .2-1.9 .7-6.2 1.2-9.5 .5-3.3 1-6.7 1-7.5 .1-.8 .3-6 .5-11.5 .2-5.5 .4-11 .5-12.2 0-1.4 .9-2.5 2.1-2.8 1.5-.4 2-1.3 2-3.7 0-1.8 .2-5.5 .6-8.3 .3-2.7 1.1-5.3 1.8-5.7 .6-.3 1-1.7 1-3-.1-1.3-.5-3.6-.8-5.3-.5-2.1-.3-3.4 .9-4.5 .9-.8 1.6-2.1 1.5-2.7 0-.7-.6-1.5-1.2-1.8-.7-.3-.6-.4 .2-.2 .8 .2 2.1-.2 2.8-1 .6-.7 1.2-1.5 1.2-1.8l0-.5-1.5 .5c-.8 .3-1.5 .1-1.5-.5 0-.5 .5-1 1-1 .6 0 .8-.7 .5-1.5-.3-.8 .2-2.2 1-3 .8-.8 1.5-2.6 1.5-4 0-1.4 .5-2.7 1-3 .6-.3 1-1.3 1-2.2 0-1 .2-3.1 .4-4.8 .3-1.6 .8-4.6 1.1-6.5 .4-1.9 .7-4.2 .8-5.2 .1-.9 .7-1.6 1.2-1.5 .6 .1 .9-.4 .8-1-.2-.7 .4-2.3 1.2-3.5 .8-1.3 1.5-3.5 1.5-5 0-1.6 .8-4.3 1.8-6 1.1-1.8 2.2-5.1 2.6-7.3 .4-2.2 1.4-4.7 2.1-5.5 .8-.8 1.6-3.1 1.8-5 .3-1.9 1.2-5.1 2.2-7 1-1.9 2-5.3 2.2-7.5 .1-2.2 .7-4.9 1.2-6 .5-1.1 1.5-4 2.2-6.4 .8-2.5 1.9-5 2.5-5.5 .6-.6 1.9-2.9 2.9-5.1 1.1-2.2 3-5.1 4.2-6.5 1.3-1.4 2.3-3.2 2.3-4-.1-.8 .8-2.7 2-4.2 1.1-1.6 2.3-4.4 2.8-6.3 .4-2 1.3-3.5 2-3.5 .6 0 1.2-1.1 1.2-2.5 0-1.4 .9-3.4 2-4.5 1.1-1.1 2-2.7 2-3.5 0-.8 .5-1.7 1-2 .6-.3 1-1.6 1-3 0-1.5 1.5-4.1 3.8-6.6 2-2.2 5.1-4.4 6.7-4.8 1.7-.4 3.7-.5 4.5-.2ZM559.7 621.3l0.8 .7-.8 .8c-.4 .4-.8 0-.8-.8 0-.8 .4-1.2 .8-.7ZM1158 638.9c0.8 0 1.2 .4 .8 .8l-.8 .8-.7-.8c-.5-.4-.1-.8 .7-.8ZM1633.8 698c1.5 .6 3.2 2.3 4 4 .6 1.7 1.7 3 2.2 3 .6 0 1-.6 1-1.2 0-.7 .9-.3 2 1l2 2.2-2 3.3c-1.1 1.7-2 3.5-2 4 0 .4 .5 .5 1 .2 .6-.3 .9 2.6 .8 8-.2 4.7-.1 8.5 .2 8.5 .3 0 1.5 3.2 2.7 7.2 1.4 4.6 2 8.4 1.6 10.3-.5 2.2-.4 2.8 .5 2.3 .7-.5 1.3-.3 1.4 .5 0 .6 .2 1.7 .3 2.2 0 .6 .4 2 .8 3.3 .4 1.2 1.2 2.2 1.7 2.2 .7 0 .7 .6 0 1.8-.6 1.1-.6 2 .1 2.7 .6 .6 1.2 4.4 1.4 8.5 .3 4.1 .6 8.6 .8 10 .3 1.4 .8 3.4 1.3 4.5 .5 1.1 .8 9 .6 17.5-.1 8.5-.3 16.6-.3 18-.1 1.4 .1 4.3 .3 6.5 .3 2.2 .7 4.5 .8 5 .1 .6 .1 1.5 0 2-.1 .6-.1 7.2-.1 14.8 .1 8.2-.3 13.9-.9 14.2-.6 .3-.8 2.2-.4 4.3 .3 2-.1 7-.8 11-.9 4.8-1 7.6-.3 8.2 .7 .7 .6 1.7-.2 3-.7 1.1-1.6 6.6-1.9 12.3-.3 5.6-.9 10.6-1.3 11.1-.3 .4 .1 1.2 .9 1.7 1.2 .7 1.2 1.1 .3 1.7-.8 .4-1.5 3.7-1.8 7.7-.2 3.9-1 9.5-1.6 12.5-.6 3-1.3 8.2-1.4 11.5-.2 3.3-.8 6.2-1.3 6.5-.5 .3-1.1 3.5-1.3 7.2-.3 4.1 0 6.8 .6 6.8 .6 0 .1 .5-.9 1.2-1 .7-1.6 1.8-1.3 2.3 .4 .6 0 1.9-.8 3-.8 1.1-1.4 3.1-1.4 4.5 0 1.4-.7 3.2-1.6 4-1.3 1.1-1.6 3-1.4 7.5 .2 4-.3 7.7-1.6 11-1 2.8-2.3 5.6-2.9 6.3-.7 .8-.7 1.3-.1 1.3 .6-.1 .3 .4-.5 .9-1 .6-1.1 1-.2 1 .7 0 1.1 1 .9 2.8-.2 1.5-1 4.1-1.7 5.7-.8 1.7-1.4 3.5-1.4 4.1-.1 .5-1.3 2.5-2.8 4.2-1.6 1.8-2.9 3.8-2.9 4.5-.1 .6-.1 1.9 0 2.7 .1 .8-.5 2.2-1.4 3-.9 .8-1.6 2.3-1.5 3.3 0 .9-.4 1.9-1 2.2-.5 .3-1 2.3-1 4.5 0 2.7-.5 4.2-1.5 4.5-1.2 .4-1.3 1-.5 3 .7 1.9 .6 3.3-.5 5.8-.9 1.7-1.5 3.9-1.5 4.7 0 .8-.7 2.5-1.5 3.8-.8 1.2-1.3 2.5-1 3 .2 .4-.1 1.8-.9 3.2-.7 1.4-2 4.1-2.9 6-.9 1.9-2.2 4.9-2.8 6.5-.7 1.7-1.2 3.3-1.1 3.8 .1 .4-.5 1.4-1.3 2.2-.8 .8-1.5 2.4-1.5 3.5 0 1.1-1 4.6-2.1 7.8-1.2 3.1-2.8 6.4-3.5 7.2-.7 .8-1.4 2.5-1.4 3.8 0 1.2-.6 2.2-1.2 2.2-.7 0-1 .3-.6 .7 .4 .5-.2 2.5-1.5 4.6-1.2 2-2.5 3.7-2.9 3.7-.5 0-.6 1.4-.3 3 .4 2.1 .1 3.1-1 3.5-1.1 .4-1.3 1.4-.9 3.8 .5 2.6 .2 3.6-2 5.5-1.4 1.2-2.3 2.8-2 3.5 .3 .6-.2 1.9-1.1 2.7-.9 .8-1.6 2.1-1.5 2.8 0 .6-1 2.7-2.2 4.5-1.3 1.7-2.6 3.4-2.9 3.7-.3 .3-.8 1.2-1.2 2-.4 .8-1.3 2.4-1.9 3.5-.7 1.1-2.1 3.1-3.1 4.5-1 1.4-1.8 3.3-1.7 4.3 0 .9-.4 1.7-1 1.7-.5 0-1 .7-1 1.5 0 .8-.7 1.7-1.5 2-1 .3-1.4 1.4-1.1 3.3 .3 1.9-.2 3.4-1.7 4.9-1.2 1.3-2.8 2.3-3.4 2.3-.7 0-1.3 1.1-1.3 2.5 0 1.7-.7 2.7-2 3-1.1 .3-3 2-4.2 3.8-1.4 2-2.2 4.8-2.2 7.4-.1 2.4-.4 4.3-.8 4.3-.5 0-.9-.1-1.1-.2-.2-.2-1.2 .6-2.3 1.6-1.3 1.3-1.5 2-.6 2.3 .8 .2 .2 1.6-1.6 4.1-1.6 2-3.2 4.5-3.5 5.5-.4 .9-1.3 1.5-1.9 1.2-.9-.3-1.2 .4-1 2.5 .1 2.4-.3 3.2-2.3 4-1.4 .6-2.5 1.6-2.5 2.3 0 .6-1.1 2.3-2.5 3.7-1.4 1.4-2.8 3.6-3.1 5-.3 1.4-2.1 4-4 5.8-1.9 1.7-3.4 3.8-3.4 4.5 0 .6-1.4 2.6-3.1 4.2-1.8 1.7-4.6 4.9-6.3 7.3-1.7 2.3-3.4 4.2-3.8 4.2-.5 0-.8 .9-.8 2 0 1.1-.4 2.2-1 2.5-.5 .3-.8 1-.5 1.5 .3 .6-.4 1.2-1.5 1.5-1.1 .3-2 1-2 1.5 0 .6-1.5 2.5-3.4 4.3-1.9 1.7-6.2 5.8-9.5 9-3.4 3.1-6.1 6-6.1 6.5 0 .4-1.4 1.4-3.2 2.2-2.1 1-3.2 2.1-3 3.3 .1 .9-1 3.1-2.5 4.8-1.6 1.7-4.7 5.1-7 7.5-2.4 2.4-4.3 4.6-4.3 4.9 0 .3-1.9 2.5-4.2 4.8-2.4 2.4-5.4 5.7-6.8 7.3-1.4 1.6-2.5 3.2-2.5 3.6 0 .4-1.8 2.3-4 4.3-2.2 2-4.3 3.6-4.7 3.5-.5 0-3.9 3.2-7.8 7-3.8 3.9-7.6 7-8.2 7-.7 0-1 .3-.5 .7 .4 .4-.4 1.5-1.7 2.3-1.3 .8-4.4 3.4-7 5.8-2.5 2.3-4.6 4.7-4.6 5.2 0 .6-.7 1-1.5 1-.8 0-1.5 .3-1.5 .8 0 .4-1 1.3-2.2 2-1.3 .7-3.2 2.7-4.4 4.5-1.1 1.8-3.4 3.9-5.1 4.7-1.6 .8-2.9 1.9-2.9 2.4 .1 .5-1 1.2-2.4 1.6-1.4 .3-3.5 1.6-4.7 2.8-1.3 1.2-3.5 2.7-5 3.4-1.6 .6-3.1 1.1-3.5 1-.5-.1-.8 .5-.8 1.3 0 .8-1.3 2-3 2.5-1.6 .6-3 1.3-3 1.8 0 .4-1.5 1.6-3.4 2.7-1.9 1.1-3.3 2.3-3 2.8 .2 .4-.2 .5-.8 .2-.7-.2-2.1 .2-3 1-1 .8-1.6 2-1.3 2.5 .3 .6-.2 .8-1 .5-.8-.3-2.7 .3-4.2 1.3-1.6 .9-3.5 1.7-4.3 1.8-.8 .1-2.5 .2-3.7 .3-1.3 0-2.3 .7-2.3 1.4 0 .7-1.5 1.2-3.9 1.2-2.2 0-3.7-.3-3.5-.7 .2-.5-.6-2-1.8-3.4-2-2.2-2.3-3.8-2.4-10.7 0-4.5-.2-8.4-.3-8.7-.1-.3-.4-1.5-.7-2.7-.2-1.3-.8-2.9-1.4-3.5-.5-.7-2.1-2.8-3.5-4.5-1.7-2.3-3.6-3.5-6.2-3.9-2.1-.4-4.2-.9-4.8-1.2-.5-.4-2.3-.5-4-.4-1.7 .2-3.3-.2-3.7-1-.5-1-1-1-2.3 .2-1.1 1.1-1.6 1.1-1.5 .3 0-.7-.4-1.1-1-.8-.5 .3-2.9-.9-5.2-2.5-2.4-1.7-6-5.2-8.1-7.8-2.1-2.6-3.8-5.3-3.7-5.9 0-.7-.7-2-1.5-2.8-.8-.8-1.8-3.2-2.1-5.2-.5-2.8-1.9-5-5.3-8.2l-4.6-4.3-5.7-.4c-3.5-.2-5.8 0-5.8 .6 0 .6-1.6 1-3.5 1-1.9 0-3.5 .5-3.5 1 0 .6-.7 .8-1.5 .5-.8-.3-1.5 0-1.5 .5 0 .6-2.8 1.9-6.2 3-3.5 1.1-7.2 2-8.3 2.1-1.1 0-2.7-.7-3.5-1.6-.8-.9-1.8-1.6-2.2-1.5-.5 0-2.5-1.9-4.5-4.1-2.1-2.3-4.7-5.8-5.8-7.8-1.1-2-2.3-3.7-2.7-3.8-.5-.2-.8-.7-.8-1.3 0-.5-.9-2-2-3.2-1.1-1.3-2-2.9-2-3.5 0-.7-.6-1.3-1.2-1.3-.7 .1-4.6-3.5-8.5-8-4-4.4-7.9-8-8.5-8-.7-.1-2.5-1.4-4-3-1.6-1.7-3.5-3-4.3-3-.8 0-1.5-.4-1.5-1 0-.5-1.3-1.7-3-2.5-1.6-.8-4-1.5-5.2-1.5-1.3 0-2.7-.4-3.3-1-.5-.5-2.6-1.1-4.5-1.2-1.9-.2-4.1-.9-4.7-1.5-.7-.7-3-1.7-5-2.3-2.1-.5-4.4-1-5-1-.7 0-1.3-.4-1.3-1 0-.5-.7-1-1.5-1-.8 0-1.7-1-2-2.2-.3-1.3-1.2-3-2-3.8-.9-.8-1.6-3.1-1.5-5 0-1.9-.3-3.9-.7-4.3-.4-.5-.9-2.1-1.1-3.5-.1-1.5-.4-8.5-.6-15.7-.2-7.1-.7-17.3-1.1-22.5-.4-5.2-1-10.2-1.4-11-.5-.8-.7-4.6-.5-8.5 .1-4.6-.2-7.7-1.1-9-.8-1.1-1.2-2.6-.9-3.2 .2-.7-.1-1.9-.6-2.5-.6-.7-1.2-5.6-1.4-10.8-.2-5.2-.7-11.1-1-13-.3-1.9-.8-5.4-1.1-7.7-.3-2.6-.1-4.3 .5-4.3 .6 0 1-.4 1-1 0-.5-.7-1-1.5-1-.8 0-1.7-1-2-2.2-.2-1.3-.2-3.2 .1-4.3 .3-1.1-.1-3.6-.9-5.5-.9-2.2-1.3-5.6-1.1-9.2 .2-3.5 0-5.8-.6-5.8-.6 0-.9-2-.7-4.5 .1-2.5-.1-4.5-.5-4.5-.5 0-.8 1-.9 2.3l0 2.2-1-2.2c-.5-1.3-.7-2.7-.4-3.3 .3-.5-.1-2.2-.9-3.7-.8-1.6-1.7-4.6-1.9-6.8-.3-2.2-1-6.9-1.6-10.5-.6-3.6-1.4-6.7-1.8-7-.5-.3-.9-2.1-1-4-.2-1.9-.9-4.2-1.7-5-1-1.1-1.3-3.5-1.1-8.5 .2-3.8-.1-7.9-.7-9-.5-1.1-.8-2.9-.5-4 .3-1.1 1.7-3.3 3.2-5 1.4-1.6 3-3.6 3.5-4.2 .7-.9 1.8-1 3.8-.4 1.5 .5 4.1 .7 5.7 .4 1.7-.3 3.7-.7 4.5-1 .8-.4 2.1-.5 2.8-.5 .6 .1 1.4-.5 1.7-1.3 .3-.8 1.5-1.5 2.8-1.5 1.2 0 5.1 0 8.7 0 3.6 0 7.6 .1 9 .3 1.6 .1 2.4-.3 2.3-1-.2-.9 .5-1.1 2.2-.8 1.4 .3 4.6 0 7.3-.6 2.6-.6 5.7-1.1 6.9-1.2 1.2-.1 3.1-1 4.3-1.9 1.1-1 2-2.5 2-3.3 0-.8 .6-1.4 1.3-1.3 .6 .1 5-1.6 9.7-3.9 6.7-3.3 9.3-4 12.5-3.7 3.3 .3 4.5-.1 6.5-2.1 1.4-1.4 3.4-2.5 4.5-2.5 1.1 0 3.5-1 5.2-2.3 1.8-1.2 3.3-2.8 3.3-3.4 0-.7 1.8-2.3 4-3.5 2.2-1.3 4.3-3.2 4.6-4.3 .3-1.1 2.3-3.2 4.5-4.7 2.1-1.6 3.9-3.5 3.9-4.3 0-.8 1.2-1.9 2.8-2.4 1.5-.5 4.1-2.1 5.7-3.6 1.7-1.4 4-2.8 5.3-3.1 1.2-.2 2.2-.8 2.2-1.4 0-.5 .8-1 1.8-1 .9 0 2.6-.8 3.7-1.8 1.1-1 2.6-1.7 3.3-1.5 .6 .2 1.4-.6 1.7-1.7 .3-1.2 1.3-2 2.5-2 1.1 0 2-.4 2-1 0-.5 .6-.9 1.3-.8 .6 .1 3.2-.1 5.7-.6 2.5-.5 5.6-1.5 7-2.2 1.9-1 2.6-1.1 3.2-.1 .4 .9 .9 .8 2-.3 .7-.9 4.2-2.6 7.8-3.8 3.6-1.2 8.1-2.4 10-2.5 1.9-.2 4.5-.9 5.8-1.5 1.2-.7 2.4-.9 2.6-.4 .2 .4 1.8 .8 3.5 1 2.4 .1 3.4-.4 4.6-2.3 .9-1.5 2.1-2.3 3-2 .8 .3 1.7 .1 2-.5 .3-.5 1.6-1 3-1 1.4 0 2.7-.3 2.9-.7 .2-.5 2.7-.9 5.5-1 2.8-.2 7.6-1.1 10.6-2 3-1 5.8-1.5 6.2-1.1 .5 .4 2.6-.2 4.8-1.2 2.2-1 4.3-1.6 4.8-1.4 .4 .2 .9 0 1.2-.6 .3-.5 1.4-1 2.5-1 1.1 0 2.2-.7 2.5-1.5 .3-.8 3.1-3.1 6.3-5.1 3.7-2.3 6.7-3.5 8.7-3.4 1.7 .1 3.6 .2 4.3 .1 .6-.1 1-.5 .7-1.1-.3-.5 .2-1.2 1-1.5 .8-.3 3-.5 4.8-.5 1.7 .1 3.9-.6 4.7-1.6 1-1.1 2.4-1.4 4.3-1 2.3 .5 2.8 .2 3.2-1.9 .3-1.7 1.3-2.7 3-3 1.4-.3 2.5-.9 2.5-1.5 0-.5 1-1.3 2.3-1.7 1.2-.3 3-1.4 3.9-2.2 .9-.9 1.4-2 1-2.6-.4-.6-.2-.7 .6-.2 .6 .4 2.2 .1 3.5-.5 1.4-.8 2.1-1.9 1.8-2.8-.4-1.2 .2-1.4 3-.8 2.7 .5 4 .1 5.9-1.5 1.4-1.2 2.9-3 3.3-3.9 .4-1 1.4-1.8 2.2-1.8 .8 0 1.5-.4 1.5-1 0-.5 .9-1.2 2-1.5 1.1-.3 2-1.2 2-2 0-.8 .5-1.5 1-1.5 .6 0 1-.7 1-1.5 0-.8 .9-1.5 2-1.5 1.1 0 2.2-.7 2.5-1.5 .3-.8 1.1-1.5 1.8-1.5 .6 0 2-.8 3.1-1.8 1-.9 3.7-2.6 6-3.7 2.8-1.4 4-2.6 3.9-3.7-.2-1.2 .2-1.6 1.2-1.3 .8 .3 2.4-.3 3.5-1.2 1.1-1 2-2.2 2-2.8 .1-.5 1.1-2.2 2.3-3.6 1.2-1.4 3-2.9 4-3.2 .9-.4 2.2-1.8 2.7-3.2 .6-1.5 1.8-2.5 3-2.5 1.1 0 2-.7 2-1.5 0-.8 .9-1.9 2-2.5 1.1-.5 1.9-1.4 1.8-1.9-.2-.5 .9-2 2.5-3.5 1.5-1.4 3.2-2.6 3.7-2.6 .6 0 .9-.3 .9-.7l-.1-.8 .1-1.2c0-.7 .4-1.2 .9-1.2 .4 .1 1.2 .1 1.7 0 .6 0 2.6-1.4 4.5-3.1 1.9-1.7 3.8-3 4.3-3 .4 0 .7-.4 .7-1 0-.5 1.1-2.5 2.5-4.2 1.4-1.8 3-3.9 3.5-4.5 .6-.7 1-1.9 1-2.5 0-.7 1.8-3.1 4-5.3 2.2-2.2 6.9-7 10.5-10.7 3.6-3.8 6.5-7.1 6.5-7.5 0-.5 1-1.9 2.2-3.2 2-2 2.1-2.5 .8-3.3-1.2-.7-1.1-.8 .5-.6 1.2 .2 2-.3 2-1.2 0-.8 .6-2.1 1.3-2.7 .6-.7 1.2-2 1.2-2.8 0-.8 .8-1.5 1.8-1.5 .9 .1 2.3-.5 2.9-1.2 .7-.7 1-1.6 .5-2.1-.4-.4 .1-.7 1.1-.7 .9 0 1.7-.4 1.7-1 0-.5 1.4-2.3 3-4 1.7-1.6 2.4-3 1.8-3.1-.7 0-.3-.4 1-1 1.3-.5 2.2-1.8 2.3-3.1l0.1-2.3-.1-.7c0-.5 .4-.8 .9-.8 .6 0 1.2-.8 1.5-1.7 .2-1 1.5-2.4 2.7-3.1 1.3-.7 3.3-2.8 4.6-4.7 1.2-1.9 2.2-4.3 2.2-5.2-.1-1 .8-2.7 1.9-3.8 1.2-1.1 2-2.2 2-2.5-.1-.3-.1-1.1 0-1.7 0-.7 .6-1.1 1.1-.8 .6 .3 1 .2 1-.2-.1-.5-.8-1.3-1.8-2-1.4-1-1.4-1.2-.2-1.2 .8 0 3.4-2.5 5.8-5.6 2.3-3 4.7-5.5 5.2-5.5 .6 0 .9-1 .8-2.2-.1-1.3 .3-3.1 1-4 .7-1 1.5-1.6 2-1.4 .4 .3 1.3-1.2 1.9-3.2 .7-2 1.3-5.2 1.3-6.9 0-2.5 .4-3.2 1.5-2.8 .9 .3 1.5-.1 1.5-1 0-.8 .5-1.5 1-1.5 .6 0 .8-.7 .5-1.5-.3-.8 .1-2.6 .8-4 .6-1.4 1.7-2.5 2.2-2.5 .6 0 1.7-1.1 2.5-2.5 .9-1.5 2.4-2.5 3.5-2.5 1.6 .1 1.8-.2 .7-1.2-.6-.7-1-2-.7-2.8 .4-.8 2.7-3.1 5.3-5 2.6-1.9 5.5-3.8 6.4-4.2 1-.5 1.8-1.2 1.8-1.8 0-.7 .9-.7 2.8 0ZM692.3 710.1c0.4-.1 .7 .6 .7 1.4 0 .8 .5 1.6 1 1.8 .6 .1 1.4 2.8 1.8 6 .4 3.2 .4 6.1 0 6.5-.4 .4-1 2.5-1.2 4.7-.3 2.2-.8 7-1.3 10.7-.7 5.7-.6 6.9 1 8.5 1.2 1.2 1.7 3 1.5 5.5-.2 2 .3 4.3 1 5 .7 .7 1.2 2.3 1.2 3.6 0 1.2 .5 2.2 1 2.2 .6 0 .8 .5 .5 1-.3 .6 .1 1.9 .8 2.9 .6 1.1 1.7 1.7 2.2 1.4 .6-.2 1.7 .2 2.5 1 .8 .7 2.4 1.8 3.5 2.4 1.1 .7 6.4 1.4 11.8 1.7 5.3 .3 10.8 1.1 12.2 1.6 1.4 .6 2.7 1 3 1l0.5 0-.5-1.5c-.3-1 .4-1.7 2.3-2.2 1.5-.3 3.8-1.3 5.1-2.2 1.3-.9 2.8-2.6 3.2-3.8 .5-1.3 1.7-2.3 2.9-2.3 1.2 0 2.2-.8 2.5-2 .3-1.1 1-2 1.5-2 .6 0 1.2 .5 1.5 1 .3 .6 1.3 .8 2.3 .5 1.1-.4 2.3 .3 3.5 2 .9 1.4 1.4 3 1 3.7-.6 .9-.2 1 1.5 .5 1.2-.4 2-.4 1.8 .1-.2 .4 .2 3.2 1 6.2 .7 3 1.1 6.4 .8 7.5-.4 1.1-.3 2.9 .1 4 .5 1.1 .7 3 .6 4.3 0 1.2 .2 2.2 .7 2.2 .4 0 1 1.7 1.4 3.7 .4 2.3 .1 5.9-.8 9.1-.8 2.8-1.1 5.8-.7 6.5 .4 .6 .6 2.1 .4 3.2-.2 1.1-.8 2.3-1.5 2.8-.8 .5-.7 1 .4 1.6 1.1 .6 1.2 1 .3 1.5-.8 .3-1.1 1.5-.7 2.9 .3 1.2-.1 3.6-.9 5.2-.9 1.7-1.8 4.4-2.2 6-.5 2.3-.4 2.6 .4 1.5 .9-1.2 1.1-1.1 1.1 .8 0 1.2-.3 2.2-.7 2.2-.5 0-.9 1.9-1.1 4.2-.1 2.4-.6 4.8-1.2 5.3-.5 .6-1.1 2.8-1.2 4.9-.2 2.8-.8 4-2 4.3-1 .1-1.6 .8-1.3 1.3 .3 .6 .1 1-.5 1-.5 0-.8 .7-.5 1.5 .3 .8 .1 1.5-.5 1.5-.5 0-.8 .5-.5 1 .3 .6-.1 1.9-.7 3-.7 1.1-2.1 2-3 2-1 0-2.4 .6-3 1.3-.7 .7-3.4 2.7-6 4.5-2.7 1.8-5.2 3.2-5.8 3.2-.5 0-1.1 .5-1.2 1-.2 .7-5.3 1.1-13.3 1.3-8.2 .1-15.2-.4-19-1.2-3.3-.8-6.2-1.7-6.5-2-.3-.4-1.6-1.4-3-2.2-1.4-.9-4.3-1.9-6.5-2.4-2.2-.4-4.7-1.1-5.5-1.5-.8-.5-3.1-1.5-5-2.3-1.9-.8-3.8-2.4-4.2-3.6-.5-1.2-1.2-1.9-1.8-1.6-.5 .3-1-.2-1-1 0-.8-.9-1.7-2-2-1.1-.3-1.8-.8-1.5-1.2 .2-.5-2-3.3-5.1-6.3-3-3-5.4-6.1-5.4-6.7 0-.7-.6-1.5-1.2-1.8-.7-.2-2-2.3-2.8-4.6-.8-2.3-2.3-4.7-3.2-5.3-1.2-.8-1.5-1.9-1.1-3.6 .3-1.7 0-2.7-1.1-3.2-.9-.5-1.6-1.5-1.6-2.3 0-.8-.6-1.7-1.2-1.9-.7-.3-.5-.5 .5-.5 .9-.1 1.7-.5 1.7-1.1 0-.5-.7-1-1.5-1-.8 0-2-1.5-2.6-3.2-.6-1.8-1.3-5-1.5-7-.2-2.1-.5-5.5-.6-7.6-.2-2.1-.9-4.6-1.5-5.5-.9-1.2-1-2.5-.4-4.4 .5-1.6 .8-5.3 .7-8.3-.1-3 .4-6.6 1.2-8 .7-1.4 1.2-3.4 1.1-4.5 0-1.1-.1-2.3 0-2.7 .1-.5 .1-.9 .1-1-.1-.2 .6-2.3 1.5-4.8 .9-2.5 1.5-5.4 1.4-6.5-.1-1.1-.1-2.6 0-3.2 .1-.7 .8-1.1 1.6-.8 1.1 .4 1.5-.3 1.5-2.5 0-1.6 .5-3 1-3 .6 0 1-.7 1-1.5 0-.8 .5-1.5 1-1.5 .6 0 1.3-1 1.7-2.2 .4-1.3 2.4-4 4.5-6 2.1-2.1 4.9-5.6 6.3-7.8 1.4-2.2 3-4 3.5-4 .6 0 2.5-1.6 4.3-3.6 2.2-2.6 3.7-3.5 5-3 1.1 .4 2.2-.1 3.2-1.4 .8-1.1 1.2-2.6 .8-3.2-.5-.9-.4-1 .5-.5 .6 .4 2.9 0 5-.8 2-.9 3.4-1.9 2.9-2.3-.4-.4 .3-1.2 1.5-1.9 1.3-.6 2.6-1.1 3.1-1.2ZM676 718.9c0.8 0 1.2 .4 .8 .8l-.8 .8-.7-.8c-.5-.4-.1-.8 .7-.8ZM914 763.5c0.6 1.3 .9 1.5 .9 .5l0-1.5 1.6 1.5c1.1 1.1 1.6 1.1 1.5 .3 0-1 1.9-1.2 7.5-.8 4.1 .3 9.5 1 12 1.5 2.5 .6 4.8 .9 5.3 .8 .4 0 1.6 .2 2.7 .7 1.1 .4 3 .3 4.3-.4 1.2-.6 3.7-.9 5.5-.6 1.7 .3 5.8 .6 8.9 .7 3.2 .2 5.8 .6 5.8 1.1 0 .4 .5 .5 1 .2 .6-.3 3.1 .2 5.8 1.2 2.6 .9 5.4 2.5 6.2 3.6 .8 1.1 2.1 1.7 2.8 1.3 .6-.3 2.8-.4 4.7-.1 2.2 .3 3.5 1 3.5 2 0 .8 .8 1.5 1.8 1.5 .9 0 2.3 .5 3 1.2 .7 .7 1.6 1.3 2 1.4 .4 0 3.2 .7 6.2 1.6 3 .9 6.2 2.4 7 3.3 .8 .9 2 1.6 2.5 1.5 .6 0 3.6 2.3 6.8 5.2 3.1 2.9 5.7 6 5.7 6.8 0 .8 1.4 2.9 3.1 4.5 1.6 1.7 2.9 3.3 2.9 3.8 0 .4 .7 .7 1.5 .7 .9 0 1.3 .6 1 1.5-.3 .8 0 1.5 .5 1.5 .6 0 1.6 .6 2.3 1.3 .8 .6 1.2 1.8 1 2.5-.2 .6 .4 1.2 1.2 1.2 .8 0 1.5 .9 1.5 2 0 1.1 .5 2 1 2 .6 0 .8 .5 .5 1-.3 .6 .2 1 1 1 .9 0 1.3 .6 1 1.5-.3 .8-.2 1.5 .3 1.5 .4 0 1.3 1.2 2 2.8 .7 1.5 1.2 3.3 1.2 4 0 .6 .6 1.4 1.3 1.7l1.2 .5-1.2 .5c-.9 .3-1 .9-.3 1.8 .5 .6 .9 4.1 .7 7.6-.1 3.6 .3 6.9 .9 7.5 .5 .6 1.3 1.9 1.7 2.9 .5 1.1 0 2.3-1.3 3.5-1.7 1.4-2 2.7-1.8 6.9 .2 2.9-.1 5.4-.6 5.5-.5 .2-1 1.9-1.2 3.8-.3 1.9-.5 4-.7 4.7-.1 .6-.5 .9-.9 .7-.5-.2-.8 .3-.8 1.1 0 .8-1.1 3.9-2.5 6.8-1.3 2.8-3.6 6.4-5 8-1.4 1.5-2.4 3-2.2 3.5 .1 .4-.7 1.7-1.8 3-1.1 1.2-3.6 3.8-5.5 5.7-1.9 1.9-3.2 3.5-2.7 3.5 .4 0-.3 1.1-1.5 2.5-1.3 1.3-2.7 2.4-3.3 2.5-.5 0-4.1 3.4-8 7.5-3.8 4.2-7.6 7.5-8.2 7.5-.7 0-1.3 .5-1.3 1 0 .6-.7 1-1.5 1-.8 0-2.8 1.4-4.5 3-1.6 1.7-3.6 3-4.2 3-.7-.1-2.4 .8-3.8 1.8-1.4 1-5.4 3.3-9 5-3.6 1.7-8.5 3.4-11 3.8-2.5 .3-4.7 1.1-5 1.6-.3 .4-2.3 1-4.5 1.2-2.2 .1-4.7 .6-5.5 1.1-.8 .4-6.2 1.1-12 1.5-7.3 .5-12.8 .2-18-.7-4.1-.8-9-1.4-10.7-1.3-1.8 0-3.5-.4-3.8-1-.3-.5-1.3-.7-2.2-.4-1 .4-3.1-.1-4.8-.9-1.6-.9-4.7-1.8-6.7-2.1-2.7-.4-3.9-1.2-4.3-2.6-.3-1.1-.9-1.8-1.5-1.5-.5 .3-.7 1.1-.3 1.8 .4 .7-.1 .6-1.3-.3-1-.8-2.1-1.7-2.4-2.1-.3-.3-2.1-1.2-4-2.1-1.9-.9-5.5-3.4-8-5.6-2.5-2.2-5.4-4.1-6.5-4.4-1.2-.2-1.9-1.1-1.7-2.1 .1-.9-.2-1.7-.8-1.7-.5 0-1 .6-1 1.3 0 .6-.7 .2-1.5-1-.8-1.3-2.2-2.3-3-2.3-.8 0-1.5-.4-1.5-1 0-.5-.7-1.7-1.5-2.5-.8-.8-1.8-1.5-2.2-1.5-.5 0-1.4-1-2.1-2.2-.7-1.3-2.6-3.2-4.2-4.3-1.7-1.1-3-2.4-3-3 0-.5-1.1-1.6-2.5-2.2-1.4-.7-2.5-2-2.5-2.8 0-.8-1.1-1.9-2.5-2.5-1.4-.5-2.5-1.6-2.5-2.2 0-.7-1.5-2.5-3.3-4-1.7-1.6-3.5-2.8-3.9-2.8-.5 0-.8-.9-.8-2 0-1.1-.7-2.2-1.5-2.5-.8-.3-1.3-.9-1-1.5 .3-.5 .1-1.2-.5-1.5-.5-.3-1-1.5-1-2.7 0-1.3-.9-4.1-2-6.3-1.2-2.2-2.7-4.7-3.4-5.5-.7-.8-1.5-4-1.7-7-.2-3-.3-8.4-.1-12 .1-4 .7-6.8 1.4-7.2 .8-.4 1-1.4 .6-2.7-.5-1.2-.4-2.2 .2-2.3 .5-.2 1.2-2.8 1.5-5.8 .3-3 .9-5.7 1.4-6 .5-.3 1.2-2.1 1.6-4 .5-1.9 1-2.9 1.2-2.2 .1 .6 .8 1.2 1.3 1.2 .6 0 .8-.9 .5-2-.3-1.2 .3-2.8 1.5-4 1.1-1.1 2-2.9 2-4 0-1.1 1.4-3.3 3-5 1.7-1.6 3-3.4 3-4 0-.5 .8-1.8 1.8-2.8 .9-1 2.5-2.1 3.5-2.5 .9-.4 1.5-1.1 1.2-1.7-.3-.5 2.1-3.8 5.2-7.2 3.2-3.5 6.7-6.8 7.8-7.5 1.1-.7 1.6-1.2 1-1.2-.5 0-.3-.7 .5-1.6 .8-.8 1.7-1.3 2-1.1 .3 .3 2-.6 3.8-1.9 1.7-1.4 3.9-2.3 4.7-2 .8 .3 2.3-.4 3.3-1.5 .9-1.2 2.5-2.1 3.5-2 .9 0 1.9-.7 2.2-1.5 .3-.9 1.7-1.5 3.5-1.5 1.7 0 3.7-.7 4.5-1.5 .8-.8 3-1.6 4.8-1.7 1.7-.1 5.5-.3 8.2-.5 2.8-.1 6.9-.3 9.3-.3 3.3 0 4.2-.4 4.3-1.7 0-1.5 .2-1.5 .9 .2ZM1196 776c1.1 .6 2.3 .9 2.8 .8 .4-.1 1.7 .1 3 .5 1.2 .4 2 1.2 1.7 1.7-.3 .6 .3 1 1.3 1 .9 0 2.7 1 4 2.2 1.2 1.3 1.9 2.6 1.5 3-.5 .4 .3 1 1.7 1.4 1.4 .4 3.7 2 5.3 3.6 1.5 1.5 2.7 3.1 2.7 3.6 0 .4 1.1 1.3 2.5 2 1.4 .6 2.5 1.9 2.5 2.7 0 .8 .5 1.3 1 1 .6-.3 1.7 .3 2.6 1.3 .8 .9 1.3 2.3 1 3-.3 .6 .1 2.8 .9 4.7 .8 1.9 2 3.5 2.5 3.5 .6 0 .9 .6 .9 1.3l-.1 1.2 .1 1.3c0 .6 .8 1 1.6 .7 .8-.3 1.3 0 1 .5-.3 .6 .2 4 1.1 7.8 .9 3.7 2.1 8.3 2.6 10.2 .6 1.9 1.2 5.8 1.4 8.5 .2 2.8 .6 6 .9 7.3 .3 1.2-.2 4.3-1.1 7-1 2.6-2 5.6-2.5 6.7-.4 1.1-1 4.1-1.3 6.8-.4 3.3-1.1 4.7-2.1 4.7-.9 0-1.3 .7-1.1 1.8 .2 .9-.7 3.1-2 4.7-1.3 1.7-2.3 3.5-2.3 4 0 .6-1.4 2-3.1 3.3-1.6 1.2-2.8 2.7-2.5 3.2 .3 .6-.1 1-.7 1-.7 0-2.4 1.7-3.7 3.8-1.3 2-4.5 6.2-7 9.3-2.5 3.1-5.9 6.6-7.6 7.8-1.6 1.1-5.2 4.1-8 6.6-2.7 2.5-5.8 4.6-6.7 4.5-1 0-2 .6-2.2 1.3-.1 .6-3.4 2.7-7.2 4.5-3.8 1.8-9.1 4.4-11.9 5.8-2.7 1.4-5.7 2.4-6.5 2.1-.8-.3-4 .1-7 .9-3 .7-9 1.4-13.2 1.4-5.2 0-8.9-.5-11-1.6-1.8-.9-4.4-1.9-5.8-2.1-1.4-.2-2.6-.7-2.8-1.1-.1-.4-1.6-.6-3.2-.4-2.1 .1-2.8-.2-2.4-1 .3-.8-.8-1.9-2.8-2.7-1.8-.8-4.4-2.4-5.8-3.7-1.4-1.2-3.7-2.8-5.2-3.3-1.6-.6-2.6-1.5-2.3-2.1 .3-.5-.2-1.7-1-2.5-.8-.8-1.5-2.6-1.5-4 0-1.6-.6-2.5-1.5-2.5-1.1 0-1.5-1.3-1.7-4.7l-.1-4.8 .1-2.2c0.1-1.3-.3-3.3-.9-4.5-.6-1.3-.7-2.5-.2-2.8 .4-.3 1.6-2 2.6-3.8 1.1-2.1 1.3-3.3 .6-3.4-.8-.2-.7-1.9 .4-5.8 .8-3 1.3-6.2 1-7-.3-.8 .5-4 1.8-7 1.2-3 2.3-7.6 2.3-10.3 .1-3 .5-4.7 1.4-4.7 .6 0 1-.7 .7-1.5-.3-.8-.7-2.2-1-3-.3-.8 0-1.5 .5-1.5 .6 0 .8-.7 .5-1.5-.3-.8 0-1.7 .5-2 .6-.3 .7-1.3 .3-2.2l-.7-1.8 1.8 1.5c1.5 1.3 1.7 1.3 1.6-.2 0-1 .5-1.8 1-1.8 .6 0 1.7-1.6 2.5-3.5 .8-1.9 2.1-3.6 2.8-3.6 .6-.1 1.7 0 2.2 .1 .6 .1 .7-.4 .3-1.4-.6-1.2-.1-2 2-2.9 2.3-1.1 3.1-1.1 5.7 .4 1.7 1 3.8 1.8 4.8 1.8 .9 .1 1.7 .8 1.7 1.6 0 .8 .6 1.5 1.3 1.5 .6 0 1.9 1.1 2.7 2.5 .8 1.5 2.5 2.8 3.8 3.1 1.2 .2 2.2 .9 2.2 1.4 0 .6 .7 1 1.5 1 .8 0 1.6 .5 1.8 1.1 .1 .6 2.8 1.1 6.2 1.1 3.3 0 6.6 .4 7.3 .9 .7 .6 3 .3 5.7-.6 2.5-.8 5-1.3 5.5-1 .6 .3 1.6-.2 2.3-1 .6-.9 1.8-1.6 2.5-1.5 .6 0 2.8-1.6 4.7-3.5 1.9-1.9 3.8-3.5 4.3-3.5 .4 0 1.7-1 3-2.3 1.2-1.2 2.2-2.5 2.2-2.9 0-.5-.4-.6-1-.3l-1 .5 0-.5c0-.3 1-1.7 2.3-3.1 1.2-1.4 2.9-5.5 3.7-9 .8-3.6 1.2-6.7 .8-7-.5-.2-.2-1.3 .5-2.5 1-1.7 .9-2.2-.4-3.2-1.2-.9-1.4-1.6-.5-2.8 .8-1.3 .7-2.2-.6-4-1.3-1.9-1.4-2.7-.5-3.6 .9-.9 .9-1.6-.3-2.8-.8-.9-2.2-1.6-3-1.6-1.1 .1-1.2-.1-.3-.7 .9-.5 1-1.6 .3-4.2-.6-1.9-1-3.6-1-3.7 0-.2 .9-.3 2-.3 1.1 0 2.2-.7 2.5-1.5 .3-.9 1-1.2 1.7-.7 .9 .5 1 .2 .5-1-.6-1.5-.4-1.6 1.3-.8ZM1003 776.9c0.8 0 1.2 .4 .8 .8l-.8 .8-.7-.8c-.5-.4-.1-.8 .7-.8ZM441.3 801c0.1-.1 .9 .7 1.7 1.7l1.5 1.8-1.8-1.5c-1-.8-1.8-1.6-1.7-1.7 0-.2 .1-.3 .3-.3ZM1037 803.9c0.8 0 1.2 .4 .8 .8l-.8 .8-.7-.8c-.5-.4-.1-.8 .7-.8ZM209.7 821.3l0.8 .7-.8 .8c-.4 .4-.8 0-.8-.8 0-.8 .4-1.2 .8-.7ZM1240.5 828c0.4 .3 .4 1.2 .2 2-.4 1-.6 .9-.6-.5-.1-1.1 .1-1.8 .4-1.5ZM1656 834c-.5 0-1 .5-1 1 0 .6 .5 .8 1 .5 .6-.3 1-.7 1-1 0-.3-.4-.5-1-.5ZM1359 963.9c-.8 0-1.2 .4-.7 .8l0.7 .8 .8-.8c0.4-.4 0-.8-.8-.8ZM1122 1024.9c0.8 0 1.2 .4 .8 .8l-.8 .8-.7-.8c-.5-.4-.1-.8 .7-.8ZM1628.7 1026.3c-.4-.5-.8-.1-.8 .7 0 .8 .4 1.2 .8 .8l0.8-.8-.8-.7ZM1566.7 1176.3c-.4-.5-.8-.1-.8 .7 0 .8 .4 1.2 .8 .8l0.8-.8-.8-.7ZM339 1247c-.5 0-.4 .6 .3 1.4 .6 .8 1.3 1.2 1.5 1 .1-.2 0-.8-.3-1.4-.3-.5-.9-1-1.5-1ZM488.8 1310.6c0.6 .2 1.2 .9 1.2 1.4 0 .6 .8 1 1.8 1 .9 0 3.8 1.1 6.5 2.5 3.2 1.7 5.6 2.3 7.5 1.9 1.9-.4 3.2 0 4.5 1.3 .9 1 1.9 1.5 2.2 1.1 .3-.5 1.2-.2 2.1 .5 .9 .6 5 4.5 9 8.5 6.5 6.4 7.4 7.6 7.5 11 0 2 .1 6.7 .2 10.5 .1 3.7-.1 6.7-.5 6.7-.5 0-.8 1.4-.8 3 0 2.1-.4 2.8-1.2 2.3-.9-.6-1.1-.2-.5 1.2 .5 1.4 .2 2.3-1.3 3.3-1.1 .6-2 1.9-2 2.7 0 .8-.8 2.6-1.7 4-1 1.3-2.1 2.1-2.6 1.7-.4-.4-.7 .1-.7 1.1 0 .9-.6 1.7-1.2 1.7-.7 0-1.9 .9-2.5 2-.7 1.1-2.2 2-3.3 2-1.1 0-2.2 .5-2.5 1-.3 .6-1.4 .8-2.5 .5-1.3-.3-1.8-.1-1.5 .8 .3 .8-.4 1.1-2.3 .8-1.9-.4-2.5-.1-1.9 .7 .4 .8 .1 1.2-1 1.3-1 0-6.5 .1-12.3 .1-8.3 0-11.3-.4-14.3-1.8-2.1-1.1-4-2.5-4.2-3.1-.3-.7-1.3-1.3-2.2-1.3-1 0-2.4-.9-3-2-.7-1.1-2-2-2.8-2-.8 0-2.1-.8-2.8-1.7-.7-1-2.1-2.3-3.2-2.9-1.1-.6-2.4-2.5-3-4.3-.5-1.7-1.3-3.1-1.7-3.1-.5 0-.8-.7-.8-1.5 0-.8-.6-1.3-1.2-1-.9 .4-1.5-.9-2-3.7-.4-2.4-.4-7.2-.1-10.8 .3-3.6 1.1-6.8 1.7-7.2 .6-.4 1.2-1.6 1.3-2.5 .2-1 .6-2 1-2.3 .5-.3 1.6-2.2 2.6-4.2 .9-2.1 1.7-4.2 1.7-4.8 0-.5 1.6-2.7 3.5-4.7 1.9-2.1 3.5-4.1 3.5-4.5 0-.5 .9-.8 2-.8 1.1 0 2-.4 2-1 0-.5 1.4-1.2 3-1.5 1.7-.3 3-1.1 3-1.7 0-.8 1.4-1.3 3.4-1.3 1.9 0 3.2 .3 3 .8-.2 .4-.1 .7 .4 .6 .4 0 2.3-.6 4.2-1.3 1.9-.7 4.1-1.2 4.8-1ZM628.3 1318.6c0.9 .2 1.8 1 1.8 1.7l0.1 1.2-.1 .8c0 .4 .4 2.4 1.1 4.5 .7 2 1.5 4.2 1.9 4.7 .4 .6 1 3.7 1.3 7 .4 3.3 .9 8.3 1.3 11 .3 2.8 .6 6.2 .7 7.7 0 1.4 .5 3 .9 3.5 .4 .4 .7 2.3 .7 4.1 0 1.8 .4 3 1 2.7 .6-.3 .9 .9 .8 2.9-.2 2.1 .4 4.1 1.4 5.2 .9 1.1 1.8 3.3 2.1 4.9 .3 1.7 1.5 5.7 2.7 9 1.2 3.3 2.8 7.4 3.4 9 .6 1.7 1.7 4 2.4 5.3 .7 1.2 1.2 2.7 1.2 3.2 0 .6 1.1 1.9 2.5 3 2 1.6 2.4 2.6 1.9 4.8-.4 1.9-.3 2.3 .4 1.2 .8-1.3 1.1-1.2 1.7 .5 .5 1.1 .7 2.8 .7 3.8-.1 .9 .1 1.7 .6 1.7 .4 0 1.3 1.1 2 2.5 .6 1.4 .9 3.1 .5 3.7-.6 .9-.3 1 1 .5 1.1-.5 1.5-.3 1 .4-.5 .6-.3 1.4 .2 1.8 .6 .3 1.8 2.5 2.8 4.9 1.3 3.2 1.4 4.3 .5 4.7l-1.3 .5 1.3 .5c0.6 .3 1.2 1.2 1.2 2 0 .8 .5 1.5 1 1.5 .6 0 .8 1.8 .5 4.5-.3 2.5-.1 4.7 .5 5 .6 .3 .8 .8 .6 1.3-.2 .4 0 2.5 .4 4.7 .5 2.2 1.1 5 1.4 6.3 .3 1.2 1.3 2.9 2.1 3.7 .8 .8 2.5 1.6 3.8 1.7 1.2 .1 3.2-.2 4.5-.5 1.2-.4 2.2-.3 2.2 .3 0 .6 1 .4 2.3-.3 1.2-.8 4.3-1.7 7-2 2.6-.4 4.7-.4 4.7 .1 0 .4 1.3 1.3 3 2 1.6 .6 3 1.9 3 2.7 0 .9 .6 1.3 1.5 1 .8-.3 1.5-.2 1.5 .3-.1 .4 1.2 1.3 2.7 2 1.6 .8 6.7 1.3 12.3 1.4 7.4 0 9.7-.3 10.5-1.4 .6-.9 2.7-2.5 4.8-3.7 2-1.1 4.2-1.9 4.7-1.6 .6 .3 1 .2 1-.2 0-.5-.5-1.4-1.2-2.1-1.1-1.1-.9-1.2 1.2-.4 1.4 .5 5 1.2 8 1.6 3 .4 6.5 .9 7.8 1.1 1.5 .3 2.6-.2 3.5-1.5 .6-1.1 1.8-2 2.5-2 .6 0 1.4-.7 1.7-1.5 .3-.8 1.1-1.5 1.8-1.5 .6 0 1.9-.8 2.7-1.7 1-1.2 1.5-3.4 1.3-6.3-.1-2.5-.4-5.8-.6-7.5-.2-1.6-.8-3.7-1.3-4.5-.5-.8-.9-1.9-1-2.5 0-.5-.8-2.6-1.8-4.5-.9-1.9-1.6-4.5-1.6-5.7 0-1.3-.6-3.2-1.2-4.3-1.1-1.6-1-4.5 0-14.7 .8-8.5 .9-12.9 .2-13-.5-.2-.3-1 .5-1.8 1.1-1.1 1.4-3.2 1.3-7.4-.2-3.6 .1-5.6 .7-5.2 .5 .4 .6-.4 .2-1.9-.4-1.4-.4-2.2 0-1.8 .5 .5 1.4-.4 2.1-2 .7-1.5 1.4-5.4 1.6-8.7 .2-3.3 .9-6.1 1.5-6.2 .7-.2 .9-1.5 .4-3.5-.3-1.8-1.1-3.7-1.7-4.1-.7-.5-.3-.7 .9-.5 1.5 .2 2-.3 2-2 0-1.3 1.4-3.9 3-5.7 1.7-1.9 2.9-3.6 2.9-3.7-.1-.2 .4-.9 1.2-1.5l1.4-1.3 0 1.3c0 .9 .2 .9 1.2-.1 .7-.7 2.1-1.2 3.1-1.2 .9 0 3.5 1.4 5.7 3 3.4 2.6 4 3.5 4 6.8 0 2 .5 4.3 1.2 5.1 .7 .8 1.4 3.3 1.5 5.5 .1 2.3 .5 6.8 1 10.1 .4 3.3 .7 8.7 .6 12-.1 3.3-.2 9.8-.4 14.5-.1 4.7 .1 9.1 .5 9.8 .3 .6 .2 1.2-.4 1.2-.5 0-1 1.2-1 2.8 0 1.5 .6 5.5 1.3 8.9 .8 4.4 1.8 6.7 3.5 7.8 1.2 .8 2.2 2 2.2 2.5 0 .6 .4 2 .9 3.3 .5 1.2 1 2.7 1.2 3.2 .2 .6 1.5 2.2 2.9 3.7 1.4 1.5 2.9 2.4 3.5 2 .6-.4 .7-.2 .2 .6-.4 .6-.2 1.4 .3 1.7 .6 .3 1 .1 1-.5 0-.5 .5-.8 1-.5 .6 .3 .8 1 .5 1.5-.3 .6 .9 1.2 2.5 1.5 1.7 .3 3.6 .2 4.2-.2 .8-.5 1-.4 .6 .2-.4 .6 .3 1.6 1.5 2.4 1.3 .8 2.8 1 3.7 .5 .8-.4 8-.8 15.8-.8 7.9-.1 14.6 .2 14.8 .7 .2 .4 1.3 .7 2.4 .7 1.1 0 2.2-.7 2.5-1.5 .3-1 1.8-1.5 4.5-1.5 2.5 0 5.4-.9 7.8-2.4 2-1.4 4.4-3.6 5.2-5 .8-1.4 1.7-2.3 2-2.1 .3 .3 1.2-.3 2.1-1.3 .9-.9 2-3.3 2.4-5.2 .4-1.9 1.3-4.2 2-5 .7-.8 1.6-3.5 2-6 .5-2.5 .9-5.4 1-6.5 .2-1.1 .8-4.7 1.5-8 .7-3.3 1.3-6.7 1.3-7.5 0-.8 .5-2.1 1.1-2.9 .6-.8 1.1-2.8 1.2-4.5 0-1.7 .4-4.2 .9-5.6 .4-1.4 1-2.7 1.4-3 .3-.3 1.2-1.5 1.9-2.7 .6-1.3 1.2-3.4 1.2-4.8 0-1.4 1.2-3.9 2.8-5.6 1.9-2.2 3.1-2.9 4.2-2.3 .8 .5 2.3 .7 3.3 .6 .9-.1 1.7 .1 1.7 .6 0 .4 1.6 2.5 3.5 4.7 3 3.3 3.6 4.8 3.6 8.5 0 2.5-.1 6.4-.1 8.8 0 2.3 .3 4.2 .8 4.2 .4 0 .7 1 .7 2.3 0 1.2-.8 3.3-1.7 4.7-1.3 1.9-1.8 5.2-2.1 14-.2 6.3-.8 12.4-1.4 13.5-.6 1.1-.8 2.8-.4 3.8 .3 1 .1 2.2-.4 2.5-.6 .4-2.3 3.1-3.8 6-1.5 2.8-2.7 5.9-2.7 6.7 0 .8-.4 1.5-1 1.5-.5 0-1.9 1-3 2.3-1 1.2-2.2 3.8-2.6 5.7-.4 1.9-1.4 4.4-2.4 5.5-1.3 1.5-1.8 3.8-1.8 9 0 5.5 .5 7.7 2.2 10.2 1.1 1.8 2.7 3.3 3.4 3.3 .6 0 1.4 .7 1.7 1.5 .3 .8 1.2 1.3 2 1 .8-.3 1.5 0 1.5 .5 0 .6 1.1 .9 2.5 .8 1.4-.2 2.5 .2 2.5 1 0 .6 .8 1.2 1.8 1.2 .9 0 3.2 .6 5 1.3 1.9 .7 3.2 1.9 3.2 3 0 .9 .5 1.7 1 1.7 .6 0 1 .7 1 1.5 0 .8 .6 1.5 1.3 1.5 .6 .1 2.7 1.6 4.5 3.5 2.1 2.3 3.8 3.3 5 3 .9-.3 2.3 .1 3 1 .6 .8 1.7 1.3 2.2 1 .6-.3 3.1-.7 5.8-1 2.6-.3 5-1.1 5.4-1.8 .4-.7 2.5-1.2 4.8-1.2 2.2 0 4 .3 4 .8 0 .4 .3 .5 .8 .2 .4-.2 3.4 .5 6.7 1.6 3.3 1.2 8.7 2.2 12 2.3 4.2 .2 7.1-.3 9.8-1.6 2-1 3.7-2.5 3.7-3.3 0-.8 .6-1.5 1.3-1.5 .6 0 1.8-1.2 2.6-2.7 .7-1.6 2-4 2.7-5.5 .8-1.6 1.4-3.8 1.4-5 0-1.3 .7-3.3 1.5-4.5 .8-1.3 1.3-2.7 1-3.3-.3-.5 .1-1.8 .8-2.7 .8-1 1.4-3.4 1.6-5.3 .1-2.1 1.1-4.5 2.5-6 1.3-1.4 2.7-3.5 3-4.7 .3-1.3 1.2-2.3 1.9-2.3 .6 0 2.8-1.9 4.8-4.2 1.9-2.4 4.2-5.8 5-7.6 .7-1.8 1.6-3.3 1.9-3.2 .3 0 1.2-1.7 2-3.9 .8-2.2 1.8-3.8 2.3-3.5 .4 .2 .7-.3 .7-1.1 0-.8 .7-1.7 1.5-2 .8-.3 1.5-1.1 1.5-1.7 0-.7 1.4-2.9 3.1-4.8 1.7-1.9 5.1-6.2 7.6-9.5 2.6-3.3 5.2-6.3 6-6.7 .7-.5 1.3-1.4 1.3-2 0-.7 1.7-2.6 3.7-4.3 2-1.6 5.3-4.7 7.5-6.7 2.1-2.1 4.5-3.8 5.3-3.8 .8 0 1.6-.4 1.8-1 .1-.5 1.1-.7 2.2-.5 1.1 .3 3.1 1.9 4.5 3.6 2.1 2.7 2.3 3.3 1 4l-1.5 .9 1.5 .9c1.3 .9 1.3 1.2-.2 2.8-1 1-1.8 3-1.8 4.6 0 1.8-1.2 3.9-3.7 6.3-3.1 3-3.5 3.8-2.3 4.5 1 .6 1.1 .9 .3 .9-.7 0-1.3 .7-1.3 1.5 0 .8-.7 1.5-1.5 1.5-.8 0-1.9 1.5-2.5 3.3-.5 1.7-2.1 4.9-3.5 7-1.4 2-2.3 3.7-2 3.7 .3 0-.4 1-1.5 2.3-1.1 1.2-2 2.9-2 3.7 0 .8-.9 2.4-2 3.5-1.2 1.1-1.8 2.6-1.5 3.3 .3 .6-.2 1.5-1.1 2-.9 .4-2.3 2.3-3.1 4.2-.8 1.9-1.5 6.4-1.6 9.8-.1 3.5-.5 6.6-.9 6.8-.5 .2 .1 2.1 1.2 4.2 1.1 2 2 4.8 2 6.2 0 1.7 1.3 3.7 4.2 6.2 2.4 2.1 4.6 3.5 5.1 3.3 .4-.3 1.3 .2 2 1.1 .6 .9 2.5 1.7 4 1.7 1.6 .1 3.1 .5 3.3 1 .2 .4 2.1 .7 4.2 .7 2 0 4.2-.5 4.7-1.1 .6-.7 1.6-.8 2.5-.3 .8 .5 5.3 .9 10 1 4.7 0 9.3 .5 10.3 1 1 .5 1.6 1.5 1.3 2.2-.4 .9 .3 1.1 2.7 .7 2.7-.3 4 .3 8 3.8 2.6 2.3 4.8 4.8 4.7 5.5 0 .6-.8 2.7-1.7 4.5-.9 1.7-1.6 3.7-1.4 4.2 .2 .6-.3 .7-1.3 .3-1-.5-1.8-.3-2.1 .7-.3 .8-2.2 1.8-4.2 2.1-2.1 .3-4.2 1.3-4.8 2-.6 .8-3.1 1.5-6.1 1.7-2.8 .1-5.7 .8-6.5 1.5-.8 .7-2.9 1.2-4.6 1-1.8-.2-3.3 .2-3.3 .7 0 .6-2.5 1.3-5.5 1.8-3 .4-6.7 .4-8.2 0-2.3-.6-2.6-.4-1.9 .7l0.9 1.5-.9-.7c-.5-.5-1.3-.3-1.9 .2-.5 .6-4.6 1.5-9 2.1-4.4 .6-9.6 1.2-11.6 1.2-2 .1-4.2 .8-5 1.5-.8 .6-2.2 1-3.1 .7-1-.3-2.5 0-3.3 .5l-1.5 1-2-1-2-1 0 1c0 .6-.8 1.2-1.7 1.5-1 .3-8.8 .7-17.3 1-11 .4-16.3 1-18.2 2-2.2 1.2-2.9 1.2-3.2 .3l-.3-1.3-2.2 1.3c-1.2 .7-2.1 .8-2.1 .2 0-.6-1.5-.8-3.7-.4-2.1 .3-5.1 1-6.8 1.4-1.6 .4-3.8 .4-4.7-.1-1.2-.6-2.3-.4-3.3 .6-.9 .9-1.6 1.1-1.7 .4-.2-.8-2.7-.8-9.3 0-5.6 .8-18.2 1-33 .8-13.2-.2-24.6-.7-25.2-1.1-.7-.3-5.7-.8-11-1.2-5.4-.3-16.3-.7-24.3-.9-8-.2-17.1-.6-20.2-.9-3.2-.3-6.7-1-7.8-1.6-1.1-.5-3.7-1-5.7-1.1l-3.8-.1-3.7 .1c-2.1 .1-3.8-.3-3.8-.9 0-.5-2.4-1.2-5.2-1.4-2.9-.3-8.4-.6-12.3-.8-3.8-.1-7.2-.6-7.5-1-.3-.4-1.6-1-3-1.3-1.4-.3-3.6-.7-5-.9-1.4-.2-3.2-.7-4-1.1-.8-.5-2.7-.8-4.2-.7-1.6 .1-2.8-.2-2.8-.8 0-.5-.9-.8-2-.5-1.1 .3-2 .1-2-.5 0-.5-1-.9-2.2-.9-1.3 .1-5.7-.8-9.8-1.8-4.1-1.1-8.8-2.6-10.5-3.4-1.6-.7-4.8-1.4-7-1.4-2.8 0-4-.4-4-1.4 0-.8-1.1-1.8-2.5-2.1-1.4-.4-4.6-.7-7.2-.6-2.7 .1-4.8-.2-4.8-.6 0-.5-.6-.7-1.2-.6-.7 0-2.6-.5-4.3-1.2-1.6-.7-5-1.4-7.5-1.7-3.2-.4-4.1-.8-3-1.4 1.1-.6 .7-.9-1.5-.9-1.6 0-3.7-.5-4.5-1-.8-.5-1-1-.5-1 .6 0-.1-.6-1.5-1.3-1.7-.9-2.7-1-3.3-.3-.5 .7-1.1 .5-1.7-.6-.6-1.2-2.9-2.1-6.1-2.5-2.9-.5-5.3-1.4-5.5-2-.2-.8-1.2-1-2.1-.7-1.1 .4-3.2-.4-5.3-1.9-1.9-1.3-5.5-2.7-8-3.1-2.5-.4-6-.8-7.7-.9-1.8-.1-3.5-.8-3.8-1.4-.3-.7-2-1.9-3.7-2.7-1.8-.7-5-2.1-7-3-2.1-.9-4.1-1.6-4.5-1.6-.5 0-2-1.1-3.5-2.5-1.9-1.7-4-2.5-6.3-2.5-1.9 0-3.6-.3-3.7-.7-.2-.5-3.6-2.5-7.5-4.5-4-2.1-8-3.8-8.8-3.8-.8 0-2.1-.6-2.8-1.2-.7-.7-2.6-2.1-4.2-3-1.7-1-3.3-1.4-3.8-1-.4 .4-.7 .1-.7-.5 0-.7-.9-1.3-2-1.3-1.1 0-2-.4-2-1 0-.5-.9-1-2-1-1.1 0-2-.4-2-1 0-.5-.4-1-1-1-.5 0-2.2-1.2-3.6-2.7-1.4-1.6-3.2-2.7-4-2.5-.8 .1-1.6-.5-1.9-1.3-.3-.8-2.2-2.3-4.2-3.4-2.1-1-4.3-2.5-5-3.2-.6-.8-1.3-2.7-1.5-4.3-.2-2.5 .1-3 2.2-3.1 1.4-.1 2.6-.7 2.8-1.4 .1-.7 1.9-.9 5.5-.4 3.7 .4 6 .2 8.2-.9 1.9-1 3.6-1.2 4.8-.7 1 .6 1.7 .5 1.7-.1 0-.5 1.1-1 2.5-1 1.4 0 2.5-.4 2.5-1 0-.5 .8-1.2 1.8-1.5 .9-.2 3.1-1.7 4.7-3.3 1.7-1.5 4-4.1 5.1-5.7 1.9-2.6 2.1-4.1 1.8-11-.2-4.4-.6-9.3-.9-11-.3-1.6-.7-4.1-.9-5.5-.2-1.4-.6-5.6-1-9.5-.3-3.8-.8-13.5-1.1-21.5-.3-8-.8-15.7-1-17.2-.3-1.8-.1-2.8 .8-2.8 .9 0 1.3-2.8 1.4-10.2 .1-6.9 .7-11.4 1.7-13.5 .9-1.8 2.1-3.3 2.6-3.3 .6 0 1-.7 1-1.5 0-.8 .7-1.5 1.5-1.5 .8 0 1.7-.9 2-2 .3-1.1 1.5-2.4 2.8-2.9 1.2-.4 3-.6 4-.5ZM1229.5 1402.5c2.2 .1 6.1 1.4 8.8 2.9 2.6 1.4 5.4 2.6 6.2 2.6 .8 0 1.3 .5 1 1-.3 .6 .2 1 1 1 .8 0 2.3 .8 3.3 1.8 .9 .9 3.1 1.8 4.7 2 1.7 .1 3.3 .9 3.8 1.7 .4 .9 1.3 1.2 2.2 .8 1-.5 2.2-.1 3.3 1.2 1 1.1 1.6 2.7 1.3 3.5-.3 1.1 0 1.3 1.2 .8 1.3-.6 1.6-.4 1 1-.4 1.1 .1 2.1 1.3 2.9 1.4 1 1.7 1.9 1.2 3.8-.5 1.5-.4 2.5 .2 2.5 .6 0 1.4 1.2 1.9 2.8 .4 1.5 .7 6.1 .5 10.2-.3 5.2-.8 7.8-1.8 8.5-.9 .6-1.5 2-1.6 3.3 0 1.2-.7 2.4-1.5 2.7-.8 .3-1.5 1.1-1.5 1.8-.1 .6-1.6 2.7-3.5 4.5-1.9 1.7-3.5 3.7-3.5 4.2 0 .6-1.6 2.7-3.7 4.8-2 2-4.6 3.7-5.7 3.8-1.2 0-3.2 .6-4.6 1.2-1.4 .6-4.7 1.4-7.5 1.8-2.7 .4-6.3 .7-8 .7-1.6 0-5.2-.3-8-.7-2.7-.4-6.3-1.2-7.8-1.9-1.5-.7-2.8-1.5-2.7-1.9 0-.5-.7-.6-1.5-.3-.8 .3-2.5-.1-3.7-.7-1.3-.7-3.5-2.3-5-3.5-1.6-1.3-2.5-2.5-2-2.8 .4-.3-.4-.9-1.8-1.4-1.4-.4-4.1-2.4-6-4.3-2.2-2.2-3.6-4.6-3.7-6.4-.1-1.6-.3-7.6-.3-13.4-.1-5.8 0-11.2 .2-12.1 .2-.9 .8-2.2 1.4-3 .6-.8 1.6-2.9 2.3-4.6 .6-1.8 .8-3.9 .4-4.5-.6-.9-.3-1 1-.5 1.3 .5 1.8 .2 2-1.5 .1-1.2 1.3-2.8 2.7-3.5 1.4-.7 3.6-2.3 5-3.7 1.4-1.3 4.4-2.9 6.8-3.5 2.3-.6 4.4-1.5 4.7-2.1 .3-.5 1.2-.7 2.1-.2 .9 .4 1.8 .2 2.2-.6 .4-.7 2.3-1.6 4.2-2.1 1.9-.4 5.3-.7 7.5-.6ZM1192 1417.9c0.8 0 1.2 .4 .8 .8l-.8 .8-.7-.8c-.5-.4-.1-.8 .7-.8ZM1140.3 1501c0.4 0 .5 .7 .2 1.5-.3 .8-1.2 1.5-2 1.5-1.2 0-1.3-.3-.2-1.5 .6-.8 1.5-1.4 2-1.5Z"/>
</svg>