<svg xmlns="http://www.w3.org/2000/svg" width="2134" height="2002">
<path d="M1067 2l-1067 0 0 1000 0 1000 1067 0 1067 0 0-1000 0-1000-1067 0ZM1249.3 243c1.5 0 2.7 .5 2.7 1 0 .6 .9 1 2 1 1.1 0 3 .5 4.3 1.1 1.6 .8 2.3 .8 2.7 0 .3-.6 1.3-.9 2.3-.6 .9 .3 1.7 .8 1.7 1.3 0 .4 3.2 .8 7 1 3.9 .1 8 .7 9.3 1.3 1.2 .7 5.1 1.3 8.7 1.4 3.6 .2 7.2 .3 8 .4l1.5 .1-1.5 1c-1.1 .7-.8 1 1.5 1 1.7 0 3.4 .3 3.8 .7 .5 .4 2.8 .8 5 .9 2.3 .1 6.9 .7 10.2 1.4 3.3 .7 7.4 1.3 9 1.5 1.7 .1 4.8 .7 7 1.3 2.2 .6 5.5 1.3 7.3 1.4 1.7 .2 3.2 .5 3.2 .8 0 .3 1.3 .3 2.8 .1 1.5-.2 2.9 .2 3.2 .7 .3 .6 3.4 1.6 7 2.2 3.6 .7 7.4 1.3 8.5 1.4 1.1 .1 2.7 .6 3.5 1 .8 .5 3 .6 4.8 .2 2.2-.4 3.7-.1 4.7 .9 .8 .8 2.7 1.7 4.3 1.9 1.5 .3 2.9 .9 3.2 1.4 .3 .6 1.9 1.4 3.5 1.8 1.7 .5 3.6 .7 4.3 .6 .6-.1 1.2 .3 1.2 .8 0 .6 1.6 1.2 3.5 1.5 1.9 .3 3.3 1 3 1.5-.3 .6 2 1.1 5.9 1.3 4.8 .1 6.9 .7 8.5 2.2 1.3 1.2 2.2 1.5 2.1 .8 0-.9 1.3-1.2 4.3-.9 2.3 .3 4.7 1.2 5.2 2 .6 .8 2.5 1.5 4.3 1.6 1.7 0 3.9 .7 4.7 1.5 .8 .8 2.5 1.7 3.8 1.9 1.2 .3 3 .5 4 .5 .9 .1 1.5 .6 1.2 1.1-.3 .6 .8 1 2.5 1 2.2 0 3 .5 3 1.8 0 1.4 .5 1.6 3 1 2-.6 3.8-.3 5.5 .7 1.4 .8 2.5 1.2 2.5 .8 0-.5 .6-.1 1.3 .8 .7 .8 1.9 1.8 2.7 2.2 .8 .4 2.3 1.3 3.4 1.9 1.5 1 1.9 1 2.2 .1 .2-.7 .9-1.3 1.4-1.3 .6 0 1 .6 1 1.3 0 .7 2.2 1.5 6 2 3.8 .4 6 1.2 6 2 0 .6 .2 .9 .5 .5 .3-.5 2.2 .2 4.3 1.3 2 1.2 6.1 3.5 9 5 2.8 1.6 6 2.9 7 3 .9 0 1.1 .2 .5 .5-.7 .2-1.1 .9-.8 1.4 .3 .7 .9 .7 1.8 0 .8-.7 2.4 .1 5.2 2.6 2.2 1.9 4.6 3.3 5.3 3 .6-.4 1.7 .1 2.2 .9 .6 .8 1.6 1.2 2.3 .9 .6-.3 1.8 .2 2.5 1 .7 .9 1.7 1.3 2.4 .9 .9-.5 1-.4 .5 .5-.5 .8 .2 1.4 2.1 1.7 1.5 .2 3.3 1.1 4 2 .6 .8 1.7 1.3 2.2 1 .6-.3 1.6 .2 2.3 1 .6 .9 1.5 1.6 2 1.5 .4 0 1.6 .8 2.7 1.8 1.2 .9 2.3 1.5 2.6 1.2 .2-.3 .8 0 1.2 .5 .4 .6 2.2 2 4 3.3 1.7 1.2 3.7 2 4.2 1.7 .6-.3 1.2 .2 1.5 1 .3 .8 1 1.3 1.5 1 .6-.3 1 0 1 .5 0 .6 .8 1 1.8 1 .9 0 3.3 1.6 5.2 3.4 1.9 1.9 4.4 3.6 5.5 3.8 1.1 .2 2.5 1 3.2 1.8 .7 .8 1.3 1.2 1.3 .8 0-.5 1 .1 2.3 1.2 1.2 1.1 3.2 2 4.5 2 1.4 0 2.4 .7 2.7 2 .3 1.1 1.3 2 2.3 2 .9 0 2.2 .8 2.8 1.7 .6 1 2.5 2.1 4.2 2.6 1.8 .4 3 1.2 2.7 1.7-.3 .6 .7 1.9 2.3 3 1.5 1.2 3 2.1 3.5 2 .4 0 1.9 1.3 3.5 2.8 1.5 1.6 3.3 2.7 4 2.5 .6-.1 1.2 .4 1.2 1.2 0 .8 .7 1.5 1.5 1.5 .8 0 2.6 1.1 4 2.5 1.4 1.4 3.9 3.2 5.5 4 1.7 .8 4 2.3 5.2 3.3 1.2 .9 3.2 2.7 4.5 4 1.3 1.2 2.9 2.2 3.6 2.2 .6 0 3.1 1.6 5.3 3.7 2.3 2.1 4.8 4.3 5.5 4.9 .8 .5 2.8 1.9 4.4 2.9 1.7 1.1 3.3 2.4 3.7 3 .5 .6 .8 .6 .7 0 0-.5 3.4 2.6 7.6 7 4.2 4.4 9.9 10.4 12.8 13.3 2.9 2.9 5.7 5.3 6.2 5.3 .6 0 2.1 1.3 3.5 3 1.4 1.6 2.8 2.9 3.3 2.9 .4 0 2.2 1 3.9 2.3 1.8 1.2 4 3.1 4.8 4.2 .8 1.1 2.7 3.2 4.3 4.7 1.5 1.6 2.7 3.1 2.7 3.6 0 .4 3.5 4 7.8 8 4.2 4.1 9.2 8.6 11 10 1.8 1.5 3.3 3.2 3.3 3.7 0 .6 2.2 3 4.9 5.5 2.7 2.5 4.9 5.1 5 5.8 0 .7 .5 .9 1.2 .5 .9-.5 1-.4 .5 .5-.4 .6-.1 2.1 .6 3.2 .6 1.1 1.8 2 2.5 2 .6 0 2 1.2 2.9 2.8 1 1.5 1.8 2.9 1.8 3.2 0 .3 1 1.5 2.3 2.8 1.2 1.2 2.8 2.2 3.5 2.2 .6 .1 6.1 5.1 12.2 11.3 6 6.2 11.5 12.3 12.3 13.7 .7 1.4 1.2 3.1 1.2 3.8 0 .6 .9 1.8 2 2.5 1.1 .6 2 2.1 2 3.2 0 1.1 .4 2.5 .8 3.1 .4 .6 1.7 1.6 3 2.3 1.2 .6 3.2 3.1 4.5 5.6 1.2 2.5 2.8 4.5 3.5 4.5 .6 0 1.2 .7 1.2 1.5 0 .8 .7 1.5 1.5 1.5 .8 0 2 .9 2.5 2 .7 1.5 .7 2-.2 2-.7 0 .1 1.2 1.9 2.7 2.5 2.2 2.9 3.1 2 4.1-.9 1-.8 1.2 .6 1.2 .9 0 2.8 1.1 4.2 2.5 1.4 1.4 2.2 3.1 1.9 3.8-.3 .6 .3 2 1.3 3.1 1 1 2.6 2.3 3.6 2.7 .9 .5 2.3 2.5 3 4.4 .6 1.9 1.5 3.5 2 3.5 .4 0 .5 .9 .2 2-.3 1.2 0 2 .8 2 .6 0 2.3 .9 3.7 2.1 1.6 1.4 2 2.3 1.3 2.5-.7 .2-1.3 .9-1.3 1.4 0 .6 .9 1.2 2 1.5 1.1 .3 2.9 2.4 4 4.8 1.1 2.3 2 4.7 2 5.2 .1 .6 1.6 2.6 3.6 4.5 1.9 1.9 3.7 4.6 4 6 .3 1.4 .8 3.2 1 4l0.5 1.5 .9-1.5c0.7-1.1 .9-.7 .7 1.5-.1 2.2 .4 3.2 2 4 1.2 .5 2.6 2.4 3.1 4 .5 1.8 1.4 2.9 2.3 2.6 .9-.2 1.2 .2 .8 1-.4 .8-.1 2.8 .6 4.4 .6 1.7 1.3 3.5 1.4 4 .2 .6 .6 1.2 1 1.5 .3 .3 1.9 3.2 3.4 6.5 1.6 3.3 3.3 6.8 3.8 7.8 .5 .9 .9 2.4 .9 3.2 0 .8 .6 1.5 1.3 1.5 .6 0 2.4 2.7 4 6 1.5 3.3 3.2 6 3.7 6 .6 0 1.5 1.2 2.2 2.8 .7 1.5 1.2 3.2 1.2 3.7 .1 .6 .9 2.3 1.9 3.8 .9 1.5 1.7 3.5 1.7 4.5 0 .9 .9 2.8 2 4.2 1.1 1.4 2 3.2 2 4 0 .8 .3 2 .8 2.5 .5 .6 1.4 2.9 2 5.3 .7 2.3 1.9 4.4 2.7 4.7 .8 .3 1.5 1.4 1.5 2.5 0 1.1 .5 2.2 1 2.5 .6 .3 1 1.9 1 3.5 0 1.7 .7 3.7 1.5 4.5 1.2 1.2 1.3 1.8 .3 3.2-1.1 1.4-1 1.6 .5 1 1.1-.5 1.9-.1 2.2 1.1 .3 .9 1 2.9 1.5 4.5 .7 2 .7 2.8-.2 3.1-1 .2-.9 .8 .3 2.2 .9 1 2 3.4 2.3 5.2 .3 1.7 1.1 3.2 1.6 3.2 .6 0 .8 .5 .5 1-.3 .6 .2 2.5 1 4.3 .9 1.7 1.5 4 1.5 5 0 .9 .3 1.7 .8 1.7 .4 0 1.6 3.6 2.7 8 1.1 4.4 2.3 8 2.8 8 .4 0 .9 .8 1.1 1.8 .2 .9-.1 2.3-.7 3-.9 .9-.9 1.2 .1 1.2 .6 0 1.5 1.2 1.9 2.8 .3 1.5 .6 3.3 .5 4-.1 .6 .3 1.2 .8 1.2 .6 0 .9 .8 .8 1.8-.1 .9 .2 2.4 .7 3.2 .5 .8 1 2 1 2.5 0 .6 1.6 5.7 3.5 11.5 1.9 5.8 3.8 10.7 4.2 11 .3 .3 .6 1.2 .5 2 0 .8 .3 4 .7 7 .6 3.9 1.1 5.1 1.7 4 .6-1 .9-1.1 .9-.2 0 .6-.4 1.4-1 1.7-.6 .3-.7 1-.1 1.8 .6 .6 1.7 4.6 2.6 8.7 .9 4.1 2 8 2.5 8.5 .6 .6 .8 1.3 .5 1.8-.3 .4 0 1.7 .6 3 .7 1.2 1.4 5.8 1.6 10.2 .3 4.4 .5 10.4 .4 13.3-.1 2.8 .4 5.4 .9 5.7 .6 .3 1 1.4 1 2.5 0 1.1 .3 2 .8 2 .4 0 1.3 2.4 2 5.5 .6 3 1 6 .7 6.5-.3 .6 .2 1 1 1 .8 0 1.7 .9 2 2 .3 1.1 .1 2-.5 2-.5 0-1 1.4-1 3 0 1.7 .5 3.2 1 3.5 .6 .3 1 2.5 1 5 0 2.5 .5 4.5 1 4.5 .6 0 .8 1.8 .5 4.3-.3 2.6 .1 5.2 1 7l1.5 2.7-1.7 .6c-1.1 .3-1.4 .8-.7 1.2 .6 .4 1.1 4.2 1.1 8.7 0 4.4 .6 9.1 1.3 10.5 .9 1.8 1.3 11.3 1.5 34 .2 21.6 .7 31.6 1.4 31.8 .6 .1 1.1 .9 1.1 1.7 0 .8-.4 1.3-1 1-.5-.3-1.1 .1-1.3 .8-.2 .6 0 3 .5 5.2 .5 2.2 1 8.8 1.1 14.7 .1 5.8-.1 10.4-.5 10.2-.5-.2-.6 3.5-.4 8.4 .2 4.8-.1 9.8-.7 11.2-.6 1.4-1.2 3.6-1.4 5-.1 1.4-.3 3.4-.4 4.5 0 1.1-.5 2.8-1 3.8-.6 1.1-.5 1.9 .1 2.2 .6 .3 .8 1 .5 1.5-.3 .6-.8 4-1.2 7.8-.3 3.7-.6 8.1-.6 9.7 0 1.7 0 4.4 .1 6 .1 1.7 .2 4.1 .3 5.5 0 1.4 0 3.4 0 4.5 0 1.1-.1 3.9-.1 6.3 0 2.3-.4 4.2-1 4.2-.5 0-.8 .7-.5 1.5 .3 .8 .1 2.9-.5 4.5-.5 1.7-1.4 2.8-2 2.5-.6-.3-1 1.6-1 4.8 0 2.8-.2 6.8-.4 8.7-.3 1.9-.8 5.1-1.2 7-.4 1.9-.7 3.8-.6 4.3 .1 .4-.8 2.6-2 5-1.7 3.3-2 5.4-1.6 9.7 .3 3 .1 7.2-.4 9.3-.4 2-1.2 3.7-1.8 3.7-.5 0-.9 1.2-.8 2.8 .1 1.5-.1 3.3-.5 4-.4 .6-.5 1.9-.2 2.7 .3 .8-.2 1.7-1 2-.8 .3-1.3 1-1 1.5 .3 .6-.5 3.1-1.7 5.8-1.2 2.6-3.5 6.4-5 8.5-2.4 3.2-2.7 4.1-1.8 6.7 .8 2.4 .6 3.6-.7 5.8-1.3 2-1.7 5-1.8 11.4 0 4.9-.3 8.8-.7 8.8-.5 0-1.1 1-1.4 2.3-.4 1.2-.8 3.6-1 5.2-.3 1.7-1.5 5.1-2.9 7.8-1.4 2.6-2.5 5.4-2.5 6.2 0 .8-.8 1.5-1.7 1.5-1.3 0-1.5 .2-.5 .8l1.4 .7-1.4 2.5c-.7 1.3-1.8 2.9-2.5 3.5-.6 .5-1.4 3-1.7 5.5-.4 2.5-.9 6.2-1.1 8.3-.3 2-.9 3.7-1.5 3.7-.5 0-.8 .7-.5 1.5 .3 .8-.4 2.5-1.5 3.8-1.1 1.2-1.8 2.8-1.5 3.5 .3 .6-.1 2.3-.7 3.7-.7 1.4-1.9 2.5-2.5 2.5-.7 0-1.5 .8-1.8 1.8-.3 .9 0 2 .7 2.3 .7 .4 1 1.2 .6 1.8-.5 .6-1.5 1.1-2.3 1.1-1.1 0-1.3 .7-.8 2.8 .5 2.1 .4 2.6-.8 2.1-.9-.5-2.1 .4-3.5 2.5-1.2 1.7-2.8 4.6-3.5 6.4-.8 1.7-1.8 3.2-2.4 3.2-.5 0-2 2.6-3.3 5.7-1.3 3.2-2.5 7.4-2.8 9.3-.2 1.9-.9 5.6-1.6 8.2-.7 2.6-1.5 4.5-1.8 4.3-.3-.3-2 2.7-3.7 6.5-1.8 3.9-3.3 7.7-3.3 8.5 0 .8-.3 1.3-.7 1.1-.5-.3-1.3 1-2 2.7-.7 1.8-2.4 5.2-3.8 7.7-1.4 2.5-2.9 5.2-3.4 6-.4 .8-1.4 2.6-2.1 4-.8 1.4-2.2 4.2-3.2 6.3-1 2-2.2 3.7-2.8 3.7-.5 0-1 .9-1 2 0 1.1-.3 1.8-.7 1.6-.5-.3-1.7 2.1-2.8 5.2-1.5 4.3-3.6 7.3-8.2 12-3.9 3.8-6.1 6.8-5.8 7.7 .3 .8-.5 2.5-1.7 3.8-1.3 1.3-2.2 2.9-2 3.5 .1 .7-.6 1.2-1.5 1.2-1 0-1.5 .2-1 .5 .4 .3 0 2.2-.8 4.3-.9 2-1.5 3.8-1.3 4 .2 .1-1.1 1.9-2.9 4-1.7 2.1-3 4.5-2.7 5.5 .2 1-.2 1.7-1.1 1.7-.8 0-1.8 .8-2.2 1.8-.4 .9-2.4 3.7-4.5 6.2-2.1 2.5-3.8 5.3-3.8 6.3 0 .9-.7 1.7-1.5 1.7-.8 0-1.5 .6-1.5 1.3 0 .6-.9 1.9-2 2.7-1.1 .8-2 2.5-2 3.8 0 1.3-1 2.8-2.5 3.7-1.4 .8-2.5 2.2-2.5 3 0 .8-.9 2-2 2.5-1.1 .6-1.8 1.5-1.5 2 .3 .6-.3 1.3-1.2 1.6-1 .3-2.9 2.3-4.3 4.5-1.4 2.2-3.1 3.9-3.7 3.9-.7 0-1.6 1-2 2.3-.4 1.2-.6 2.5-.5 3 .1 .4-.2 .7-.8 .7-.5 0-2.7 1.7-4.7 3.8-2.1 2-3.6 4-3.5 4.5 .1 .4-.6 .9-1.5 1.2-1 .3-2.7 2.1-3.8 4.1-1.4 2.3-2.2 3-2.7 2.2-.5-.9-1-1-1.7-.3-.5 .6-1.1 1.9-1.3 3-.2 1.2-1 1.9-2.1 1.8-1.2-.2-1.7 .4-1.7 2 .1 1.2-.9 3.1-2 4.2-1.1 1.1-2.1 2.8-2 3.8 0 .9-.9 2.3-2 3-1.1 .6-2 1.5-2 2 0 .4-1 1.8-2.2 3.1-1.3 1.3-3.2 3.6-4.3 5.2-1.1 1.6-7.4 8.2-14 14.8-6.6 6.5-13.1 12.2-14.4 12.5-1.3 .3-2.9 1.5-3.5 2.5-.6 1.1-1.9 2.8-2.8 3.8-1 1-1.8 2.3-1.8 2.8 0 .6-1 1-2.2 1-1.3 0-2 .2-1.5 .5 .4 .3-.8 1.8-2.5 3.5-1.8 1.6-3.6 2.7-4 2.5-.5-.3-2 .8-3.5 2.4-1.6 1.6-4 3.2-5.5 3.5-1.6 .3-2.8 1.3-2.8 2.1 0 .8-1 1.9-2.2 2.4-1.3 .6-3.4 2.2-4.8 3.6-1.4 1.4-4.9 3.6-7.8 4.8-3.5 1.5-5.2 2.8-5.2 4 0 .9-.6 1.7-1.2 1.7-.7-.1-2.2 .9-3.3 2-1.2 1.2-2.7 1.8-3.7 1.5-1.1-.3-1.8 0-1.8 .8 0 .6-.6 1.3-1.2 1.4-.7 .2-3.8 .8-6.9 1.5-4.9 1.1-5.9 1.1-7.3-.2-.9-.8-1.7-1.9-1.6-2.5 0-.5-1.2-2.3-2.7-4-1.6-1.6-2.9-4-3-5.2-.2-1.3 .2-2.3 .7-2.3 .6 0 1-.4 1-1 0-.5-.6-.8-1.2-.6-.7 .2-1.4-.5-1.5-1.5-.2-1.1 .3-1.9 1.2-1.9 .9 0 1.3-.6 1-1.5-.3-.8 .4-2.3 1.6-3.2 1.3-1.1 2.1-2.9 2-4.5-.1-1.6 .4-2.8 .9-2.8 .6 0 1.5-1.3 2-3 .6-1.6 1.5-3 2-3 .6 0 .8-2.3 .6-5.7-.2-3.3 .1-6.7 .7-7.8 .6-1.1 1-2.3 .9-2.7-.1-.5 .1-.8 .6-.8 .4 0 .5-1.3 .3-2.8-.2-1.5 .3-3.8 1-5.2 .7-1.4 1.8-3.1 2.4-3.9 .5-.8 1.1-2.6 1.3-4 .2-1.4 .9-3 1.6-3.6 .7-.5 1.6-2.3 1.9-4 .4-1.6 1.6-4.2 2.7-5.7 1.1-1.6 2.1-4.1 2.3-5.8 .1-1.6 .8-3 1.5-3 .7 0 1-.7 .5-1.7-.3-1.1 0-2.2 .8-2.8 .8-.5 2-2.2 2.7-3.7 .6-1.6 1.2-4.1 1.2-5.8 0-1.8 .6-3.2 1.5-3.5 .8-.3 1.5-1.4 1.5-2.5 0-1.1-.4-2-1-2-.5 0-.1-1.5 1-3.2 1.1-1.8 2-4.1 2-5 0-1 .5-1.8 1-1.8 .6 0 .8-.9 .5-2-.3-1.1 0-2 .5-2 .6 0 1.3-1 1.6-2.2 .3-1.3 .5-2.7 .4-3.3 0-.5 .4-2.1 1-3.5 .7-1.4 1.9-4.1 2.8-6 .9-1.9 1.9-3.7 2.2-4 .3-.3 1.1-2.5 1.8-5 .8-2.5 1.5-6.3 1.7-8.5 .2-2.2 .8-4.1 1.4-4.2 .6-.2 1.1-2.5 1.1-5.3 0-3.1 .6-5.6 1.5-6.5 .8-.8 1.7-3 2-4.7 .2-1.8 .7-6.9 1.1-11.3 .4-4.6 1.3-9.1 2.2-10.5 .9-1.4 1.8-3.2 2-4 .3-.8 .5-2.8 .6-4.5 .2-1.6 .7-5.2 1.2-7.9 .5-2.6 1.4-5.1 1.9-5.3 .6-.3 .3-.9-.5-1.4-1.2-.6-1.3-1.2-.3-3.1l1.2-2.3-1.2-1.2c-.9-1-.9-1.9 0-4 .6-1.5 1.4-6.3 1.7-10.5 .5-6.5 .4-7.8-.9-7.8-1.3 0-1.3-.3-.1-2.2 .8-1.3 1.3-3.3 1-4.5-.2-1.3-.8-2.3-1.4-2.3-.6 0-.8-1.2-.4-2.7 .3-1.6-.2-4.6-1.1-6.8-.9-2.2-2.8-5.2-4.3-6.7-1.5-1.5-3.8-3.8-5.2-5.2-1.4-1.5-3.2-2.6-4-2.6-.8 0-2.1-.5-2.8-1.2-.7-.7-3.9-1.6-7-2-3.1-.5-6.4-.9-7.2-.9-.8-.1-2.1-.7-2.9-1.3-.8-.6-3.3-1-5.7-.8-2.4 .1-5.3-.2-6.4-.8-1.1-.5-3.7-1-5.7-1.1-2.1 0-4.6-.3-5.5-.5-1-.2-1.6-.8-1.3-1.4 .3-.5 .1-1-.5-1-.5 0-1.2 .3-1.4 .8-.2 .4-2.1 .6-4.3 .6-2.1-.1-5.3-.4-7-.8-1.8-.3-3.3-1-3.3-1.6 0-.6-1.2-.8-2.7-.4-1.7 .3-6.8-.7-12.8-2.4-5.5-1.7-11.6-3.3-13.5-3.7-1.9-.5-4.8-.9-6.5-1-1.6-.2-5.9-1-9.5-1.9-3.6-.8-6.9-2-7.5-2.6-.5-.6-1.4-1-2-1-.5 0-2.8-.7-5-1.7-2.2-.9-4.4-1.6-5-1.5-.5 .2-3.5-.9-6.5-2.3-3-1.3-6.5-2.5-7.7-2.5-1.3 0-2.4-.5-2.5-1.1-.2-.6-2.1-1.7-4.3-2.5-2.2-.7-4.9-1.4-6-1.4-1.1 0-3.1-.9-4.5-2-1.4-1.1-3.7-2-5.2-2-1.6 0-3-.3-3.2-.7-.2-.5-1.9-1.1-3.7-1.6-1.9-.4-5.9-2-8.9-3.5-3-1.5-5.7-2.9-6-3.3-.3-.3-1.4-.9-2.5-1.4-1.1-.4-2.2-.9-2.5-.9-.3-.1-1.8-1-3.5-2.2-1.6-1.1-4.6-2.7-6.5-3.4-1.9-.8-4.1-2-4.7-2.7-.7-.7-1.9-1-2.5-.7-.7 .3-3.5-.4-6.3-1.6-2.7-1.2-6.1-2.6-7.5-3.3-1.4-.6-5.4-3.2-9-5.6-3.6-2.5-7.1-5.1-7.7-5.8-.7-.7-1.9-1.3-2.5-1.3-.7 0-2.9-1.6-4.8-3.5-1.9-1.9-3.9-3.5-4.5-3.5-.5 0-3.7-1.5-7-3.4-3.3-2-6.4-3.9-7-4.5-.5-.5-2.5-2.6-4.4-4.7-1.9-2.2-4.7-4.5-6.3-5.1-1.5-.7-2.8-1.6-2.8-2 .1-.5-2.5-3.5-5.7-6.8-3.2-3.3-7.5-7.3-9.6-9-2.1-1.6-3.8-3.6-3.7-4.2 0-.7-.7-1.5-1.5-1.8-.8-.3-1.5-1.1-1.5-1.7 .1-.7-.6-2-1.5-2.8-.9-.8-1.6-2.3-1.5-3.2 0-1-.5-1.7-1.1-1.5-.6 .1-2.5-2.3-4.1-5.3-1.7-3-4.1-7-5.4-8.7-1.3-1.8-2.2-4-1.9-4.8 .3-.8-.2-3.6-1.1-6.2-.8-2.7-1.7-5.2-2-5.8-.2-.5-1.3-2.3-2.4-4-1.1-1.6-2.5-4.1-3.1-5.5-.6-1.4-2.1-4.7-3.2-7.5-1.1-2.7-2.1-6.8-2.2-9-.1-2.2-.5-5.7-.8-7.7-.4-2.1-1.1-3.8-1.7-3.8-.5 0-1-1.9-.9-4.2 0-2.4-.4-5.6-.9-7.3-.5-1.6-.8-4.8-.7-7 .2-2.2 .5-9.9 .7-17.1 .2-8.6 .7-13.6 1.5-14.5 .7-.8 1.5-3.9 1.8-6.9 .2-3 .9-5.6 1.5-5.7 .5-.2 .7-.9 .4-1.5l-.7-1.3 .7-7.7c0.5-6.9 .8-7.6 2.1-6.5 1.4 1 1.6 .7 1.5-3 0-2.6 .4-4.1 1-3.8 .6 .3 1.2-.2 1.5-1 .3-.8 .5-2.8 .5-4.5 0-2.5 .3-2.9 2-2.5 1.1 .3 2 .1 2-.5 0-.5 .7-1.7 1.5-2.5 .8-.8 1.5-2.6 1.5-4 0-1.4 .5-2.7 1-3 .6-.3 1-1.4 1-2.5 0-1.1 .7-2.7 1.5-3.5 .8-.8 1.5-1.9 1.5-2.5 0-.5 .6-1.2 1.3-1.5 .6-.2 1.8-2.4 2.6-4.7 .7-2.4 1.1-4.9 .7-5.5-.3-.7-.1-1.3 .4-1.3 .6 0 1.5-1.3 2-3 .6-1.6 1.5-3 2-3 .6 0 1-.7 1-1.5 0-.8 .7-1.7 1.5-2 .8-.3 1.5-1.1 1.5-1.7 .1-.9-.4-.9-1.5 .2-.9 .8-1.6 1.2-1.5 .8 0-.5 .9-1.7 2-2.8 1.1-1.1 2.5-2 3-2 .6 0 .7-.7 .3-1.6-.7-1.3-.4-1.4 1.1-.8 1.5 .8 1.7 .6 1-1.1-.7-1.6-.5-1.9 .6-1.3 .9 .3 2-.1 2.7-1 .6-1 .9-2.8 .6-4.2-.4-1.4-.2-2.2 .3-1.8 .5 .4 2.1-1 3.7-3.2 1.5-2.2 2.5-4.4 2.2-5-.3-.5 .2-2.6 1-4.5 .8-1.9 2-3.7 2.5-4 .6-.3 .8-1.6 .5-3-.3-1.4 0-2.5 .5-2.5 .6 0 1-1 1.1-2.2l0-2.3 .9 2c0.7 1.7 .9 1.6 1-1 0-1.6 .8-3.8 1.8-4.9 .9-1 1.7-3.1 1.7-4.7 0-2.4 .3-2.8 2-2.2 1.4 .5 1.8 .3 1.3-.5-.5-.7 .1-2.2 1.3-3.4 1.3-1.4 2-3.2 1.8-4.6-.3-1.5 .2-2.7 1.4-3.3 1-.5 1.5-1.6 1.2-2.6-.2-1-.1-2.3 .3-2.9 .4-.6 1.5-1.4 2.5-1.7 1-.4 2.4-3.1 3.5-6.6 .9-3.3 2-5.8 2.5-5.5 .4 .2 .9-.4 1.1-1.3 .2-1 .4-3.1 .5-4.8 .1-1.6 1.5-5 3.1-7.5 1.6-2.5 3-4.8 3-5.2 0-.5 .9-2 2-3.5 1.1-1.6 1.7-3.1 1.5-3.5-.3-.5 .6-2 2-3.5 1.4-1.6 2.6-3.6 2.5-4.5 0-1 .9-2 2-2.3 1.7-.4 1.9-1 1.4-3.7-.4-2.1-.2-3.6 .5-4 .6-.5 .8-1.4 .5-2-.3-.7 .2-1.6 1-2 .9-.5 1.4-1.5 1.1-2.3-.3-.8 .4-3.1 1.5-5 1.8-3.1 1.8-3.6 .5-4.2-1.3-.7-1.1-1 1-2 1.4-.8 2.5-2.2 2.5-3.3 0-1.1 .5-1.8 1-1.5 .6 .3 1 .1 1-.5 0-.5 .3-.8 .8-.6 .4 .2 .7-1 .8-2.7 .1-1.8 .6-3.3 1.2-3.4 .7-.2 1.2-1.6 1.2-3.3 0-1.7-.5-3-1.2-3.1-.8 0-.7-.3 .2-.6l1.5-.5-1.5-.9c-1.3-.7-1.2-.9 .3-.9 .9 0 1.6-.5 1.5-1.2-.2-.6 .8-2.3 2.2-3.7 1.6-1.6 2.1-2.6 1.3-2.8-.9-.2-1-.7-.3-1.5 .5-.7 1-3 1.2-5 .2-2.2 .8-3.8 1.6-3.8 .6 0 1.2-1 1.2-2.2 0-1.3 1.1-3.4 2.4-4.8 1.7-1.9 2.2-3.3 1.9-5.5-.4-2.1-.1-3.2 1.1-3.7 .9-.5 1.6-1.4 1.6-2-.1-.7 .5-1.8 1.2-2.5 .7-.6 1.4-3.1 1.4-5.5 .1-2.3 .7-4.4 1.3-4.5 .6-.2 1.1-1.6 1.1-3.3 0-1.6 .5-3.2 1-3.5 .6-.3 .8-1.7 .5-3.2-.3-1.6 .1-5 1-7.8 .8-2.7 1.5-6.5 1.5-8.2 0-1.8 .5-5.4 1.1-8 .6-2.7 1.5-5.6 2-6.5 .5-1 .9-3.9 1-6.5 0-2.7 .1-9.1 .2-14.3 .2-5.2-.2-10.3-.8-11.2-.7-1.2-.6-2.8 .3-5.3 .9-2.5 .9-4.4 .2-6.7l-1.1-3.3 1.1-2.7c0.5-1.6 .7-4.7 .3-7-.3-2.4-1.2-5.6-1.9-7.3-.9-2.3-.9-3.5 0-5.2 .8-1.7 .8-2.5-.1-3.5-.7-.7-1.5-3.8-1.8-6.8-.2-3-.9-5.9-1.4-6.5-.5-.5-.7-2.6-.4-4.5 .3-1.9 0-5.2-.6-7.2-.6-2.1-1.5-3.8-2.1-3.8-.5 0-1-1.6-1-3.5 0-1.9-1-5.6-2.3-8.2-1.3-2.7-2.5-6.6-2.6-8.8-.2-2.2-.7-4.8-1.2-5.7-.5-1-.9-2.6-.9-3.5 0-1-1-2.8-2.3-4.1-1.8-1.9-1.9-2.2-.4-1.8 .9 .3 1.7 .4 1.7 .1 0-.3-.7-1.2-1.5-2-.8-.8-1.5-2.3-1.5-3.2 .1-1-.6-2.5-1.5-3.3-.9-.8-1.6-2.3-1.5-3.2 0-1-.4-1.6-1-1.3-.6 .3-.7-.2-.4-1.2 .3-1 0-3.1-.7-4.6-.8-1.5-1.7-2.8-2.1-2.7-.5 0-.8-.9-.8-2 0-1.1-.4-2-1-2-.5 0-1-1-1-2.2 0-1.3-.4-2.7-1-3.3-.6-.5-1.3-2.3-1.5-4-.2-1.6-1.1-3.3-2-3.7-.8-.5-1.5-1.5-1.5-2.3 0-.8-.4-1.5-1-1.5-.5 0-1.9-1.9-3-4.2-1.1-2.4-2.7-5.5-3.5-7-.8-1.6-1.9-2.8-2.5-2.8-.5 0-.8-.8-.5-1.7 .4-1.2-.8-3.1-3.6-5.8-2.3-2.2-5.8-7.1-7.8-10.9-2-3.8-4.5-7.6-5.7-8.5-1.1-.9-2.1-1.8-2.2-2.1 0-.3-.4-1.4-.8-2.5-.4-1.1-3.1-4.4-6.1-7.2-2.9-2.9-5.3-5-5.3-4.5-.1 .4-.7-.5-1.5-2-.8-1.6-1.9-2.8-2.5-2.8-.5 0-1-.7-1-1.5 0-.8-.7-1.7-1.5-2-.8-.3-2.1-1.7-2.8-3.2-.7-1.6-1.8-2.8-2.5-2.8-.6 0-3-1.9-5.2-4.2-2.2-2.4-4-4.7-4-5.3 0-.5-.6-.7-1.2-.3-.9 .5-1 .4-.5-.5 .4-.7 0-1.4-1.3-1.7-1.1-.3-2.8-1.8-3.7-3.5-1-1.6-2.6-3-3.5-3-1 0-1.8-.7-1.8-1.5 0-.8-.9-1.7-2-2-1.2-.3-2-1.3-2-2.5 0-1.1-.4-2-1-2-.5 0-1 .5-1 1 0 .6-.3 1-.7 1-.5 .1-1.4-1.2-2-2.7-.7-1.5-3.8-4.6-6.8-6.8-3.1-2.2-5.6-4.6-5.5-5.2 0-.7-1.1-1.3-2.5-1.3-1.8 0-3.1-1-4.5-3.5-1.1-1.9-2.3-3.3-2.7-3-.5 .2-1.7-.4-2.8-1.3-1.1-1-3.6-2.4-5.5-3.2-1.9-.7-4.7-2.2-6.2-3.2-1.6-1-3-1.8-3.3-1.8-.3 0-2.4-1.2-4.7-2.7-2.4-1.5-5.6-3.8-7.1-5.2-1.6-1.4-4.2-3.9-5.8-5.6-1.6-1.6-2.9-2.5-2.9-2 .1 .6-.6 .4-1.5-.2-.8-.7-1.3-1.7-1-2.3 .3-.5-1.1-1.8-3-2.7-1.9-1-3.9-2.7-4.4-3.8-.5-1.1-1.4-5.6-2.1-10-.7-4.4-1.8-9.8-2.5-12-.7-2.2-1.1-5.6-.8-7.5 .3-2.1-.2-4.8-1.1-6.7-.9-1.8-1.4-4-1.1-4.8 .3-.8 .1-1.5-.5-1.5-.5 0-1-1.5-1-3.2 .1-1.8-.6-4-1.6-4.8-1-1-1.4-2.5-1.2-4.5 .3-2-.4-4.7-2.4-8.2-1.5-2.9-2.8-6.2-2.8-7.3 0-1.1-1.1-4.1-2.5-6.7-1.4-2.7-2.5-5.4-2.5-6 0-.7-1.1-2-2.5-2.8-2-1.2-2.4-2.1-2-4.2 .4-2.2-.2-3.6-2.5-6.3-1.7-1.9-3.1-4.3-3-5.2 0-1-.6-2.4-1.3-3-.8-.7-2-3.1-2.7-5.3-.8-2.2-2.1-4.9-3-6-.8-1.1-2.5-3.5-3.8-5.2-1.2-1.8-2.2-4-2.2-4.8 0-.8-.9-2.1-2-2.7-1.1-.7-2-1.9-2-2.5 0-.7-.7-1.5-1.5-1.8-.8-.3-1.5-1.3-1.5-2.2 .1-1-.7-2.6-1.7-3.6-1-.9-2.1-1.4-2.6-1-.4 .5-.4-.5 .1-2.2 .7-2.4 .3-3.9-1.6-7.5-1.9-3.5-2.5-6.1-2.6-11.8-.1-4.7-.5-7.5-1.4-8-.7-.4-1-1.4-.7-2.2 .4-1.1-1-2.1-5.7-3.9-3.5-1.4-6.6-2.4-7-2.3-.5 .1-.8-.5-.8-1.3 0-.9-.9-1.5-2.5-1.5-1.8 0-2.5-.5-2.5-2 0-1.1-.8-2.7-1.7-3.7l-1.8-1.6 2.3 .6c1.2 .4 2.2 .3 2.2-.3 0-.5-.6-1-1.2-1-.7 0-.9-.3-.5-.7 .5-.4 2.1-.9 3.5-1.1 1.5-.2 7.9-.5 14.2-.7 6.3-.3 11.7-.7 12-1 .3-.3 1.7-.5 3.3-.5ZM985.8 246c0.4 0 1.5 .7 2.5 1.5 .9 .8 1.5 2 1.2 2.5-.3 .6 .2 1.2 1 1.5 .8 .3 2.7 3.1 4.2 6.3 1.5 3.1 2.6 6.3 2.5 7-.1 .6 .3 3 .8 5.2 .7 2.9 .7 4.2-.1 4.8-.7 .4-1 2.1-.6 4.2 .3 1.9 .2 4-.4 4.5-.5 .6-.5 2.4 .1 4.5 .5 1.9 .6 4 .2 4.5-.3 .6-.7 3.8-.7 7.2 0 4.4 .4 6.3 1.3 6.3 .6 0 1.1 .8 1.1 1.8-.1 .9 .2 4 .5 6.7 .4 2.8 .8 6.4 1 8 .2 1.7 .7 4.1 1 5.5 .5 1.8-.2 4.3-2.3 8.8-1.7 3.4-3.5 6.2-4.1 6.2-.5 0-1 .6-1 1.3 .1 .6-1.1 2.1-2.5 3.2-1.5 1.1-3.5 2.7-4.4 3.5-1 .8-2.5 2.7-3.4 4.3-.9 1.5-2.4 2.7-3.2 2.7-.8 0-1.9 1.1-2.5 2.5-.6 1.5-1.8 2.5-3 2.5-1.1 0-2 .5-2 1 0 .6 .6 1 1.3 1 .6-.1-.2 1.2-1.8 2.7-1.7 1.5-3 3.4-2.8 4.1 .2 .6-.4 1.9-1.2 2.7-.8 .8-2.1 1.2-2.7 .8-.9-.6-1-.3-.5 1 .5 1.1 .2 1.9-.8 2.2-.8 .3-2.6 3-4 6-1.4 3-2.9 5.7-3.5 6-.5 .3-1.6 2-2.4 3.8-.8 1.7-1.7 4.2-2 5.5-.3 1.2-1 2.2-1.6 2.2-.5 0-1 .8-1 1.8 .1 .9-.8 2.8-1.8 4.2-1.1 1.4-2.2 4.1-2.6 6-.4 1.9-.6 4.3-.6 5.3 0 .9-.4 1.5-1 1.2-.5-.3-1.2 0-1.5 .5-.3 .6 .2 1.2 1 1.5 .9 .3 1.5 1.7 1.5 3.5 0 2.2-.4 2.9-1.5 2.5-.8-.3-1.5 .1-1.5 .8 0 .6 .5 1.8 1.2 2.5 1.1 1 1 1.8-.4 4.2-1 1.7-1.8 4-1.8 5.3 0 1.2-.2 6.7-.4 12.2-.3 7.3 0 10.6 1 12.3 .9 1.4 1 2.4 .4 2.7-.5 .3-.8 1-.5 1.5 .3 .6 1.1 .8 1.8 .7l1.2-.4-.7 .4c-.5 .1-.8 1.2-.8 2.3 0 1.1 1.1 3.4 2.5 5 1.4 1.7 2.5 4.2 2.5 5.8 0 1.5 .2 3.7 .5 5 .3 1.4 .9 1.9 1.7 1.5 .9-.5 1-.4 .5 .5-.4 .6 0 2.8 .8 4.7 .8 1.9 1.2 3.5 .8 3.5-.5 0 0 .7 1 1.5 .9 .8 1.5 2 1.2 2.5-.3 .6 .1 1.2 .8 1.5 .6 .2 1.5 1.6 2 3 .4 1.4 1.4 2.5 2.2 2.5 .8 0 1.8 1 2.1 2.3 .3 1.2 .2 2.4-.3 2.7-.4 .3-.9 1.7-1.1 3.3-.1 1.5 .3 2.7 .8 2.7 .7 0 .7 1 .1 2.8-.6 1.5-.8 2.9-.5 3.2 .2 .3-.3 1.2-1.1 2-.9 .8-1.6 2-1.5 2.5 0 .6-1.7 1.7-3.7 2.5-2.1 .7-4.4 1.3-5 1.2-.7-.1-1.3 .5-1.3 1.3 0 1-.8 1.4-2.2 1.3-1.3-.1-3.9 .1-5.8 .6-1.9 .4-5.5 1.4-8 2.3-2.5 .8-9 1.7-14.5 2-7.2 .4-12.6 .1-19.2-1-5.4-1-9.1-2.1-8.8-2.7 .3-.5-1.2-1.2-3.2-1.5-2.1-.3-4.8-.5-6-.5-1.3 0-2.9-.3-3.5-.6-1-.5-.9-.9 .2-1.5 1.1-.7 .9-.9-1-.9-1.4 .1-3.7-.8-5.2-2-1.8-1.2-4.9-2.2-8.5-2.5-3.2-.2-6.4-.9-7-1.5-.7-.5-1.7-.8-2.3-.5-.5 .3-2.6-.4-4.5-1.5-1.9-1.1-4.4-2-5.5-2-1.1 0-2.2-.4-2.5-1-.3-.5-2.6-1-5.2-1-2.7 .1-6.8-.2-9.3-.5-2.5-.3-4.8-1.1-5.2-1.8-.4-.7-3.1-1.5-6-2-2.9-.4-11.1-.9-18.3-1.1-9.6-.2-13.7 0-15.7 1-1.6 .8-4.1 1.4-5.8 1.4-1.6 0-3.2 .5-3.5 1-.3 .6-1.6 1-3 1-1.4 0-2.7 .3-2.9 .8-.2 .4-3 1.3-6.2 2.1-3.3 .7-8.3 2.6-11.1 4.2-2.9 1.6-5.9 2.9-6.5 2.9-.7-.1-3.1 1.6-5.3 3.7-2.3 2.1-5 5.7-6 8-1.3 2.7-2.8 4.4-4 4.5-1.1 .2-1.9 .6-1.7 1.1 .1 .4-.7 1.6-1.8 2.7-1.1 1.1-2 2.9-2 4 0 1.2-.8 2.2-2 2.5-1.1 .3-2.4 1.9-3 3.5-.5 1.7-1.4 3-2 3-.5 0-1.3 1-1.6 2.3-.3 1.2-1.7 4.9-3.1 8.2-1.4 3.3-3.1 6.7-3.9 7.5-.7 .8-1.4 3.5-1.5 6-.2 2.5-.6 4.7-1 5-.5 .3-1.6 3.7-2.5 7.5-.9 3.9-1.9 7.7-2.2 8.5-.3 .8-.6 2.3-.6 3.3-.1 1 .2 2.1 .7 2.3 .4 .2-.1 1.6-1.2 3.2-1.4 2.1-1.8 4.8-1.9 11.7-.1 6 .1 8.5 .8 7.5 .6-1 .9 .3 1 4.5 0 3.3 0 6.7 .1 7.5 0 .8-.2 4.3-.5 7.8-.5 5-.3 6.3 .9 6.7 .9 .3 1.3 1.2 1 2.3-.3 .9 .2 2.7 1 4 .8 1.2 1.3 2.7 1 3.2-.3 .6 0 1.2 .5 1.5 .6 .3 .9 2.2 .8 4.4-.2 2.9 .3 4.4 2.2 6.4 1.4 1.5 3.1 2.7 3.8 2.7 .6 0 1.4 1.5 1.7 3.3 .2 1.7 1.3 4.1 2.4 5.2 1.2 1.1 1.8 2.3 1.6 2.8-.3 .4 .2 1.6 1 2.7 .8 1.1 1.3 2.5 1 3-.3 .6 1.3 3.7 3.5 7 2.2 3.3 4.6 6 5.3 6 .6 0 1.9 1.1 2.7 2.4 .8 1.4 1.7 2.3 2 2.1 .3-.3 1.5 .6 2.8 1.8 1.2 1.2 2.1 2.9 2 3.7-.2 .9 .4 1.4 1.5 1.3 .9-.2 1.7 .2 1.7 .7 0 .6 .5 .8 1 .5 .6-.3 1 0 1 .5 0 .6 .7 1 1.5 1 1 0 1.3 .7 1 2-.3 1.3 0 2 1 2 .8 0 4 2 7 4.5 3 2.5 5.7 4.3 6 4 .3-.3 2.6 .5 5.3 1.6 2.6 1.2 5.6 2.9 6.7 3.9 1.1 1 3.6 2.1 5.5 2.4 1.9 .4 5.2 .9 7.3 1.2 2 .2 3.7 .9 3.7 1.4 0 .6 .8 .7 1.8 .3 1-.5 1.4-.4 1 .2-.4 .6 1.4 1.3 4.3 1.8 2.9 .4 5.1 1.3 5.4 2.2 .3 .8 1.4 1.5 2.5 1.5 1.1 0 2 .5 2 1 0 .6 .5 .8 1 .5 .6-.3 1 .2 1 1 0 .9 .6 1.3 1.5 1 1.2-.4 1.3 0 .8 1.8-.5 1.6-.3 2 .5 1.5 .8-.5 1-.3 .7 .7-.3 .8 0 1.5 .5 1.5 .6 0 .8 .5 .5 1-.3 .6 .2 1.2 1 1.5 .8 .3 1.5-.1 1.5-.7 0-.9 .6-.7 1.7 .5 1.5 1.4 1.6 2.1 .6 3.7-.8 1.2-.9 2-.3 2 .6 0 1 1.8 1 4 0 2.2 .5 4 1 4 .6 0 1.2-.6 1.4-1.2 .2-.7 .4 .3 .4 2.2 0 1.9 .2 6.4 .5 10 .2 3.6 1 7.9 1.7 9.5 .7 1.7 1.4 5.5 1.6 8.5 .1 3 .4 6.6 .7 8 .2 1.4 .9 2.6 1.5 2.8 .7 .1 1.2 1.7 1.2 3.5 0 1.7 .5 3.8 1.2 4.5 1 1 1 1.2 .1 1.2-1 0-1 .5 .1 2.3 .7 1.2 2.1 4.7 3 7.7 1.1 3.7 1.3 6.8 .8 9.3-.6 3.4-.5 3.8 1.1 3.3 .9-.3 1.7-.1 1.7 .4 0 .6 .9 3.1 2.1 5.8 1.1 2.6 2.5 5.5 3 6.5 .5 .9 .9 2.3 .9 3 0 .6 1.3 2.6 2.9 4.2 1.7 1.7 3.1 3.6 3.1 4.3 0 .6 .3 1.2 .8 1.2 .4 0 .8 1.5 1 3.3 .1 1.7 .6 3.4 1 3.7 .5 .3 1.3 1.4 1.9 2.5 .6 1.2 .7 3.6 .2 6-.4 2.3-.4 4.4 .2 5 .5 .6-.5 2.2-2.9 4.3-2 1.8-4.4 3.3-5.2 3.3-.8 0-2.4 .6-3.5 1.4-1.1 .9-2.8 1.5-3.7 1.5-1 0-1.8 .5-1.8 1 0 .6-1 1.1-2.2 1.3-1.7 .1-2.4 .9-2.5 3-.2 1.5-.7 2.7-1.3 2.7-.5 0-1.7 1.5-2.6 3.3-.8 1.7-1.3 3.8-1 4.5 .3 .6 0 1.5-.6 1.9-1 .4-.9 .9 .4 1.7 1.1 .7 1.4 1.6 .8 2.6-.4 .8-.6 2.3-.4 3.3 .2 .9 .9 1.7 1.4 1.7 .6 0 1.2 .9 1.5 2 .3 1.1 2.6 4.2 5.3 6.8 2.6 2.7 5.5 5.2 6.5 5.5 .9 .4 2.1 1.7 2.6 3 .5 1.2 1.7 3 2.8 3.9 1 .9 3.4 3.3 5.3 5.2 1.9 2 4.1 3.4 4.8 3.1 .6-.3 1.4 .3 1.7 1.3 .3 .9 .2 2.8-.3 4.2-.5 1.4-.6 3.9-.2 5.5 .5 2.6 .6 2.8 1.3 1 .4-1.1 .9-1.7 1.2-1.2 .3 .4-.2 1.7-1 3-.8 1.2-1.3 3-1 4 .3 .9 .2 1.9-.2 2.1-.5 .2-.6 2.7-.3 5.5 .4 4.2 .2 5.1-1.2 5.5-1.3 .5-1.8 1.7-1.8 4.6 0 2.2-.3 4-.7 4-.5 0-.9 .6-1 1.3 0 .6-.3 2.7-.5 4.5-.1 1.8-1 3.7-1.8 4.2-1 .6-1.1 1-.2 1 .7 0 .4 .9-.8 2.3-1.1 1.2-2 3.2-2 4.5 0 1.2-.9 3-2 4-1.1 .9-1.6 1.9-1.1 2.2 .5 .3 .7 1.7 .5 3.3-.2 1.5-.8 2.5-1.4 2.2-.6-.3-1 1.7-1 5 0 3.2 .6 6.4 1.5 7.8 .8 1.2 1.7 3.3 2 4.7 .3 1.4 1 3.1 1.5 3.8 .6 .6 .9 1.5 .8 2-.1 .4 .3 1.8 .9 3.2 .5 1.4 2.4 3.2 4.2 4 1.8 .9 3.2 2.2 3.1 3.3 0 .9 .3 1.5 .8 1.3 .4-.3 2.5 1.7 4.7 4.4 2.3 2.8 5.1 5.1 6.5 5.4 1.4 .3 5.8 3.5 9.9 7.3 4.5 4.1 7.1 7.3 6.7 8.1-.3 .6 0 2.3 .7 3.7 .6 1.4 1.5 2.2 1.9 1.7 .3-.4 .9 .9 1.2 2.8 .3 1.9 .8 4.6 1.1 6 .3 1.4 1.2 3.2 1.9 4 .8 .8 1.7 2.6 2 4 .3 1.4 1.3 3.2 2.1 4 .9 .8 1.6 2.1 1.5 2.8 0 .6 1 1.3 2.1 1.5 1.2 .1 2.9 1.5 3.8 3.2 .9 1.7 2.7 4.6 4.1 6.5 1.3 1.9 3 4.1 3.7 4.8 .7 .6 1.6 2.3 2.1 3.7 .4 1.6 1.2 2.4 2 2 .9-.4 1 0 .2 1.5-.7 1.5-.6 2.7 .5 4.5 .8 1.4 1.5 4.3 1.5 6.5 0 2.2 .5 4 1 4 .6 0 1 .6 1 1.3-.1 .6 .8 2.4 2 4 1.1 1.5 1.8 3.5 1.6 4.5-.2 1.2 .7 2.2 3.1 3.2 2.5 1.1 3.3 2 2.9 3.3-.5 1.3-.2 1.6 1.2 1.2 1-.3 2.7 .5 4.2 2 1.4 1.4 2.1 2.5 1.5 2.5-.5 0-.1 .8 1 1.9 1.1 1.2 3.2 2.3 4.8 2.6 1.8 .3 2.5 1 2.2 2-.3 .8 .1 2.5 .8 3.8 .8 1.3 1.1 3.6 .7 5.7-.3 1.9-.4 6.9-.2 11 .2 4.1 .4 8.4 .6 9.5 .1 1.1 .6 2.9 1.1 4 .6 1.3 .5 2.1-.3 2.3-.8 .1-1 1.3-.5 3.5 .3 1.7 .9 3.4 1.2 3.7 .3 .3 1.4 2.2 2.4 4.3 .9 2 1.7 4.4 1.7 5.2 0 .8 .7 2.3 1.5 3.3 .8 .9 3.4 3.9 5.7 6.5 2.9 3.2 4.8 4.6 5.8 4.1 1.1-.4 1.3-.2 .8 1-.6 1.2-.2 1.6 1.7 1.6 1.4 0 2.5 .5 2.5 1 0 .6 .7 .8 1.5 .5 .8-.3 1.5 0 1.5 .5 0 .6 1.7 .9 3.8 .8 2.3-.2 4.1 .2 4.9 1.2 .9 1.2 4.3 1.5 18 1.6 9.2 .1 19.5-.3 22.8-.8 3.3-.5 6.7-1.6 7.5-2.4 .8-.7 3.8-1.4 6.5-1.6 2.8-.1 6.1-.7 7.5-1.4 1.4-.7 5.2-1.2 8.5-1.2 4.4 0 6.7-.5 8.5-2 1.4-1.1 4.9-2.2 8-2.5 3-.4 6.9-.8 8.5-1 2.3-.3 3.7 .4 6.3 3 1.7 1.8 3.2 4 3.2 4.8 0 .8 .7 1.5 1.5 1.5 1.2 0 1.3 .4 .5 2l-1 2 1 0c0.6 0 1.2-.6 1.4-1.2 .2-.7 .6-1 1-.5 .3 .4-.1 1.4-.9 2.2l-1.5 1.5 1.5 0c1.2 0 1.5 1.3 1.4 5.8l-.1 5.7 .1 2.8c0 1.5 .6 2.5 1.1 2.2 .6-.3 .8 .7 .4 2.8-.4 1.7-.2 3.5 .2 3.9 .5 .3 .6 3 .3 6-.4 2.9-.5 5.6-.3 6.1 .2 .4 1.1 .7 1.9 .7 .8 0 1.5 .5 1.5 1 0 .6-.7 .8-1.5 .5-.8-.3-1.5 .1-1.5 .8 0 .6 .4 1.7 1 2.2 .6 .7 .6 2.3 0 4.8-.7 2.4-.7 4.2 0 5.2 .6 .8 .9 2.6 .8 4-.2 1.3 0 2.5 .5 2.5 .4 0 .4 .8 .1 1.8-.4 .9-.3 2.6 .1 3.7 .5 1.1 .9 5.8 1 10.5 .2 4.7-.2 9-.7 9.5-.5 .6-.8 2.5-.6 4.2 .2 1.8 0 3.3-.4 3.3-.5 0-.8 1.4-.8 3 0 1.7-.5 3.3-1.2 3.8-.8 .5-.9 3.1-.4 9.2 .4 4.7 .7 10.5 .6 13 0 2.5 0 5.5 0 6.8 0 1.2-.3 2.2-.7 2.2-.5 0-.8 2.2-.8 4.9 0 2.8-.4 4.7-1 4.4-.5-.2-1.9 1.6-3 3.9-1 2.4-1.8 4.9-1.7 5.6 .1 .6-1 2.4-2.5 4-1.6 1.5-3.4 3.9-4 5.5-.7 1.5-3.4 4.6-5.9 7-2.5 2.3-7.6 7.2-11.2 10.9-3.7 3.7-7 6.7-7.4 6.8-.5 0-2.5 1.7-4.7 3.8-2.1 2-5.6 5.1-7.7 6.7-2.2 1.7-5.6 4.2-7.6 5.5-2.1 1.4-4.3 3.5-5 4.7-.7 1.2-1.6 2-2 1.8-.5-.3-2.8 .3-5.3 1.3-2.8 1-4.3 2.2-4 3 .3 .6 .1 1-.5 .7-.5-.3-3.1 .5-5.7 1.6-2.7 1.2-5 2.5-5.3 2.9-.3 .4-2.1 1.4-4 2.3-1.9 .8-5 1.8-6.7 2.1-1.8 .3-3.3 1.1-3.3 1.6 0 .6-1.6 1.2-3.5 1.5-1.9 .3-3.5 1-3.5 1.5 0 .6-.9 1-2 1-1.1 0-2 .6-2 1.3 0 .6-.3 .9-.7 .5-.5-.4-2.1 0-3.8 .9-1.6 .9-3.8 2-4.7 2.4-1 .5-2.4 .9-3 .9-.7 0-4.1 1.8-7.5 4-3.5 2.2-7.2 4-8.3 4-1.1 0-2 .5-2 1 0 .6-1.3 1.5-3 2-1.6 .6-3.6 1.5-4.2 2-.7 .6-3.7 2.6-6.5 4.5-2.9 1.9-5.7 3.5-6.3 3.5-.5 0-1.6 .8-2.2 1.8-.7 .9-2.6 2.4-4.3 3.1-1.6 .8-4.5 2.5-6.2 3.8-1.8 1.3-3.1 2.8-2.8 3.3 .3 .6-.1 .8-.7 .5-.7-.3-3.3 1.3-5.8 3.5-2.5 2.2-4.8 4-5.2 4-.5 0-1.5 .6-2.4 1.3-.9 .6-3.9 3.4-6.8 6-2.8 2.6-5.7 4.8-6.3 4.7-.7 0-2.8 1.5-4.6 3.3-1.8 1.7-4.3 3.9-5.5 4.7-1.2 .8-2 2.1-1.7 2.8 .4 .8-.1 1-1.7 .5-1.7-.5-2.1-.4-1.5 .5 .4 .8 0 1.2-1.3 1.2-1.1 0-2 .5-2 1 0 .6-2 3-4.5 5.5-2.5 2.5-4.9 4.5-5.5 4.5-.5 0-1 .5-1 1 0 .6-.9 1.9-2 3-1.1 1.1-2.2 2-2.5 2-.3 0-2.5 1.9-5 4.3-2.4 2.3-5 5.8-5.6 7.7-.7 1.9-1.7 3.8-2.3 4.2-.8 .5-.7 .8 .2 .8 .6 0-.5 1.7-2.7 3.8-2.1 2-4.5 5.1-5.3 6.7-.8 1.7-2 2.9-2.6 2.8-.7-.2-2.9 1.8-4.9 4.3-2.1 2.5-3.6 5.1-3.4 5.7 .2 .8-.2 .9-1.3 .5-1.2-.6-1.6-.3-1.6 1.2 0 1.1-.8 2.1-1.7 2.3-1.2 .2-2.1 1.7-2.6 4.3-.5 2.1-1.7 5-2.7 6.4-.9 1.4-1.6 3.1-1.4 3.8 .2 .6-.3 2.3-1.1 3.7-.8 1.4-1.2 2.5-.7 2.5 .4 0 .6 2.1 .5 4.8-.1 2.6-.7 5.3-1.3 6-.6 .8-.7 1.4 0 1.7 .6 .3 .9 1.3 .8 2.3-.1 .9 .1 2.4 .6 3.2 .5 .9 .4 1.9-.3 2.5-.6 .6-1.1 1.3-1.1 1.8 0 .4 .6 .7 1.3 .7 .9 0 1.1 1.9 .9 7.2-.3 6.2-.1 7.5 1.5 8.6 1 .7 1.2 1.2 .6 1.2-.9 0-1 .6-.4 1.8 .4 .9 1.6 2.5 2.5 3.5 .9 .9 1.7 2.7 1.9 4 .1 1.2 1 2.9 1.9 3.7 .9 .8 1.7 2.2 1.8 3 0 .8 .8 3.1 1.8 5 .9 1.9 2.1 3.5 2.6 3.5 .5 0 1.5 2.1 2.2 4.8 .8 2.7 2.2 5.1 3.4 5.7 1.1 .6 2 1.6 2 2.3 0 .6 1.1 2.6 2.5 4.2 1.4 1.7 3.5 4.8 4.6 7 1.1 2.2 2.6 5 3.2 6.1 .7 1.2 2 3 2.9 4 1 1.1 1.8 3.4 1.8 5.2 0 1.7 .5 3.4 1 3.7 .6 .3 1 1.3 1 2.3-.1 .9 .8 2.9 2 4.5 1.1 1.5 1.7 3.3 1.4 4-.3 .6-2.1 2.4-4 4-2.9 2.3-3.7 2.5-5.6 1.6-1.9-1-2.5-.8-3.6 .7l-1.2 1.9-.1-2.5c0-1.4-.2-1.9-.5-1.2-.2 .6-1.2 1.2-2.1 1.2-1 0-2.5-.6-3.3-1.3-.8-.8-3.4-2-5.7-2.8-2.3-.8-4-1.7-3.7-2.1 .2-.5-1.2-1-3.1-1.3-1.9-.3-3.5-.9-3.5-1.5 0-.5-.7-1-1.5-1-.8 0-1.5-.4-1.5-1 0-.5-.8-1-1.7-1-1 0-3.8-1-6.3-2.2-2.5-1.1-5.4-3-6.5-4-1.1-1-2.4-1.7-3-1.4-.5 .2-1.9-.2-3-1-1.1-.8-2.8-1.4-3.7-1.4-1.3 0-1.6-.5-1-1.7 .6-1.5 .4-1.6-1.3-.6-1.5 .8-2.6 .7-4.5-.3-1.4-.8-4-1.4-5.7-1.4-1.8 0-4.1-.3-5-.6-1.6-.6-1.6-.8-.3-1.5 1.2-.7 1-.9-.7-.9-1.3 0-3.2-.9-4.3-2-1.1-1.1-2.6-2-3.2-2-.7 .1-2.4-1.3-3.8-2.9-1.4-1.6-3.7-3.4-5.2-4-1.6-.6-3.5-.9-4.3-.6-.9 .3-1.5-.1-1.5-1.2 0-1.3-.3-1.4-.8-.6-.5 .9-1.7 .5-4.2-1.7-1.9-1.6-4.2-2.9-5-2.9-.8 0-2.2-.7-3-1.6-.8-.9-2.3-1.6-3.2-1.5-1.1 0-1.6-.5-1.3-1.2 .3-.8-1.1-2.2-3.5-3.5-2.2-1.3-4.4-2.3-5-2.3-.5 0-2-.9-3.2-2-1.3-1.2-3.2-2.3-4.3-2.6-1.1-.3-2.8-1.8-3.7-3.4-1.1-1.7-2.6-3-3.8-3-1.1 0-3.4-1.2-5.1-2.7-1.8-1.6-4.1-3.8-5.3-5.1-1.2-1.2-2.4-2.2-2.8-2.2-.5 0-1.6-.7-2.5-1.6-1-.8-2.4-1.3-3-1-.7 .3-3.1-1.1-5.4-3.1-2.2-2.1-8.1-7.7-13-12.5-4.9-4.9-9.6-8.8-10.4-8.8-.8 0-2.1-.6-2.9-1.2-.8-.7-2.2-2-3.2-2.8-1.1-.8-5.4-3.6-9.6-6.3-4.3-2.6-7.8-5-7.8-5.4 0-.5-1.3-1.6-3-2.5-1.6-1-2.9-2.4-2.7-3 .2-.7-1.7-2.9-4.2-4.8-2.5-1.9-5.6-4.6-6.9-6-1.3-1.4-3.4-3.7-4.7-5.2-1.4-1.6-3.2-2.8-4-2.8-.8 0-3-1.5-4.7-3.2-1.8-1.8-3.2-3.9-3-4.5 .1-.7-1-1.7-2.5-2.2-1.6-.5-5-3.2-7.8-6-2.7-2.7-5.4-5.5-6-6-.5-.6-2.3-2.2-4-3.6-1.6-1.4-3.3-2.6-3.7-2.5-.5 0-.8-.6-.8-1.2 .1-.7-2.6-3.9-6-7-3.3-3.2-5.4-5.8-4.7-5.9l1.2-.1-1.2-.4c-.7-.2-1.1-.8-.8-1.4 .3-.5-.1-1-.7-1-.7 0-2.5-1.2-4-2.7-1.5-1.6-2.7-3.2-2.7-3.8 0-.5-2.8-3.8-6.3-7.3-3.5-3.4-6.6-6.2-7-6.2-.5 0-.8-.3-.8-.7 0-.5-1.8-2.8-4-5.3-2.2-2.5-4.7-6-5.5-7.7-.8-1.8-2.4-3.7-3.5-4.3-1.1-.5-2.4-2.2-3-3.7-.5-1.6-2.1-3.5-3.5-4.3-2-1.2-2.2-1.8-1.2-2.8 .9-1 .9-1.3 0-1.2-.7 0-3.1-1.7-5.3-3.7-2.2-2.1-4-4.5-4-5.3 0-.8-1.6-2.6-3.6-4-1.9-1.4-3.7-3.5-4-4.7-.2-1.3-.8-2.3-1.4-2.3-.5 0-1.9-.8-3-1.7-1.1-1-2-2.5-2-3.3-.1-.8-.9-2.4-1.8-3.5-1-1.1-2.7-2.5-3.7-3.1-1.1-.6-2.1-1.7-2.1-2.5-.1-.8-.2-2.3-.2-3.4-.1-1.1-1.9-3.9-4.2-6.2-2.3-2.5-3.8-4.9-3.5-5.8 .3-.8-.2-2.1-1-2.7-.9-.7-1.6-1.9-1.5-2.5 0-.7-1-2-2.2-2.8-1.6-1-1.8-1.5-.8-1.5 1 0 1.1-.3 .3-.8-.6-.4-1.4-1.8-1.7-3.2-.4-1.4-2.2-4-4.1-5.7-1.9-1.8-3.5-4.2-3.5-5.3 0-1.1-.7-2-1.5-2-.8 0-1.3-.4-1-1 .3-.5-.2-1.6-1-2.2-.9-.7-1.6-1.9-1.5-2.5 0-.7-1.2-2.5-2.6-4-1.4-1.6-3.6-5-4.8-7.8-1.3-2.7-2.8-6.2-3.5-7.7-.6-1.6-1.5-2.8-2.1-2.8-.5 0-1.4-1.6-2-3.5-.5-1.9-1.6-3.5-2.2-3.5-.7 0-1.9-1.2-2.6-2.8-.7-1.5-1.2-3.5-1.2-4.4 0-1-1-2.8-2.3-4-1.3-1.3-2.6-3.9-3-5.8-.4-1.9-1.8-5.6-3.2-8.2-1.4-2.7-2.5-5.6-2.5-6.5 0-1-1.1-3.1-2.5-4.8-1.4-1.6-2.5-3.8-2.5-4.7 0-1-.4-1.8-1-1.8-.5 0-1.5-1.5-2.1-3.2-.6-1.8-2-4.4-3.2-5.8-1.2-1.4-2.8-4.6-3.6-7-.7-2.5-1.8-5.6-2.4-7-.6-1.4-.9-3.2-.8-4 .1-.8-.5-2.2-1.4-3-.9-.9-1.6-3-1.5-5.2 0-2.5-.7-4.5-2-5.8-1.1-1.1-2.3-3.2-2.7-4.6-.5-1.5-1.1-2.8-1.5-3-.5-.2-.6-.8-.3-1.4 .3-.5-.2-2.2-1-3.7-1.3-2.4-1.5-2.5-1.5-.8-.1 1.4-.5 .9-1.6-1.5-.8-1.9-1.7-4.6-1.8-6-.2-1.4-1.3-4.4-2.5-6.7-1.1-2.4-1.9-4.7-1.6-5.3 .3-.5-.2-1.8-1-2.7-.9-1-1.7-3.6-1.8-5.8-.2-2.2-1.2-5.8-2.3-8-1.1-2.2-2.8-7.4-3.8-11.5-1-4.1-2.5-8.5-3.2-9.7-.8-1.3-1.4-3.3-1.4-4.5 0-1.3-.5-2.9-1.2-3.6-.7-.7-1.4-2.5-1.5-4-.1-1.5-.5-4-.9-5.7-.4-1.6-1.3-3.6-2.1-4.2-.7-.7-1.3-2.9-1.3-4.8 0-1.9-.4-4.5-.9-5.7-.5-1.3-1.3-3.2-1.7-4.3-.4-1.1-.7-3.3-.7-5 0-1.6-.6-3.6-1.3-4.2-.8-.7-1.2-2.2-.9-3.3 .3-1.1 .1-2-.5-2-.6 0-.7-1.3-.4-3.2 .5-2.6 .2-3.8-1.5-5.5-1.1-1.3-1.7-2.5-1.1-2.8 .6-.3 .7-1.5 .4-2.7-.4-1.3-.6-5.2-.5-8.8 .1-3.6-.1-6.2-.6-5.8-.4 .5-1.4-.4-2.1-2-.7-1.5-1.2-4-1.2-5.7 0-1.6-.4-3.4-1-4-.6-.5-1.1-3.5-1.2-6.5 0-3-.5-5.9-.9-6.5-.5-.5-1.1-2.6-1.4-4.5-.3-1.9-.8-6.9-1.2-11-.3-4.1-.9-7.9-1.3-8.5-.4-.5-1-2.7-1.4-4.7-.4-2.4-.2-3.6 .4-3.3 .6 .3 1-.2 1-1 0-.8-.3-1.3-.7-1.1-.5 .2-.8-2.6-.8-6.4 0-4.1-.4-6.6-1-6.3-.5 .2-1.6-1.1-2.3-2.9-.6-1.8-1.1-4.9-1-6.8 .1-1.9 .6-4.1 1.2-4.9 .7-.8 .8-3.2 .3-6.5-.4-2.8-1.3-5.7-2-6.4-.9-1.1-.9-1.5 .3-2.2 .8-.4 1.2-1.3 .8-1.9l-.8-1.1 .8-.4c0.4-.2 .7-3.3 .6-6.8 0-3.4-.4-6.9-.7-7.5-.4-.7-.2-1.5 .3-1.8 .6-.3 .7-1 .1-1.7-.6-.8-.6-2.7-.1-4.8 .5-1.9 .5-3.9 .2-4.3-.4-.5-.8-3.7-.9-7 0-3.4-.1-7.8 0-9.7 0-1.9 0-5.1-.1-7 0-1.9 .4-4.1 .9-4.7 .6-.8 .5-2.7-.2-5-.6-2.1-.8-4.5-.5-5.3 .3-.8 0-2.1-.6-2.8-1.1-1.1-1-1.5 .2-2.2 .9-.5 1.2-1.4 .8-2.4-.5-.9-.4-1.6 .2-1.6 .6 0 .8-1 .6-2.2-.3-1.3-.1-4.4 .5-7 .5-2.9 .5-5.5 0-6.5-.6-1.2-.5-2.6 .3-4 .9-1.7 .8-2.5-.4-3.8-1.3-1.5-1.3-1.6 .3-1.1 .9 .3 1.7 .2 1.7-.4 0-.5-.6-1.2-1.2-1.5l-1.3-.5 1.3-.5c0.6-.3 .9-1.1 .5-1.7-.4-.7-.8-2.6-.9-4.3-.1-1.6 .3-3.8 1-4.7 .8-1.4 .8-2.3-.1-3.8-.8-1.2-.9-2-.3-2 .6 0 .9-.6 .9-1.2-.1-.7 .2-2.8 .7-4.7 .5-1.8 1.2-3.5 1.7-3.7 .4-.2 .5-.8 .2-1.4-.3-.5-.7-3.6-.9-6.7-.2-4.1 .1-6.5 1.3-8.3 1-1.5 1.7-4.9 1.8-9.5 .1-3.8 .4-8.3 .8-10 .4-1.6 .9-5 1.2-7.5 .3-2.5 .9-4.9 1.4-5.5 .4-.6 .4-1.8-.1-2.7-.6-1-.8-1.8-.5-1.8 .3 0 0-1-.7-2.2-1-2-1-2.2 .5-1.5 1.1 .4 1.7 .3 1.7-.5 0-.7 1.1-4.1 2.5-7.5 1.7-4.2 2.3-7.2 1.9-9-.5-2.1-.1-3.4 1.5-5 1.1-1.3 1.9-2.7 1.6-3.3-.3-.5 .1-1.7 .8-2.7 .6-.9 1.2-4.2 1.2-7.5 0-3.2-.4-5.8-1-5.8-.5 .1-.4-.5 .3-1.2 .8-.9 1.1-4.2 .8-11.3-.2-6.3 .1-10.7 .8-12 .6-1.1 1.7-2.4 2.4-3 .7-.5 1.5-2.8 1.8-5 .3-2.2 1.1-5.1 1.9-6.5 .8-1.4 1.7-4.3 2-6.5 .5-2.8 .9-3.6 1.4-2.5 .7 1.2 1 1.3 1.7 .1 .6-.9 .4-1.6-.6-2.1-1-.5-1.2-1.2-.5-2.1 .5-.8 1-3.4 1.2-5.9 .1-2.5 .9-5.2 1.7-6 .9-.8 1.6-2.5 1.6-3.7 0-1.6 .5-2.2 1.8-2 1.2 .1 1.7-.5 1.7-1.9 0-1.2 .2-2 .5-1.9 .3 .2 1.1-2.5 1.8-6.1 .6-3.5 1.9-7.1 2.7-7.9 .8-.8 1.3-1.9 1-2.5-.3-.5 0-1.7 .5-2.5 .6-.8 .8-2.4 .5-3.5-.3-1.4 .3-2.5 2-3.5 1.4-.8 2.5-2.2 2.5-3 0-.8-.6-1.5-1.2-1.5-.7 .1 0-1.2 1.5-2.7 1.9-1.9 2.8-3.8 2.7-6 0-1.8 .3-3.5 .8-3.7 .4-.2 1.1-2.6 1.6-5.2 .5-2.7 1.9-6.9 3.2-9.4 1.4-2.5 2.4-4.9 2.4-5.5 0-.5 .7-2.8 1.7-5 1-2.2 1.8-4.4 1.8-5 .1-.5 1.1-2.7 2.3-4.7 1.2-2.1 2.7-3.8 3.2-3.8 .6 0 1.2-.9 1.5-2 .3-1.1 0-2.1-.6-2.2-.6-.2 .1-1.5 1.5-3 1.4-1.6 2.7-3.4 2.9-4 .1-.7 .5-1.5 1-1.8 .4-.3 1-2.5 1.4-5 .4-2.8 1.8-6.2 3.9-9 1.9-2.5 3-4.9 2.6-5.3-.4-.4-.1-1.1 .6-1.5 .7-.4 1.6-2.9 1.8-5.7 .3-2.9 1.2-5.4 2-6 .9-.5 1.4-1.6 1.2-2.4-.2-.8 .9-2.1 2.5-2.8 2-1 2.7-2 2.7-4.3 0-2.3 .5-3.1 2.3-3.6 1.2-.3 1.9-.8 1.5-1.2-.4-.4-.1-1.6 .7-2.7 .9-1.1 1.5-2.8 1.5-3.7 0-1 .5-1.8 1-1.8 .6 0 1-1.3 1-3 0-1.6 .7-3.7 1.5-4.5 .8-.8 1.5-1.9 1.5-2.5 0-.5 .9-1.2 2-1.5 1.1-.3 2-.9 2-1.5 0-.5 1-2.4 2.3-4.2 1.2-1.7 3.2-4.2 4.5-5.5 1.2-1.2 2.4-3.6 2.7-5.3 .3-1.6 1-2.8 1.5-2.5 .6 .3 1-.2 1-1 0-.8 .3-1.3 .8-1 .4 .2 1.6-.4 2.7-1.5 1.1-1.1 1.7-2.2 1.3-2.5-.5-.3 .3-2.2 1.6-4.2 1.3-2.1 2.8-5.5 3.2-7.6 .5-2 1.5-4 2.2-4.2 .7-.3 1-1.5 .7-2.7l-.5-2.3 .5 1.3c0.3 .6 1.2 1.2 2 1.2 .8 0 1.4-.4 1.3-.9-.2-.5 .6-1.7 1.8-2.7 1.1-1.1 2.7-3.4 3.5-5.2 .8-1.7 1.7-3.2 2.2-3.2 .4 0 1-1 1.3-2.2 .3-1.3 .6-2.6 .5-3l-.1-.8 1.6 .8c1.2 .5 1.5 .3 1-1-.3-1-.1-1.8 .4-1.8 .6 0 .8-.4 .5-1-.3-.5 1.5-3 4-5.5 2.5-2.5 4.2-4.7 3.8-5-.5-.3 .1-1.4 1.2-2.5 1.1-1.1 2.6-2.1 3.3-2 .6 0 1.4-1.2 1.7-2.7 .3-1.6 3-5.4 6-8.5 3-3.2 5.3-6.2 5-6.8-.3-.5 .7-1.8 2.1-2.7 1.4-1 2.7-2.7 3-3.8 .3-1.1 .8-1.7 1.2-1.3 .4 .4 1.5-.4 2.5-1.7 .9-1.4 1.7-2.8 1.7-3.2 0-.5 2-2.9 4.5-5.5 2.5-2.7 4.5-4.5 4.5-4 0 .4 1.1-.9 2.4-2.8 1.3-1.9 3.9-6.4 5.7-9.9 2.2-4.2 4.1-6.5 5.4-6.7 1.1-.2 2.5-1 3-1.8 .6-.8 1.5-1.5 2-1.6 .6 0 2.6-2.6 4.5-5.7 1.9-3.2 4.7-7 6.2-8.5 1.6-1.6 3.9-3 5.3-3.3 1.4-.3 2.5-1.2 2.5-2 0-.8 1.4-2.1 3-2.7 1.7-.7 3-1.6 3-2 0-.5 2.3-2.9 5.1-5.5 2.9-2.7 5.6-4.7 6-4.5 .5 .1 1-.4 1-1l0.1-1.3-.1-.7c0-.5 .4-.8 .9-.8 .6 0 2-1 3.3-2.2 1.3-1.3 4-3.6 6.2-5.3 2.1-1.6 6.1-5.1 8.9-7.7 2.8-2.6 6.9-6.6 9.1-8.8 2.2-2.2 4.6-4 5.3-4 .6 0 3.6-2.1 6.5-4.6 2.8-2.5 6.7-5.2 8.5-6 2.4-1.1 3-1.8 2.5-3.1-.6-1.2-.4-1.5 .7-1.2 .9 .3 3-.9 5-2.8 1.9-1.8 4.1-3.3 4.8-3.3 .6 0 1.8-.9 2.5-2 .6-1.1 1.5-1.8 2-1.5 .4 .3 1.4-.2 2.2-1 .8-.8 1.2-1.7 .8-2-.5-.3-.1-.5 .7-.5 .8 .1 2.2-.7 3-1.6 .8-.9 3-2.2 4.8-3 1.7-.8 4.7-3 6.5-4.9 2.1-2.2 4.1-3.4 6-3.5 1.5 0 2.7-.3 2.7-.7 0-.5 1.6-1.9 3.5-3.3 2-1.4 3.6-2.9 3.5-3.5 0-.5 1.2-1.6 2.7-2.4 1.5-.8 3.4-1.4 4.1-1.3 .6 .1 1-.4 .9-1-.2-.7 .8-2.1 2.2-3 1.4-1 3.2-1.8 3.9-1.8 .6 0 1.8-.6 2.6-1.2 .7-.7 2.4-2 3.6-2.8 1.3-.8 3-2.3 3.9-3.2 .9-.9 2.7-2.1 4.1-2.7 1.4-.6 3.9-2 5.5-3.1 1.7-1.1 4-2.4 5.3-3 1.2-.5 2.4-1.3 2.6-1.7 .2-.5 1.6-1.2 3.2-1.6 1.6-.5 3.6-1.8 4.4-2.9 1.1-1.4 2.2-1.8 3.8-1.4 1.6 .4 2.2 .2 2.2-.9 0-.8 .3-1.3 .8-1 .4 .2 1.7-.2 3-1 1.2-.9 2-2.1 1.7-3-.4-1.2 .1-1.4 2.5-1 2 .3 3.3 0 4-1 .6-.8 1.5-1.3 2-1 .6 .3 1.5-.4 2-1.5 .6-1.1 2.4-2.3 4.3-2.6 1.7-.4 4.6-1.4 6.2-2.2 1.7-.9 3.3-1.6 3.7-1.7 .3 0 1.8-1 3.2-2.2 1.4-1.3 3.5-2.3 4.6-2.3 1.1 0 2-.3 2-.7 0-.5 1.1-1.4 2.5-2 1.4-.7 3.4-1.3 4.5-1.3 1.1 0 3-1 4.3-2.2 1.2-1.3 3.7-2.4 5.7-2.6 1.9-.1 3.6-.7 3.8-1.2 .1-.6 .9-1 1.7-1 .8 0 1.5-.3 1.5-.7 0-.5 1.5-.8 3.3-.7 1.7 0 3.7-.2 4.2-.4 .6-.3 .1-.9-1-1.3l-2-.8 2 0c1.1-.1 3.5-1 5.3-2.1 1.7-1.1 3.9-1.8 4.7-1.5 .8 .3 1.5 .1 1.5-.5 0-.5 .8-.9 1.7-.7 1 .1 1.8-.5 1.8-1.3 0-.9 1.2-1.6 3-1.8 1.7-.2 3.5-.9 4-1.6 .6-.7 2.1-1.5 3.5-1.9 1.4-.3 4.3-1.1 6.5-1.7 2.2-.7 5.5-1.4 7.3-1.6 1.7-.2 3.2-1 3.2-1.6 0-.8 1.5-1.4 3.8-1.5 2.1 0 4.1-.8 4.7-1.7 .6-.8 1.7-1.5 2.5-1.5 .8 0 1.9-.4 2.3-.8 .5-.5 1.6-.9 2.5-1 1-.2 2.7-.4 3.9-.5 1.1-.2 2.5-.6 3-1.1 .4-.4 1.8-.7 3.1-.7 1.2 0 2.2-.4 2.2-1 0-.5 .7-1 1.5-1 .8 0 3.5-1.1 6-2.5 2.5-1.4 5.4-2.3 6.5-2 1.2 .3 2.9-.3 4.3-1.5 1.6-1.4 2.9-1.8 4.5-1.2 1.6 .5 2.5 .2 3.5-1.2 .8-1.2 1.8-1.7 3-1.3 .9 .4 1.7 .4 1.7 0 0-.5 1.5-1.5 3.2-2.3 1.8-.8 5.3-1.5 7.8-1.5 2.5 0 5.5-.6 6.8-1.3 1.2-.6 3.7-1.3 5.5-1.4 1.7-.1 3.8-.5 4.5-1 .6-.4 1.9-.3 2.7 .2 1.1 .7 2.5 .4 5-1 1.9-1.1 4.4-2 5.5-2 1.1 0 2.2-.4 2.5-1 .3-.6 2.9-.7 7-.2 5 .5 6.5 .4 6.5-.5 0-.7 .3-1.3 .8-1.3ZM867 278.9c0.8 0 1.2 .4 .8 .8l-.8 .8-.7-.8c-.5-.4-.1-.8 .7-.8ZM942 448.9c0.8 0 1.2 .4 .8 .8l-.8 .8-.7-.8c-.5-.4-.1-.8 .7-.8ZM1825.7 599.3c-.4-.5-.8-.1-.8 .7 0 .8 .4 1.2 .8 .8l0.8-.8-.8-.7ZM1830 607c-.5 0-1 .5-1 1 0 .6 .5 1 1 1 .6 0 1-.4 1-1 0-.5-.4-1-1-1ZM1873.7 684.3c-.4-.5-.8-.1-.8 .7 0 .8 .4 1.2 .8 .8l0.8-.8-.8-.7ZM425 687c0.6 0 1 .2 1 .5 0 .3-.4 .7-1 1-.5 .3-1 .1-1-.5 0-.5 .5-1 1-1ZM731 724.9c-.8 0-1.2 .4-.7 .8l0.7 .8 .8-.8c0.4-.4 0-.8-.8-.8ZM811.5 773c-.3 0-.8 .6-1.2 1.2-.5 .9-.4 1 .5 .5 .6-.4 1.2-.9 1.2-1.2 0-.3-.2-.5-.5-.5ZM1482.5 779c0.4 .3 .4 1.2 .2 2-.4 1-.6 .9-.6-.5-.1-1.1 .1-1.8 .4-1.5ZM1910.7 783.3c-.4-.5-.8-.1-.8 .7 0 .8 .4 1.2 .8 .8l0.8-.8-.8-.7ZM346.7 1006.3l0.8 .7-.8 .8c-.4 .4-.8 0-.8-.8 0-.8 .4-1.2 .8-.7ZM1353.5 1076c0.4 .3 .4 1.2 .2 2-.4 1-.6 .9-.6-.5-.1-1.1 .1-1.8 .4-1.5ZM1950.7 1082.3c-.4-.5-.8-.1-.8 .7 0 .8 .4 1.2 .8 .8l0.8-.8-.8-.7ZM1353 1093c-.5 0-1 .5-1 1 0 .6 .5 1 1 1 .6 0 1-.4 1-1 0-.5-.4-1-1-1ZM362.7 1182.3c-.4-.5-.8-.1-.8 .7 0 .8 .4 1.2 .8 .8l0.8-.8-.8-.7ZM937.7 1194.3c-.4-.5-.8-.1-.8 .7 0 .8 .4 1.2 .8 .8l0.8-.8-.8-.7ZM940.7 1228.5c-.3-.5-.5 .1-.5 1.5 0 1.4 .2 1.8 .5 1l0.5-1.5-.5-1ZM944.7 1228.3l0.8 .7-.8 .8c-.4 .4-.8 0-.8-.8 0-.8 .4-1.2 .8-.7ZM1026 1267.9c-.8 0-1.2 .4-.7 .8l0.7 .8 .8-.8c0.4-.4 0-.8-.8-.8ZM1085.5 1286c-.3-.3-.5 .4-.4 1.5 0 1.4 .2 1.5 .6 .5 .2-.8 .2-1.7-.2-2ZM1661.3 1360c-1.5 0-1.6 .2-.3 1 .8 .5 1.8 1 2.3 1 .4 0 .5-.4 .2-1-.3-.5-1.3-1-2.2-1ZM1829 1461.9c0.8 0 1.2 .4 .8 .8l-.8 .8-.7-.8c-.5-.4-.1-.8 .7-.8ZM1679.7 1480.3l0.8 .7-.8 .8c-.4 .4-.8 0-.8-.8 0-.8 .4-1.2 .8-.7Z"/>
</svg>