<svg xmlns="http://www.w3.org/2000/svg" width="2750" height="1606">
<path d="M908.5 126c-3.9 0-7 .7-8.7 1.8-1.5 .9-3.2 2.7-3.8 4-.8 1.9-1.5 2.1-4 1.5-2.4-.6-3-.5-3 .7 0 .8-1.4 2.7-3.2 4.1-1.8 1.5-3.6 3.8-4 5.3-.5 1.4-1.7 3.6-2.8 4.9-1.5 1.6-2 1.8-2 .7 0-.8-.9 .5-2.1 3-1.1 2.5-1.9 4.6-1.9 4.8 0 .1 .5 0 1-.3 .6-.3 1 .5 1 1.8 0 1.2-.4 2.7-.9 3.2-.5 .6-.5 3.4-.1 6.5 .4 3 1.2 5.6 1.9 5.8 .6 .1 1.1 1.4 1.1 3-.1 1.5 .6 3.3 1.5 4 .9 .7 1.2 1.9 .9 3-.4 1 .2 2.8 1.5 4.5 1.1 1.5 2.1 3.2 2.1 3.7 0 .6 .5 1.1 1.2 1.3 .6 .1 1.2 2.3 1.3 5.2 .1 2.8 .5 5.8 .9 6.8 .3 .9 .2 1.9-.4 2.2-.5 .3-1 1.4-1 2.5 0 1.1 .7 2 1.5 2 .8 0 1.5 .5 1.5 1 0 .6-.7 1-1.5 1-.8 0-1.5 .9-1.5 2 0 1.1-.4 2-1 2-.5 0-1.2 1.5-1.4 3.3-.2 1.7-.1 3.7 .2 4.2 .4 .6 .5 2.2 .4 3.8-.1 1.7 .4 2.9 1.3 3.2 .9 .3 1.3 1.3 1 2.5-.3 1.1 0 2.2 .5 2.5 .6 .3 1 1.2 1 2 0 .8 1.1 2.5 2.5 3.8 1.3 1.2 2.5 3.1 2.5 4.2 0 1.1 1.6 3.7 3.5 5.8 1.9 2 3.5 3.4 3.5 3 0-.5 .5-.3 1.2 .4 1 1 1.1 1.5 .1 2.8-1.1 1.2-1 1.6 .7 2 1.2 .3 2.4 1.9 3.1 4.3 .7 2 1.5 4.2 2 4.7 .5 .6 .8 3.1 .6 5.7-.1 2.7-.5 4.8-.9 4.8-.5 0-.8 .7-.8 1.5 0 1-1.3 1.7-3.5 2-1.9 .3-3.5 1-3.5 1.5 0 .6-.9 1-2 1-1.1 0-1.8 .5-1.5 1 .3 .6-.7 1.9-2.2 3l-2.8 2-1.7-2c-1-1.1-2-2-2.3-2-.3 0-1.3 1-2.2 2.1-1.5 1.8-2.2 2-4 1-1.3-.6-3-.9-3.8-.6-.9 .3-1.7-.2-2-1.2-.3-1.2-1.5-1.8-3.5-1.8-1.6 0-3 .3-3 .8 0 .4-1.8 .3-4-.3-2.2-.5-4-1.4-4-2 0-.5-1.8-1.7-4-2.5-2.2-.8-4-1.9-4-2.5 0-.5-1.2-2.3-2.7-3.9-1.6-1.6-3.8-3-5.1-3.2-1.3-.2-3.1-1.7-4-3.4-.9-1.6-1.9-3.2-2-3.5-.2-.3-1.8-.6-3.5-.6-1.8-.1-4.2-.6-5.5-1-1.3-.5-2.1-1.4-1.7-2.1 .4-1-.4-1.2-2.7-.7-1.8 .3-6.5 .6-10.5 .7-3.9 .1-6.6-.1-6-.5 .9-.6 .9-.8 0-.8-.7 0-2.5 .6-4 1.4-1.6 .8-4.6 2.2-6.8 3.1-2.2 .9-5.7 2.5-7.7 3.6-2.1 1-4.4 1.6-5 1.2l-1.3-.7 1.3 1.7c1.1 1.5 .8 1.8-2.5 2.2-2.1 .3-5.5 1.7-7.5 3.3-2.1 1.5-4 3.5-4.3 4.5-.3 .9-1.4 1.7-2.5 1.7-1.1 0-2.2 .7-2.5 1.5-.3 .8-.2 2 .3 2.7 .5 .8 .1 1-1.5 .5-1.3-.4-2.5-.2-2.8 .3-.3 .6-1.4 .8-2.5 .5-1.3-.3-2 0-2 1 0 .8-.4 1.3-1 1-.5-.3-1 .6-1 2 0 1.6-.5 2.3-1.2 2-.7-.2-2 .1-2.9 .8-.8 .7-2.1 2.1-2.7 3.2l-1.1 2 0-2 0-2-1.8 1.7c-1 1-2.4 1.8-3 1.8-.7 0-1.5 .9-1.8 2-.4 1.5-1.1 1.9-3 1.5-1.9-.4-2.9 .1-4.2 2-1 1.3-2.1 2.2-2.5 2-.5-.3-1.7 .3-2.8 1.3-1.2 1-1.8 2.4-1.5 3.5 .3 1.1 0 1.7-1 1.7-.8 0-1.5 .5-1.5 1 0 .6-.7 .8-1.5 .5-.9-.3-1.7 .3-2 1.5-.3 1.1-.9 2-1.5 2-.5 0-1 .6-1 1.3 0 .6-.9 2.3-1.9 3.7-1.4 1.8-1.7 3-1 4.3 .6 1.2 .4 2.1-.8 3.2-1 .8-2.1 1.5-2.5 1.5-.5 0-1.5 1.6-2.3 3.5-1 2.3-2 3.3-3 3-1-.3-1.5 .2-1.5 1.8 0 1.2-.4 2.8-.8 3.5-.4 .8-2.1 1.4-3.9 1.5-1.7 .1-2.9 .4-2.7 .7 .2 .3-.4 1-1.4 1.7-.9 .7-2.3 1.3-2.9 1.3-.7 0-1-.6-.6-1.2 .3-.7-.2-.6-1.3 .3-1.1 .9-3 1.5-4.4 1.2-1.4-.2-2.9-.8-3.5-1.4-.5-.5-1.7-.9-2.5-.8-1 0-.8 .3 .5 .9l2 .8-2 .7c-1.5 .6-2.6 .2-4.2-1.8-1.3-1.5-2.6-2.6-3-2.5-.5 .1-2-.4-3.5-1-1.6-.7-3-2.1-3.3-3.2-.3-1.1-1.2-2-2-2-.9 0-1.3-.6-1-1.5 .3-1-.1-1.4-1.2-1.2-1 .1-1.7-.4-1.5-1 .1-.7-.5-1.3-1.3-1.3-.8 0-1.3-.4-1-1l0.5-1-.5-1.5c-.3-.8-1.4-1.5-2.5-1.5-1.3 0-2-.7-2-2 0-1.1-1-2.6-2.2-3.2-1.3-.7-3.4-1.3-4.7-1.3-1.3 0-2.6-.7-2.9-1.5l-.5-1.5 1.7 1.5c0.9 .8 1.7 1.1 1.7 .5-.1-.5-1-1.7-2.2-2.5-1.2-.8-5-4.2-8.5-7.5-3.5-3.3-6.4-6.8-6.4-7.7 0-1.1-.7-1.8-1.7-1.7-1 .1-2.8-.2-4-.5-1.3-.3-2.3-1.3-2.3-2.1 0-.9-.9-1.5-2.5-1.5-1.4 0-2.7-.7-3-1.5-.3-.8-1.4-1.5-2.5-1.5-1.1 0-2-.6-2-1.2 0-.7-.2-1-.5-.5-.3 .4-1.2 0-2-.8-.8-.8-1.5-1.9-1.5-2.5 0-.5-1.3-1.4-3-2-2.3-.8-2.9-1.5-2.7-3.2 .1-1.6-.3-2.3-1.5-2.3-1 0-1.6-.5-1.3-1.2 .3-.7-.2-1.3-1-1.3-.8 0-1.5-.6-1.5-1.2-.1-.7-1.6-2.8-3.5-4.5-1.9-1.8-3.8-3.3-4.2-3.3-.5-.1-1.7-1.1-2.8-2.3-1.1-1.2-2.4-3-2.8-3.9-.4-1-1.1-1.8-1.7-1.8-.5 0-.7-.5-.2-1.2 .5-.8 .1-1-1.5-.5-1.5 .5-2.3 .3-2.3-.5 0-.7-1.6-3-3.5-5-1.9-2.1-3.5-4.2-3.5-4.8 0-.5-1.1-1.6-2.4-2.2-1.3-.7-5.7-3.1-9.8-5.2-6.2-3.3-8.4-3.9-14.5-4.2-5.4-.3-7.3-.1-7.3 .9 0 .6-1.3 1.5-3 2-2 .4-3.2 1.5-3.5 3-.3 1.2-2.1 3.9-4 6-1.9 2-3.5 4.2-3.5 4.7 0 .6-.4 .8-1 .5-.5-.3-1 .4-1 1.5 0 1.1-.8 2.8-1.7 3.8-1 1.1-2.6 3.3-3.5 5-1.1 2-1.4 3.4-.8 3.7 .6 .3 0 2.5-1.5 5.3-1.4 2.6-2.6 6.2-2.7 8-.2 1.7-.9 3.2-1.5 3.2-.7 0-1.5 .6-1.7 1.3-.3 .6 .2 2.2 1 3.5 1.2 1.9 1.2 2.4-.1 4-1.1 1.2-1.4 2.7-.9 5.2 .4 2.2 .2 3.8-.5 4.3-.8 .5-.8 1.7-.2 4 .5 1.7 1.3 4.3 1.7 5.7 .6 1.8 .5 2.3-.4 1.8-.7-.5-1.2-.6-1.2-.3 0 .3 .6 1.4 1.3 2.5 .9 1.6 .9 2.6 0 5.2-1 2.7-1 3.6 .2 4.8 .8 .8 1.5 2.4 1.5 3.5 0 1.1 .7 3 1.5 4.3 .8 1.2 1.3 2.7 1 3.2-.3 .6 .7 3.1 2.1 5.8 1.5 2.6 3 5.2 3.5 5.7 .4 .6 .6 1.6 .3 2.3-.2 .6 .3 1.2 1.1 1.2 .9 0 1.3 .6 1 1.5-.3 .8 .7 2.6 2.3 4 1.5 1.4 3 2.5 3.5 2.5 .4 0 .6 1.2 .5 2.8-.1 1.6 1.2 4.8 3.3 8 1.9 2.8 3.9 5.2 4.4 5.2 .6 0 2 1.3 3.3 3 1.2 1.6 2.2 3.5 2.2 4 0 .6 .7 1 1.5 1 .8 0 2 1 2.7 2.3l1.2 2.2-2-.8-1.9-.9 1.5 1.7c0.8 .9 2.1 1.6 2.8 1.5 .7 0 1.2 1.2 1.2 2.8 0 1.6 .3 2.2 .8 1.4 .5-1 1.4-.9 4 .3 1.7 .8 3.2 2 3.2 2.5 0 .6 .7 1 1.5 1 .8 0 1.5 .7 1.5 1.5 0 .8-.6 1.6-1.2 1.8l-1.3 .3 1.3 .7c0.6 .4 1.2 .3 1.2-.3 0-.5 .5-1 1-1 .6 0 1.1 .8 1.3 1.8 .1 .9 1.1 1.7 2.2 1.7 1.1 0 1.9 .5 1.8 1-.1 .6 1.6 2.1 3.8 3.5 2.9 1.8 3.8 3 3.4 4.3-.3 .9 0 1.7 .5 1.7 .6 0 2.5 1.2 4.3 2.6 1.9 1.6 3.9 2.3 5 2 1.4-.5 1.6-.1 1.2 1.9-.3 1.6-.1 2.5 .8 2.5 .6 0 2.2 1.1 3.5 2.5 1.2 1.4 2.2 3 2.2 3.5 0 .6 .6 .8 1.3 .6 .6-.3 2.6-.1 4.2 .4 1.7 .4 2.4 .9 1.8 .9-.7 .1-1.3 .6-1.3 1.1 0 .6 .7 1 1.5 1 .8 0 1.5-.4 1.5-1 0-.6 .6-.7 1.8-.1 .9 .5 4.6 2.1 8.2 3.5 3.6 1.4 7.1 2.6 7.8 2.6 .6 0 1.4 1 1.6 2.3 .3 1.6 .9 2 2 1.5 .9-.5 2.7-.2 4.1 .5 1.4 .6 2.5 1.5 2.5 2 0 .4 .3 .6 .8 .5 .4 0 1.5 .2 2.5 .5 .9 .4 1.7 1.4 1.7 2.2 0 .8 .5 1.5 1 1.5 .6 0 1 .7 1 1.5 0 .8 .8 1.5 1.8 1.5 .9 0 2.6 .6 3.7 1.5 1.1 .8 1.4 1.5 .8 1.5-.7 0-1.3 .5-1.3 1 0 .6 1.1 1.2 2.5 1.5 1.4 .3 2.5 1 2.5 1.5 0 .6 1.5 1.3 3.3 1.6 2.5 .4 2.9 .8 2 1.7-1 .9-.8 1.5 .6 2.7 1 .8 2 2.2 2.4 3 .3 .9 .6 .4 .6-1.2 .1-1.6 .6-2.8 1.1-2.8 .6 0 .9 .6 .9 1.3l-.1 1.2 .1 1.3c0 .6 1 1.2 2.1 1.2 1.1 0 2.2 .5 2.5 1 .3 .6 1 .8 1.5 .5 .6-.3 1.2 .2 1.5 1 .3 .8 1.2 1.5 2 1.5 .8 0 2.2 1 3 2.3 .8 1.2 1.5 1.6 1.5 1 0-1 1.4-1.2 5.3-.8 2.8 .3 6.2 .7 7.5 1 1.2 .3 2.2 1.2 2.2 2 0 .9 1.3 1.8 3.3 2.1 2.8 .6 2.9 .8 1.2 1.5l-2 .8 2.3 0c1.2 .1 2.4 .6 2.7 1.1 .3 .6 1.7 1 3.3 1 1.5-.1 3.6 .9 4.7 2 1.1 1.1 1.7 2.2 1.3 2.5-.5 .3-.2 1.1 .5 1.8 .6 .7 2 1.6 3 2 .9 .4 1.7 1.6 1.7 2.7 0 1.1-.4 2.2-1 2.5-.5 .3-.8 1.1-.6 1.8 .2 .6 0 1.9-.4 2.7-.5 .8-.5 2-.1 2.5 .4 .6 .8 2 .9 3.3 .1 1.4-.4 2.2-1.3 2.2-.8 0-1.5 .5-1.5 1 0 .6 .6 1.2 1.3 1.4 .6 .3 0 .5-1.5 .5-2.3 .1-2.7 .5-2.3 2.1 .3 1.1-.2 2.7-1 3.5-.8 .8-1.3 1.8-1 2.3 .3 .4 .1 1.2-.5 1.7-.5 .6-1.1 2.9-1.2 5.3-.2 2.3-.5 4.2-.8 4.2-.3 0-.5 1.7-.5 3.8 0 2.2-.7 4.7-1.5 5.6-.8 .9-1.9 1.5-2.5 1.2-.5-.3-1.4-.1-2 .4-.5 .5-2.3 1-4 1.2-1.6 .3-4 1.1-5.1 1.9-1.2 .8-3.8 1.3-5.8 1.2-2.6-.2-3.7-.8-4.1-2.3l-.5-2-2.2 1.5c-1.3 .8-2.9 1.5-3.5 1.5-.7 0-1.1-.4-.8-1 .3-.5-.2-1-1-1-.8 0-1.7-.6-1.9-1.2-.3-.9-.7-1-1.3-.2-.4 .6-2 1.4-3.5 1.7-1.6 .4-3.5 1.4-4.3 2.2-.8 .8-2.1 1.5-2.7 1.5-.7 0-2.4 .9-3.8 2-1.4 1.1-3.2 2.1-4 2.1-.8 .1-3.6 .1-6.2 0-2.9-.1-4.6 .3-4.3 .9 .3 .6-2 .8-6.5 .5-4.2-.3-7.2-.1-7.5 .5-.3 .6-1.1 .7-1.7 .4-1-.6-1-.4 0 .7 .7 .8 1.2 1.9 1.3 2.4 0 .6-.7 .4-1.6-.2-.8-.7-2.1-1-2.8-.5-.8 .4-2.8 2.3-4.4 4.2-1.7 1.9-4 5.4-5.2 7.8-1.2 2.5-1.7 4.4-1.1 4.7 .6 .3 0 1.8-1.2 3.4-1.3 1.7-3.1 3-4 3-1.4 .1-1.7 .7-1.2 2.4 .3 1.2 0 3.6-.7 5.2-.9 2.4-1.4 2.7-2 1.5-.6-1.1-.9-.8-.9 1.3 0 1.5 .6 2.9 1.3 3.1 .6 .3 .4 .5-.5 .5-1 .1-1.8 .4-1.8 .9 0 .4 .4 1.4 .9 2.2 .5 .8 1.4 1.2 2 .8 .7-.5 1 0 .8 1.5-.2 1.2-.7 2.9-1.1 3.7-.5 .8-.6 2.5-.2 3.8 .4 1.4 .2 2.2-.6 2.2l-1.3-.1 1.3 1.6 1.2 1.5-1.2 .5-1.3 .5 1.3 .5c0.6 .3 1.2 1 1.2 1.5 0 .6-.6 .7-1.2 .3-.9-.6-1-.3-.5 1 .4 .9 .7 2.6 .7 3.7 0 1.1 1.1 3 2.3 4.3 1.3 1.2 2.9 4.3 3.5 7 .7 2.6 1.9 5.4 2.7 6.2 .8 .8 1.5 2 1.5 2.5 0 .6-.4 .8-1 .5l-1-.5 1 3c0.7 2 1.7 3 3 3 1.4 0 2.6 1.3 3.9 4.3 1.1 2.3 2.7 4.5 3.5 5 1.2 .5 1.4 1.4 .9 3.5-.6 2.3-.4 2.6 1 2 1.1-.5 2.2-.2 3.2 1 .8 .9 1.5 2.3 1.5 3 0 .6 .6 1.2 1.3 1.2 .6-.1 1.9 .6 2.7 1.5 .8 .9 2.1 1.4 2.8 1.1 .6-.3 1.9 .1 2.7 .9 .8 .8 1.7 1.5 2 1.5 .3 0 1.7 .5 3.3 1.1 1.5 .6 2.9 1 3.2 1 .3 0 1.4 .6 2.5 1.3 1.1 .7 4.3 1.8 7 2.5 4.1 .9 5.4 .9 7-.3 1.6-1.1 2.9-1.2 6.5-.4 2.5 .6 5.7 .8 7.3 .4 1.5-.3 2.7-1.3 2.7-2.1 0-1.2 1.2-1.4 6-1.2 3.3 .1 6-.1 6-.5 0-.5 1.2-1.1 2.8-1.5 1.5-.3 2.9-1 3.2-1.4 .3-.4 4.8-1 10-1.2 7.9-.4 9.8-.2 11.2 1.2 1.4 1.3 2 1.3 3 .4 .7-.7 2.7-1.3 4.3-1.4 1.7-.2 3.6-.6 4.3-1.1 .6-.4 1.8-.5 2.5-.1 .6 .4 3.7 .6 6.7 .4 4-.1 5.8 .2 6.8 1.3 .7 .9 1.9 1.3 3 1 .9-.3 2.7-.1 4 .5 1.2 .6 2 1.7 1.8 2.4-.2 .8 .8 1.1 3.5 1 2.2-.2 3.9 .2 3.9 .7 0 .6 1 .7 2.3 .3 1.6-.5 2-.3 1.5 .5-.5 .8-.1 1.2 1.2 1.2 1.1 0 2.3 .7 2.8 1.6 .4 .9 2.3 1.7 4.7 1.9 2.2 .1 5.2 .5 6.8 .9 1.9 .4 2.7 1.2 2.7 2.9 0 1.2 .4 1.7 .8 1.2 .4-.6 2.2-1.2 4-1.3 1.9-.1 5 .8 7.7 2.3 2.5 1.4 4.8 2.3 5.3 2 .4-.3 0-.5-.8-.5-.8 0-1.1-.3-.7-.7 .5-.5 3.9-.8 7.5-.8 3.7 0 7.1 .5 7.5 1 .5 .6 .6 .3 .3-.7-.5-1.5 0-1.8 2.7-1.8l3.2 .1-2.3 1.2c-1.2 .7-1.9 1.5-1.5 2 .4 .4 2.4 .8 4.3 .8 1.9 0 4.2-.7 5-1.6 .8-.9 2.1-1.6 2.8-1.5 .6 0 1.2-.4 1.2-1 0-.5 1-1.3 2.3-1.6 1.2-.3 2.7-.1 3.2 .5 .6 .6 2 1.1 3.3 1.1 1.2 0 2.5-.5 3-1.1 .4-.7 1.9-.9 4-.5 1.9 .3 4.7 0 7-.8 2-.8 4.7-1.1 6-.8 1.6 .5 2.6 .2 3.2-.8 .8-1.3 1.5-1.2 5.2 .7 3 1.6 5.2 2.1 7.3 1.7 2-.4 3.6-.1 4.8 1 .9 .9 2.8 1.7 4.1 1.9 1.3 .1 2.8 .6 3.3 1 .4 .5 2.4 1.6 4.3 2.5 1.9 .8 4.6 1.7 6 1.8 1.4 .2 3.5 1.5 4.8 2.9 1.2 1.4 2.9 2.5 3.7 2.5 .8 0 1.5 .7 1.5 1.5 0 .9 .6 1.3 1.5 1 .8-.3 1.5 .1 1.5 .8 0 .8 .4 .7 1-.3 .8-1.2 1.4-1 4 1.8 1.9 2 3 2.6 3 1.7 0-.9 .7-1.4 1.8-1.2 .9 .1 1.5 .6 1.2 .9-.3 .4 .4 1.4 1.5 2.1 1.1 .7 3.1 1.4 4.5 1.5 1.4 .1 2.6 .6 2.8 1.2 .1 .5 .9 1 1.7 1 .8 0 1.5-.6 1.5-1.2 0-.8 .3-.9 .8-.3 .4 .6 1.8 1 3.2 .9 1.4-.1 3.7-.4 5.3-.8 1.5-.3 2.7-1.2 2.7-1.8 .1-.8 .8-.4 1.8 .8 1.4 1.6 2.3 1.9 4.7 1.3 1.7-.5 3.3-.6 3.8-.3 .4 .2 .7-.2 .7-.8 0-.7 1-1.4 2.2-1.6 1.3-.2 3.4-.4 4.8-.5 1.4-.1 2.8-.8 3.3-1.4 .4-.7 1.7-1.3 3-1.3 1.2 0 3.7-1.4 5.5-3 2.1-2 3.9-2.8 5.2-2.5 1.3 .3 2.3-.2 3-1.5 .6-1.1 1.6-2 2.3-2 .6 0 2.3-1.1 3.7-2.5 1.4-1.4 3.1-2.3 3.8-2 .7 .3 1.4-.5 1.7-2 .4-1.9 1.1-2.5 3-2.5 1.4 0 2.5-.4 2.5-1 0-.5-.4-1-1-1-.5 0-1-.4-1-1 0-.5 .7-.8 1.5-.5 .8 .3 1.5 .2 1.5-.2 0-.5 1-1.4 2.2-2.1 1.3-.7 3.3-2.7 4.6-4.5 1.8-2.5 2.2-4.4 2.1-8.7-.1-3 .3-6.6 .9-8 .6-1.4 1.1-1.9 1.1-1.2 .1 .6 .6 1.2 1.1 1.2 .6 0 .2-1.7-.7-3.7-1-2.1-2.4-4.2-3.2-4.8-.8-.6-1.1-1.7-.8-2.7 .5-1.2 0-2.1-1.3-2.8-1.1-.5-1.8-1.4-1.5-2 .3-.5-.1-.9-.7-.7-.7 .1-1.2-.6-1-1.5 .1-1-.2-1.8-.8-1.8-.5 0-.9-1.1-.7-2.4 .1-1.7-.2-2.2-1.3-1.7-1.1 .4-1.3 .2-.6-.9 .5-.8 .9-3 1-4.7 .1-2-.4-3.3-1.1-3.3-.7 0-1.3-.4-1.3-1 0-.5-.9-2.2-2-3.7-1.6-2.3-1.8-3.1-.8-4.2 1-1.1 1-1.5 .1-1.8-.7-.1-1.3-1-1.3-1.8 0-.8 .6-1.5 1.3-1.5 .9 0 .9-.2-.1-1.2-.7-.7-1.2-2-1.2-2.8 0-.8-1.6-3.3-3.7-5.6-2.1-2.2-5.1-5.7-6.8-7.7-2.7-3.3-3.2-3.5-4.5-2.2-.8 .8-1.9 1.5-2.5 1.5-.5 .1-.4-.5 .2-1.2 1-1 .7-1.6-2-2.8-1.7-.8-3.8-2-4.4-2.7-.7-.7-2.2-1.3-3.3-1.3-1.1 0-2.4-.9-3-2-.5-1.1-1.7-2-2.5-2-.8 0-1.7-.9-2-2-.3-1.1-1.8-2.4-3.5-3-1.6-.5-3.1-1.6-3.2-2.2 0-.7-.2-2-.2-2.8-.1-.9-1.1-1.5-2.4-1.5-1.4 0-2-.5-1.7-1.2 .3-.7 .1-1.3-.5-1.3-.5 0-1-1.9-1-4.2 0-3.9-.3-4.5-3.5-6.3-2-1.1-3-2.2-2.4-2.5 .6-.3 .8-1.5 .5-2.7-.3-1.3-.1-2.3 .4-2.3 .6 0 1-.4 1-1 0-.5-.5-.7-1.2-.2-.8 .5-1-.7-.7-4.6 .2-2.8 .1-5.2-.3-5.2-.5 0-.6-.7-.3-1.5 .3-.8 .1-1.5-.5-1.5-.5 0-.7-.8-.3-1.7 .3-1 1.1-2.1 1.7-2.5 .7-.5 .4-.8-.6-.8-1.4 0-1.6-.5-1.1-2.2 .6-1.9 .4-2.1-.7-1.3-1.2 .8-1.3 .5-.6-2 .5-2.3 .1-4.1-1.6-7.4-1.6-3.2-1.9-4.5-1-4.8 .6-.2 1.2-1 1.2-1.8 0-.8-.7-1.5-1.5-1.5-1.1 0-1.3-.6-.8-2.2 .4-1.3 .7-3.6 .6-5.3-.1-1.6-.7-3.3-1.5-3.7-.7-.4-.8-.8-.3-.8 .6 0 .4-.5-.3-1.2-.7-.7-1.2-2.4-1.2-3.8 0-1.4-.5-3-1.2-3.6-1-1-1-1.3 0-1.8 .6-.3 1.2-2.2 1.2-4.1 0-1.9-.4-3.5-1-3.5-.5 0-.8-.6-.6-1.2 .2-.7 1-1.2 1.7-1 1 .2 .9-.2-.3-1.5l-1.7-1.8 1.9-2.7c1.1-1.6 2.7-2.8 3.5-2.8 .8 0 1.5-.6 1.5-1.2 0-.7 1.3-2.5 2.8-4.1 1.5-1.5 3.3-2.7 4-2.7 .6 0 1-.7 .7-1.5-.3-1 .1-1.5 1.3-1.5 .9 .1 2.4-.6 3.2-1.5 .8-.9 2.2-1.5 3-1.5 1.2 .1 1.2-.2 .3-1.2-1-1-.7-1.8 1.7-3.8 1.6-1.4 2.9-3.1 3-3.7 0-.7 .5-1.1 1-.8 .6 .3 .8-.2 .5-1-.3-.8 0-1.5 .5-1.5 .6 0 1-1.5 1.1-3.2 0-1.8 .2-2.7 .5-2 .2 .6 .9 1.2 1.4 1.2 .6 0 .8-.9 .5-2-.4-1.5-.1-1.9 1-1.5 1 .3 1.6-.2 1.8-1.7 .1-1.3 .5-2.2 1-2 .4 .1 1.6-.7 2.7-1.8 1.1-1.1 1.7-2.6 1.4-3.2-.3-.7 1.1-2.5 3-4 2-1.6 3.4-3.2 3.1-3.8-.3-.5 0-1.2 .5-1.5 .6-.3 1 .1 1 .8 0 .6 1.2-.6 2.8-2.8 1.9-2.7 2.5-4.2 1.8-4.7-.7-.5-.6-.8 .4-.8 .8 0 2-1.4 2.5-3.2 .7-2.3 1.8-3.4 3.3-3.5 1.2-.2 2.3-.9 2.3-1.5 .1-.7 .2-1.7 .3-2.3 .1-.5 1.1-.9 2.4-.7 1.7 .1 2.3-.4 2.7-2.8 .3-2 1.3-3.3 3-4 1.4-.5 2.9-2 3.4-3.2l1-2.3 .1 2c0 1.6 .2 1.7 .9 .5 .6-.8 .8-1.8 .5-2.2-.2-.5 .6-1.8 1.9-3 1.6-1.6 2.3-3.4 2.2-6 0-3 .4-3.8 1.8-3.8 .9 0 2.3-.6 3-1.2 .8-.7 2.3-3.1 3.5-5.3 1.2-2.2 1.8-4.3 1.4-4.8-.4-.4 .3-1.4 1.6-2.2 1.2-.8 2.2-2.4 2.2-3.5 0-1.1 .5-2 1-2 .6 0 1.3-1 1.6-2.2 .3-1.3 .5-3.4 .4-4.8-.2-2 .1-2.3 1.4-1.7 1.1 .5 1.4 .3 1-.5-.4-.7 0-2.3 .7-3.5 1.1-1.8 1.7-2 2.8-1 1.2 1 1.4 .9 .8-.5-.4-1-.4-1.9 .1-2 .4-.2 1.8-2.5 3.2-5.3 1.3-2.7 2.3-5.4 2.2-6-.2-.5 .4-2.3 1.2-4 .8-1.8 1.2-4.8 1-7.5-.2-2.5-.6-6.3-.9-8.5-.2-2.2-.5-4.9-.5-6 0-1.1 0-4 0-6.5 0-3.3 .2-4.1 1-3 .8 1.2 1 1.1 1-.7 0-1.3-.7-2.5-1.5-2.8-.9-.3-1.3-1.2-.9-2.2 .3-1 .7-2.2 .8-2.8 .1-.5 .5-1.6 .9-2.2 .4-.7 .3-2.4-.3-3.8-.7-1.8-.7-2.6 .3-2.9 .9-.4 .9-.6 0-1.3-.7-.4-1.6-2.6-2-4.8-.3-2.2-1.1-4.3-1.7-4.7-.8-.5-.8-1.5 0-3.5l1-2.8-1-3.3c-.6-1.8-1.7-3.2-2.3-3.2-.7 0-1.5-1-1.7-2.2-.3-1.3-.4-3.5-.3-5 .1-1.5-.2-2.9-.8-3.1-.5-.2-1.3-1.4-1.7-2.5-.6-1.6-.4-2.2 .7-2.2 1.3 0 1.3-.4 .3-2.5-.7-1.4-1.6-2.5-2-2.5-.5 0-.6-.4-.3-1 .3-.5-.2-2.3-1-4-.8-1.6-1.3-3.9-1-5 .3-1.2-.1-2.2-1-2.5-.9-.3-1.3-1.3-1-2.5 .3-1.2 0-2-.7-2-.7 0-1.6-1.3-2-3-.5-1.9-2.3-4-4.8-5.7-2.1-1.6-3.9-3.6-4-4.5 0-1-.7-1.8-1.5-1.8-.8 0-1.7 .6-1.9 1.3-.2 .6-.6 1-.9 .7-.3-.3-.7-2-.9-3.8-.2-1.7-.7-3.2-1.3-3.2-.5 0-2.8-1.6-5-3.5-2.2-1.9-4.1-3.3-4.2-3-.2 .3-1-.2-1.8-1-.8-.8-1.3-2.2-1-3 .3-1-.3-1.7-1.7-2-1.3-.3-3.5-.5-5-.5-1.6 0-2.8-.4-2.8-1 0-.5-1.1-1.4-2.5-2-1.4-.5-3.5-1.8-4.7-2.7-1.1-1-2.9-2.6-4-3.5-1-1-2.2-1.6-2.8-1.3-.5 .3-1.7-.8-2.5-2.5-.8-1.6-1.9-2.8-2.5-2.5-.5 .3-1.6-.4-2.2-1.5-.7-1.1-1.7-2-2.3-2-.5 0-1.6-1.2-2.3-2.8-.7-1.5-1.2-3.9-1.2-5.4 0-1.6-.9-3.7-2-4.8-1.1-1.1-2.3-3.2-2.7-4.7-.3-1.6-1.3-3.8-2.2-5-.9-1.2-1.9-1.9-2.4-1.5-.4 .4-.8-.2-.8-1.3 0-1.1-1.2-3-2.7-4.2-1.5-1.3-3.1-2.3-3.7-2.3-.5 .1-2.6-1.5-4.5-3.5-2.5-2.5-4.4-3.5-6.5-3.4-1.6 0-3.7-.7-4.5-1.6-1.1-1.1-3.2-1.6-7.5-1.5ZM891.7 130.3c-.4-.5-.8-.1-.8 .7 0 .8 .4 1.2 .8 .8l0.8-.8-.8-.7ZM919.5 130.1c1.1-.1 1.8 .1 1.5 .4-.3 .4-1.2 .4-2 .2-1-.4-.9-.6 .5-.6ZM930 132c-.5 0-.8 .5-.5 1 .3 .6 .7 1 1 1 .3 0 .5-.4 .5-1 0-.5-.4-1-1-1ZM1616.5 165c-.8 0-1.5 .5-1.5 1 0 .6-.9 1-2 1-1.1 0-2.2 .7-2.5 1.5-.3 .8-1.1 1.2-1.7 .9-.7-.3-2.1 .6-3 2-1.2 1.7-2.7 2.6-4.5 2.6-1.6 0-3.9 .7-5.3 1.5-1.4 .8-3.3 1.7-4.2 2-1 .3-1.8 1.2-1.8 2 0 .8-.7 1.5-1.5 1.5-.8 0-1.5 .5-1.5 1 0 .6-.7 1-1.5 1-.8 0-1.5 .5-1.5 1 0 .6-.6 1-1.2 1-.7-.1-2 1.3-2.8 3-1.1 2.3-2 3-3.2 2.6-1.1-.4-2 0-2.3 .9-.3 .8-1.6 1.5-3 1.5-1.4 0-2.5 .5-2.5 1 0 .6-1.2 1-2.7 1-1.6-.1-3.5 .6-4.3 1.5-.8 .9-1.9 1.6-2.5 1.6-.5-.1-1.8 1.3-2.7 2.9-1.1 1.9-2.4 2.8-3.3 2.5-.8-.3-1.5 0-1.5 .5 0 .6-1.3 1.8-2.9 2.8-1.7 .9-2.8 2-2.5 2.5 .2 .4-.2 1.6-.8 2.7l-1.3 2-2-2.7c-1.2-1.5-2.5-2.3-3.2-2-.7 .4-1.3 1.2-1.3 1.7 0 .6 .5 .8 1 .5 .6-.3 1.7 0 2.5 .5 .8 .6 1.3 1.5 1 2l-.5 1-2-1c-1.4-.7-2.8-.6-4.7 .2-1.6 .7-3.1 1.7-3.5 2.3-.3 .5-1.7 .7-3 .3-1.3-.4-3.4-.2-4.8 .3-1.7 .7-3.4 .6-5.2-.1-1.9-.7-3.2-.7-4 0-.7 .6-2 .8-2.8 .4-.8-.3-2.1 .2-2.7 1-1.2 1.4-1.6 1.4-3.8 .1l-2.5-1.5-2.5 1.5c-1.4 .8-2.9 1.3-3.5 1-.5-.3-2.1 .2-3.5 1-1.4 .8-2.5 2.2-2.5 3 0 .8-.4 1.3-1 1-.5-.3-.8-.9-.5-1.5 .3-.5 .1-1.2-.5-1.5-.5-.3-1.2 .6-1.5 2-.3 1.4-1.2 2.5-2 2.5-.8 0-1.5 .6-1.5 1.3 0 .9-.2 .9-1.2-.1-.7-.7-2.1-1.2-3-1.2-1.1 0-1.5 .4-1 1.1 .4 .6 0 1.5-.8 2l-1.5 .9 1.5 1c1.2 .8 1.1 1-.7 1-1.3 0-3.2 .8-4.3 1.8-1.1 .9-2 2.2-2 2.7 0 .6-1 2.1-2.3 3.3-1.4 1.6-2.3 4-2.6 7-.2 2.9 .1 5 .8 5.5 .8 .5 .6 1.8-.6 4.8-1.4 3.1-1.5 4.2-.6 4.7 .8 .4 1.2 2.3 1 4.4-.1 2.6-.7 3.8-1.7 3.8l-1.5-.1 1.5 1.6c0.8 .8 1.1 1.9 .7 2.3-.4 .4-1.2 0-1.8-.8-.7-1.1-.8-.6-.3 1.5 .3 1.7 .8 3.6 1 4.3 .2 .6 .9 1 1.4 .7 .6-.3 1.2 .2 1.5 1 .3 .8 .5 2.6 .5 4 0 1.4-.3 2.7-.7 2.9-.5 .2-.9 2.2-1 4.5-.2 2.3 .2 4.3 .7 4.6 .6 .3 .7 1.7 .4 3.3-.5 2-.1 3.2 1.5 4.7 1.7 1.5 2 2.7 1.5 5-.3 1.7-.2 3.2 .4 3.5 .5 .3 1.2 1.9 1.5 3.5 .3 1.7 .9 4.6 1.3 6.5 .4 1.9 1.1 3.7 1.6 4 .5 .3 .3 2.6-.4 5.2-1 3.6-1 5.1-.1 6 .8 .9 .8 2.3 .2 4.6-.6 2.1-.5 3.2 .1 3.2 .6 0 1.5 1.5 2 3.3 .6 1.7 1 3.3 1 3.5 0 .1-.7 0-1.5-.3-1.2-.4-1.4 .2-.9 3.3 .4 2 1.2 4.4 1.8 5.2 .6 .8 1.9 3.1 2.9 5 1 1.9 1.9 5 2 6.7 .1 1.8 .5 3.3 1 3.3 .4 0 .7 .7 .7 1.5 0 .8 .9 1.5 2 1.5 1.3 0 2.3 1 3 3 .6 1.7 1.5 2.8 2 2.5l1-.5 0 .5c0 .3-.5 1.5-1.1 2.8-.6 1.2-1.2 3.9-1.3 5.9 0 2.3-.7 4-1.6 4.4-.8 .4-1.9 .6-2.5 .4-.6-.1-.7 .4-.2 1.4 .5 1.1-.1 2.2-2 3.6-1.6 1.2-3.9 2-5.3 2-1.4-.1-3 .5-3.6 1.2-.6 .7-2.1 1.6-3.3 2.1-1.2 .4-2.3 .3-2.6-.3-.3-.5-1.2-.8-2-.5-.8 .3-1.7 .1-2-.5-.3-.6-1.4-.5-2.7 .4-1.3 .8-3.4 1.2-4.8 .9-1.4-.4-2.8-1.1-3.2-1.7-.4-.8-1.9-.6-4.7 .7-2.3 .9-4.5 1.7-5.1 1.7-.5 0-.8-.3-.6-.7 .2-.5-.8-1-2.2-1.2-1.5-.3-4.9-.5-7.7-.5-2.7 0-5.4-.5-5.8-1.1-.5-.6-.6-.3-.3 .8 .5 1.3 0 1.7-1.9 1.7-1.4 0-2.5-.4-2.5-1 0-.5 .6-1 1.3-1 .6 0 .8-.3 .4-.7-.5-.5-1.9 .4-3 1.8-1.2 1.4-4.3 3.8-6.9 5.3-2.7 1.4-4.8 3.1-4.8 3.6 0 .6-.8 .9-1.7 .8-1.2-.2-1.9 .6-2.3 2.7-.3 1.7-1 2.9-1.5 2.7-.6-.1-1.7 1-2.5 2.6-.8 1.6-2.1 2.7-2.7 2.5-.7-.2-1.3 0-1.3 .5 0 .4-1.3 2.7-2.9 5.2-1.7 2.5-2.8 5.3-2.6 6.3 .3 .9 .1 1.7-.5 1.7-.5 0-1.4 1.7-2 3.8-.5 2-.7 4-.5 4.5 .3 .4-.2 1.3-1 2-.9 .6-1.6 1.8-1.5 2.5 0 .6 .5 1.2 1 1.2 .6 0 1.1 .8 1.3 1.8 .2 .9 0 2.8-.5 4.2-.7 1.9-.5 2.7 .7 3.3 1.2 .6 1.3 1 .3 2.7-1 1.6-1 2.2-.1 2.8 .6 .4 1.4 1.8 1.7 3.2 .3 1.4 1.3 3.2 2.1 4 .9 .9 1.6 3.1 1.5 5.3 0 2 .5 3.7 1 3.7 .6 0 1 .7 1 1.5 0 .8-.4 1.5-1 1.5-.5 0-1 .5-1 1 0 .6 .5 .8 1 .5 .6-.3 1.5 .4 2 1.5 .6 1.1 .8 2.9 .5 4-.3 1.1 .2 4.4 1.1 7.3 .9 2.8 2.1 5.7 2.6 6.2 .4 .6 .8 1.8 .8 2.8 0 .9 .5 1.7 1 1.7 .6 0 1 .8 1 1.8 0 .9 .7 2.6 1.5 3.7 1 1.5 1.4 1.6 1.7 .6 .2-.9 .9-.5 2.1 1.2 .9 1.5 2.6 3.6 3.7 4.7 1.1 1.1 2.7 2 3.5 2 1 0 1.4 .8 1.3 2.5-.3 2.1 .1 2.5 2.5 2.5 2.2 0 2.6 .4 2.2 2-.4 1.5 0 2 1.5 2 1.1 0 4 .9 6.5 2 2.5 1.1 4.5 2.7 4.5 3.5 0 .8 1.6 2.9 3.5 4.5 1.9 1.7 4.1 3 4.8 3 .6-.1 2.3 1.5 3.7 3.5 1.4 1.9 2.8 3.5 3.3 3.5 .4 0 .7-.6 .7-1.2 0-.7 .7-.4 1.6 .7 .8 1.1 2 2 2.7 2 .7 .1 1.1 .6 1 1.3-.2 .7 .3 1.9 1 2.7 1 1.2 1.5 1.3 2.6 .3 1.2-1.1 1.4-1 .8 .5-.5 1.2 .2 2.6 2.3 4.7 2.1 2.1 3.5 2.8 4.7 2.3 1.4-.7 1.5-.4 1 1.5-.5 1.4-.2 2.7 .8 3.7 .8 .8 1.3 1.5 1 1.5-.3 0 .4 1.7 1.5 3.8 1.1 2 2.8 3.9 3.7 4.2l1.6 .5-1.7 1.8c-1.3 1.3-1.4 2.3-.6 4.7 .6 1.7 .8 3.7 .5 4.5-.3 .8 0 1.5 .5 1.5 .6 0 1 .9 1 2 0 1.1 .5 2.2 1 2.5 .6 .3 1 1 1 1.5 0 .6-.7 .8-1.5 .5-1.3-.4-1.3-.1-.3 1.8 .7 1.2 1.1 2.5 1 3-.1 .4 .7 2.3 1.8 4.2l2 3.5-2.2 .6c-1.9 .5-2 .7-.5 1 .9 .2 1.7 .9 1.7 1.4 0 .6-.7 1.2-1.5 1.5-1.1 .4-1.3 1.2-.8 2.8 .5 1.6 .4 2-.5 1.5-.8-.5-1.2-.1-1.2 1.2 0 1.1-.4 2-1 2-.6 0-.7 .7-.2 1.7 .5 1.2 .3 1.5-.8 1.1-.8-.3-2.3-.1-3.2 .3-1 .5-1.8 1.6-1.8 2.4 0 .8-.3 1.5-.7 1.5-.5 0-1.5 1.1-2.3 2.5-.8 1.4-2.1 2.5-2.7 2.5-.7 0-1.3 .6-1.4 1.3l-.1 1.2 .1 3.3c0.1 2-.4 3.4-1.4 3.7-.8 .3-1.5 1-1.5 1.5 0 .6-.7 1.7-1.5 2.5-1.1 1.1-1.3 2.6-.8 5.8 .3 2.3 .9 4.4 1.3 4.7 .4 .3 1 2.3 1.2 4.5 .3 2.2 0 4.8-.6 5.8-.8 1.2-.8 2.2 0 3.5 .6 .9 1.1 3.1 1 4.9-.1 2.4 .4 3.3 1.9 3.7 1.1 .3 3.2 2.5 4.7 4.8 1.5 2.4 2.4 4.8 2 5.3-.3 .6-.8 .4-1.1-.5-.2-.8-1.5-3.1-2.9-5-2-2.9-2.2-3.1-1.7-1 .4 1.4 .2 3.5-.4 4.8-.9 1.8-.8 2.2 .7 2.3l1.7 .1 .8-.1c0.4 0 .7 1 .7 2.4 0 1.4 .3 2.5 .8 2.5 .4 0 .8 1.6 1 3.5 .1 2.6-.2 3.5-1.3 3.5-1 0-1.5 1.1-1.5 3.5 0 1.9 .5 3.5 1 3.5 .6 0 .8 .9 .5 2-.3 1.1 0 2 .5 2 .6 0 1 1 1 2.3 0 1.2 .6 2.9 1.3 3.8 .7 .8 2.5 1.5 4.2 1.5 2.1-.1 3.2 .6 4.2 2.4 .7 1.4 1.3 2.1 1.3 1.5 0-.6 2.7-.9 6.5-.7 3.8 .1 6.5-.2 6.5-.8 0-.6 1-.7 2.3-.4 1.2 .4 3 1.5 4 2.5 1.1 1.2 2.9 1.8 5 1.7 1.7-.1 5.8 1 9 2.5 3.1 1.5 5.9 3.3 6.1 4 .3 .9 .7 .8 1.4-.3 .8-1.3 1-1.3 1.6 .3 .3 .9 1.2 1.5 2.1 1.2 .8-.3 2.3 .4 3.3 1.5 .9 1.1 2.1 1.6 2.5 1.2 .4-.4 .7-.1 .7 .6 0 .6 1.5 1.5 3.3 1.8 1.7 .3 6.6 .6 10.7 .6 4.1 .1 8.6-.2 10-.6 1.9-.6 2.1-.5 1 .3-.8 .5-1.3 1.2-1 1.4 .3 .2 2.1-.2 4-.9 2.2-.8 2.8-1.3 1.5-1.3-1.4-.1-.8-.7 2-2.1 2.2-1.1 5.9-2.2 8.3-2.5 2.5-.3 4.2-.1 4.2 .5 0 .6 .9 1 2 1 1.1 0 2-.3 2-.7 0-.5 1.3-1.1 3-1.5 1.6-.5 3-1.4 3-2l0.1-1.3-1.6 1.3c-.9 .7-1.7 .8-2 .2-.3-.5-.4-1.2-.2-1.4 .1-.2 1.2-.6 2.5-1 1.7-.5 2.2-.2 2.2 1.2 0 .9 .3 1.4 .7 1 .4-.5 1.4-.2 2.1 .5 1 .9 1.6 .8 3.2-.5l2-1.8 1.8 1.8c0.9 1.1 2.5 2.2 3.5 2.5 .9 .4 1.7 .3 1.7-.3 0-.5 1-.9 2.3-.8 1.2 .1 3.5 1.6 5.1 3.3 1.8 1.8 3 2.5 3.3 1.8 .1-.7 1.7-1.3 3.3-1.3 1.8 0 3.4 .7 3.9 1.8 .8 1.4 1.2 1.5 2.3 .4 1-.9 1-1.2 .1-1.2-1 0-1-.5-.3-2 .6-1.1 1.5-2 2-2 .6 0 1 .7 1 1.5 0 .8 .7 1.7 1.5 2 .8 .3 2.1 .2 2.8-.2 .6-.4 2.1-.6 3.2-.5 1.1 .2 2.6 1.1 3.3 2 1.1 1.5 1.4 1.5 2.1 .2 .7-1.3 1-1.2 2 .5 .9 1.7 1.2 1.8 2.1 .5 .6-1 1-1.1 1-.2 0 .6 .7 1.2 1.5 1.2 .8 0 1.6-.6 1.8-1.2 .2-.8 .6-.6 1 .5 .5 1.2 .2 1.7-1 1.7-1.6-.1-1.6 .1-.3 1.5 .8 .9 2.3 1.6 3.3 1.5 .9 0 2.7 .5 4 1.1 1.2 .7 2.3 .8 2.5 .3 .1-.5 2.6-.8 5.5-.6l5.2 .3 4.8-4.5c2.6-2.6 5.4-4.6 6.2-4.6 .8 0 1.5-.4 1.5-1 0-.5 1.2-1 2.8-1 1.5 0 3.2-.4 3.8-.8 .6-.4 1.3-1.4 1.6-2.2 .3-.8 2.2-2.4 4.2-3.5 2.9-1.6 3.8-1.7 4.4-.7 .6 1.1 1 1.1 2.2 0 .8-.8 2.9-1.9 4.5-2.5 1.9-.6 2.9-1.6 2.8-2.7-.2-.9 .2-1.6 .7-1.6 .6 0 1 .7 1 1.5 0 .8 .5 1.5 1 1.5 .6 0 1.9-1.2 3-2.7 1.3-1.8 2.2-2.4 2.7-1.7 .5 .6 2 1.4 3.6 1.7 1.9 .5 3.6 .1 5.7-1.3 2.4-1.6 3.5-1.8 5.8-1 2.1 .8 3.1 .7 4.5-.5 .9-.8 2.3-1.2 3-.8 .6 .3 2.2 .8 3.5 1 1.2 .1 3.1-.1 4.2-.7 1.5-.8 2.1-.6 2.5 .5 .4 1.3 .8 1.3 3.3-.1l2.7-1.6 4.8 1.6c3.8 1.3 5.1 1.4 6.7 .4 1.1-.7 2-1.6 2-2 0-.5-.7-1.5-1.5-2.3-1.3-1.3-1.1-1.5 2.3-1.6l3.7-.1 1.3 .1c0.6 0 1.1-.7 .9-1.6-.1-1-.9-1.9-1.7-1.9-.8-.1-1.7-.2-2-.3-.3 0 0-.5 .5-1.1 .7-.7 1.9-.7 4 0 2.3 .8 3.5 .8 5.2-.2 1.2-.7 2-1.6 1.8-2-.3-.5 .3-.7 1.3-.6 .9 .1 2.9-.1 4.5-.5 1.5-.4 2.7-1.4 2.7-2.2 0-.8 .7-1.5 1.5-1.5 .8 0 1.5-.4 1.5-1 0-.5 .7-1 1.5-1 1.1 0 1.4-.8 1-3-.4-2.3-.1-3.1 1.3-3.4 .9-.3 2.5-1.6 3.5-3 .9-1.4 3.1-3.9 4.7-5.6 2-2 2.8-3.6 2.4-4.7-.3-1.1 .4-3.1 2-5 1.4-1.8 2.6-4.2 2.6-5.3 0-1.1 .5-2 1-2 .6 0 .8-1.7 .5-4-.4-2.9-.1-4.3 1-5 1.2-.8 1.3-1.6 .5-4-.8-2.3-.6-3.5 .6-5.2 1.1-1.6 1.3-3.5 .9-6.3-.5-3.1-.3-4.2 .9-4.7l1.6-.8-1.5-4.2c-1-2.9-1.2-4.7-.5-5.5 .6-.7 .9-1.6 .9-2-.1-.5-.1-1.2 0-1.8 .1-.5 .6-.3 1.2 .5 .7 1.1 .9 .3 .7-3.2-.2-2.7-.1-4.8 .2-4.8 .3 0 .3-2.4 .1-5.3-.3-4.1 .2-6.4 2.3-10.7 1.4-3 2.5-6.2 2.5-7 0-.8 .7-2.2 1.6-3 1.1-1 1.3-1.8 .5-2.5-.6-.5-1-1.6-1-2.2 0-.7 .5-1.1 1-.8 .6 .3 1.6-.2 2.3-1 1-1.3 .9-1.6-.5-1.5-1 0-1.8-.7-1.8-1.5 0-.8 .3-1.3 .8-1.1 .4 .2 .8-1.1 1-3 .1-1.9-.2-3.6-.8-3.9-.5-.3-1-1.5-1-2.7 0-1.3-1.2-3.3-2.5-4.5-1.5-1.4-2.2-2.8-1.8-3.5 .6-1 .4-1-.7-.4-.8 .5-2.6 1-4 1.2-1.4 .1-3.1-.2-3.7-.7-.7-.5-1.7-.7-2.3-.4-.5 .3-1.2-.1-1.5-.7-.2-.7-1.5-1.6-2.7-2-1.3-.4-2.7-.3-3.3 .2-.5 .4-2.1 .8-3.5 .9-1.4 0-3.7 0-5.2 0-1.6 .1-2.8 .6-2.8 1.1 0 .6-.7 1.7-1.5 2.5-.8 .8-2.6 1.5-4 1.5-1.4 0-2.3 .3-2.1 .8 .2 .4-.2 1.6-1 2.7-1 1.5-1.9 1.8-3.6 1.2-2-.6-2.1-.5-1 .8 .7 .9 .8 1.7 .2 2-.5 .3-1.1 0-1.2-.6-.2-.6-2 .5-4 2.5-2.1 2-3.8 4.1-3.8 4.6 0 .6-.4 1-1 1-.5 0-2.3 .9-4 2-2 1.3-3 2.8-3 4.5 0 1.4-.4 2.5-1 2.5-.5 0-1.2-.6-1.3-1.2-.2-.7-.3 1.1-.3 4 .1 3-.2 5.6-.6 5.8-.5 .2-1.9 .5-3.3 .7-1.4 .1-2.5 .5-2.5 1 0 .4-.9 .9-2 1.2-1.3 .3-2 1.3-2 3 0 1.4-.4 2.3-1 2-.5-.3-1 .2-1 1 0 .8-.3 1.6-.7 1.6-.5 .1-2 .3-3.5 .5-1.9 .3-3-.1-3.3-1.1-.4-1.1-1-1.3-2.5-.5-1.3 .7-2.4 .7-3.2 0-.7-.5-1.7-.7-2.1-.2-.4 .4-.7 .1-.7-.5 0-.7-.4-1.1-1-.8-.5 .3-1 .1-1-.5 0-.5-.6-.8-1.2-.7-.7 .2-2-.4-2.8-1.3-.8-.9-2.3-1.9-3.2-2.3-1-.4-1.8-1.4-1.8-2.2 0-.8-.7-2.3-1.6-3.2-1.3-1.5-1.3-1.9-.2-2.5 .7-.4 1.1-.9 .8-1.3-.3-.3-1.4-.7-2.5-.9-1.1-.1-2-1.1-2-2 0-1-1.1-2.7-2.5-3.8-1.6-1.3-2-2.2-1.2-2.4 .8-.3 1-1.3 .5-3.1-.3-1.6-1.1-3.2-1.7-3.6-.8-.6-.7-1 .2-1.3 .6-.2 1.2-.8 1.2-1.4 0-.5-.6-1-1.2-1-.7-.1-2.3-1.2-3.5-2.5-1.3-1.4-2.6-3.7-3-5.2-.3-1.6-1.2-3.4-2-4-.7-.7-1.3-2.2-1.3-3.3 0-1.1-.4-2-1-2-.5 0-.8-.4-.5-1 .3-.5 .1-1-.5-1-.6 0-.7-.9-.2-2.1 .6-1.8 .4-2-1.2-1.2-1.6 .7-1.8 .5-1.2-1.9 .4-2 .3-2.7-.6-2.3-.8 .3-2.8-1.5-4.7-4.2-1.9-2.6-3.5-5.9-3.6-7.3 0-1.4-.9-3.8-2-5.5-1.1-1.6-3.4-4.3-5.2-6-1.7-1.6-3.4-4.5-3.7-6.2-.4-2-1.2-3.3-2.1-3.3-.9 0-1.3-.6-1-1.5 .3-.8-.5-2.4-1.7-3.5l-2.3-2 2-.1c1.7 0 1.8-.1 .5-1.2-.8-.7-2.1-2.2-2.7-3.5-.7-1.2-1.1-2.5-.8-2.9 .2-.5-.7-1.6-2-2.5-2.1-1.5-2.5-2.5-2.2-6.5 .1-2.6 .8-5.5 1.5-6.3 .7-.8 2.3-2.7 3.5-4.2 1.8-2.2 3.3-2.9 7.7-3.3 3-.3 5.7-1 6-1.5 .3-.6 2.4-1.4 4.8-1.8 2.3-.4 4.2-1.3 4.2-1.9 0-.7 .5-1.6 1.1-2 .6-.5 1.5-.1 2 .7 .8 1.3 1.1 1.3 1.9-.2 .6-1.1 1.7-1.6 3-1.3 1.1 .3 2 .1 2-.5 0-.5-.6-1.2-1.2-1.4-.9-.3-.8-.5 .2-.5 .8-.1 2.2-.8 3-1.6 .8-.8 2.6-1.7 4-2 1.4-.3 3.5-1.7 4.7-3.3 1.5-1.9 1.8-2.9 1-3.5-.9-.6-.9-1 .1-1.3 .6-.2 1.2-1.2 1.2-2.1 0-1.4 .8-1.7 3.5-1.5 1.9 .1 3.5 .7 3.5 1.2 0 .6 .5 1 1 1 .6 0 1-.9 1-2 0-1.1-.6-2.2-1.2-2.4-.7-.3-.5-.5 .5-.5 .9-.1 1.7 .4 1.7 .9 0 .6 .7 1 1.5 1 .8 0 1.7-1.1 2-2.5 .3-1.4 1.1-2.4 1.8-2.2 .7 .1 1.2-.9 1.2-2.8 .1-2.1 .6-3.1 1.8-3.2 .9-.2 1.8-.9 1.8-1.5 .1-.7 .2-2 .3-2.8 0-.8 .7-1.4 1.4-1.2 .6 .1 1.2-.7 1.2-1.8 0-1.1 .9-2.6 2-3.2 1.1-.7 2-1.7 2-2.3 0-.5 1.3-2.2 3-3.7 1.6-1.6 2.8-3.2 2.5-3.8-.3-.5 .4-1.9 1.5-3 1.1-1.1 1.8-2.4 1.5-3-.3-.5 .1-1.7 .8-2.6 1-1.2 .9-1.7-.1-2.2-1-.5-1-1.7-.3-5.2 .6-2.5 1.1-6 1.1-7.7 0-1.8 .3-3.3 .8-3.3 .4 0 .8-3.3 .9-7.2 .2-5.9 .6-7.6 2.3-9 1.1-1 1.8-2.1 1.5-2.5-.2-.5 .7-1.5 2-2.3l2.4-1.5-1.7-1.2-1.7-1.2 1.8-.8c1.3-.5 2.1-.3 2.7 .7 .4 .8 .6 2.4 .3 3.5-.4 1.6-.3 1.7 .6 .5 .6-.8 1.1-2.5 1.1-3.7 0-1.3 .5-2.1 1-1.8 .6 .3 1 .1 1-.5 0-.5 .9-.8 2-.5 1.1 .3 2.3-.1 2.7-.7 .4-.7 .9-2 1-2.8 .1-.8 .5-2.1 .8-2.7 .3-.7 1.1-1.1 1.8-.8 .6 .2 1.9-.1 2.9-.8 .9-.7 1.5-2.1 1.5-3.2-.1-1.1 .3-2 1-2 .6 0 1.4-.2 1.7-.5 .2-.3 .7-2.5 1-5 .4-2.8 .3-3.9-.3-3-.6 1.1-1 1.2-1.5 .3-.4-.8 .7-2 2.9-3 2-1 3.5-2.4 3.5-3 0-.7 .9-3.1 2-5.3 1.1-2.2 2.6-4 3.3-4 .9 0 1-1.1 .5-4.5-.5-2.6-.4-5.3 .2-6.5 .7-1.5 .6-2.5-.5-3.7-.8-1-1.5-2.5-1.5-3.3 0-.8-.8-2.6-1.7-3.9-1-1.2-2.9-3.5-4.3-5-1.4-1.4-3.7-3.4-5.2-4.3-1.6-1-3.5-1.8-4.3-1.8-.8 0-2.2-.7-3-1.5-.8-.8-1.5-1.3-1.5-1 0 .3-2.1-.8-4.7-2.5-2.7-1.6-5.8-3-7-3-1.3 0-3.1-1.1-4-2.5-1.1-1.6-2.4-2.4-3.3-2-.8 .3-2.4-.4-3.5-1.5-1.3-1.2-1.7-2.6-1.2-3.5l0.7-1.5-.7 .2c-.5 .2-1.8-.4-3-1.2-1.2-.8-2.6-2.7-3.2-4.2-.6-1.6-.9-3.2-.6-3.8 .3-.5 .1-1-.5-1-.5 0-1-.9-1-2 0-1.1-.4-2.8-.8-3.7-.6-1.1-.2-4.3 .8-8.3 .9-3.6 1.9-5.8 2.2-5 .3 1.1 .6 1.2 1.1 .3 .4-.7 .4-1.3 0-1.3-.5 0-.7-1.4-.5-3 .1-1.7 .8-3 1.5-3 .8 0 .7-.3-.3-.9-1.2-.8-1.3-1.2-.2-2.3 .8-.8 1.3-4.5 1.5-9.5 .1-5 .7-8.7 1.5-9.5 .7-.7 1.2-1.6 1.2-2 0-.5-.8-.5-1.7-.1-1.1 .5-1.5 .4-1.1-.2 .4-.6 .2-2.6-.5-4.5-.7-1.9-1.8-3.8-2.4-4.2-.7-.5-1.1-1.4-.8-2 .3-.7-.4-2.3-1.5-3.5-1.1-1.3-2.6-2.4-3.2-2.4-.7-.1-2.4-.3-3.8-.4-1.4-.2-2.6-.8-2.7-1.4-.2-.6-1.1-1.1-2-1.1-1 0-2.6 .6-3.5 1.3-1 .7-1.4 1.6-1 2 .4 .4-.4 .7-1.8 .7-1.4 0-3.2-.4-4-1-1.1-.6-2.4-.2-4.7 1.6-1.8 1.3-3.5 2.4-3.8 2.4-.3 0-.5-.7-.5-1.5 0-1.2-.5-1.3-2.2-.6-1.3 .5-2.2 1.4-2 2 .1 .6-.5 1.1-1.3 1.1-.9 0-1.2-.5-.7-1.2 .5-.9 0-.9-1.8-.3-1.4 .4-2.7 1.2-3 1.6-.3 .5-1.6 1.5-3 2.2-1.4 .7-4.8 1.3-7.6 1.3-2.8-.1-5.7-.7-6.5-1.3-.8-.7-1.8-1-2.2-.5-.4 .4-1.1 .1-1.5-.5-.4-.7-2.7-1.6-5.2-2.1-3.7-.7-4.5-1.2-4.5-3 0-1.6-.6-2.2-2.2-2.2-1.7 0-2.8-1-4-4-1-2.2-2.4-4-3-4-.7 0-2.4-1.1-3.8-2.5-1.4-1.4-2.9-2.5-3.5-2.5-.5 0-1.2-.7-1.5-1.5-.3-.8-1.2-1.5-2-1.5-.8 0-1.5-.7-1.5-1.5 0-.8-1.2-3.3-2.7-5.4-1.6-2.2-3.8-4.5-5-5-1.3-.6-2.3-2-2.3-3.1 0-1.3-.5-1.8-1.5-1.5-.8 .3-1.8-.3-2.2-1.2-.4-1-1.2-2.3-1.7-2.9-.6-.6-1.7-.9-2.3-.7-.7 .2-2-.3-3-.9l-1.6-1.3-.4 1.3c-.1 .6-1 1.2-1.8 1.2-.9 0-1.2-.5-.8-1.2 .5-.9 .4-1-.5-.5-.6 .4-1.2 .3-1.2-.3 0-.5-.7-1-1.5-1ZM1637.7 178.3l0.8 .7-.8 .8c-.4 .4-.8 0-.8-.8 0-.8 .4-1.2 .8-.7ZM1642.7 184.3l0.8 .7-.8 .8c-.4 .4-.8 0-.8-.8 0-.8 .4-1.2 .8-.7ZM1571.7 190.3c-.4-.5-.8-.1-.8 .7 0 .8 .4 1.2 .8 .8l0.8-.8-.8-.7ZM1719 202.9c-.8 0-1.2 .4-.7 .8l0.7 .8 .8-.8c0.4-.4 0-.8-.8-.8ZM1745 248.9c-.8 0-1.2 .4-.7 .8l0.7 .8 .8-.8c0.4-.4 0-.8-.8-.8ZM897 251c0.6 0 1 .2 1 .5 0 .3-.4 .7-1 1-.5 .3-1 .1-1-.5 0-.5 .5-1 1-1ZM595 280.9c0.8 0 1.2 .4 .8 .8l-.8 .8-.7-.8c-.5-.4-.1-.8 .7-.8ZM1464.5 284c-.3 0-.5 .7-.5 1.5 0 .8 .5 1.3 1 1 .6-.3 .8-.9 .5-1.5-.3-.5-.7-1-1-1ZM601 286c0.6 0 1 .5 1 1 0 .6-.2 1-.5 1-.3 0-.7-.4-1-1-.3-.5 0-1 .5-1ZM749.5 300.1c1.1-.1 1.8 .1 1.5 .4-.3 .4-1.2 .4-2 .2-1-.4-.9-.6 .5-.6ZM652 327.9c0.8 0 1.2 .4 .8 .8l-.8 .8-.7-.8c-.5-.4-.1-.8 .7-.8ZM652 329.9c0.8 0 1.2 .4 .8 .8l-.8 .8-.7-.8c-.5-.4-.1-.8 .7-.8ZM1476.7 331.3l0.8 .7-.8 .8c-.4 .4-.8 0-.8-.8 0-.8 .4-1.2 .8-.7ZM1473 335.5c-.3-.3-.9 .3-1.3 1.2-.7 1.5-.6 1.6 .5 .6 .7-.7 1.1-1.5 .8-1.8ZM1787.5 350c-.3 0-.8 .6-1.2 1.2-.5 .9-.4 1 .5 .5 .6-.4 1.2-.9 1.2-1.2 0-.3-.2-.5-.5-.5ZM1779 352.9c0.8 0 1.2 .4 .8 .8l-.8 .8-.7-.8c-.5-.4-.1-.8 .7-.8ZM1478.5 356.8c0.8 .6 1.3 1.7 1 2.2-.3 .6-.9 .8-1.5 .5-.5-.3-1-1.3-1-2.2-.1-1.5 .2-1.6 1.5-.5ZM1762.7 371.3l0.8 .7-.8 .8c-.4 .4-.8 0-.8-.8 0-.8 .4-1.2 .8-.7ZM1484.8 374c0.4-.1 1.4 .6 2.2 1.5 1.3 1.4 1.3 1.5-.7 1-1.3-.3-2.3-.9-2.3-1.5 0-.5 .3-1 .8-1ZM1491.5 392c0.3 0 .5 .5 .5 1 0 .6-.4 1-1 1-.5 0-.8-.4-.5-1 .3-.5 .7-1 1-1ZM1446 405c-.5 0-1 .5-1 1 0 .6 .7 1 1.5 1 .8 0 1.3-.4 1-1-.3-.5-.9-1-1.5-1ZM1470.5 405c-.3 0-.5 .5-.5 1 0 .6 .5 1 1 1 .6 0 .8-.4 .5-1-.3-.5-.7-1-1-1ZM1434.5 407.2c1.7 0 2.6 .2 2 .4-.5 .3-1.9 .3-3 .1-1.3-.3-.9-.5 1-.5ZM968 420.9c0.8 0 1.2 .4 .8 .8l-.8 .8-.7-.8c-.5-.4-.1-.8 .7-.8ZM1399.7 424.3c-.4-.5-.8-.1-.8 .7 0 .8 .4 1.2 .8 .8l0.8-.8-.8-.7ZM1744 426.9c0.8 0 1.2 .4 .8 .8l-.8 .8-.7-.8c-.5-.4-.1-.8 .7-.8ZM601 440.9c-.8 0-1.2 .4-.7 .8l0.7 .8 .8-.8c0.4-.4 0-.8-.8-.8ZM1715.8 459.1c-.5-.1-.8 .4-.8 .9 0 .6 1.2 1 2.8 .9 2.4 0 2.5-.1 .7-.9-1.1-.5-2.3-.9-2.7-.9ZM1710 463c0.6 0 1 .5 1 1 0 .6-.4 1-1 1-.5 0-1-.4-1-1 0-.5 .5-1 1-1ZM659.7 475.3l0.8 .7-.8 .8c-.4 .4-.8 0-.8-.8 0-.8 .4-1.2 .8-.7ZM666 478.5c0.6 .3 1 1 1 1.5 0 .6-.4 .8-1 .5-.5-.3-1-.9-1-1.5 0-.5 .5-.8 1-.5ZM674 484c-.5 0-.8 .5-.5 1 .3 .6 .7 1 1 1 .3 0 .5-.4 .5-1 0-.5-.4-1-1-1ZM695 489.2c1.4 0 1.9 .1 1.3 .4l-1.3 .4-1.2-.4c-.7-.3-.2-.4 1.2-.4ZM696 494c-.5 0-1 .5-1 1 0 .6 .5 1 1 1 .6 0 1-.4 1-1 0-.5-.4-1-1-1ZM701 513c-.5 0-1 .5-1 1 0 .6 .5 .8 1 .5 .6-.3 1-.7 1-1 0-.3-.4-.5-1-.5ZM1407 514.9c0.8 0 1.2 .4 .8 .8l-.8 .8-.7-.8c-.5-.4-.1-.8 .7-.8ZM699.7 516.3c-.4-.5-.8-.1-.8 .7 0 .8 .4 1.2 .8 .8l0.8-.8-.8-.7ZM929 523c-.5 0-1 .5-1 1 0 .6 .5 1 1 1 .6 0 1-.4 1-1 0-.5-.4-1-1-1ZM1426 537.9c-.8 0-1.2 .4-.7 .8l0.7 .8 .8-.8c0.4-.4 0-.8-.8-.8ZM689.7 545.3c-.4-.5-.8-.1-.8 .7 0 .8 .4 1.2 .8 .8l0.8-.8-.8-.7ZM660 553.9c0.8 0 1.2 .4 .8 .8l-.8 .8-.7-.8c-.5-.4-.1-.8 .7-.8ZM666.5 554c0.8 0 1.5 .2 1.5 .5 0 .3-.4 .7-1 1-.5 .3-1.2 .1-1.5-.5-.3-.5 .2-1 1-1ZM1464 564.9c0.8 0 1.2 .4 .8 .8l-.8 .8-.7-.8c-.5-.4-.1-.8 .7-.8ZM1805 567c0.6 0 1 .5 1 1 0 .6-.4 1-1 1-.5 0-1-.4-1-1 0-.5 .5-1 1-1ZM1814 566.9c-.8 0-1.2 .4-.7 .8l0.7 .8 .8-.8c0.4-.4 0-.8-.8-.8ZM1799 567.9c0.8 0 1.2 .4 .8 .8l-.8 .8-.7-.8c-.5-.4-.1-.8 .7-.8ZM983.7 616.3l0.8 .7-.8 .8c-.4 .4-.8 0-.8-.8 0-.8 .4-1.2 .8-.7ZM988.7 635.3l0.8 .7-.8 .8c-.4 .4-.8 0-.8-.8 0-.8 .4-1.2 .8-.7ZM1820 638.9c-.8 0-1.2 .4-.7 .8l0.7 .8 .8-.8c0.4-.4 0-.8-.8-.8ZM601.5 646c0.3 0 .7 .7 1 1.5 .3 .8 .1 1.3-.5 1-.5-.3-1-.9-1-1.5 0-.5 .2-1 .5-1ZM601.7 650.3l0.8 .7-.8 .8c-.4 .4-.8 0-.8-.8 0-.8 .4-1.2 .8-.7ZM1459.5 656c0.3 0 .7 .5 1 1l0.5 1-.5 0c-.3 0-.7-.4-1-1l-.5-1 .5 0ZM1817 658.5c-.3-.3-.9 .3-1.3 1.2-.7 1.5-.6 1.6 .5 .6 .7-.7 1.1-1.5 .8-1.8ZM677 683.9c-.8 0-1.2 .4-.7 .8l0.7 .8 .8-.8c0.4-.4 0-.8-.8-.8ZM667.5 686c-.3 0-.5 .5-.5 1 0 .6 .5 1 1 1 .6 0 .8-.4 .5-1-.3-.5-.7-1-1-1ZM1799.8 693.5c0.4 .3-.1 1.3-1.2 2.3l-1.8 1.7 1.1-2.2c0.6-1.3 1.4-2.1 1.9-1.8ZM812.7 694.3l0.8 .7-.8 .8c-.4 .4-.8 0-.8-.8 0-.8 .4-1.2 .8-.7ZM1795 696.9c0.8 0 1.2 .4 .8 .8l-.8 .8-.7-.8c-.5-.4-.1-.8 .7-.8ZM1465.5 712c-.3 0-.8 .6-1.2 1.2-.5 .9-.4 1 .5 .5 .6-.4 1.2-.9 1.2-1.2 0-.3-.2-.5-.5-.5ZM1775 712.9c0.8 0 1.2 .4 .8 .8l-.8 .8-.7-.8c-.5-.4-.1-.8 .7-.8ZM1466.3 719.5c-.5-.2-1.1-.1-1.5 .3-.4 .4-.5 1.3-.2 2 .2 .6 .9 1.2 1.4 1.2 .6 0 1-.7 1-1.5 0-.8-.3-1.7-.7-2ZM1472.7 724.3l0.8 .7-.8 .8c-.4 .4-.8 0-.8-.8 0-.8 .4-1.2 .8-.7ZM1763.7 724.3l0.8 .7-.8 .8c-.4 .4-.8 0-.8-.8 0-.8 .4-1.2 .8-.7ZM1477.5 732c-.3 0-.8 .6-1.2 1.2-.5 .9-.4 1 .5 .5 .6-.4 1.2-.9 1.2-1.2 0-.3-.2-.5-.5-.5ZM1666 749.5c0.6 .3 1 1 1 1.5 0 .6-.4 .8-1 .5-.5-.3-1-.9-1-1.5 0-.5 .5-.8 1-.5ZM1555.3 750.7c-1.5-.7-1.6-.6-.6 .5 .7 .7 1.5 1.1 1.8 .8 .3-.3-.3-.9-1.2-1.3ZM2422.8 873.7c-5.5-.2-7.3 .2-10 2-2.4 1.7-3.5 1.9-3.9 1-.5-.8-1.1-.4-2 1.3-.7 1.4-2.1 3.4-3.1 4.5-1 1.1-1.6 2.7-1.3 3.5 .3 .9-.4 1.9-1.7 2.5-1.2 .6-2.6 1.8-3.2 2.8-.8 1.3-.8 1.9 .1 2.5 .7 .4 1.2 2.1 1.1 3.7-.1 1.7-.7 3.3-1.3 3.8-.6 .4-.5 1 .5 1.7 .9 .5 1.5 2.4 1.5 4.5 0 2.3 .7 4.2 1.8 5.1 .9 .8 1.5 1.9 1.2 2.4-.3 .6 .2 1.6 1 2.3 .9 .6 1.6 2 1.5 3 0 .9 .3 2.4 .8 3.3 .4 .9 1.9 2.3 3.5 3 2.1 1.1 2.5 1.7 1.7 2.9-.5 .8-.8 2-.5 2.5 .3 .6 1 .8 1.5 .5 .6-.3 1 .4 1 1.5 0 1.1 .5 2.2 1 2.5 .6 .3 .7 1.3 .4 2.3-.3 .9-.1 2.7 .5 4 .9 1.8 .8 2.2-.4 2.2-1.2 0-1.3 .5-.6 2.3 .5 1.2 .7 4.2 .5 6.7-.3 2.5-.9 5-1.4 5.5-.6 .6-.6 1.4 .1 2 .7 .7 .6 1.5-.4 2.5-.7 .8-1.2 2.1-1 2.8 .2 .6-.3 1.8-1.1 2.5-.7 .6-1.6 3.2-2.1 5.7-.4 2.5-1 5-1.3 5.5-.3 .6-.6 5.1-.6 10.2-.1 8-.4 9.5-2.3 11.7-1.3 1.4-2.7 3.7-3.3 5.1-.5 1.4-1.4 2.3-2 2-.5-.3-1.1 .3-1.2 1.3l-.1 1.7 .1 1.8c0.1 .9-.1 1.5-.5 1.3-.5-.3-1.5 1.1-2.3 2.9-1 2.3-1.2 3.8-.5 4.5 .7 .7 .4 1-.7 1-1 0-2 .5-2.3 1-.3 .6 .1 1.8 .8 2.7 1 1.4 .9 1.6-.5 1-1.6-.6-1.7-.3-1.2 2.6 .4 1.7 1 3.3 1.5 3.5 .5 .1 .9 .9 .9 1.7 0 .8-.4 1.5-1 1.5-.5 0-1.3 2.6-1.6 5.8-.4 3.1-1 6.3-1.5 7-.5 .7-.5 1.4 .1 1.7 .6 .3 1.1 3.1 1.1 6.3 .1 3.1 .2 7.5 .2 9.7 0 2.2-.2 6.3-.5 9-.4 2.8-.7 5.3-.7 5.8-.1 .4-.5 .5-1.1 .2-.5-.3-1 .2-1 1 0 .8 .7 2.5 1.4 3.8 .8 1.2 1.4 2.9 1.3 3.8-.1 .9-1 2.5-2 3.5-1.1 1.3-1.5 2.5-1 3.8 .7 1.5 .5 1.7-1.1 1-1.4-.7-1.8-.5-1.5 .6 .1 .8 0 2.5-.4 3.8-.4 1.2-1.4 2.2-2.2 2.2-1 0-1.5 1.1-1.5 3.5 0 2.4-.7 4.1-2.2 5.5-1.3 1-2.9 1.9-3.5 2-.7 0-1.5 .7-1.8 1.5-.3 .9-1 1.2-1.7 .8-.9-.6-1.1-.1-.8 1.4 .4 1.6-.1 2.3-1.7 2.7-1.3 .3-2.3 1.2-2.3 1.9 0 .6-1 1.7-2.2 2.2-1.2 .6-2.9 2.4-3.8 4-.9 1.7-3 3.6-4.6 4.4-1.6 .8-3.7 2.5-4.6 3.8-1.1 1.4-2.3 2-3 1.6-.9-.5-1-.4-.5 .5 .4 .6-.1 2.1-1 3.2-1 1.1-2.1 2-2.5 2-.5 0-1.9 1.1-3.3 2.5-1.4 1.4-3.1 2.4-3.7 2.2-.7-.2-2.1 .5-3 1.5-1 1-1.5 1.8-1 1.8 .4 0-.3 .9-1.5 2-1.3 1.1-2.1 2.5-1.8 3 .3 .6-.1 1-.7 1-1-.1-1 .2-.1 1.2 1 1 .9 1.6-.5 2.8-.9 .9-2.5 1.9-3.4 2.3-1 .4-2.4 2.3-3 4.2-.7 1.9-1.6 3.5-2 3.5-.5 0-.8 .6-.8 1.3 0 .6-.9 1.8-2 2.5-1.1 .6-1.9 1.8-1.9 2.5l0.1 1.2-.1 2.3c0 1.2-.7 2.1-1.3 2l-1.3-.1-1.7 .1c-1.2 .1-1.6 .8-1.3 2 .3 1-.6 2.9-2 4.5-1.7 1.8-2.2 3.1-1.6 4 .7 .8 .4 1.6-1 2.5-1 .6-1.9 1.9-1.9 2.7 0 .8-.3 1.7-.7 1.8l-.8 .4 1.3-.4c0.6-.1 1.2 .2 1.2 .7 0 .6-1 1.4-2.2 1.9-1.7 .6-2.5 2-3 5-.5 2.2-1.7 5.8-2.8 7.9-1.1 2-2 4.7-2 6 0 1.4-.5 2-1.2 1.7-.9-.3-1.3 .4-1.2 2.2 0 1.6 .4 3.5 .8 4.3 .4 .8 .5 3.3 .3 5.5-.3 2.2-.8 5.2-1.1 6.8-.4 1.7 0 3.3 1 4.5 .9 .9 1.3 2.5 1 3.5-.3 .9-.3 1.5 .2 1.2 .4-.2 1.8 .8 3.2 2.3 1.4 1.5 2.8 3.2 3 3.7 .3 .6 1.5 .9 2.8 .8 1.6-.2 2.2 .2 2.2 1.7 0 1.1 .7 2 1.5 2 .8 0 1.5 .5 1.5 1 0 .6 1.2 1 2.8 1 1.5 .1 3.4-.6 4.2-1.5 1-1 1.8-1.2 2.5-.5 .6 .5 1.3 .7 1.8 .2 .4-.4 1.9 0 3.3 .8l2.6 1.5 1.6-2.3c1-1.3 2.3-2.1 3.2-1.7 .8 .3 2.7-.6 4.3-2 1.5-1.4 3.2-2.5 3.7-2.5 .6 0 1 .3 1 .8 0 .4 2.2 .6 4.8 .5 3-.1 5.7 .4 7.5 1.5 1.5 .9 2.7 2.3 2.7 3 0 .6 .5 1.2 1 1.2 .6 0 .8 .5 .5 1-.3 .6 .2 .7 1.3 .3 1.2-.5 1.5-.4 1 .5-.5 .7-.2 1.8 .6 2.5 1 .8 1.6 3.6 1.8 8 .3 5.9 .5 6.7 2.1 6.2 1.4-.4 1.6 0 1.2 2.8-.3 1.7-.6 4.3-.5 5.7 0 1.4 .4 3 .9 3.5 .5 .6 1.4 2.8 2.1 5 .7 2.2 2.1 4.7 3 5.5 1 .9 1.7 2.9 1.6 5 0 1.9 .4 4.4 .9 5.5 .7 1.5 .6 1.8-.3 1.3-.9-.6-1-.3-.2 1.2l1 2-1 1.5c-.7 1-.6 2.3 .5 4.3 .8 1.5 1.3 2.9 1.2 3.2-.1 .3 .3 .2 .8-.2 .6-.4 1.8 .8 2.8 2.7 .9 1.9 1.5 4.3 1.3 5.3-.3 .9-.7 2.7-1 4-.4 1.4-.2 2.2 .7 2.2 .8 0 1.2 2.1 1.2 6.9 0 3.8-.4 7.3-.8 7.8-.4 .4-.7 1.1-.7 1.6l0 .7 1.2-.7c0.9-.6 1-.2 .5 1.5-.4 1.4-.3 2.4 .6 2.7 .6 .2 1.7 1.7 2.4 3.2 .6 1.5 1.4 4 1.7 5.6 .4 2 .2 2.7-.9 2.7-.8 0-1.5 .3-1.5 .8-.1 .4 .5 1.2 1.2 1.9 .7 .6 1.4 2.5 1.6 4.2 .1 1.7-.2 3.3-.8 3.6-.5 .3-1 1.1-1 1.8 0 .8 .3 .7 1-.3 .5-.8 1.3-1.2 1.7-.8 .4 .5 0 1.6-.9 2.5-1 1-1.8 2.4-1.8 3.1 0 .6-1.1 1.4-2.5 1.7-1.4 .3-2.7 1.2-3 2-.3 .8 0 1.5 .5 1.5 .6 0 .7 1 .3 2.3-.4 1.2-1.5 3.1-2.5 4.2-1 1.1-1.8 2.6-1.8 3.3 0 .6-.4 1.2-1 1.2-.5 0-1 1.8-1 4 0 2.2 .3 4 .8 4 .4 0 1 1.8 1.5 4 .4 2.6 1.7 4.8 3.7 6.5 1.7 1.4 2.8 3.1 2.5 3.8-.3 .6 .6 1.9 1.9 2.7 1.4 .8 2.8 2.3 3.1 3.3 .3 1 1.1 1.5 2 1.2 .8-.3 2.9 .4 4.5 1.5 2.2 1.4 3.1 1.7 3.4 .8 .2-.8 1.1-.4 2.2 1.2 1.1 1.4 1.8 2.8 1.6 3.3-.1 .4 .7 .5 1.8 .2 1.1-.3 2 0 2 .5 0 .6 2.4 1 5.3 1 2.8 0 6.6-.7 8.2-1.6l3-1.5 1.7 2.3c1.5 1.9 1.8 2 1.8 .6 0-1.4 .6-1.7 2.5-1.3 1.4 .3 2.5 .1 2.5-.5 0-.5 1.6-1.6 3.5-2.2 1.9-.7 3.7-2.2 4-3.3l0.5-2 1.5 2 1.5 2 2.5-1.5c1.3-.8 2.2-1.8 2-2.2-.3-.5 .7-1.6 2.1-2.5 1.4-1 3.6-2.7 4.9-3.8 1.7-1.4 2.3-2.9 2.1-5-.1-1.7 .5-3.8 1.3-4.8 1.1-1.2 1.2-1.8 .4-1.7-.7 0-1.3-.4-1.3-1 0-.5 .7-.8 1.5-.5 .8 .3 1.5 .1 1.5-.5 0-.5 .3-1.8 .7-2.7 .5-1.3 .4-1.6-.5-1-.6 .4-1.2 .3-1.2-.3 0-.5 .5-2.1 1-3.5 .8-2 .7-2.7-.5-3.2-1.3-.7-1.3-1.1 .5-2.8 1.5-1.5 2.1-3.5 2.4-8 .1-3.3 .4-7.9 .4-10.2 .2-3.1 .5-4.1 1.4-3.5 .9 .4 1 .3 .5-.5-.4-.7-1.1-1.1-1.7-.8-.5 .3-1.2-.5-1.4-1.7-.2-1.3-.1-2.8 .3-3.4 .3-.6 1.4-1.4 2.4-1.7 .9-.4 1.6-1.3 1.4-1.9-.2-.7 1.1-2.6 2.8-4.1 1.6-1.5 3.7-3 4.5-3.2 .8-.2 1.9-1.4 2.4-2.7 .7-1.9 .9-2 1.2-.5 .2 .9 2.1 2.4 4.2 3.2 2 .9 4.4 1.3 5.2 .9 .8-.4 2.3-.7 3.4-.8 1 0 2 .5 2.2 1.2 .3 .8 1.7 1 4.7 .7 2.3-.3 6.8-.8 10-1 3.4-.3 5.7-.1 5.7 .5 0 .6 .7 1 1.5 1 .8 0 1.5-.4 1.5-1 0-.5 .5-1 1-1 .6 0 .8 .5 .5 1-.3 .6 .2 1.6 1 2.3 .9 .6 1.6 1.8 1.5 2.5 0 .6 .7 1.2 1.5 1.2 .8 0 1.8 1.2 2.1 2.8 .4 1.5 1.5 3.8 2.4 5.2 .9 1.4 2.2 3.9 2.7 5.5 .6 1.8 .7 5.1 .3 8-.4 2.8-.4 5.8 .1 6.8 .5 .9 .7 2.2 .4 2.7-.3 .6 0 1 .5 1 .6 0 .7 1 .4 2.3-.3 1.2-.5 4.5-.5 7.2 .1 2.8 .7 5.6 1.4 6.4 .7 .8 1.2 2.5 1.2 3.8 0 1.7 1.3 3.5 4 5.6 2.2 1.8 4.9 4.2 6 5.5 1.7 1.9 3.1 2.3 9.3 2.5 5.2 .1 7.5 .6 8.2 1.7 .8 1.3 1 1.2 1-.2 0-1.6 .8-1.7 7-1.3 6 .4 7.1 .3 7.7-1.2 .4-1 1.4-2.3 2.2-3 .9-.7 2.4-1.3 3.4-1.3 .9 0 2.5-.4 3.5-.8 .9-.5 2.7-1.4 4-2 1.2-.7 2.9-1.2 3.7-1.2 .8 0 3.1-1.5 5-3.2 1.9-1.8 3.3-3.5 3.1-3.8-.2-.3 .5-1.4 1.6-2.5 1.4-1.5 1.8-1.6 1.8-.5 0 1.1 .4 .9 1.3-.5 .7-1.1 1.8-3.6 2.5-5.5 .6-1.9 1-5.5 .7-8-.2-2.5-.9-4.9-1.5-5.5-.5-.5-1-1.8-1-2.7 0-1-.7-2.5-1.5-3.3-.8-.8-1.3-2.2-1-3 .3-.8 .1-1.7-.5-2-.5-.3-1 .2-1 1 0 .8-.4 1.3-1 1-.5-.3-.7-1.5-.4-2.7 .5-1.9 .4-2-.6-.8-1 1.2-1.1 1.1-.6-.7 .4-1.5 .2-2.3-.6-2.3-.9 .1-.9-.4 .2-1.5 1.2-1.3 1.3-1.8 .2-2.8-.7-.7-1.2-1.5-1.2-1.9 0-.5 .7-.6 1.5-.3 1 .3 1.5-.2 1.5-1.5 0-1.1-.4-2-1-2-.5 0-1-.9-1-2 0-1.1 .7-2.2 1.5-2.5 1-.3 1.4-1.6 1.3-3.9-.2-2.6 .2-3.6 1.5-4 .9-.3 1.5-1 1.2-1.6-.3-.5 .2-1.7 1-2.5 .8-.8 1.5-3 1.5-4.7 .1-1.8 .7-5 1.5-7 .8-2.1 1.2-4 .8-4.2-.5-.2-.7-3-.5-6.3 .2-3.2 .7-5.2 1-4.6 .5 .8 1.4 .2 2.7-2 1.3-2.1 1.9-5.2 2-9.2 .1-3.3 .5-7.1 .9-8.5 .4-1.4 1.3-3.6 1.9-5 .7-1.3 2-3.2 3-4.2l1.7-1.8-1.7-1.4-1.8-1.5 2-.7c1.1-.4 2.5-1.3 3.1-1.8 .6-.6 1.6-2.1 2.2-3.3 .7-1.3 1.2-3.1 1.2-4 0-1 .9-3.4 1.9-5.3 1.3-2.3 1.6-4 1-5-.5-.8-.9-1.8-.9-2.2 0-.5 .7-.6 1.5-.3 .8 .3 1.5 .1 1.5-.5 0-.5-.4-1-1-1-.5 0-.3-1.1 .5-2.5 .8-1.4 2.2-2.5 3-2.5 .8 0 1.8-1 2.1-2.2 .4-1.3 .7-2.7 .8-3.3 .1-.5 .9-.9 1.9-.7 1.3 .1 1.5-.2 1-1.5-.7-1.5-.4-1.6 2.5-1 1.8 .4 5.1 .2 7.7-.5l4.4-1.3 2.8 2.8c1.5 1.5 3.3 2.7 3.8 2.7 .6 0 1.5-.8 2-1.7 .8-1.2 1.6-1.4 4-.6 2.3 .8 3.6 .6 5.5-.6 1.4-.8 4.1-1.6 6-1.7 1.9-.1 3.8-.2 4.3-.3 .4-.1 .7-.5 .7-1.1 0-.5 .9-1.9 2-3 1.1-1.1 2-2.7 2-3.5 0-.8 .6-1.5 1.3-1.5 .6 0 2.2-.9 3.5-2 1.2-1.1 2.5-1.8 3-1.4 .4 .3 1.3-1.7 2.1-4.3 .7-2.6 1.3-8.6 1.2-13.3-.1-4.7-.2-10.2-.1-12.2 0-2.5-.4-3.7-1.2-3.5-.7 .1-1.7-1.4-2.4-3.3-.7-1.9-2.3-4.6-3.6-5.9l-2.3-2.4 2.5 .8c2.1 .7 2.4 .6 1.8-.8-.5-.9-.8-2.5-.8-3.4 .1-1.5-.2-1.6-1.2-.6-.7 .7-1.6 1-2 .5-.5-.4-.2-1.3 .5-2 .9-1 .9-1.3 0-1.2-.8 0-1.1-.8-.8-2 .3-1.2-.3-2.8-1.5-4-1.1-1.1-1.8-2.6-1.5-3.2 .3-.7-.3-2.2-1.5-3.3-1.1-1.1-2.1-2.6-2-3.2 0-.7-.4-1.1-1-.8-.5 .3-1-.2-1-1 0-.8-.9-1.9-2-2.5-1.1-.5-2-1.7-2-2.5 0-.8-.7-1.7-1.5-2-.8-.3-1.3-.8-1.1-1.2 .2-.5-.1-1.5-.7-2.4-.7-.9-1.6-1.6-2.2-1.6-.5 0-1.4-1.6-2-3.6-.5-1.9-1.4-3.9-1.8-4.4-.5-.4-1.4-.8-2-.8-.7 0-1.6-1-2.2-2.3-.5-1.2-1.3-2.2-1.7-2.2-.5 0-.8-.7-.8-1.5 0-.8-.7-1.5-1.5-1.5-.8 0-1.5-.3-1.5-.7 0-.5 .4-1.2 1-1.8 .8-.7 .1-2.2-2.2-4.8-1.8-2-4.2-3.7-5.3-3.7-1.1 0-3.5-1.7-5.3-3.8-1.8-2-3.2-4.4-3.2-5.2 0-.8-.9-2.4-2-3.5-1.1-1.1-2.1-3-2-4.2 0-1.3-.4-2.3-1-2.3-.5 0-1.5-1.5-2.1-3.2-.7-2-2.3-3.9-4.3-4.9-1.8-.9-3.1-2.4-3.2-3.5 0-1-.4-2.8-.8-3.9-.4-1.1-1.2-2.8-1.7-3.7-.5-1-.9-2-.9-2.3l0-.5 1.5 .5c1 .3 1.3 0 1-1-.3-.8-.9-1.5-1.5-1.5-.5 0-.9-1.6-.7-3.5 .1-1.9 .7-3.5 1.2-3.5 .6 0 .2-.5-.7-1-1.3-.7-1.7-1.8-1.3-4.2l0.5-3.3-.5 1.3c-.3 .6-.9 1.2-1.5 1.2-.5 0-.7-.6-.3-1.2 .4-.7 .8-6.5 .9-12.8 .1-6.3-.2-11.9-.7-12.5-.5-.5-.7-2.3-.6-4 .2-1.6 .6-3.6 1-4.2 .4-.7 .3-1.3-.3-1.3-.5 0-.8-.6-.6-1.2 .3-.7-.1-1.9-.7-2.6-.9-1-.9-1.5 .3-2.2 1-.7 1.1-1 .3-1-.7 0-1.6-1.7-2-3.7-.3-2.1-.8-5.6-1-7.8-.2-2.2-.4-5.9-.6-8.3-.1-2.9-.6-4.1-1.4-3.7-.9 .3-1.4-.7-1.5-3.2-.2-3-.7-3.7-2-3.5-1 .1-1.7-.1-1.6-.5 .1-.5-.4-1.9-1.2-3.3-.8-1.4-1.3-3.3-1.2-4.2 .1-1-.5-1.8-1.3-1.8-.8 0-1.5-.6-1.6-1.2 0-.7-.2-2.6-.4-4.3-.2-1.6-.7-4.8-1.1-7-.3-2.2-1-4.6-1.5-5.2-.5-.7-.7-1.7-.4-2.3 .3-.5 .1-1.6-.4-2.2-.5-.7-1.2-3.5-1.6-6.3-.4-2.7-1.1-5.6-1.6-6.2-.5-.8-.5-2.1 .1-3.3 .8-1.7 .7-1.9-.7-1.2-1.4 .6-1.6 .3-1-1.3 .4-1.1 .3-2.6-.3-3.2-.5-.7-.8-2-.5-2.8 .3-.8 .2-1.5-.2-1.5-.5 0-.9-1.8-1-4-.2-2.2 .2-5.2 .9-6.7 .6-1.6 1.3-3.7 1.4-4.8 .1-1.1 .9-2.3 1.8-2.7 1.2-.6 1.3-1.2 .6-2.3-.7-1-.6-2.5 .3-4.6 .6-1.8 2.4-3.8 4-4.5 1.5-.8 2.5-1.9 2.1-2.6-.3-.7 .2-2.1 1-3 .9-1 1.6-2.1 1.6-2.5 .1-.5 1.4-2.4 3.1-4.3 1.6-1.9 2.9-4.5 2.9-5.7 0-1.3 .5-3.3 1.2-4.5 .6-1.3 1.2-4.5 1.3-7.3 .1-3.3-.4-5.6-1.4-6.8-.9-1-2.2-1.8-2.8-1.7-.7 0-1.3-.7-1.3-1.5 0-.8-.6-2.1-1.2-2.8-.7-.7-1.6-1.4-2-1.5-.5-.1-1.9-.2-3.3-.2-1.5 0-2.4-.5-2.1-1.2 .2-.7-.6-1.4-1.8-1.6-1.1-.1-3.9-.2-6.1-.2-2.2 0-4.6-.5-5.2-1-.9-.7-2.3-.2-4.5 1.6-1.8 1.5-4.8 3.3-6.5 4-1.8 .8-3.3 1.9-3.3 2.4 0 .6-.3 .9-.8 .8-.4-.2-2 .7-3.5 2-1.5 1.2-2.7 2.9-2.7 3.7 0 .8-.7 1.5-1.5 1.5-1 0-1.3 .6-.8 1.8l0.7 1.7-1.9-1.5-1.9-1.5 .7 1.8c0.4 1.1 .1 2.2-1 3.2-1 .8-2.1 1.5-2.5 1.5-.5 0-2.4 1.1-4.3 2.5-3.1 2.2-3.8 2.3-6 1.3-2.1-1.1-2.9-1-5 .2l-2.5 1.5-2-1.7c-1.1-1-2.4-1.6-3-1.3-.5 .3-.8 .8-.6 1.3 .3 .4 .2 1.3-.2 2-.5 .9-1.4 .6-3.4-1.3-1.6-1.4-3-2-3.3-1.5-.3 .6-.9 .8-1.5 .5-.5-.3-.8-.9-.5-1.5 .3-.5-.4-1-1.5-1-1.1 0-2.2-.4-2.5-1-.3-.6-2.5-.8-5.2-.4-2.7 .3-5.8 1.1-7.1 1.7-2.1 1.1-2.6 .9-4.3-1.3-1.1-1.4-1.7-1.8-1.4-1 .4 1.2-.6 1.5-6.2 1.4-3.8 0-7.4 .3-8 .8-.7 .4-2 .6-2.8 .3-.8-.3-1.5 0-1.5 .5 0 .6-1.5 1-3.2 1-1.8 0-6 0-9.3-.1-3.3 0-6.3-.2-6.7-.5-.5-.2-1 .1-1.3 .6-.3 .6-2.1 .2-4.5-1-2.2-1.1-4.7-2-5.5-2-.8 0-1.9-1.3-2.5-3-.5-1.6-1.6-3-2.2-3-.7-.1-2.2-.9-3.3-1.8-1.1-1-2.6-2.7-3.3-3.7-.7-1.1-1.5-2.8-1.7-3.7-.3-1-.9-1.8-1.5-1.8-.5 0-.8-.7-.5-1.5 .3-.9-.5-2.1-2-3-1.4-.8-2.5-1-2.5-.5 0 .6-.4 1-1 1-.5 0-.8-.7-.5-1.5 .3-.8-.1-1.5-.7-1.6-.7 0-4.3-.1-8-.2ZM2398.7 886.3c-.4-.5-.8-.1-.8 .7 0 .8 .4 1.2 .8 .8l0.8-.8-.8-.7ZM2612.7 901.3c-.4-.5-.8-.1-.8 .7 0 .8 .4 1.2 .8 .8l0.8-.8-.8-.7ZM2598.5 995c0.3 0 .7 .5 1 1 .3 .6 .1 1-.5 1-.5 0-1-.4-1-1 0-.5 .2-1 .5-1ZM1880.5 997.5c-1.4 0-2.5 .6-2.5 1.3 0 .6-.6 1.3-1.2 1.3-.7 .1-3.2 .2-5.5 .3-2.4 0-4.3-.2-4.3-.6 0-.5-1-.6-2.2-.3-1.3 .3-4.3 .7-6.8 .9-2.5 .3-5.3 0-6.2-.5-1.2-.6-2.4-.5-3.5 .4-.9 .6-3.5 1.2-5.8 1.2-2.3 0-4.8 .5-5.6 1.2-.8 .6-3.4 1.1-5.9 1.1-2.5 0-5.8 .4-7.5 .8-2.2 .6-2.8 .5-2.2-.4 .4-.7 .3-1.2-.3-1.2-.5 0-1 .5-1 1l0 1-2-1-2-1-.5 1c-.3 .6-3.1 .8-7 .5-4-.3-6.5-.1-6.5 .5 0 .6-1.1 .8-2.5 .5-1.4-.3-2.5-.2-2.5 .3 0 .4-1.3 .5-2.8 .3-1.9-.4-2.5-.1-1.9 .7 .5 .9-.6 1.1-4 .9-2.7-.2-6.1 .2-7.8 1-1.6 .7-3.2 1-3.5 .8-.3-.3-1.6-.7-3-.9-1.7-.3-3.5 .5-5.7 2.5-1.8 1.6-3.6 2.6-4 2.3-.5-.3-.1-.9 .7-1.4 1.1-.6 .8-.8-1.2-.9-1.6-.1-2.8 .4-2.8 .9 0 .6-.7 .8-1.5 .5-.8-.3-1.7 .1-1.9 .8-.3 .6-.5 .4-.5-.5l-.1-1.8-2.2 2c-1.3 1.1-2.9 2-3.5 2-.7 0-1.3 .5-1.3 1 0 .6-1.2 .7-2.7 .4-1.6-.3-3.6-.8-4.5-1-1.1-.2-1.8 .2-1.8 1.1 0 .8-1 1.7-2.2 1.9-1.3 .2-3.1-.1-4-.5-1.3-.6-2.2-.4-3.2 .9-.8 1-3.5 2-6.5 2.5-3.9 .5-5.2 1.2-5.6 2.7-.3 1.1-.9 2-1.5 2-.5 0-.7-.6-.4-1.2 .3-.7-.2-.4-1.1 .7-1.1 1.4-3 2.1-6.3 2.3-2.6 .1-5.4 .9-6.2 1.7-.8 .8-2.1 1.5-2.7 1.5-.7 0-1.4 .4-1.5 1-.2 .5-1.2 1.1-2.3 1.3-1.1 .2-2.9 .7-4 1.1-1.1 .4-2.7 1.2-3.5 1.7-.8 .5-3.9 2.1-6.9 3.7-2.9 1.5-5.5 3-5.7 3.5l-.4 .7-2-.7c-1.5-.6-2.7 0-5.2 3-1.8 2.1-3.9 3.6-4.5 3.3-.8-.4-1.5 .3-1.8 1.4-.4 1.7-.8 1.8-2.2 .8-1-.7-1.5-.9-1-.5 .4 .4-.2 1.6-1.3 2.7-1.1 1.1-2.4 1.8-3 1.5-.5-.3-1 0-1 .5 0 .6-.9 1-2 1-1.1 0-1.9 .3-1.9 .8l0.1 .7-.1 1.3c0 .6-1.3 1.7-2.8 2.4-1.6 .7-3.3 1.2-3.9 1.2-.6 .1-1.8 .7-2.7 1.4-1 .6-2.1 1-2.7 .7-.6-.3-.8 .5-.5 2 .4 1.9 .1 2.4-1 2-1-.3-1.6 .3-1.8 1.8-.1 1.2-.8 2.1-1.5 2-.6-.2-1.2 .3-1.2 1-.1 .6-1.5 2.4-3.3 3.9-1.8 1.5-4 2.8-4.9 2.8-1 0-1.8 .3-1.8 .8 0 .4-1 1.2-2.2 1.7-1.3 .6-2.2 1.6-2 2.3 .1 .7-.7 2.6-1.8 4.2-1.1 1.7-1.9 3.3-1.9 3.8 .1 .4 .1 1.2 0 1.7-.1 .6-.5 .3-1-.5-.5-.8-1.3-1.2-1.7-.9-.5 .4-1.2 1.9-1.5 3.5-.4 1.6-1.9 4-3.3 5.4-1.5 1.4-3.4 3.9-4.2 5.5-1.3 2.5-1.3 3.1-.2 3.7 1 .6 .8 .8-.4 .8-1 0-1.8 .8-1.8 1.8 0 .9-1.7 3.8-3.8 6.5-2 2.6-3.9 4.7-4.2 4.7-.3 0-1 1.7-1.6 3.7-.7 2.1-1.1 5.6-.9 7.8 .1 2.2 .5 5 .9 6.3 .3 1.2 .2 2.4-.4 2.7-.7 .3-.6 .9 .1 1.8 .5 .6 .9 2.6 .7 4.3-.2 1.8 0 3 .5 2.8 .4-.2 .7 1.1 .7 2.9 0 1.7 .1 4 .2 5 .2 1 1.2 1.7 2.6 1.7 1.5 0 2 .5 1.7 1.5-.3 .8-.5 1.7-.5 2l0 .5-1-.5c-.5-.3-1-.2-1 .3-.1 .4 .6 1.3 1.5 2 .8 .6 2.4 1 3.5 .7 1.5-.4 2.4 .3 3.5 2.5 .8 1.7 1.4 3.8 1.3 4.7-.2 1.2 .6 1.9 2.7 2.4 1.7 .4 2.4 .7 1.8 .8-.9 .1-1.1 1.1-.7 3.4 .3 1.7 .8 3.7 1.2 4.2 .3 .6 .8 .2 1.1-.8 .3-.9 1.2 2.7 1.9 8l1.3 9.8-1.3 1.4c-1.1 1.2-1 1.4 .5 .8 .9-.4 1.7-.5 1.7-.2 0 .3-.9 1.9-2 3.5-1.1 1.7-1.8 3.6-1.6 4.3 .3 .6-.4 2.2-1.5 3.5-1.3 1.5-2 4.1-2.3 8.5-.2 3.4-.7 7.1-1 8.2-.4 1.1-1.9 2.6-3.4 3.3-1.5 .7-2.3 1.6-1.7 2 .6 .4 1.1 2.1 1.2 3.7 .1 1.7-.4 3.7-1.2 4.5-1.2 1.3-1.2 1.9 0 4.3 .8 1.5 1.3 3.2 1 3.7-.3 .6-1.2 1-2 1-1 0-1.7 1.3-2.1 3.8-.3 2-.1 4.2 .4 4.7 .7 .7 .5 2.2-.5 4.5-.9 2.1-1.2 4.8-.9 6.8 .4 1.8 .2 3.2-.4 3.2-.5 0-1 1.1-1 2.5 0 1.4 .5 2.4 1.2 2.3 .6-.2 1.3 .9 1.5 2.5 .2 1.9-.2 2.7-1.2 2.7-.9 0-1.5 .9-1.5 2.3 0 1.2 .6 3.6 1.4 5.2 1.1 2.3 1.2 3.7 .4 6-.5 1.7-.7 3.7-.2 4.5 .4 .8 .8 7.8 1 15.5 .2 9.5 .7 15.4 1.8 18.5 .9 2.5 1.6 5.5 1.6 6.8 0 1.2-.4 2.2-1 2.2-.5 0-1 .5-1 1 0 .6 .7 1.7 1.5 2.5 .8 .8 2 1.3 2.5 1 .6-.3 1.2 .3 1.4 1.3 .3 .9 .8 3.5 1.2 5.7 .4 2.2 .9 4.5 1.2 5 .3 .6 .5 2.9 .4 5.3-.1 2.8 .5 5.2 1.8 7.2 1.1 1.7 1.8 3.3 1.5 3.8-.3 .4 .5 1.7 1.7 2.9 1.5 1.5 2 2.8 1.6 3.8-.5 .9-.2 2 .7 2.8 .9 .6 1.6 2.6 1.5 4.2 0 1.7 .3 2.7 .7 2.3 .5-.5 1.4-.2 2.1 .5l1.2 1.2-1.2 1.3c-1.1 1-.8 1.6 1.5 3.2 1.5 1.1 2.7 2.7 2.7 3.5 0 .8 .5 1.5 1 1.5 .6 0 1.5 2.5 2 5.5 .6 3 .8 6 .5 6.5-.3 .6 0 1.2 .5 1.5 .6 .3 1.2 .1 1.5-.5 .3-.5 1-1 1.5-1 .6 0 1 1.1 1 2.5 0 1.6 .6 2.5 1.5 2.5 .8 0 1.7 .7 2 1.5 .3 .8 1.1 1.5 1.8 1.5 .6 0 2.2 2.2 3.4 4.8 1.3 2.6 2.3 5.5 2.3 6.5 0 .9 .7 1.7 1.5 1.7 .8 0 2.2 1.1 3 2.5 .8 1.4 1.3 3 1 3.5-.3 .6 .2 .8 1 .5 .9-.3 1.9 .4 2.5 1.5 .6 1.1 3.1 4.2 5.8 6.8 2.6 2.6 6.1 6.3 7.7 8.2 1.7 1.9 3.2 4.4 3.3 5.5 .2 1.1 .6 2.2 .9 2.5 .2 .3 .7-.1 1.1-.8 .5-.9 1.3-.6 2.8 1 1.2 1.3 2.9 3.5 3.8 5.1 1 1.6 2.2 2.5 3.1 2.2 .9-.3 1.9 .4 2.5 2 .6 1.4 1.5 2.7 2 3 .6 .3 1-.1 1-.7 0-.7 .8 .3 1.7 2.2 1 1.9 2.4 3.9 3.3 4.4 .8 .5 3 2.4 4.8 4.3 1.7 1.8 3.5 3.3 4 3.3 .4 0 2.3 1.6 4.2 3.5 1.9 1.9 4.1 3.5 4.8 3.5 .6 0 1.4 1.4 1.7 3 .3 1.7 .8 2.8 1.3 2.5 .4-.2 1.6 .4 2.7 1.6 1.1 1.1 2.6 1.7 3.3 1.4 .7-.3 1.1 .2 1 1.3-.2 1.2 .4 1.7 1.9 1.7 1.3 0 2.3 .3 2.3 .8 0 .4 1.6 .7 3.5 .7 1.9 0 5.8 1.2 8.6 2.8 2.9 1.5 5.5 3.4 6 4.2 .5 1 .8 1.1 .9 .3 0-.7 .5-1.3 1-1.3 .6 0 1 .6 1 1.3 0 .6 1.1 2.4 2.5 4 1.4 1.5 3.2 2.5 4 2.2 .8-.3 1.5-.2 1.5 .3-.1 .4 1.4 1.3 3.2 2 1.8 .8 4.5 2 6.1 2.8 1.5 .8 3.6 1.4 4.7 1.4 1.1 0 2.3 .6 2.8 1.3 .4 .8 1.9 1.7 3.5 2 1.7 .5 2.5 .3 2.2-.3-.3-.5 .6-1 2-1 1.4 0 2.5 .5 2.5 1 0 .6 2.8 1.3 6.3 1.6 3.4 .3 8.2 1.2 10.7 2.1 2.5 .8 6.2 1.5 8.3 1.6 2 .1 3.7 .5 3.7 1 0 .4 1.2 .4 2.8 .1 1.9-.4 3.3 0 4.5 1.3 1.2 1.1 3 1.7 4.8 1.6 1.6-.2 3.9 .4 5.2 1.2 1.2 .9 3.3 1.4 4.7 1.3l2.5-.3-3-1.8-3-1.7 4 .6c2.2 .3 4.5 1.2 5 2 .7 1 1.8 1.1 4 .4 1.7-.4 3.9-.6 5-.4 1.1 .2 4.8 .5 8.2 .6 3.5 .2 6.3 0 6.3-.4 0-.5-.6-.8-1.2-.8-.7 0-1.1-.2-.8-.5 .3-.3 1.7-.6 3.2-.8 1.7-.1 2.8 .3 2.8 1.1 0 .7 .8 1 2 .7 1.1-.3 2 0 2 .5l0 1 2-1c1.1-.5 2.5-.8 3-.5 .6 .3 2-.2 3.3-1 1.2-.8 2.5-1.5 3-1.5 .4 0 .5 .7 .2 1.5-.3 .8 .1 1.5 .8 1.5 .8 0 .7 .3-.3 1-.8 .5-1.2 1.1-.7 1.4 .4 .3 1.6 0 2.7-.6 1.1-.7 2-1.9 2-2.5 0-.7 .3-1.3 .8-1.3 .4 0 2.7 .7 5.2 1.5 3.1 1.1 4.8 1.2 5.5 .5 .6-.6 2.2-1 3.8-1 1.5 0 3.6 .6 4.7 1.3 1.5 .9 2.2 .9 3.2 0 1-.9 2.2-.8 5.3 .4 2.7 1.1 5.4 1.4 8.5 1l4.5-.7-2 1.6-2 1.5 3-.7c1.7-.4 4.6-1.7 6.5-2.8 1.9-1.1 4.9-2 6.5-2 1.7 0 3.5 .3 4 .6 .6 .4 2.5-.6 4.3-2.3 2.4-2.2 3.8-2.7 5.5-2.2 1.7 .5 2 .3 1.5-.8-.4-.8-.1-2 .5-2.7 .7-.7 2.2-1.2 3.5-1.2 1.5 0 2.2-.6 2.2-2 0-1.2 .9-2.2 2.3-2.6 1.2-.4 3.2-.7 4.5-.8 1.3 0 2.9-.9 3.5-1.9 .7-.9 1.9-1.5 2.7-1.1 .8 .3 1.8-.2 2.3-1 .4-.9 1.2-1.6 1.7-1.6 .6 0 .8 .7 .5 1.5l-.5 1.5 .5 0c0.3 0 1.4-1 2.5-2.2l1.9-2.3 .1 2c0 1.2 .3 1.6 .8 .9 .4-.6 1.7-1.4 3-1.8 1.2-.3 2.2-.2 2.2 .4 0 .6 .9 .8 2 .5 1.1-.3 2-1.2 2-2 0-1.3 .4-1.3 2.5-.2 2.1 1 3.1 .9 6.2-.6 2.7-1.4 5-1.7 8.1-1.3 3.5 .5 4.2 .3 4.3-1.1 0-1 .2-1.2 .5-.5 .2 .6 .9 1.2 1.4 1.2 .6 0 .8-.7 .5-1.5-.3-.8 .2-1.7 1-2 .8-.3 1.7 .1 2 .8l0.5 1.2 .5-1.2c0.3-.7 1-1.1 1.5-.8 .6 .3 .8-.4 .5-1.7l-.5-2.3 .5 1.3c0.3 .6 1 1.2 1.5 1.2 .6 0 1-.8 1-1.7l0.1-1.8 1.2 1.8c1.1 1.5 1.3 1.6 2.5 .2 .7-.9 .9-2.4 .5-3.7-.4-1.4-.3-2 .3-1.6 .5 .4 2.5-.8 4.4-2.7 2.4-2.4 3.7-3.1 4.1-2.3 .5 .9 1.3 .7 2.8-.9 1.1-1.3 2.2-3.1 2.4-4 .1-1 1.6-2.2 3.4-2.8 2.1-.6 3.8-2 4.5-3.8 .7-1.5 1.9-2.8 2.6-2.7 .6 0 2.1-2 3.2-4.5 1.4-3.1 2.5-4.3 3.5-4 1 .3 1.7-.3 2-2 .3-1.4 1-2.5 1.5-2.5 .6 0 1-.7 1-1.5 0-.8 .5-1.5 1-1.5 .6 0 1-.7 1-1.5 0-.8 .5-1.5 1-1.5 .6 0 .8-.4 .5-1-.3-.5 .4-1 1.5-1 1.1 0 1.8-.5 1.6-1.2-.2-.7-.9-1.2-1.5-1-.6 .1-1.1-.2-1.1-.8 0-.5 .9-1 2-1 1.1 0 2-.7 2-1.5 0-.8 1.1-2.5 2.5-3.7 1.4-1.3 2.5-2.6 2.5-3l0-.8-1.7 .8c-1.4 .6-1.5 .3-.8-1.8 .4-1.4 1.2-2.6 1.6-2.7 .5-.2 .9-1 .9-1.8 0-.8 .6-1.4 1.3-1.2 .6 .1 1.3-.5 1.3-1.3 .1-.8 .5-2.5 .8-3.7 .4-1.5 1.1-2.1 2.1-1.8 .9 .3 1.5-.1 1.5-1 0-.8-.6-1.7-1.2-1.8-1-.3-.9-.8 .2-2.2 .8-1 2.5-2.2 3.8-2.6 1.2-.5 2.2-1.7 2.2-2.6 0-1 .6-2.7 1.4-3.8 .8-1.1 1.2-2.6 1-3.2-.2-.7 .1-1.3 .6-1.3 .6 0 .8-.9 .5-2-.3-1.1 0-2.2 .5-2.5 .6-.3 1 .3 1 1.3 0 1.4 .2 1.5 1.2 .3 1-1.1 1-1.4 .1-1.7-.7-.2-1.3-.8-1.3-1.4 0-.5 .5-.8 1-.5 .6 .3 1-.1 1-.7 0-.7-.3-1.6-.7-2-.4-.4-1.3 0-2 1-.7 1-1.2 1.2-1.3 .5 0-.7 .9-2.1 1.9-3 1.1-1 2.1-2.5 2.3-3.3 .2-.8 .9-2 1.6-2.7 .6-.7 1.7-1.1 2.2-.8 .6 .3 1.1-.7 1.1-2.2 .1-1.6 .1-3 .1-3.3 0-.3-.4-1.4-.9-2.5-.7-1.6-.5-1.8 1-1.2 1.4 .6 1.6 .3 1-1.5-.5-1.9-.4-2.1 .7-1.3 1.2 .8 1.3 .5 .8-1.5-.4-1.4-.4-4.4 0-6.7 .4-2.4 1.1-3.9 1.7-3.5 .6 .4 .7 .2 .2-.5-.4-.8 .1-2.1 1.3-3.3 1.1-1.1 2.1-3.5 2.2-5.2l0.1-3.3-.1-2.7c-.2-1.9 .2-2.6 1.1-2.3 .8 .3 1.2-.4 1.2-2.2 0-1.6 .5-3.9 1.2-5.3 .7-1.4 .9-3.8 .5-5.5-.4-1.8-.2-2.8 .3-2.4 .6 .4 .7-.9 .3-3.5-.5-3-.3-4.3 .8-4.8 .8-.5 1.4-1.2 1.4-1.8 0-.5-.8-1-1.7-1-1.5-.1-1.3-.5 .7-2.3 1.4-1.2 2.9-3 3.3-3.9 .5-1.4 .3-1.7-1-1.2-1 .3-2.1 .1-2.5-.5-.5-.6-.2-1.3 .5-1.6 .7-.3 1-1.7 .8-3.3-.4-2.2-.2-2.6 1.2-1.9 1.4 .6 1.6 .3 1.3-1.5-.3-1.3-.5-2.3-.6-2.3-.1 0-.3-1.2-.6-2.7-.2-1.7 .1-2.9 .9-3.2 .9-.2 1.2-3.6 1-12.7-.1-6.8-.2-12.4-.3-12.4-.1 0-.3-3.1-.5-7-.1-3.8 .1-7.2 .6-7.5 .4-.3 1-1.7 1.3-3.2 .4-2 0-3.4-1.4-4.8-1.1-1.1-1.5-2-1-2 .6 0 1.5-1.1 2-2.5 .6-1.4 .7-3.1 .3-3.7-.4-.7-.8-1.6-.8-2 0-.3-.4-1-.9-1.5-.5-.5-.6 .1-.2 1.5 .4 1.4 .2 2.2-.6 2.2-1 0-1.1-1-.5-4 .4-2.4 .3-4.2-.3-4.5-.5-.3-1-2.2-1-4.2 0-2.1-.6-5.6-1.2-7.8-.7-2.2-1.9-4.8-2.8-5.8-.8-1-1.6-2.5-1.8-3.5-.1-.9-.5-3.9-.9-6.7-.3-3.1-1.3-5.6-2.4-6.5-1.4-1.2-1.6-1.8-.6-2.7 .9-1 .8-1.4-.5-1.8-1.1-.3-1.8-1.5-1.8-3 0-1.4-1.1-3.7-2.5-5.2-1.3-1.6-2.1-3.1-1.7-3.5 .4-.4-.4-2.3-1.8-4.3-1.4-1.9-3.1-3.3-3.7-3-.8 .3-1.2-.2-1.1-1.2 0-1 0-2.7-.1-3.8-.1-1.7-.3-1.8-1.1-.5-.8 1.3-1 1.2-1-.2 0-1 .6-1.8 1.3-1.8 .6 0 .4-.5-.5-1-1-.6-1.8-1.9-1.8-3 0-1.1-2-4.1-4.5-6.7-2.5-2.7-4.5-5.4-4.5-6 0-.7-2.7-3.9-5.9-7-3.2-3.2-7-6.5-8.3-7.4-1.4-1-2.2-2.5-2-3.8 .1-1.3-.4-2.1-1.3-2.1-.8 0-1.7-.9-2-2-.3-1.1-1.8-2.6-3.5-3.2-2-.9-3.4-2.6-4.5-5.3-.8-2.2-1.5-4.7-1.5-5.5 0-.8-.4-1.9-1-2.5-.5-.5-1.3-2.6-1.6-4.5-.4-1.9-.6-5.2-.5-7.2 0-2.1-.3-3.8-.9-3.8-.5 0-.3-1.2 .5-2.7 .8-1.6 1.5-3.4 1.5-4 0-.7 .6-1.5 1.3-1.7 .9-.3 .9-.7 .1-1.3-.6-.4-1.1-2.3-1-4 0-1.8 .4-3.3 .9-3.3 .4 0 .7-1.8 .7-4 0-2.3 .8-5.2 2-7 1.5-2.2 1.9-4.1 1.5-7-.3-2.8-.1-4 .8-4 .8 0 .9-.3 .1-.8-.6-.4-1.5-2.9-1.9-5.7-.5-2.7-1-5.6-1.2-6.2-.1-.7 .2-1.3 .7-1.3 .6 0 1-1.3 1-3 0-2.5-.3-2.9-2-2.5-1.5 .4-2.3-.2-3-2.2-.6-1.6-.9-3.2-.7-3.8 .3-.5 0-2.1-.6-3.5-.5-1.4-.9-3.3-.9-4.2 .1-1-.5-1.8-1.3-1.8-.8 0-1.7-.7-2-1.5-.3-.8-1.2-1.5-2-1.5-.9 0-1.3-.6-1-1.5 .3-.9-.1-1.5-1-1.5-1 0-1.3-.6-.9-1.7 .5-1.5 .3-1.6-.8-.6-.7 .6-1.8 .9-2.4 .5-.6-.4-1.9-2.2-3-4-1-1.8-3.8-4.6-6.1-6.2-2.4-1.7-4.9-3-5.5-3-.7 0-2.3-1.1-3.5-2.5-1.3-1.4-3-2.5-3.8-2.5-.8 0-3.4-1.1-5.7-2.5-2.4-1.4-5.1-2.3-6-2-1 .3-2 .1-2.3-.5-.3-.5 .3-1 1.3-1.1 1.4 0 1.4-.2-.3-.9-1.1-.5-3.2-.7-4.7-.4-2.2 .3-2.9-.1-3.3-1.6-.4-1.5-1.1-1.9-3-1.5-1.4 .3-2.5 .1-2.5-.5 0-.5-.4-1-1-1-.5 0-.8 .5-.5 1l0.5 1-.5 0c-.3 0-2.3-1.1-4.5-2.5-2.2-1.4-5.2-3-6.7-3.7-1.6-.6-4.8-1.2-7.3-1.3-2.5-.1-5.5-.3-6.7-.4-1.3 0-2.1-.5-1.8-1.1 .3-.5-.1-.9-.7-.9l-1.3 .1-2.7-.1c-1.6 0-3.5-.8-4.3-1.6-.8-.8-2.4-1.5-3.5-1.5-1.1 0-2.8 .6-3.9 1.3-1.6 1-2.3 .8-4.7-1.1-2.1-1.5-3.3-1.9-4.1-1.2-.7 .5-2.9 .8-4.8 .5-1.9-.3-3.6-.9-3.7-1.4-.2-.6-2.3-.5-5.1 .2-3.7 .9-5 .9-5.5 0-.4-.6-2.7-1.4-5.2-1.7l-4.5-.6 2 1.5 2 1.5-5-.5c-2.7-.2-5.6-1-6.3-1.7-.9-.8-1.6-.9-2-.3-.4 .6-3.1 1.1-5.9 1.3-3.7 .1-5.3-.2-5.3-1 0-.7-1.1-1.3-2.5-1.3ZM1842 998.9c-.8 0-1.2 .4-.7 .8l0.7 .8 .8-.8c0.4-.4 0-.8-.8-.8ZM1850.5 1001c0.3 0 .7 .5 1 1 .3 .6 .1 1-.5 1-.5 0-1-.4-1-1 0-.5 .2-1 .5-1ZM1939.7 1001.3c-.4-.5-.8-.1-.8 .7 0 .8 .4 1.2 .8 .8l0.8-.8-.8-.7ZM963.5 1016.6c-1.6-.3-3.7-.1-4.5 .4-.8 .5-2.7 1-4.2 1-1.6 0-3 .7-3.3 1.5-.4 1.1-1.5 1.4-4 1-2.2-.3-3.3-.1-3 .5 .3 .6-.2 1-1 1-.8 0-2.2 .7-3 1.5-.8 .8-2.1 1.2-2.7 .8-1-.6-1-.4-.3 .6 .8 1.2 .5 1.3-1.5 .7-1.7-.5-2-.4-1 .2 1.2 .8 1 1.1-1 1.7-1.4 .4-2.8 .8-3.2 .9-.3 0-2.2 1.5-4.2 3.1-1.9 1.7-3.8 2.8-4.1 2.5-.4-.3-.3 .4 .2 1.5 .5 1.5 .4 1.8-.5 1.3-.6-.5-1.2-.3-1.2 .2 0 .6-1.1 1.5-2.5 2-1.4 .6-2.4 1.3-2.4 1.8 .1 .4 .1 1.4 0 2.2 0 .8-.3 1.2-.6 .8-.3-.5-1.6 .4-3 2-1.9 2-2.2 2.9-1.3 3.3 .7 .4 1 1.2 .6 1.8-.5 .6-1.8 1.6-3 2.3l-2.3 1.2 .8-2 .9-1.9-1.7 1.5c-1.1 .9-1.3 1.6-.6 1.8 .6 .1 1.1 1.1 1.1 2.2 0 1.1-.4 1.8-1 1.5-.5-.3-1.2 0-1.5 .5-.3 .6-.2 1.2 .3 1.4 .4 .2 .6 2 .5 4-.2 2.6-.8 3.7-2.3 4.1-1.2 .3-1.8 1.1-1.5 2 .3 .8 .2 2.1-.2 2.8-.4 .6-.6 2.2-.5 3.5 .1 1.2-.2 3.1-.8 4.2-.7 1.5-.7 1.8 .2 1.3 .8-.6 1 .4 .7 3.4-.2 2.4-.1 4.3 .4 4.3 .4 0 .5 2.4 .2 5.3-.2 2.8 0 6.8 .6 8.7 .6 1.9 1.3 6 1.5 9 .2 3 .5 6.7 .6 8.3 .2 1.5 .8 3.1 1.4 3.5 .5 .4 1.8 2.4 2.7 4.5 .9 2 2.2 3.9 2.7 4.2 .6 .3 1 1.4 1 2.5 0 1.1 .5 2 1 2 .6 0 1 .7 1 1.5 0 .8 .7 1.5 1.5 1.5 .8 0 1.8 1 2.1 2.3 .4 1.3 .1 2.5-.8 2.9-.9 .6-1 .8 0 .8 .6 0 1.2 .7 1.2 1.5 0 .8 .5 1.3 1 1 .6-.3 1 .4 1 1.5 0 1.1 .5 2 1 2 .6 0 1.3 1 1.6 2.3 .3 1.2 .6 2.7 .5 3.2-.1 .6 .8 1.6 1.9 2.3 1.7 1 1.9 1.9 1.5 6.7l-.5 5.5 2-.5c1.2-.3 2 0 2 .8 0 .6 1 1.7 2.2 2.2 1.3 .6 2.3 1.5 2.2 2 0 .6 1 1.9 2.4 3 1.3 1.1 2.1 2.6 1.8 3.3-.3 .6-.1 1.1 .5 1 .6-.2 1.3 .4 1.4 1.2 .2 .8 .6 2.7 .9 4.3 .3 1.5 .2 2.7-.4 2.7-.6 0-.5 1 .3 2.4 .6 1.4 1.4 2.4 1.7 2.3 .3-.1 1.5 .7 2.8 1.8 1.2 1.1 2.2 2.3 2.2 2.8 0 .4-.3 .5-.7 .3-.5-.2-.8 .3-.9 1.2 0 1 .4 2.2 1 2.7 .6 .6 2.5 1.7 4.1 2.5 1.7 .8 3.3 1.9 3.6 2.5 .4 .5 .1 2.1-.7 3.5-1 1.9-1.1 2.7-.1 3.3 .9 .5 .9 .9 0 1.5-.7 .4-1.5 2.1-1.9 3.7-.4 2-.2 3.3 .7 3.9 .9 .7 1.5 .6 1.7-.2 .1-.7 .7-1.2 1.2-1.2 .6 0 .8 .9 .5 2-.3 1.1-.9 1.8-1.5 1.5-.5-.3-1.7 .1-2.5 .8-1.3 1-1.6 .9-1.5-.5 0-1-.4-1.8-1-1.8-.5 0-1 .6-1 1.3 0 .9-1.7 1-7.2 .5-4-.4-7.5-1.2-7.8-1.7-.3-.4-1.6-1.2-3-1.7-1.4-.4-3.3-.7-4.2-.6-1 .1-1.7-.4-1.5-1l0.4-1.3-.4 .8c-.1 .4-.7 .7-1.3 .7-.5 0-.7-.8-.4-1.7 .5-1.4 .2-1.6-1-1-.9 .4-1.8 .3-2.1-.3l-.5-1-1.5 1c-1.2 .8-1.7 .4-2.5-1.5-.8-2.1-1.6-2.5-4.7-2.4-2.8 0-4.2-.5-5.3-2-.8-1.2-2.4-2.3-3.5-2.5-1.1-.2-2.9-.8-4-1.4-1.1-.6-1.8-1.4-1.6-1.9 .3-.4-.6-1-2-1.3-1.3-.3-4-1.3-5.9-2.4-1.9-1-4.4-2.6-5.4-3.5-1.4-1.2-2-1.3-2.2-.3-.2 .6-1.1 1.2-1.9 1.2-.8 0-1.5-.4-1.5-1 0-.5-.7-.8-1.5-.5-.8 .3-2.2-.2-3-1-.8-.8-1.7-1.5-2-1.5-.3 0-1.5-.9-2.7-2.1-1.3-1.1-3-1.8-4-1.5-1 .4-2 .2-2.3-.4-.3-.5-1.3-.8-2.2-.5-1 .3-2.2 0-2.8-.5-.5-.6-3.2-1.3-6-1.6-2.7-.3-6.1-.6-7.5-.6-1.4 0-3.1-.5-3.8-1.1-1-.9-1.5-.9-2 0-.5 1-1.7 .8-4.7-.7-2.2-1.1-4.6-2-5.2-2-.7 0-1.5 .9-1.8 2-.3 1.1-1.2 2-2 2-.8 0-1.5 .5-1.5 1 0 .6-1 .7-2.2 .4-1.9-.5-2-.8-.8-1.5 .8-.5 1.3-.9 1-.9-.3 0-1.8 .6-3.5 1.5-1.6 .8-3.7 1.5-4.5 1.5-.8 0-2.6 1.1-4 2.5-1.4 1.4-2.9 2.6-3.5 2.6-.5 0-1.8 .7-2.8 1.7-1.1 1.1-1.8 1.3-1.7 .5 0-1-.5-1-2-.3-1.1 .6-2.9 2.5-3.9 4.3-1.1 1.7-1.7 3.6-1.3 4.2 .4 .5-.3 .7-1.8 .3-2-.5-3.2 0-5.8 2.5-2 2-3 3.8-2.7 5 .4 1.3 .1 1.5-1.2 1l-1.8-.7 1.5 1.8c1.1 1.3 1.2 1.9 .3 2.4-.7 .4-1 1.9-.8 3.5 .4 2 0 3-1.5 3.7-1.1 .6-1.8 1.6-1.5 2.5 .3 1-.2 1.5-1.5 1.5-1.1 0-2 .7-2 1.5 0 .8-.4 1.3-1 1-.5-.3-1.2 .2-1.5 1-.3 .8 .2 2.2 1 3 1.1 1.1 1.2 1.7 .4 2.3-.6 .4-.8 1.5-.5 2.5 .3 1 0 2-.8 2.5-1.2 .5-1.3 1.6-.6 4.7 .5 2.2 .6 4.2 .2 4.5-.4 .3-.7 1.9-.6 3.5 0 2.4 .4 2.9 2 2.6l1.9-.3-1.7 1.8c-1 1.1-1.8 2.5-1.8 3.2 0 .6 .7 1 1.5 .7 1.1-.4 1.4 .1 1.3 1.8-.1 1.2 .4 3.6 1.1 5.2 .7 1.7 1 3.8 .7 4.8-.3 .9-.1 1.7 .4 1.7 .6 0 1-.4 1-1 0-.5 .8-.2 1.8 .8 .9 .9 1.8 2.7 2 4 .1 1.5-.3 2.2-1.5 2.3-1.5 0-1.4 .3 .5 1.7 1.3 .9 2.3 2.3 2.2 3 0 .6 .9 1.7 2 2.2 1.1 .6 2 .7 2 .3-.1-.5 .6-.1 1.5 .7l1.6 1.5-1.5 .8c-.9 .4-1.6 1-1.6 1.5 0 .4 1.4 .6 3 .5 2.2-.2 3.9 .5 6.3 2.7 2 1.9 3.9 2.9 5 2.5 .9-.3 1.7 0 1.7 .5 0 .6 .7 1 1.5 1 .8 0 1.5 .5 1.5 1 0 .6 1.2 1.6 2.8 2.4 1.5 .7 3.3 1.2 4 1 .6-.2 1.2 .1 1.2 .6 0 .6 1.1 1 2.5 1 1.4 0 2.3 .5 2 1-.3 .6 .2 1.7 1 2.5 .8 .8 2.2 1.5 3 1.5 .8 0 1.7 .6 2 1.3l0.5 1.2 .5-1.2c0.4-1 1.1-1 3 .2 1.4 .8 3.3 1.3 4.3 1 .9-.3 2.4 .1 3.2 1 .8 .9 2.6 1.8 4 2 1.4 .3 3.4 1.4 4.5 2.5 1.7 1.8 1.8 2.2 .5 2.9-1.2 .7-.7 1.1 1.8 2 1.7 .6 3.2 1.6 3.2 2.1l0 1 2-1c1.4-.7 2.7-.6 4.2 .3 1.2 .6 2.8 1.8 3.5 2.5 .7 .6 1.8 1.2 2.3 1.2 .6 0 .8-.7 .5-1.5-.3-.8 0-1.5 .5-1.5 .6 0 1.7 .7 2.5 1.5 .8 .8 2.2 1.3 3 1 .9-.3 1.5 .1 1.5 1 0 .8 1.4 2 3 2.5 1.9 .6 4.1 .7 6.3 0 1.7-.5 3.5-.7 4-.5l0.7 .5-.7 1.2c-.5 .8-.3 1 .7 .6 .8-.3 2.3 .2 3.2 1.1 1.4 1.3 2.1 1.4 3.3 .4 1.3-1.1 1.5-.9 1.8 1 .2 1.9 .7 2.2 4.5 2 3.2-.2 4.2 .1 4.2 1.2 0 .8 1 1.6 2.3 1.7l2.2 .1 1.3-.1c0.6-.1 1.2 .3 1.2 .8 0 .6 .7 1 1.5 1 .8 0 1.7 .9 2 2 .4 1.6 1.1 1.9 3.3 1.5l2.7-.5-1.2 .5c-.7 .3-1.3 1-1.3 1.5 0 .6 .7 .7 1.7 .3 1.5-.7 1.6-.4 1 2.5l-.7 3.2 3 .5c2.4 .4 2.8 .8 2 2-.7 1.1-.6 1.6 .5 2 1 .3 1.2 .9 .5 1.8-.6 .8-.4 2.2 .6 4.2 .8 1.7 1.4 3.8 1.4 4.8 0 1.2 .8 1.7 2.5 1.7 1.4 0 2.5 .5 2.5 1 0 .6-1 1.3-2.2 1.6-1.3 .3-1.7 .7-1 1 .6 .2 1.2 1.4 1.2 2.7 0 1.2 .7 3.2 1.5 4.5 .8 1.2 1.7 3.9 2 6 .3 2 1 4.3 1.5 5 .6 .6 2 1.1 3.3 1 2-.3 2.2 .1 2.2 3.9 0 2.8-.4 4.3-1.2 4.3-.9 0-.9 .4 .2 1.5 .8 .8 1.7 1.5 2 1.5 .3 0 1.8 1.5 3.5 3.3 1.6 1.7 2.9 3.9 2.9 4.7 0 .8 1.3 2.1 2.8 2.8 1.8 .9 2.4 1.6 1.6 2-.7 .4-.9 1.2-.5 1.8 .4 .7 1.8 1.4 3.2 1.5 1.4 .2 2.3 .9 2 1.4-.3 .6-.8 .9-1.2 .8-.5-.2-.8 0-.8 .5 0 .4 1.3 2.6 2.8 4.9 1.5 2.4 3 4.3 3.5 4.3 .4 0 .5 .5 .2 1-.3 .6 .7 1.3 2.1 1.8 2.1 .6 2.4 1.1 1.9 3.2-.5 2.2-.1 2.7 3.2 4 2.1 .7 4.4 1.3 5.1 1.2 .6-.1 2.4 1 3.8 2.6 1.4 1.5 2.1 2.8 1.5 3-.6 .1 1 2.3 3.5 5 3.8 3.9 4.5 5.1 4 7.2-.3 1.4-.7 3-.9 3.6-.1 .6-.9 1.8-1.7 2.8-1.3 1.5-1.3 1.9 .2 3.4 1.4 1.4 1.4 2.1 .5 4-.7 1.2-1.5 2.2-1.9 2.2-.5 0-1-.6-1.3-1.2l-.5-1.3 .5 2.8c0.3 1.5 .1 2.7-.5 2.7-.5 0-1.7 1.5-2.5 3.3-.9 1.7-1.5 3.8-1.5 4.5 0 .6-.9 1.2-2 1.2-1.4 0-2 .7-2 2.3 0 1.2-.9 3-2 4-1.1 .9-2 2.2-2 2.7 0 .6 .5 1 1 1 .6 0 1 .7 1 1.5 0 .8-.3 1.5-.7 1.5-.5 0-.5 3.1-.1 6.8 .4 3.7 1 7.7 1.3 9 .3 1.2 .1 2.4-.5 2.7-.5 .3-1 1.4-1 2.5 0 1.1 .7 2.7 1.5 3.5 .8 .8 2 2.7 2.6 4.3 .8 2.2 1.2 2.4 1.9 1.2 .7-1.2 1-1 1.6 1 .3 1.4 .4 3.1 0 3.8-.3 .6-.4 1.2-.1 1.2 .3 0 1.2-.7 2-1.5 .8-.8 2.2-1.3 3-1 1.2 .4 1.3 .8 .3 1.9-.7 .8-1.6 1.2-2 1-.5-.2-.8 .1-.8 .6 0 .6 .5 1.2 1 1.5 .6 .3 1.1 0 1.3-.6 .1-.7 1.8 .5 3.7 2.5 2.4 2.5 4.3 3.6 6 3.5 1.4-.1 3.7-.1 5.3-.1 1.5 .1 3.4 .9 4.2 1.7 .8 .8 2.2 1.5 3 1.5 .8 0 1.7-.4 2-1 .3-.6 1.2-.2 2 .8l1.5 1.7 1.3-1.7c0.9-1.4 1.5-1.5 2.4-.5 1 .9 1.6 .8 2.5-.6 .8-1.1 2-1.6 3.1-1.3 .9 .4 1.7 1.1 1.7 1.6 0 .6 1.2-.2 2.8-1.6l2.7-2.6 1.8 2.4 1.8 2.3 3.7-1.7c2.9-1.3 4.1-1.4 5.3-.5 .9 .7 1.9 1.9 2.2 2.7 .4 1 .6 .7 .6-.7 .1-1.9 .7-2.3 3.1-2.3 2 0 3.2 .6 3.6 1.8 .6 1.5 .8 1.5 1.5 .2 .8-1.3 1-1.2 1.4 .5 .3 1.1 1.5 2.1 2.5 2.3 1.4 .1 1.8-.3 1.5-1.3-.3-.8 .1-1.9 .8-2.4 .6-.5 2.9-.7 5-.5 2.9 .3 3.6 .1 3.2-1.1-.3-.9 .1-1.5 1-1.5 .9 0 1.2 .5 .8 1.2-.6 .9-.1 1 1.7 .5 1.4-.4 2.8-.7 3.3-.7 .4 0 .5-.4 .2-1-.3-.5 .1-1 .8-1 .6 0 1.9 .4 2.7 .9 1 .6 2.3 .3 4-1.1 1.5-1.2 3.2-1.8 4.3-1.4 1 .4 1.7 .1 1.7-.6 0-.7 1-1.9 2.2-2.6 1.6-1 2.4-1.1 2.8-.3 .3 .6 1.3 1.2 2.3 1.4 .9 .1 2.2 .9 2.7 1.7 .6 1 1 1.1 1 .3 0-.7 1.1-1.5 2.5-1.8 1.4-.3 2.5-.9 2.5-1.5 0-.5 1.9-.1 4.3 .9 3.1 1.5 4.4 1.7 5 .8 .5-.9 .9-.9 1.5-.1 .4 .7 2.1 1 3.7 .8 1.7-.2 4.4-.7 6-1.2 1.7-.4 5.1-.6 7.7-.3 2.6 .4 4.8 .3 4.8-.1 0-.5 .8-1 1.8-1.3 1-.3 2 .1 2.5 1 .5 1 1.3 1.3 2.7 .8 1.2-.5 1.8-1.4 1.5-2-.3-.8 .3-1.3 1.5-1.3 1.1 0 2.8 .3 3.8 .6 1.4 .6 1.5 .8 .2 1.5-1 .5-.2 .7 2.1 .6 2.2-.1 4.5 .5 5.5 1.4 1.1 .9 2.5 1.5 3.2 1.3 .6-.2 1.2 .4 1.2 1.4-.1 1.4 .2 1.5 1.5 .5 .8-.7 2-1.1 2.5-.8 .6 .3 1 1.2 1 2 0 .8 .5 1.5 1 1.5 .6 0 1.2-.4 1.5-1 .3-.5 1.6-.8 3-.5 1.6 .3 2.5 0 2.5-.7 0-.9 .4-.8 1 .2 .6 1 1 1.1 1 .3 0-.8 1.3-1.3 3-1.3 1.8 0 3.2 .6 3.5 1.5 .3 .8 1 1.5 1.5 1.5 .6 0 1-.9 1-2 0-1.1 .5-2 1-2 .6 0 1.7 1 2.5 2.3l1.4 2.2 1-2.5c0.8-2.1 1-2.2 1.5-.7 .4 1.3 1 1.4 2.1 .7l1.5-1 .5 1c0.3 .6 1 1 1.5 1 .6 0 1-.9 1-2 0-1.2 .7-2 1.8-2 .9 0 2.3-.5 3-1.2 1.1-1.1 1.3-.9 1.2 1.2-.1 1.4-.2 3.1-.1 3.8 .1 .9 .6 .9 2.1 .2 1.2-.6 2-2 2-3.5 0-1.4-.6-2.5-1.2-2.6-.7-.1-.2-.4 1.2-.8 1.4-.4 2.4-1.2 2.3-1.7-.1-.5 .9-2.2 2.3-3.9 1.3-1.6 2.4-3.3 2.4-3.7 0-.5 .6-.5 1.3-.2 .6 .3 2-.2 3-1 .9-.9 1.7-1.3 1.7-.8-.1 .4 .6 .1 1.5-.5 1-.9 1.4-2.8 1.4-5.5-.1-2.4 .1-5.8 .5-7.5 .3-1.8 1.1-3.1 1.6-2.8l1 .5 1-.5c0.6-.3 .7-1.2 .1-2.2-.4-1-1.5-3.1-2.4-4.8-.9-1.6-1.3-3.3-.9-3.7 .4-.5 0-2.3-.8-4-.8-1.8-1.5-3.7-1.5-4.3-.1-.5-.5-1.9-1-3-.4-1.1-1.5-2.8-2.4-3.8-.9-.9-1.3-2-.9-2.5 .4-.4 .3-1.5-.2-2.4-.6-1-1.9-1.8-3-1.8-1.4 0-2-.7-2.1-2.2-.1-1.3-.3-2.7-.4-3.3-.1-.5-.3-1.3-.4-1.7 0-.5-.8-.8-1.6-.8-.8 0-1.9-.8-2.4-1.7-.5-1-.7-4.5-.5-7.8 .2-4.8 .8-6.3 2.6-7.8 1.3-.9 2-2.1 1.6-2.5-.4-.4 .5-1.7 2-2.9 1.5-1.3 3-2.3 3.5-2.3 .4 0 .7-.4 .7-1 0-.5 1-2 2.1-3.2 1.8-2 2.3-2.1 3.1-.8l1 1.5 .6-1.5c0.3-.8 1.6-2.4 2.9-3.5 1.2-1.1 2.7-3.2 3.2-4.7 .6-1.6 1.7-2.8 2.4-2.8 .6 0 1.8-.9 2.5-2 .6-1.1 1.7-1.8 2.2-1.5l1 .5 1.5-.5c0.8-.3 1.3-.9 1-1.5-.3-.5-.2-2.4 .3-4 .5-2.3 1.3-3 3-3 1.2 0 2.2-.4 2.2-1 0-.5 .7-1 1.5-1 .9 0 1.3-.7 1-1.7-.2-1 .2-2.9 1-4.3 .7-1.4 1.6-2.4 1.9-2.2 .3 .1 1.1 .2 1.6 .2 .6 0 .7-.6 .3-1.2-.6-.9-.2-1.1 1.2-.5 1.1 .4 2.6 .3 3.3-.3 .6-.5 1.7-.8 2.2-.5 .6 .3 1.2-.5 1.4-1.7 .4-2 .9-2.2 3.3-1.5 1.5 .5 3.6 .8 4.6 .8 .9-.1 2.7-.1 4-.1 1.2 .1 3.4 .2 4.9 .3 2.2 .2 2.8 .7 2.8 2.5 0 1.7 .6 2.2 2.5 2.2 1.4 0 2.7-.4 3-1 .3-.5 1-1 1.5-1 .6 0 1.2 1.2 1.4 2.8l0.3 2.7 .7-2.2c0.3-1.3 .9-2.3 1.4-2.3 .4-.1 1.3 .6 2 1.5 1 1.2 2.9 1.4 10.2 1 5.7-.3 9-.1 9 .5 0 .6 .9 1 2 1 1.1 0 2-.3 2-.7 0-.5 2.4-.7 5.3-.5 2.8 .1 6.1 .2 7.2 .2 1.1 0 2.9 0 4-.1 1.1 0 3.1 .3 4.5 .7 1.9 .6 2.3 .5 1.8-.4-.5-.7-.3-1.2 .2-1.2 .6 0 1.2 .6 1.4 1.3 .3 .8 .7 .9 1.3 .2 .4-.6 3.5-1.1 6.8-1.1 3.3 0 6.3 .5 6.8 1.1 .4 .6 1.4 .1 2.5-1.4 .9-1.3 2.2-2.1 3-1.7 .6 .3 1.2 .2 1.2-.4 0-.5 .7-.8 1.5-.5 .8 .3 2.4 .1 3.5-.5 1.1-.5 2-1.6 2-2.2 0-.8 1-1.1 2.3-.9 1.2 .2 3.9-.7 5.9-2 2-1.3 4-3.4 4.3-4.6 .3-1.5 .9-2 1.7-1.5 .9 .4 1 .3 .5-.5-.4-.9 .3-1.7 2.2-2.5 1.9-.9 2.7-1.8 2.2-2.7-.4-1.1-.1-1.3 1.7-.8 1.9 .6 2.1 .4 1.6-1.5-.4-1.3-.3-2 .2-1.6 .5 .5 1.5 .2 2.2-.5 1-.9 1.3-.9 1.2 .1 0 .6 .5 1 1 .7 .6-.3 .8-1.8 .5-3.5-.4-2.3 .2-3.9 2.5-6.7 1.6-2.1 2.6-4.2 2.2-4.6-.4-.4-.1-.7 .6-.7 .6 0 1-.3 .8-.7-.3-.5 .2-2 1-3.5 .7-1.6 1.2-3.2 .9-3.8-.3-.5 .3-1.2 1.3-1.6 1.5-.4 1.5-.6 .2-1.5l-1.5-.9 1.5-1.1c1.1-.8 1.2-1.2 .3-1.5-.7-.2-1.3-1.2-1.3-2.1 0-1 .3-2.2 .7-2.6 .5-.5 .8-2.1 .9-3.5 .1-1.5 .4-4 .6-5.7 .3-1.6 .4-2.4 .2-1.7-.2 .6-1.1 1.2-1.9 1.2-.8 0-1.5-.3-1.5-.7-.1-.5 .8-1.6 2-2.5 1.7-1.5 1.8-2.1 .8-3.7-1.1-1.6-1-2.5 .2-4.8 .8-1.5 1.6-3.2 1.9-3.8 .3-.6-.2-.7-1.2-.2-1.2 .5-1.7 .2-1.7-1 .1-1-.8-3-2-4.5-1.1-1.6-1.8-3.5-1.5-4.3 .3-.9-.1-1.5-1-1.5-1 0-1.3-.7-1-2 .4-1.6 .1-1.9-1.5-1.5-1.5 .4-2 0-2-1.5 0-1.1-.7-2.7-1.5-3.5-.8-.8-1.5-2.3-1.5-3.2 0-1.6 .1-1.6 1.5 .2l1.5 2-.7-3c-.4-1.6-1.5-3.8-2.5-4.7-1-1-2.1-1.8-2.5-1.8-.5 0-1.8-1.1-3-2.5-1.3-1.4-3-2.5-3.8-2.5-1 0-1.3-.7-1-2 .3-1.1 .1-2-.5-2-.5 0-1-.8-1-1.7 .1-1.5-.2-1.6-1.5-.5-1 .8-2 .9-3 .2-.8-.5-1.9-.8-2.5-.5-.5 .3-1.2 .1-1.5-.5-.3-.5-.9-.8-1.5-.5-.5 .3-1 .1-1-.5 0-.5 .6-1.2 1.3-1.4 .6-.2 .8-.7 .4-1.2-.5-.5-1.2-.2-1.7 .6-.7 1-1 1.1-1 .3 0-.7-.8-1.3-1.7-1.3-1 0-3.4-1.4-5.3-3.1-1.9-1.6-3.8-3-4.2-2.9-.5 0-1 .5-1.3 1-.3 .6-1.4 1-2.5 1-1.1 0-2.8-.4-3.7-.9-1-.4-3.1-1.5-4.8-2.4-1.6-.9-4-1.4-5.2-1.1-1.3 .2-2.3 .9-2.3 1.4 0 .6-1 .7-2.2 .4-1.3-.4-3.2-1.7-4.3-2.9-1.1-1.2-2.8-2.5-3.7-2.9-1.2-.4-1.6-.2-1.3 .7 .4 .7-.9 1.7-3.5 2.5-2.5 .7-4 .8-4 .2 0-.5 .6-1 1.3-1 .6 0 1-.2 .7-.5-.3-.3-2.3-.1-4.5 .6-2.2 .6-6.1 .9-8.7 .5-2.7-.3-4.6-1-4.3-1.6 .3-.5 .1-1-.5-1-.5 0-1 .5-1 1 0 .6-.8 1-1.7 1-1.5 0-1.6-.2-.3-1 .8-.5 1.1-1.3 .7-1.7-.4-.4-1.2-.1-1.7 .7-.6 .8-.8 2.1-.5 2.8 .3 .8-.5 1.2-2.5 1.2-1.6 0-3.2-.4-3.5-1-.3-.6-4.9-1-10.7-1-7.5 .1-10.5-.3-10.9-1.2-.5-1-.8-1-1.3 0-.3 .6-1.3 1-2.1 .7-.8-.3-2.6 0-4 .5-2.1 .8-2.8 .6-4-1-.8-1.1-2.2-1.8-3-1.5-.8 .3-1.5-.1-1.5-.7 0-.7-1.5-2.9-3.3-4.8-1.9-2.1-3.3-4.7-3.4-6.5-.2-1.6-1.1-3.7-2.2-4.5-1.4-1.1-1.9-2.5-1.7-5 .2-2-.4-4.5-1.3-5.8-1.2-1.7-1.8-2-2.3-1-.4 .7-.9 1.1-1.3 .8-.3-.3-.6-2.1-.6-4-.1-1.9-.4-3.9-.7-4.5-.2-.6-.8-.3-1.3 .5-.7 1.3-.9 1.2-1.5-.5-.5-1.3-.3-2.1 .4-2.2 .7-.2 1.2-.7 1.2-1.3 0-.5-1.2-1-2.7-1-2.2 0-2.4 .2-1.3 1 .8 .5 1.1 1.3 .7 1.7-.5 .4-1.7-.3-2.8-1.7-1-1.4-1.7-2.9-1.4-3.5 .2-.5 0-1.4-.5-2-.5-.6-.5-3 .1-5.7 .6-3.1 .5-5.5-.1-6.8-.8-1.5-.6-2.1 .5-2.5 1.1-.4 1.4-1.4 1-3.5-.3-1.7-.1-3 .5-3 .6 0 1.5-1.3 2-3 .8-2.5 .8-2.9-.5-2.5-1.2 .4-1.5-.4-1.2-4.5 .1-3.3 .7-5 1.6-5.2 .8-.2 1.5-1.5 1.7-3 .2-1.6 0-2.8-.6-2.8-.5 0-.8-.4-.5-1 .3-.5 1-.8 1.5-.5 .6 .3 1.5-.2 2-1 .6-.8 .7-3 .3-4.7-.5-2.4-.3-3.1 .5-2.5 .8 .5 1.4-.4 1.7-2.8l0.5-3.5-.5-1c-.3-.5-.1-1.6 .4-2.2 .6-.7 .8-2.3 .5-3.5-.2-1.3-1-2.3-1.6-2.3-.9 .1-.9-.4 .2-1.5 .8-.9 2.1-1.4 2.8-1.1 .8 .4 1.3-.4 1.5-2.3 .1-1.6-.1-2.7-.5-2.5-.5 .2-.8-.3-.8-1.1 0-.8-.2-2.1-.5-2.7-.3-.9 .4-1.2 2-1 1.9 .1 2.5-.3 2.5-1.8 0-1.1-.6-2-1.2-2-.9 0-.8-.3 .2-1 .8-.5 1.5-2.2 1.5-3.8 0-1.6 .6-3.6 1.3-4.5l1.2-1.7-1.2-1.5c-1.1-1.3-1-1.6 .5-1.5 .9 0 1.5-.4 1.2-1-.3-.5 0-1 .5-1 .6 0 .9-.3 .9-.7l-.1-.8 .1-3.2c0-1.9 .5-3.1 1.1-2.8 .6 .3 .9-.1 .7-.7-.1-.7-.6-1.9-1-2.5-.4-.7-.4-1.9 0-2.5 .4-.7 .9-2.4 1.1-3.8 .2-1.4 1-3.5 1.8-4.7 .8-1.3 1-2.3 .4-2.3-.6 0-.9-3.4-.7-8.7 .1-4.9 .7-9.1 1.2-9.5 .6-.4 .6-1.2-.2-2.2-.8-1-.9-1.8-.3-2.1 .7-.3 .6-.9-.1-1.7-.5-.7-.9-2.7-.7-4.5 .2-2.2-.2-3.4-1.2-3.6-1.1-.4-1.1-.5 .3-.6 .9 0 1.7-.5 1.7-1.1 0-.5-.5-1.1-1.1-1.2-.5-.2-1.1-1.7-1.2-3.5-.2-2.5-.5-2.9-1.5-2-1 1-1.3 .7-1.4-1.3 0-1.4 0-3.1 .1-3.7 0-.7-1.2-3.1-2.9-5.3-1.6-2.2-3-4.7-3-5.5 0-.8-.3-1.5-.7-1.5-.5 .1-2.5-1.5-4.5-3.5-2.1-1.9-4.2-3.5-4.8-3.5-.5 0-1-.9-1-2 0-1.3-1.2-2.6-3.2-3.6-1.8-.8-4.6-2.3-6.3-3.2-1.6-.9-3.2-1.9-3.5-2.2-.3-.3-1.6-.6-3-.8-1.4-.1-3.7-1.6-5.2-3.2-1.6-1.7-3-2.7-3.2-2.2-.2 .4-1.5 .9-3 1.2-1.6 .3-2.6 .1-2.6-.7 0-.8-.8-1.1-2.2-.8-1.3 .3-3.2 .6-4.3 .5-1.1 0-3.1-.1-4.5-.3-1.4-.1-3.1-.5-3.7-1-.7-.4-1.3-.4-1.3 .1 0 .4-1 .8-2.2 .9-1.3 .1-3.6 .4-5.3 .7-1.8 .3-3.3 0-3.6-.7-.5-.8-1.4-.5-3 1-1.3 1.2-2.7 2-3.1 1.8-.5-.3-1.9 .1-3.3 .8-1.4 .6-2.2 1.6-1.7 2 .4 .5-1.1 .5-3.3 .1l-4-.7 1.3 1.6c0.7 1.1 .8 1.9 .2 2.2l-1 .5-.5-.5c-.3-.3-1.7 .6-3.2 2-1.6 1.4-3.1 2.5-3.5 2.5-.5 0-.8-.4-.8-1 0-.5-.4-1-1-1-.5 0-1.4 .9-2 2-.8 1.7-.7 1.9 .8 1.3 1.4-.5 1.5-.4 .6 .8-.7 .8-2.6 1.7-4.3 2.2-2 .4-3.1 1.3-3.1 2.5 0 .9-1.1 2.9-2.5 4.5-1.4 1.5-2.9 2.7-3.5 2.7-.5 0-.8 .7-.5 1.5 .3 .8-.4 2.6-1.5 4-1.1 1.4-2.3 2.3-2.7 2.1-.5-.2-.9 .7-1 2-.2 1.3 .1 2.2 .7 1.9 .6-.3 1 0 1 .5 0 .6-.9 1.3-1.9 1.8-1.1 .4-2 .9-2 1.2 0 .3-.2 1.3-.5 2.3-.3 .9-1.5 1.7-2.6 1.7-1.1 0-2 .5-2 1 0 .6-1 2.5-2.2 4.4-1.3 1.8-3.5 3.8-5 4.5-1.6 .6-2.6 1.6-2.3 2.1 .3 .6 .1 1.2-.5 1.5-.5 .3-1 1.9-1 3.5 0 1.9-.5 2.9-1.2 2.7-.7-.2-1.8 .1-2.3 .7-.6 .6-1.2 2.2-1.3 3.6-.1 1.4-.2 4-.2 5.8 0 1.8-.5 3.3-1.2 3.3l-1.3 .1-.7-.1c-.5 0-.7 1.4-.5 3.2 .2 1.7 .6 3.8 1 4.5 .4 .6 .3 1.2-.3 1.2-.5 0-.7 .8-.4 1.8 .4 1.1-.1 1.9-1.5 2.5-1.2 .4-2.1 1.5-2.2 2.5 0 .9-.3 2.8-.5 4.2-.3 1.4-.5 4.1-.6 6 0 1.9-.2 2.7-.4 1.8-.2-1-.8-1.8-1.4-1.8-.6 0-.8 1.2-.4 2.8 .4 1.9 .1 2.9-1 3.5-.9 .4-1.6 1.6-1.6 2.7 0 1.1-.7 2.2-1.5 2.5-.8 .3-1.5 1-1.5 1.5 0 .6 .9 1 2 1 1.1 0 2.3 .5 2.8 1.1 .4 .7 0 1.5-1 2-1 .5-1.8 1.6-1.8 2.4 0 .8-.4 1.5-1 1.5-.5 0-.8 1.1-.5 2.5 .4 2 .2 2.3-1 1.8-1-.5-2.3 0-3.8 1.5-1.3 1.3-2.9 2-3.9 1.7-1-.3-1.8-.7-1.8-1 0-.3 .5-1.6 1-3 .8-2.1 .7-2.4-.5-2-.8 .3-1.5 .2-1.5-.2 0-.5-1.1-2.1-2.5-3.8-1.9-2.2-2.2-3.2-1.3-3.7 .8-.4 1-1.3 .6-2.2-.5-.9-1.1-1.4-1.5-1.2-.5 .2-1.4-.2-2-1-.7-.8-.8-1.4-.3-1.4 .6 0 1-.6 1-1.2 0-.7-1.1-2.4-2.5-3.8-1.4-1.4-2.1-2.7-1.7-3 .5-.3 .7-2.2 .5-4.2-.2-2.6-.8-3.8-1.8-3.8-1 0-1.3-.7-1-2 .3-1.1 .1-2-.5-2-.6 0-.7-1.2-.2-3l0.7-3-2.4 .8c-2.2 .6-2.4 .5-1.8-1.5 .5-1.5 .3-2.3-.5-2.3-.7 0-1.9-1.1-2.5-2.5-.7-1.4-1.1-2.9-.8-3.5 .3-.5 .1-1-.5-1-.5 0-.8-1-.5-2.2 .4-1.9 .2-2.2-1.2-1.7-1.2 .4-2.2 0-3-1.2-.7-1.1-1.3-2.5-1.3-3.1 .1-.7-.6-2-1.5-2.8-.9-.8-1.6-2.4-1.5-3.5 0-1.2-1-2.5-2.5-3.2-1.4-.7-2.4-1.6-2.4-2l0.1-.8-.1-1.7c0-1-.8-1.8-1.6-1.8-.9 0-1.3-.6-1-1.5 .3-.8-.1-1.5-.7-1.5-.7 0-2-.8-2.8-1.8-.8-1-2.1-2.8-2.7-4-.7-1.2-1.3-2.9-1.3-3.7 0-.8-.4-1.5-1-1.5-.5 0-1-.6-1-1.2 .1-.7-.6-2-1.5-2.8-.9-.8-1.3-2.2-1-3 .3-.8-.1-2.2-1-3-.9-.8-1.6-2.2-1.6-3 .1-.8-1.2-3-2.7-4.9-1.5-1.9-5.2-5.9-8.2-8.8-3-2.9-7.1-6.5-9-7.8-1.9-1.4-4.4-2.7-5.5-2.9-1.1-.3-2.6-.5-3.2-.5-.7-.1-1.3-1-1.3-2.1 0-1.5-.5-1.9-2-1.5-1.2 .3-2.3-.1-2.7-1.1-.6-1-1.5-1.4-3-1-1.4 .4-2.1 .2-1.8-.4 .3-.5-.3-1.1-1.2-1.1-1-.1-6.1-.3-11.3-.5-5.2-.1-10.8-.5-12.5-.8ZM949 1016.9c-.8 0-1.2 .4-.7 .8l0.7 .8 .8-.8c0.4-.4 0-.8-.8-.8ZM2610 1021c0.6 0 1 .5 1 1 0 .6-.2 1-.5 1-.3 0-.7-.4-1-1-.3-.5 0-1 .5-1ZM2389 1032c-.5 0-1 .7-1 1.5 0 .8 .5 1.5 1 1.5 .6 0 1-.7 1-1.5 0-.8-.4-1.5-1-1.5ZM1133.3 1053c-.7 0-1.5 .5-1.8 1-.3 .6-.4 1.2-.2 1.5 .1 .3 .9-.2 1.7-1 1.1-1.1 1.1-1.6 .3-1.5ZM2393.7 1068.3l0.8 .7-.8 .8c-.4 .4-.8 0-.8-.8 0-.8 .4-1.2 .8-.7ZM899.7 1076.3c-.4-.5-.8-.1-.8 .7 0 .8 .4 1.2 .8 .8l0.8-.8-.8-.7ZM1257.7 1093.3c-.4-.5-.8-.1-.8 .7 0 .8 .4 1.2 .8 .8l0.8-.8-.8-.7ZM904 1094c0.6 0 1 .5 1 1 0 .6-.4 1-1 1-.5 0-1-.4-1-1 0-.5 .5-1 1-1ZM899.5 1096c-.3 0-.8 .6-1.2 1.2-.5 .9-.4 1 .5 .5 .6-.4 1.2-.9 1.2-1.2 0-.3-.2-.5-.5-.5ZM1062 1099c-.5 0-1 .5-1 1 0 .6 .5 1 1 1 .6 0 1-.4 1-1 0-.5-.4-1-1-1ZM1061.5 1102c-.3 0-.5 .5-.5 1 0 .6 .5 1 1 1 .6 0 .8-.4 .5-1-.3-.5-.7-1-1-1ZM2623 1103.9c-.8 0-1.2 .4-.7 .8l0.7 .8 .8-.8c0.4-.4 0-.8-.8-.8ZM905 1111c0.6 0 1 .5 1 1 0 .6-.4 1-1 1-.5 0-1-.4-1-1 0-.5 .5-1 1-1ZM1061.7 1111.3l0.8 .7-.8 .8c-.4 .4-.8 0-.8-.8 0-.8 .4-1.2 .8-.7ZM2378 1111c-.5 0-1.2 .8-1.5 1.8-.3 .9-.4 1.8-.3 1.9 .2 .1 .9-.7 1.6-1.7 .7-1.2 .8-2 .2-2ZM1063.7 1114.3l0.8 .7-.8 .8c-.4 .4-.8 0-.8-.8 0-.8 .4-1.2 .8-.7ZM2364 1124.9c-.8 0-1.2 .4-.7 .8l0.7 .8 .8-.8c0.4-.4 0-.8-.8-.8ZM2355 1138c0.6 0 1 .2 1 .5 0 .3-.4 .7-1 1-.5 .3-1 .1-1-.5 0-.5 .5-1 1-1ZM2651 1145.5c0.6 .3 1 1.2 1 2 0 .8-.4 1.3-1 1-.5-.3-1-1.2-1-2 0-.8 .5-1.3 1-1ZM1079 1152.9c0.8 0 1.2 .4 .8 .8l-.8 .8-.7-.8c-.5-.4-.1-.8 .7-.8ZM1598 1169c0.6 0 1 .5 1 1 0 .6-.2 1-.5 1-.3 0-.7-.4-1-1-.3-.5 0-1 .5-1ZM931.7 1170.3l0.8 .7-.8 .8c-.4 .4-.8 0-.8-.8 0-.8 .4-1.2 .8-.7ZM520.5 1172.7c-.5-.3-1.5 .2-2.1 1.1-.6 .9-2.6 2-4.5 2.3-2.4 .5-3.6 .2-4.1-.7-.5-.8-1.8-1.4-3-1.4-1.3 0-3.5 .7-5 1.5-1.7 .9-4.9 1.4-8.1 1.3-3.6-.2-6 .2-7.2 1.2-1 .8-2.5 1.6-3.4 1.7-.9 .1-2.6 .8-3.9 1.5-1.2 .7-2.2 1.9-2.2 2.6 0 .8-.9 1-2.5 .7-1.6-.3-2.5-.1-2.5 .8 0 .6-1.3 2-3 3-1.6 .9-3.6 1.7-4.2 1.7-.7 0-2.2 1-3.2 2.2-1.3 1.5-1.5 2.4-.8 2.6 .9 .1 .9 .6 0 1.8-1 1.2-1.4 1.2-1.9 .2-.5-.9-1.3-.2-2.5 2-1.1 1.8-2.7 3.2-3.6 3.2-1.2 0-1.8 .8-1.8 2.3 0 1.2-.4 2.9-.9 3.7-.6 1.1-1.3 1.2-2.2 .5-1-.7-1.2-.7-.6 .3 .4 .6 .3 1.2-.3 1.2-.5 0-1 .7-1 1.5 0 .8-.8 1.5-1.7 1.5l-1.8-.1 2 2.1c1.1 1.1 1.6 2.1 1 2.2-.5 0-1.3 0-1.7-.1-.5 0-.8 .6-.8 1.4 0 .8-1 2.2-2.2 3-1.6 1.1-2.4 2.8-2.6 5.3-.2 2-1.1 4.5-2 5.5-1.4 1.5-1.5 1.8-.2 1.7 .8-.1 2.1 .5 2.7 1.2 1 1 .8 1.5-.7 2.1-1.1 .4-2 1.4-2 2.2 0 .8-.6 1.5-1.2 1.5-.8 0-1.4 1.4-1.5 3.3 0 1.7 .2 2.8 .5 2.2 .4-.5 1.3-1.1 2-1.2 .6-.2 1.2 .2 1.2 .7 0 .6-.7 1.2-1.5 1.5-.8 .3-1.5 1-1.5 1.5 0 .6 .8 1.7 1.8 2.6 1.5 1.4 1.5 1.7 .2 2.5-.9 .5-1.5 2.4-1.6 4.6-.1 2.1-.6 5-1.3 6.6-.6 1.5-1.1 3.2-1.1 3.7 0 .6 .5 .8 1 .5 .6-.3 1 .5 1 1.8-.1 1.2-1.5 3.9-3.3 6l-3.2 3.7-6.7 .3c-4.9 .1-6.8-.2-6.8-1 0-.8-1.4-1.4-3.2-1.5-1.8 0-4-.1-4.8 0-.8 0-2.3-.4-3.2-.9-1-.5-1.8-1.3-1.8-1.9 0-.5 .9-.8 2-.5 1.1 .3 2 .1 2-.5 0-.5-.7-.8-1.5-.5-.8 .3-1.7 .1-2-.5-.3-.5-1.5-.9-2.7-.8-1.3 .1-2.9 .5-3.5 1-.8 .5-1.6 .2-2-.8-.6-1.2-1.6-1.4-4-1-2.1 .4-3.1 .2-2.8-.4 .3-.6-.9-.9-2.9-.7-1.9 .1-3.1 .6-2.8 1.1 .4 .6-1.3 .6-4.3 .2-2.7-.3-5.9-.7-7-.7-1.1-.1-4.4 .2-7.2 .5-3.8 .4-5.5 .2-5.8-.6-.3-.7-.7-2-.8-3-.1-.9-.6-2-1-2.5-.4-.4-.7 0-.7 1 0 .9-.4 1.7-1 1.7-.5 0-.8 .7-.5 1.5 .3 .8 .1 1.5-.5 1.5-.5 0-1-.6-1-1.2 0-.7-.7-.4-1.7 .7-1.2 1.3-2.7 1.9-4.3 1.7-1.4-.2-3.1-.9-3.8-1.5-1-.9-1.3-.9-1.2 .1 0 .6-.3 1.1-.7 1-.5-.1-2 .2-3.5 .5-1.7 .4-3.4 .2-4.3-.5l-1.6-1.3 .1 1.3c0 .7-.7 1-1.7 .6-1.5-.5-1.5-.4-.3 .4 1.1 .7 1.2 1.1 .3 1.6-.7 .3-1.6 0-2-.8-.6-.9-1.8-1.2-4.1-.7-2.4 .4-3.1 1-2.7 2.1 .6 1.3 0 1.4-3.4 .8-3.3-.7-4.1-.5-4.1 .7 0 .8-.6 1.4-1.4 1.3-.7-.2-2.6 1.1-4.2 2.7-1.9 2-3.8 3-5.4 2.9-1.4-.1-3.6 .2-5 .6-2.1 .6-3.1 .1-5.8-2.9-1.8-2-3.2-3.8-3.2-4.1 .1-.3-.9-1.3-2.2-2.2-2-1.5-2.1-1.9-.8-2.7 1.2-.8 1.4-2.4 .8-8.6-.5-4.1-1.2-8.4-1.8-9.5-.5-1.1-1.8-2-2.7-2-1.6 0-1.6-.2-.3-1 1.3-.9 1.3-1.2-.1-2.3-.9-.6-1.9-3-2.4-5.2-.4-2.2-1.2-4.9-1.9-5.9-.6-1.1-2.4-3.3-3.9-5-1.6-1.7-2.4-3.2-1.8-3.3 .6-.2 .8-.9 .5-1.5-.5-1-.9-.9-1.5 .2-.7 1.3-.9 1.2-.9-.2 0-1-1.9-3.9-4.2-6.4-2.4-2.6-5.8-5.3-7.5-6-1.8-.8-3.3-2-3.3-2.6-.1-.9 .4-.9 1.5 .2 1.1 1.1 1.6 1.1 1.5 .3 0-.7-.3-1.3-.7-1.3-.5 0-1.2-1-1.8-2.2-.7-1.6-1.7-2.2-3.2-2-1.8 .2-2.2-.2-1.8-1.8 .4-1.7 0-2-3.2-2-2.7-.1-4.4-.8-6-2.5-1.4-1.5-2.8-2.2-3.5-1.7-.9 .5-1 .2-.5-1 .4-1.1 .3-1.6-.3-1.3-.5 .3-1 .1-1-.5 0-.5-.6-1-1.2-1-.7 0-2.3-.9-3.5-2l-2.3-2-.5 2c-.3 1.1-.9 2-1.5 2-.5 0-.8-.6-.6-1.2 .3-.7-.5-1.9-1.7-2.7-1.6-.9-2.8-1-4.2-.3-1.4 .6-3.4 .5-6.5-.4-2.5-.8-5.7-1.4-7.2-1.4-1.6 0-3-.4-3.3-1-.3-.5-1.1-.7-1.7-.4-.7 .4-3.9 .7-7 .8-4.4 .1-5.7-.2-5.5-1.3 .1-.8-.2-1.6-.8-1.8-.5-.2-2 .6-3.2 1.7-1.5 1.2-2.9 1.7-3.8 1.3-1-.5-2-.1-2.9 1.2l-1.4 2-4.9-1.6-4.8-1.6-1.2 1.8c-1.2 1.7-1.1 1.8 .7 .9 1.6-.8 2-.7 2 .5 0 .8-.8 1.7-1.7 1.9-1 .3-3.1 .4-4.8 .3-1.6 0-4.1 .3-5.5 .7-1.4 .5-3.3 1.5-4.2 2.2-1 .8-2.2 1.2-2.8 .9-.5-.3-2.5 1.1-4.2 3.1-1.8 2-4.8 4.3-6.5 5-1.8 .8-3.7 1.2-4.3 .9-.5-.3-1.2 .2-1.5 1-.4 1.1 0 1.4 1.8 .9 1.2-.4 1.8-.3 1.4 .2-.5 .5-2.3 1.4-4 1.9-2.1 .7-3.4 2-4.1 4-.5 1.7-1.7 3.7-2.5 4.6-.9 .9-2.5 1.8-3.6 2.1-1.2 .2-2.1 1.3-2.3 2.8-.2 1.4-1 2.8-1.8 3.3-.8 .4-1.4 1.6-1.4 2.7 0 1.1-1.2 3.2-2.6 4.8-1.4 1.5-2.9 3.6-3.3 4.7-.4 1.1-.7 3.4-.6 5 .1 1.7-.3 3.3-.9 3.7-.8 .5-.8 1.5 0 3.5 .7 1.7 .8 3.4 .3 4.3-.5 .8-.7 2.7-.4 4.3 .4 2-.1 3.3-2 5-1.4 1.2-2.5 2.8-2.5 3.5 0 .6 .5 1.2 1 1.2 .6 0 .7 .8 .4 1.8-.5 1.4-.4 1.4 .4 .2 .8-1.3 1-1.2 1.6 .5 .4 1.1 .2 3.5-.4 5.3-.8 2.6-.7 3.5 .7 5l1.6 1.7-.6-2.2c-.5-1.7-.3-2.3 .8-2.3 .8 0 1.5 .7 1.5 1.5 0 .8-.7 2.2-1.5 3-.8 .8-1.5 2.7-1.5 4.3 0 1.5 .8 3.5 1.8 4.5 1.5 1.6 1.5 1.9 .2 2.7-1.2 .8-1.3 1.3-.2 3 .6 1.1 1.2 3.6 1.2 5.5 0 1.9-.5 3.6-1.1 3.8-.5 .1-.8 1-.5 2 .4 1 1.2 1.5 2.1 1.2 .8-.3 1.5 0 1.5 .5 0 .6-.5 1.1-1 1.3-.6 .1-.3 1.1 .8 2.2 1 1.1 2.1 3.2 2.5 4.8 .4 1.5 1.6 2.9 2.7 3.2 1.1 .3 2 1.2 2 2 0 .8 .6 1.7 1.3 1.9l1.2 .4-1.2 .1c-.7 .1-1.3 .9-1.3 1.9-.1 1.4 .2 1.5 1.5 .5l1.5-1.3 .5 1.3c0.2 .6 .5 2.3 .7 3.7 .2 1.6 .9 2.4 1.8 2.2 .8-.2 2.5 .3 3.8 1 1.2 .7 2.2 2.1 2.2 3.1 0 .9 .7 1.7 1.5 1.7 .8 0 1.4 .3 1.4 .8l-.1 .7 .1 1.8c0.1 1 .9 1.7 2.1 1.7 1.1 0 2-.6 2-1.2 0-.9 .3-1 .9-.3 .5 .6 1.1 2.1 1.2 3.5 .2 1.4 0 3.1-.4 3.8-.4 .6-.2 1.4 .3 1.7 .6 .3 1.7-.1 2.6-.7 1.3-1.1 1.6-.9 2.2 1 .4 1.2 1.4 2.5 2.2 2.7 .8 .3 2.1 .1 2.8-.5 .6-.5 1.9-.8 2.7-.5 .8 .3 1.5-.1 1.5-.7 0-.9 .3-.9 .8-.2 .4 .6 1.5 1.4 2.5 1.7 1 .4 1.4 1.2 1 1.9-.6 .9-.1 1 2 .5 2-.5 2.7-.3 2.7 .8 0 1.1 1.2 1.5 4.5 1.5 2.5 0 4.7 .5 5 1 .3 .6 1.6 .8 3 .5 1.9-.4 2.5-.1 2.6 1.3 0 .9 .2 1.1 .5 .5 .2-.7 .9-1.1 1.4-.8 .6 .3 1.7-.3 2.5-1.2l1.4-1.8 .1 1.8c0 .9-.7 1.9-1.5 2.2-.8 .3-1.5 1.2-1.5 2 0 .8 .5 1.5 1 1.5 .6 0 1.5-1.1 2-2.5 .6-1.4 1.6-2.6 2.3-2.6l1.2-.1 1.3 .1c0.6 0 1.2-.6 1.2-1.4 0-.8 .5-1.5 1-1.5 .6 0 1.1 .5 1.3 1 .1 .7 2.6 .6 7.2-.3 3.9-.7 9.1-1.3 11.8-1.2 2.6 0 4.7-.3 4.7-.7 0-.5 1.1-.8 2.5-.8 1.4 0 2.5 .6 2.5 1.3 0 .6 1.3 2.2 3 3.5 1.6 1.2 3 2.9 3 3.7 0 .8-.7 1.5-1.5 1.5-.8 0-1.5 .5-1.5 1 0 .6 .5 1.2 1 1.5 .6 .3 .5 1.3-.4 2.8-.8 1.2-1.2 3.4-1 5 .2 1.5 0 2.7-.6 2.7-.5 0-.8 .7-.5 1.5 .3 .8 1.2 1.5 2 1.5 .8 0 1.5 .9 1.5 2 0 1.1-.6 2.6-1.3 3.3-.8 .6-1.4 3.5-1.5 6.2-.1 2.8-.6 5.5-1.1 6-.6 .7-.5 1.4 .5 2.3 1.1 1 1.2 1.6 .2 3.8-1.1 2.1-1.1 2.7 .2 3.5 1.3 .8 1.3 1.1-.2 1.9-1 .6-1.8 1.5-1.8 2 0 .6 .9 .8 2 .5 1.3-.3 2 0 2 1 0 .8-.6 1.5-1.2 1.5-1 0-1.1 1.4-.5 6 .4 3.3 1.3 7 2 8.1l1.2 2.2-1.2 .3c-.7 .2-1.3 1.1-1.3 1.9 0 1 .7 1.3 2 1l2-.5-.6 4.3c-.3 2.3-.8 4.6-1.2 5.2-.4 .6-.2 .7 .6 .2 .8-.5 1.2 .1 1.2 2.1 0 1.5-.5 3.3-1.2 4-1.1 1-1 1.2 .5 1.2 .9 0 1.9 .7 2.2 1.5 .3 .8 .5 2.6 .5 4 0 1.4 .7 2.7 1.5 3 .8 .3 1.3 1.2 1 2-.3 .8 .2 1.7 1 2 1.2 .4 1.3 .8 .3 2l-1.3 1.6 1.3-.1c0.6 0 1.2 .7 1.2 1.5 0 .9 .5 1.2 1.2 .8 .9-.6 1 0 .5 2.5-.4 1.9-.3 3.2 .3 3.2 .6 0 1.2 1.1 1.5 2.5 .3 1.4 1.2 2.5 2 2.5 .8 0 1.4 .8 1.3 1.8 0 .9 .2 2.5 .5 3.5 .4 .9 1.4 1.7 2.2 1.7 .8 0 1.7 .8 1.9 1.8 .2 .9 0 2.4-.4 3.2-.5 1-.1 2.2 1.1 3.5l2 2-1.8 .7c-1.4 .5-1.1 .7 1 .7 1.9 .1 2.6 .5 2.2 1.6-.3 .8 .7 2.7 2.3 4.2l2.7 2.8-2.2-.8c-1.7-.5-2.3-.3-2.3 .8 0 .8 .7 1.5 1.5 1.5 .8 0 1.8 .8 2.2 1.8 .3 .9 1.1 2 1.7 2.4 .6 .4 2.5 .8 4.1 .9 1.7 .1 2.2 .3 1.3 .5-1 .2-1.8 1.1-1.8 1.9 0 .8 .5 1.5 1 1.5 .6 0 1-.4 1-1 0-.5 .7-1 1.5-1 1.1 0 1.4 .7 1 2.5l-.5 2.5 2.5-1.5 2.5-1.5 0 2.3c0 1.2 .4 2.9 .9 3.7 .5 .8 1.4 1.2 2 .8 .6-.5 1.1-.2 1.1 .7 0 .8 .9 1.5 2 1.5 1.4 0 1.9 .5 1.5 1.8-.4 1.1 .3 2.1 2 3 1.4 .6 2.3 1.7 2 2.2-.3 .6 .7 1 2.3 1 1.6 0 3.2 .8 4 2 .6 1.1 2 1.9 3 1.8 1.3-.2 1.6 .3 1.5 2.5-.2 1.8 .2 2.7 1.2 2.7 .8 0 1.6-.5 1.8-1.1 .1-.7 1.1-.9 2.5-.5 1.2 .3 2.2 1.3 2.2 2.1 0 .9 .9 1.5 2.3 1.5 1.8 0 1.9 .2 .7 1-1.2 .8-1 1 .9 .8 1.3-.2 2.5 .3 2.7 1 .2 .6-.4 1.2-1.3 1.2-1 0-1.6 .1-1.3 .4 .3 .2 1.4 .6 2.5 .8 1.1 .1 2.5 1.2 3.1 2.3 .5 1.1 1.8 1.9 2.7 1.8 1.2-.2 1.5 .1 1 1.3-.7 1.4 0 1.6 5.4 1.3 5.2-.3 6.6 0 9.2 1.9 1.7 1.2 3.6 2.2 4.1 2.2 .6 0 1.5 .9 2 2 .7 1.3 1.8 1.9 3.6 1.8 1.4-.2 2.7 0 3 .5 .2 .4 1.1 .7 1.9 .7 .9 0 1.3-.6 1-1.5-.3-.9 .1-1.5 1-1.5 .8 0 1.3 .5 1 1-.3 .6 .3 1.1 1.3 1.2 .9 0 2.4 .1 3.2 0 .8-.1 2.7 .1 4.3 .3 1.7 .3 2.7 1.1 2.7 2.3 .1 1.5 .2 1.5 1.6-.3 1.3-1.7 1.6-1.8 2.4-.5 .5 .8 1.7 1.6 2.7 1.6 1 .1 5.2 .5 9.3 .8 4.1 .4 7.7 .9 8 1.1 .3 .3 1.1 0 1.8-.5 .8-.7 1.4-.7 1.7 0 .3 .6 1.3 1 2.3 1 1.4 0 1.5-.2 .2-1-.8-.5-1-1-.5-1 .6 0 2.5 .4 4.3 1 2.1 .7 3.2 .7 3.2 0 0-.5 .5-.8 1-.5 .6 .3 1-.4 1-1.5 0-1.5 .5-1.8 1.8-1.4 .9 .4 4.2 .9 7.2 1.1 3.5 .3 7.2-.1 10-1.1 2.9-1 4.9-1.2 5.8-.5 .7 .6 1.4 .5 1.7-.1 .3-.5 .3-1.3 0-1.7-.3-.5 .3-1.3 1.3-2 .9-.7 2.4-1.2 3.2-1.3l1.5 0-1.5 .9c-1 .6 .5 .8 4 .6 3.1-.1 5.6-.7 5.8-1.4 .1-.6 1.1-1.1 2.2-1.1 1.1 0 3.1-.7 4.5-1.5 1.4-.8 3-1.3 3.5-1 .6 .3 1.2-.4 1.5-1.5 .3-1.1 1.2-2 2-2 1 0 1.3 .7 1 2-.3 1.1-.2 2 .3 2 .4 .1 1.6-.9 2.7-2 1.1-1.1 2.8-2.1 3.8-2 .9 0 1.7-.7 1.7-1.5 0-1 .6-1.3 1.8-.9 .9 .3 1.4 .2 1-.3-.5-.4-.2-1.4 .5-2.1 .6-.7 1.5-1.3 2-1.2 .4 0 .5 .3 .3 .8-.2 .4 .4 .7 1.4 .7 .9 0 1.6-.6 1.4-1.2-.3-.9 .7-1.3 2.9-1.3 1.7 0 4.3-.2 5.7-.4 1.4-.2 3-.4 3.5-.4 .6-.1 2.1-1.1 3.5-2.2 1.4-1.1 2.8-2 3.3-2 .4 0 1.6-.9 2.7-2 1.3-1.3 2.7-1.8 4.3-1.4 1.6 .4 1.8 .3 .7-.4-1.1-.7-1.2-1.1-.2-1.6 .6-.3 1.2-1.5 1.2-2.6 0-1.2 .7-2 1.8-2.1l1.7-.1 .8 .1c0.4 0 .7-.3 .7-.9 0-.5-.7-1.2-1.5-1.5-1.2-.4-1-1 1-2.7 1.3-1.3 2.4-2.9 2.5-3.5 0-.7 .8-1.3 1.8-1.4 .9 0 1.1-.2 .5-.5-.7-.2-1.3-.8-1.3-1.4 0-.5 1-2 2.3-3.2l2.2-2.2-2-.7c-1.1-.4-1.4-.8-.7-.8 .6-.1 1.2-.9 1.2-1.8 0-1 .9-3.1 1.9-4.8 1.6-2.6 1.7-3.3 .5-5.5-.7-1.4-1.1-2.7-.9-3 .3-.3 1 0 1.7 .7 1 .9 1.3 .3 1.3-3 0-3.4 .3-4.2 1.8-3.9 1 .1 1.7-.4 1.7-1.3 0-.8 .5-1.3 1-1 .6 .3 1-1.2 1-3.5 0-2.2 .5-4 1-4 .6 0 .9-2.3 .8-5.2-.2-3.4 .3-6.4 1.4-8.3 .9-1.8 1.2-3.4 .7-4-.5-.5-.9-2.8-1-5-.1-2.2 .2-5.3 .6-7 .3-1.6 1.2-4 1.8-5.3 .9-1.6 1.4-1.9 2-1 .4 .8 .6 .3 .5-1.2-.2-1.4-.7-2.8-1.3-3.2-.6-.5-.5-.8 .3-.8 .7 0 1.2-1.4 1.2-3.5 0-2.8-.4-3.5-2-3.5-1.1 0-2-.4-2-1 0-.5 .8-1 1.8-1 1.4 0 1.7-.9 1.7-5.4 0-3-.3-5.2-.7-5-.5 .2-.8-.5-.8-1.6 0-1.1 .5-2 1-2 .6 0 1-1.8 1-4 0-2.2-.7-4.7-1.5-5.5-.8-.8-1.5-1.9-1.5-2.5 0-.5 .5-1 1-1 .6 0 .7-.6 .1-1.7-.5-1-1.3-2.7-1.7-3.8-.4-1.1-.6-2.6-.6-3.2 .1-.7-.9-2.8-2.3-4.5-1.3-1.8-2.5-3.7-2.5-4.3 0-.5 .9-.1 2 1 1.1 1.1 2.3 1.7 2.8 1.2 .4-.4-.3-1.4-1.5-2.2-1.8-1.2-2.4-2.7-2.8-7.2-.4-4-1.2-6.4-2.5-7.8-1.1-1.1-1.8-2.7-1.5-3.5 .2-.8 .1-2.8-.3-4.5-.7-2.3-.5-3.3 .7-4.3l1.6-1.2-1.7-1c-1-.6-1.8-1.4-1.8-2 0-.5 .8-1 1.8-1 1.5 0 1.5-.2 .2-1-1.3-.9-1.2-1.2 .5-2.5l2-1.5-2.5-.9-2.5-.9 3.8-1.6c2-.9 4.4-1.4 5.2-1.1 .8 .3 1.5 .1 1.5-.5 0-.5 .6-.7 1.3-.3 .6 .4 2.1 .8 3.2 .9 1.1 .1 3 .5 4.3 .8 1.7 .5 2.4 .1 3.2-1.9 .7-1.7 1.4-2.2 2.3-1.6 .7 .4 5 0 10.2-1 5-1 9.6-1.6 10.3-1.4 .7 .3 1 0 .7-.7-.3-.9 .3-1.2 1.8-.9 1.2 .2 3.1 0 4.2-.4 1.1-.4 2.8-.8 3.8-.9 1 0 2.1-.7 2.5-1.4 .4-.7 1.2-1.2 1.7-1.1 .6 .1 1.6 .1 2.3 0 .6 0 1.2-1 1.2-2.1 0-1.1 .7-2 1.5-2 .8 0 1.3-.4 1-1-.3-.5 .4-1.4 1.5-2 1.6-.8 2-.7 2.1 .8 .1 1.1 .3 .8 .7-.7 .5-1.7 1.7-2.7 4-3.3 2.5-.6 3.2-1.3 3.2-3.3 0-1.7 .7-2.7 2-3 1.2-.3 1.8-1.1 1.5-2-.3-.8 0-1.7 .5-2 .6-.3 1 0 1 .5 0 .6 .8 1 1.8 1 1.5-.1 1.5-.2-.3-1.7l-2-1.5 2.3 .6c1.3 .4 2 .2 1.7-.4-.3-.5 .5-1 1.8-1 1.5 0 1.8-.3 .9-.8-1.1-.5-.8-1.2 1-2.7 1.2-1.1 2.3-2.7 2.4-3.5 .1-.8 .2-2.3 .3-3.2 0-1 .6-1.6 1.1-1.3 .6 .3 1-1 1-3 0-1.9 .3-3.3 .8-3.1 .4 .2 1.6-.2 2.7-1 1.6-1.1 1.8-2 1.3-4.4-.6-2.2-.4-3.3 .7-4.2 .9-.7 1.6-1.6 1.5-2 0-.5-.7-.8-1.5-.8-1 0-1.3-.7-1-2 .3-1.1-.1-2.2-.7-2.4-.9-.4-.8-.8 .4-1.8 1-.7 1.7-1.6 1.8-2 0-.5-.7-.8-1.5-.8-.8 0-1.5-.6-1.4-1.2 0-.7 .4-2.2 .8-3.3 .6-1.7 .9-1.7 1.5-.5l0.9 1.5 .8-1.5c0.5-.8 .9-1.8 .9-2.2 0-.5-.3-.7-.7-.7l-.8 .1-1.2-.1c-.7 0-1.3-.8-1.3-1.6 0-.8 .5-1.6 1.2-1.7 .8-.2 .9-.8 .3-1.8-.5-.8-.8-2.3-.7-3.2 .1-1-.2-2-.8-2.3-.6-.3-.5-1.1 .3-2 1-1.3 .9-1.9-.5-3.3-1-.9-2.1-3.5-2.4-5.7-.4-2.2-1.3-4.6-2-5.2-1.1-1.1-1.2-1.7-.1-3.3 1-1.6 .9-2.2-.1-3.2-.7-.7-1.2-2.5-1.2-4 0-1.6-.4-2.8-1-2.8-.5 0-1-.7-1-1.5 0-.8-.4-1.5-1-1.5-.5 0-.8-.9-.5-2 .3-1.2 0-1.9-.6-1.7-.6 .1-1.3-.9-1.6-2.3-.2-1.4-.9-2.8-1.6-3.2-.7-.3-2.7-2-4.4-3.7-2-1.9-3-3.6-2.6-4.3 .5-.8 .4-1-.2-.6-.6 .3-2-1.6-3.2-4.3-1.4-3-2.8-4.7-3.5-4.4-.8 .4-1.6-.4-2-2-.5-1.4-1.2-2.5-1.8-2.5-.5 0-1.2 .5-1.5 1-.3 .6-.9 .8-1.5 .5-.5-.3-.8-.9-.5-1.5 .3-.5 .1-1-.5-1-.5 0-1-.7-1-1.5 0-.8-1.1-2.1-2.5-2.7-1.6-.8-2.5-2.1-2.5-3.5 0-1.3-.3-2.3-.7-2.3-.5 0-1.6 .8-2.6 1.8-1.5 1.4-1.8 1.5-1.8 .2 0-.8-1-2.3-2.2-3.3-1.2-1-2.6-1.7-3.2-1.7-.5 .1-1.6-.6-2.2-1.5-.7-.8-2-1.3-2.8-1-.8 .3-2.1 .2-2.7-.2-.7-.4-2.9-.8-4.8-1-1.9-.2-3.7-.6-4-1.1-.3-.4-2.3-1.6-4.5-2.8-3.2-1.7-4.6-1.9-7-1.2-1.6 .6-3.7 .6-4.5 .2-.8-.4-2.4-.6-3.5-.5-1.6 .2-1.7 0-.5-.7 .9-.6 1.1-1.2 .5-1.5ZM934 1172.9c0.8 0 1.2 .4 .8 .8l-.8 .8-.7-.8c-.5-.4-.1-.8 .7-.8ZM537 1178.9c0.8 0 1.2 .4 .8 .8l-.8 .8-.7-.8c-.5-.4-.1-.8 .7-.8ZM1610.7 1185.3l0.8 .7-.8 .8c-.4 .4-.8 0-.8-.8 0-.8 .4-1.2 .8-.7ZM1233 1187c0.6 0 1 .5 1 1 0 .6-.4 1-1 1-.5 0-1-.4-1-1 0-.5 .5-1 1-1ZM174 1189c-.5 0-1 .5-1 1 0 .6 .5 .8 1 .5 .6-.3 1-.7 1-1 0-.3-.4-.5-1-.5ZM184.5 1190c0.3 0 .7 .5 1 1 .3 .6 .1 1-.5 1-.5 0-1-.4-1-1 0-.5 .2-1 .5-1ZM830 1191c0.6 0 1 .2 1 .5 0 .3-.7 .7-1.5 1-.8 .3-1.3 .1-1-.5 .3-.5 1-1 1.5-1ZM808 1192.9c-.8 0-1.2 .4-.7 .8l0.7 .8 .8-.8c0.4-.4 0-.8-.8-.8ZM227.7 1195.3l0.8 .7-.8 .8c-.4 .4-.8 0-.8-.8 0-.8 .4-1.2 .8-.7ZM806 1196c-.5 0-1 .5-1 1 0 .6 .5 .8 1 .5 .6-.3 1-.7 1-1 0-.3-.4-.5-1-.5ZM451 1209c0.3-.1-.2 .6-1 1.5-.8 .8-1.7 1.3-2 1-.3-.4 .2-1 1-1.5 .8-.6 1.7-1 2-1ZM892.7 1209.3l0.8 .7-.8 .8c-.4 .4-.8 0-.8-.8 0-.8 .4-1.2 .8-.7ZM250.5 1210.1c1.1-.1 1.8 .1 1.5 .4-.3 .4-1.2 .4-2 .2-1-.4-.9-.6 .5-.6ZM786.7 1213.3l0.8 .7-.8 .8c-.4 .4-.8 0-.8-.8 0-.8 .4-1.2 .8-.7ZM1233.7 1218.3c-.4-.5-.8-.1-.8 .7 0 .8 .4 1.2 .8 .8l0.8-.8-.8-.7ZM955 1222c0.6 0 1.2 .5 1.5 1 .3 .6-.2 1.2-1 1.5-.9 .3-1.5-.1-1.5-1 0-.8 .5-1.5 1-1.5ZM439 1232c0.6 0 1 .5 1 1 0 .6-.2 1-.5 1-.3 0-.7-.4-1-1-.3-.5 0-1 .5-1ZM2291.7 1236.3c-.4-.5-.8-.1-.8 .7 0 .8 .4 1.2 .8 .8l0.8-.8-.8-.7ZM436 1242c0.6 0 1 .5 1 1 0 .6-.2 1-.5 1-.3 0-.7-.4-1-1-.3-.5 0-1 .5-1ZM111 1247.5c0.6 .3 1 1 1 1.5 0 .6-.4 1-1 1-.5 0-1-.7-1-1.5 0-.8 .5-1.3 1-1ZM1242.5 1249.1c1.1-.1 1.8 .1 1.5 .4-.3 .4-1.2 .4-2 .2-1-.4-.9-.6 .5-.6ZM2669 1263.9c-.8 0-1.2 .4-.7 .8l0.7 .8 .8-.8c0.4-.4 0-.8-.8-.8ZM105.7 1269.3l0.8 .7-.8 .8c-.4 .4-.8 0-.8-.8 0-.8 .4-1.2 .8-.7ZM1316 1273.9c-.8 0-1.2 .4-.7 .8l0.7 .8 .8-.8c0.4-.4 0-.8-.8-.8ZM391 1275c0.6 0 1 .2 1 .5 0 .3-.4 .7-1 1-.5 .3-1 .1-1-.5 0-.5 .5-1 1-1ZM1271 1275.9c0.8 0 1.2 .4 .8 .8l-.8 .8-.7-.8c-.5-.4-.1-.8 .7-.8ZM1329 1275.9c0.8 0 1.2 .4 .8 .8l-.8 .8-.7-.8c-.5-.4-.1-.8 .7-.8ZM1336 1276c-.5 0-1 .5-1 1 0 .6 .5 .8 1 .5 .6-.3 1-.7 1-1 0-.3-.4-.5-1-.5ZM1331.7 1277.3l0.8 .7-.8 .8c-.4 .4-.8 0-.8-.8 0-.8 .4-1.2 .8-.7ZM1273 1277.9c0.8 0 1.2 .4 .8 .8l-.8 .8-.7-.8c-.5-.4-.1-.8 .7-.8ZM1350.5 1281c0.3 0 .7 .5 1 1l0.5 1-.5 0c-.3 0-.7-.4-1-1l-.5-1 .5 0ZM783.7 1284.3l0.8 .7-.8 .8c-.4 .4-.8 0-.8-.8 0-.8 .4-1.2 .8-.7ZM607 1290.9c0.8 0 1.2 .4 .8 .8l-.8 .8-.7-.8c-.5-.4-.1-.8 .7-.8ZM2364.5 1291c0.4 .3 .4 1.2 .2 2-.4 1-.6 .9-.6-.5-.1-1.1 .1-1.8 .4-1.5ZM109 1292.9c0.8 0 1.2 .4 .8 .8l-.8 .8-.7-.8c-.5-.4-.1-.8 .7-.8ZM2366.7 1297.3l0.8 .7-.8 .8c-.4 .4-.8 0-.8-.8 0-.8 .4-1.2 .8-.7ZM825 1315c0.6 0 1 .5 1 1 0 .6-.4 1-1 1-.5 0-1-.4-1-1 0-.5 .5-1 1-1ZM833.5 1321c-.8 0-1.5 .5-1.5 1 0 .6 .7 1 1.5 1 .8 0 1.5-.4 1.5-1 0-.5-.7-1-1.5-1ZM840.5 1324.1c-1.4 0-1.5 .2-.5 .6 .8 .2 1.7 .2 2-.2 .3-.3-.4-.5-1.5-.4ZM852 1329c0.6 0 1 .2 1 .5 0 .3-.7 .7-1.5 1-.8 .3-1.3 .1-1-.5 .3-.5 1-1 1.5-1ZM2378.8 1343c0.6 0 1.4 .5 1.7 1 .3 .6 .4 1.2 .3 1.5-.2 .3-1-.2-1.8-1-1.1-1.1-1.1-1.6-.2-1.5ZM557 1343.9c0.8 0 1.2 .4 .8 .8l-.8 .8-.7-.8c-.5-.4-.1-.8 .7-.8ZM515 1354c-.5 0-1 .5-1 1 0 .6 .7 1 1.5 1 .8 0 1.3-.4 1-1-.3-.5-.9-1-1.5-1ZM151 1359.9c-.8 0-1.2 .4-.7 .8l0.7 .8 .8-.8c0.4-.4 0-.8-.8-.8ZM154 1360.9c-.8 0-1.2 .4-.7 .8l0.7 .8 .8-.8c0.4-.4 0-.8-.8-.8ZM2381 1360.9c0.8 0 1.2 .4 .8 .8l-.8 .8-.7-.8c-.5-.4-.1-.8 .7-.8ZM174 1362c0.6 0 1 .5 1 1 0 .6-.4 1-1 1-.5 0-1-.4-1-1 0-.5 .5-1 1-1ZM2479 1366c0.6 0 1 .5 1 1 0 .6-.4 1-1 1-.5 0-1-.4-1-1 0-.5 .5-1 1-1ZM2591.5 1376c0.3 0 .7 .5 1 1l0.5 1-.5 0c-.3 0-.7-.4-1-1l-.5-1 .5 0ZM2459 1380.5c-.5-.3-1 0-1 .5 0 .6 .5 1.2 1 1.5 .6 .3 1 .1 1-.5 0-.5-.4-1.2-1-1.5ZM512 1381.9c0.8 0 1.2 .4 .8 .8l-.8 .8-.7-.8c-.5-.4-.1-.8 .7-.8ZM223.7 1390.3c-.4-.5-.8-.1-.8 .7 0 .8 .4 1.2 .8 .8l0.8-.8-.8-.7ZM518 1390c-.5 0-.8 .5-.5 1 .3 .6 .7 1 1 1 .3 0 .5-.4 .5-1 0-.5-.4-1-1-1ZM2524.5 1394c0.4 .3 .4 1.2 .2 2-.4 1-.6 .9-.6-.5-.1-1.1 .1-1.8 .4-1.5ZM934.7 1398.3l0.8 .7-.8 .8c-.4 .4-.8 0-.8-.8 0-.8 .4-1.2 .8-.7ZM936 1402c-.5 0-1.2 .9-1.5 2-.3 1.3-.1 1.9 .8 1.7 .6-.2 1.3-1.1 1.5-2 .1-.9-.2-1.7-.8-1.7ZM2455 1404c0.6 0 1 .5 1 1 0 .6-.2 1-.5 1-.3 0-.7-.4-1-1-.3-.5 0-1 .5-1ZM940 1406c0.6 0 1 .2 1 .5 0 .3-.4 .7-1 1-.5 .3-1 .1-1-.5 0-.5 .5-1 1-1ZM1255.5 1410c0.3 0 .5 .5 .5 1 0 .6-.4 1-1 1-.5 0-.8-.4-.5-1 .3-.5 .7-1 1-1ZM1371.5 1411c-.3 0-.8 .6-1.2 1.2-.5 .9-.4 1 .5 .5 .6-.4 1.2-.9 1.2-1.2 0-.3-.2-.5-.5-.5ZM2097.7 1413.3l0.8 .7-.8 .8c-.4 .4-.8 0-.8-.8 0-.8 .4-1.2 .8-.7ZM2381.7 1434.3l0.8 .7-.8 .8c-.4 .4-.8 0-.8-.8 0-.8 .4-1.2 .8-.7ZM221 1434.9c-.8 0-1.2 .4-.7 .8l0.7 .8 .8-.8c0.4-.4 0-.8-.8-.8ZM961 1437c0.6 0 1 .5 1 1 0 .6-.4 1-1 1-.5 0-1-.4-1-1 0-.5 .5-1 1-1ZM226.7 1438.3l0.8 .7-.8 .8c-.4 .4-.8 0-.8-.8 0-.8 .4-1.2 .8-.7ZM2087 1437.9c0.8 0 1.2 .4 .8 .8l-.8 .8-.7-.8c-.5-.4-.1-.8 .7-.8ZM2438 1439.9c0.8 0 1.2 .4 .8 .8l-.8 .8-.7-.8c-.5-.4-.1-.8 .7-.8ZM2554 1439.9c0.8 0 1.2 .4 .8 .8l-.8 .8-.7-.8c-.5-.4-.1-.8 .7-.8ZM970.7 1448.3l0.8 .7-.8 .8c-.4 .4-.8 0-.8-.8 0-.8 .4-1.2 .8-.7ZM2083.5 1448c-.3 0-.8 .6-1.2 1.2-.5 .9-.4 1 .5 .5 .6-.4 1.2-.9 1.2-1.2 0-.3-.2-.5-.5-.5ZM226.7 1452.3c-.4-.5-.8-.1-.8 .7 0 .8 .4 1.2 .8 .8l0.8-.8-.8-.7ZM1214.3 1456c-.5 .1-1.4 .7-2 1.5-.7 .8-1.3 1.7-1.3 2 0 .3 .5 .5 1 .5 .6 0 1.5-.9 2-2 .6-1.1 .7-2 .3-2ZM1207.5 1473.1c-1.4 0-1.5 .2-.5 .6 .8 .2 1.7 .2 2-.2 .3-.3-.4-.5-1.5-.4ZM1670.7 1473.3l0.8 .7-.8 .8c-.4 .4-.8 0-.8-.8 0-.8 .4-1.2 .8-.7ZM985.3 1474c0.4 0 .7 .2 .7 .5 0 .3-.7 1.2-1.5 2-.8 .8-1.7 1.3-2 1-.3-.3 .1-1.2 .8-2 .6-.8 1.5-1.4 2-1.5ZM980.2 1479.7c-1.1-1-1.2-.9-.5 .6 .4 .9 1 1.5 1.3 1.2 .3-.3-.1-1.1-.8-1.8ZM241.7 1482.3l0.8 .7-.8 .8c-.4 .4-.8 0-.8-.8 0-.8 .4-1.2 .8-.7ZM971.5 1492c-.3 0-.7 .5-1 1-.3 .6 0 1 .5 1 .6 0 1-.4 1-1 0-.5-.2-1-.5-1ZM2057 1494c-.5 0-1.2 .7-1.5 1.5-.3 1 0 1.3 1 1 .8-.3 1.5-.9 1.5-1.5 0-.5-.4-1-1-1ZM250.5 1499c0.3 0 .7 .5 1 1l0.5 1-.5 0c-.3 0-.7-.4-1-1l-.5-1 .5 0ZM970.5 1504c0.3 0 .5 .5 .5 1 0 .6-.4 1-1 1-.5 0-.8-.4-.5-1 .3-.5 .7-1 1-1ZM507.5 1510c0.3 0 .2 .7-.2 1.5-.5 .8-.9 1.3-1 1-.2-.3-.1-.9 .2-1.5 .3-.5 .7-1 1-1ZM507.7 1517.3c-.4-.5-.8-.1-.8 .7 0 .8 .4 1.2 .8 .8l0.8-.8-.8-.7ZM1721 1519.9c0.8 0 1.2 .4 .8 .8l-.8 .8-.7-.8c-.5-.4-.1-.8 .7-.8ZM506.7 1525.3c-.4-.5-.8-.1-.8 .7 0 .8 .4 1.2 .8 .8l0.8-.8-.8-.7ZM971.7 1526.3l0.8 .7-.8 .8c-.4 .4-.8 0-.8-.8 0-.8 .4-1.2 .8-.7ZM499.7 1529.3l0.8 .7-.8 .8c-.4 .4-.8 0-.8-.8 0-.8 .4-1.2 .8-.7ZM1215.7 1534.3l0.8 .7-.8 .8c-.4 .4-.8 0-.8-.8 0-.8 .4-1.2 .8-.7ZM1757 1536.9c0.8 0 1.2 .4 .8 .8l-.8 .8-.7-.8c-.5-.4-.1-.8 .7-.8ZM1218.3 1539c-.5 0-1.5 .5-2.3 1-1.3 .8-1.2 1 .3 1 .9 0 1.9-.4 2.2-1 .3-.5 .2-1-.2-1ZM492 1541c0.6 0 1 .5 1 1 0 .6-.4 1-1 1-.5 0-1-.4-1-1 0-.5 .5-1 1-1ZM1773 1543c0.6 0 1 .5 1 1 0 .6-.7 1-1.5 1-.8 0-1.3-.4-1-1 .3-.5 1-1 1.5-1ZM1951.5 1544c0.3 0 .7 .5 1 1 .3 .6 .1 1-.5 1-.5 0-1-.4-1-1 0-.5 .2-1 .5-1ZM1159 1547c0.6 0 1 .2 1 .5 0 .3-.4 .7-1 1-.5 .3-1 .1-1-.5 0-.5 .5-1 1-1ZM1799 1546.9c0.8 0 1.2 .4 .8 .8l-.8 .8-.7-.8c-.5-.4-.1-.8 .7-.8ZM1122 1547.9c-.8 0-1.2 .4-.7 .8l0.7 .8 .8-.8c0.4-.4 0-.8-.8-.8ZM1162.5 1548c0.3 0 .7 .5 1 1 .3 .6 .1 1-.5 1-.5 0-1-.4-1-1 0-.5 .2-1 .5-1ZM296.8 1551c-1 0-1.8 .2-1.8 .5 0 .3 .5 1.4 1 2.5 .6 1.1 1.8 2 2.8 2l1.7 .1-1.8-1.8c-.9-1-1.4-2.1-1-2.6 .5-.4 0-.7-.9-.7ZM1046.5 1551c0.3 0 .7 .5 1 1 .3 .6 .1 1-.5 1-.5 0-1-.4-1-1 0-.5 .2-1 .5-1ZM1013.7 1552.3l0.8 .7-.8 .8c-.4 .4-.8 0-.8-.8 0-.8 .4-1.2 .8-.7ZM1021 1551.9c0.8 0 1.2 .4 .8 .8l-.8 .8-.7-.8c-.5-.4-.1-.8 .7-.8ZM1160.5 1552c-.3 0-.8 .6-1.2 1.2-.5 .9-.4 1 .5 .5 .6-.4 1.2-.9 1.2-1.2 0-.3-.2-.5-.5-.5ZM1940.5 1552c0.8 0 1.7 .5 2 1 .3 .6-.2 1-1 1-.8 0-1.7-.4-2-1-.3-.5 .2-1 1-1ZM1051.7 1554.3l0.8 .7-.8 .8c-.4 .4-.8 0-.8-.8 0-.8 .4-1.2 .8-.7ZM479 1554.9c-.8 0-1.2 .4-.7 .8l0.7 .8 .8-.8c0.4-.4 0-.8-.8-.8ZM1927 1554.9c0.8 0 1.2 .4 .8 .8l-.8 .8-.7-.8c-.5-.4-.1-.8 .7-.8ZM1017 1556c-.5 0-1 .5-1 1 0 .6 .5 1 1 1 .6 0 1-.4 1-1 0-.5-.4-1-1-1ZM1043 1556c-.5 0-1 .5-1 1 0 .6 .5 1 1 1 .6 0 1-.4 1-1 0-.5-.4-1-1-1ZM311.2 1557.8l1.3 1.2-1.3 1.3c-1 1-1.2 .7-1.2-1.3 0-2 .2-2.3 1.2-1.2ZM316 1560.9c0.8 0 1.2 .4 .8 .8l-.8 .8-.7-.8c-.5-.4-.1-.8 .7-.8ZM339.7 1569.3l0.8 .7-.8 .8c-.4 .4-.8 0-.8-.8 0-.8 .4-1.2 .8-.7ZM348 1568.9c0.8 0 1.2 .4 .8 .8l-.8 .8-.7-.8c-.5-.4-.1-.8 .7-.8ZM425 1571c-.5 0-1 .5-1 1 0 .6 .5 1 1 1 .6 0 1-.4 1-1 0-.5-.4-1-1-1ZM427.5 1571c-.3 0-.5 .5-.5 1 0 .6 .5 1 1 1 .6 0 .8-.4 .5-1-.3-.5-.7-1-1-1ZM367 1572.9c0.8 0 1.2 .4 .8 .8l-.8 .8-.7-.8c-.5-.4-.1-.8 .7-.8ZM390 1574c0.6 0 1.2 .5 1.5 1 .3 .6 .1 1-.5 1-.5 0-1.2-.4-1.5-1-.3-.5 0-1 .5-1ZM427.5 1574c-.3 0-.5 .5-.5 1 0 .6 .5 1 1 1 .6 0 .8-.4 .5-1-.3-.5-.7-1-1-1ZM418.7 1575.3c-1.6 .1-3.1 .5-3.3 1-.2 .4-.1 .9 .4 1.1 .4 .2 1.8-.2 3.2-.9l2.5-1.3-2.8 .1Z"/>
</svg>