<svg xmlns="http://www.w3.org/2000/svg" width="1205" height="1227">
<path d="M389 109c-.5 0-1 .5-1 1 0 .6-1.7 .8-4.2 .4-2.6-.4-5.9-.1-8.3 .7-2.2 .7-4.7 1.4-5.5 1.6-.8 .1-1.9 .7-2.5 1.3-.5 .6-1.9 1-3 1-1.1 0-4.8 1.5-8.3 3.3-3.4 1.7-6.2 3.8-6.2 4.5 0 .6-.6 1-1.2 .7-.7-.3-2.2 .3-3.3 1.5-1.1 1.1-2.4 2-3 2-.5 0-2.1 1.3-3.5 2.9-1.4 1.7-3.3 3-4.2 3.1-1 0-2 .5-2.3 1-.3 .6-1.1 .7-1.7 .3-.8-.5-1-.4-.6 .2 .4 .6-.2 2.2-1.5 3.7-1.2 1.5-2.9 2.8-3.7 2.8-.8 0-2.3 .6-3.2 1.3-1 .7-1.7 1.9-1.7 2.7 0 .8-1.8 3.3-4 5.5-2.2 2.2-4 4.9-4.1 6 0 1.1-1.6 4.3-3.5 7-2 2.8-3.5 5.6-3.5 6.3 0 .6-.4 1.2-1 1.2-.5 0-.9 1.1-.7 2.5 .1 1.3-.5 3-1.4 3.7-.9 .7-2.2 3.1-2.9 5.3-.7 2.2-1.6 4.5-2.1 5-.4 .6-1.1 3.3-1.5 6-.3 2.8-1.2 6.9-2 9.3-.8 2.3-1.4 5.8-1.4 7.7 0 1.9-.4 4.4-1 5.5-.6 1.1-1 10-1 19.8 0 9.7 .1 22.2 .4 27.7 .2 5.5 .5 10.2 .6 10.5 .1 .3 .2 1.4 .1 2.5-.1 1.1 .2 2.2 .7 2.5 .5 .3 1.2 2.2 1.5 4.3 .5 2.8 .4 3.5-.5 3-.7-.3-.4 .3 .7 1.5 1.1 1.2 1.7 2.8 1.3 3.4l-.7 1.3 .7 .8c0.4 .5 .8 1.4 .9 2 .1 .7 1.1 3.7 2.3 6.7 1.1 3 2.5 6 3 6.5 .5 .6 .7 2.2 .5 3.8-.4 2.3 0 2.9 2.5 4 2.3 .9 3 1.8 3 4 0 2.1 .4 2.6 1.8 2.1 1.2-.4 1.5-.2 1 .7-.4 .8 .2 2.4 1.3 3.7 1 1.2 1.9 2.5 1.9 3 0 .4 .9 1.7 2 3 1.1 1.2 1.8 2.9 1.5 3.7-.3 .9 1.2 3.2 3.5 5.5 2.2 2.2 4.3 5.4 4.8 7 .4 1.7 1.3 3 2 3 .9 0 .9 .6 .3 2.3-.5 1.2-1.3 3.1-1.7 4.2-.4 1.1-.8 2.5-.8 3-.1 .6-.8 2.3-1.6 3.8-.8 1.5-2.1 2.7-2.7 2.7-.7 0-1.2 .3-1.1 .8 .1 .4-.2 1.8-.6 3.2-.5 1.4-1.4 2.8-2 3.2-.6 .4-1.1 1.8-1.2 3 0 1.6-1 2.8-3.2 3.8-2.6 1.2-3.2 2-3 4.1 .2 1.4-.6 3.8-1.6 5.5-1.1 1.6-2.1 3.8-2.2 4.9-.1 1.1-.6 2.1-1.3 2.3-.6 .1-1.1 1.6-1.1 3.2 0 1.7-.4 3-1 3-.5 0-1 1.6-1 3.5 0 1.9-.3 3.5-.7 3.5-.5 0-1.2 3.2-1.6 7.2-.5 4-1.3 7.8-1.8 8.3-.4 .6-1.6 5.1-2.4 10-.9 5-2 10.4-2.5 12-.5 1.7-1 5-1.1 7.5-.1 2.5-.6 5-1 5.5-.4 .6-1.7 7.8-2.8 16-1.1 8.3-2.5 19.7-3.2 25.5-.6 5.8-1 12.9-.8 15.8 .2 2.8 0 5.3-.5 5.5-.5 .1-1.2 3.1-1.7 6.7-.4 3.6-.8 11.7-.8 18 0 6.3-.1 11.7-.1 12-.1 .3-.4 3.4-.5 7-.2 3.6-.6 8.2-.9 10.3-.3 2-1 4.6-1.6 5.7l-1 2 1 2.5c0.6 1.4 1 3.6 1 5 0 1.4 .5 2.5 1 2.5 .6 0 1 1 1 2.3 .1 1.2 .3 9.9 .5 19.2 .3 9.4 .8 17.2 1.2 17.5 .5 .3 .9 5.9 1.1 12.5 .1 6.6 .7 12.5 1.2 13 .4 .6 1.1 3.3 1.5 6 .3 2.8 .8 6.8 1.1 9 .2 2.2 .8 6.9 1.3 10.5 .5 3.6 .5 6.9 0 7.5-.5 .6-.7 1.2-.4 1.5 .2 .3 .7 2.3 1 4.5 .3 2.2 1 4.5 1.5 5 .6 .6 .7 1.8 .3 2.8-.5 1-.2 2.4 .8 3.5 .8 .9 2.1 3.7 2.8 6.2 .8 2.5 1.5 5.9 1.8 7.5 .2 1.7 .6 3.9 .7 5 .2 1.1 .6 2.5 .9 3 .3 .6 .7 2.7 .9 4.8 .2 2.1 .8 3.7 1.6 3.7 .6 0 1.2 .9 1.2 2 0 1.1 .5 2.2 1 2.5 .6 .3 1 1.4 1 2.5 0 1.3 .7 2 2 2 1.1 0 2.5 .9 3 2 .6 1.1 1.9 2 3 2 1.1 0 2 .3 2 .8 0 .4 .6 .8 1.3 1 .6 .2 4.1 .5 7.7 .7 3.6 .1 9.9 1 14 1.8 4.1 .9 9 1.4 10.8 1.1 1.9-.2 3 0 2.7 .6-.3 .6 .5 1 1.8 1 1.2-.1 2.9 .7 3.7 1.6 .9 .9 2.6 1.5 4.2 1.2 1.5-.1 2.8 0 2.8 .5 0 .4 .7 .5 1.5 .2 .8-.3 2.1-.2 2.8 .2 .6 .4 3 .8 5.2 1 2.2 .1 4.5 .7 5 1.3 .6 .6 3 1 5.5 1.1 2.5 0 5.6 .8 7 1.6 1.4 .8 3.5 1.4 4.7 1.2 1.3-.2 2.5 .1 2.7 .6 .2 .6 .5 .4 .5-.2 .1-.8 1.9-.2 5.1 1.7 2.9 1.7 5.9 2.8 7.3 2.6 1.2-.2 3.1 .2 4.2 .8 1.1 .7 3.4 1.2 5.2 1.1 2.1 0 3.3 .5 3.5 1.6 .2 1 1.8 1.8 4.3 2.2 2.2 .4 5.5 .8 7.3 1 1.8 .1 3.7 .9 4.2 1.7 .5 .8 1 1.1 1 .5 0-.5 .5-.4 1.2 .3 .7 .7 2.5 1.2 4.1 1.2 1.5 0 3.9 1.1 5.5 2.5 1.5 1.4 3.5 2.6 4.5 2.5 .9 0 1.9 .5 2.2 1 .3 .6 1.6 1 3 1 1.4 0 2.3 .5 2 1-.3 .6 .6 1.2 2 1.5 1.4 .3 2.5 1 2.5 1.5 0 .6 .5 .8 1 .5 .6-.3 3.8 .8 7.3 2.5 3.4 1.6 7 3 8 3 .9 0 2.8 1.1 4.2 2.5 1.4 1.4 2.8 2.4 3.3 2.3 .4-.1 1.6 .4 2.7 1.1 1.2 .8 1.9 2.1 1.7 3.5-.2 1.1 .3 2.8 1.3 3.6 .9 .8 1.6 2.7 1.5 4.3 0 1.5 .5 2.9 1 3.2 .6 .3 1 1.2 1 2 0 .8-.8 2.2-1.7 3.1-1.2 1-4.4 1.7-9.3 2-4.1 .2-7.7 .8-8 1.4-.3 .5-1.8-.6-3.5-2.5-2.1-2.3-3.6-3.2-5-2.8-1.1 .3-3.3-.1-4.8-.8-1.5-.8-2.8-1.6-2.7-1.9 0-.3-1.5-1.1-3.2-1.8-1.8-.7-4.6-2-6.3-2.9-1.6-.8-4.1-1.3-5.5-1-1.4 .3-3.7 0-5.2-.7-1.5-.6-3.3-2.2-4-3.5-1.1-1.9-1.9-2.2-4.3-1.7-1.8 .3-3.8 0-5-.9-1.1-.8-3-1.5-4.2-1.5-1.3 0-2.3-.4-2.3-1 0-.6-.7-.7-1.5-.2-1 .4-2.3-.1-3.8-1.6-1.5-1.6-2.9-2.2-4.4-1.8-1.6 .4-2.6 0-3.2-1.1-.7-1.5-1.6-1.7-4.5-1l-3.6 .7 .5-2c0.4-1.6 .1-1.9-1.2-1.4-1 .4-4.2-.1-7-1-2.9-.9-6.4-1.6-7.8-1.6-1.4 0-2.7-.3-2.9-.7-.2-.5-2-1.1-4-1.5-2-.5-3.6-1.2-3.6-1.8 0-.5-2.6-1.5-5.7-2.1-3.2-.6-6.5-.9-7.3-.6-.8 .3-2.4 .9-3.5 1.3-1.5 .6-1.8 .5-1.2-.4 .4-.7 .1-1.2-.8-1.2-.8 0-1.5-.4-1.5-1 0-.5-.8-.9-1.7-.7-1 .2-2.8 .8-4 1.5-1.4 .7-2.3 .8-2.3 .2 0-.5-1-1-2.2-1-1.9 0-2.1-.2-1-1.2 .7-.7 1.2-1.7 1.2-2.3 0-.6-1.8-.7-5-.2-3.9 .5-5.3 .4-6.5-.8-.9-.9-1.7-1.1-2-.5-.3 .6-.9 1-1.5 1-.5 0-.8-.6-.5-1.2 .3-.9-.4-1.3-2.2-1.4-1.6 0-3.3 .7-4 1.5l-1.1 1.6 1.1 .7c0.8 .5 .7 .8-.3 .7-.8 0-1.9-.6-2.5-1.4-.6-.8-3.5-1.6-7-1.8-3.3-.3-6-.6-6-.7 0-.2-5.8-.4-13-.5-7.1-.2-17.5-.6-23-.9-5.5-.3-10.2-1-10.5-1.6-.3-.5-2.7-1.4-5.5-1.9-3-.6-5.1-.6-5.2 0-.2 .5-.7 .7-1.3 .4-.5-.3-1 0-1 .5 0 .6-.7 1-1.5 1-.8 0-1.9 .9-2.5 2-.8 1.5-1.7 1.9-4 1.5-2-.3-3-.1-3 .8 .1 .6-1.5 2.3-3.4 3.7-2.7 1.9-3.7 3.5-4.2 6.5-.3 2.2-1 4.5-1.4 5-.5 .6-1.2 5.3-1.5 10.5-.4 5.2-.8 11-.9 12.9 0 1.9 .5 4 1.2 4.8 .6 .7 1 1.8 .7 2.3-.3 .6 0 1.2 .5 1.5 .6 .3 1 1.4 1 2.5 0 1.1 .9 2.5 2 3 1.1 .6 2 1.7 2 2.5 0 .8 1 2.7 2.3 4.1 1.2 1.5 2.7 3.2 3.2 3.8 .6 .6 1.8 2.2 2.7 3.6 1 1.5 1.5 4.3 1.4 7.3 0 3-.5 4.7-1.3 4.7-.7 0-4.2 3-7.8 6.8-3.5 3.7-6.2 7-6 7.5 .3 .4 .1 .7-.5 .7-.5 0-4.8 3.8-9.5 8.5-4.7 4.7-8.5 9.2-8.5 10 0 .8-.4 1.3-1 1-.5-.3-1 .2-1 1 0 .8-.4 1.4-.8 1.3-.5-.2-3.6 2.5-6.8 6l-5.9 6.2-4.7 .5c-2.7 .3-5.2 .7-5.8 1-.5 .3-4.8 .6-9.4 .8-6.8 .2-8.8 .6-10.5 2.2-1.2 1.1-2.3 1.7-2.6 1.3-.3-.5-1.1-.2-1.7 .5-.7 .7-1.9 2.3-2.5 3.5-.7 1.2-1.3 4.7-1.3 7.7 0 3.3 .4 5.3 1 5 .6-.3 1.5 .6 2 2 .6 1.4 1.7 2.5 2.5 2.5 .8 0 1.3-.4 1-1-.3-.5 .2-1 1-1 .8 0 1.6 .6 1.8 1.3 .3 .9 1.5 1 5.1 .2 2.6-.5 4.9-.7 5.2-.2 .2 .4 1.5 .5 2.9 .2 2-.4 2.5-.1 2.5 1.5 0 1.2 .7 2 1.8 2 .9 0 3.1 1.8 4.7 4 1.7 2.2 3.6 4 4.3 4 .6 0 1.4 .9 1.7 2 .3 1.1 2.1 3.1 4 4.5 1.9 1.4 3.3 3 3 3.5-.3 .6 .1 1.2 .8 1.4 .6 .2 2.3 2.5 3.6 5.2 1.4 2.7 3.1 5.5 3.8 6.2 .7 .6 1.5 1 1.8 .7 .3-.3 1.3-.1 2.3 .3 .9 .5 3.1 1.7 4.7 2.6 1.7 1 3.8 1.9 4.8 2.2 .9 .2 1.7 .7 1.7 1.2 0 .4 1 1.9 2.3 3.4 1.2 1.5 2.8 2.7 3.5 2.8 .6 0 2.4 1.7 4 3.7 1.5 2.1 4.3 5.4 6.3 7.3 1.9 1.9 3.9 4.5 4.2 5.8 .4 1.2 1.2 2.2 1.7 2.2 .6 0 .7 .8 .3 1.8-.5 1.2-.4 1.5 .5 1 .7-.5 1.5-.1 1.9 1 .3 .9 .7 2 .7 2.3 .1 .3 .9 1.3 1.9 2.2 .9 .9 2.6 1.7 3.7 1.7 1.1 0 2 .3 2 .8 0 .4 1 .6 2.3 .4 1.2-.2 3.3 .6 4.7 1.8 1.4 1.1 3.1 1.8 3.8 1.5 .6-.3 1.2 .2 1.2 1 0 .8 .6 1.5 1.3 1.5 .6 0 2.2 1.2 3.5 2.5 1.2 1.4 2.9 2.3 3.7 2 .8-.3 1.5 .1 1.5 .8 0 .6 1.4 1.7 3.2 2.2 1.8 .6 3.2 1.6 3.1 2.3-.2 .6 .4 1.2 1.2 1.2 .8 0 1.5 .5 1.5 1 0 .6 .7 1 1.5 1 .8 0 1.5 .7 1.5 1.5 0 .9 .6 1.3 1.5 1 .8-.3 2.3 .4 3.3 1.5 .9 1 2 1.9 2.5 2 .4 0 2.2 1.6 4 3.5 1.7 1.9 3.8 3.4 4.5 3.5 .6 0 1 .5 .7 1-.3 .6 .3 1.1 1.3 1.1l1.7 .1 1.8-.1c0.9 0 2.8 .9 4.2 2.2 1.4 1.2 3.3 2.9 4.3 3.7 1 .8 2.9 1.7 4.2 1.8 1.4 .2 2.6 .8 2.8 1.3 .1 .5 1.3 .9 2.7 .9 1.4 0 2.5 .6 2.5 1.3 0 .6 1.6 1.9 3.7 2.7 2 .8 4.3 1.4 5 1.3 .7-.2 1.3 .2 1.3 .7 0 .6 .7 .8 1.5 .5 .8-.3 1.5-.2 1.5 .3 0 .4 1.8 1.4 4 2.2 2.2 .8 4 2.1 4 2.8 0 .6 1.5 1.4 3.3 1.7 1.7 .3 3.8 .6 4.5 .8 .6 .1 1.2 .8 1.2 1.5 0 .6 .8 1.1 1.8 1 .9-.2 1.7 .1 1.7 .6 0 .4 1.8 1.6 4 2.7 2.2 1.1 4.6 1.9 5.3 1.9 .6 0 1.1 .6 1 1.3-.2 .6 .5 1.1 1.5 1 .9-.2 1.6 .3 1.5 1-.2 .6 .7 1.2 1.9 1.2 1.1 0 2.5 .3 3 .8 .4 .4 1.6 .7 2.6 .7 .9 0 1.9 .6 2 1.3 .2 .6 1.7 1.6 3.3 2 1.6 .5 4 1.7 5.4 2.6 1.4 1 3.9 1.7 5.5 1.6 1.7 0 3.9 .5 5 1.2 1.1 .7 2.9 1.3 4 1.3 1.1 0 3.6 1.3 5.5 2.7 2.1 1.6 5.1 2.8 7.5 3 2.2 .2 4.9 1 6 1.7 1.3 .9 2.6 1.1 3.8 .5 1-.6 1.7-.5 1.7 .1 0 .6 .7 1 1.5 1 1 0 1.3 .6 .8 1.8-.3 .9-.2 1.4 .3 1 .5-.4 2.3 0 3.9 .9 1.7 .9 3.8 2 4.8 2.4 .9 .5 2.5 .9 3.5 .9 1.4 0 1.5-.2 .2-1-1.3-.8-1.2-1 .3-1 .9 0 1.8 .6 1.8 1.3l0.1 1.2-.1 .8c0 .4 1.9 .5 4.4 .2 2.5-.3 4.7-.1 5 .5 .3 .7 1.3 .6 2.8-.1 1.8-.8 2.6-.7 4.2 .9 1.1 1.1 2.7 1.7 3.5 1.4 1-.4 1.2-.2 .8 .6-.6 .8 .3 1.2 3 1.3 2.9 0 3.3 .2 1.7 .8-1.5 .6-.6 .9 3 1 2.8 .1 6.6 .3 8.5 .5 1.9 .2 4.8 1 6.3 1.7 1.5 .8 2.7 1.9 2.7 2.4-.1 .6 .6 .4 1.5-.2 .8-.7 2.6-1.1 4-.8 1.4 .3 2.5 .8 2.5 1.3 0 .4 3.3 .8 7.2 1 4 .2 7.9 .7 8.6 1.2 .8 .7 1.3 .6 1.5-.2 .3-1 .7-1 1.8-.2 .8 .6 4.3 1.4 7.9 1.8 3.6 .4 7 1.1 7.5 1.6 .6 .5 2.2 1.2 3.8 1.5 1.6 .3 2.5 .1 2.2-.5-.3-.5-.2-1 .3-1 .4 0 1.1 .3 1.5 .7 .5 .5 1.6 .9 2.5 1 1 .1 3.1 .5 4.7 .8 1.7 .4 3.7 .9 4.5 1.3 .8 .3 2.6 .7 4 .9 1.4 .2 4.1 .4 6 .4 1.9-.1 3.2 .2 2.8 .7-.5 .4-.2 1.3 .5 2 .8 .9 1.5 .9 2.2 .2 .6-.6 2.5-1 4.2-.8 1.8 .2 3.4 0 3.5-.5 .2-.4 2.7-.3 5.6 .3 2.8 .5 5.9 .8 6.7 .5 .8-.3 1.7 0 2 .5 .3 .6 1 .8 1.5 .5 .6-.3 1.6-.1 2.3 .4 .6 .4 2.8 1.1 4.7 1.5 2.4 .4 3 .3 2-.3-.8-.6-1.3-1.2-1-1.5 .3-.3 4.1-.6 8.6-.8 5.3-.2 8.6 .1 9.5 .9 .9 .8 2.4 1 4.4 .4 1.7-.5 6.6-.7 11-.6 4.4 .1 8.7-.1 9.5-.6 .9-.5 2.4-.2 3.8 .6 1.9 1.3 2.3 1.3 3 0 .4-.9 2.1-1.7 3.7-1.8 1.7-.2 3.6 0 4.3 .5 .7 .4 1.4 .4 1.7-.2 .3-.5 1.3-.7 2.3-.3 1 .5 1.4 .4 1-.2-.4-.6 1-1.3 3.3-1.7 2.1-.5 4.4-.6 4.9-.3 .6 .3 1 .1 1-.5 0-.5 1-.8 2.3-.5 1.2 .3 2.6 .2 3-.2 .5-.5 2.7-.9 5-1 2.3-.1 6.5-.4 9.2-.8 2.8-.3 6.9-.8 9.3-1 2.6-.3 5-1.4 6.5-2.8 1.7-1.8 3.2-2.3 6.7-2.2 2.5 .1 5.5-.4 6.8-1.1 1.2-.8 3.6-1.2 5.2-.9 1.7 .3 3 .8 3 1.3 0 .4 1.8 .6 4 .5 2.8-.2 4-.8 4-1.8 0-.8 .6-1.3 1.3-1.1 .6 .3 2.4-.6 4-2 1.5-1.3 3-2.4 3.5-2.4 .4 .1 1.2 .8 1.9 1.8l1.1 1.7 1.9-2.2c1-1.2 2.7-2.2 3.8-2.2 1.1 0 2.7-.7 3.5-1.6 .8-.8 1.7-1.3 2-1 .3 .3 1 0 1.5-.5 .6-.5 3-1.2 5.5-1.6 2.5-.3 4.8-.7 5.3-1 .4-.2 .4-1.2 .1-2.1-.5-1.5-.2-1.7 1.5-1 1.2 .4 2.3 .3 2.6-.3 .3-.5 1.1-.8 1.8-.7 .6 .2 1.9-.3 2.7-1.2 .8-.9 2.1-1.7 2.8-1.8 .6-.2 3.8-.6 7-.9 3.1-.3 6.3-.8 7-1 .8-.3 .9-.8 .2-1.6-.5-.7-.7-1.6-.2-2.1 .4-.4 2.5-.4 4.7 0 3 .5 3.8 .4 3.3-.5-.5-.7 0-1.4 1.2-1.7 1.1-.3 2.8-.1 3.8 .4 1.2 .6 3 .3 6-1 2.3-1 4.2-2.3 4.2-2.9 0-.5 .7-1.7 1.5-2.5 1.2-1.2 1.8-1.3 3.2-.2 1.4 1 1.6 .9 1-.5-.4-1-.2-1.8 .3-1.8 .6 0 .8-.3 .6-.7-.2-.5 .8-.9 2.2-1 1.5-.1 3.5-1 4.5-2 1.1-1.1 1.8-1.3 1.7-.5 0 .9 .6 .9 2.8 0 1.5-.7 3.3-1.8 4-2.5 .6-.7 2.4-1.6 4-1.9 1.5-.4 3.6-1.7 4.7-3 1.3-1.5 2.8-2.1 4.3-1.8 1.2 .2 2.9 0 3.7-.6 .8-.5 1.3-1.7 1-2.5-.4-1.1 .5-1.6 3.5-2 2.7-.3 4-1 4-2 0-.8 .5-1.5 1-1.5 .6 0 1 .6 1 1.3 0 .8 .4 .7 1-.3 .5-.8 1-1 1-.5 0 .6 1.4-.4 3.2-2.1 1.8-1.7 4.8-4.1 6.6-5.2 2-1.4 3.9-1.9 5-1.5l1.7 .7-1.5-1.8c-.8-.9-1-1.7-.5-1.8 .6 0 1.5-.1 2-.3 .6-.1 2-.3 3.3-.3 1.8-.2 2.1-.6 1.5-2.4-.6-2-.4-2.2 1.2-1.5 1.5 .5 2.3 .2 3.3-1.3 .7-1.2 1.9-1.8 3-1.5 .9 .3 2.4 .1 3.2-.5l1.5-1-1.5-1c-1.2-.8-1.1-1 .8-1 1.2 0 2.2-.4 2.2-1 0-.5 .7-1 1.5-1 .8 0 2.1-.9 2.8-1.9 .6-1 2.5-2.1 4.2-2.2 1.9-.3 3.3-1.2 4-2.7 .5-1.2 1.4-1.9 1.8-1.5 .4 .5 .7 .2 .7-.4 0-.7 1.2-1.8 2.8-2.5 1.5-.6 3-1.1 3.5-1 .4 .1 .7-.5 .7-1.3 0-.8 .5-1.3 1-1 .6 .3 1.2-.1 1.5-.7 .2-.7 2-2.1 4-3 1.9-1 4.2-1.6 5-1.3 .9 .3 1.9-.4 2.5-1.5 .6-1.1 1-3.3 1-5 0-1.8 .8-3.7 2-4.7 1.1-1 2-2.4 2-3 0-.7 .5-1.3 1-1.3 .6 0 .9-.8 .8-1.7 0-1 .2-2.5 .6-3.3 .4-.8 .6-3.3 .4-5.4l-.3-3.9-2.8-.1c-1.6-.1-3.3 .5-3.8 1.2-.6 .8-2.5 1-5.9 .7-3.6-.4-5.5-1.1-6.9-2.7-1-1.3-1.6-2.9-1.5-3.5 .2-.7 0-2.2-.6-3.3-.8-1.6-.6-2.4 1-3.7 1.1-1 2-2.6 2-3.5 0-1.1 .5-1.6 1.3-1.2 .6 .3 3.2-1.4 5.7-3.9 2.5-2.4 5.4-5.6 6.5-7 1.1-1.5 2.3-2.5 2.8-2.2l0.7 .5-.7-2.1c-.6-1.6-.5-1.9 .7-1.4 .9 .3 1.8 0 2.3-.9 .4-.9 .3-1.6-.3-1.6-.5 0-1-.7-1-1.5 0-.8 .5-1.5 1-1.5 .6 0 1.8-1.7 2.9-3.7 1-2.1 2.6-5.4 3.6-7.3 1.4-2.7 1.6-4.7 1.1-9-.4-3-1.2-5.7-1.9-5.9-.7-.3-2-1.3-2.9-2.3-1-1-2.4-1.8-3-1.8-.7 .1-1.9-.5-2.5-1.2-.9-.9-.9-1.6-.2-2.3 .6-.5 .8-1.6 .5-2.2-.4-.8-2.8-1.3-6.3-1.3-3.8 0-6.3-.6-7.3-1.5-1.3-1.4-2-1.2-5.5 1.5-2.2 1.6-4.7 3.7-5.5 4.5-.9 1-2.4 1.4-3.7 1.1-1.6-.4-2.7 0-3.5 1.4-.7 1.1-1.7 2-2.3 2-.5 0-2.3 1.1-4 2.5-1.7 1.5-2.3 2.3-1.2 2 .9-.3 1.7 0 1.7 .5 0 .6-.4 1-1 1-.5 0-.8 .6-.6 1.3 .2 .8-.8 1.2-2.9 1.2-1.8 0-3.1-.3-2.9-.7 .2-.5-.5-.6-1.6-.3-1.2 .3-1.8 1.1-1.5 2 .3 .9-.1 1.5-1 1.5-.8 0-1.5 .5-1.5 1 0 .6-.8 1-1.7 1.1-1.1 0-.7 .4 1 1 1.5 .5 2.7 1.4 2.7 1.9 0 .6-1 .7-2.2 .4-1.3-.4-3-.9-3.8-1.3-.9-.3-1.2-.1-.8 .4 .4 .6-.5 1.9-1.9 3-1.4 1.1-3.8 2.1-5.2 2.3-1.4 .2-2.8 .7-3.1 1.1-.3 .4-1.8 1.4-3.5 2.2-1.6 .8-3.2 2.4-3.5 3.8-.3 1.3-1.4 2.7-2.5 3.2-1.1 .4-1.7 .8-1.2 .8 .4 .1 0 1.1-.8 2.4-.9 1.2-2.3 2.3-3.3 2.4-.9 .1-2.3-.2-2.9-.8-.8-.6-1.5-.5-1.8 .1-.3 .6 0 1 .5 1 .6 0 1 .5 1 1 0 .6-1.5 .8-3.5 .5-3-.4-3.9 0-6.7 3-1.8 1.9-3.9 3.5-4.5 3.5-.7 0-1.5 .7-1.8 1.5-.3 .8-.9 1.3-1.5 1l-1-.5-2 .5c-1.1 .3-2 1.2-2 2 0 .8 .7 1.5 1.5 1.5 .8 0 1.5 .9 1.5 2 0 1.1-.2 2-.5 2-.3 0-1.4-.4-2.5-1-1.5-.7-2-.7-2 .3 0 .7-.3 .8-.8 .2-.4-.5-1.5-1.1-2.4-1.2-1-.2-2 .4-2.3 1.2-.3 .8-2 1.8-3.7 2.1-1.8 .3-4.6 1.5-6.1 2.7-2.1 1.6-3 3.4-3.5 6.9-.6 3.9-1 4.6-2.7 4.4-1.1-.2-3.3-.9-4.8-1.7-2.5-1.3-3.2-1.2-6.2 .6l-3.5 2 1.8 1.3 1.7 1.4-1.7-.6c-1-.3-1.8-.3-1.8 .2 0 .4-1.9 1.6-4.2 2.6-2.4 1.1-5.3 2.6-6.5 3.5-1.2 .9-2.1 1.8-1.9 2.1 .3 .3-1 .5-2.7 .4-1.8 0-4.5-.6-6.2-1.3l-3-1.2-1.7 2.5c-1 1.5-2.5 2.6-3.3 2.6-1 0-1.3-.5-.8-1.7 .5-1.3 .4-1.6-.5-1-.6 .4-1.9 0-2.7-.8-.8-.8-2.4-1.5-3.5-1.5-1.1 0-1.8-.4-1.5-1 .3-.5-.2-1.7-1-2.5-.8-.8-1.3-2.1-1.2-2.7 .2-.7 1.5-1.3 2.8-1.3 1.5 0 2.5-.7 2.7-1.8 .1-.9 .7-1.7 1.2-1.7 .6 0 1-.4 1-1 0-.5 1.4-2.3 3-4 1.7-1.6 3-3.7 3-4.5 0-.9 .6-1.3 1.5-1 .8 .3 1.7-.2 2-1 .3-.8 1.2-1.3 2-1 .8 .3 1.4 0 1.3-.6-.2-.6 1.2-2 3-3 1.7-1.1 3.9-1.7 4.7-1.4 .8 .3 2.7-.7 4.3-2.1 2-1.9 3.4-2.5 5.2-2.1 2 .5 2.2 .4 1.3-.6-1-.9-.8-1.4 1-2.3 1.2-.6 2.1-1.6 2-2.2-.2-.7 .9-1.5 2.5-1.8 1.5-.4 4.3-1.8 6.2-3.3 1.9-1.4 4-2.6 4.5-2.6 .6-.1 2-.6 3.3-1.3 1.2-.7 2-1.6 1.7-2.2-.3-.5 1.3-1.4 3.5-2 2.3-.6 4.4-1.9 5-3 .6-1.1 1.6-1.8 2.5-1.5 .8 .3 1.7-.1 2-.7 .3-.7 2.1-2 4-2.8 1.9-.8 3.5-1.9 3.5-2.5 0-.5 1.5-1.7 3.3-2.6 1.7-.8 3.9-2.9 4.7-4.5 1.2-2.5 1.9-2.9 3.5-2.3 1.1 .4 3 .8 4.3 .8 1.7 .1 2.1-.3 1.7-1.9-.4-1.5 0-2 1.5-2 1.1 0 2-.7 2-1.5 0-.8 .7-1.5 1.5-1.5 .8 0 2.1-1.4 2.8-3 .6-1.7 2.1-3.3 3.2-3.6 1.1-.4 2.7-1.2 3.5-2 .8-.7 2.6-1.5 4-1.7 1.7-.3 2.6-1.1 2.8-2.5 .1-1.6 .9-2.2 2.7-2.2 1.6 0 3-.9 4-2.5 .8-1.4 2.2-2.5 3-2.5 .8 0 1.3-.4 1-1-.3-.5 .1-1 .8-1 .6 0 2-.8 2.9-1.7 .9-1 2.4-2.5 3.3-3.3l1.7-1.5 .8 1.5c0.7 1.2 1.1 .9 2.2-1.5 .7-1.6 1.5-3.2 1.8-3.5 .3-.3 .5-1.2 .5-2 0-.9 1.1-1.6 2.8-1.7 1.9-.2 3-1.1 3.7-3 .6-1.6 1.2-2.5 1.5-2 .3 .4 1.9-.8 3.5-2.5 1.7-1.8 3.5-3.7 4-4.3 .6-.5 2.6-2.6 4.6-4.5 2-1.9 3.9-4.8 4.3-6.4 .3-1.6 1.4-3.2 2.4-3.7 .9-.5 1.7-.6 1.7-.1-.1 .4 .6 .1 1.5-.5 .8-.7 1.3-1.7 1-2.3-.3-.5-.2-1 .3-1 .4 0 1-1.3 1.5-3 .4-1.7 1.4-3 2.2-3 1 0 1.3-.7 1-2-.3-1.1-.2-2 .3-2 .4 0 1.4-1.1 2.2-2.5 .8-1.4 2.1-2.5 2.8-2.5 .8 0 1-.9 .7-2.5-.4-1.9 0-2.6 1.5-3 1.4-.3 1.9-1.2 1.8-2.7-.1-1.3 .8-3.8 2-5.5 1.2-1.8 2.2-3.6 2.2-4-.1-.5 .6-1.5 1.5-2.3 .9-.8 1.6-2.8 1.5-4.5 0-1.9 1-4.1 2.5-5.7 1.4-1.6 2.3-3.1 2.1-3.5-.3-.5 .1-1.9 .8-3.3 .7-1.4 1.3-2.9 1.4-3.5 .2-.5 .8-2.4 1.5-4.2 .8-2 1.7-2.9 2.7-2.6l1.5 .5-1.5-1.1c-1.2-.9-1.2-1.2-.2-1.8 .7-.5 1.2-1.5 1.1-2.3-.1-.8-.1-2.1 0-2.7 0-.7 .8-1.3 1.6-1.3 1 0 1.5-1 1.5-2.7 0-1.6 .9-4.6 2-6.8 1.1-2.2 2-5 2-6.2 0-1.3 .5-2.3 1-2.3 .6 0 1-1.8 1-4 0-2.5 .5-4 1.3-4 .9 0 .9-.3 .1-1.2-.9-1-.8-2 .4-4.3 .8-1.6 1.8-4.7 2.1-6.8 .3-2 .9-3.7 1.4-3.7 .4 0 .5-.8 .2-1.7-.3-1 .2-5.6 1-10.3 .9-4.7 2-8.7 2.5-9 .7-.3 .7-3.5 .1-9-.6-5.3-.6-8.9 0-9.5 .5-.6 .9-9 .9-18.7 0-14.9-.2-17.9-1.5-18.3-.8-.3-2.2-.2-3.2 .3-1.2 .5-1.5 .3-1.2-1.3 .3-1.2 1.2-1.9 2.2-1.7 1.4 .2 1.7-.6 1.7-3.8 0-2.3-.4-3.8-1-3.5-.5 .3-1.1-.3-1.2-1.2 0-1-.1-2.7 0-3.8 .1-1.1-1.4-3.7-3.3-5.7-1.9-2.1-3.5-4.2-3.5-4.8 0-.5 .5-1.2 1-1.5 .6-.3 1-1.1 1-1.7 0-.7-.4-1.9-.8-2.6-.4-.7-1.6-1.4-2.7-1.6-1.6-.3-1.9-1-1.7-3.7 .1-1.9 0-3.1-.3-2.6-.3 .4-1.2 0-2-.8-.8-.8-1.8-2.6-2.2-4-.5-1.6-1.3-2.4-2-2-.8 .3-1.4-.3-1.4-1.2-.1-1-.2-2.2-.3-2.8 0-.5-.9-1-1.9-1-1 0-2.3-.9-3-2-.6-1.1-1.7-2.6-2.4-3.2-.7-.7-2.8-1.3-4.5-1.3-2.9-.1-3.1-.2-1.5-1.3l1.7-1.2-1.5-1.5c-1-.9-1.2-1.7-.6-2 .6-.3 .2-1.2-.9-2.2-1.2-1.1-2.2-1.4-2.5-.8-.3 .6-2.4-.4-4.7-2-2.4-1.7-5.1-3-6-3-1 0-2-.6-2.3-1.2-.2-.7-2.5-2.4-5-3.8-2.5-1.4-4.5-2.8-4.5-3.2 0-.5-1-.8-2.2-.8-1.3 0-4.3-.7-6.8-1.4-2.5-.8-4-1.5-3.5-1.6 .6-.1-.1-.6-1.5-1.1-1.4-.6-4.1-1.2-6-1.5-2-.2-3.7 .1-4 .7-.3 .7-2.1 .2-5-1.5-2.7-1.5-6.1-2.6-8.5-2.6-2.2 0-5.3-.8-7-1.8-1.6-1-3.6-1.7-4.2-1.5l-1.3 .3 1.3 1.5c1 1.3 .9 1.6-.5 1.5-1 0-1.9-.8-2.1-1.7-.2-1-1.6-2.1-3.3-2.5-1.6-.4-9.4-.5-17.4-.4-8 .1-15.6-.2-17-.6-1.6-.6-2.6-.6-2.7 .1-.2 .6-1 1.1-1.8 1.1-.8 0-1.5 .8-1.5 1.8l-.1 1.7-.9-1.7c-.8-1.4-1.8-1.7-4.2-1.2-1.8 .4-4.9 .7-6.8 .8-1.9 .1-4.8 .6-6.5 1-1.6 .5-3.9 1.6-5 2.5-1.3 1.1-3.4 1.6-6 1.5-2.2-.1-5.6 .5-7.5 1.3-1.9 .9-5.1 1.6-7.2 1.7-2 .1-3.1 .4-2.5 .8 .7 .3-.4 .7-2.3 .7-2.5 0-4.2-.7-5.7-2.4-1.9-2-2.7-2.3-4.3-1.5-1.1 .6-2.2 1-2.5 1l-.5 0 .5-1.5c0.3-.8-.2-1.9-1-2.5-1.3-.9-1.3-1.5 .3-5 .9-2.2 1.4-4.4 1-4.8-.4-.4-.3-1.5 .2-2.4 .6-1 1.7-1.8 2.5-1.8 .8 0 1.3-.4 1-1-.3-.5 .2-1 1-1 .8 0 1.3-.4 1-1-.3-.5 .1-1.4 .8-1.9 .6-.6 2.1-1.1 3.2-1.3 1.1-.2 2.6-.7 3.3-1.1 .6-.4 1.7-.5 2.2-.2 .6 .3 1 .1 1-.5 0-.5 1.5-1.3 3.3-1.6 1.7-.3 4.5-1.1 6-1.7 1.5-.7 2.8-1.8 2.7-2.4 0-.7 .7-1.1 1.5-.8 .8 .3 1.5 .1 1.5-.5 0-.5 .6-.8 1.3-.6 .6 .3 2.2-.5 3.4-1.7 1.3-1.2 2.3-2.8 2.3-3.4 0-.7 .9-1.7 2-2.3 1.1-.5 1.8-1.6 1.6-2.2-.2-.7 .5-2.6 1.5-4.3 1.3-2.3 1.8-5.3 1.9-12.5 .1-5.2 .8-12.4 1.6-16 .9-3.6 1.8-7.2 2.1-8 .3-.8 .8-2.2 1-3 .2-.8 .6-3.7 .9-6.5 .3-2.7 1.2-5.7 1.9-6.5 .7-.8 2.5-4.1 3.9-7.2 1.4-3.2 3.1-5.8 3.6-5.8 .6 0 .8-.4 .5-1-.3-.5 .2-1.7 1-2.5 .8-.8 1.7-1.3 2-1 .3 .3 2-1 3.8-2.8 1.7-1.9 4.1-3.7 5.2-4.2 1.1-.4 3.5-.7 5.3-.7 1.7 .1 3.8 .8 4.5 1.5 .6 .7 1.7 1.5 2.2 1.7 .6 .3 2.3 2.1 3.9 4l2.7 3.5-1.3 7c-.7 3.9-1.2 8.2-1 9.8 .1 1.5-.1 2.7-.5 2.7-.5 0-1.2 1.9-1.6 4.2-.5 2.4-1.5 4.8-2.3 5.3-.8 .6-1.6 3.6-2 7.5-.3 3.6-.9 7-1.3 7.5-.4 .6-.8 4.5-.9 8.8-.2 6.5 .1 8 1.7 9.5 1.1 .9 1.8 2.3 1.5 3-.2 .7 .8 1.4 2.4 1.8 1.5 .3 3.3 .8 4 1 .6 .2 1.7-.5 2.2-1.6 .7-1.3 2-2 4-2 1.7 0 4.2-.9 5.8-1.9 1.5-1 4.6-2.2 7-2.5 2.4-.3 4.4-.2 4.7 .4 .3 .6 1 .8 1.5 .5 .6-.3 1 .2 1 1 0 .9 .6 1.3 1.5 1 .9-.3 1.5 .1 1.5 1 0 .8 .7 1.4 1.7 1.3 1-.2 1.9 .6 2.4 2.2 .4 1.4 .8 2.1 .9 1.5 .1-.5 .5 0 1.1 1.3 .5 1.2 1.8 2.5 3 3 1.1 .4 2.7 1.7 3.5 3 .8 1.2 1.7 2 2.2 1.7 .4-.2 1.5 .7 2.5 2 .9 1.4 2.4 2.5 3.2 2.5 .8 0 1.3 .5 1 1-.3 .6 .2 1.2 1 1.5 .8 .3 1.7 .5 2 .5 .3 0 .5-.8 .5-1.7-.1-1.5 .2-1.6 1.2-.6 .7 .7 2.8 1.5 4.6 1.8 2.1 .3 3.7 0 4.7-1 .8-.8 2-1.5 2.5-1.5 .6 0 2.1-1 3.5-2.2 1.4-1.3 2.5-2.9 2.5-3.5 0-.7 .3-1.2 .8-1 .4 .1 .9-.2 1.1-.8 .2-.5 1.2-2.2 2.2-3.7 1-1.6 1.7-3.2 1.4-3.8-.3-.5 .1-1.4 .8-1.9 .6-.5 1.5-2.3 2-4 .4-1.7 1.3-3.1 2-3.1 .6 0 1.3-.6 1.4-1.2 .2-.7 .4-2.3 .5-3.6 .2-1.2 .9-2.6 1.6-3 .8-.4 1-1.4 .5-2.7-.5-1.2-.4-1.7 .2-1.3 .6 .4 1.7-.8 2.6-2.5 .9-1.8 2.4-5 3.3-7.2 1-2.2 2.1-4.8 2.6-5.7 .6-1 1-3 1-4.5 .1-1.6 .7-3.9 1.5-5.3 .8-1.4 1.4-4.2 1.5-6.2 0-2.7 .4-3.8 1.5-3.8 1.1 0 1.4-.8 .9-3.2-.3-1.8-1.1-4.6-1.7-6.3-.6-1.6-1.7-3.6-2.4-4.2-.7-.7-1.1-2-.8-2.8 .3-1-.4-1.7-2.2-2.1-1.6-.4-3.4-1.2-4.2-1.8-.8-.6-2.4-1.7-3.5-2.3-1.2-.7-2.9-1.5-3.8-1.8-1-.3-1.8-.9-1.8-1.5 0-.5-1.7-1.2-3.7-1.5-2.9-.4-4.1-1.2-5.1-3.3-.7-1.5-1-4-.6-5.7 .3-1.6 1.4-4.9 2.5-7.2 1.2-2.8 1.8-6.1 1.7-9.3-.2-4-.7-5.1-2.3-5.7-1.1-.3-2.9-1.5-4-2.5-1.1-1-2.4-1.8-3-1.8-.5 0-1.9-.9-3-2-1.1-1.1-2.9-2-4-2-1.1 .1-2.7-.6-3.5-1.5-.8-.9-1-1.6-.5-1.5 .6 0-.6-1-2.5-2.1-1.9-1.2-3.8-2.8-4.2-3.5-.5-.8-1.5-1.4-2.3-1.4-.8 0-2.3-.8-3.2-1.7-.9-1-3.1-2.5-4.7-3.3-1.7-.8-3.5-2.5-4.1-3.8-.5-1.2-1.6-2.2-2.2-2.2-.7 0-1.4-.4-1.5-.9-.2-.5-.9-1.1-1.7-1.3-.8-.2-2.6-1.2-4-2.3-1.4-1.1-3.5-3-4.8-4.2-1.3-1.3-3-2.1-3.8-1.8-.8 .3-1.5-.1-1.5-.7-.1-.7-1.6-2.6-3.5-4.3-2.5-2.2-4.1-2.9-6-2.5-2.1 .4-2.7 .1-3.2-2l-.6-2.5-.9 2c-.7 1.7-.8 1.6-.6-.7 .2-1.5 .1-2.8-.2-2.9-.3-.1-1.4-.2-2.5-.3-1.1-.1-3.7-1.6-5.8-3.2-2.1-1.6-3.8-3.2-3.7-3.6 0-.5-.8-1.1-1.7-1.6-1-.4-4.3-2.3-7.3-4.2-3-1.9-6.1-3.4-6.7-3.2-.7 .1-1.5-1-1.8-2.5-.3-1.6-1.8-3.5-3.3-4.4-1.5-.9-3.3-2.7-4-4-.7-1.3-3-3.5-5.2-4.9-2.2-1.4-4-3.1-4-3.7 0-.7-1.2-2-2.7-2.9-1.6-.9-3.6-1.3-4.5-1-1 .3-1.8 .2-1.8-.4 0-.5 .5-1 1-1 .6 0 1-.3 1-.7 0-.5-1.4-.7-3-.5-2.3 .1-2.9-.2-2.5-1.3 .3-1-.6-1.8-3-2.5-2.1-.6-4.6-2.4-6.2-4.6-1.6-2-4-4.3-5.5-5-1.6-.8-3.2-2.4-3.7-3.6-.6-1.6-2.3-2.7-5.5-3.5-2.5-.7-4.6-1.6-4.6-2 0-.5-1.7-1.7-3.9-2.8-2.2-1.1-3.8-2.3-3.6-2.7 .3-.5-.5-1.5-1.7-2.3-1.3-.8-3-1.5-3.8-1.5-.8 .1-2.6-1.2-4-2.9-1.4-1.6-4.3-3.7-6.5-4.6-2.4-1-5.1-1.4-6.7-1.1-1.6 .3-2.8 .2-2.8-.4 0-.5 .5-1.2 1-1.5 .6-.3 .7-2.2 .3-4.7l-.6-4.3 2.1 .8c1.3 .4 2.2 .3 2.2-.3 0-.5 .5-.8 1-.5 .6 .3 1.8 .1 2.8-.5l1.7-.9-1.7-.1c-1 0-1.7-.6-1.5-1.2 .2-.7 1.4-1.4 2.8-1.6 1.9-.2 2.1-.1 .9 .7-1.2 .9-1.1 1.1 .8 1.1 1.2 0 2.2-.4 2.2-1 0-.5 .7-1 1.5-1 .8 0 2.2-.7 3-1.5 1-1 2.5-1.3 4.8-.9 1.7 .4 3.8 1.1 4.5 1.5 .7 .5 1.4 .5 1.7-.1 .3-.5-.7-1.3-2.2-1.7l-2.8-.7 2.5-.7c1.4-.4 3.1-.7 3.8-.8 .6-.1 1 .6 .7 1.4-.3 .8-.2 1.5 .3 1.5 .4 .1 1.9-1.1 3.5-2.5 1.5-1.4 3.4-2.5 4.2-2.5 .8 0 1.5-.8 1.5-1.7 0-1 1.6-3 3.5-4.5 1.9-1.6 4-2.8 4.5-2.8 .6 0 1.7-.7 2.5-1.5 .8-.8 2.4-1.5 3.5-1.5 1.1 0 1.8-.3 1.6-.7-.3-.5 1.2-1.1 3.2-1.6 2-.4 5.2-1.7 6.9-3 1.9-1.2 3.5-3.4 3.8-4.9 .3-1.6 1-3 1.5-3.3 .6-.3 1-1.6 1-3 0-1.4 .5-2.8 1.1-3.2 .7-.5 1-2.4 .8-4.4-.2-2.1 .1-4.1 .9-4.8 .6-.6 1.7-1.1 2.2-1.1 .6 0 1-.9 1-2 0-1.1 .5-2.2 1-2.5 .6-.3 1-1.3 1-2.2 0-1 1-2.9 2.3-4.1 1.6-1.8 2.1-3.4 2-6.5-.1-2.3-.2-5.5-.2-7.2-.1-1.6 .4-3.4 .9-4 .6-.5 1-2.3 1-4 0-1.6-.8-5.6-1.8-8.8-.9-3.2-1.9-5.7-2.2-5.7-.3 0-1.4-1.6-2.5-3.5-1.1-2-2.3-3.5-2.7-3.5-.5 0-1-1.1-1.3-2.5-.3-1.7-1.2-2.5-2.5-2.5-1.1 0-2-.4-2-1 0-.5-1.6-1.7-3.5-2.5-1.9-.8-3.5-1.9-3.5-2.5 0-.5-.6-1-1.2-1-.7 0-3.2-.9-5.5-2-2.4-1.1-4.7-2-5.3-2-.5 0-1-.4-1-1 0-.5-3.5-1.7-7.7-2.6-4.3-.9-8.8-1.5-10-1.3-1.3 .2-2.3 .1-2.3-.3 0-.5-.7-.6-1.5-.3-.8 .3-1.5-.1-1.5-.7 0-1-1.2-1.1-5.2-.4-2.9 .5-7.8 1.1-10.8 1.2-3 .1-6.4 .3-7.5 .5-1.1 .2-2.3 .9-2.7 1.4-.5 .6-.8 .4-.8-.5-.1-1.1-.4-1-1.5 .5-.9 1.1-1.5 1.4-1.5 .8 0-1-1.3-1.1-4.7-.7-2.7 .3-5 .9-5.3 1.3-.3 .5-1.6 1.2-3 1.6-1.4 .4-3.6 1.6-5 2.7-1.4 1-2.8 1.9-3.2 1.8-.5 0-2.9 1.4-5.5 3-2.7 1.7-5.6 3-6.5 3-1 0-2.8 1-4 2.3-1.3 1.2-4.3 3.2-6.7 4.2-2.8 1.3-9 6.4-16.5 13.8-6.7 6.5-12 12.2-11.8 12.7 .1 .6-.5 1-1.3 1-.8 0-1.5 .7-1.5 1.5 0 .8-1.1 2.4-2.5 3.5-1.4 1.1-2.5 2.3-2.5 2.8 .1 .4-1.7 2.8-4 5.5-2.2 2.6-4 4.9-4 5.2 0 .3-1.1 2.1-2.5 4l-2.5 3.5 1.3 3.5c0.6 1.9 .9 3.7 .5 4-.5 .3-1.4 .2-2-.2-.7-.4-1.7-.8-2.3-.8-.5 0-1.6 1.1-2.3 2.5-.7 1.4-1.3 3-1.3 3.5 0 .6-1.2 1.9-2.7 3.1-1.6 1.3-4.9 2.3-8.4 2.7-4.5 .6-6 .4-6.5-.7-.5-.8-1.2-1.6-1.6-1.8-.4-.2-1.2 .4-1.7 1.2-.7 1-1 1.1-1 .3 0-.8-1-1.2-2.5-1-1.4 .1-2.5-.3-2.5-1 0-.7-.7-1.3-1.5-1.3-.8 0-1.3 .5-1 1 .3 .6-.4 1-1.5 1-1.1 0-2.2-.7-2.5-1.5-.3-.9-1.6-1.5-3.2-1.4-1.6 .1-5.8-.6-9.5-1.5-4.8-1.1-8.8-1.4-13.5-.9-3.8 .3-7.7 .3-8.8-.2-1.1-.4-5.5-.9-9.7-1.1-4.3-.2-8.8-.9-10-1.5-1.7-.8-2.6-.8-3.3 0-.5 .6-1.3 1.1-1.7 1.1-.5 0-.6-.4-.3-1 .3-.6-1-.8-3.7-.4-2.4 .4-6.3 .8-8.8 .9-2.5 .1-4.7 .3-5 .4-.3 .2-3 .4-6 .6-3 .1-6.7 .5-8.2 .9-1.6 .3-2.8 1.3-2.8 2.1 0 .8-.1 1.5-.2 1.5-.2 0-2.2-.6-4.5-1.5-3.8-1.3-4.4-1.3-4.8 0-.3 1-1.1 1.3-2.5 .8-1.5-.6-2.4-.2-3.4 1.2l-1.3 2-1.1-2c-.6-1.1-1.2-1.5-1.2-1 0 .6-3.2 1.1-7.3 1.2-3.9 0-7.8 .1-8.4 .2-.7 .1-1.6 1.1-1.9 2.4-.4 1.5-.8 1.8-1.2 .8-.5-.9-1.6-1.1-3.7-.6-1.6 .4-4.3 .8-6 .9-1.6 .1-3.6 .5-4.2 .9-.7 .4-2.2 .5-3.3 .2-1.1-.3-2.2 .1-2.4 .8-.2 .6-1.6 1.3-3.2 1.3-1.6 .1-3 .7-3.1 1.3-.2 .6-1.5 1.1-3 1.1-1.6 .1-3.2 .7-3.8 1.6-.5 .8-2.5 1.5-4.2 1.7-1.9 .1-3.3 .8-3.3 1.5 0 .6-.7 1-1.5 .7-.8-.3-2.3 .3-3.2 1.3-1 1-2.4 1.7-3 1.5-.7-.2-2.9 1.3-4.8 3.2-2.1 2.1-4.5 3.5-6 3.5-1.4 0-3.5 .5-4.7 1.1-1.3 .7-2.5 1.5-2.8 1.8-.3 .4-1.7 1.2-3.2 1.9-1.6 .6-3.1 2-3.5 3-.3 .9-1.3 2.4-2.2 3.3-.9 .9-2.5 1.4-3.6 1.2-1.1-.2-3.9-.4-6.2-.6-3.1-.1-5-1-7-2.9-1.5-1.5-2.5-3-2-3.3 .4-.3 2.2 .3 4 1.2 1.7 .9 3.8 1.8 4.5 2 .6 .2 1.5-.5 1.9-1.4 .3-1 1.1-2.1 1.7-2.5 .7-.4 0-1.2-1.6-2-1.6-.8-2.7-2.2-2.7-3.5-.1-1.6 .5-2.3 1.7-2.3l1.7 .1-1.7-1.8c-1-1-1.8-2.4-1.8-3 0-.7 .6-1.3 1.3-1.3 .6 0 .9-.3 .5-.7-.4-.4 .4-1.6 1.7-2.5 1.4-1 2.2-2.4 1.9-3-.3-.7 .2-2 1.1-2.8 .9-.8 1.6-1.9 1.6-2.5 0-.5 1-3 2.2-5.5 1.2-2.5 2.5-4.6 3-4.7 .4-.2 .7-1 .7-1.8 0-.8 .7-3 1.6-4.7 .9-1.8 1.8-5.4 2-8 .3-3.1 1.1-5.5 2.4-6.8 1.1-1.1 2-2.6 2.1-3.2 0-.7 .2-2.8 .5-4.5 .2-1.8 1.1-4.9 1.9-6.8 .8-1.9 1.3-4.2 1-5-.3-.8 0-1.7 .5-2 .6-.3 .7-1 .3-1.6-.5-.6-.3-1.4 .2-1.8 .6-.3 1.7-3.3 2.4-6.6 .7-3.3 1.7-8.5 2.2-11.5 .6-3 1.2-7.7 1.4-10.5 .3-2.7 .7-5.2 1-5.5 .3-.3 .1-.9-.4-1.5-.5-.5-1.2-3.9-1.6-7.5-.3-3.6-1-6.9-1.6-7.5-.5-.5-.9-1.9-1-3 0-1.1-.8-2.7-1.9-3.5-1-.8-2-2.7-2.2-4.2-.2-1.4-.6-2.4-1-2.2-.5 .2-1-.5-1.3-1.6-.3-1.1-.9-2-1.5-2-.5 0-3-2-5.5-4.5-2.5-2.5-5.1-4.5-5.7-4.5-.7 0-2-.7-2.8-1.4-.8-.8-3.5-2.2-6-3.1-2.5-.9-6.2-1.6-8.2-1.6-2.1 .1-4-.3-4.3-.9-.3-.5-.9-1-1.5-1ZM814 164.9c0.8 0 1.2 .4 .8 .8l-.8 .8-.7-.8c-.5-.4-.1-.8 .7-.8ZM590.3 231c-1.6 0-3.6 .7-4.5 1.5-1 .8-1.6 2-1.3 2.5 .3 .6 2.2 1 4.3 1 2 0 4-.3 4.4-.7 .3-.4 .5-1.6 .2-2.5-.3-1.2-1.3-1.8-3.1-1.8ZM669.8 236.1c0.1-.1 0 .6-.3 1.4-.3 .8-.9 1.5-1.5 1.5-.5 0-1-.4-1-1 0-.5 .6-1.2 1.3-1.4 .6-.3 1.3-.5 1.5-.5ZM446 261c0.6 0 1 .5 1 1 0 .6-.4 1-1 1-.5 0-1-.4-1-1 0-.5 .5-1 1-1ZM734.8 269.6c2.6 .4 5.5 1 6.5 1.5 .9 .5 1.6 1.1 1.5 1.4-.2 .3-3.1 0-6.6-.7-3.4-.7-6.2-1.6-6.2-2 0-.5 2.1-.5 4.8-.2ZM721 270.2c1.4 0 1.9 .1 1.3 .4l-1.3 .4-1.2-.4c-.7-.3-.2-.4 1.2-.4ZM747.5 273c1.6 0 2.5 .6 2.5 1.5 0 1-1 1.5-3 1.5-2.2 0-2.9-.4-2.5-1.5 .3-.8 1.6-1.5 3-1.5ZM778 274c0.6 0 1 .5 1 1 0 .6-.2 1-.5 1-.3 0-.7-.4-1-1-.3-.5 0-1 .5-1ZM719 285.9c0.8 0 1.2 .4 .8 .8l-.8 .8-.7-.8c-.5-.4-.1-.8 .7-.8ZM752 286c0.6 0 1 .5 1 1 0 .6-.4 1-1 1-.5 0-1-.4-1-1 0-.5 .5-1 1-1ZM810 328c-.5 0-.8 .5-.5 1 .3 .6 .7 1 1 1 .3 0 .5-.4 .5-1 0-.5-.4-1-1-1ZM849.7 359.3c-.4-.5-.8-.1-.8 .7 0 .8 .4 1.2 .8 .8l0.8-.8-.8-.7ZM852 361c-.5 0-.8 .5-.5 1 .3 .6 .7 1 1 1 .3 0 .5-.4 .5-1 0-.5-.4-1-1-1ZM764.5 363.9c0.6 0 .3 .7-.5 1.6-.8 .9-2.2 1.6-3 1.5-1.1 0-1-.4 .5-1.5 1.1-.9 2.5-1.5 3-1.6ZM722.1 372.3c0.4 .6 1.2 .9 1.8 .5 .6-.5 1.8-.2 2.7 .5 1.3 1 1.7 .9 2.2-.2 .5-.9 1.6-1.1 3.7-.6 1.7 .4 4.8 .6 7 .5 3.3-.1 4.3 .3 5.5 2.5 .8 1.4 2.2 2.5 3 2.5l1.5 0-1.5 1c-1.3 .8-1.2 1 .3 1 .9 0 1.7 .6 1.7 1.3-.1 .6 .6 1.8 1.5 2.5 1.1 .9 1.4 2.9 1.3 8.3-.3 6.2-.5 6.9-2 6.5-1.2-.4-2.2 .1-2.8 1.4-.7 1.3-2 2-4 2-1.8 0-3.9 .9-5.1 2.3-1.2 1.2-1.9 1.6-1.5 1 .3-.7 .3-1.3-.1-1.3-.5-.1-1.4 .6-2 1.5-1 1.2-1.9 1.3-4 .4-1.6-.5-5.5-.9-8.8-.7l-6 .3 .3 2.3c0.1 1.2-.2 2.2-.8 2.2-.6 0-.8 1.3-.5 3l0.5 3-2.5-.5c-2.2-.4-2.5-.2-2.5 2.3 0 1.5-.5 3.3-1.2 4-.7 .7-2.1 1.2-3 1.2-1 0-2.7 1.5-3.8 3.3-1 1.7-2.3 4.6-2.7 6.4-.4 1.8-1 3-1.3 2.8-.3-.2-1.5 1.8-2.7 4.5-1.3 2.8-2.7 5-3.3 5-.5 0-1.5 1.2-2 2.8-.6 1.5-1.8 4.3-2.8 6.2-.9 1.9-2.1 3.8-2.7 4.2-.5 .4-2 1.5-3.3 2.5-1.2 1-2.3 2.6-2.2 3.6 0 1.2-.8 1.7-2.5 1.7-1.4 0-4.3 .9-6.5 2l-4 2-5.2-2.7c-2.9-1.5-5.6-3.3-6-4-.5-.7-1.5-1.1-2.3-.8-.8 .3-1.8-.1-2.1-.7-.4-.7-.9-4.9-1.2-9.3-.3-5-.1-9.1 .6-11 .7-1.6 1.3-4.3 1.5-5.8 .1-1.6 .8-3.4 1.5-4 .7-.7 1.3-2 1.2-2.9 0-1 .5-1.8 1-1.8 .6 0 .7-1 .4-2.2l-.6-2.3 .6 .8c0.3 .4 1.7-.3 3.1-1.5 1.3-1.3 2.2-2.6 2-3-.3-.5 .2-1.2 1-1.8 .8-.5 1.3-1.3 1-1.7-.2-.5 .9-2.1 2.5-3.8 1.6-1.6 2.7-3.3 2.5-3.7-.3-.5 .6-1.5 2-2.3 1.5-.9 2.5-2.4 2.5-3.7-.1-1.3 1.6-4.1 3.6-6.3 2-2.2 3.4-3.4 3-2.7-.3 .6-.4 1.2-.1 1.2 .3 0 1.2-.7 2-1.5 .8-.8 1.3-1.7 1-2-.3-.3 .2-1.2 1-2 .8-.8 2-1.3 2.5-1 .6 .3 2-.3 3.3-1.3 1.2-1 3.8-2.4 5.7-3.2 2.7-1 3.2-1.5 2-2.2-1-.6-.7-.7 1-.2 1.7 .4 2.7 .1 3.3-1 .4-.9 1.4-1.4 2.2-1.1 .9 .3 2.6-.8 4-2.5 2-2.4 2.9-2.8 4.8-2.2 1.5 .6 3.3 .3 5.7-1 2.7-1.4 3.7-1.5 4.1-.5ZM883.5 386.5c0.8 .3 1.5 1.1 1.5 1.8 .1 .8-.4 .8-1.5-.3-.9-.8-1.6-1.6-1.5-1.7 0-.2 .7-.1 1.5 .2ZM685 388.9c-.8 0-1.2 .4-.7 .8l0.7 .8 .8-.8c0.4-.4 0-.8-.8-.8ZM896 395.9c0.8 0 1.2 .4 .8 .8l-.8 .8-.7-.8c-.5-.4-.1-.8 .7-.8ZM899.6 399.8c0.2 .6 1.6 1.7 3.2 2.3 2.2 .8 2.4 1.2 1.2 1.9-.8 .6-1.7 1-2 1-.3 0-1.1-1.1-1.7-2.5-.7-1.4-1.3-2.8-1.2-3.2 0-.5 .2-.2 .5 .5ZM957 479.9c0.8 0 1.2 .4 .8 .8l-.8 .8-.7-.8c-.5-.4-.1-.8 .7-.8ZM725.5 529.7c0.6 .3 2.5 .5 4.3 .4 2.4-.1 3.5 .4 4.3 2.2 .6 1.2 2.3 3.3 3.8 4.7 1.5 1.4 2.5 3.2 2.3 4-.2 .8 .8 2.2 2.2 3 1.4 .8 2.3 1.8 2.1 2.3-.3 .4 0 2.8 .5 5.5 .6 2.6 1.3 5.8 1.5 7.2 .2 1.4 1.5 3.5 2.9 4.8 2.1 1.7 2.3 2.3 1.1 2.7-.8 .3-1.5 1.4-1.5 2.5 0 1.1-.8 3-1.7 4.1-1 1.2-2.4 2.7-3 3.5-.7 .8-1.1 1.9-.8 2.4 .3 .6 .1 1.2-.5 1.5-.5 .3-1 1-1 1.5 0 .6 1.1 .8 2.5 .5 1.4-.3 2.5 0 2.5 .5 0 .6-.8 1.1-1.7 1.1l-1.8 .1-.7-.1c-.5 0-.8 .8-.8 1.9 0 1.5-.4 1.8-1.7 1.3-1.4-.7-1.5-.4-1 1.5 .6 1.8 .3 2.2-1.3 2.2-1.1 0-2.4-.9-3-2-.7-1.4-2-2-4.5-2-2.4 0-3.5 .5-3.5 1.5 0 .8-1 1.8-2.2 2.2-1.3 .3-3.6 .7-5.3 .7-1.6 .1-3.6 .7-4.2 1.3-.9 .9-1.9 1-3.3 .3-1.1-.5-1.8-1.4-1.5-2 .3-.5-.5-1.5-1.7-2.2-1.3-.6-3.5-2.4-5-4-1.6-1.5-3.5-2.6-4.3-2.3-.8 .3-1.3 .1-1-.5 .3-.5 .1-1-.5-1-.5 0-1-1.9-1-4.2 0-2.8-.8-5.5-2.3-7.8-1.8-2.7-2.2-4.5-1.9-8 .2-2.5 .5-6 .5-7.7 .1-1.8 .5-3.3 1-3.3 .4 0 .6-.6 .5-1.2-.2-.7 .3-1.2 1-1 .6 .1 1.2-.5 1.2-1.3 0-.8 .5-1.3 1-1 .6 .3 1.3-.5 1.6-1.7 .3-1.3 .6-2.9 .5-3.5-.1-.7 .6-1.5 1.4-1.8 .8-.3 1.5-1.2 1.5-2 0-.8 .6-1.4 1.3-1.4 .6 .1 2.7-.4 4.5-1.2 2-.8 3.1-1.9 2.8-2.6-.3-.7-.1-1.3 .4-1.3 .6 0 1 .6 1 1.3 0 .8 .3 .8 .8 .1 .4-.6 2.7-1.1 5.2-1.3 2.5-.1 4.7-.4 5-.6 .3-.3 1-.2 1.5 .2ZM911.8 529.6c0.6 .2 1.2 1.1 1.2 1.9 0 .8-.3 1.5-.7 1.5-.5 .1-1.4-.5-2-1.2-.7-.7-1-1.6-.5-2 .4-.4 1.3-.5 2-.2ZM695.7 575.3l0.8 .7-.8 .8c-.4 .4-.8 0-.8-.8 0-.8 .4-1.2 .8-.7ZM706.7 584.3c-.4-.5-.8-.1-.8 .7 0 .8 .4 1.2 .8 .8l0.8-.8-.8-.7ZM825.5 589.1c1.1-.1 1.8 .1 1.5 .4-.3 .4-1.2 .4-2 .2-1-.4-.9-.6 .5-.6ZM730 589.9c0.8 0 1.2 .4 .8 .8l-.8 .8-.7-.8c-.5-.4-.1-.8 .7-.8ZM912 590c-.5 0-1 .2-1 .5 0 .3 .7 .7 1.5 1 .8 .3 1.3 .1 1-.5-.3-.5-.9-1-1.5-1ZM808.5 593c0.3 0 .7 .5 1 1 .3 .6 .1 1.2-.5 1.5-.5 .3-1-.2-1-1 0-.8 .2-1.5 .5-1.5ZM717 593.9c0.8 0 1.2 .4 .8 .8l-.8 .8-.7-.8c-.5-.4-.1-.8 .7-.8ZM677.7 609.3l0.8 .7-.8 .8c-.4 .4-.8 0-.8-.8 0-.8 .4-1.2 .8-.7ZM926 610.2c1.4 0 1.9 .1 1.3 .4l-1.3 .4-1.2-.4c-.7-.3-.2-.4 1.2-.4ZM963 616.5c0.6 .3 1 1.2 1 2 0 .8-.4 1.5-1 1.5-.5 0-1.2-.4-1.5-1l-.5-1 .5-1c0.3-.5 1-.8 1.5-.5ZM880.3 624c0.4 0 .9 .9 1.2 2 .3 1.1 1 1.8 1.5 1.5 .6-.3 1.2 0 1.5 .5 .3 .6 1 .8 1.5 .5 .6-.3 .8-1.2 .5-2-.3-.9 .2-1.5 1.3-1.6 .9 0 2.9-.3 4.5-.5 1.5-.2 2.7 .1 2.7 .6 0 .6 .7 .8 1.5 .5 .8-.3 1.8 0 2.3 .6 .4 .7 1.9 .9 4 .5 2.6-.5 3.2-.3 3.2 1.2 0 .9 1.2 2.2 2.7 2.9 1.6 .7 4.2 1.1 5.8 .9 1.7-.2 4.1 .3 5.5 1 1.4 .7 2.8 1.1 3.3 .8 .4-.2 .7 .2 .7 .9 0 .6 .6 2.1 1.4 3.2 1.2 1.6 1.7 1.7 2.8 .8 .7-.6 2-.9 2.8-.6 .8 .4 2.2 1.5 3 2.4 .8 1 2.1 1.8 2.8 1.9 .6 0 1.2 .9 1.2 2 0 1.1 .5 2.2 1 2.5 .6 .3 1.9 2.5 3 5 1.1 2.5 2.2 7.3 2.5 10.8 .3 3.4 1.1 7.6 1.8 9.4 .9 2.5 .9 3.4 0 4.7l-1.3 1.6 1.3 1.5c1 1.3 .7 1.7-2 2.5-1.8 .6-3.1 1.5-2.8 2 .3 .6-1.1 2.1-3 3.5-3.1 2.2-3.3 2.7-2 4 .8 .8 1.5 2.2 1.5 3 0 .8-.9 1.5-2 1.5-1.1 0-2 .5-2 1 0 .6-.7 1-1.5 1-.8 0-1.5 .5-1.5 1 0 .6-1 1.2-2.2 1.4-1.3 .3-2.9 0-3.7-.7-1.2-1-1.4-.9-.8 .6 .5 1.2-.3 2.6-2.5 4.7-1.8 1.7-4.1 3-5 3-1.3 0-1.8 .8-1.8 3 0 2.2-.6 3.1-2 3.5-1.1 .3-2.1 0-2.3-.7-.2-.9-1.9-.2-4.7 1.9-2.5 1.8-4.9 2.9-5.4 2.5-.5-.4-.7 0-.4 .8 .4 1.1-.2 1.5-2.3 1.5-1.6 0-2.9-.2-2.9-.5 0-.3-2.3-.4-5-.2-4 .1-5.4-.2-6.7-1.8-1-1.1-2.2-2-2.8-2-.5 .1-1.7-.6-2.5-1.5-.8-.9-2.3-1.3-3.2-1-1 .3-2 .1-2.3-.5-.3-.5-1.8-1-3.5-1-1.9 0-3.2-.6-3.7-1.7-.3-1-1.9-3-3.5-4.5-1.5-1.6-3.8-2.9-5-3.1-1.3-.1-2.2-.8-2-1.5 .1-.6-1-2.3-2.5-3.6-1.6-1.3-4.1-3.6-5.8-5-1.6-1.5-3.3-2.7-3.7-2.6-.5 0-.1-.7 .7-1.5 .8-.8 1.5-1.9 1.5-2.5 0-.5-.3-.9-.7-.9-.5 .1-1.5 .1-2.3-.1-1.1-.1-.9-.4 .5-1l2-.9-2 0c-1.1 0-2.5-.6-3.1-1.3-.5-.7-1-2.2-.9-3.3 0-1.1-.5-3.1-1.1-4.5-.6-1.4-1.5-5.2-1.9-8.5-.4-3.3-.9-7.2-1.1-8.7-.2-1.6 .1-2.8 .6-2.8 .6 0 1-1.6 1-3.5 0-2.7 .5-3.6 2-4 1.1-.3 2.2-1.3 2.5-2.2 .2-1 2.2-3.7 4.5-6 2.2-2.4 4.3-4.3 4.8-4.3 .4 0 2.3-1.1 4.2-2.6 1.9-1.4 5.1-3.3 7-4.1 1.9-.8 4.3-1.7 5.3-1.9 .9-.2 1.7 .2 1.7 .9 0 .7 1.3 1.2 3.3 1.2 1.7 0 3.8-.4 4.5-.8 .6-.4 1.2-.2 1.2 .3 0 .6 .8 1 1.8 1 1.4 .1 1.5-.2 .5-1.2-.7-.7-1-1.6-.5-2.1 .4-.4 1-.7 1.5-.7ZM901 624c0.6 0 1 .5 1 1 0 .6-.4 1-1 1-.5 0-1-.4-1-1 0-.5 .5-1 1-1ZM893.5 626.1c-1.4 0-1.5 .2-.5 .6 .8 .2 1.7 .2 2-.2 .3-.3-.4-.5-1.5-.4ZM972.7 626.3l0.8 .7-.8 .8c-.4 .4-.8 0-.8-.8 0-.8 .4-1.2 .8-.7ZM967 629c0.6 0 1 .5 1 1 0 .6-.2 1-.5 1-.3 0-.7-.4-1-1-.3-.5 0-1 .5-1ZM992.7 652.3c-.4-.5-.8-.1-.8 .7 0 .8 .4 1.2 .8 .8l0.8-.8-.8-.7ZM990.7 658.3l0.8 .7-.8 .8c-.4 .4-.8 0-.8-.8 0-.8 .4-1.2 .8-.7ZM997.7 672.3l0.8 .7-.8 .8c-.4 .4-.8 0-.8-.8 0-.8 .4-1.2 .8-.7ZM930 697c-.5 0-1 .5-1 1 0 .6 .5 .8 1 .5 .6-.3 1-.7 1-1 0-.3-.4-.5-1-.5ZM862 709c0.6 0 1 .5 1 1 0 .6-.4 1-1 1-.5 0-1-.4-1-1 0-.5 .5-1 1-1ZM357 761.9c0.8 0 1.2 .4 .8 .8l-.8 .8-.7-.8c-.5-.4-.1-.8 .7-.8ZM451 788c0.6 0 1.2 .5 1.5 1 .3 .6-.2 .8-1 .5-.8-.3-1.5-.7-1.5-1 0-.3 .5-.5 1-.5ZM769.5 805.8c0.8 .6 1.2 1.8 .9 2.5-.5 .9-.9 .8-1.5-.3-.5-.8-.9-1.9-.9-2.5-.1-.5 .6-.4 1.5 .3ZM743 810.1c3.4 .2 6.2 1.3 11.8 4.8l7.2 4.6-.2 3c-.1 1.7-.5 3.6-1 4.3-.4 .6-.6 1.5-.3 2 .2 .4-.4 1.4-1.3 2.2-1 .8-3 2.2-4.5 3-1.8 1-2.7 2.3-2.7 3.8 0 1.2-.6 2.4-1.2 2.6-.7 .3-.5 .5 .5 .5 1 .1 1.7 .9 1.7 2.1 0 1.1-.7 2.3-1.6 2.8-1.3 .5-1.5 1.6-1 5 .3 2.3 1.3 4.9 2.1 5.7 .8 .8 1.8 1.2 2.1 .8l0.5-.8-.5 2.8c-.4 1.5-.2 2.7 .4 2.7 .6 0 2 .9 3.3 2 1.2 1.1 1.8 2 1.2 2-.5 0 .6 1.1 2.5 2.6 1.9 1.4 3.4 3 3.3 3.5-.2 .5 .4 1.6 1.2 2.4 .8 .8 2 1.3 2.5 1 .6-.3 1 0 1 .5 0 .6 .6 .9 1.3 .7 .6-.2 1.8 .2 2.5 1 .6 .7 1.2 1.8 1.2 2.3 0 .6 .6 .9 1.4 .8 .7-.2 3.5 1.5 6.1 3.7 3.1 2.7 4.6 4.6 4.4 6-.2 1.1 .5 3.2 1.4 4.8 1.4 2.2 1.5 3 .5 4.2-1 1.3-1 1.8-.1 2.8 1 .9 0 1.8-4.7 4-3.3 1.5-6 3.2-6 3.7 0 .6-2.2 .8-5.7 .4-3.2-.3-6.4-1.1-7.2-1.7-.8-.7-3.6-2.2-6.3-3.4-2.6-1.3-4.8-2.9-4.8-3.5 0-.7-1.5-2-3.2-2.8-1.8-.8-4.4-2.5-5.8-3.8-1.4-1.2-2.8-2.3-3.2-2.2-.5 0-2.4-1.5-4.4-3.2-1.9-1.8-5.3-5-7.5-7-2.7-2.7-5.1-4-8.1-4.4-2.4-.4-5.2-.4-6.3 0-1.7 .6-1.8 .8-.5 1.6 .8 .5 1.1 1.2 .6 1.7-.5 .4-1 .2-1.2-.4-.2-.7-1.4-1.3-2.6-1.3-1.3 0-3.1 .6-4 1.3-1 .7-1.7 1.8-1.8 2.5 0 .6-.5 1.5-1.1 2-.6 .4-1.5 0-2-.8-.5-.8-.9-1-.9-.5 0 .6-2.7 1-5.9 1-3.9 0-6.5-.5-7.3-1.4-1-1-1-1.2 0-.7 .6 .3 1.2 .2 1.2-.4 0-.5-1.3-1.9-3-3-1.6-1.1-2.8-2.4-2.5-3 .3-.5 .1-1-.5-1-.5 0-1.3 .1-1.7 .3-.4 .1-1.1-1.6-1.4-3.8-.5-2.7-.2-5.1 .9-7.5 .8-1.9 1.6-3.7 1.7-4 .1-.3 .7-1.7 1.3-3.2 .7-1.6 2.1-3.4 3.2-4 1.1-.7 2-2 2-2.8 0-.8 1.3-2.3 3-3.2 1.6-1 3-2.5 3-3.3 0-.9 .8-1.4 1.8-1.2 .9 .1 1.6-.4 1.5-1-.2-.9 .9-1.3 3.2-1.3 2 0 3.3-.4 3-1-.3-.5 .5-1.4 1.8-1.9 1.2-.4 2.8-.7 3.5-.5 .6 .2 1.2-.2 1.2-.8-.1-.7 1.9-2.9 4.3-4.8 2.5-1.9 5.5-5.1 6.8-7 1.3-1.9 2.4-3.9 2.5-4.5 0-.5 .2-1.9 .3-3 .1-1.6 .3-1.7 1-.5 .7 1.3 1.1 1.1 2.2-.7 .8-1.2 3.2-3.1 5.4-4.3 2.6-1.3 5.6-2 8.5-1.9ZM709 838.9c-.8 0-1.2 .4-.7 .8l0.7 .8 .8-.8c0.4-.4 0-.8-.8-.8ZM228.7 881.3l0.8 .7-.8 .8c-.4 .4-.8 0-.8-.8 0-.8 .4-1.2 .8-.7ZM788.7 897.3c-.4-.5-.8-.1-.8 .7 0 .8 .4 1.2 .8 .8l0.8-.8-.8-.7ZM935.5 926c0.3 0 .5 .5 .5 1 0 .6-.4 1-1 1-.5 0-.8-.4-.5-1 .3-.5 .7-1 1-1ZM914.8 941c1.2 0 2.4 .5 2.7 1 .3 .6-.1 1-.7 1-.7 0-2-.5-2.8-1-1.2-.8-1.1-1 .8-1ZM902 954c0.6 0 .8 .5 .5 1-.3 .6-.9 1-1.5 1-.5 0-.8-.4-.5-1 .3-.5 1-1 1.5-1ZM885.7 964.3l0.8 .7-.8 .8c-.4 .4-.8 0-.8-.8 0-.8 .4-1.2 .8-.7ZM410.8 982.1c1.2 0 3.1 .4 4.2 .9 1.4 .7 2.5 .6 3.5-.2l1.6-1.3-.1 1.3c0 .6 .7 1.2 1.5 1.2 1.1 0 1.4 .7 1 2.5-.4 2-.1 2.5 1.8 2.8 1.6 .1 2.3 .9 2.5 3 .1 1.5 .9 2.9 1.7 3.2 1.2 .4 1.3 .8 .3 2.2-.7 .9-1.4 2.8-1.6 4.2-.1 1.4-.3 3.5-.5 4.6-.1 1.1-1 2.7-1.9 3.5-.9 .8-1.7 2.2-1.7 3 0 .8-1.4 2.9-3.1 4.5-1.9 1.9-3.2 4.4-3.6 7-.3 2.2-1.5 5.4-2.5 7-1 1.7-1.9 3.8-1.9 4.8 0 .9-.4 1.7-1 1.7-.5 0-1.3 1.2-1.7 2.8-.3 1.5-.9 2.9-1.2 3.2-.3 .3-1.2 1.4-1.9 2.5-.6 1.1-1.6 2.9-2.2 4-.5 1.1-1.7 3.8-2.6 6-.9 2.2-1.6 4.3-1.6 4.8 .1 .4-.1 .7-.5 .7-.5 0-1.7 .7-2.8 1.6-1.6 1.3-1.7 1.5-.2 1 1.5-.5 1.5-.3 .5 1.3-1 1.6-2.1 1.9-5.3 1.5-2.2-.3-5.7-1.6-7.7-3-2.1-1.3-4.5-2.4-5.3-2.4-1 0-1.3-.7-1-2l0.5-2-.5 0c-.3 0-1.2 .2-2 .5-.8 .3-1.3 1-1 1.5 .3 .6-.7 .5-2.2-.2-1.6-.7-3-1.5-3.3-1.9-.3-.3-1.7-.9-3.2-1.2-2.2-.6-2.7-1.2-2.5-2.9 .2-1.3 1.5-4.8 2.9-7.8 1.4-3 3.1-6.2 3.9-7 .8-.8 2.3-3.3 3.4-5.5 1.1-2.1 2.1-4.6 2.2-5.4 .1-.9 1.2-4 2.5-6.8 1.3-3.1 2.9-5.2 3.7-5 .8 .1 1.5-.9 1.7-2.5 .2-1.6 1.3-4.1 2.4-5.8 1.1-1.6 2-3.4 2-4 0-.5 .5-1 1-1 .6 0 .8-.7 .5-1.5-.3-.8 0-1.6 .6-1.7 .7-.2 1.3-1.4 1.4-2.8 .1-1.7 .7-2.4 1.9-2.2 .9 .1 1.9-.6 2.2-1.5 .3-1 2.5-3.3 5-5 2.4-1.8 4.2-3.7 3.9-4.3-.3-.5 .5-1.2 1.8-1.4 1.2-.2 3.2-.4 4.5-.5ZM225 985c-.5 0-1 .5-1 1 0 .6 .5 1 1 1 .6 0 1-.4 1-1 0-.5-.4-1-1-1ZM845 987c0.6 0 1.2 .5 1.5 1 .3 .6-.2 1-1 1-.8 0-1.5-.4-1.5-1 0-.5 .5-1 1-1ZM842.5 988c0.3 0 .2 .7-.2 1.5-.5 .8-.9 1.3-1 1-.2-.3-.1-.9 .2-1.5 .3-.5 .7-1 1-1ZM383.3 1061c-.2 0-.3 .5-.3 1 0 .6 .8 1.3 1.8 1.6 1.5 .5 1.5 .4 .2-1.1-.8-.9-1.6-1.6-1.7-1.5ZM363 1073.9c0.8 0 1.2 .4 .8 .8l-.8 .8-.7-.8c-.5-.4-.1-.8 .7-.8ZM818.2 1103.7c-1.1-1-1.2-.9-.5 .6 .4 .9 1 1.5 1.3 1.2 .3-.3-.1-1.1-.8-1.8ZM780 1113.9c0.8 0 1.2 .4 .8 .8l-.8 .8-.7-.8c-.5-.4-.1-.8 .7-.8ZM774 1114.9c0.8 0 1.2 .4 .8 .8l-.8 .8-.7-.8c-.5-.4-.1-.8 .7-.8ZM711 1130.9c0.8 0 1.2 .4 .8 .8l-.8 .8-.7-.8c-.5-.4-.1-.8 .7-.8ZM681.5 1135c0.3 0 .5 .5 .5 1 0 .6-.4 1-1 1-.5 0-.8-.4-.5-1 .3-.5 .7-1 1-1ZM662 1138c0.6 0 1 .2 1 .5 0 .3-.4 .7-1 1-.5 .3-1 .1-1-.5 0-.5 .5-1 1-1Z"/>
</svg>