<svg xmlns="http://www.w3.org/2000/svg" width="2288" height="2912">
<path d="M1140.7 119.8c-2.2-.2-4.1 0-4.3 .5-.2 .4-1.6 .7-3.1 .7-1.6 0-5.7 .6-9.3 1.4-3.6 .7-9.1 2.5-12.2 4-4.2 1.9-6.7 2.4-9 2-2-.4-3.6-.2-4 .5-.5 .6-1.9 1.1-3.3 1.1-1.4 0-3.2 .7-4 1.5-.8 .8-2.1 1.2-2.7 .9-.7-.3-2.1 .2-3 1-1 .9-1.8 1.9-1.8 2.4 0 .4-3 2.1-6.8 3.9-3.7 1.8-9.7 5.9-13.4 9.3-5.4 4.8-7.3 5.9-9.3 5.5-1.4-.3-3.6 .2-5 1-1.4 .8-2.5 2.3-2.5 3.3 0 1.4-.2 1.5-.9 .2-.6-1.1-1.4-.3-3.2 3.5-2 4-2.9 5-4.7 4.8-1.4-.2-2.2 .2-2.2 1.2 0 .8 .8 1.5 1.8 1.5 1.5 0 1.4 .3-.6 2.2-1.7 1.8-2.4 2-3 1-.4-.7-2-1.2-3.7-1-2.2 .2-3 .8-3 2.3 0 1.2-.7 2-1.7 2-.9 0-2.6 .9-3.6 2-1.1 1.1-2.9 2.8-4.1 3.8-1.5 1.2-1.9 2.2-1.2 3.5 .7 1.3 0 2.7-2.8 6-2 2.3-4.4 4.2-5.3 4.2-1 0-2.4 .8-3 1.8-.7 1-2.4 2.6-3.8 3.5-1.4 .9-2.5 2.4-2.5 3.4 .1 1 .4 2.3 .7 2.8 .3 .6-.2 3.2-1.1 5.9-.9 2.7-2.4 5.2-3.3 5.7-1 .5-1.6 1.6-1.3 2.4 .3 .9-.1 1.5-1 1.5-.8 0-1.5-.4-1.5-1 0-.5-.4-.8-1-.5-.5 .3-1.3 2-1.7 3.8-.3 1.7-1.5 4-2.5 5-1 .9-2.2 2.6-2.8 3.7l-1 2 1 1.5c0.6 .8 .8 2.4 .5 3.5-.3 1.1-1.1 2-1.7 2-.7 0-2.3 1-3.4 2.2-1.2 1.3-2.4 3.9-2.8 5.8-.4 1.9-1.5 4.6-2.5 6-1 1.4-2.1 3.6-2.4 5-.3 1.4-1 4-1.6 5.8-.6 1.7-1.6 4.7-2.3 6.5-.6 1.7-1.4 6.1-1.7 9.7-.3 3.6-1 6.5-1.6 6.5-.5 0-.8 .7-.7 1.5 .2 .8 .8 2 1.3 2.5 .5 .6 .9 2 .9 3.3 0 1.2-.7 2.4-1.5 2.7-.8 .3-1.5 1.2-1.5 2 0 .8-.4 2.3-1 3.3-.5 .9-1.6 3.3-2.4 5.2-.8 1.9-1.6 4.6-1.8 6l-.3 2.4-7.2 1.1c-5.6 .8-7.6 .7-9-.3-1-.7-3-1.2-4.5-1.2-1.8 0-2.8-.5-2.8-1.5 0-.8-.8-1.5-1.7-1.5-1 0-2.4-1.2-3.2-2.7-.8-1.5-1.3-4-1.3-5.5 .1-1.9-.7-3.7-2.7-5.5-1.7-1.6-3.2-4.5-3.7-6.8-.6-2.8-2.3-5.5-5.7-9-2.7-2.7-7.7-7.8-11-11.3-3.8-3.8-7.8-6.8-10.2-7.7-2.2-.7-4.3-1.1-4.8-.7-.4 .4-.7 .1-.7-.5 0-.7-1.1-2.3-2.5-3.5-1.9-1.7-2.2-2.5-1.3-3.1 .9-.6 .7-.7-.4-.3-1.3 .4-2.1-.2-3-2.4-.7-1.7-1.9-3.1-2.5-3-.7 0-1.5-.6-1.7-1.2-.2-.7-2.7-2.2-5.6-3.3-2.9-1.1-5.5-2.6-5.7-3.2-.1-.7-1.6-1.3-3.3-1.3-1.9 0-3.9-.9-5.5-2.5-1.6-1.6-3.6-2.5-5.5-2.5-2 0-3.2 .6-3.5 1.8-.5 1.4-1 1.2-3.5-1.5-1.7-1.9-3.9-3.3-5.2-3.3-1.3 .1-3-.6-3.8-1.5-.8-.9-2.1-1.6-2.7-1.5-.7 0-1.5-.6-1.6-1.2-.2-.8-2.4-1.3-5.8-1.4l-5.4-.1-3.2-3.7c-1.8-2-4.2-3.6-5.3-3.6-1.1 0-2.2-.6-2.5-1.2-.3-.7-2.2-1.4-4.3-1.5-2-.2-7.7-.6-12.7-.9-4.9-.4-9.4-1-10-1.5-.5-.4-1.9-.5-3-.2-1.2 .3-3.6-.3-5.7-1.6-2.5-1.3-5.1-2-7.5-1.8-2.1 .1-4.2 .5-4.8 .9-.5 .3-2.2 .4-3.7 .2-2-.3-2.8 0-2.8 1.1 0 .8-.3 1.5-.7 1.6-.5 0-5.5 .3-11.3 .5-5.8 .2-12.7 .5-15.5 .7-3.5 .2-5.8 1-7.5 2.5-1.4 1.2-1.9 2.2-1.2 2.2 .6 0 1.2 .5 1.2 1 0 .6-1.2 .4-2.7-.4-2.2-1.1-3.3-1.1-5.1-.2-1.2 .6-2.2 1.4-2.2 1.9 0 .4-2.2 .7-5 .7-3.6 0-5.1-.4-5.5-1.5-.3-.8-.9-1.5-1.5-1.5-.5 0-2.6 1.6-4.5 3.5-2.4 2.4-4.1 3.3-5.5 3-1.4-.4-2.1 .1-2.5 1.5-.3 1.1-1.1 1.9-1.7 1.8-.7 0-2 .1-2.8 .5-.8 .3-3.1 1-5 1.6-1.9 .6-4.1 1.1-4.7 1.1-.7 0-1.3-.7-1.3-1.5 0-.8-.6-1.3-1.2-1-.7 .3-2.1 .7-3 1-1 .3-1.7 1.2-1.5 2.1 .1 1.1-.5 1.7-2 1.8-1.1 .1-3.2 1-4.5 2.1-1.2 1.2-3.4 2.6-4.8 3.2-1.4 .6-3.7 1.4-5.2 1.7-1.7 .4-3 1.4-3.3 2.6-.3 1.2-1.3 2-2.5 2-1.1 0-2.2 .6-2.5 1.3-.2 .6-1.5 1.5-2.7 1.9-1.3 .4-4.2 2.5-6.5 4.7-2.4 2.3-4.3 4.8-4.3 5.6 0 1.1-.4 1.3-1.7 .6-1.4-.8-2.6-.2-5.5 2.7-2.1 2-3.7 4.3-3.8 5 0 .6-.7 1.9-1.5 2.7-.8 .8-2.3 1.5-3.2 1.5-1 0-2.5 1.2-3.3 2.7-.8 1.6-2.5 3.6-3.7 4.6-1.3 .9-3 3.3-3.8 5.2-.8 1.9-1.3 4-1 4.5l0.5 1-.5 2c-.4 1.5-1.1 1.9-3.2 1.6l-2.8-.4-1.2 .4c-.7 .2-1.3 .9-1.3 1.4 0 .6-2.1 4.3-4.7 8.3-2.6 3.9-7 11.7-9.8 17.2-3.7 7.4-5.5 9.9-6.8 9.8-1-.2-1.9 .5-2.2 1.7-.3 1.1-.8 2-1.2 2-.5 0-1.4 1.1-2 2.5-.7 1.4-1.3 4-1.3 5.8 .1 1.7-.6 3.9-1.5 4.7-.9 .8-1.6 2.5-1.5 3.8 0 1.2-.4 2.4-1 2.7-.5 .3-1 1.7-1 3.3 0 1.5-.5 3.3-1.2 4-1 1-1 1.2 0 1.2 .6 0 1 .3 .8 .8-.2 .4-.7 3.7-1 7.5-.4 4.7-1.2 7.4-2.6 9-1.1 1.2-2 3.4-2 5 0 1.5-.4 2.7-1 2.7-.5 0-1 .8-1 1.8 0 .9-.3 2.1-.7 2.5-.5 .5-.9 5.7-1.1 11.5-.1 5.9-.5 11.4-.9 12.2-.3 .8-.7 6-.9 11.5-.2 5.5-.5 11.4-.6 13.1-.2 1.8-1.1 4-2.1 5-.9 1.1-2 3.7-2.4 5.9-.5 3-.2 4.4 1 5.8 .9 .9 1.6 2.3 1.4 3-.2 .6-1.6 1.3-3 1.5l-2.7 .2 .5 4.5c0.3 2.5 1.7 6.6 3.2 9.3 1.5 2.6 4.7 6.7 7.1 9.2 2.8 2.9 4.6 5.6 4.8 7.5 .2 1.7 .8 3.1 1.4 3.3 .5 .1 1 .9 1 1.7 0 .8 .7 2.6 1.5 4 .8 1.4 1.3 3 1 3.5-.3 .6 .2 1.6 1 2.3 .9 .6 1.9 2.8 2.2 4.7 .3 1.9 1.6 4.9 2.9 6.5 1.3 1.7 2.3 3.7 2.3 4.5 0 .8 .9 2.7 2.1 4.3 1.8 2.4 1.9 3.1 .8 6.2-.8 2.2-1.9 3.5-3 3.5-1 0-3 1.1-4.5 2.5-1.8 1.7-3.9 2.6-6 2.5-1.8 0-5.2-.9-7.5-2.1-2.4-1.2-5.4-3.2-6.8-4.5-1.5-1.4-3.7-2.3-5.5-2.3-1.6 0-4.6-.3-6.5-.7-2.6-.6-3.3-.5-2.7 .4 .4 .7 .2 1.2-.5 1.2-.7 0-2.2-.6-3.3-1.5-1.1-.8-3-1.5-4.2-1.5-1.3 0-3.2-.9-4.3-2-1.1-1.1-2.7-2-3.5-2-.8 0-1.6-.8-1.6-1.7l-.1-1.8 .1-1.2c0-.7-.6-1.3-1.4-1.3-.8 0-1.5 .6-1.5 1.3 0 .6-1.7 1.5-3.7 1.9-2.4 .4-5.2 .2-7.8-.7-2.2-.8-4.3-2.2-4.7-3-.5-.8-1.2-1.5-1.8-1.5-.5 0-2.6 .7-4.5 1.5-1.9 .8-3.3 2-3 2.5 .3 .6 .1 1-.5 1-.5 0-1.1-.4-1.2-1-.2-.5-3.4-1.4-7.3-1.9-3.8-.5-7.3-.8-7.7-.5-.5 .2-6.3 .7-13 1-9.1 .4-12.5 .9-13 2-.6 1-1.3 1.1-2.8 .4-1.1-.5-2.2-.7-2.4-.2-.2 .4-2.7 .8-5.5 1-2.8 .1-6 .7-7.1 1.2-1.1 .6-3.3 .8-5 .5-1.6-.3-4 0-5.2 .6-1.3 .7-3 1.9-3.9 2.8-1 1-2.9 1.5-5.5 1.4-2.9-.2-4.5 .4-6.2 2-1.2 1.2-2.2 3-2.2 4 0 1.5-.2 1.5-1.5 .2-1-1-2.5-1.3-4.7-.8-1.8 .3-4.2 1.2-5.3 2-1.1 .7-3.2 1.3-4.7 1.3-1.6 0-3.9 .6-5.3 1.3-1.4 .6-2.5 1.9-2.5 2.7 0 .8-.9 2.4-2.1 3.5-1.2 1.1-3.6 2.1-5.5 2.3-1.9 .1-3.4-.2-3.4-.8 0-.5-.7-1-1.5-1-.8 0-1.8 .8-2.1 1.8-.3 .9-2 2.6-3.7 3.7-1.7 1.1-3.7 3.1-4.3 4.5-.9 1.9-1.3 2.1-1.8 1-.3-.8-.3-.3-.1 1.3 .3 1.5 .1 2.7-.5 2.7-.5 0-2.1-.4-3.5-1l-2.5-1-.5 1c-.3 .6-.8 .8-1.2 .6-.5-.2-.7 .7-.5 2 .2 2-.3 2.4-2.3 2.4-1.4 0-2.7 .5-3 1-.3 .6-2.1 1-4 1-2 0-3.3 .4-3 1 .3 .6-.1 1-.7 1-.7 0-2.4 1.6-3.8 3.5-1.4 2-2.8 3.6-3.2 3.5-.5 0-.6 .9-.3 2 .4 1.5 0 2-1.5 2-1.2 0-2.6 1.1-3.4 2.8-.7 1.5-1.6 3.9-2 5.5-.3 1.5-1.5 3.7-2.6 5-1.2 1.2-2.7 2.9-3.5 3.7-.8 .8-1.4 2-1.5 2.5 0 .6-1.7 2.7-3.7 4.7-2.1 2.1-4.9 5.9-6.3 8.5-1.4 2.6-2.8 5-3.1 5.3-.3 .3-1.7 2.8-3.1 5.5-1.4 2.8-5 10.1-8.2 16.3-3.3 6.7-5.6 12.5-5.6 14.5 0 1.7-.7 4.6-1.5 6.2-.9 1.7-1.5 4.2-1.5 5.8 0 1.5-.5 3.7-1.2 5-.7 1.2-1.8 3.8-2.5 5.7-.7 1.9-1.3 5.4-1.3 7.8 0 2.3-.3 4.2-.7 4.2-.5 0-1.2 1.4-1.7 3.2-.5 1.8-.8 4.3-.7 5.6 0 1.2-.2 2.4-.6 2.6-.5 .2-.6 3-.3 6.3 .3 3.2 0 8.3-.6 11.3-.7 3.1-1 9.8-.8 15.5 .3 5.5 .7 11.7 .9 13.8 .3 2 .2 3.5-.2 3.3-.5-.2-.5 2.6 0 6.3 .4 3.6 .9 8.3 1 10.4 .1 2 .5 3.7 1 3.7 .4 0 .6 1.1 .5 2.5-.2 1.3-.1 2.5 .2 2.5 .3 0 .6 1.5 .7 3.3 .1 1.7 .9 6.6 1.8 10.7 .9 4.1 2.5 9.3 3.6 11.5 1 2.2 1.9 4.7 1.9 5.5 0 .8 1.6 4.9 3.7 9 2.1 4.1 4.4 7.8 5.1 8.3 .6 .4 1.2 1.2 1.2 1.7 0 .6 1.1 2.4 2.5 4 1.4 1.7 2.5 3.7 2.5 4.5 0 .8 .7 1.7 1.5 2 .8 .3 1.5 1.3 1.5 2.3-.1 .9 .5 2.2 1.2 2.9 .7 .6 1.4 2.2 1.4 3.5 .1 1.2 2 4.2 4.3 6.6 2.8 2.9 3.9 4.7 3.4 5.7-.6 1.1-.1 2.1 1.5 3 1.2 .8 2.8 3 3.5 4.8 .8 1.7 3 4.9 5 7 2.1 2 4.6 3.7 5.7 3.7 1.1 0 2 .3 2 .8 .1 .4-.6 1.3-1.5 2-1.1 .9-2.4 .9-5 .2-2.9-.8-3.5-.7-3.5 .5 0 .8-.9 1.7-2 2-1.1 .3-1.8 1-1.5 1.5 .3 .6-.2 1-1 1-.8 0-2.2 .7-3 1.5-.9 .9-4.3 1.7-8.7 2.1-4 .3-8.3 1-9.5 1.5-1.4 .5-3 .5-4 0-1-.5-2.7-.6-3.8-.1-1.1 .4-3 .7-4.2 .6-1.4-.1-2.3 .5-2.3 1.4 0 .8 .5 2.1 1.2 2.7 .7 .7 1 1.6 .6 2-.5 .5-1.6 0-2.5-.9-1-1-2.6-1.8-3.5-1.8-1 0-1.8-.7-1.8-1.5 0-.8-.8-1.5-1.7-1.5-1 0-3.1 .5-4.6 1.2-2.1 1-2.6 1.8-2.2 3.6 .3 1.3 0 2.2-.7 2.3-.7 .1-1.7 0-2.3-.1-.5-.2-2.9-.4-5.2-.6-3.4-.3-4.8 .1-6.6 1.9-1.8 1.7-3 2.1-5.3 1.6-1.6-.4-3.3-.8-3.9-1-.5-.1-3.5 .9-6.5 2.3-3 1.4-6.6 2.9-8 3.3-1.4 .4-3.8 1.5-5.5 2.3-1.6 .9-3.7 1.7-4.5 1.9-.8 .1-2 1-2.7 2-.7 1-.9 2.2-.5 2.8 .4 .5-.1 .7-1.3 .3-1.3-.4-2.7 .1-4.2 1.5-1.6 1.7-1.8 2.5-1 3.5 1 1 .4 1.2-2.5 1.2-2.6 0-4.7 .8-6.5 2.4-1.6 1.3-3.5 3.5-4.3 4.9-.8 1.5-1.8 2.4-2.2 2.2-.5-.3-1 .3-1.3 1.3-.3 .9-1.9 2-3.5 2.5-2.6 .6-2.9 1-2 2.7 .6 1.1 1 2.7 1 3.5 0 .8-.6 1.5-1.2 1.5-.7 0-2.1-.8-3.2-1.8-1-.9-2.9-1.8-4.2-1.9-1.9-.2-4.8 2.1-13.2 10.5-5.9 5.9-12.3 12.7-14.2 15.1-1.9 2.5-5.2 6.2-7.2 8.3-2.1 2.1-3.8 4.5-3.8 5.3 0 .8-1.9 4.8-4.2 8.8-2.3 3.9-5.1 9-6.3 11.2-1.1 2.2-2.6 5.4-3.3 7-.6 1.7-1.6 3.7-2.2 4.5-.5 .8-1.8 3.5-2.9 6-1.1 2.5-2.3 5.9-2.7 7.5-.4 1.7-1 3.5-1.4 4-.4 .6-1.4 3.4-2.1 6.4-1 3.8-2.7 7-5.6 10.3-3.5 3.9-4.3 5.4-4 8.1 .1 2.2-.4 4-1.5 5-1 .9-1.9 2.9-1.9 4.5-.1 1.5-.1 4.3 0 6.2 .1 1.9 .4 4.6 .7 6 .2 1.4 .9 3.1 1.4 3.8 .6 .6 .8 2.4 .5 4-.2 1.5-1 3.2-1.7 3.9-.8 .7-1.3 3.6-1.3 7.6 0 5.4 .4 6.9 2.2 8.9 1.3 1.3 2.3 2.9 2.3 3.6 0 .6-.3 1.2-.7 1.2-.5 0-.8 3.3-.8 7.4 0 4.1 .3 7.2 .8 7 .4-.2 .7 1.5 .8 3.9 0 2.3 .2 5.3 .4 6.7 .2 1.4 1.1 5.2 2 8.5 1 3.3 2.4 6.9 3.1 8 .8 1.1 1.4 4.4 1.4 7.3 0 2.8 .3 5.2 .8 5.2 .4 0 .8 2 1 4.5 .1 2.5-.2 4.5-.8 4.5-.5 0 .2 1.2 1.6 2.8 1.6 1.7 2.4 3.6 2.2 5.1-.2 1.6 .4 2.8 2 3.7 1.2 .8 2.2 2.2 2.2 3.2 0 .9 1.1 4 2.5 6.7 1.3 2.8 2.5 6 2.5 7.3 0 1.2 .7 2.4 1.5 2.7 .8 .3 1.3 1.3 1 2.3-.2 .9 .7 2.9 2 4.5 1.4 1.5 3 2.7 3.5 2.7 .6 0 1.2 .8 1.5 1.8 .2 .9 2 3.7 3.9 6.2 2 2.5 3.6 5.3 3.6 6.3 0 .9 1.5 3.1 3.3 4.8 1.7 1.7 4 3.5 5 4 .9 .5 1.5 1.6 1.2 2.4-.3 .9 .7 2.4 2.5 3.8 1.7 1.2 3.9 4 4.9 6.2 1.1 2.5 3 4.5 5 5.5 1.8 .8 3.4 2.3 3.7 3.3 .2 .9 .9 1.7 1.4 1.7 .6 0 3.1 1.7 5.8 3.7 2.6 2 5.7 5.6 7 8l2.2 4.3-2.7 2.8c-1.6 1.6-4 3.1-5.5 3.5-1.6 .4-2.8 1.2-2.8 1.7 0 .6-1.5 1.7-3.2 2.5-1.8 .8-4.7 2.7-6.3 4.2-1.7 1.6-4.4 3-6 3.2-1.7 .1-3.3 .5-3.7 .7-.5 .2-.6 .9-.3 1.4 .3 .6-.4 1.5-1.5 2-1.1 .6-2.3 .8-2.7 .5-.5-.2-.1-1.2 .7-2 .8-.9 1.3-1.6 1-1.6-.3 0-2 .7-3.7 1.6-1.8 .8-3.8 2.5-4.4 3.8-.9 1.8-.8 2.4 .5 3.5 .9 .6 1.4 1.7 1.1 2.2-.3 .6-1.4 .8-2.5 .5-1.3-.3-3.6 .8-6.7 3.3-2.6 2-10.3 9.2-17 16-6.8 6.7-12.3 12.5-12.3 13 0 .4-1.1 1.4-2.5 2.2-1.4 .8-2.5 2-2.5 2.5 0 .6-1.6 3.4-3.5 6.3-1.9 2.8-3.5 5.9-3.5 6.7 0 .8-.3 1.5-.7 1.5-.5-.1-1.5 1.4-2.3 3.2-.8 1.7-2.7 4.6-4.2 6.2-1.5 1.7-2.8 3.8-2.8 4.6 0 .8-1.1 3.4-2.5 5.8-1.4 2.3-2.5 5.1-2.5 6.2 0 1.1-.7 2.3-1.5 2.8-.9 .4-1.7 1.9-1.8 3.3-.1 1.5-.9 3.5-1.8 4.5-.9 1.1-2 3.9-2.4 6.4-.4 2.5-1.3 5.4-2 6.5-.7 1.1-1.6 4.1-1.9 6.8-.3 2.6-1 4.9-1.6 5.2-.5 .3-.7 1.5-.4 2.8 .4 1.2-.1 4.7-.9 7.7-.9 3-1.8 9.3-2.2 14-.3 4.7-1 11.4-1.5 15-.5 3.6-1 11.2-1 17 0 5.8 .4 11 .8 11.5 .5 .6 .9 4.6 1 9 0 4.4 .1 8 .2 8 .1 0 .3 2.7 .6 6 .3 3.3 .9 6.5 1.4 7 .5 .6 .5 2.5 0 4.5-.5 2.1-.4 3.9 .1 4.5 .5 .6 1.2 3.5 1.4 6.5 .3 3 1.4 7 2.5 8.8 1.1 1.7 2.3 4.9 2.6 7 .3 2 .4 3.9 .3 4.2-.2 .3 1.1 2.6 2.9 5.3 1.8 2.6 3.2 5.8 3.2 7.2 0 1.5 .9 3 2.3 3.8 1.2 .8 3.2 3.2 4.5 5.5 1.2 2.3 2.2 4.9 2.2 5.7 0 .8 .7 1.8 1.6 2.3 .8 .4 1.3 1.3 1 2-.3 .6 .5 2 1.9 3 1.7 1.1 2.3 2 1.6 2.7-.6 .7 0 1.9 2 3.8 1.6 1.5 2.9 3.6 2.9 4.7 0 1.1 .7 2.2 1.5 2.5 .8 .3 1.5 1.4 1.5 2.5 0 1.1 1.4 3.9 3 6.3 1.7 2.3 3 3.8 3 3.2 0-.5 2.3 1.5 5.2 4.5 2.9 3.1 6 6.6 6.8 7.9 .8 1.2 2.9 3.8 4.5 5.7 1.7 1.9 4.1 3.7 5.5 3.9 1.4 .3 4.2 2.2 6.3 4.2 2.1 2.1 3.7 4.1 3.7 4.6 0 .4 1.1 .9 2.5 1.2 2 .4 2.4 .9 1.9 2.8l-.6 2.2 1.5-2c1.5-1.8 1.6-1.8 1.7-.2 0 .9 1.2 2.8 2.8 4.2 1.5 1.4 3 2.6 3.5 2.5 .4 0 .7 .8 .7 1.8 0 .9 .9 2.3 2 3l2 1.2 0-1.2c0-.7 .9-.2 2 1.2 1.1 1.4 2 2.8 2 3.3 0 .4 .6 .7 1.3 .7 .6 0 2.2 1.1 3.5 2.5l2.2 2.5-2 3c-1.1 1.7-2 3.3-2 3.8 0 .4-2.4 3.4-5.2 6.6-2.9 3.3-7.7 8.3-10.5 11.3-2.9 2.9-5.3 6-5.3 6.8 0 .8-.6 1.8-1.2 2.3-.7 .4-3.5 3.8-6.3 7.5-2.7 3.8-5.7 7.7-6.5 8.7-1.1 1.3-3.1 2-7 2.2-4.1 .2-5.9 .8-7 2.3-.8 1.1-1.5 2.5-1.5 3-.1 .6-.4 1.8-.8 2.8-.4 .9-1.1 1.5-1.7 1.2-.6-.3-.8 1.5-.3 5.3l0.6 5.7-2.1 1.3c-1.8 1-2.2 2.1-2.2 6 0 2.6-.5 5.3-1.2 6-.7 .7-1.3 3.4-1.3 6-.1 2.7-.8 5.9-1.8 7.5-.9 1.5-2.7 6.9-3.9 12-1.1 5-2.2 11.5-2.3 14.2-.1 2.8-.3 5.2-.4 5.5-.1 .3-1.2 4.6-2.3 9.5-1.3 5.3-2.2 12.9-2.3 18.5-.1 5.2-.4 10-.7 10.5-.3 .6-.2 7.1 .3 14.5 .4 7.4 1.1 15.2 1.4 17.3 .3 2 .8 4.3 1.2 5 .4 .6 .6 2.7 .5 4.5-.2 2.3 .3 3.5 1.8 4.2 1.7 .9 1.9 1.6 1.3 5-.6 3-.5 4 .5 4 .8 0 1.1 1.6 1 5.2-.3 4.6 .1 5.6 2.5 8 1.5 1.5 2.7 3.5 2.7 4.3 0 .8 .5 1.5 1 1.5 .6 0 1 1.8 1 4 0 2.2 .6 4.3 1.3 4.8 .6 .4 1.8 2.3 2.4 4.2 .7 1.9 1.3 4.6 1.3 6 0 1.4 .7 3.2 1.5 4 .7 .8 1.7 3.1 2 5 .4 1.9 2 5 3.6 6.8 1.6 1.7 2.9 3.5 2.9 4 0 .4 1.1 1.4 2.5 2.2 1.4 .8 2.5 1.8 2.5 2.3 0 .4-.7 .5-1.5 .2-.8-.3-1.5 0-1.5 .5 0 .6 .9 1.2 2 1.5 1.1 .3 2 1.2 2 2 0 .8 .8 1.5 1.8 1.5 .9 0 1.4 .3 1 .7-.5 .5-.2 1.4 .5 2.2 .6 .8 1.9 2.8 2.7 4.4 .8 1.6 2.2 3.1 3 3.2 .8 .1 2.7 .9 4.3 1.8 1.5 1 2.7 2.4 2.7 3.2 0 .8 1.3 2.7 2.9 4.3 1.5 1.5 3.6 4.4 4.5 6.5 .9 2 2.1 3.7 2.6 3.7 .6 0 1 1.1 1 2.5 0 1.6 1.5 4 4 6.5 2.2 2.2 4.5 3.8 5 3.5 .6-.3 1.9 .3 3 1.3 1.2 .9 2.1 2 2 2.5 0 .4 .7 1.4 1.5 2.2 .8 .8 2.2 1.5 3 1.5 .8 0 2.2 .7 3 1.5 .8 .8 2.4 1.5 3.5 1.5 1.1 0 2 .5 2 1 0 .6 1.4 1.7 3 2.5 1.7 .8 3.9 1.5 5 1.5 1.1 0 2 .5 2 1 0 .6 .9 1 2 1 1.1 0 2.3 .6 2.8 1.3 .4 .8 2.3 2.2 4.1 3.3 1.9 1 4.3 2.6 5.3 3.4 1 .8 2.4 1.5 3.1 1.6 .7 .1 1.9 .1 2.7 .2 .8 .1 2.6 1.2 4 2.4 1.4 1.3 4.8 2.9 7.5 3.6 2.8 .7 5.5 1.3 6 1.3 .6 0 2.4-.3 4-.6 2.2-.5 3.5-.2 5 1.2 1.1 1.1 3.2 2.5 4.8 3.1 1.5 .7 3.8 1.2 5.2 1.2 1.4 0 2.7 .3 2.9 .8 .2 .4 2.2 .8 4.5 1 2.3 .1 5.1 .7 6.4 1.3 1.2 .6 4.2 1.3 6.7 1.4 2.5 .2 4.7 .4 5 .5 .3 .1 1.6 .2 3 .1 1.4-.1 4.8 .7 7.5 1.7 3.8 1.4 5.5 2.7 7 5.5 1.1 2 2.3 3.4 2.8 3.2 .4-.3 .9 .2 1.2 1 .3 .8 1.2 1.5 2 1.5 .8 0 1.5 .7 1.5 1.5 0 .8-.4 2.4-1 3.5-.5 1.1-2.6 2.7-4.5 3.5-1.9 .8-4.5 1.3-5.7 1l-2.3-.6-.2 4.8c-.1 2.6-.7 5.3-1.3 5.8-.6 .6-1 2-1 3.3 0 1.2-.8 3-1.8 4-1 .9-2.3 3.3-3 5.2-.6 1.9-2.1 4.4-3.2 5.5-1.2 1.1-3 3.8-4 6-1 2.2-3.5 7.6-5.6 12-2 4.4-3.9 8.7-4 9.5-.2 .8-1.5 2.6-2.9 4-1.3 1.4-2.5 3.6-2.5 5 0 1.4-.5 4.1-1.2 6-.6 1.9-1.3 4.2-1.6 5-.3 .8-.4 2.1-.4 2.8 .1 .6-.2 1.4-.8 1.7-.5 .3-1 1.9-1 3.5 0 1.8-.6 3.2-1.5 3.5-.8 .3-1.4 1.4-1.2 2.4 .1 1-.6 2.7-1.5 3.7-1.2 1.4-1.9 4.4-2.3 10.9-.3 5-.7 13.5-.8 19-.1 5.5-.5 10.6-.9 11.3-.5 .6-.7 3.1-.5 5.4 .1 2.6-.2 4.3-1 4.5-.7 .2-1.3 1.4-1.3 2.8 0 1.4 .5 2.5 1 2.5 .6 0 .9 2.1 .7 4.8-.2 2.7 .2 5.3 1 6.2 .9 1.1 1 3 .3 7.5-.5 3.3-.5 6.5-.1 7 .5 .6 1.1 2.5 1.5 4.3 .5 2.6 .3 3.2-1.1 3.3l-1.8 .1-1.2-.1c-.7 0-1.2 .5-1 1.2 .2 .6 2.2 2.1 4.5 3.2 2.3 1.1 4.2 2.7 4.2 3.5 0 .8-.4 3-1 4.8-.6 1.8-.6 3.7-.1 4.5 .4 .6 2 3.2 3.4 5.7 1.7 3.1 2.3 5.2 1.9 6.9-.5 1.6-.2 2.6 1.1 3.2 .9 .5 1.9 2.3 2.2 3.9 .3 1.7 .8 3 1.3 3 .4 0 .8 1 1 2.2 .2 1.3 .4 3.2 .6 4.3 .2 1.1 .4 2.5 .5 3 .1 .6 .6 .2 1.1-.7 .6-1 1.5-1.8 2-1.8 .6 0 .8 .9 .5 2-.3 1.4 .3 2.6 2.3 3.9 1.9 1.3 2.9 3.1 3.5 6 .4 2.2 1.2 4.1 1.7 4.1 .6 0 1 .7 1 1.5 0 .8 .5 1.5 1 1.5 .6 0 .9 .6 .8 1.3l-.1 1.2 .1 1.8c0.1 .9 1 1.9 2 2.2 .9 .2 2 1.4 2.4 2.7 .4 1.3 .3 2.4-.2 2.6-.6 .1-1 1.2-1 2.5 0 1.4 1.1 2.9 3.2 4.2 1.8 1.1 4.3 3 5.6 4.2 1.2 1.3 2.5 3.3 2.8 4.6 .3 1.2 1.1 3.5 1.7 5 .9 2.1 1.7 2.7 3.2 2.2 1.5-.4 1.8-.2 1.3 1-.6 1-.3 1.5 1 1.5 .9 0 3.6 1.6 6 3.7 2.8 2.6 4 4.4 3.7 5.6-.3 1 0 1.7 .8 1.7 .6 0 1.9 1.1 2.7 2.5 .8 1.5 2.5 2.9 3.8 3.3 1.2 .4 2.5 1.3 2.7 2 .3 .6 1.2 1.2 2 1.2 .8 0 2.2 1.1 3 2.5 1 1.7 2.8 2.7 5.5 3.3 2.2 .4 4.2 1.3 4.5 2 .3 .6 .3 1.7 0 2.2-.3 .6-1.2 .8-2 .5-.8-.3-1.5 0-1.5 .5 0 .6 .7 1 1.5 1 .8 0 1.5 .7 1.5 1.5 0 .8 1.5 2.2 3.3 3.1 1.7 .9 4 1.3 5 1 .9-.3 3 .3 4.7 1.4 1.7 1.1 3.8 2 4.8 2 .9 0 3.1 1.3 4.7 2.9 2.4 2.3 3.3 2.7 4.3 1.8 1.1-.9 1.6-.9 2.3 .3 .5 .8 .9 2.1 .9 2.8 0 .6-.9 1.4-2 1.7-1.1 .3-1.8 1-1.5 1.5 .3 .6 1.2 .4 2.3-.5 .9-.8 2.3-1.5 3-1.5 .6 0 2 .4 3 .9 .9 .6 3.4 1.2 5.5 1.5 2.4 .4 3.5 1 3.3 1.9-.3 .6-.2 1.5 .2 1.9 .4 .5 1.3 .2 2.1-.5 .9-.8 2.7-1 5.5-.5 2.2 .4 4.2 1.2 4.4 1.7 .1 .6 1.1 1.1 2.2 1.1 1.1 0 2 .7 2 1.5 0 .9 1 1.5 2.8 1.6 1.5 .1 3.2 .2 3.7 .3 .6 .1 2.2 .7 3.8 1.4 1.5 .7 3.6 1.2 4.7 1.2 1.1 0 2-.4 2-1 0-.5 .5-1 1-1 .6 0 1 .7 1 1.5 0 .8 .5 1.5 1 1.5 .6 0 .7 .7 .3 1.7-.7 1.5-.5 1.5 1.5 .5 1.5-.8 6.2-1.1 14.5-.8 7.6 .2 13 .8 14.2 1.6 1.5 1 2.5 1 4 .2l2-1.1-2.7-.1c-1.6 0-2.8-.3-2.8-.7 0-.5 2.1-.6 4.8-.5 2.6 .2 5.2 .8 5.7 1.3 .6 .6 .5 1-.5 1-.8 0-.1 .5 1.5 .9 1.7 .5 3.3 .7 3.8 .4 .4-.2 .3-1.1-.3-1.9-.7-1.1-.5-1.7 .8-2.2 1-.4 1.8-.2 2 .5 .1 .7 1.1 1.2 2.2 1.2 1.1 0 2.2 .6 2.4 1.3 .3 .9 .7 .9 2.2-.1 1.1-.6 2.6-1.5 3.4-1.8 .8-.3 3.2-1.3 5.3-2.2 3.2-1.4 4.2-1.5 5.8-.4 1 .6 2.8 1.2 3.9 1.2 1.1 0 2.2-.4 2.5-1 .3-.5 1.4-1 2.5-1 1.1 0 3 1.1 4.3 2.4 1.2 1.3 3 2.2 4 2 .9-.2 1.7-.8 1.7-1.4 0-.5 .9-.8 2-.5 1.2 .3 2.2-.1 2.5-1 .3-1-.2-1.5-1.5-1.5-1.1 0-2-.4-2-1 0-.5 .8-1.2 1.8-1.5 .9-.3 2.4-.8 3.2-1.2 1.2-.6 1.4-.1 .8 2.3l-.7 2.9 1.2-2.6c0.7-1.4 2.3-3.6 3.7-5 1.4-1.3 3.2-2.6 4-2.8 .8-.2 2.7-.6 4.3-.7 1.9-.3 2.8 .1 3.2 1.4 .2 .9 1.5 1.9 2.8 2.2 1.4 .3 2.3 .2 2.1-.2-.2-.5 .4-.8 1.4-.8 .9 0 3.2 1 4.9 2.3 1.8 1.2 3.3 2.8 3.3 3.5 0 .6 .5 1.2 1 1.2 .6 0 .5 .8-.2 2-.9 1.4-1.5 1.6-2 .7l-.8-1.2 .8 3.3c0.5 2.7 .3 3.6-1 4.3-1 .5-2.4 2.1-3.2 3.7-.8 1.5-1.5 5-1.7 7.7-.2 3.6-.9 5.7-2.6 7.5-1.8 1.9-2 2.7-1.1 3.2 1 .5 1 1.2-.2 3.7-.8 1.8-2.4 3.4-3.5 3.7-1.7 .4-2 1.4-2.2 6.9-.2 3.8 .1 6.5 .7 6.5 .6 0 1 .5 1 1 0 .6-1.1 2.2-2.5 3.8-1.4 1.5-2.6 3.5-2.5 4.5 0 .9-.6 2.3-1.4 3-.8 .7-1.3 3.4-1.3 7.2 0 3.3-.1 6.8-.2 7.8 0 .9-.8 1.7-1.6 1.7-.8 0-1.5 .7-1.5 1.5 0 .8 .4 1.6 1 1.8 .6 .1 .6 1.4 .1 3.2-.5 2-.3 4.2 .7 6.5 .9 2.2 1.4 7.2 1.4 13.5 0 5.5 .4 11.2 .9 12.8 .7 2.2 .5 2.9-1.1 4-1.7 1-1.8 1.9-1.2 6.5 .4 3.1 1.2 5.2 2 5.2 .8 0 1.1 1.3 1 3.8 0 2 .2 4.3 .5 5 .4 .6 .1 1.4-.5 1.6-.9 .3-.8 .5 .2 .5 .9 0 1.8 1.5 2.3 3.3 .4 1.8 .7 4.2 .8 5.3 0 1.1-.7 2.7-1.6 3.5-.9 .8-1.6 1.7-1.6 2 0 .3 1.2 1.2 2.6 2 1.6 .9 2.5 2.4 2.5 3.8 0 1.2-.6 2.2-1.2 2.2-.7 0-1.9-.5-2.5-1.2-.7-.7-1.5-1.1-1.7-.8-.3 .3 1 2.2 2.9 4.3 2.1 2.2 4 3.4 4.7 3 .8-.6 1-.2 .5 1.2-.5 1.4-.1 2.6 1.2 4 1.1 1.1 1.8 2.8 1.5 3.8-.2 .9 .3 1.9 1.1 2.2 .8 .3 1.3 1 1 1.5-.3 .6 .1 1.7 .8 2.7 .6 .9 1.7 2.6 2.4 3.7 .7 1.2 1.5 2.8 1.8 3.6 .4 .8 1 2.2 1.5 3 .5 .9 .4 2-.3 2.8-.9 .9-.8 1.5 .8 2.6 1.1 .7 2.3 2.6 2.7 4.2 .4 1.6 2.1 4.4 3.7 6.2 1.7 1.7 3.1 4 3.1 5-.1 .9 .9 2.6 2 3.7 1.1 1.1 2.3 3.5 2.5 5.3 .4 2.5 1 3.2 2.8 3.2 1.2 0 2.9 .5 3.7 1 .8 .5 1.5 1.7 1.5 2.7 0 1.1 .8 1.9 2.3 2.1 1.4 .1 3.2 1.8 5 4.7 1.5 2.5 3.5 4.5 4.5 4.5 .9 0 1.7 .6 1.7 1.3 0 .6 1 2.2 2.2 3.5 1.3 1.2 2.6 1.9 3 1.5 .4-.5 1.2 .4 1.8 2 .5 1.5 1.5 2.5 2 2.2 .6-.3 2.2 1.4 3.8 3.8 1.5 2.4 3.2 4.5 3.7 4.7 .6 .3 .9 1.1 .8 1.8-.2 .6 .4 1.2 1.2 1.2 .8 0 2.3 .4 3.3 .8 .9 .5 3.1 1.6 4.7 2.4 1.7 .9 3.5 2.5 4 3.7 .6 1.2 1.9 2.1 3.3 2.1 1.2 0 3.3 .6 4.7 1.3 1.4 .6 2.5 2 2.5 3 0 .9 1 2.2 2.3 2.9 1.2 .7 2.7 1.1 3.2 1 .6-.2 2 .3 3.3 1 1.2 .7 2.2 2.1 2.2 3.1 0 .9 1 2.2 2.3 2.9 1.2 .7 3.4 1.2 5 1.3 1.8 0 2.5-.4 2.2-1.2-.3-.7 .1-1.3 .8-1.3 .6-.1 1.7 .5 2.3 1.2 .7 .7 3.4 1.6 6 2 3.1 .4 5.5 1.4 6.4 2.6 1 1.3 2.4 1.8 4.3 1.6 1.5-.2 2.7 .1 2.7 .6 0 .6 .7 1 1.5 1 .8 0 1.5 .6 1.5 1.3 0 .6 .3 .9 .7 .4 .5-.4 1.8 0 3.1 .8 1.2 .8 2.9 1.3 3.7 1 .8-.3 1.6 0 1.8 .5 .1 .6 2 1.3 4.2 1.7 2.2 .3 5.2 1.4 6.8 2.4 1.5 1.1 3.1 2.9 3.7 4.2l1 2.2-.1-2.5c-.1-1.4-.1-2.8 0-3.2 .1-.5 1.2-.1 2.6 .7 1.4 .8 3.2 1.5 4 1.5 1 0 1.3 .6 1 1.8-.4 1.3 .4 2 3.2 3.1 2.2 .7 5.2 1 7.1 .7 1.7-.3 3-1 2.7-1.6-.3-.5 .4-1.9 1.5-3 1.1-1.1 2.7-2 3.5-2 .8 0 1.7 .9 2 2 .3 1.1 1 2 1.5 2 .6 0 1.8 .3 2.7 .8 1.4 .6 1.5 .3 1-1.5l-.7-2.3 3.3 .6c1.7 .3 4.4 .7 6 1 1.5 .2 2.8-.1 3-.6 .1-.8 1.9-.7 5.7 0 4.4 1 5.6 .9 6.2-.2 .6-1 1.1-1.1 2.8 0 1.1 .6 2.6 1.2 3.3 1.2 .6 0 1.8-.9 2.5-2 .6-1.1 2-2 3-2 .9-.1 2.3 .6 3 1.5 .6 .8 .9 2.5 .6 3.8l-.6 2.2 1.3-1.8c0.8-1 2.8-1.9 4.4-2 1.9-.1 4.1-1.4 6-3.3 1.9-2 4.2-3.3 6.3-3.5 2.2-.3 3.6 .1 4.2 1.1l0.8 1.5 1.7-1.5c1.5-1.3 1.8-1.3 2.9 .1 .6 .9 1.7 1.4 2.4 1.2 .6-.1 1.2-.9 1.2-1.5 0-.7 1.7-1.9 3.7-2.5 2.1-.7 4.5-1.3 5.3-1.3 1 0 1.4-.9 1.3-2.5-.2-1.8 .3-2.6 1.7-3l2-.5 2 .5c1.1 .3 3 0 4.3-.7 1.2-.7 2.8-1.1 3.5-1 .6 .1 1.4-.7 1.7-1.8 .3-1.2 1.3-2 2.5-2 1.1 0 3.2-.9 4.8-2 1.5-1.2 3.3-2.1 4-2 .6 0 1.4-.7 1.7-1.5 .3-.8 1.2-1.3 2-1 .8 .3 1.5 .1 1.5-.5 0-.5 .6-1 1.3-1 .6-.1 2.7-1.4 4.5-3 1.7-1.7 4.1-3 5.2-3 1.1 0 2-.7 2-1.5 0-.8 .5-1.5 1-1.5 .6 0 1.9-1 3-2.2 1.3-1.5 2.5-2 3.5-1.5 1.1 .5 1.6 .1 1.9-1.5 .3-1.3 2-3.2 4-4.3 1.9-1.1 3.3-2.3 3-2.7-.2-.5 .4-.8 1.4-.8 .9 0 2.6-1 3.8-2.2 1.1-1.3 2.8-3.5 3.7-5 .9-1.6 2.4-2.8 3.2-2.8 .8 0 1.5-.9 1.5-2 0-1.1 .6-1.9 1.3-1.7 .6 .2 1.7-.3 2.4-1.2 .7-.9 1.3-2.4 1.3-3.3 0-1.3 .6-1.7 2-1.3 1.5 .4 2.1-.1 2.5-2 .3-1.7 1.2-2.5 2.5-2.5 1.3 0 2-.7 2-1.7-.1-1 .7-2.6 1.7-3.5 1.5-1.4 2.6-1.5 5.8-.8 2.2 .5 4.8 .7 5.8 .5 1-.3 1.7 .1 1.7 1 0 .8 .6 1.5 1.3 1.5 .6 0 2.3 1.9 3.6 4.3 1.7 2.9 2.5 6 2.6 9.7 .1 3.2 .7 5.6 1.3 5.8 .9 .1 .9 1 .2 3-.9 2.3-.7 2.9 1 4 1.5 .9 1.9 1.9 1.5 4.2-.3 1.7 0 3.2 .5 3.5l1 .5-1 2-1 2 1 1.5c0.6 .8 .8 2 .5 2.5-.3 .6 .2 1.2 1 1.5 .8 .3 1.5 1.4 1.5 2.5 0 1.1 .5 2 1 2 .6 0 .8 .7 .5 1.5-.3 .8 0 1.7 .5 2 .6 .3 1.3 3.2 1.8 6.5 .4 3.3 1.3 6.2 2 6.5 .8 .3 1.1 2.2 1 5.6-.2 3.7 .1 5.3 1.2 5.9 1 .6 1.4 2.1 1.3 4.4-.2 2.6 .1 3.6 1.2 3.6 .8 0 1.6 .6 1.6 1.3l0.1 1.2-.1 .8c0 .4 .5 .7 1.2 .7 .6 0 2.7 1.5 4.5 3.5 1.7 1.9 3.2 3.8 3.2 4.3-.1 .4 .6 1.3 1.5 2 1 .8 1.2 1.7 .6 3l-.9 1.7 .9 2.3c0.5 1.2 1.4 2.4 1.9 2.7 .6 .3 1 1.7 1 3.3l0 2.7 3-.7c1.8-.5 3-.4 3 .2 0 .6 .8 1.8 1.8 2.9 .9 1 3.5 4 5.7 6.6 2.2 2.7 4.8 5.7 5.8 6.7 .9 1 1.7 2.1 1.7 2.6 .1 .4 1 1.7 2 3 1.1 1.2 2.5 2.2 3 2.2 .6 0 1 .9 1 2 0 1.5 .5 1.9 2 1.5 1.1-.3 2 0 2 .5 0 .6-.3 1-.7 1-.5 0-.9 1.2-1 2.7-.2 2.5 .2 2.9 3.8 3.6l3.9 .7-.7 2.6c-.6 2.1-.5 2.6 .7 2.4 .8-.1 2.3-.2 3.3-.1 .9 0 1.9 .9 2.2 1.9 .3 .9-.3 2.3-1.2 3l-1.8 1.3 2.3-.5c1.8-.5 2.2-.2 2.3 1.7l0.1 2.2-.1 .8c0 .4 .6 .9 1.4 1.2 .8 .3 1.5 1.2 1.5 2 0 .8 .5 1.5 1 1.5 .6 0 1.9 1 3 2.3 1.1 1.2 2 3.2 2 4.5 0 1.9 .5 2.2 4 2.2 2.2 0 4.9-.6 6-1.2 1.8-1.2 2.3-.9 4.5 2 1.8 2.2 3 3 4.3 2.6 1.1-.4 2.6 .2 4 1.7 1.8 1.8 3.7 2.5 8 2.8 4.4 .3 6.2 .9 8 2.7 1.2 1.3 2.5 2.4 3 2.4 .4 0 2.2 1 3.9 2.3 1.8 1.2 3.3 2.9 3.3 3.7 0 .8 .9 0 2-1.7 1.1-1.8 2.7-3.3 3.5-3.3 .8 0 1.5 .5 1.5 1 0 .6 1.8 1 4 1 3.5 0 4.2 .4 5.3 3 .8 2 2.1 3.1 4 3.5 1.5 .3 3 1.3 3.4 2.3 .3 .9 1.7 2.9 3 4.5 1.3 1.5 2.1 3.2 1.8 3.7-.3 .6 .2 1 1 1 1 0 1.3-.7 1-2.2-.3-1.3-.2-2.6 .2-3.1 .5-.4 1.7 .2 2.8 1.3 1.1 1.2 2.8 1.8 3.8 1.5 .9-.3 1.7-1.2 1.7-2 0-1 1.6-1.8 4.3-2.4 2.3-.6 4.7-.6 5.2-.1 .6 .4 3 .9 5.5 1.1 3 .3 5.3-.2 7-1.3 1.4-.9 4.8-2 7.5-2.4 4-.5 5.3-.3 6.5 1 .8 .9 2.5 1.7 3.8 1.6 1.2 0 2.4 .5 2.7 1 .3 .6 1.5 1 2.8 1 1.2 0 3.3 .9 4.7 2 1.5 1.2 2.9 1.6 3.5 1.1 .6-.5 2.4-.8 4-.6 1.7 .2 3.6-.3 4.3-1.1 .6-.8 1-2.1 .7-2.9-.3-.8-1.3-1.5-2.2-1.5-1.5 .1-1.6-.2-.5-1.5 .9-1.2 2.2-1.3 5.8-.7 4.1 .6 4.5 .5 4-1-.4-1.3-.1-1.8 1.2-1.8 .9 0 2.3 .5 3.1 1.2 1.1 1.1 1.2 .9 .7-.9-.4-1.7-.2-2.3 .9-2.3 .8 0 1.8 .9 2.3 2 .4 1.2 1.2 1.9 1.7 1.7 .6-.2 1.3-1.8 1.8-3.5 .4-2.1 1.3-3.2 2.5-3.2 1.4-.1 1.5 .2 .5 1.5-.7 .8-1.1 2-.8 2.5 .3 .6 1 1 1.5 1 .6 0 1-.7 1-1.5 0-.8 .6-1.8 1.3-2.2 .6-.4 2.8-.6 4.7-.4 2.1 .1 4.1-.5 5-1.4 .8-.9 2.3-1.6 3.3-1.5 .9 0 1.9-.6 2.1-1.2l0.3-1.3 2.2 1.3c1.1 .6 3.6 1 5.4 .7 1.7-.3 3.8-1.2 4.5-2 1-1.2 .9-1.8-.3-3-.8-.8-1.2-1.7-.7-2 .4-.3 1-.5 1.5-.5 .4 0 1.2 1.1 1.7 2.5 .6 1.4 1.5 2.5 2 2.5 .6 0 .9-.6 .8-1.2-.2-.7 .3-1.2 1-1 .6 .1 1.2-.2 1.2-.8 0-.5 1.8-.9 4.1-.7 3.5 .2 4.4-.2 6-2.5 1.4-2 2.8-2.8 4.9-2.8 2 0 3-.5 3-1.5 0-.8 1.9-3.5 4.3-5.9 2.3-2.4 5.4-4.9 7-5.5 1.5-.6 2.7-1.9 2.7-2.8 0-1.5 .4-1.3 2 .7l1.9 2.5-.4-2.2c-.4-1.6 0-2.3 1-2.3 .8 0 1.6 .4 1.8 1 .1 .5 1.2 .6 2.5 .2 1.3-.4 2.1-1.2 1.7-1.9-.3-.7-.2-2 .3-2.9 .4-.9 2.6-2.7 5-4 2.3-1.3 4-2.8 3.7-3.4-.3-.5 0-1 .5-1 .6 0 1.3-.8 1.7-1.7 .4-1 1.5-2.6 2.5-3.5 1-1 2.3-1.8 2.8-1.8 .6 0 1.2-.7 1.5-1.5 .3-.9 1.7-1.5 3.5-1.5 2 0 3.3-.7 4-2 .6-1.1 1-3.3 1-5 0-2.3 .4-3 2-3 1.5 0 1.9-.6 1.8-2.4-.2-1.3 .4-3.6 1.2-5.2 .8-1.6 1.9-3.2 2.5-3.6 .5-.3 1.6-.4 2.3-.2 .6 .2 1.4 0 1.7-.6 .3-.5 .1-1.7-.5-2.5-.8-1.1-.3-2 2-3.7 1.6-1.3 3.2-3.3 3.5-4.5 .3-1.3 1.2-2.3 2-2.3 1.1 0 1.4-.7 1-2.5-.3-1.4 .1-3.1 .8-3.9 .6-.8 2.3-2.8 3.7-4.5 1.4-1.7 3.3-3.1 4.3-3.1 1.1 0 1.5-.5 1.2-1.5-.3-.8 0-1.7 .5-2 .6-.3 1-1.7 1-3.2 0-1.6 .5-4 1.2-5.5 .7-1.6 1.6-2.8 2.1-2.8 .4 0 .7-.8 .7-1.7 .1-1 1.1-2.6 2.3-3.6 1.7-1.4 2.1-2.5 1.7-4.9-.3-1.9 0-3.2 .8-3.4 .6-.2 1-1.1 .7-1.9-.3-.8-.1-2.1 .4-2.7 .5-.7 1.9-4.9 3.1-9.3 1.2-4.4 2.5-8.4 2.8-9 .3-.5 .7-2.6 .9-4.5 .2-1.9 .8-3.7 1.4-4 .6-.3 1.2-1.6 1.3-3 .2-1.4 .4-3.3 .5-4.2 0-1 .8-1.8 1.6-1.8 1.1 0 1.4-.7 1-2.5-.3-1.4 0-2.5 .5-2.5 .6 0 1 .5 1 1 0 .6 .5 1 1 1 .6 0 .8-.6 .6-1.2-.3-.7 .2-2.2 .9-3.3 1-1.4 1.7-1.6 2.2-.9 .5 .6 1.8 1.4 3.1 1.8 1.2 .3 3.2 .9 4.5 1.2 1.7 .4 1.9 .3 .7-.5l-1.5-1.1 1.5 0c0.8-.1 4.5 2.9 8.3 6.5 3.9 3.8 6.9 6 7.1 5.3 .3-.7 .5-.5 .5 .5 .1 .9 .5 2.5 1 3.5 .5 .9 1.5 3 2.2 4.5 .8 1.5 2.2 3 3.2 3.2 .9 .3 1.7 1.4 1.7 2.5 0 1.1 .3 1.9 .8 1.9l0.7-.1 1.3 .1c0.6 0 1.2 .6 1.2 1.1 0 .6-.9 1-2 1-1.1 0-1.8 .5-1.5 1 .3 .6 1.2 .8 2 .5 .8-.3 1.7 0 2 .5 .3 .6 1.3 .8 2.3 .5 1.1-.3 2.4 .5 3.7 2.5 1.1 1.6 2.9 3.1 4 3.4 1.1 .3 3.6 1.8 5.5 3.5 1.9 1.7 4.3 3.1 5.3 3.1 1.2 0 1.6 .7 1.5 2.8-.1 1.5 .1 3.3 .5 4 .4 .6 1.8 1.2 3.2 1.2 1.4 0 2.5 .5 2.5 1 0 .6 .5 1 1 1 .6 0 2.9 1.9 5.3 4.3 2.3 2.3 5.5 4.9 7.1 5.7 1.6 .8 3.9 1.4 5.2 1.3 1.3-.2 2.6 .2 2.9 .7 .3 .6 3.1 2.2 6.3 3.7 3.1 1.5 6.8 2.6 8.2 2.4 1.8-.2 2.3 .1 1.9 1-.5 1 .3 1.5 3 1.7 2.3 .2 5 1.6 7.6 3.8 2.2 1.9 4.7 3.4 5.5 3.4 .8 0 2.1 .5 2.8 1.2 .7 .7 1.2 .9 1.2 .3 0-.5 2.1-1.3 4.7-1.7 2.7-.4 5-.4 5.3 0 .3 .4 2.2 1.9 4.3 3.5 2.1 1.6 4.4 2.5 5.5 2.2 1-.4 2.3 .2 3.2 1.5 .9 1.3 2.2 1.9 3.3 1.5 .9-.3 1.7-1.2 1.7-2 0-.8 .9-1.5 2-1.5 1.1 0 1.8 .5 1.5 1-.3 .6 2.1 1.3 5.8 1.6 3.4 .4 9.4 .6 13.2 .4 3.9-.2 9.7-.3 13-.3 3.3 0 6.9 .3 8 .5 1.1 .2 2.6 .7 3.3 1.1 .6 .4 1.7 0 2.2-.8 .7-1 1.8-1.3 3.8-.8 1.5 .3 3 1.1 3.4 1.7 .4 .6 .6 1.7 .3 2.4-.3 .6-.2 1.2 .3 1.2 .4 0 1.2-1.4 1.7-3.2 .6-1.9 1.9-3.5 3-3.8 1.1-.3 2-1.1 2-1.9 0-1 1.8-1.3 7-1.3 3.9 0 8.7 .2 10.8 .6 3 .5 4 .2 5.5-1.4 .9-1.1 2.6-2 3.7-2 1.1 0 3.4-.7 5-1.5 1.7-.9 3.7-1.5 4.5-1.5 .8 0 2.1-.5 2.8-1.2 .7-.7 1.2-1 1.2-.5 0 .4 1 0 2.3-.8 1.2-.8 3-1.5 4-1.5 .9 0 2.3-.9 3-2 .6-1.1 2.1-2 3.2-2 1.1-.1 2.8-.6 3.7-1.3 1-.7 1.7-1.6 1.7-2.2 0-.5 .9-1.8 2.1-2.7 1.1-1 2.5-1.6 3-1.3 .6 .3 1.2-.2 1.5-1 .3-.8 2.1-1.7 4-2 1.9-.3 3.5-.9 3.5-1.5 0-.5 .5-.8 1-.5 .6 .3 1.9-.3 3-1.2 1.1-1 3.3-3 4.8-4.4 1.5-1.5 5.1-3.9 8-5.3 2.8-1.4 5.9-2.6 6.7-2.6 .9 0 1.3-.6 1-1.5-.3-1 .5-1.9 2.5-2.7 1.6-.7 3.2-2.1 3.5-3 .3-1 1.2-1.7 2-1.5 .9 .1 2.1-.9 2.8-2.3 .7-1.3 2.7-2.9 4.6-3.5 1.9-.5 4-2.2 5-3.8 .9-1.5 2.3-2.9 3.1-3.2 .8-.2 2.6-1.4 4-2.5 1.4-1.1 2.1-2 1.5-2-.5 0 .9-1.6 3.2-3.7 2.4-2.1 4.3-4.4 4.3-5 0-.8 1.2-1.2 3.1-1 2.7 .2 3.3-.3 5.6-4.3 1.4-2.5 3.3-5.4 4.2-6.5 1-1.1 1.8-3.3 1.9-5 .1-1.6 .9-3.6 1.7-4.2 .8-.7 1.3-1.7 1-2.3-.3-.5 0-1 .5-1 .6 0 .7-.6 .4-1.2-.4-.7 .3-2.5 1.5-4 1.1-1.6 2.1-3.4 2.1-4 0-.7 1.3-2.6 3-4.3 1.7-1.6 3-3.6 3-4.2 0-.7 .7-1.5 1.5-1.8 1-.3 1.3-1.2 .9-2.7-.3-1.3 0-3 .8-3.8 .7-.8 1.3-3.7 1.4-6.5 0-2.7 .4-5.9 .7-7 .4-1.1 2.2-6.6 4.2-12.2 1.9-5.7 3.3-10.9 3-11.5-.3-.7 .6-2 2-2.8 1.4-.8 2.6-2.4 2.7-3.5 .1-1.1 .3-2.9 .4-4 .1-1.1 .3-2.2 .4-2.5 .1-.3 .4-5.4 .5-11.5 .2-6 .4-19.1 .4-29 .1-16-.1-18.1-1.7-19.3-.9-.7-1.2-1.2-.7-1.2 .6 0 1-2.7 1-6 0-3.3-.3-6-.7-6-.5 0-.6-.8-.3-1.7 .3-1-.9-6.7-2.6-12.8-1.7-6-3.8-13.5-4.6-16.5-.8-3-2.2-7.3-3.1-9.5-.9-2.2-2.4-5.2-3.4-6.7-1-1.6-1.8-3.4-1.8-4-.1-.7 1.1-2.5 2.5-4 1.4-1.6 2.8-2.5 3.2-2l0.6 .7-.6-1.2c-.5-1 .2-1.2 2.7-1 2 .1 4.2-.5 5.3-1.4 1-.8 2.3-1.5 2.8-1.4 .6 0 2.6 .9 4.5 2 1.9 1 4.5 1.8 5.8 1.7 1.2-.1 2.2 .4 2.2 1.1 0 .9 .2 .9 .8-.1 .6-1 1.3-.9 3.7 .3 1.7 .8 4 1.5 5.3 1.5 1.2 0 2.2 .5 2.2 1 0 .6 .7 .8 1.5 .5 .8-.3 1.5 .1 1.5 .8 0 .6 1.4 1.7 3.2 2.4 2 .7 4.7 .9 6.8 .4 2.3-.4 4.4-.2 6 .6 1.4 .7 3.5 1.3 4.8 1.3 1.2 0 2.4 .5 2.7 1 .3 .6 1.9 1 3.5 1 1.7 0 2.8 .3 2.5 .8-.2 .4 .6 1.2 1.8 1.8 1.2 .6 4.1 1.1 6.5 1.2 2.3 .1 4.2-.2 4.2-.8 0-.6 8.3-.9 23.5-.7 12.9 .1 23.5-.1 23.5-.5 0-.5 .7-.8 1.5-.8 .8 0 2.3-.9 3.3-2 1.4-1.7 2.7-1.9 8.2-1.7 3.8 .2 7.5-.2 9-.9 1.4-.7 5-2.4 8-3.8 3-1.4 5.8-2.6 6.3-2.6 .4 0 2.5-1.1 4.7-2.5 2.2-1.4 5.2-2.5 6.8-2.6 1.5 0 4.1-.9 5.7-2 1.7-1 4.4-2.5 6-3.3 1.7-.8 3.7-2.1 4.5-3 .8-.9 2.6-1.6 4-1.6 1.4 0 3.2-.6 4-1.5 .8-.9 2.1-1.6 2.8-1.5 .6 0 2.4-1.2 4-2.6 1.5-1.4 3.8-2.8 5.2-3 1.4-.3 4-2.4 6-4.9 1.9-2.4 4.1-4.2 4.8-4 .6 .3 1.9-.3 2.7-1.2 .8-1 1.5-2.4 1.5-3 0-.7 .6-1.3 1.3-1.3 .6 0 2.1-1.4 3.2-3 1.1-1.6 2.5-3 3-3 .6 0 2.2-1.3 3.8-3 1.5-1.6 2.7-3.4 2.7-4 0-.5 1-1 2.3-1 1.3 .1 3.2-1.2 4.7-3 1.4-1.7 3-3.1 3.5-3.1 .6 0 2.5-1.9 4.3-4.2 2.9-3.6 3.3-4.8 2.9-8.2-.3-2.7 .1-4.6 1.2-5.9 .9-1 3.5-3.9 5.9-6.2 2.3-2.4 4.2-4.8 4.2-5.4 0-.5 .8-1.2 1.8-1.6 .9-.3 3.2-3.5 5-7.2 1.9-3.7 3.2-7.1 3-7.7-.2-.5-.7-1.1-1.3-1.1-.5-.1-1.3-.2-1.7-.3-.5 0-.8-.5-.8-1.1 0-.5 1-1 2.3-1 1.3 0 3.2-1.2 4.7-3.2 1.4-1.8 3.6-4.9 4.9-6.8 1.3-1.9 2.6-5.3 2.9-7.5 .2-2.2 1-4.4 1.7-5 .8-.5 1.6-2.8 1.9-5 .3-2.2 1.1-6.1 1.8-8.6 .7-2.5 1.8-5.2 2.5-6 .6-.8 1.4-2.6 1.7-4.1 .3-1.6 .2-3-.4-3.3-.6-.3-.6-1-.1-1.7 .4-.7 1.2-3.8 1.6-6.8 .5-3 .9-6.6 1-8 .1-1.4 .8-4.3 1.5-6.5 .9-2.8 1.4-10.1 1.4-23.7l0.1-19.6-2.1-2.4c-1.5-1.8-1.9-3.1-1.4-5.8 .3-1.9 .3-4.2-.1-5-.4-.8-1-3.5-1.4-6-.4-2.5-.7-5.7-.6-7.2 .1-1.6-.3-2.8-.9-2.8-.5 0-3.4-2.3-6.2-5-4.2-4.1-5-5.3-4-6.3 1-.9 1.2-.8 1.2 .6 0 1.2 .5 1.5 1.5 1 .9-.5 1.8-1.5 2.1-2.3 .5-1.2-.1-1.4-3.5-.7-2.5 .4-4.3 .3-4.6-.3-.3-.5 .2-1.7 1-2.5 .8-.8 1.5-1.8 1.5-2.2 0-.5-2.5-1.9-5.4-3.3-4.1-1.9-5.5-3.1-5.9-5-.2-1.4 .3-4.5 1.1-7 .9-2.5 2-4.7 2.5-5 .5-.3 .4-1.4-.2-2.7-.6-1.3-2-2.7-3.1-3.3-1.1-.5-2-2-2.1-3.2 0-1.3-.2-1.7-.5-1-.3 .8-1.3 .2-2.9-1.5-1.4-1.6-2.3-3.5-2-4.3 .3-.8-.1-2.1-1-2.7-.8-.7-1.9-1.1-2.5-.8-.5 .3-1.2-.3-1.5-1.2-.3-1-.2-2.7 .2-3.8 .5-1.3 .4-1.7-.2-1.3-.6 .4-1.9-.2-3-1.3-1.5-1.5-1.8-2.7-1.2-4.9 .5-2.3 .4-3-.8-3-.8 0-2.3-1.5-3.3-3.2-1-1.8-1.8-4.9-1.7-6.8l0-3.5 4 0 4 0-.2 4.3-.3 4.2 2.5 0c1.4 0 4.3-.8 6.5-1.7 3.3-1.5 4-2.3 4-4.5 0-1.8-.7-3.2-2-3.8-1.3-.7-2-2-2-4 0-2 .6-3.1 1.8-3.4 .9-.2 4.5-.4 8-.5 3.4 0 7.3 .4 8.7 .9 1.8 .7 3.2 .6 4.8-.2 1.2-.6 5.6-1.8 9.7-2.5 4.1-.7 7.7-1.7 8-2.2 .3-.5 4.1-1.2 8.5-1.6 5-.4 8.4-1.1 9-2 .6-.7 2.5-1.5 4.3-1.7 1.7-.2 3.2-.6 3.2-1 0-.5 1.2-.8 2.8-.8 1.5 0 3.2-.4 3.7-1 .6-.5 3.1-1.1 5.7-1.3 2.5-.1 4.4-.3 4.2-.4-.2-.2 1-1.4 2.6-2.8 1.7-1.4 3.6-2.5 4.3-2.5 .6-.1 2.7-1.4 4.5-3 2.2-2.1 4.2-3 6.5-3 1.7 .1 3.9-.6 4.7-1.5 .8-.9 2.7-1.6 4.3-1.5 1.5 0 3-.6 3.5-1.3 .4-.7 2.2-2.3 4-3.5 1.7-1.2 3.9-2.2 4.7-2.2 .8 0 1.7-1.1 2-2.5 .3-1.4 .8-2.5 1.3-2.5 .4 .1 3.4-2.5 6.7-5.7 3.3-3.2 8-7.2 10.5-8.9 3.5-2.4 4.7-4 5.4-7 .5-2.3 2.2-5.2 4.2-7.1 1.9-1.8 3.4-3.6 3.4-4 0-.5 1.5-2.2 3.3-4 1.7-1.7 3.8-3 4.5-2.7 .6 .2 1.2-.3 1.2-1.1 0-.8 .3-1.5 .8-1.5 .4 0 1.3-1.2 2-2.7 .7-1.5 1-3 .8-3.3-.3-.3 1.1-2.5 3-5 1.9-2.5 6.1-9.9 9.4-16.5 3.2-6.6 6.7-14 7.8-16.5 1.4-3.1 1.7-5.1 1.1-6.2-.7-1.4-.4-1.9 1.1-2.3 1.2-.3 2.8-2.4 4-5 1.1-2.5 2-5.6 2-7 0-1.4 .2-3.2 .5-4 .3-.8 .8-1.3 1.3-1.1 .4 .2 .7-.6 .8-1.7 .1-1.2 .8-6 1.6-10.7 .8-4.7 2.1-9.6 3-11 .9-1.4 1.6-4.9 1.7-7.7 .1-3.7-.3-5.3-1.1-5.3-1 0-1-.2 0-1.2 .7-.7 1.2-2.2 1.2-3.3 0-1.1 .4-2.4 .9-3 .4-.5 1.1-3.4 1.5-6.2 .5-4.1 .3-5.5-.9-6.3-.8-.5-1.4-1.9-1.2-2.9 .1-1 .5-2.3 .9-2.8 .3-.4 .2-2.3-.3-4-.8-2.9-.7-3.2 .9-2.8 1.1 .4 2.3-.3 3.5-2 .9-1.4 1.7-2.9 1.7-3.5 0-.5 1-1.9 2.3-3 1.2-1 1.6-1.9 1-2-.7 0-1.5 .5-1.8 1-.3 .6-1.2 .8-2 .5-1.1-.4-1.3-.1-.7 1.1 .5 1.2 .3 1.5-1 1-1-.3-2-.1-2.3 .4-.3 .6-1.5 1-2.7 1l-2.3-.1 2.5-1.3c1.7-.9 2.1-1.5 1.3-2-.7-.3-1.3-1.5-1.3-2.6 0-1.1-1.5-3.4-3.2-5-1.8-1.7-3.9-3-4.5-3-.9 0-1.1-1-.7-3.2 .4-1.8 1.2-3.9 1.8-4.6 .8-1 .6-1.4-1.1-1.8-1.3-.2-2.3-.8-2.3-1.4 0-.5 .4-1.8 .9-2.7 .4-1 1.1-3 1.5-4.5 .5-2.4 .3-2.7-1.1-2.2l-1.8 .6-1.7-.6-1.8-.6 2-2c1.1-1.1 2-2.9 2-4 0-1.1-.3-2-.7-2-.5 .1-1.5-1.3-2.3-3-1.2-2.4-1.2-3.3-.3-4.3 .9-.9 .5-2.5-2-7-2.3-4-3.6-5.6-4.7-5.2-.8 .3-2.2-.1-3-1l-1.5-1.6 1.5 .1c0.8 0 2.3-1.3 3.3-3 .9-1.6 1.3-3 .7-3-.5 0-1-.6-1-1.2-.1-.7-1-2.3-2-3.5-1.1-1.3-2.7-2.3-3.5-2.3-.8 0-1.5-.3-1.5-.7 0-.5 .4-1.2 1-1.8 .6-.6 .7-1.8 .3-2.9-.5-1-1.8-2.3-3-2.8-1.9-.6-2.2-1.4-1.8-3.8 .4-2.2 .1-3-1-3-.9 0-1.7-1.2-2-3-.3-1.6-1.1-3-1.7-3-.7 0-1.9-1.1-2.5-2.5-.7-1.4-1.9-3.7-2.5-5.1-.7-1.5-3-3.8-5-5-2.1-1.3-4.5-2.4-5.3-2.4-1.2 0-1.3-.5-.5-2.5 .6-1.4 .7-2.4 .3-2.4-.5 .1-1.2 .1-1.8 .1-.5-.1-2.1-2.3-3.4-4.9-1.4-2.6-2.9-5.7-3.4-6.8-.5-1.1-.6-3-.3-4.2 .5-1.9-.1-2.6-3.6-4.3-2.4-1.1-5.2-2.5-6.3-3.2-1.1-.7-2.1-1.3-2.3-1.3-.2 0-.1-1 .2-2.2 .3-1.3 1.1-2.1 1.6-1.8 .6 .3 .8-.4 .5-1.5-.4-1.4 .7-3.1 3.8-6 2.3-2.1 5.6-4.2 7.2-4.5 1.7-.3 4.4-1.6 6-2.7 1.7-1.1 3.7-1.8 4.5-1.5 .8 .3 2.9-.4 4.6-1.6 1.7-1.2 2.9-2.8 2.7-3.4-.1-.7 .5-1.4 1.5-1.4 .9-.1 2.2-.1 2.7 0 .6 .1 1.8-1 2.8-2.4 .9-1.4 2.4-2.5 3.2-2.5 .8 0 3.6-.7 6.3-1.6 2.6-1 6.2-3.3 8.2-5.4 1.9-2 4.3-4 5.3-4.3 .9-.4 1.7-1.4 1.7-2.2 0-.8 .3-1.5 .8-1.5 .4 0 2.3-1.5 4.2-3.3 1.9-1.8 4.3-3.6 5.3-4 .9-.4 1.7-1.6 1.7-2.7 0-1.1 .5-2.2 1-2.5 .6-.3 .8-.9 .5-1.5-.3-.5 .4-2.2 1.5-3.7 1.2-1.6 2.1-4.3 2-6 0-2.1 .6-3.5 1.5-3.8 .8-.3 1.5-.9 1.5-1.5 0-.5 1.1-1.9 2.5-3 1.4-1.1 2.3-2.6 2-3.2-.3-.7 .8-2.8 2.5-4.5 2-2.2 2.8-4 2.5-5.3-.3-1.1 0-2 .5-2 .6 0 1-.8 1-1.7 0-1 1.8-3.9 4-6.5 2.2-2.7 4-5.4 4-6 0-.7 1.1-2.9 2.5-4.8 1.4-1.9 2.5-4.4 2.5-5.5 0-1.1 1.3-3.6 3-5.5 1.8-2.1 2.8-4.2 2.5-5.2-.3-1-.1-2.6 .4-3.5 .5-1 1.9-4.8 3-8.5 1.2-3.8 2.1-7.9 2.1-9.3 0-1.4 .5-2.5 1-2.5 .6 0 .9-.9 .8-1.9-.2-1.1 .5-2.2 1.5-2.5 1.3-.5 1.5-1.1 .8-2.8-.5-1.3-.8-4.2-.7-6.6 0-2.3 .7-4.6 1.3-5 .8-.4 1.7-5.3 2.5-12.7 .9-9.2 .9-12.1 0-12.2-.7-.2-1.2-.7-1.2-1.3 0-.5 .5-.8 1-.5 .6 .3 1-1 1-3 0-2.7-.5-3.6-2-4-1.1-.3-2-.9-2-1.5 0-.5 1.1-1.7 2.5-2.5 1.8-1.1 2.5-2.4 2.5-4.5 0-1.6-.4-3-1-3-.5 0-1 .6-1 1.3-.1 .6-.7 .1-1.5-1.3-1.2-2.1-1.2-3.3-.1-7.5 .8-2.7 1.4-9.5 1.5-15 .1-5.5 .1-10.7 .1-11.5 0-.8-.1-2.4-.4-3.5-.2-1.1-.7-2.9-1.1-4-.5-1.1-1.9-3.1-3.2-4.5-1.3-1.4-2.6-4.1-2.9-6-.3-1.9-1.6-6.9-3-11-1.4-4.1-3.3-9.5-4.1-12-.8-2.5-1.8-5.2-2.2-6-.4-.8-1.7-1.9-2.9-2.5-1.2-.5-2.2-1.8-2.2-2.7 0-1-.7-3.1-1.5-4.8-.8-1.6-2.4-3.2-3.5-3.5-1.4-.3-1.8-1-1.4-2.2 .3-1-.1-2.5-1.1-3.3-.9-.8-1.6-2.1-1.5-2.7 0-.7-.9-2.5-1.9-4-1.1-1.6-2.4-4.1-3-5.8-.7-2-2.2-3.4-4.3-4.2-1.8-.7-4.2-2.1-5.3-3.3-1.4-1.5-1.7-2.3-.8-2.8 .8-.5 .9-1.2 .3-2.2-.6-.9-2.4-1.5-4.5-1.5-2.4 0-3.5-.5-3.6-1.5-.1-.8-.3-1.9-.4-2.5-.1-.5-.3-1.2-.4-1.5 0-.3-1-.6-2.1-.7-1.1-.2-3.2-1.3-4.7-2.4-1.7-1.3-3.5-1.9-4.5-1.5-1 .3-1.8 .2-1.8-.4 0-.5 .6-1.2 1.3-1.4 .6-.3 .1-.5-1.3-.6-2.1-.1-2.2-.2-.6-.8l1.9-.7-1.7-1.7c-.9-1-1.6-2.2-1.6-2.8 0-.5-.8-1-1.7-1-1 0-2.7-.6-3.8-1.5-1.1-.8-2.8-1.5-3.7-1.5-1.1 0-1.8-.7-1.8-1.7 .1-1-1-2.9-2.2-4.3-1.8-1.9-3.1-2.4-6-2.2-3.2 .2-3.8-.1-3.8-1.8 0-1.1-1-2.4-2.2-2.9-1.3-.5-3.5-2.1-5-3.5-1.6-1.4-3.9-2.6-5.3-2.6-1.4 0-3.4-.4-4.5-1-1.1-.6-1.7-1.5-1.4-2.2 .6-1 .4-1-.7 0-.8 .7-2.2 1.2-3.1 1.2-1.3 0-1.9-.9-2-3.1-.2-1.7 0-3.2 .5-3.5 .4-.2 .7-1.2 .7-2.1 .1-1 1.2-2.8 2.5-4 1.4-1.3 2.3-2.7 2-3.3-.3-.5 1-2.4 2.8-4 1.7-1.7 3.4-3.1 3.7-3.1 .3-.1 1-.2 1.5-.3 .6-.1 2.3-1.2 4-2.6 1.6-1.4 5.2-4.8 8-7.5 2.7-2.8 5.6-6.3 6.3-7.8 .6-1.5 2-2.7 3-2.7 .9 0 2.5-.6 3.4-1.3 1-.7 1.7-1.6 1.7-2.2 0-.5 .8-2 1.8-3.2 1-1.2 2.4-2.2 3.1-2.3 .6 0 1-.7 .7-1.5-.3-.8 .6-2.7 2-4.2 1.4-1.6 2.6-3.2 2.6-3.8 0-.5 1.2-2.5 2.7-4.3 1.5-1.8 4.8-5.6 7.4-8.5 2.6-2.9 4.8-6 4.8-6.9 0-1 .7-1.8 1.5-1.8 .8 0 1.5-.4 1.5-1 0-.5 1.1-2.2 2.5-3.7 1.3-1.6 2.7-3.9 3-5.3 .3-1.4 .9-2.7 1.4-3 .5-.3 2-2.6 3.5-5.2 1.9-3.6 2.7-6.8 3.1-12.3 .3-4.8 1-8 2-9 .8-.8 2.2-4.1 3-7.2 .9-3.2 1.3-5.9 1-6-.3-.2 .4-1.3 1.5-2.5 1.4-1.7 1.8-3.1 1.3-5.3-.5-2.2-.4-2.8 .5-2.2 .8 .5 1.2-.1 1.2-1.8 0-1.4 .5-2.7 1-3 .6-.3 1-1.4 1-2.5 0-1.1 .5-2 1-2 .6 0 1-1 1-2.2 0-1.3-.5-3.5-1.2-5-1.1-2.4-1-3.4 1.1-8 1.3-2.9 3-8.7 3.7-12.8 .7-4.1 2.1-12 3-17.5 1.2-6.9 1.5-12.1 1-17-.4-3.8-1.7-10.1-3-14-1.3-3.8-3-10.6-3.8-15-.9-4.4-2.8-10.7-4.4-14-1.5-3.3-4.7-8.2-6.9-11-2.5-3.1-4.6-6.9-5.4-10-.7-2.7-2.7-7.9-4.4-11.4-1.8-3.6-6.5-10.1-10.7-14.7-4.1-4.6-9.3-10.7-11.5-13.6-2.2-2.8-6.3-7-9.1-9.2-2.8-2.3-6.5-6.1-8.3-8.6-1.7-2.5-5.9-6.5-9.2-9-3.3-2.5-10.6-8.8-16.3-14-7.1-6.6-12.3-10.5-17.1-12.9-3.9-1.9-9.5-3.9-12.5-4.5-3.7-.7-5.5-1.6-5.5-2.6 0-1-.9-1.4-2.7-1.2-1.6 .1-3.4-.1-4-.5-.7-.4-2-.8-2.8-.9-.8 0-3.7-1.1-6.5-2.3-2.7-1.3-7.9-3-11.5-3.8-3.6-.8-8.5-1.6-11-1.7-2.5 0-6-.8-7.8-1.6-1.8-.8-3.3-1.8-3.2-2.2 0-.5-.7-.8-1.5-.8-.8 0-1.4 .3-1.4 .8 .1 .4 .1 1.2 0 1.7 0 .6-2.7 1.2-5.8 1.3-4.3 .3-6.3 0-7.5-1.2-1-.9-2.1-1.6-2.5-1.6-.5 .1-1.2 .8-1.8 1.7-.8 1.2-1.4 1.3-3.2 .4-1.3-.6-3-.9-3.8-.6-.8 .3-2.2-.4-3-1.5-1.2-1.6-1.9-1.8-3.5-1-1.6 .8-2.1 .6-2.7-.7-.3-1-.8-2.6-1-3.5-.2-1.4 .3-1.8 2.5-1.7l2.7 .1 1.3-.1c0.6-.1 1.2-.4 1.2-.8 0-.5-1.2-2.3-2.8-4-1.5-1.8-3.3-3.3-3.9-3.3-.8 0-1.1 .7-.7 1.8 .4 1.3 .1 1.2-1.5-.5-1.3-1.4-1.9-3.2-1.7-4.5 .3-1.3 .5-3.1 .5-4 .1-1.4 1.2-1.9 4.4-2.3 2.3-.2 4.9-1.2 5.7-2 .8-.9 1.8-1.6 2.3-1.5 .4 0 2.1-1 3.7-2.2 1.7-1.3 3-2.9 3-3.5 0-.8 1.2-1.3 2.8-1.3 1.5 0 3.2-.4 3.7-1 .6-.5 2.4-1.1 4-1.2 1.7-.2 4.3-1.3 5.8-2.5 1.8-1.6 2.5-2.9 2.2-4.3-.3-1.1-.8-1.9-1.2-1.9l-.8 .1-2.2-.1c-2-.1-2.2-.5-1.8-2.8 .3-1.6 1.9-4 3.5-5.5 1.7-1.6 3-3.4 3-4 0-.7 .3-1 .7-.5 .5 .4 1.6 0 2.6-.8 .9-.8 1.4-2.1 1.1-2.7-.3-.7 .2-2 1.1-2.8 .9-.8 1.6-2.5 1.5-3.7 0-1.3 .5-2.5 1-2.8 .6-.3 1-1.4 1-2.5 0-1.1-.6-2.2-1.2-2.4-1-.3-.9-.7 .3-1.7 .9-.8 2.4-3.3 3.3-5.6 .9-2.4 1.6-6.2 1.6-8.5 0-2.7 1-6.1 2.5-9 1.4-2.7 2.4-5.4 2.3-6-.1-.7 .9-3.5 2.1-6.3 1.3-2.7 2.9-8.1 3.8-12 .8-3.8 1.3-10.1 1.2-14-.2-5.3 .3-8.6 2.1-13.5 2-5.4 2.4-8.4 2.4-17.5 0-8.7-.5-12.3-2.2-17-1.5-4.4-2.2-9.2-2.5-17.5-.3-9-1-13.1-3-19-1.4-4.1-3.6-12.9-4.7-19.5-1.2-6.6-2.6-13.1-3.2-14.5-.5-1.4-3.4-7.6-6.4-13.7-3-6.2-5.4-11.6-5.4-12 0-.5-3-5.3-6.6-10.8-3.7-5.5-8.3-12-10.2-14.5-2-2.5-6.3-7.5-9.7-11.1-3.3-3.6-8.3-9.3-11.1-12.5-2.8-3.2-7.7-7.7-11-9.8-3.4-2.3-12.3-6.3-20.9-9.5-8.2-3-19.7-6.7-25.5-8.2-5.8-1.6-9.6-2.9-8.5-3 1.4-.1 1-.4-1-.8-1.6-.4-3.7-.4-4.5-.1-.8 .4-6.7-.8-13-2.6-6.3-1.8-10.9-3.3-10.2-3.3 .6-.1 1-.5 .7-1.1-.3-.5-1.4-.8-2.5-.5-1.1 .3-2.6 .2-3.2-.2-.7-.4-3-.7-5.1-.8-2.2 0-4.2-.6-4.8-1.5-.6-.8-1.2-1.1-1.5-.5-.3 .7-2.9 .6-7.7-.3-4.2-.7-18.7-1.4-34.7-1.6l-27.5-.4-17.5 3c-9.6 1.6-20.2 4.1-23.5 5.4-3.3 1.3-6.8 2.4-7.7 2.4-1.1 0-1.8-.8-1.8-2 0-1.4-.9-2.2-2.7-2.6-1.6-.3-3.6-1.6-4.6-2.7-1-1.2-1.7-2.8-1.7-3.4 0-.7 2.3-5.7 5.1-11 3.5-6.7 5.2-11.3 5.5-14.5 .3-3.8 1.3-5.9 4.7-10 2.3-2.9 5.6-8 7.1-11.3 1.6-3.3 3.5-8.9 4.2-12.5 .8-3.6 1.4-8 1.4-9.7 0-1.8 .6-3.6 1.4-4 .7-.5 1.6-1.7 2-2.8 .3-1.1 0-2.9-.8-4-1.2-1.7-1.2-2.1 .3-3.1 1.4-1 1.4-1.5 .3-4-.8-1.8-1-4-.5-5.9 .4-1.8 .3-2.8-.2-2.4-.6 .4-1-1-1-3.5 0-2.2 .4-4.4 1-4.8 .6-.4 1-6.5 1-15 .1-10.4-.3-14.6-1.2-15.5-.7-.7-1.3-2.5-1.3-4 0-1.6 .3-5 .6-7.8 .4-3.7 .1-5.4-1.1-6.5-.8-.8-1.2-1.8-.8-2.2 .5-.3-.4-.9-1.9-1.2-1.6-.3-2.8-1.3-2.8-2.1 0-.8 1-2.4 2.3-3.4l2.2-1.9-1.2-5.4c-.6-2.9-1-5.5-.7-5.8 .2-.3-.3-1.2-1.1-2-.9-.8-1.6-2.6-1.6-4 .1-1.4-.5-4.2-1.2-6.3-.6-2-1.9-4.1-2.7-4.6l-1.5-.9 1.5-1.7 1.5-1.7-3.4-2.6c-1.9-1.5-4.2-3.2-5-3.9-1.4-1.1-1.4-1.2 .2-1.3 .9 0 1.7-.4 1.7-1 0-.5-.9-1.2-2-1.5-1.1-.3-2-.9-2-1.5 0-.5 .7-.8 1.5-.5 .8 .3 1.5 .1 1.5-.5 0-.5-.8-1.4-1.7-1.9-1-.4-2.5-.6-3.3-.3-1 .4-1.2 .2-.7-.6 .4-.7 0-1.8-.8-2.4-.9-.7-2-2.5-2.5-4-.8-2.2-.7-2.9 .5-3.3 .8-.3 1.5-1.3 1.5-2.2 0-1-3-6.2-6.5-11.5-4.6-7-7.1-9.8-8.5-9.8-1.1 0-1.8-.4-1.5-1l0.5-1-.5-1.5c-.3-.8-1.1-1.2-1.7-.9-.8 .3-2.4-1.7-4.3-5.2-1.7-3.3-6.8-9.8-11.6-14.9-4.8-4.9-11.3-10.6-14.4-12.5-3.1-1.9-7.1-4.7-8.9-6.3-1.7-1.5-3.7-2.7-4.3-2.7-.7 0-3.2-1.5-5.5-3.2-2.4-1.8-4.5-3.5-4.8-3.8-.3-.3-1.8-1.4-3.5-2.5-1.6-1.1-5.2-3.1-8-4.5-2.7-1.4-5.7-3-6.5-3.5-.8-.5-3.7-1.1-6.5-1.1-3.2-.2-5.4-.8-6-1.7-.5-.9-1.4-2.2-2-3.1-.5-.9-2.6-1.8-4.5-2-1.9-.3-4.7-1.4-6.2-2.5-1.6-1.2-4-2.1-5.5-2.1-1.6 0-3.7-.7-4.8-1.5-1.1-.9-3.3-1.5-5-1.5-1.6 .1-3.7-.6-4.5-1.5-.9-1-3.1-1.6-5.7-1.5-3.2 0-4.3-.4-4.3-1.5 0-1-1-1.5-3.2-1.4-1.8 .1-8.5-.1-14.8-.5-6.3-.3-13.9-.8-16.7-1.1-2.9-.3-5.3-.9-5.3-1.5 0-.5-1.9-1-4.2-1-2.4 .1-6.3 .5-8.8 1-2.5 .6-7.2 1.1-10.5 1.2-3.3 .1-6.6-.1-7.2-.5-.8-.4-2.5 .4-4 1.8-1.9 1.8-3.5 2.4-5 2-1.6-.3-2.5 0-2.9 1.3-.4 1.1-.9 1.3-1.3 .5-.3-.6-2.2-1.3-4.1-1.6-1.9-.3-4.6-.1-6 .5-1.4 .6-3.4 1.4-4.5 1.8-1.1 .5-3.3 1.2-5 1.6-1.6 .4-3.7 .9-4.5 1-.8 .2-2.6 1.2-4 2.2-1.4 1-3.4 2.2-4.5 2.6-1.1 .4-3.6 1-5.5 1.2-1.9 .3-3.6 .9-3.7 1.4-.2 .6-.9 1-1.5 1-.7 0-2.8 .6-4.5 1.5-1.8 .8-3.3 2-3.3 2.5 0 .6-1.2 1.2-2.7 1.5-1.6 .3-3.8 1.5-5 2.7-1.1 1.3-2.3 3.2-2.5 4.3-.3 1.6-1 1.9-3.3 1.7-2.1-.2-4 .5-6.2 2.2-1.8 1.4-3.7 2.6-4.3 2.6-.5 0-3 1.4-5.5 3-2.5 1.7-5.7 4.8-7.2 7-1.6 2.2-3 3.8-3.3 3.5-.3-.2-3.4 2.4-7 5.9-3.6 3.5-10.2 9.9-14.8 14.2-4.8 4.6-9.1 9.7-10.2 12.2-1.4 2.9-2.8 4.4-4.5 4.7-1.4 .3-2.5 1.2-2.5 2 0 .8 .5 1.5 1 1.5 .6 0 1 .7 1 1.5 0 .9-.5 1.2-1.2 .8-.7-.4-2.2-.6-3.3-.5-1.1 .2-2.7-.4-3.5-1.1-.8-.8-3.5-1.9-6-2.3-2.5-.5-5-.9-5.6-.9-.7 0-1.5-2.5-1.9-5.5-.4-3-2.2-10-4-15.5-1.9-5.5-3.2-10.3-2.9-10.7 .2-.5-.3-5-1.1-10-.8-5.1-2.1-11.3-3-13.8-.8-2.5-1.5-5.7-1.5-7.2 0-1.6-.6-3.4-1.2-4.1-.7-.7-2.2-4-3.3-7.3-1.1-3.2-2.5-6.3-3.2-6.9-.6-.5-2.3-3.9-3.7-7.5-1.4-3.6-3-8.5-3.6-11-.7-2.5-2.4-7-3.8-10-1.5-3-5.1-8.6-8.2-12.5-3-3.8-6.7-8.8-8.2-11-1.5-2.2-4.1-5.3-5.8-7-1.7-1.6-3-3.3-3-3.7 0-.5-1-1.8-2.2-3.1-1.3-1.3-5.3-5.7-8.9-9.8-3.6-4-8.6-8.7-11-10.4-2.4-1.6-7.4-5.7-11-9-3.7-3.3-8.9-7.1-11.5-8.5-2.7-1.4-7.9-4.2-11.6-6.2-3.8-2.1-6.8-4.2-6.8-4.8 0-.5-1.2-1-2.7-.9-1.6 0-7-1.3-12-3-5.1-1.7-10.1-3.1-11-3.1-1 0-4.6-1.1-8-2.5-3.9-1.5-13.7-3.7-25.5-5.6-12.1-1.9-21.4-2.9-24.8-2.7-3 .3-6.8 .1-8.5-.3-1.6-.5-8.2-1.1-14.5-1.3-6.3-.3-13.2-.6-15.3-.8ZM1155 121.9c0.8 0 1.2 .4 .8 .8l-.8 .8-.7-.8c-.5-.4-.1-.8 .7-.8ZM1162 123.2c1.4 0 1.9 .1 1.3 .4l-1.3 .4-1.2-.4c-.7-.3-.2-.4 1.2-.4ZM1015.7 186.3c-.4-.5-.8-.1-.8 .7 0 .8 .4 1.2 .8 .8l0.8-.8-.8-.7ZM1003.8 202c0.1 0 .4 .5 .7 1 .3 .6-.5 1-1.7 1-1.9 0-2-.2-.8-1 .8-.5 1.6-1 1.8-1ZM789.5 221.1c1.1-.1 1.8 .1 1.5 .4-.3 .4-1.2 .4-2 .2-1-.4-.9-.6 .5-.6ZM725 222c0.6 0 1 .3 1 .8 0 .4-.9 2.2-2 4-1.1 1.7-2.4 3.2-3 3.2-.5 0-1.2-.4-1.5-1-.3-.5 .6-1.7 2-2.5 1.4-.8 2.5-2.2 2.5-3 0-.8 .5-1.5 1-1.5ZM1166.5 258.9c0.6 .3 2.8 .6 5 .8 2.2 .1 4.2 .6 4.5 1.2 .3 .5 2.4 1.4 4.8 2 2.3 .6 5.2 .8 6.5 .5 1.3-.4 2.9 0 4 1 .9 .9 2.4 1.6 3.2 1.6 .8 0 1.5 .5 1.5 1 0 .6 1 1 2.3 1 1.2 0 3.8 .7 5.7 1.7 1.9 .9 4.4 2.5 5.5 3.5 1.1 1 2.5 1.8 3 1.8 .6 0 2 1.3 3.3 3 1.2 1.6 3.8 3.4 5.7 4 1.9 .6 3.5 1.5 3.5 2 0 .6 2.3 3.3 5 6 2.8 2.8 5 5.3 5 5.8 0 .4 1.3 1.3 3 2 1.6 .6 2.8 1.7 2.5 2.2-.3 .6 .3 2 1.3 3.1 .9 1.2 1.7 2.9 1.8 3.8 .1 .9 .5 2.9 1 4.5 .5 1.7 2.4 4.5 4.2 6.3 1.7 1.8 3.2 4.2 3.2 5.3 0 1.1 .5 2.3 1.1 2.8 .6 .4 .9 1.8 .6 3.2-.3 1.4-.2 3.2 .3 4 .6 1 .4 2-.5 3-.9 .9-2.5 1.3-4.2 1.1-2.3-.4-2.7-.2-2 1.2 .6 1.4-.1 1.8-4 2.2-2.7 .3-5.8 .7-7.1 .8-1.3 .1-2.7-.4-3.2-1-.7-.8-3.5-1.3-7.7-1.2-3.8 0-9.5-.3-12.8-.6-3.3-.4-13.6-.7-23-.8-9.3-.1-17.6-.6-18.2-1-.7-.4-4-.9-7.3-1.2-5.2-.4-6-.3-6 1.3 0 1.4-.2 1.5-.9 .2-.5-.8-1.4-1.2-2-.7-.6 .4-1.1 .2-1.1-.5 0-1-.9-1.1-3.5-.5-2.2 .4-3.3 .3-3-.3 .3-.5-.2-1.6-1.2-2.2-.9-.7-4.3-1.3-7.5-1.3-4.1 0-6.1 .4-6.8 1.5-.7 1.1-2.7 1.5-7 1.5-4.8 0-6.3-.4-7.1-1.7-.6-1.3-1.4-1.6-2.6-.9-1.1 .5-6 .5-11.8 0l-10-.9-4-3.5c-2.2-2-4.3-3.5-4.7-3.5-.5 0-1-.9-1.3-2-.3-1.3 .4-2.8 2-4.2 1.4-1.3 2.7-3.6 2.9-5.3 .2-1.6 .5-3.2 .6-3.5 .2-.3 .4-1.2 .5-2 .1-.8 .3-2.7 .4-4.2 .1-2.2 .5-2.7 1.9-2.3 .9 .3 2.5-.3 3.5-1.2 1-1 1.8-2.4 1.7-3 0-.7 1.1-2 2.5-2.8 1.4-.8 2.5-2.3 2.5-3.2-.1-1 2.5-4.2 5.7-7.2 3.2-2.9 6.9-5.7 8.3-6.2 1.4-.5 3.2-2 4-3.4 .8-1.4 2.2-2.5 3-2.5 .8 .1 2.1-.6 2.8-1.5 .6-.8 1.7-1.3 2.2-1 .6 .3 3.9-.8 7.5-2.5 3.6-1.6 7-3 7.5-3 .6 0 1-.4 1-1 0-.5 2-1 4.5-1 2.5 0 4.7-.4 5-1 .3-.5 1.3-.8 2.3-.5 .9 .3 3.5 .2 5.7-.3 2.2-.5 4.5-.6 5-.3ZM967.7 295.3l0.8 .7-.8 .8c-.4 .4-.8 0-.8-.8 0-.8 .4-1.2 .8-.7ZM1441.3 299c0.4 0 .6 .6 .4 1.3-.2 .6-1.2 1.4-2.3 1.6l-1.9 .4 1.5-1.7c0.8-.9 1.8-1.7 2.3-1.6ZM1141 333c1.8 0 2.5 .5 2.5 2l0 2 0 0c0 0-1.1-.9-2.5-2l-2.5-2.1 2.5 .1ZM759.8 363.7c5.6 .2 11.1 .8 12.2 1.3l2 1 2-1c1.1-.5 3.4-1 5-1 2.2 0 2.9 .4 2.5 1.5-.4 1.2 .4 1.5 3.5 1.5 2.2 0 4.1 .5 4.3 1.1 .1 .6 2 1.7 4.2 2.6 2.2 .8 5.4 1.7 7 2 1.7 .3 3.9 1.5 5 2.7 1.1 1.1 3.5 3 5.3 4.1 1.8 1.1 3.5 2.8 3.7 3.8 .3 .9 .8 1.5 1.3 1.2 .4-.2 2.3 1.3 4.2 3.4 1.9 2.1 4.4 4 5.5 4.2 1.5 .3 2.1 1.4 2.5 4.4 .4 3.2 .1 4.3-1.5 5.6-1.1 .9-3.1 2-4.5 2.4-1.4 .4-3.7 1.8-5.2 3.1-1.6 1.3-3.2 2.2-3.8 1.9-.5-.3-3.6 1.2-6.7 3.3-3.2 2.1-7.7 4.9-10.1 6.3-2.4 1.4-4.1 3-4 3.9 .2 .8-.3 1.4-.9 1.3-.7-.2-1.3 0-1.3 .5 0 .4 .5 1.2 1.2 1.9 1 .9 .4 1.1-2.7 .9-2.2-.2-4.7-.7-5.5-1-.9-.4-2.3 .2-3.5 1.4-1.1 1.1-2.9 2.1-4 2-1.7 0-1.8 .2-.5 1.1l1.5 1.1-1.5-.5c-.8-.3-2.5 .1-3.7 .9-1.3 .8-2.3 1.2-2.3 .9 0-.3-1.7 .6-3.7 2-2.1 1.4-4.6 2.5-5.5 2.5-1 0-3.5 1.5-5.5 3.4-2.1 1.8-5.1 4-6.8 4.8-1.6 .9-4.7 3.2-6.7 5.2-2.1 2-3.8 4.1-3.8 4.6 0 .6-1 .7-2.2 .4-1.6-.4-3.6 .3-6.3 2.3-2.2 1.5-4.2 3-4.5 3.3-.3 .3-2.2 1.4-4.2 2.5-2.1 1.1-4.4 3.4-5.3 5.3-1.1 2.3-2.2 3.2-4 3.2-1.5 0-3.3 1-4.5 2.5l-2 2.5-5.2-.5c-2.9-.3-7.1-1.1-9.3-1.7-2.2-.6-4.8-2.1-5.7-3.2-.9-1.2-1.5-3.1-1.3-4.3 .3-1.5-.1-2.5-1-2.8-.8-.3-1.3-.9-1-1.5 .3-.5-.8-1.8-2.5-2.7-1.6-1-3.5-2.9-4.1-4.3-.7-1.4-1.1-2.9-1-3.5 .2-.5 .4-2.8 .6-5 .2-2.2-.4-6.4-1.3-9.2l-1.7-5.3 2.3-2.2c1.8-1.7 2.2-3 1.8-5-.4-1.9-.1-3.2 .9-4 .9-.7 1.8-2.6 2.2-4.3 .3-1.6 1.8-4.3 3.2-5.9 1.4-1.6 3.7-5.7 5.1-9.2 1.7-4.1 4.3-8.3 7.9-12.1 3-3.2 7-6.8 8.8-8 1.8-1.3 3.6-2.3 4.1-2.3 .4 0 1.8-1.1 3.2-2.5 1.4-1.4 3.1-2.5 3.8-2.5 .6 0 1.5-.7 2-1.6 .4-.8 1.3-1.3 2-1 .6 .3 1.7-.1 2.2-.9 .6-.8 1.7-1.3 2.5-1 .9 .3 1.5-.1 1.5-1 0-.8 .7-1.7 1.5-2 .8-.3 2-.2 2.6 .3 .6 .4 1.4 .1 1.8-.6 .5-1.1 1.1-1.2 2.9-.3 1.7 .9 2.3 .8 2.7-.4 .3-1 1.8-1.5 4.5-1.5 2.2 0 4-.4 4-1 0-.5 .8-1.1 1.8-1.3l1.7-.4 10.3 .4ZM557.7 366.3l0.8 .7-.8 .8c-.4 .4-.8 0-.8-.8 0-.8 .4-1.2 .8-.7ZM1550.3 399.5c1.7 .2 5.2 .7 7.7 1 2.5 .3 6.4 .8 8.8 1 2.6 .3 4 .1 3.7-.5-.3-.5 .7-.3 2.3 .5 1.9 1.1 4 1.3 7.3 .7 3.7-.6 4.5-.4 4 .7-.5 1 .3 1.3 3.4 1 2.2-.2 4.5 0 5 .3 .6 .3 2.7 1.5 4.8 2.7 2 1.2 4.6 2.1 5.7 2.1 1.1 0 2.2 .7 2.5 1.5 .3 .8 1.5 1.5 2.8 1.5 1.2 0 3 .8 3.9 1.7 1 1 2.7 2.7 3.8 3.8 1.1 1.1 2 2.8 2 3.8 0 .9 1.5 3.3 3.3 5.2 2.6 2.9 3.5 3.3 4.6 2.2 1.1-.9 1.5-.9 1.8 .1 .1 .6 1 1.2 1.8 1.2 .8 0 1.5 .5 1.5 1 0 .6 .5 .8 1 .5 .6-.3 1 0 1 .5 0 .6 .8 1.8 1.8 2.8 .9 1.1 2.5 2.2 3.5 2.5 1.3 .5 1.5 1.1 .8 2.5-.7 1.1-.5 2.7 .5 4.7 .8 1.7 1.4 3.5 1.4 4 0 .6 .8 1.9 2 3 1.2 1.2 1.6 2.4 1.1 3-.5 .6-.6 1.8-.2 2.7 .3 1 1.1 1.7 1.6 1.7 .6 0 1.3 1.5 1.7 3.3 .4 1.8 1.3 4.4 2 5.8 .8 1.4 1.2 4.1 1.1 6-.2 1.9-.5 8.2-.8 14-.3 5.8-.8 11.4-1.1 12.5-.3 1.1-.1 2.3 .5 2.8 .6 .4 1.1 1.8 1.1 3.2 0 1.8-.5 2.4-1.7 2.3-1.3-.2-1.7 .5-1.8 2.9 0 1.7-.3 3.4-.7 3.7-.5 .3-1.8-.3-3-1.4-1.3-1.1-2.6-2-3-2-.5 0-1 .7-1.3 1.5-.4 1.2-1 1.3-2.7 .4-1.3-.6-2.3-1.8-2.3-2.7 0-1.2-.9-1.7-3-1.8-1.6-.1-3.6-.2-4.2-.2-.7-.1-1.2-1-1-1.9 .1-1-.3-1.8-.9-1.8-.6 0-3.7-2.8-7-6.1-4-4.2-7-6.3-9.1-6.8-2-.3-3.3-1.2-3.3-2.1 0-.8-1-1.7-2.2-2-1.3-.2-2.4-.3-2.6-.2-.2 .1-.8-.6-1.3-1.5-.5-1-3.4-2.5-6.6-3.4-3.2-.8-6.6-1.3-7.5-1-1.3 .4-3.8-1.4-8.8-6.4-3.8-3.8-6.8-7.4-6.5-8 .3-.6-1-.9-3.2-.8-2.8 .2-4.4-.4-6-2-1.3-1.2-2.3-2.8-2.3-3.4 0-.9-.8-1.1-3-.5-2.6 .6-3 .4-3-1.3 0-1.1-.6-2-1.2-2-.7 0-2.4-.9-3.8-2-2-1.6-2.2-2-.7-2 1.2 0 1.5-.5 1-1.6-.6-1.1-1.8-1.5-4.1-1.2-2.1 .2-3.6-.2-4.2-1.2-.5-.8-.7-1.8-.4-2.2 .2-.5-.2-.7-.8-.6-.7 0-2.5-.4-4-1-1.6-.7-2.8-2-2.9-2.9 0-1.5-.2-1.5-.9 .2-.5 1.1-.9 1.6-.9 1-.1-.5-1.8-.8-3.9-.6-2.5 .2-4.2-.2-5.2-1.3-.8-.9-1.1-2-.6-2.4 .5-.4 1-.1 1.2 .6 .2 .6 1.1 1.2 1.9 1.2 .9 0 1.2-.5 .8-1.2-.4-.7-.8-1.7-.8-2.3 0-.5-1.3-1-2.8-1-2.4 0-2.7-.4-2.5-2.5 .3-2.1-.1-2.5-2.5-2.5-2 0-3.9-1.1-6-3.3-2.1-2.1-3.8-3.1-4.9-2.7-1 .3-2 .1-2.3-.5-.3-.5 .6-2.1 2-3.5 1.6-1.6 2.3-3.1 1.9-4.2-.4-1-.8-2.5-1-3.3-.3-1.1 .2-1.4 2.1-1.2 1.4 .1 2.3 .7 2 1.2-.3 .6-.2 1 .3 1 .4-.1 2.1-1.7 3.7-3.6 1.7-1.9 3.5-3.3 4-3 .6 .3 1.9-.3 3-1.2 1.1-.9 2.9-1.9 4-2 1.1-.2 2.2-.7 2.5-1.2 .3-.4 1.6-.7 3-.6 1.5 .1 2.4-.4 2.3-1.1-.2-1 1.6-1.3 6.5-1.3 4.9 .1 7-.3 8-1.5 .8-1 2.3-1.3 4.5-1ZM1536.5 449c0.3 0 .5 .7 .5 1.5 0 .8-.4 1.3-1 1-.5-.3-.8-.9-.5-1.5 .3-.5 .7-1 1-1ZM1543 456c0.6 0 1 .5 1 1 0 .6-.2 1-.5 1-.3 0-.7-.4-1-1-.3-.5 0-1 .5-1ZM1571 465.9c-.8 0-1.2 .4-.7 .8l0.7 .8 .8-.8c0.4-.4 0-.8-.8-.8ZM1783.7 498.3l0.8 .7-.8 .8c-.4 .4-.8 0-.8-.8 0-.8 .4-1.2 .8-.7ZM1894 583.9c0.8 0 1.2 .4 .8 .8l-.8 .8-.7-.8c-.5-.4-.1-.8 .7-.8ZM475.5 659.2c9.8-.2 12.2 0 13.3 1.3 .8 1 2.1 1.3 4 .9 1.9-.5 3.6-.1 6 1.5 2.2 1.4 4.2 1.9 6.2 1.6 2.6-.4 2.9-.2 2.5 1.5-.4 1.5 0 2 1.5 2 1.1 0 2 .6 2 1.3 0 .6 .3 .9 .7 .5 .5-.5 1.4 .4 2.1 2 .7 1.5 1.2 4.1 1.2 5.7 0 1.7-1 4.5-2.3 6.2-1.2 1.8-2.5 3.3-2.9 3.3-.5 0-.8 .6-.8 1.3 0 .6-1.2 2.7-2.5 4.5-1.4 1.7-2.5 3.5-2.5 4 0 .4-1.7 3.1-3.8 6-2 2.9-3.9 5.2-4.2 5.2-.3 0-1.6 1.9-2.9 4.2-1.4 2.4-2.7 4.5-3.1 4.8-.3 .3-1.7 2.3-3 4.5-1.4 2.2-3 4.7-3.7 5.5-.7 .8-2.2 2.5-3.3 3.8-1.1 1.2-2 2.5-2 3 .1 .4-.9 1.6-2 2.7-1.2 1.1-3.2 4.3-4.5 7-1.2 2.8-3 5.7-3.9 6.5-.9 .8-1.7 2.1-1.6 2.8 0 .6-.8 1.8-1.8 2.5-1 .6-2.2 1.9-2.7 2.7-.5 .8-1.2 2.9-1.6 4.5-.4 1.7-1 3.9-1.5 5l-.8 2 1.8-1.5c1.5-1.3 1.7-1.3 1.6 .3 0 1-.8 1.7-2 1.7-1.1 0-3.5 1.8-5.5 4.3-2 2.3-5.8 8.5-8.5 13.7-2.7 5.2-6.9 11.6-9.4 14.3-3.1 3.1-5.2 4.5-6.3 4.2-1-.3-2.3 .3-3 1.2-.9 1.2-1.5 1.4-2 .7-.5-.6-2.1-2.7-3.8-4.5-1.6-1.9-5.1-4.4-7.7-5.7-2.7-1.2-4.8-2.5-4.8-2.9 0-.5-1.1-1.4-2.5-2-1.4-.7-2.5-2-2.5-2.8 0-.8-1.1-1.7-2.5-2-1.4-.3-3.3-1.4-4.2-2.6-1.1-1.2-2.9-2-4.5-2-1.6 .1-2.8-.2-2.8-.6-.1-.5 .5-1.3 1.2-1.9 .7-.7 1.5-2.3 1.8-3.8 .4-2-.2-3.2-2.7-5.6-1.8-1.6-3.7-3-4.3-3-.5 0-.7-.8-.4-1.7 .4-1 .8-3.5 1-5.5 .2-2.1 .1-3.8-.3-3.8-.5 0-1.4-1.9-2.2-4.2-.9-3-1.1-5.2-.4-7.3 .5-1.6 .6-5 .2-7.5-.5-3.3-.3-4.7 .7-5.2 .8-.5 1.4-1.6 1.4-2.5 0-1 1-5.2 2.1-9.3 1.2-4.1 3.7-10.6 5.5-14.5 1.9-3.8 3.4-7.6 3.4-8.2 0-.7 .3-1.3 .8-1.3 .4 .1 2.3-2 4.2-4.5 1.9-2.6 7-8.1 11.2-12.3 4.3-4.3 7.9-7.6 8-7.5 .2 .2 3.9-1.6 8.3-3.9 4.4-2.2 9-4.6 10.2-5.2 1.3-.6 2.3-1.4 2.3-1.8 0-.5 .8-.6 1.8-.3 .9 .3 3.1 0 4.7-.6 1.7-.6 5.9-1.4 9.5-1.8 3.6-.3 11.9-.7 18.5-.9ZM1817.1 711c0.6 1 .9 1.1 .9 .3 0-1 2.5-1.3 9.3-1.3 5 0 13 .5 17.7 1.1 4.7 .6 9.2 1.1 10.2 1.2 .9 .1 2 .6 2.5 1 .4 .4 2.3 .7 4.1 .7 1.7 0 4 .4 5 .9 .9 .5 3.5 1.7 5.7 2.6 2.2 .9 5.8 2.5 8 3.5 2.2 1 4.7 2.8 5.5 4 .8 1.2 2.4 2.3 3.5 2.5 1.1 .2 2.2 .4 2.5 .4 .3 .1-.2 .5-1 1-1.1 .7-.6 1 2 1.5 2.1 .3 5.1 2 7.5 4.3 2.2 2 4.9 5.5 6 7.8 1.2 2.2 2.6 4.9 3.2 6 .6 1.1 1.5 3.1 2.1 4.5 .6 1.4 1.4 3.6 1.7 5 .5 1.7 .9 2.1 1.3 1.2l0.7-1.3 1.2 1.3c0.6 .7 1.4 2.4 1.7 3.8 .3 1.4 1.3 3.2 2.1 4 .9 .8 1.6 2.5 1.5 3.8 0 1.2 .5 2.2 1 2.2 .6 0 .9 1.5 .8 3.3-.1 1.7 .1 3.8 .5 4.5 .4 .6 .5 6.6 .2 13.2-.3 6.6-1 13-1.6 14.3-.6 1.2-.9 3.1-.6 4.2 .4 1.1-.1 3.4-1 5-.8 1.7-1.2 3.8-.9 4.8 .3 .9 1.3 1.7 2.1 1.7 .8 0 1.5 .5 1.5 1 0 .6 .7 1 1.5 1 1.3 0 1.3 .3-.1 2.3-.8 1.2-2.5 2.7-3.7 3.2-1.2 .6-2.3 2.1-2.4 3.3-.2 1.4-1.1 2.4-2.8 2.7-1.7 .3-2.3 1-2 2 .3 1-.2 1.5-1.5 1.5-1.7 0-1.9 .4-1.3 2.8 .6 2.3 .4 2.6-1 2-1.2-.6-2.7 .2-5.4 3-2.1 2.1-3.8 3.2-4 2.5-.2-.7-1.1-1.3-2-1.3-1 0-3.3 .9-5 2-2.1 1.3-5 2-8 2-2.7 0-6.3 .4-8 1-2.2 .7-3.8 .7-4.8 0-.9-.6-1.2-1.6-.7-2.6 .5-1.1-.2-2.3-2.3-3.9l-3-2.4 2.5-1c2.1-.8 2.2-1 .5-1-1.1 0-2.7-.7-3.5-1.6-1.2-1.3-1.3-2-.2-4 .6-1.4 1-3.2 .7-4-.3-.8-1.3-1.7-2.2-2-1-.3-2.4-1.8-3-3.5-.7-1.6-2.5-3.6-4-4.3-1.6-.7-2.8-1.9-2.7-2.7 .1-.8 .4-3.4 .8-5.7l0.6-4.3-3.7-1.7c-2.1-1-3.8-2.5-3.9-3.3-.1-.8-.2-1.8-.2-2.2-.1-.5-.6-.6-1.2-.3-.5 .3-1 .1-1-.5 0-.5-1.1-1.4-2.5-2-1.4-.5-2.5-1.7-2.5-2.5 0-.8-.6-1.7-1.2-1.9-.7-.2-.9-.7-.5-1.2 .5-.5 1.1-.4 1.5 .2 .4 .6 2.2 1 4 .8 1.7-.2 3.2-.7 3.2-1.1 0-.5-1.1-3.4-2.5-6.5-2.2-5.2-2.8-5.7-5-5.3-1.6 .3-2.5 .1-2.5-.7 0-.7 .4-2 .9-2.8 .7-1 0-3.2-2-7-1.7-3-3.4-5.9-4-6.5-.5-.5-.9-1.8-.9-2.7 0-1-.6-2.5-1.2-3.4-.7-.8-2.1-2.4-3-3.5-1-1-2.2-1.9-2.8-1.9-.5 0-1 .7-1 1.5 0 .8-.4 1.5-1 1.5-.5 0-2.1-1.2-3.5-2.7-1.4-1.6-2.5-3.5-2.5-4.3 .1-.8-.6-2.2-1.5-3-.9-.8-1.6-2.1-1.5-2.7 0-.7 .5-1.3 1-1.3 .6 0 .3-.7-.5-1.5-.8-.8-1.3-2.4-1-3.5 .3-1.3 0-2-1-2-.8 0-1.5-.4-1.5-1 0-.5-1.2-1.2-2.7-1.5-1.6-.2-3.5-1.5-4.4-2.7-.9-1.3-2.1-4.3-2.7-6.8-.6-2.5-.8-4.8-.4-5.2 .4-.4 1.3-.8 2.1-1 .8-.2 2.3-1.1 3.3-2 1-1 1.8-2 1.8-2.3 0-.3 .7-1.2 1.5-2 .8-.8 2.2-1.5 3-1.5 .8 0 1.8-.6 2.1-1.2 .5-1 .9-.9 1.5 .2ZM385 721c0.6 0 1 .5 1 1 0 .6-.7 1-1.5 1-.8 0-1.3-.4-1-1 .3-.5 1-1 1.5-1ZM1809.5 741c0.3 0 .7 .5 1 1l0.5 1-.5 0c-.3 0-.7-.4-1-1l-.5-1 .5 0ZM1826.7 764.3l0.8 .7-.8 .8c-.4 .4-.8 0-.8-.8 0-.8 .4-1.2 .8-.7ZM1832.8 770.9c0.9 .5 2.6 2.4 3.6 4.2 1.2 2.1 1.6 4.2 1.2 5.4-.5 1.4-.9 1.6-1.4 .7-.4-.7-1.3-1.2-2-1-.7 .2-2-.8-2.9-2.2-1-1.6-1.3-3.5-.9-5.2 .5-2.3 .9-2.6 2.4-1.9ZM1837.7 785.3l0.8 .7-.8 .8c-.4 .4-.8 0-.8-.8 0-.8 .4-1.2 .8-.7ZM1918.5 828c-.3 0-1.2 .7-2 1.5-.8 .8-1.5 2.3-1.5 3.3 .1 1.4 .4 1.2 2.1-.8 1.1-1.4 2-2.8 1.9-3.2 0-.5-.2-.8-.5-.8ZM214.7 912.3l0.8 .7-.8 .8c-.4 .4-.8 0-.8-.8 0-.8 .4-1.2 .8-.7ZM1998.8 923.5c0.1 .3-.4 1.9-1 3.5-.7 1.7-1.9 3-2.5 3-.7 0-1.3-.6-1.3-1.2 0-.7 1-2.3 2.3-3.5 1.2-1.3 2.3-2.1 2.5-1.8ZM1994 957.9c0.8 0 1.2 .4 .8 .8l-.8 .8-.7-.8c-.5-.4-.1-.8 .7-.8ZM1990.5 959.1c1.1-.1 1.8 .1 1.5 .4-.3 .4-1.2 .4-2 .2-1-.4-.9-.6 .5-.6ZM301.5 1028.7c9.5 .2 16.8 .9 18 1.6 1.1 .7 2.5 1.2 3 1.2 .6 0 2.2 .9 3.7 2 1.4 1.1 3 3.1 3.6 4.5 .8 2 .4 4.4-1.9 11.5-1.7 5-3.6 10-4.4 11.3-.8 1.2-1.5 3.2-1.5 4.5 0 1.2-.5 3.8-1.1 5.7-.7 1.9-2.1 5.5-3.3 8-1.1 2.5-2.2 5.2-2.3 6-.1 .8-.9 4.2-1.8 7.5-.9 3.3-2 7.4-2.5 9-.6 1.7-1 3.9-1 5 0 1.1-.9 3.8-2 6-1.1 2.2-2 4.8-2 5.8 0 .9-.4 1.7-1 1.7-.5 0-.8 .5-.5 1 .3 .6 0 2.9-.6 5.3-.6 2.3-1.2 6-1.4 8.2-.1 2.2-1 5.6-2 7.5-1 1.9-2 4.2-2.1 5-.2 .8-.5 2.6-.7 4-.2 1.4-1 4.3-1.7 6.5-.7 2.2-1.5 4.7-1.7 5.5-.3 .8-.5 3.8-.6 6.6-.2 4.3-.7 5.6-3.4 8.3-1.8 1.7-3.6 3.1-4 3.1-.5-.1-1.5 .6-2.3 1.4-.8 .9-3.3 1.7-5.5 1.9-2.2 .2-4.8 .7-5.7 1-1.3 .5-1.9 .1-2.3-1.3-.4-1.4-1.1-1.9-2.5-1.5-1.1 .3-2.2 .1-2.5-.5-.3-.5-1.2-.8-2-.5-.9 .3-1.7-.3-2-1.5-.3-1.3-1.8-2.3-4.5-3-2.2-.5-5.3-2.3-7-4-1.6-1.6-3.1-3-3.2-3-.2 0-2.4-2-5-4.5-2.7-2.5-5.1-4.5-5.5-4.5-.5 0-1.4-1.3-2-3-.7-1.6-1.5-2.8-1.8-2.5-.3 .3-2-1.2-3.7-3.2-1.8-2.1-3.6-3.9-4-4-.5-.2-.8-1-.8-1.8 0-.8-.3-1.5-.7-1.5-.5 0-.7-1.8-.5-4 .1-2.2-.2-4-.8-4-.5 0-1-1.2-1-2.7 0-1.6-.9-4.7-2-7-1.1-2.4-1.9-5.7-1.7-7.4 .1-1.6-.2-3.4-.8-3.9l-1-.9 1-3.9c0.8-3.3 .7-4.2-.7-5.6-1.1-1-1.5-2.3-1.1-3.3 .3-1 1.1-2 1.6-2.3 .4-.3 1.2-2.9 1.5-5.9 .4-2.9 1-5.5 1.5-5.7 .4-.2 .7-1.9 .7-3.6-.1-1.8 .6-4 1.5-4.8 .9-.8 1.6-2.3 1.5-3.2 0-1 1.1-3.5 2.5-5.5 1.4-2.1 2.5-4.2 2.5-4.8 0-.5 .8-1.7 1.7-2.6 1-.8 2.8-2.1 4.1-2.7 1.2-.7 2.2-2.1 2.2-3.2 0-1.1 2.8-4.8 6.5-8.5 3.7-3.7 7.4-6.5 8.5-6.5 1.1 0 2-.4 2-1 0-.5 1.4-1.2 3-1.5 1.7-.3 3-.9 3-1.5 0-.5 .7-1 1.5-1 .8 0 1.5-.4 1.5-1 0-.5 .6-1 1.3-1 .6 0 2.3-.9 3.7-2 1.4-1.1 3-2 3.5-2 .6 .1 1.7-.7 2.5-1.6 1-1 2.4-1.4 4-1 1.4 .3 3.9 .1 5.5-.4 1.7-.4 10.2-.6 19-.3ZM1994 1087.5c1.9 .2 4.3 .7 5.3 1.1 .9 .5 2.1 .6 2.5 .2 .4-.5 1.2-.3 1.7 .2 .6 .5 2.4 1.2 4 1.4 1.7 .2 4.5 1.1 6.3 2 1.7 .9 3.5 1.5 4 1.4 .4-.1 1.7 .1 3 .5 1.2 .4 2 1.2 1.7 1.7-.3 .6 .6 1 2 1 1.4 0 2.5 .5 2.5 1 0 .6 2 1.6 4.4 2.3 2.8 .7 5.1 2.2 6.3 3.9 1 1.5 2.1 2.5 2.6 2.2 .4-.2 3.2 2.2 6.2 5.4 3.1 3.1 5.6 6.5 5.5 7.5 0 .9 .5 1.9 1 2.2 .6 .3 2.1 2.8 3.5 5.5 1.4 2.8 2.5 5.9 2.5 7 0 1.1 .5 2 1 2 .6 0 1.2 1.6 1.5 3.5 .3 1.9 .8 3.5 1.3 3.5 .4 0 1.1 1.9 1.5 4.2 .5 2.4 1.6 5.9 2.4 7.8 1.2 2.6 1.6 6.2 1.6 14-.1 5.8-.4 12.8-.7 15.5-.3 2.8-.8 6.7-1.1 8.8-.3 2.1 0 4.6 .8 5.8 1 1.7 .9 2.2-.5 3.2-1 .7-1.7 2.3-1.7 3.7 0 1.7-.9 3-2.8 4-1.6 .8-3.5 2.4-4.3 3.5-.8 1.1-2.7 3.1-4.2 4.5-1.5 1.4-2.7 3.3-2.8 4.3 0 .9-.3 1.5-.7 1.2-.5-.2-3.3 2.5-6.3 6-3.7 4.4-6.2 6.5-7.7 6.5-1.3 0-2.3 .5-2.3 1 0 .6 .7 1 1.5 1 .9 0 1.3 .6 1 1.5-.3 .9-1.6 1.4-3.2 1.3-1.8-.1-4.5 1.1-7.3 3.1-4 2.9-5 3.2-9 2.6-2.5-.3-4.9-.2-5.5 .3-.6 .5-2.4 .5-4.2 .1-1.9-.5-3.3-1.5-3.3-2.4 0-1.2-.5-1.3-2.2-.6-1.3 .5-3 .6-3.8 .1-1.1-.6-1.2-.9-.2-1.4 .8-.4 .9-1 .3-1.8-.5-.7-.9-3.3-.9-5.8 0-2.5-.5-5.7-1.1-7.2-.6-1.6-1.1-3.9-1.1-5.3 0-1.6-.6-2.5-1.5-2.5-.8 0-1.5-.4-1.5-1 0-.5 .5-1 1-1 .6 0 1-.9 1-2 0-1.1-.6-2.3-1.3-2.7-.7-.5-1.8-2-2.5-3.5-.6-1.6-1.2-3.1-1.2-3.5 0-.5 .5-.1 1 .7 .8 1.2 1 .8 1.2-1.5 .1-1.6 .1-4.1 0-5.5-.1-1.4-.8-3.7-1.4-5.3-.7-1.5-1.7-2.7-2.3-2.7-.5 0-.4-.4 .3-.8 .9-.4 1.2-1.6 .8-2.9-.4-1.5-1.1-2.1-2.1-1.8-.8 .3-1.7 .1-2-.5-.3-.5 .2-1.7 1-2.5 .9-.9 1.3-2.7 1.1-4.2-.2-1.6-.9-2.7-1.5-2.5-.6 .1-1.1-.5-1.1-1.3 0-.8 .3-1.7 .8-1.9 .4-.3 .7-1.5 .6-2.8-.1-1.3-.6-3.3-1.3-4.5-.6-1.4-.7-2.1-.1-1.8 .6 .3 1-.1 1-.7 0-.7-.5-2-1-2.8-.5-.8-1-1-1-.5 0 .6-1.1-.2-2.5-1.7-1.4-1.6-2.5-3.2-2.5-3.8 0-.5 1-1 2.3-1l2.2 0-.8-3.2c-.4-1.8-.7-3.9-.7-4.5 0-.7-.7-1.1-1.5-.8-.8 .3-1.5 .1-1.5-.5 0-.5-.9-1.2-2-1.5-1.1-.3-2-.9-2-1.5 0-.5 1-1.4 2.3-1.9 1.2-.6 1.6-1 1-1-.7-.1-1.3-1-1.3-2.1 0-1.1 .7-2 1.5-2 .8 0 1.7 .8 2.1 1.8 .4 1.5 .6 1.5 1.4 .2 .6-1.1 0-2.3-1.8-4.1-1.5-1.5-3.3-3.4-3.9-4.3-.7-.9-1.3-2.2-1.3-2.8 0-.7-1.2-1.9-2.8-2.6-1.5-.7-3.1-1.2-3.7-1.2-.5 0-1.7-1.6-2.6-3.7l-1.5-3.8 3 .1c1.7 0 3.8 .5 4.6 1 1.2 .7 1.3 .5 .5-1.1-.5-1.1-.9-3.7-.9-5.7-.1-2.6-.6-3.8-1.6-3.9-.8-.1-2-.2-2.6-.3-.6 0-1.8-.9-2.7-1.8-.9-1-1.7-2.2-1.7-2.8 0-.5 .3-1 .8-1 .4 .1 1.2 .8 1.9 1.8 .8 1.2 1.5 1.4 2.3 .7 .8-.7 .5-1.5-1.2-2.7-1.5-1.2-2.1-2.2-1.5-3.3 .5-1.1 1.2-1.3 3-.5 1.2 .5 2.6 .6 3 .2 .4-.4 .7-1.6 .7-2.7-.1-1.1 .5-2.5 1.2-3.2 .8-.7 3.5-1 6.8-.7 3 .2 6.9 0 8.5-.5 1.7-.4 4.6-.7 6.5-.6ZM1975 1108.9c-.8 0-1.2 .4-.7 .8l0.7 .8 .8-.8c0.4-.4 0-.8-.8-.8ZM99.5 1174c0.3 0 .5 .5 .5 1 0 .6-.4 1-1 1-.5 0-.8-.4-.5-1 .3-.5 .7-1 1-1ZM2201 1192c0.6 0 1 .2 1 .5 0 .3-.7 .7-1.5 1-.8 .3-1.3 .1-1-.5 .3-.5 1-1 1.5-1ZM2066.5 1204c0.4 .3 .4 1.2 .2 2-.4 1-.6 .9-.6-.5-.1-1.1 .1-1.8 .4-1.5ZM1992.8 1208c-.3-1.1-.6-1.2-1.1-.2-.4 .6-.5 1.5-.2 2 .3 .4 .8 .5 1.1 .2 .3-.3 .4-1.2 .2-2ZM1993.7 1222.3l0.8 .7-.8 .8c-.4 .4-.8 0-.8-.8 0-.8 .4-1.2 .8-.7ZM2121.5 1364.1c1.1-.1 1.8 .1 1.5 .4-.3 .4-1.2 .4-2 .2-1-.4-.9-.6 .5-.6ZM2156 1377c-.5 0-1 .5-1 1 0 .6 .5 .8 1 .5 .6-.3 1-.7 1-1 0-.3-.4-.5-1-.5ZM243.3 1398.2c0.9-.1 1.7 .3 1.7 .8 0 .6 .7 1 1.5 1 .8 0 1.5 .7 1.5 1.5 0 .8 .9 1.5 2 1.5 1.3 0 2.9 1.5 4.5 4 1.4 2.2 2.3 4.8 2 5.8-.2 .9-.7 8.7-1 17.2-.4 8.5-.8 17.3-.9 19.5-.1 2.2-.6 4.6-.9 5.3-.4 .6-.4 1.2 .1 1.2 .4 0 .6 7.3 .5 16.2-.1 9-.3 16.5-.3 16.8-.1 .3-.2 2.9-.1 5.8 0 2.8-.3 6.3-.9 7.7-.6 1.6-2.1 2.8-4 3.3-1.7 .4-3 .8-3 1 0 .1 .2 .9 .5 1.7 .3 .8 1 1.3 1.5 1 .6-.3 .8 .4 .4 1.8-.3 1.2-.1 3.9 .5 6 .6 2 1.6 3.5 2.1 3.2l1-.5 1.5 .5c1.2 .4 1.3 1 .4 3.3-.6 1.5-.9 2.9-.8 3.2 .1 .3 .8 3.7 1.5 7.5 .7 3.9 1 7.5 .7 8-.3 .6-.6 2.7-.7 4.7-.1 2.5-.8 4.2-2.1 5.1-1.1 .8-2.8 2.2-3.7 3.1-1 .9-3 1.6-4.5 1.6-1.6 0-6.8-.9-11.8-2-4.9-1.1-9.4-2.4-10-2.9-.5-.5-2.9-1.5-5.2-2.2-2.4-.8-4.4-2.1-4.6-2.9-.2-.8-3.6-3.7-7.6-6.5-4-2.7-8.5-5.9-10-7-1.5-1.1-3.6-3.1-4.6-4.5-1-1.4-1.9-3-1.9-3.7-.1-.6-1-2.2-2.1-3.5-1.1-1.4-2.6-3.3-3.3-4.4-.6-1-1.6-2.8-2.1-3.9-.4-1.1-2.1-3.1-3.8-4.5-2-1.7-3.2-3.9-3.7-7-.5-2.5-1-7-1.1-10-.2-3.8-.8-5.8-1.9-6.5-1.1-.7-1.6-2.1-1.4-4.5 .2-2.8 .7-3.5 2.5-3.5l2.1 0-.2-5c-.1-2.7 .2-7.7 .7-11 .5-3.3 1.3-6.4 1.7-7 .4-.5 1.1-2.6 1.5-4.5 .4-1.9 1.6-4.8 2.6-6.5 1-1.6 2.5-4.3 3.3-6 .8-1.6 2.5-3.9 3.6-5 1.1-1.1 2-2.7 2-3.5 0-.8 2-3.6 4.5-6.2 2.5-2.7 5.1-4.8 5.8-4.8 .6 .1 2.3-1.3 3.7-3 1.4-1.7 3.2-3.1 4-3 .8 0 3-1 4.9-2.3 1.9-1.2 4.6-3 6-3.9 1.4-.9 3.5-1.7 4.6-1.7 1.1-.1 3.1-.9 4.5-1.8 1.4-1 5.2-2.3 8.5-2.8 3.3-.6 6.8-1.2 7.8-1.3ZM2183.5 1409c0.8 0 1.5 .5 1.5 1 0 .6-.7 1-1.5 1-.8 0-1.5-.4-1.5-1 0-.5 .7-1 1.5-1ZM2188 1414c0.6 0 1 .2 1 .5 0 .3-.4 .7-1 1-.5 .3-1 .1-1-.5 0-.5 .5-1 1-1ZM2025.8 1462.3c5.3 .1 8.2 .9 12.8 3.2 3.2 1.7 6.6 3.7 7.4 4.5 .8 .8 2.5 2.1 3.8 2.8 1.2 .6 3 1.2 4 1.2 .9 0 3.2 1.2 5 2.5 1.7 1.4 3.7 2.5 4.2 2.5 .6 0 .8 .3 .5 .8-.2 .4 .6 1.7 1.8 2.8 1.2 1.2 5.2 5.1 9 8.8 3.7 3.6 7.2 6.6 7.7 6.6 .6 0 .9 1 .8 2.3-.1 1.2 1.4 5.4 3.2 9.2 1.8 3.9 3.4 8.8 3.5 11 .1 2.2 .6 4.7 1 5.5 .5 .8 1 4 1.1 7 .2 3 .7 6.7 1.3 8.3 .8 1.9 .8 4.4 .1 8.5-.6 3.1-1.6 7.7-2.2 10.2-.6 2.5-2 5.6-3 7-1.1 1.4-2.3 4.2-2.9 6.3-.8 3.2-.6 4.2 1.6 7.2 1.4 1.9 2.2 3.4 1.8 3.4-.5-.1-1.7 0-2.8 .1-1.7 .2-1.7 .3 .5 1l2.5 .8-2.7 .1c-2.2 .1-3 .8-3.8 3.1-.8 2.4-1.6 3-3.7 3-1.6-.1-4 .8-5.5 2-1.6 1.1-2.6 2.5-2.3 3 .3 .6-.5 1.4-1.7 1.9-1.3 .4-2.9 1.6-3.5 2.5-.7 .9-1 2.6-.7 3.9 .4 1.7 .3 1.9-.5 .7-.9-1.3-1.1-1.3-1.1 .3 0 .9-.6 1.6-1.2 1.5-.7 0-2 .1-2.8 .4-.8 .4-4.3 1.2-7.8 2-3.4 .7-6.2 1.8-6.3 2.3 0 .6-.9 2.1-2 3.5l-2 2.5-5.7-1.3c-4.1-1-6-1-6.7-.2-.5 .5-3.4 1-6.2 1l-5.3 0-2-3.5c-1.1-1.9-2.4-3.5-3-3.5-.5 0-1-1.6-1-3.5 0-1.9-.4-3.7-1-4-.5-.3-1-1.6-1-3 0-1.4 .7-3.8 1.5-5.5 .9-1.8 1.7-7.2 2-13.7 .3-6 .7-14.6 1-19.3 .2-4.7 1-10.3 1.6-12.5 .7-2.4 .9-4.8 .4-6-.4-1.1-.7-2.4-.6-3 .1-.5 .4-3.5 .7-6.5 .2-3 .6-9.8 .9-15 .3-5.2 1-12.2 1.6-15.5 .6-3.3 1.3-7.8 1.6-10 .5-3 .2-4.4-1-5.7-1.5-1.5-1.6-3.4-1.2-12.8 .3-6 .7-11.4 1-12 .3-.6 3.5-.9 7.3-.7ZM2016.3 1495.7c0.9 .4 1.5 1 1.2 1.3-.3 .3-1.1-.1-1.8-.8-1-1.1-.9-1.2 .6-.5ZM2011 1529.9c0.8 0 1.2 .4 .8 .8l-.8 .8-.7-.8c-.5-.4-.1-.8 .7-.8ZM2215 1589.9c0.8 0 1.2 .4 .8 .8l-.8 .8-.7-.8c-.5-.4-.1-.8 .7-.8ZM2047.7 1612.3l0.8 .7-.8 .8c-.4 .4-.8 0-.8-.8 0-.8 .4-1.2 .8-.7ZM2189.5 1647c0.8 0 1.5 .5 1.5 1 0 .6-.9 1-2 1-1.1 0-1.8-.4-1.5-1 .3-.5 1.2-1 2-1ZM2125 1715.9c0.8 0 1.2 .4 .8 .8l-.8 .8-.7-.8c-.5-.4-.1-.8 .7-.8ZM2109.5 1751c0.3 0 .7 .5 1 1l0.5 1-.5 0c-.3 0-.7-.4-1-1l-.5-1 .5 0ZM263.2 1768.5l6.6 0 4.1 4.5c2.3 2.5 4.4 5.2 4.8 6 .3 .8 .7 2.2 .9 3 .1 .8 .5 2.9 .7 4.5 .3 1.7 .1 3.5-.4 4-.6 .6-.1 2.8 1 5.5 1.1 2.7 1.6 5.1 1.1 6-.5 1-.1 2 1 3 1.3 1.2 1.6 2.3 1 5-.5 2.8-.3 4 1.4 5.8 1.4 1.5 2.1 3.8 2.2 6.5 .1 2.3 .9 6.9 1.8 10.2 .9 3.3 1.7 7.5 1.9 9.2 .1 1.8 .8 3.3 1.5 3.3 .8 0 1.2 2 1.3 6.3 .1 3.4 .2 6.7 .4 7.2 .1 .6 .5 1.7 .9 2.5 .5 .8 .5 2.3 .2 3.3-.3 .9 .2 2.9 1.3 4.5 1.2 1.5 1.7 3.6 1.4 4.7-.3 1.2 .6 4.1 2.2 7 1.8 3.2 2.5 5.7 2.1 7-.4 1.4 .1 2.5 1.6 3.8 1.8 1.4 2.3 3 2.5 7.5 .2 3.4 1.1 7.2 2.3 9.5 1.1 2 2 4 2 4.5 0 .4-1.6 2.4-3.7 4.6-3.3 3.4-4.2 3.8-7 3.2-2.5-.4-3.5-.2-4 1-.6 1-1.5 1.4-3 1-1.3-.3-3.5 .1-5 .9-1.6 .8-4 1.5-5.5 1.5-1.8 0-2.8-.5-2.8-1.5 0-1.2-1.1-1.4-5.7-1.1-3.4 .2-7.8-.2-10.8-1.1-2.7-.9-5.8-1.9-6.7-2.4-1-.5-2.8-.9-4-.9-1.3 .1-3-.6-3.8-1.5-.8-.9-2.5-1.6-3.7-1.5-1.3 0-2.3-.4-2.3-1 0-.5-1.1-1.4-2.5-2-1.4-.5-5.1-3.4-8.2-6.2-3.1-2.9-6.6-6.2-7.7-7.3-1.2-1.1-3.5-3-5.1-4.1-2.1-1.6-3.1-3.1-3.3-5.5-.2-1.9-1-4.5-2-5.9-.9-1.4-2.2-3.4-2.8-4.5-.6-1.1-2.5-4.7-4.3-8-1.7-3.3-3.1-6.9-3.1-8 0-1.1-.6-3.3-1.5-5-1.2-2.5-1.3-3.2-.2-4 1.1-.8 1.2-2.9 .5-9.7-.6-7.1-.5-9.4 .7-12 .9-1.8 1.5-4.1 1.5-5 0-1 .5-1.8 1-1.8 .6 0 1-1.7 1-3.7 0-2.1 .7-5.8 1.6-8.3 .9-2.5 2.2-5.6 2.8-7 .7-1.4 2.5-3.4 4-4.5 1.5-1.1 2.9-2.9 3.1-4 .2-1.1 .4-2.3 .4-2.7 .1-.5 1.5-1.6 3.1-2.5 1.7-1 3.3-2.8 3.5-4 .3-1.3 1.7-3 3.3-3.8 1.5-.8 4.2-2.1 6-3 1.7-.8 4.1-2.6 5.2-4 1.1-1.4 2.5-2.5 3-2.5 .6 0 1.2-.7 1.5-1.5 .3-.8 1.3-1.5 2.3-1.5 .9 .1 2.4-.6 3.2-1.5 .8-.8 2.6-1.6 4-1.8 1.4-.1 5.5-.2 9.2-.2ZM1983 1826.3c1.9 .2 5.3 1.1 7.5 2 2.2 1 4.2 1.7 4.5 1.7 .3 0 1.9 1.4 3.5 3.1 1.7 1.7 5 4 7.5 5.2 2.5 1.1 4.8 2.6 5.2 3.1 .4 .6 1.3 1.9 2 3 .7 1 1.9 2.4 2.6 3 .8 .6 3 2.8 5 4.8 2.1 2.1 4.4 4.5 5.2 5.5 .8 1 2.5 3.8 3.6 6.3 1.2 2.5 2.9 5.2 3.8 6 1.1 1 1.7 3 1.6 5.5 0 2.2 .6 5.4 1.5 7 .8 1.7 1.5 5 1.5 7.5 0 2.5 .4 5 .9 5.5 .6 .6 1 3 1.1 5.5 0 2.5-.1 6.8-.3 9.5-.3 2.8-.9 7.2-1.3 9.9-.5 2.6-1.2 5-1.6 5.2-.5 .2-.8 2.1-.8 4.2 .1 2.1-.6 4.3-1.5 5.2-.9 .8-1.6 2.1-1.5 2.8 0 .6-.9 1.8-2 2.5-1.1 .6-2 1.7-2 2.2 0 .6-.9 1.9-2.1 3-1.2 1.1-3.1 2.1-4.3 2.2-1.1 .1-2.4 .2-2.8 .2-.5 .1-.8 1.2-.8 2.6 0 1.5 .7 2.8 1.8 3.2 .9 .3 2 1.1 2.4 1.7 .4 .6 .8 1.4 .8 1.9 0 .4-1.7 1.5-3.7 2.5-2.1 .9-4.8 2.6-6.1 3.7-1.3 1.1-3.6 3-5 4.3-1.5 1.2-2.2 2.2-1.7 2.2 .6-.1 .3 .6-.5 1.5-.8 .9-2.2 1.6-3 1.6-.8-.1-2.8 .6-4.5 1.4-1.6 .8-3.2 1.3-3.5 1-.3-.3-1.4 .3-2.5 1.4-1.1 1-2.9 2.1-4 2.3-1.1 .2-1.9 1-1.7 1.6 .1 .7-.5 1.2-1.3 1.2-.8 0-1.5-.4-1.5-1 0-.5-.6-.8-1.2-.7-.7 .2-2.1 .7-3 1-1 .4-2.5 .9-3.3 1.2-.9 .3-1.3 1.3-1 2.5 .4 1.7 .1 1.9-2.2 1.4-1.6-.3-3-.9-3.3-1.3-.3-.5-2.1-1.3-4-2-1.9-.7-5.2-.9-7.2-.6-2.2 .3-3.8 .1-3.8-.5 0-.5-1-.7-2.2-.4-1.5 .3-3.3-.2-5-1.5-1.6-1.2-3.9-2.1-5.3-2.1-1.7 0-3.4-1.2-5.2-3.5-1.6-2-3.2-3.5-3.8-3.5-.5 .1-1.6-.5-2.2-1.2-.7-.7-1.4-2.9-1.5-4.8-.2-1.9-1-4-1.8-4.7-1.2-.9-1-1 1.3-.5 1.6 .4 3 1.6 3.3 2.7 .4 1.3 .8 1.6 1.2 .8 .4-.6 .6-2.8 .5-4.7-.2-2.4-.8-3.6-1.8-3.6-.8 0-1.5-.4-1.5-1 0-.5 .9-1 2-1 1.1 0 2.2-.7 2.5-1.5 .3-.8 .5-2.3 .5-3.2 0-1 1.1-2.9 2.6-4.3 1.4-1.4 3-3.3 3.5-4.2 .5-1 .7-2.5 .4-3.3-.3-.8-.9-1.3-1.5-1-.5 .3-1-.2-1-1 0-.8 .5-1.5 1-1.5 .6 0 .8-1.3 .5-3-.3-1.6-.1-3.6 .4-4.2 .5-.7 1.2-2.9 1.6-4.8 .4-1.9 1-3.7 1.4-4 .3-.3 1.2-2.5 2-5 .7-2.5 1.4-5.7 1.4-7.1 .1-1.5 1-3.5 2-4.5 1.3-1.3 1.7-2.9 1.4-4.9-.3-1.6-.3-3.6-.1-4.2 .2-.7 1.1-1.3 1.9-1.3 .8 0 1.7-1.2 2-2.7 .3-1.6 1-4.6 1.6-6.8 .6-2.2 1-5.3 .9-7 0-1.6-.7-3.7-1.5-4.5-.8-.8-1.5-1.8-1.5-2.2 0-.5 .8-.8 1.8-.8 .9 0 2.3 .5 3 1.2 1 1.1 1.2 .9 1.2-.9 0-1.3 .5-2.3 1-2.3 .6 0 1-.7 1-1.5 0-.8 .5-1.5 1-1.5 .6 0 1.7-1.6 2.5-3.5 .9-2 1.2-4.5 .8-5.7-.3-1.3-.6-3.9-.4-5.8 .1-1.9 .6-4.6 1-6 .5-1.4 1.5-4.4 2.2-6.8 .8-2.3 1.6-4.3 1.9-4.3 .3 0 1.4-.2 2.5-.5 1.1-.2 2.5-.8 3-1.4 .6-.5 2.6-.8 4.5-.7ZM2161.7 1845.3c-.4-.5-.8-.1-.8 .7 0 .8 .4 1.2 .8 .8l0.8-.8-.8-.7ZM2156 1847.9c0.8 0 1.2 .4 .8 .8l-.8 .8-.7-.8c-.5-.4-.1-.8 .7-.8ZM1943.7 1916.3l0.8 .7-.8 .8c-.4 .4-.8 0-.8-.8 0-.8 .4-1.2 .8-.7ZM2022 1959.9c0.8 0 1.2 .4 .8 .8l-.8 .8-.7-.8c-.5-.4-.1-.8 .7-.8ZM1961.5 1971c-.8 0-1.5 .5-1.5 1 0 .6-1.1 1.2-2.5 1.5-1.4 .3-2.5 1-2.5 1.5 0 .6 .8 1 1.8 1 .9 0 2.7-.2 4-.5 1.4-.3 2.2-1.2 2.2-2.5 0-1.1-.7-2-1.5-2ZM139.7 1997.3l0.8 .7-.8 .8c-.4 .4-.8 0-.8-.8 0-.8 .4-1.2 .8-.7ZM1962.5 2117.2c1.7 0 2.6 .2 2 .4-.5 .3-1.9 .3-3 .1-1.3-.3-.9-.5 1-.5ZM1967.3 2120c0.4 0 0 .7-.8 1.5-.8 .8-1.8 1.2-2.2 .9-.5-.3-.1-.9 .7-1.4 .8-.6 1.8-1 2.3-1ZM1951.7 2131.3l0.8 .7-.8 .8c-.4 .4-.8 0-.8-.8 0-.8 .4-1.2 .8-.7ZM235.5 2145c-.3 0-.7 .5-1 1-.3 .6 0 1 .5 1 .6 0 1-.4 1-1 0-.5-.2-1-.5-1ZM390 2150.3c2.2 .1 4 .7 4 1.2 0 .6 .4 .5 .8-.2 .4-.7 1.7-1 3-.8 1.2 .3 2.2 .8 2.2 1.3-.1 .4 1.7 3.4 3.9 6.7 2.2 3.3 4 6.8 4.1 7.8 0 .9 .3 1.6 .8 1.6 .4-.1 1.4-.1 2.2 0 1.2 0 1.3 .7 .8 3.1-.6 2.3-.5 3 .7 3 .8 0 1.5 .5 1.5 1 0 .6 1.4 2.9 3 5.3 1.7 2.3 3 5.2 3 6.5 0 1.4 .7 2.4 2 2.7 1.6 .4 1.9 1.1 1.4 3.3-.5 2.2 .1 3.4 3 6.5 2 2 3.6 4.4 3.6 5.2 0 .8 .9 2.3 1.9 3.3 1.1 .9 2.4 2.9 3 4.5 .8 2.1 .8 2.7-.1 2.7-.8 .1-.7 .5 .4 1.3 .9 .7 2.1 2.4 2.7 4 .6 1.5 .9 3.2 .6 3.7-.3 .6 .4 1.2 1.5 1.5 1.3 .3 2 1.3 2 2.8 0 1.2 .2 1.9 .5 1.5 .3-.5 1.6 .3 3 1.7 1.6 1.6 2.3 3.2 2 4.5-.3 1.1 .1 2.2 .8 2.5 .6 .2 2 2 3 4 .9 1.9 1.5 4.2 1.2 5-.3 .9 .1 1.5 1 1.5 .8 0 1.6 1 1.8 2.3 .1 1.2 .8 2.1 1.5 2 .6-.2 1.2 .4 1.2 1.2 0 .8-.8 1.7-1.7 1.9l-1.8 .5 4.3-.5 4.2-.4 .7 3.8c0.4 2 2 5.1 3.5 6.7 2.3 2.4 2.8 3.9 2.8 7.8 0 2.6 .2 5.4 .5 6.2 .3 .9-.1 1.5-1 1.5-.8 0-1.5 .5-1.5 1 0 .6-.7 1-1.5 1-.8 0-1.7 .7-2 1.5-.3 .8-1.2 1.5-2 1.5-.8 0-3 .6-4.7 1.4-1.8 .7-4.9 1.8-6.8 2.4-1.9 .6-8.6 1.3-14.9 1.4-7 .2-11.6-.1-11.8-.7-.2-.5-1.6-.8-3.1-.6-1.5 .2-3.6-.2-4.7-.8-1.1-.5-4.5-1.5-7.5-2-3.4-.6-7.6-2.3-11-4.5-3-2-6.8-4.8-8.5-6.1-1.6-1.4-3.7-2.5-4.5-2.5-.8 0-3.6-2-6.2-4.5-2.7-2.5-4.8-4.8-4.8-5.2 0-.5-1.2-1.9-2.7-3.3-1.4-1.4-3-3.7-3.4-5.2-.5-1.6-1.6-2.8-2.4-2.8-.9 0-1.5-.9-1.5-2.5 0-1.4-.7-2.7-1.5-3-1-.3-1.5-1.8-1.5-4 0-2-.7-4.2-1.7-5.2-1-.9-1.9-2.8-2-4.2-.1-1.4-.7-5.1-1.2-8.1-.6-3-1-12.1-.8-20.2 .1-10.2 .6-15.1 1.5-16 .7-.7 1.2-2.3 1.2-3.5 0-1.3 1.1-4.8 2.5-7.8 1.4-3 3.4-6.1 4.5-6.7 1.1-.8 2-2.4 2-3.8 0-1.4 .8-3.2 1.7-4 1-.9 2.6-1.9 3.6-2.3 .9-.4 1.6-1.3 1.5-1.9-.1-.7 1.4-3 3.5-5 2.3-2.4 4.6-3.8 6.2-3.8 1.4 0 2.5-.4 2.5-1 0-.5 1.8-.9 4-.7ZM410 2176c-.5 0-.8 .5-.5 1 .3 .6 .7 1 1 1 .3 0 .5-.4 .5-1 0-.5-.4-1-1-1ZM1826.5 2192.5c1.7 .2 5.2 1.6 7.9 3.2 2.7 1.5 5 3.1 5.2 3.6 .2 .4 1.3 .7 2.4 .7 1.1 0 3.8 1.9 6 4.3 2.2 2.3 4.6 4.9 5.5 5.7 .8 .8 1.6 2.4 1.8 3.5 .3 1.1 1.3 3.7 2.3 5.8 1.1 2.1 2.5 4 3.2 4.2 .6 .3 1.2 1.3 1.2 2.3-.1 .9 .6 2.4 1.5 3.2 .9 .8 1.3 2.3 1 3.3-.3 .9-.1 2.3 .4 3 .5 .6 1.1 3.1 1.5 5.5 .3 2.3 .9 4.2 1.4 4.2 .4 0 .8 6.4 1 14.3 .2 12 0 14.6-1.4 16.7-1 1.4-1.9 5-2 8-.2 3.6-1 6.5-2.4 8.3-1.1 1.5-2 3.4-2 4.2 0 .8-.9 2.4-2 3.5-1.1 1.1-2 2.5-2 3 0 .6-.6 1-1.2 1-.7 0-1 .3-.6 .7 .4 .5 0 2-1 3.6-.9 1.5-2.1 2.6-2.7 2.5-.5-.1-2 .4-3.3 1.2-1.2 .8-2.2 2-2.2 2.5 0 .6-1.3 1.6-3 2.3-1.6 .6-2.9 1.8-2.7 2.5 .1 .6 .6 1.8 1 2.5 .5 .8-.2 1.2-2.3 1.2-2.4 0-2.9 .3-2.4 1.8 .4 1.1-.1 1.9-1.5 2.5-1.2 .4-2.5 1.8-3.1 3.2-.7 1.8-2 2.6-4.5 3-1.9 .3-3.3 1-3 1.5 .3 .6-.3 1.2-1.2 1.4-1 .2-2.5 0-3.3-.4-1.1-.6-2-.1-3.2 1.8-1 1.5-1.8 2.1-1.8 1.5 0-1-.7-1.1-2.7-.3-1.6 .6-3.9 .9-5.2 .8-1.7-.2-2.8 .4-3.5 1.8-.9 1.7-1.6 1.9-4.1 1.2-1.6-.5-4.8-1.1-7-1.4-2.2-.2-5.6 .2-7.5 .8-1.9 .7-3.9 1.1-4.5 .9-.5-.2-3.5-.7-6.5-1.2-3-.5-7.4-.9-9.7-.9-2.4 0-5.1-.4-6-.9-1-.5-2.6-1.2-3.5-1.5-1-.3-2.2-1.6-2.7-2.8-.4-1.3-1.6-3-2.5-3.8-.9-.8-1.6-1.9-1.6-2.5 0-.5-.6-1.7-1.5-2.5-1.1-1-1.6-3.2-1.5-7.2 0-5 .5-6.4 3.3-10 1.9-2.4 3.7-5.3 4-6.5 .4-1.4 1.5-2.3 2.7-2.3 1.3 0 2-.7 2-2 0-1.1 1-3.5 2.3-5.2 1.2-1.8 3-3.9 4-4.5 .9-.7 1.7-2 1.7-2.8 0-.8 .7-1.5 1.5-1.5 .8 0 1.5-.8 1.5-1.7 0-1 .8-2.7 1.8-3.8 1-1.1 2.4-3.6 3.2-5.5 .7-1.9 2.1-4.3 2.9-5.3 .9-1.1 3.7-4 6.3-6.5 2.7-2.8 4.4-5.3 4.2-6.2-.3-.8 .7-2.6 2.3-4 1.5-1.4 5-7.1 7.7-12.5 2.8-5.5 5.7-11.5 6.5-13.3 .9-1.7 1.9-3.2 2.4-3.2 .4 0 1.2-1.6 1.7-3.5 .6-2 1.6-3.5 2.5-3.5 .9 0 1.3-.6 1-1.5-.3-.9 .4-1.9 1.5-2.5 1.1-.5 2-1.9 2-3 0-1.1 .9-3.5 2-5.2 1.1-1.8 2-3.9 2-4.5 0-.7 1.2-2.6 2.8-4.2 2-2.1 3.5-2.8 5.7-2.6ZM221.5 2222c-.3 0-.7 .5-1 1-.3 .6 0 1 .5 1 .6 0 1-.4 1-1 0-.5-.2-1-.5-1ZM267.7 2342.3l0.8 .7-.8 .8c-.4 .4-.8 0-.8-.8 0-.8 .4-1.2 .8-.7ZM315 2389.9c0.8 0 1.2 .4 .8 .8l-.8 .8-.7-.8c-.5-.4-.1-.8 .7-.8ZM1939.7 2401.3l0.8 .7-.8 .8c-.4 .4-.8 0-.8-.8 0-.8 .4-1.2 .8-.7ZM480.7 2428.3c-.4-.5-.8-.1-.8 .7 0 .8 .4 1.2 .8 .8l0.8-.8-.8-.7ZM433.5 2429.1c-1.4 0-1.5 .2-.5 .6 .8 .2 1.7 .2 2-.2 .3-.3-.4-.5-1.5-.4ZM1735.7 2460.3l0.8 .7-.8 .8c-.4 .4-.8 0-.8-.8 0-.8 .4-1.2 .8-.7ZM641 2484.8c0.3 .4 2.8 1.8 5.5 3.2 2.8 1.3 6.5 3.9 8.3 5.7 1.7 1.8 2.8 3.3 2.2 3.3-.5 0-1 .3-1 .8 0 .4 1.1 1.3 2.5 2 1.4 .6 3.6 1 5 .7 2-.4 2.7 0 3.5 2 .6 1.4 1.7 2.5 2.5 2.5 .8 0 1.8-.6 2.1-1.2 .4-.8 1.5 .3 3 3 1.3 2.3 3 4.3 3.7 4.3l1.2 .2 3.3-.2c2.7-.1 3.3 .3 4.2 2.9 .6 1.7 1.5 3 2 3 .6 0 3.5 2.5 6.5 5.5 3 3 6.1 5.4 6.8 5.3 .6-.1 2.2 .4 3.5 1.2 1.2 .8 2.2 1.8 2.2 2.3 0 .4-.7 .7-1.5 .7-.8 0-1.3 .5-1 1 .3 .6 1.9 .8 3.5 .5 1.9-.3 3.5 0 4.5 1 .8 .8 2.1 1.3 2.8 1.1 .6-.3 3 1.3 5.2 3.5 2.2 2.2 6 4.7 8.5 5.5 2.5 .9 5.3 2 6.3 2.5 .9 .5 2.4 .9 3.2 .9 .8 0 1.5 .7 1.5 1.5 0 .8 .5 1.3 1 1 .6-.3 .8 .5 .5 2-.3 1.4-.2 2.4 .3 2.4l0.7-.1 1.8 .1c1 .1 1.7 .9 1.7 2.1 0 1.5 .7 2 2.8 2.1l2.7 .1 1.3-.1c0.6 0 2.6 .6 4.2 1.4 1.7 .8 4.1 2.5 5.5 3.8 1.7 1.6 2.4 3.3 2.5 6 0 2-.3 3.7-.7 3.7-.5 0-1.6 1.8-2.5 4-1 2.2-2.1 3.9-2.5 3.9l-.8-.1-1.2 .1c-.7 0-1.1 .6-.8 1.1 .3 .6 .1 1-.5 1-.5 0-1-.3-1-.7 0-.5-1.8 .9-4 3-2.2 2-4 3.9-4 4.2 0 .3-.7 1.2-1.5 2-.8 .8-1.9 1.5-2.5 1.5-.5 0-1 1-1 2.3-.1 1.2-.8 2.7-1.8 3.4-1.1 .7-2.2 .8-2.9 .2-.7-.5-2.2-.7-3.3-.4-1.2 .3-2 1.3-2 2.5 0 1.7-.7 2-4.7 2-2.7 0-10 .1-16.3 .3-6.3 .1-12.6 0-14-.3-1.4-.4-5 .1-8 1.1-4 1.2-5.7 1.4-6.2 .5-.4-.6-.8-.8-.8-.3 0 .4-1.7-.4-3.7-1.8-2.1-1.4-4.4-2.5-5-2.5-.7 0-1.1-.4-.8-1 .3-.5-.1-.9-.7-.8-.7 0-2.5-.4-4-1-1.6-.7-3-1.6-3.3-2.2-.3-.5-1.4-1-2.5-1-1.1 0-2.4-.9-3-2-.6-1.2-2-2-3.5-2-1.4 0-2.5-.4-2.5-1 0-.5-1.8-2.8-4-5-2.2-2.2-4-4.4-4-5 0-.5-2.6-3.5-5.7-6.5-3.3-3.1-6.4-7.2-7.1-9.3-.7-2-2.1-5.9-3-8.7-.9-2.7-2-5.1-2.4-5.2-.5-.2-.8-1.6-.8-3.3 0-1.6-.7-4.7-1.6-6.7-.9-2.1-1.8-7.2-2.1-11.3-.2-4.1-.1-11.9 .4-17.2 .6-7.8 1.2-9.9 2.7-11 1-.7 1.6-1.9 1.3-2.5-.4-.7 .4-2.5 1.8-4 1.4-1.6 2.6-3.8 2.5-5 0-1.6 .5-2.1 1.5-1.8 .8 .3 2.7-.4 4.3-1.4 1.5-1.1 2.9-1.6 3.2-1.3ZM1703.7 2509.3l0.8 .7-.8 .8c-.4 .4-.8 0-.8-.8 0-.8 .4-1.2 .8-.7ZM1559 2511.5c2.5 .2 5.3 .3 6.3 .4 .9 0 1.9 1 2.2 2.1 .3 1.1 1 1.8 1.5 1.5 .6-.3 1 .4 1 1.5 0 1.1 .7 2.2 1.5 2.5 .8 .3 1.5 1.4 1.5 2.5 0 1.1 .5 2 1 2 .6 0 1 .8 1 1.8-.1 .9 .7 2.4 1.6 3.2 1.2 1.1 1.5 2.6 1.1 6-.4 3.1-.1 5.1 .9 6.5 .8 1.1 1.4 4.1 1.4 6.8 0 2.6-.4 4.7-1 4.7-.6 0-1 3.7-1 9.3 0 5.5-.4 9.4-1 9.7-.6 .3-1 1.2-.8 2 .1 .8-.4 3.6-1.2 6.3-.8 2.6-1.8 4.7-2.2 4.7-.5 0-1.1 1-1.4 2.3-.3 1.2-1.8 4-3.3 6.1-1.4 2.2-3.9 5.3-5.6 7-1.6 1.8-3.9 4.4-5 5.9-1.1 1.5-2.3 2.8-2.7 2.7-.5 0-2.1 1.4-3.8 3-1.6 1.7-3 3.8-3 4.8 0 1.2-.7 1.6-2.3 1.4-1.5-.2-2.8 .6-4.2 2.7-1.7 2.5-2.3 2.8-4 1.9-1.6-.8-2.2-.7-2.7 .6-.5 .9-1.7 1.6-2.8 1.6-1.1 0-2 .5-2 1 0 .6-1.3 1-3 1-1.6 0-4.2 .9-5.7 2-1.9 1.4-4.3 2.1-7.5 2-2.7 0-5 .5-5.3 1-.3 .6-4.3 .8-10.2 .5-5.4-.2-11.6-.7-13.8-1.1-2.2-.3-5.7-1.7-7.7-3l-3.8-2.4-5.7 1c-3.2 .5-7 1-8.5 1-2.4 0-2.8-.4-2.8-3 0-2-.6-3.1-1.7-3.5-1-.2-2.1-1.3-2.5-2.5-.5-1.1-1.2-1.8-1.8-1.5-.5 .3-2.1-.7-3.5-2.2-1.3-1.6-2.7-4-3-5.5-.3-1.6-1.3-3.2-2.2-3.7-1-.4-2.5-1.5-3.3-2.2-.8-.8-2.7-2-4.2-2.7-2.5-1-2.8-1.8-3-6.2-.2-4 .2-5.7 1.9-7.8 1.2-1.5 2.2-3.1 2.2-3.7 0-.5 1.2-1.6 2.6-2.2 1.4-.7 2.3-1.7 2-2.3-.3-.5 .3-1.3 1.3-1.7 .9-.4 3.5-.8 5.7-.9 2.2-.1 4.6-.2 5.3-.3 .6 0 1.2-.8 1.2-1.6 0-1 .7-1.3 2-1 1.2 .3 2.2-.1 2.5-1 .3-.8 1.4-1.5 2.5-1.5 1.1 0 2.8-.9 3.8-2 .9-1.1 2.7-2 4-2 1.3 0 2.2-.6 2.2-1.5 0-1 .6-1.3 1.8-.9 1.1 .4 3.7-.7 7.2-3 3-2 6.1-3.4 6.8-3.1 .6 .3 1.9-.1 2.7-.7 .8-.7 2.2-2 3.2-2.8 .9-.8 2.9-1.3 4.3-1.2 1.4 .2 2.2 0 1.8-.5-.4-.4 .7-2.1 2.4-3.8 1.8-1.6 5-4 7.2-5.2 2.3-1.2 4.3-2 4.6-1.8 .3 .3 2.1-1.1 4-3 1.9-2 4.3-3.5 5.3-3.5 .9 0 1.9-.4 2.2-1 .3-.5 1.3-1 2.3-1 .9 0 2.4-1.1 3.2-2.5 .8-1.4 2.1-2.5 2.8-2.5 .6 0 2-1.1 3-2.4 .9-1.3 3.5-2.9 5.7-3.7 2.4-.8 6.2-3.5 9-6.5l5-5.1 4.5 .2ZM1702.7 2514.3l0.8 .7-.8 .8c-.4 .4-.8 0-.8-.8 0-.8 .4-1.2 .8-.7ZM751.5 2560c-.3 0-.7 .5-1 1-.3 .6 0 1 .5 1 .6 0 1-.4 1-1 0-.5-.2-1-.5-1ZM495 2585c-.5 0-1 .5-1 1 0 .6 .5 1 1 1 .6 0 1-.4 1-1 0-.5-.4-1-1-1ZM500 2587c-.5 0-1 .5-1 1 0 .6 .5 1 1 1 .6 0 1-.4 1-1 0-.5-.4-1-1-1ZM1027.8 2650.6c0.9 .3 4.4 .8 7.7 1.1 3.3 .3 6.5 1 7 1.4 .6 .5 3.4 .4 6.5-.2 3-.6 7.3-.9 9.5-.6 2.2 .3 4.5 1.2 5 2 .6 .7 3 1.5 5.5 1.7 2.5 .2 6.3 .3 8.5 .2 2.2 0 7.3-.3 11.3-.6 4.4-.4 7.4-.2 7.7 .4 .3 .6 1.3 1 2.3 1 1.4 0 1.5-.2 .2-1-1-.6-1.1-1-.2-1 .6 0 1.4 .5 1.7 1 .3 .6 1.6 1 3 1 1.4 0 2.5-.4 2.5-1 0-.5 .9-.8 2-.5 1.1 .3 2 1.1 2 1.8 0 .9 .2 .9 .8 0 .4-.7 2.1-1.6 3.7-1.9 1.7-.3 4.2-.7 5.7-.7 1.6-.1 2.8 .1 2.8 .6 0 .4 .6 .9 1.3 1.1 .6 .2 3.9 .1 7.1-.2 3.7-.5 6.3-.3 7 .4 .6 .5 2 1.3 3.1 1.8 1.7 .6 1.8 .8 .5 1.6-1.3 .8-1.2 1 .3 1 1.1 0 1.7-.8 1.7-2.2 0-1.9 .6-2.3 3.8-2.5 2-.2 3.9-.6 4.2-1.1 .3-.5 2.9-.8 5.7-.8 2.9 .1 5.3 .4 5.3 .9 0 .4 1.1 .7 2.5 .7 1.4 0 3.6 .6 5 1.3 1.5 .7 2.7 2.4 3 4.2 .3 1.7 .8 4.7 1.1 6.8 .2 2 .1 3.7-.3 3.7-.5 0-1.1 1.4-1.4 3.2-.4 1.8-1.8 4.7-3.3 6.3-1.8 2.1-2.3 3.3-1.6 4 .6 .6 1 1.3 1 1.8 0 .4-.9 .5-2 .2-1.1-.3-2-.2-2 .3 0 .4 .4 1.2 1 1.7 .7 .7 .4 1.6-1.1 3-1.2 1.1-2.4 2-2.7 2-.4 0-.6 .6-.4 1.3 .1 .6-.7 1.4-1.8 1.7-1.2 .3-2 1.3-2 2.5 0 1.1-.9 2.6-2 3.3-1.1 .6-2 1.5-2 2 0 .4-1.4 2.2-3.2 4-1.7 1.7-4.7 4-6.7 5-2 1-4.2 2.5-4.8 3.3-.7 .8-1.9 1.3-2.5 1.1-.7-.2-2 .5-2.8 1.5-1.2 1.5-2 1.7-4 1-1.9-.7-3.7-.3-8 1.9-3 1.5-7.1 3.2-9 3.8-1.9 .6-8 1.2-13.5 1.3-5.5 .1-12.9-.4-16.5-1-3.6-.7-7.8-1.3-9.5-1.4-1.6-.2-4.9-1.3-7.2-2.6-2.4-1.2-4.6-2-5-1.7-.5 .2-2.1-.9-3.8-2.6-1.6-1.6-3.4-2.9-4-2.9-.5 0-2.1-1-3.5-2.3-1.4-1.2-3.2-2.6-4-3l-1.5-.7 1.5-.6c1.2-.5 1.1-.9-.7-2-1.3-.8-2.3-2.1-2.3-2.9 0-.8-.9-1.5-2-1.5-1.2 0-3.1-1.6-4.7-3.9-1.6-2.2-3.8-4.6-5.1-5.3-1.2-.7-2-1.9-1.7-2.5 .3-.7-1-2.8-2.7-4.5-1.8-1.8-3.3-3.7-3.4-4.3 0-.5-.4-1.7-.7-2.5-.3-.8-.8-3.1-1-5-.3-1.9-.7-4.4-1-5.5-.2-1.1-.9-3-1.6-4.2-.6-1.3-1.1-5-1.1-8.3l0-6 3.3 .6c2 .4 3.5 .2 4-.5 .4-.6 1.5-.8 2.5-.5ZM1316 2672.5c0.6 .3 1 1 1 1.5 0 .6-.4 .8-1 .5-.5-.3-1-.9-1-1.5 0-.5 .5-.8 1-.5ZM1311.7 2676.3c-.4-.5-.8-.1-.8 .7 0 .8 .4 1.2 .8 .8l0.8-.8-.8-.7ZM889.5 2694c-.3 0-.7 .5-1 1-.3 .6 0 1 .5 1 .6 0 1-.4 1-1 0-.5-.2-1-.5-1ZM1343.7 2706.3c-.4-.5-.8-.1-.8 .7 0 .8 .4 1.2 .8 .8l0.8-.8-.8-.7ZM807 2710.9c-.8 0-1.2 .4-.7 .8l0.7 .8 .8-.8c0.4-.4 0-.8-.8-.8ZM896.7 2714.3c-.4-.5-.8-.1-.8 .7 0 .8 .4 1.2 .8 .8l0.8-.8-.8-.7ZM665.5 2737c-.3 0-.5 .5-.5 1 0 .6 .5 1 1 1 .6 0 .8-.4 .5-1-.3-.5-.7-1-1-1ZM669.7 2740.3c-.4-.5-.8-.1-.8 .7 0 .8 .4 1.2 .8 .8l0.8-.8-.8-.7ZM840.7 2740.3c-.4-.5-.8-.1-.8 .7 0 .8 .4 1.2 .8 .8l0.8-.8-.8-.7ZM1118 2860.9c0.8 0 1.2 .4 .8 .8l-.8 .8-.7-.8c-.5-.4-.1-.8 .7-.8ZM1038 2862c-.5 0-.8 .5-.5 1 .3 .6 1 1 1.5 1 .6 0 .8-.4 .5-1-.3-.5-.9-1-1.5-1ZM1115 2863c0.6 0 1 .7 1 1.5 0 .8-.4 1.7-1 2-.5 .3-1.2 .1-1.5-.5l-.5-1 .5-1c0.3-.5 1-1 1.5-1ZM1118 2862.9c0.8 0 1.2 .4 .8 .8l-.8 .8-.7-.8c-.5-.4-.1-.8 .7-.8ZM1119.7 2866.3l0.8 .7-.8 .8c-.4 .4-.8 0-.8-.8 0-.8 .4-1.2 .8-.7Z"/>
</svg>