<svg xmlns="http://www.w3.org/2000/svg" width="1100" height="960">
<path d="M773 119.6c-1.4-.3-3.2-.3-4 0-.8 .3-2.2 .8-3 1.1-.8 .3-2.4 .5-3.5 .4-1.1-.1-3.1 .7-4.5 1.7-1.4 1.1-4 2.2-5.7 2.6-1.8 .3-3.3 1.1-3.3 1.6 0 .6-.7 1-1.5 1-.8 0-2.3 .4-3.2 .9-1 .4-3.4 1.5-5.3 2.4-1.9 .9-4.7 1.9-6.2 2.2-1.6 .3-2.8 1-2.8 1.5 0 .6-1.1 1-2.5 1-1.4 0-2.7 .5-3 1-.3 .6-.9 .8-1.5 .5-.5-.3-1 .1-1 .8 0 .6-2.2 1.9-5 2.7-2.8 .8-5 1.7-5 2 0 .3-1.9 1.4-4.2 2.6-2.4 1.2-5.9 2.7-7.8 3.5-1.9 .7-3.9 1.9-4.5 2.6-.6 .8-4.9 1.8-10 2.4-4.9 .6-11 1.1-13.5 1-2.5-.1-4.9 .3-5.5 .9-.5 .5-4.1 1.1-7.8 1.2-3.8 .2-7.1 .6-7.3 1.1-.2 .4-1.6 .7-3.1 .7-1.6 .1-3.2 .7-3.8 1.5-.5 .8-1.6 1.5-2.4 1.7-.8 .2-2.7 1.5-4.2 3.1-1.6 1.5-4 3.2-5.4 3.7-1.4 .6-2.4 1.5-2.2 2.1 .1 .6-1.5 3-3.6 5.3-2 2.2-3.7 4.9-3.7 5.9 0 .9-.3 1.9-.7 2.1-.5 .2-1.4 2.5-2.2 5.2-.8 2.7-1.5 5.6-1.6 6.4-.1 .8-.5 2.4-.9 3.5-.4 1.1-1.4 3.2-2.2 4.8-.8 1.5-1.4 3.4-1.4 4.2 0 .8-.9 2.1-1.9 2.8-1.1 .7-1.6 1.8-1.3 2.5 .5 .9-.1 1.5-1.5 1.8-1.3 .2-2.3 .7-2.3 1.2 0 .4-3.7 4.6-8.2 9.3-4.6 4.7-8.9 9.4-9.5 10.3-.7 .9-1.2 2.7-1 4.1 .1 1.3 0 2.5-.3 2.5-.3 0-.9-.4-1.5-.9-.7-.7-1 2.1-.9 8.2l0.2 9.2 2.8 4.3c1.6 2.4 3.2 4.3 3.7 4.2 .4 0 .9 1.1 1.2 2.5 .3 1.4 1.2 2.5 2 2.5 .8 0 1.7 .7 2 1.5 .3 .8 1.6 1.5 3 1.5 1.4 0 2.7 .7 3 1.5 .3 .8 1.1 1.5 1.8 1.5 .6 0 2.6 .7 4.2 1.5 1.7 .9 3.6 1.3 4.3 1 .6-.3 1.2 0 1.2 .5 0 .6 1.2 .9 2.8 .8 1.5-.2 3-.7 3.4-1.3 .4-.6 1.5-.4 3 .6 1.7 1.2 3.5 1.5 7 1 2.9-.4 4.9-.2 5.1 .4 .2 .6 1.5 .4 3.2-.5 2.2-1.2 2.9-1.2 3.2-.2 .2 .7 .9 .9 1.8 .5 .9-.5 2.2-.2 3.3 .8 .9 .9 2.5 1.6 3.5 1.5 .9 0 1.7-.4 1.7-.8 0-.5 .5-.8 1-.8 .6 0 .7 1 .3 2.3-.5 1.8-.4 2.1 1 1.5 1.2-.6 2.1-.1 2.9 1.5 .7 1.2 1.1 2.5 1 3-.1 .4 .3 .5 .8 .2 .6-.3 2.1 .9 3.5 2.5 1.4 1.7 3 3 3.5 3 .6 0 .7 .8 .4 1.8l-.5 1.7 .5-.7c0.3-.5 1.3-.1 2.1 .7 1.2 1.2 1.3 2.1 .3 4.8-.6 1.8-.7 3.3-.2 3.5 .5 .2-.2 2.6-1.6 5.5-1.4 2.9-3.5 5.7-4.8 6.2-1.2 .6-2.2 1.3-2.2 1.8 0 .4-.6 .7-1.2 .7-.7 0-2.4 .9-3.8 2-1.4 1.1-3.5 2-4.7 2-1.6 0-2.3 .6-2.3 2 0 1.7-.4 1.9-3 1.3-2.5-.7-3-.5-3 1 0 1.3-.7 1.6-3.2 1.4-2.2-.3-4 .2-5.3 1.4-1.1 1-2.4 1.5-3 1.1-.5-.4-3.5-.8-6.5-.9-3-.1-7.3-.4-9.5-.6-2.2-.3-5.3-.8-7-1.2-1.6-.4-3.4-1.2-4-1.6-.5-.5-4.6-.9-9-1-4.6-.1-9-.8-10.2-1.6-1.3-.7-2.9-1.1-3.5-.9-.7 .2-2.6-.3-4.3-1.2-1.6-.8-3.8-2.3-4.7-3.3-1.1-1.1-2.6-1.7-3.8-1.4-1.1 .3-2 .1-2-.5 0-.5-2.3-2.5-5-4.2-2.8-1.8-5-3.9-5-4.5 0-.7-.3-1.3-.7-1.3-.5 0-1.4-1.7-2.2-3.7-.8-2.1-2.2-4.4-3.2-5-1.1-.7-2.8-3.1-3.9-5.3-1.1-2.2-1.8-4.3-1.6-4.7 .3-.5-.6-2-2-3.5-1.3-1.6-2.6-3.8-2.8-5-.2-1.3-1.1-3.9-1.9-5.8-.9-1.9-1.8-4.4-2.2-5.5-.4-1.1-.8-4.5-1-7.5-.1-3.2-1.1-7-2.4-9.2-1.1-2.1-1.8-4.4-1.4-5 .6-1 .4-1-.7-.3-1.2 .8-1.3 .5-.8-2 .4-1.6 .4-4.9 0-7.2-.4-2.3-.9-4-1.2-3.8-.3 .2-.5-1.7-.5-4.2 0-3.2-.5-4.7-1.7-5.4-1-.5-1.8-2-1.8-3.4 0-1.4-.4-2.7-1-3-.5-.3-1-1.6-1-3 0-1.4-.4-2.5-1-2.5-.5 0-2.5-1.5-4.2-3.3-1.8-1.8-4-4.5-4.8-6-.8-1.5-2.4-3-3.5-3.3-1.1-.3-2.3-.6-2.7-.5-.5 .1-1.2-.8-1.8-1.9-.6-1.1-1.6-1.8-2.5-1.5-.8 .3-1.7 .1-2-.5-.3-.5-.8-.8-1.2-.6-.5 .3-3.7 .6-7.3 .6-5.3 .1-6.9 .5-8.6 2.3-1.1 1.2-3.2 3.1-4.6 4.2-1.3 1.1-3.1 2.1-3.9 2.3-.8 .2-3 1.4-4.9 2.8l-3.5 2.5-8-.5c-4.4-.3-8.8-.5-9.7-.5-1-.1-1.8-.8-1.8-1.6 0-.8-.8-1.7-1.7-2-1-.3-2.1-1.3-2.6-2.3-.4-.9-1.3-2.6-2-3.8-.6-1.1-1.6-1.9-2.2-1.7-.5 .1-2-1.3-3.2-3.2-1.3-1.9-2.3-3.9-2.3-4.5 0-.6-1.6-.8-3.7-.5-2.1 .3-5.4 1.3-7.3 2.3-1.9 .9-3.7 2.2-4 2.7-.2 .6-1.4 2.2-2.7 3.8-1.3 1.5-2.8 2.4-3.5 2l-1.3-.6 .8 .6c0.4 .4-1.4 2.8-3.9 5.5-2.5 2.6-4.8 5.8-5.2 7.1-.4 1.3-1.5 2.8-2.4 3.2-1 .5-1.8 1.6-1.8 2.4 0 .8-.4 1.5-1 1.5-.5 0-1.2 .7-1.5 1.5-.3 .8 0 1.3 .5 1 .6-.3 .9 1.1 .8 3.5-.2 2.2-.8 4.4-1.4 4.8-.6 .4-1 2.5-.9 4.7 .2 2.2-.2 4.3-.9 4.7-.8 .5-.8 1.1 .2 2 .7 .7 1.2 3.4 1.2 6.1 0 2.9 .6 5.3 1.5 6.2 .8 .8 1.8 1.5 2.3 1.5 .4 0 1.2 1.2 1.9 2.7 .6 1.6 2.2 3.1 3.5 3.5 1.3 .4 2.8 1.7 3.3 3 .6 1.3 2 2.4 3.3 2.6 1.2 .1 2.2 .9 2.2 1.7 0 .8 .9 1.5 2 1.5 1.1 0 2.9 .9 4 2 1.1 1.1 2.1 1.8 2.3 1.5 .1-.3 .9 .2 1.7 1 .8 .9 3 1.6 4.8 1.5 1.7 0 4.4 .9 6 2 1.5 1.2 3.7 2.1 5 2 1.2 0 2.4 .7 2.7 1.5 .3 .8 1.1 1.5 1.8 1.5 .6 0 1.9 1 2.7 2.2 .8 1.3 1.3 2.6 1.2 3.1-.1 .4 .5 1.7 1.3 3 .8 1.2 1.5 2.5 1.5 3 0 .4-.9 .7-2 .7-1.1 0-2 .5-2 1 0 .6 .5 1.2 1 1.5 .6 .3 1 1 1 1.5 0 .6-.7 1-1.5 1-.9 0-1.9 1.6-2.6 4.3-.6 2.3-1.5 4.7-1.9 5.2-.4 .6-1 1.9-1.2 3-.1 1.1-1 2.5-1.8 3.1-1.2 1-1.3 1.5-.2 2.8 1 1.3 .9 1.7-.3 2.1-.8 .3-1.5 1.2-1.5 2 0 .8-.4 1.6-1 1.8-.5 .1-1 3.1-.9 6.7 0 3.6 .1 8.6 .2 11.2 .1 2.5 .5 4.4 1 4.2 .4-.2 2.7 1.6 5.2 4.1 2.5 2.5 5.1 4.5 5.8 4.5 .6-.1 1.8 .6 2.5 1.5 .6 .8 1.7 1.3 2.2 1 .6-.3 1.9 0 3 .5l2 1 .5-1c0.3-.5 1-1 1.5-1 .6 0 1.2 .8 1.5 1.8 .3 .9 2.3 2.5 4.5 3.5 2.2 .9 4 2.4 4 3.2 0 .8 .7 1.5 1.5 1.5 .8 0 1.5 .9 1.5 2 0 1.1 .7 2 1.5 2 .8 0 2.1 1.4 2.8 3 .6 1.7 1.8 3 2.5 3 .6 0 1.3 .8 1.4 1.8l0.1 1.7-.1 1.3c-.1 .6 .4 1 1.1 .7 .9-.4 1.3 1.5 1.5 7.2 .2 4.3 .5 8.1 .8 8.6 .2 .4-.5 .7-1.6 .7-1.1 0-2 .7-2 1.5 0 .8-.9 1.5-2 1.5-1.1 0-2.2 .5-2.5 1-.3 .6-1.5 1-2.7 1-1.4 0-2.9 .9-3.8 2.5-.8 1.4-2.2 2.5-3 2.5-.8 0-3 1.5-4.7 3.5-1.8 1.9-3.3 4.1-3.3 4.8 0 .6-.3 .9-.7 .5-.4-.5-1.4-.3-2 .2-.8 .6-1 2-.7 3.3 .4 1.5 0 2.4-1 3-1.1 .5-1.5 1.6-1.1 3.7 .3 1.7 .1 3.7-.5 4.5-.7 1-.6 2.2 .3 3.6l1.2 2.2-1.2 .3c-.7 .2-1.3 1.1-1.3 1.9 0 .8 .3 1.3 .8 1.1 .4-.3 1.3 1.1 2 3 .6 1.9 1.8 3.2 2.5 3.1 .7-.2 1.6 1.1 2.2 3.1 .7 2.4 2.1 4.1 4.5 5.4 1.9 1 4.2 2.5 5 3.3 .8 .8 2.3 1.5 3.3 1.5 .9 0 1.9 .5 2.2 1 .3 .6 1.7 .9 3.3 .8l2.7-.2 3.8 .2c2.6 .1 3.5 .6 3 1.4-.6 .9 0 1.1 2 .7 1.6-.2 3-.1 3.3 .4 .2 .4 1.3 .5 2.4 .2 1.2-.3 2 0 2 .8-.1 .9 .2 .9 1.2 0 .7-.7 1.6-1 2-.5 .4 .4 .5 1.3 .2 2-.2 .6 .1 1.2 .6 1.2 .6 0 1-.4 1-1 0-.5 .7-1 1.5-1 .8 0 1.5 .7 1.5 1.5 0 .9 .6 1.3 1.5 1 .8-.3 3 .9 4.8 2.5 1.7 1.7 4.7 3.5 6.5 4 2.2 .7 3.2 1.6 3.2 3 0 1.1 .5 2 1 2 .6 0 2 1.6 3.3 3.5 1.2 1.9 2.5 3.2 3 2.7 .4-.4 .7 0 .7 .8 0 .8 1.1 2.9 2.5 4.5 1.3 1.7 2.9 5.1 3.5 7.8 .5 2.6 1.5 5.7 2.1 7 .7 1.2 1.3 3.1 1.5 4.2 .2 1.1 .8 2.1 1.4 2.3 .6 .1 .5 .8-.2 1.8-.7 .9-1.2 3.4-1 5.5 .1 2.2 .6 4.7 1.1 5.7 .4 .9 1.1 3.2 1.5 5 .4 2.4 .3 3-.6 2.5-.7-.3-.5 .2 .4 1.3 1 1 1.7 2.8 1.7 3.9 0 1.1 .7 2.7 1.6 3.5 1 .8 1.4 2.3 1.1 3.3-.4 1.1-.1 1.7 .9 1.7 .8 0 1.7 .9 2 2 .3 1.1 1.6 2.6 3 3.3 1.4 .6 2.5 1.5 2.5 2 0 .4 .7 .5 1.5 .2 .8-.3 1.5 .1 1.5 .8 0 .8 .3 .7 1-.3 .8-1.3 1-1.2 1.7 .3 .5 1.1 1.6 1.7 2.8 1.6 1.1-.2 3.1 .4 4.5 1.4 1.4 .9 3.7 1.7 5.3 1.7 1.5 0 2.7 .5 2.7 1 0 .6 1.9 1 4.3 .9 2.3 0 5.7-.9 7.5-2 1.7-1 4.1-1.9 5.2-1.9 1.1 0 1.8-.4 1.5-1-.3-.6 1.5-1.2 4-1.5 2.5-.3 4.7-.9 5-1.5 .3-.5 1.4-1 2.5-1 1.1 0 2-.3 2-.7 0-.5 1.8-1.4 4-2 2.2-.7 6-1.3 8.5-1.3 2.5 0 4.7-.4 5-1 .3-.5 1.5-.8 2.8-.5 1.2 .2 3.6 0 5.2-.4 1.7-.5 2.4-1 1.8-1-.7-.1-1.3-.5-1.3-1.1 0-.5 .7-1 1.5-1 .8 0 1.5 .3 1.5 .8 0 .4 1.5 .5 3.3 .3 1.7-.2 3.7-.7 4.2-1.2 .6-.4 3.5-1.1 6.5-1.5 3-.4 6.9-.7 8.5-.8 1.7-.1 3.6-.4 4.3-.9 .6-.4 4.1-.5 7.7-.2 5.7 .4 6.5 .3 6.5-1.2-.1-1.4 .2-1.5 1.2-.6 .8 .6 4.4 1.1 8.8 1.1 4.1-.1 11.6 .2 16.5 .6 5 .3 9.5 1.1 10 1.6 .6 .6 2.1 1 3.5 1 1.4 0 3.6 .6 5 1.3 1.4 .8 3.9 1.3 5.5 1.2 1.7-.1 4.1 .4 5.5 1 1.4 .7 2.8 2 3.3 2.9 .5 1.1 1.3 1.4 2.8 .9 1.5-.6 2.1-.3 2.5 1.2 .3 1.1 1.9 3 3.7 4.3 1.8 1.2 2.6 2.2 2 2.2-.8 0-1.2 1.1-1.2 2.8 .1 1.5-.4 4.7-1.1 7.2-.7 2.7-2.5 5.8-4.6 7.8-1.9 1.7-3.4 4-3.5 5 0 .9-.2 1.1-.5 .5-.3-1-.9-.9-2.4 .2-1.4 1-1.8 2-1.2 3.2 .6 1.4 .3 1.6-2 1-1.8-.4-2.6-.3-2.3 .3 .3 .6-1.1 1.2-3 1.5-1.9 .3-3.7 1.1-4 1.8-.4 .8-2.8 1.1-8.3 1-4.2-.1-9.7-.4-12.2-.6-2.5-.3-5.6-.8-7-1.3-1.9-.6-2.3-.5-1.7 .4 .4 .7 .3 1.2-.3 1.2-.5 0-1.2-.3-1.4-.7-.2-.5-1.7-.8-3.3-.7-1.5 0-4.7 .9-7 2-2.3 1-4.3 2.5-4.3 3.2 0 .6-1.6 2-3.5 3-1.9 .9-3.5 2.2-3.5 2.7 0 .6-.8 2.7-1.8 4.8-.9 2-2.1 3.7-2.7 3.8-.5 0-2.3 1.8-4 4-1.6 2.2-4.3 5.3-6 6.9-1.6 1.7-3.6 3-4.2 3-.7 0-1.3 .5-1.3 1 0 .6-1.5 1.2-3.2 1.5-1.8 .3-4.1 1.4-5 2.5-1 1.1-1.8 2.5-1.8 3 0 .6-.6 .7-1.2 .3-.8-.5-1-.4-.6 .2 .4 .6-.2 1.8-1.2 2.8-1.1 .9-2.2 1.4-2.5 1-.3-.5-.5 .4-.5 2 0 1.8-.4 2.5-1.2 2.1-.8-.3-2 .9-3 3-1 2-1.8 4.1-1.8 4.6 0 .6-.4 1-1 1-.5 0-1.2 .8-1.5 1.8-.3 .9-1.5 2.8-2.8 4.2-1.3 1.4-3.2 4-4.3 5.8-1 1.8-2.2 3.2-2.6 3.2-.5 0-.8 .5-.8 1 0 .6-.9 2.2-2.1 3.8-1.1 1.5-3.3 4.5-5 6.7-1.6 2.2-3 4.7-3 5.5 .1 .8-1.4 2.2-3.2 3-1.7 .8-3.1 2.1-2.9 2.8 .1 .6-.4 1.2-1 1.2-.7 0-3.4 2.2-6 5-2.7 2.7-4.8 5.2-4.8 5.5 0 .3-.7 1.2-1.5 2-.8 .8-1.9 1.5-2.5 1.5-.5 0-.8 .3-.5 .8 .2 .4-.3 1.5-1.3 2.5-.9 .9-2 1.4-2.5 1-.4-.5-.7-.2-.7 .5 0 .6-.4 1.2-1 1.2-.5 0-2.5 1.4-4.2 3.1-1.8 1.6-5.7 4.1-8.5 5.5-2.9 1.3-5.6 2.9-6 3.5-.5 .6-.1 1.5 .7 2 1.1 .7 .9 .9-1 .9-1.7 0-3.1 1-4.2 3-1 1.7-2.4 2.9-3 2.7-.7-.2-2.2 .5-3.3 1.4-1.1 1-2.3 1.6-2.7 1.4-.5-.3-.8-.2-.8 .3 0 .4-1.8 1.7-4 3-2.2 1.2-4.5 3.2-5.2 4.5-.7 1.2-1.1 2.9-.9 3.7 .2 1.2 0 1.3-1.1 .2-.7-.7-1.6-1.2-2-1.2l-.8 0 .8 1.2c0.5 .8 .1 1-1.5 .5-1.7-.5-2.3-.3-2.3 .8 0 .9-.9 1.5-2.5 1.5-1.8 0-2.6 .6-2.9 2.3-.4 1.7-.7 2-1.8 1-1-1-1.9-.7-4 1.2-1.8 1.6-3.6 2.3-4.8 2-1.2-.3-1.9 0-1.7 .7 .1 .6-.9 1.7-2.3 2.4-1.4 .7-3.5 1.1-4.7 .9-1.3-.3-2.3 0-2.3 .5 0 .6-.4 .8-1 .5-.5-.3-1.7 .2-2.5 1-.8 .8-2.4 1.3-3.5 1-1.1-.3-3 0-4.2 .7-1.3 .6-3.6 1.2-5.3 1.3-1.6 .2-4.3 .5-6 .8-1.6 .3-3.6 0-4.4-.7-.8-.6-3.3-1-5.5-1-2.3 .1-4.2 .7-4.3 1.3-.2 .6-.9 1.1-1.5 1.1-.7 0-2.3-1-3.6-2.3-1.4-1.3-2.6-1.8-3-1.2-.4 .6-1.4 1.1-2.2 1.3-.8 .1-2.2-.4-3-1.3-1.1-1.1-3.3-1.6-7.7-1.5-3.5 0-7.5-.6-9-1.4-1.6-.7-4.5-1.6-6.5-2-2.1-.3-3.8-1-3.8-1.6 0-.5-.8-1-1.7-1-1 0-2.9-1-4.1-2.3-1.3-1.2-3.4-2.3-4.5-2.5-1.2-.1-3-1.3-3.9-2.5-1-1.2-1.5-2.8-1.3-3.4 .3-.7 .1-1.1-.5-.8-.5 .3-1 .2-1-.2 0-.5-2.7-3.6-6-7-3.3-3.5-6-7-6-7.8 0-.8-.8-1.9-1.7-2.4-1-.5-1.9-2.1-2-3.5-.2-1.4-1.5-3.7-3-5.1-2.2-2-2.5-2.6-1.3-3 1-.4 1.5-1.8 1.4-4.8 0-2.3-.6-5.1-1.2-6.2-.8-1.5-.8-2.3 .1-3.3 .9-1 .8-1.2-.5-1.2-1.3 0-1.8-.8-1.9-2.7-.1-1.6 0-4.1 0-5.8 .1-1.6-.5-4-1.4-5.2-.8-1.3-1.3-3-1-3.8 .3-.8 .2-1.5-.2-1.5-.5 0-.9-2.1-1-4.8-.2-2.6-.9-5.4-1.8-6.2-.8-.8-1.5-1.8-1.5-2.2 0-.5 .6-.5 1.3-.1 .9 .6 .9 .4 .3-.7-.5-.8-1.1-5.5-1.2-10.5-.1-4.9-.5-11-.8-13.5-.3-2.5-.8-7.4-1-11-.3-4-1-6.9-1.9-7.5-.7-.5-1.7-2.2-2-3.7-.4-1.8-.3-2.6 .3-2.3 .6 .3 1-.6 1-2 0-1.4-.4-2.3-1-2-.6 .3-.9-1.8-.6-5.7 .2-3.5 .1-8.2-.3-10.6-.4-2.8-1.1-4.2-2.1-4.2l-1.5 .1 1.5-1.6c0.8-.9 1.1-1.6 .5-1.5-.5 0-1.3-1.3-1.7-3-.5-1.6-1.6-3.2-2.5-3.5-1-.2-2.7-1.9-3.8-3.7-1.1-1.8-3-5.9-4.2-9-1.3-3.2-2.1-6.2-1.8-6.8 .3-.5-.6-1.2-2-1.5-1.6-.3-2.5-1.1-2.4-2.2l0.1-1.8-.1-2.2c0-1.3-1.4-3.8-3.1-5.5-1.6-1.8-2.9-4-3-4.8 0-.8-.9-2.8-2-4.5-1-1.6-1.7-3.3-1.4-3.7 .2-.5 0-.8-.6-.8-.5 0-.8-.3-.5-.7 .2-.5-.4-1.7-1.6-2.8-1.1-1.1-1.9-3.1-1.9-4.5 .1-1.5-.9-3.3-2.5-4.5-1.4-1.1-2.5-2.7-2.5-3.5 0-.8-.3-1.2-.7-.8-.5 .5-1.4 .2-2.1-.5-.7-.6-1.3-1.5-1.2-1.9 0-.5 .6-.5 1.3-.1 .6 .4 .1-.8-1.2-2.7-1.4-1.9-5.1-6.1-8.3-9.2-3.2-3.2-5.8-6.1-5.8-6.5 0-.5-1.7-2.6-3.7-4.8-2-2.2-4-3.9-4.4-3.7-.5 .1-1.3-.8-1.8-2-.5-1.3-2.2-3.7-3.8-5.5-1.5-1.8-3.2-3.2-3.8-3.3-.5 0-1.6-1.3-2.2-3-.8-1.9-1.9-2.9-3-2.7-1 .1-1.8-.5-1.9-1.3 0-.8-.2-2.1-.2-2.7-.1-.7-.8-1.3-1.4-1.3-.7 0-2-1.1-2.8-2.5-.8-1.4-2.1-2.5-2.7-2.5-.7 0-1.7-1.1-2.3-2.5-.5-1.4-1.7-2.5-2.5-2.5-.8 0-1.5-.7-1.5-1.5 0-.8-.6-1.5-1.2-1.5-.7 0-2.3-.9-3.5-2-1.3-1.1-3.1-2-4-2-1.6 .1-1.6-.1-.3-1.5 .8-.9 1.1-1.6 .5-1.5-.5 0-2.6-1.3-4.5-3-1.9-1.7-4.1-3-4.7-3-.7 0-2.1-.8-3-1.8-1-.9-3.8-2.4-6.2-3.2-2.4-.8-5.9-3-7.8-4.7-1.8-1.8-4.1-3.3-5-3.3-1 0-4.1-1.5-6.9-3.2-2.8-1.8-6.2-3.9-7.5-4.7-1.3-.7-7.6-2-13.9-2.8-8.6-1.1-12-2-13.5-3.4-1.1-1.1-2.3-1.6-2.7-1.2-.4 .5-1.9 0-3.3-.9-1.4-1-3.6-1.8-5-1.8-1.4 0-3.6-.6-5-1.2-1.4-.7-2.5-1.9-2.5-2.5 0-.9-1.1-1.2-3.2-.9l-3.3 .3-1.7-.3c-1-.2-1.6-.7-1.4-1.1 .2-.5-1.5-.8-3.9-.8-2.4 0-4.1 .3-3.9 .8 .2 .4-.3 .7-1.1 .7-.8 0-1.8 .8-2.2 1.8-.3 .9-1.1 2-1.7 2.4-.7 .5-.7 .8 .2 .8 .6 0 1.2 .5 1.2 1 0 .6-.7 .8-1.5 .5-1.2-.4-1.4 .1-1.1 2.3 .3 1.5 .8 4.7 1.2 7.2 .4 2.5 .8 4.8 .8 5.1 .1 .3 .9 1.3 1.9 2.2 .9 .9 1.7 2.5 1.7 3.5 0 .9 .9 2.7 2 4 1.1 1.2 2 2.8 2 3.5-.1 .6 .6 1.9 1.5 2.7 .9 .8 1.6 2.1 1.5 2.8 0 .6 1.6 2.8 3.5 4.7 1.9 1.9 4 3.5 4.5 3.5 .6 0 1 .7 1 1.5 0 1 .6 1.3 1.8 .8 1-.3 1.4-.2 .9 .3-.4 .5 0 1.6 .8 2.4 .8 .8 1.8 2.9 2.3 4.5 .5 1.9 1.5 3 2.7 3 1.3 0 2.1 1.3 3.1 5 .7 2.8 1.7 5.1 2.3 5.3 .6 .1 1.1 .8 1.1 1.5-.1 .6 1.1 2.4 2.5 4 1.4 1.5 2.1 2.9 1.5 3.2-.5 .3-1 1-1 1.5 0 .6 .5 .8 1 .5 .6-.3 1.7 .6 2.5 2 .8 1.4 1.5 3.4 1.5 4.5 0 1.1 .7 2 1.5 2 .9 0 1.2 .5 .9 1.3-.4 .7 .7 2.4 2.5 4 1.8 1.5 2.9 3.3 2.6 4.2-.3 .8 0 1.5 .5 1.5 .6 0 1.8 1.2 2.7 2.8 .9 1.5 2 4.3 2.5 6.2 .5 1.9 1.1 4.9 1.2 6.5 .2 1.7-.2 4.1-.8 5.3-.6 1.3-2.6 3.2-4.3 4.3-2.7 1.5-4.6 1.8-9.8 1.4-3.6-.3-8-1.3-9.7-2.2-1.8-1-3.6-2.2-3.9-2.8-.4-.5-1.2-.7-1.8-.2-.6 .4-2.8-.4-4.8-1.8-2.1-1.4-4.7-3.2-5.8-4-1.1-.8-3.1-1.6-4.5-1.7-1.4-.1-3.1-1-3.7-2-.7-1-2-1.6-2.8-1.3-.9 .3-1.5-.1-1.5-1 0-.8-.8-1.7-1.7-2.1-1.6-.4-1.6-.6-.3-1.4 1-.7 1.1-1 .3-1-.7 0-1.5 .5-1.8 1-.3 .6-1.3 1-2.2 1-1.5 0-1.6-.2-.3-.9 1.2-.7 .6-1.5-2.8-3.7-2.4-1.6-4.3-3.2-4.2-3.6 0-.5-.9-.8-2-.8-1.1 0-2.7-.7-3.5-1.5-.8-.8-2.4-1.5-3.5-1.5-1.1 0-2-.4-2-1 0-.5-.3-.8-.7-.5-.5 .2-2.2-.8-3.8-2.3-1.7-1.5-4.4-3.3-6-3.9-1.7-.7-4.1-2.4-5.5-3.8-2-2-2.8-2.2-3.8-1.2-1 1-1.6 .8-2.7-.8-1.1-1.5-1.4-1.6-1.5-.5l0 1.5-.9-1.5c-.8-1.3-1.3-1.2-4 .5-1.7 1.1-3.2 2.2-3.2 2.5-.1 .3-.2 1-.3 1.5-.1 .6-.5 1.7-1 2.5-.5 .8-.8 3.8-.8 6.5 .1 2.8 .5 5.2 1 5.5 .5 .3 .8 1.9 .7 3.5-.1 1.7 .4 4.1 1.2 5.5 .7 1.4 1.3 3.5 1.3 4.8 0 1.2 .5 2.2 1 2.2 .6 0 1 1.1 1 2.5 0 1.4 .5 2.7 1 3 .6 .3 1 1.5 1 2.8 0 1.7 .2 1.9 .9 .7 .7-1.2 1.1-.9 2.3 1.5 .7 1.7 1.3 4.6 1.2 6.5-.2 1.9 .1 2.9 .4 2.2 .5-.9 1.3-.6 3 1 1.8 1.7 2.2 3 1.8 5.1-.4 1.6-.1 3.2 .7 4 .8 .6 1.9 2.2 2.5 3.5 .7 1.2 1.2 3.2 1.2 4.5 0 1.2 .9 2.8 2 3.5 1.6 1 1.9 1.8 1.3 4.2-.6 2.3-.3 3.4 1.3 5.2 1.2 1.3 2.7 4 3.3 6.1 .6 2 1.8 3.9 2.6 4.2 .9 .3 1.2 1 .8 1.7-.5 .9-.4 1 .5 .5 .8-.5 1.1-.1 1 1.1-.2 .9 .3 1.6 1 1.5 .7-.2 1.4 1.1 1.7 3.2 .3 2.1 1 3.4 1.8 3.3 .7-.2 1.1 .6 1 2-.2 1.2 .2 2.2 .7 2.2 .6 0 .8 .7 .5 1.5-.3 1 .1 1.5 1.3 1.5 1 0 1.9 1 2.3 2.7 .4 1.6 1.6 3.1 2.8 3.6 1.5 .5 1.9 1.3 1.6 2.7-.3 1.2 .1 2.2 1 2.5 .8 .3 1.5 1.1 1.5 1.8 0 .6 .9 1.8 2 2.5 1.1 .6 3 3.3 4.2 6 1.1 2.6 2 5 2 5.5-.1 .4 .3 .5 .8 .2 .6-.3 2.1 1.8 3.5 4.5 1.4 2.8 2.2 5.2 1.8 5.5-.5 .3 .2 .8 1.5 1 1.2 .3 2.2 1.2 2.2 2 0 .8 .7 1.7 1.5 2 .8 .3 1.5 1.2 1.5 2 0 .8 .9 2 2 2.5 1.1 .6 2.2 1.9 2.5 3 .3 1.1 1.5 2.2 2.8 2.5 1.3 .3 2.8 1.9 3.7 4 1.1 2.6 2.1 3.5 3.8 3.5 1.2 0 2.3 .3 2.3 .8 .1 .4 .2 1.3 .3 2 0 .7 .8 1.7 1.6 2.1 1.1 .6 1.2 1.3 .5 2.2l-1 1.4 1-.7c0.6-.4 2.2 .3 3.6 1.5 1.5 1.2 2.6 2.7 2.6 3.2 0 .6 .8 1.2 1.9 1.4 1 .2 2.5 1 3.2 1.7 .6 .8 1.2 1.7 1.2 2.2 0 .4 1 .7 2.2 .7 1.5 0 2.7 1 3.5 2.8 .7 1.5 1.8 2.7 2.3 2.7 .6 0 1 .8 1 1.8 0 1.2 .2 1.3 .8 .4 .4-.7 1.5-1 2.5-.7 .9 .3 1.5 1 1.2 1.5-.3 .6 .4 1 1.5 1 1.1 0 1.8 .5 1.5 1l-.5 1 .5 1.5c0.3 .8 1.4 1.5 2.5 1.5 1.1 0 1.9 .5 1.8 1.2-.2 .6 1.5 1.7 3.7 2.3 2.2 .7 4.1 1.7 4.3 2.4 .1 .6 1.1 1.1 2.2 1.1 1.1 0 2 .7 2 1.5 0 .9 .9 1.4 2.3 1.4 1.2-.1 3.4 .4 4.8 1.2 1.4 .8 2.4 2 2.2 2.7-.2 .7 .8 1.2 2.7 1.2 1.7 0 3 .5 3 1 0 .6 1.1 .8 2.5 .5 1.4-.3 2.5 0 2.5 .5 0 .6 .8 1.9 1.8 2.9 1.1 1.4 2.2 1.7 3.2 1.1 .8-.4 2.2-.6 3-.3l1.5 .6-1.5 .7c-1 .6-.4 1 2.3 1.4 2 .3 3.7 1.1 3.7 1.6 0 .6 .5 1 1 1 .6 0 2.5 .6 4.3 1.4 1.7 .7 4.8 2 6.7 2.7 1.9 .8 4.1 1.3 4.8 1.1 .6-.1 2.1 .9 3.2 2.3 1.1 1.4 2.9 2.5 4 2.5 1.1 0 2.2 .7 2.5 1.5 .3 .8 1.6 1.5 3 1.5 2 0 2.3 .4 1.8 1.7-.7 1.4-.4 1.5 1.5 1 1.6-.5 2.8-.1 4.5 1.8 1.2 1.3 2.7 2.5 3.2 2.5 .6 .1 .3-.7-.5-1.6l-1.5-1.8 1.8 .7c0.9 .4 2.2 .7 2.7 .7 .6 0 .8 .7 .5 1.5-.3 .8 .1 1.6 .8 1.6l1.2 .1 1.3-.1c0.6 0 3.4 2.3 6.1 5.2 2.7 2.8 6.1 6.7 7.5 8.5 1.4 1.7 2.6 4.3 2.6 5.7 0 1.6 .6 2.5 1.5 2.5 .8 0 2 1.1 2.5 2.5 .6 1.4 1.5 2.5 2 2.5 .6 0 1.5 1.1 2 2.5 .6 1.4 3.6 5.2 6.8 8.5 3.1 3.3 6.3 6 7 6 .6 0 1.2 .7 1.2 1.5 0 1 .7 1.3 2 1 1.2-.3 2 0 2 .8 0 .6 .9 2 2 3 1.1 .9 2.9 1.7 4 1.7 1.1 0 2.6 .7 3.3 1.5 .6 .9 1.8 2.1 2.5 2.8 .7 .7 1.8 1.8 2.5 2.6 .7 .7 3.2 3.3 5.7 5.8 2.5 2.4 5.2 4.6 6 4.8 .8 .2 2.5 1.8 3.8 3.5 1.2 1.6 3.1 3 4.2 3 1.1 0 2.8 .8 3.8 1.8 .9 1 3.8 2.8 6.5 4 2.6 1.2 5.2 2.2 5.7 2.2 .6 0 1 .6 1 1.3 0 .8 .3 .7 .9-.3l0.9-1.5 3.1 1.5c1.7 .8 3.1 2 3.1 2.5 0 .6 1 1.1 2.2 1.2 1.3 .2 3 1 3.8 1.8 .8 .8 2.7 1.5 4.3 1.5 1.9 0 2.6 .4 2.2 1.5-.3 .9 .1 1.5 1 1.5 .8 0 1.5-.7 1.5-1.5l0-1.5 2.5 1.5c1.4 .8 3.2 1.5 4 1.5 .8 0 1.7 .7 2 1.5 .3 .8 1.5 1.5 2.8 1.5 1.2 0 2.7-.5 3.3-1.2 1-1 1.3-1 1.8 0 .3 .6 1.7 1.2 3.1 1.2 1.6 0 2.5 .6 2.5 1.5 0 1.1 .6 1.3 2.3 .8 1.8-.6 2.1-.4 1.5 1-.7 1.4-.3 1.6 2.5 1.4 1.7-.2 6.7 .5 11 1.5 5.3 1.2 8.2 1.5 9.2 .8 1.1-.7 1.6-.6 2 .5 .3 .8 1.2 1.3 2 1 .8-.3 2.5 .1 3.8 .8 1.2 .6 4 1.3 6.2 1.4 2.2 0 9 .3 15 .6 6.1 .3 11 .6 11 .7 0 .1 .9 .4 2 .7 1.1 .4 5 .7 8.7 .7 3.8 .1 6.8 .4 6.8 .9 0 .4 2 .5 4.5 .2 2.5-.3 5.7-1 7.3-1.5l2.7-1 1.3 1c0.8 .7 1.7 .5 2.7-.5 .8-.8 1.8-1.3 2.3-1 .4 .2 0 1.2-.8 2l-1.5 1.6 1.5 0c0.8-.1 2.5-.8 3.8-1.6 1.2-.8 2.9-1.3 3.7-1 .8 .3 1.5 .1 1.5-.5 0-.5 1.7-.9 3.9-.7 2.1 .1 4.4-.3 5.2-.9 .8-.6 6.4-.9 13.9-.8 6.9 .1 12.7-.2 13-.6 .3-.5 2.3-.9 4.5-1.1 2.2-.2 4.6 0 5.3 .4 .6 .4 1.2 .3 1.2-.3 0-.6 2.9-1 6.8-1 3.7 0 8.5-.5 10.7-1 2.2-.6 4.7-1.7 5.5-2.5 1.1-1.2 2.5-1.4 5.5-.9l4 .7-1.5-1.8-1.5-1.8 3.5 .7c2.7 .6 3.9 .3 5.3-1.1 1.6-1.6 2.1-1.6 4-.5 1.4 .9 2.4 1 2.7 .4 .3-.5 2.5-1.5 5-2.2 2.5-.7 6.3-1.4 8.5-1.7 2.2-.3 5.2-.6 6.7-.7 1.4 0 2.6-.3 2.6-.6 0-.3 0-1.1 .1-1.7 0-.7 .8-1.1 1.6-.8 .8 .3 1.5 .1 1.5-.5 0-.5 3-2 6.8-3.1 3.7-1.2 7.6-1.9 8.7-1.6 1.2 .3 2.8-.2 4-1.4 1.1-1.1 2.6-2 3.3-1.9 .6 0 1.2-.7 1.2-1.5 0-.8 .6-1.3 1.3-.9 .6 .3 4.4-1 8.2-2.8 3.9-1.8 7.8-3.1 8.8-3 1.2 .1 1.7-.5 1.7-2 0-1.3 .2-2 .5-1.5 .3 .4 2.4-.4 4.8-1.7 2.3-1.4 5.2-2.3 6.5-2 1.5 .3 2.2-.1 2.2-1.1 0-1 .7-1.3 2-1 1.4 .3 1.8 .1 1.4-.7-.3-.8 1-2.1 3.3-3.2 2.1-1 5.9-3.6 8.6-5.7 2.6-2.2 4.7-4.7 4.7-5.6-.1-1 1.3-2.5 3-3.3 1.7-.8 3.1-2.3 3-3.2 0-1 1-2.2 2.3-2.8 1.2-.5 3.8-2.4 5.7-4.2 1.9-1.8 4.1-4.5 4.8-6 .6-1.6 1.5-2.8 2-2.8 .4 0 1.7-.7 2.9-1.7 1.2-1 2.2-2.4 2.3-3 0-.7 .8-1.7 1.8-2.2 .9-.5 2-2.3 2.5-4 .6-2.5 1.1-3 3-2.8 1.7 .3 2.3-.2 2.5-2 .1-1.3 1.1-4 2.3-6 1.2-2.1 2.9-5.4 3.9-7.3 1-1.9 2.1-4.4 2.5-5.5 .4-1.1 .9-3.8 1.1-6 .2-2.2 .4-5.2 .4-6.7 0-2 .5-2.8 1.8-2.8 1.5 0 1.5 .2 .2 1.1-1.1 .8-1.2 1.2-.2 1.5 .8 .2 .9 1.2 .5 2.7-.5 1.6-.4 2 .5 1.5 .7-.5 1.1-1.6 1.1-2.5-.1-1 0-2 .1-2.3 .1-.3 .3-1.4 .5-2.5 .2-1.1 .7-3.1 1-4.5 .3-1.4 1.3-4 2.3-5.8 .9-1.7 2.3-3.2 3-3.2 .6 0 1.2-.4 1.2-1 0-.5 .5-1 1-1 .6 0 2.4-1.3 4-3 1.7-1.6 3-3.7 3-4.5 0-.8 .6-1.6 1.3-1.6l1.2-.1 1.3 .1c0.6 0 1.1-.2 1.1-.6-.1-.5-.1-1.2 0-1.8 0-.5 1.2-1.6 2.6-2.2 1.4-.7 2.3-1.7 2-2.3-.3-.5 .4-1.8 1.5-2.7 1.2-1.1 2.2-3.6 2.5-6 .3-2.4 1-4.3 1.5-4.3 .6 0 .9-2.8 .8-7-.2-4.4-.8-7.2-1.5-7.5-.7-.3-1.3-1.4-1.3-2.5 0-1.1-.4-2.2-1-2.5-.5-.3-1-1.4-1-2.5 0-1.1-.4-2-1-2-.5 0-.8-.7-.5-1.5 .3-.9-.1-1.5-1-1.5-.8 0-2.4-2-3.5-4.5-1.1-2.5-2.4-4.5-3-4.5-.5 0-.8-.9-.5-2 .3-1.1 0-2.1-.5-2.2-.6-.2-1.2-1.6-1.4-3.3-.2-1.6-1.1-3.6-2-4.2-.9-.8-1.2-1.5-.6-1.8 .6-.3 1-.9 1-1.5 0-.5-.4-.8-1-.5-.5 .3-1.2 .1-1.5-.5-.3-.5 .1-1 .8-1 .9 0 1-1 .5-4l-.8-4 .8 .4c0.4 .2 .6-.7 .5-2-.2-1.3 .2-2.4 .7-2.4 .6 0 .8-.9 .5-2-.3-1.3 .4-2.8 2.3-4.5 1.5-1.4 3-2.6 3.5-2.5 .4 0 .7-.6 .7-1.2-.1-.7 1.1-2.2 2.5-3.3 1.4-1.1 2.5-2.4 2.5-3 0-.5 1.7-1.2 3.7-1.4 2.1-.2 5.4-.2 7.3-.2 1.9 .1 4.5 .3 5.8 .4 1.2 .1 2.2 .7 2.2 1.2 0 .6 1.2 2.7 2.7 4.7 1.6 2.1 3.4 3.7 4.1 3.8 .6 0 1.2 .6 1.2 1.3 0 .6 1.1 1.9 2.5 2.7 1.4 .8 2.7 2.7 3 4.3 .3 1.8 1 2.5 2 2.2 .9-.3 1.5 .1 1.5 1.3 0 .9 1.3 3.3 2.8 5.2 1.5 1.9 3.3 4.2 4 5 .7 .8 2.4 3 3.7 4.8 1.4 1.7 2.5 3.9 2.5 4.7 0 .8 .5 1.5 1 1.5 .6 0 .8 .7 .5 1.5-.3 .9 .2 1.7 1.3 2.1 .9 .3 2.9 3.2 4.5 6.5 1.5 3.2 2.5 6.8 2.2 7.9-.4 1.5 0 2 1.5 2 1.1 0 1.8 .5 1.5 1-.3 .6 .2 2.6 1 4.5 .8 1.9 2.9 4.5 4.5 5.8 1.7 1.2 2.8 2.8 2.5 3.5-.3 .6 0 1.2 .5 1.2 .6 0 1.7 .7 2.5 1.5 .8 .8 1.3 2 1 2.5-.3 .6 .5 1.6 1.8 2.3 1.2 .7 6.3 2.4 11.2 3.7 5 1.3 9.8 3 10.8 3.9 1 .9 1.8 1.3 1.7 .9 0-.5 1.4 .1 3 1.2 1.7 1.1 3.3 2 3.8 2 .4 0 2.3 1.6 4.2 3.5 2.1 2.1 6.1 4.5 10 5.9 3.6 1.3 7.9 2.2 9.5 2 1.7-.2 4.1-.5 5.5-.8 1.4-.2 2.5-.5 2.5-.6 0-.2 1.1-.4 2.5-.5 1.4-.1 4.8-.3 7.5-.4 2.8 0 6.4 0 8 .1 1.7 .1 3.3 .7 3.7 1.3 .4 .6 1.2 .5 2.3-.5 .9-.8 1.6-1 1.5-.5 0 .6 2.5 1 5.6 1 4.4 0 5.8-.4 7-2 .8-1.2 1.9-1.7 2.6-1.3 .7 .4 1.8 .1 2.5-.5 .8-.8 1-2.2 .5-4-.5-1.9-.3-2.7 .6-2.7 .6 0 1.4-.9 1.7-2 .3-1.1 .2-2-.2-2-.5 0-.8-2.7-.8-6.1 0-4.8-.4-6.3-1.7-7-1-.5-1.8-1.6-1.8-2.4 0-.8-.4-1.5-1-1.5-.5 0-2.4-1.2-4-2.7-1.7-1.6-3-3.4-3-4 0-.7-.6-1.3-1.2-1.3-.7 0-3.8-2.7-6.8-6-3-3.3-6.1-6.1-6.7-6-.8 0-1-.5-.5-1.2 .5-.8 .1-1-1.5-.5-1.3 .4-2.3 .3-2.3-.3 0-.5-.7-1-1.5-1-.8 0-2.2-.7-3-1.5-.9-.9-2.5-1.3-4-1-1.4 .3-2.7 .1-3-.5-.3-.5 .3-1 1.3-1 1 0 .3-.8-1.8-1.9-1.9-1.1-5.3-2.8-7.5-3.9-2.2-1.1-5-3.4-6.2-5.1-1.3-1.7-2.3-3.5-2.3-4.1 0-.5-.7-.8-1.5-.5-1 .3-1.5-.2-1.5-1.5 0-1.3-1.2-2.5-3.5-3.5-2-.8-3.3-2-3.1-2.7 .3-.7-.6-2.4-2-3.8-1.3-1.4-2.4-2.8-2.4-3.2 0-.5-1.1-3.3-2.5-6.3-1.4-3.1-2.5-7.5-2.6-10.2-.1-3.2-.4-4.3-1-3.3-.4 .8-1.2 1.1-1.6 .7-.4-.5 0-2.2 1-3.8l1.7-2.9-1.7-.6c-1.2-.3-1.4-.8-.7-1.2 .6-.4 1.1-1.4 1.1-2.2 0-.8 .4-2.4 .9-3.5 .7-1.7 .6-1.9-.9-1.2-1.3 .5-1.6 .3-1.2-1.3 .3-1.1-.1-2.7-.7-3.5-1-1.2-1-1.9-.1-2.8 .8-.9 .9-1.9 .2-3.7-.6-1.4-.8-4.1-.4-6 .3-1.9 .1-5.1-.6-7-.6-1.9-1.8-3.8-2.5-4.2-1.1-.7-1.2-1.1-.1-2.4 .9-1.2 .9-2.3 0-5.2-.7-2-1.5-7.1-1.8-11.2-.4-4.1-.8-9.1-1.1-11-.2-1.9-.6-4.4-.9-5.5-.2-1.1-.9-5-1.4-8.7-.6-3.8-.9-7.9-.6-9.3 .3-1.7 0-2.8-1.1-3.2-.8-.5-1.3-1.4-1-2 .3-.7 .2-1.3-.4-1.3-.5 0-.8-.4-.5-1 .3-.5 .1-1.7-.5-2.5-.5-.8-.7-2.5-.4-3.7 .3-1.3 .1-3.4-.6-4.8-.7-1.5-.8-2.7-.2-3 .5-.3 .9-2.7 1-5.5 0-2.7 .1-6 .1-7.2 .1-1.3 .8-3.3 1.6-4.5 .9-1.4 1.2-3 .8-4.1-.6-1.2-.2-2.1 1-3 1.6-1 1.9-3.1 2.2-14.7 .2-7.4 .7-14.3 1.2-15.3 .5-1.2 .4-2.1-.5-2.5-.7-.4-1.2-2.5-1.2-4.9 0-2.4-.4-4.3-1-4.3-.5 0-1-.8-1-1.7 0-1 .3-2.2 .7-2.6 .4-.5 .8-2.7 .8-5-.1-2.3 .2-4.4 .6-4.7 .4-.3 .9-2 1.3-3.7 .3-2 .2-3.3-.4-3.3-.5 0-1-.4-1-1 0-.5 .7-1 1.5-1 .8 0 1.6-.6 1.6-1.2l0.1-1.3-.1-.7c0-.5 .4-.8 .9-.8 .6 0 1-.7 1-1.5 0-.8 .3-1.3 .8-1 .4 .3 1.6-.7 2.7-2.2 1.1-1.4 2.8-3.4 3.8-4.5 .9-1 1.4-2 1-2.3-.5-.3 .3-.9 1.7-1.3 1.4-.5 3.2-2.3 4-4.1 .8-1.7 1.8-3.2 2.3-3.1 .4 0 .7-.9 .7-2 0-1.1 .9-2.3 2-2.7 1.2-.5 1.8-1.4 1.5-2-.3-.7 .5-2 1.8-2.8 1.6-1.1 2-2 1.5-3.5-.6-1.4-.3-2.2 .7-2.7 1-.5 1.7-2.4 1.8-5.5 .1-2.5 .5-4.4 1-4.2 .4 .2 .8-.4 .8-1.3 .1-1 .2-2.2 .3-2.8 .1-.5 .7-.9 1.4-.7 .8 .1 1-.8 .6-3-.4-1.8-.8-3.5-1-3.8-.2-.3 .1-1.1 .6-1.7 .7-.9 .7-1.7 0-2.5-.6-.8-.8-3.5-.4-6.8 .5-4.4 .3-5.8-1-7-.9-.8-1.7-2.1-1.6-2.7 0-.7-.4-1.3-1-1.3-.5 0-.8-.4-.5-1 .3-.5-.1-2.8-.7-5-.7-2.2-1.6-4-2-4-.5 0-.8-1.6-.8-3.5 0-1.9-.7-4.2-1.5-5-.8-.8-1.9-1.5-2.5-1.5-.5 0-1-.8-1-1.7 0-1-.6-2.9-1.3-4.3-.8-1.4-1.9-2.4-2.5-2.2-.7 .1-1.2-.2-1.2-.8 0-.5-.6-1.6-1.2-2.3-.7-.8-2.4-1.3-3.6-1.3-1.4 .1-2.8-.7-3.4-1.9-.6-1.1-1.9-2.8-2.9-3.7-1.1-1-4.8-3.4-8.4-5.3-3.6-1.9-7.1-3.5-7.7-3.5-.7 .1-2-.6-2.8-1.5-.8-.9-3-1.6-4.7-1.5-2.3 0-3.3-.5-3.3-1.5 0-.8-.3-1.4-.7-1.3-.5 0-1.7-.3-2.8-.8-1.1-.5-3.1-2.1-4.5-3.6-1.4-1.5-3.2-2.7-4-2.8-.8 0-3.1-1-5-2.3-1.9-1.3-4.7-2.7-6.2-3-1.6-.4-2.8-1.1-2.8-1.7 0-.5-.9-1-2-1-1.1 0-3.5-1.5-5.2-3.3-1.8-1.8-4.5-3.8-6-4.5-2.1-.9-2.7-1.7-2.3-3.2 .4-1.5 0-2-1.2-1.9-1 .1-2.2 .1-2.8 0-.5 0-1.7-1.7-2.5-3.6-.8-1.9-1.7-3.5-2-3.5-.3 0-.6-1.5-.6-3.2-.1-1.8-.9-3.9-1.8-4.5-.9-.8-1.4-2.1-1.1-3.3 .3-1.2 0-2-.7-2-.7 0-1.8-1.4-2.5-3.2-.6-1.8-.9-4.2-.6-5.3 .3-1.2-.1-2.3-1.1-2.7-.9-.5-1.6-1.8-1.6-3 0-1.3-.9-4.1-1.9-6.3-1-2.2-2.8-6.1-4-8.7-1.1-2.7-2.2-5.3-2.3-5.9-.2-.6-1.7-2.7-3.5-4.7-1.8-2-3-4-2.8-4.4 .3-.5-.4-1.7-1.5-2.8-1.1-1.1-2-2.3-2-2.7 0-.5-1.5-2-3.5-3.5-1.9-1.6-3.3-3.2-3-3.8 .3-.6-.2-.7-1.2-.2-1.4 .5-1.6 .3-1-1 .5-1.4 .1-1.9-1.5-2.3-1.3-.3-2.9-1.5-3.5-2.8-.7-1.2-3.1-3.2-5.3-4.4-2.2-1.3-4.1-2.6-4.2-3-.2-.5-2.4-1.8-5-3-2.7-1.3-6.6-2.6-8.8-3-2.2-.5-4-1.1-4-1.5 0-.5 .6-.5 1.3-.1 .8 .5 .9 .4 .5-.5-.5-.7-1.7-.9-3-.5-1.7 .5-2.1 .3-1.5-.5 .5-.9-.6-1.1-4-.9-2.7 .1-5.2 .5-5.8 .9-.5 .3-2.3 .5-4 .3-1.6-.2-4.1-.6-5.5-.9ZM966.7 304.3l0.8 .7-.8 .8c-.4 .4-.8 0-.8-.8 0-.8 .4-1.2 .8-.7ZM559.7 313.3c-.4-.5-.8-.1-.8 .7 0 .8 .4 1.2 .8 .8l0.8-.8-.8-.7ZM967.7 342.3c-.4-.5-.8-.1-.8 .7 0 .8 .4 1.2 .8 .8l0.8-.8-.8-.7ZM305 493.9c0.8 0 1.2 .4 .8 .8l-.8 .8-.7-.8c-.5-.4-.1-.8 .7-.8ZM148.7 513.3l0.8 .7-.8 .8c-.4 .4-.8 0-.8-.8 0-.8 .4-1.2 .8-.7ZM826.7 619.3l0.8 .7-.8 .8c-.4 .4-.8 0-.8-.8 0-.8 .4-1.2 .8-.7ZM371.7 620.3c-.4-.5-.8-.1-.8 .7 0 .8 .4 1.2 .8 .8l0.8-.8-.8-.7ZM842.7 687.3c-.4-.5-.8-.1-.8 .7 0 .8 .4 1.2 .8 .8l0.8-.8-.8-.7ZM387 715.9c-.8 0-1.2 .4-.7 .8l0.7 .8 .8-.8c0.4-.4 0-.8-.8-.8ZM315.5 742c0.8 0 1.5 .2 1.5 .5 0 .3-.4 .7-1 1-.5 .3-1.2 .1-1.5-.5-.3-.5 .2-1 1-1ZM704 825c0.6 0 1 .5 1 1 0 .6-.7 1-1.5 1-.8 0-1.3-.4-1-1 .3-.5 1-1 1.5-1ZM435.7 838.3c-.4-.5-.8-.1-.8 .7 0 .8 .4 1.2 .8 .8l0.8-.8-.8-.7ZM563 852.9c0.8 0 1.2 .4 .8 .8l-.8 .8-.7-.8c-.5-.4-.1-.8 .7-.8Z"/>
</svg>