<svg xmlns="http://www.w3.org/2000/svg" width="1837" height="3388">
<path d="M881.8 213.6c-2.9-.5-3.9-.2-4.3 .9-.3 .8-.9 1.3-1.5 1-.5-.3-2.5 .2-4.2 1-1.8 .9-3.9 1.5-4.5 1.5-.7 0-1.5 .9-1.8 2-.3 1.3-1 1.7-1.7 1.3-.9-.6-1-.3-.5 1.2 .5 1.3 .3 2.3-.5 2.7-.7 .4-1.3 2.5-1.3 4.8 0 2.2-.2 4-.5 4-.3 0-.5 2-.5 4.5 0 3-.5 4.9-1.5 5.6-1.3 .8-1.3 1.1 .1 2.2 .9 .6 1.9 2.3 2.2 3.7 .5 2 .2 2.7-1.6 3.5-1.3 .6-2.2 1.9-2.2 3.3 0 1.5-.7 2.4-2.2 2.7-1.3 .3-2.1 1-1.8 1.5 .3 .6-.1 2-.9 3.3-.8 1.2-1.3 3.6-1.1 5.2 .1 2-.5 3.8-2.1 5.5-1.3 1.4-2.4 3.3-2.4 4.3 0 .9 .5 1.9 1 2.2l1 .5-1 1.5c-.7 1.1-.6 1.6 .5 2 .8 .3 1.3 1 1 1.5-.3 .6-1.3 .8-2.2 .4-1.4-.4-1.8 .1-1.9 1.8-.1 1.3-1.2 5.2-2.6 8.8-1.4 3.6-2.8 7.3-3.2 8.3-.3 .9-1.2 1.7-1.8 1.7-.9 0-.8 .3 .2 .9 1.3 .8 1.3 1.2-.3 3.2-.9 1.3-1.7 2.7-1.7 3.2l0 .7 1.2-.7c0.8-.6 1-.2 .5 1.2-.3 1.1-1.9 4.3-3.4 7.1-1.5 2.8-3.2 5.3-3.8 5.5-.5 .2-1 .9-1.1 1.4 0 .6-.4 2.2-.7 3.8-.6 2.1-1.1 2.5-2.4 2-1.3-.5-1.6-.4-1 .5 .4 .6 .1 2-.7 3-.8 .9-1.4 3.3-1.3 5.2 .1 1.9-.8 6.4-2 10-1.2 3.6-2.7 7.9-3.4 9.5-.7 1.7-1.3 3.2-1.4 3.5-.2 .3-.3 1.1-.4 1.8-.1 .7-.7 .9-1.8 .5-1.4-.7-1.6-.4-1.1 1.2 .3 1.1 .2 2.7-.3 3.5l-.9 1.5 0-1.5c0-1-1-.5-3 1.5-1.7 1.7-3 3.5-3 4 0 .6-.8 2.6-1.9 4.5-1.3 2.5-1.7 4.7-1.3 8 .5 3.8 1.4 5.3 5.9 9.8 2.9 2.8 6 5.2 6.8 5.2 .8 0 1.7 .7 2 1.5 .3 .8 1.2 1.5 2 1.5 .8 0 2.3 1.2 3.3 2.6 .9 1.4 2.6 2.8 3.7 3 1.4 .3 2.6 2.2 3.9 6.2 1 3.1 2 6.2 2.2 6.7 .1 .6-.3 1.6-.9 2.3-.9 1-.9 1.5 .3 2.1 1 .6 1.2 1.3 .5 2.2-.5 .8-.8 3.2-.6 5.4 .1 2.2 .7 4.5 1.2 5 .5 .6 .9 1.3 .9 1.8 0 .4-.4 .5-1 .2-.5-.3-1.2 0-1.5 .5-.3 .6-.1 1.6 .5 2.3 .5 .6 1.2 4.6 1.5 8.7 .3 4.1 .6 8.7 .5 10.3 0 1.5 .7 4.1 1.5 5.7 .8 1.7 1.5 3.2 1.5 3.5 0 .3-.8 .2-1.7-.2l-1.8-.7 1.5 1.9c0.8 1 1.6 4.1 1.7 6.9 .1 2.9 .8 5.4 1.5 5.8 1 .6 1 .8 .1 .8-.8 0-1.3 1.2-1.2 2.8 0 1.5 .2 8.4 .5 15.5 .3 9.3 .7 12.6 1.6 12.5 .9-.2 1.2 1 1.1 3.7-.2 2.2-.4 7.4-.5 11.6-.2 4.2-.8 8.2-1.5 9-.7 .8-1.1 3.5-1 6.2 .1 2.6 .4 4.7 .7 4.7 .3 0 1.1-.5 1.8-1.2 1-1.1 1.2-1 1.2 .5 0 .9 .7 1.7 1.5 1.7 1.1 0 1.3 .6 .9 2.3-.4 1.2-.9 2.4-1.3 2.7-.3 .3-.6 3.2-.5 6.5 0 3.3-.4 6.9-.9 8-.5 1.3-.5 2.9 .2 4.5 .8 1.7 .9 4.9 .4 9.8-.4 4.1-.5 7.6 0 7.8 .4 .2 .6 5.8 .5 12.5-.2 7.3 .1 12.3 .7 12.6 .6 .3 .5 .8-.3 1.2-.9 .4-1 1.3-.4 3.1 .6 1.5 .6 3.5 0 5-.6 1.4-.9 5.7-.8 9.5 .1 3.9 .5 7.5 1 8 .6 .6 .3 1.5-.8 2.2l-1.7 1.3 2.5 .6c2 .6 2.2 .8 .8 1.3l-1.7 .6 1.9 5.5c1 3 1.6 5.6 1.2 5.7-.4 .2-.6 3.8-.5 8l0.3 7.8-1.7-1.5-1.6-1.5 1.1 2.3c0.7 1.2 .9 2.3 .5 2.3-.5 .1-1 .1-1.3 .1-.3 0-.4 1.5-.2 3.4 .1 1.9 .7 3.7 1.3 4.2 .6 .4 1.5 0 2-.8 .7-1.3 .9-1.2 .9 .3 0 .9-.4 1.7-1 1.7-.5 0-2.1 1.1-3.5 2.5-1.4 1.4-2.5 2.1-2.5 1.5 0-.5-2.4 1.3-5.2 4-2.9 2.8-5.6 5.1-6 5-.5 0-.6-.4-.3-1 .3-.5 .2-1-.2-1-.5 0-1.7 1.2-2.8 2.6-1.6 2-2.5 2.4-4.5 1.9-1.4-.4-2.7-1.1-3-1.7-.3-.5-1.8 .2-3.5 1.6-1.6 1.5-3.6 2.7-4.2 2.6-.7 0-2.2-.4-3.3-1-1.1-.5-2.9-.8-4-.5-1.1 .3-2 1.2-2 2 0 .9-.6 1.3-1.5 1-.8-.3-1.9-.5-2.5-.5-.5 0-1-.6-1-1.2 .1-.7-.7-2.1-1.7-3-1-1-2.8-1.8-4-1.8-1.3 0-2.5-.4-2.8-1-.3-.5-1.2-.8-2-.5-.8 .3-1.7-.1-2-.7-.2-.7-2.5-2.9-5-4.8-2.5-1.9-4.5-4.2-4.6-5 0-.8-.6-2.4-1.4-3.5-.8-1.1-1.2-2.4-.9-3 .3-.5-.2-2.6-.9-4.5-1-2.5-1.2-4.6-.6-7.2 .5-2.1 .8-5.6 .7-7.8-.2-2.2-.6-4-1-4-.5 0-.8-1.1-.8-2.5 0-1.4-.4-2.3-1-2-.5 .3-1-.5-1-1.7 0-1.3-.9-3.4-2-4.8-1.2-1.7-1.5-2.9-.9-3.7 .6-.9 .2-1.4-1.6-1.8-1.4-.3-2.5-1.2-2.5-2 0-.8-.3-1.5-.7-1.6-.5 0-3.8-.2-7.5-.2-4.9-.2-6.8 .2-6.8 1.1 0 .6-.6 .9-1.2 .6l-1.3-.6-2.2 .6c-1.3 .3-2.1 .9-1.9 1.4 .2 .4-.7 2.1-2.1 3.7-2.2 2.6-2.4 2.7-1.9 .8l0.6-2.3-4.5 1.5-4.5 1.5 0-2.2c0.1-2-.1-2.1-1.5-1l-1.5 1.2-1.5-1.2c-1.4-1.1-1.6-1-1.5 1 0 1.2-.4 2.4-1 2.7-.5 .3-1.1-.7-1.2-2.2-.2-1.6-.6-2.6-1-2.3-.4 .3-1.3-.4-2-1.4-.9-1.3-1.9-1.7-3.3-1.2-1.7 .6-1.8 .8-.5 1.6 1.2 .8 1.1 1-.5 1-1.1 0-2.6-.5-3.2-1.2-1-1-1.6-1-2.5-.1-1 .9-1.7 .7-3-1.3-1-1.3-1.8-3.1-1.8-3.9 0-1.1-.7-1.4-2.5-1-1.8 .4-2.3 .2-1.8-.7 .5-.9 .4-1-.5-.5-.6 .4-2.1 .3-3.2-.3-1.1-.5-2-1.9-2-3 0-1.1-.4-2-1-2-.5 0-1.6-.6-2.2-1.3-.7-.7-1.9-2.3-2.5-3.5-.7-1.2-1.1-3.1-.8-4.2 .3-1.1 .1-2.6-.5-3.2-.5-.7-1-2.6-1.1-4.3-.1-1.6 0-6.1 .2-9.8 .3-4.7 0-7.1-.8-7.8-.8-.5-1-1.7-.6-2.6 .4-1 1.4-2.3 2.2-3 .9-.7 1.2-1.2 .6-1.2-.5 0 1-1.9 3.5-4.1 2.5-2.2 5.1-4.1 5.8-4 .6 0 1.2-.6 1.2-1.2 0-1 .2-1 1.2-.1 1 1 2 .9 4.3-.4 1.7-1 3.7-1.6 4.5-1.5 .8 .2 2.9-.2 4.5-.9 1.7-.6 4.1-1.3 5.5-1.5 1.4-.2 3.1-1.3 3.8-2.4 .6-1.1 1.7-1.8 2.2-1.5 .6 .3 1 .2 1.1-.2 0-.5 .3-2.4 .6-4.3 .3-1.9 .5-4.8 .5-6.5 0-1.6-.3-9.5-.7-17.5-.3-8-.7-15.8-.8-17.5-.1-1.6-.6-3.6-1-4.2-.4-.7-.2-2.2 .3-3.3 .7-1.5 .7-2-.2-2-.8 0-.9-.3-.3-.8 .6-.4 1-2.1 1-3.8 0-2-.4-3-1.2-2.8-.7 .2-1.3-.3-1.3-1.1 0-.8 .3-1.5 .8-1.5 .4 0 .3-2.5-.3-5.5-.8-4.2-1.5-5.6-3-5.9-1.1-.3-3.1-1.4-4.5-2.6-1.4-1.1-3.3-2-4.2-2-1 0-2.7 .5-3.8 1-1.6 .8-2 .7-2-.5 0-.8-.6-1.5-1.2-1.5-.7 0-1.7 .4-2.3 .9-.5 .6-3.2 1-6 1-2.7 0-6.6-.1-8.5-.3-1.9-.1-4.1-.5-4.7-.9-.8-.4-1.7 .1-2.2 1.1-.6 1.2-1 1.4-1.5 .5-.3-.7-1.5-1.3-2.6-1.3-1.1 0-2.2 .6-2.4 1.3-.3 .9-.6 .9-1.3 0-.4-.6-2.7-1.2-5-1.2-2.4-.1-4.3 .4-4.3 .9 0 .6-.9 1-2 1-1.1 0-2 .5-2 1 0 .6-1.8 1-4 1-2.2 0-4 .5-4 1 0 .6-.4 1-1 1-.5 0-2.2 1.1-3.7 2.5-2.5 2.2-2.7 2.8-1.6 4.8 .7 1.2 1.1 3.1 .9 4.2-.3 1.1-.5 2.2-.6 2.5-.1 .3-.2 .8-.1 1.3 0 .4-.6 .9-1.4 1.2-.8 .3-1.5 1.4-1.5 2.5 0 1.1-2.5 4.5-5.5 7.5-3 3-6.1 5.3-6.7 5.1-.7-.3-1.7 0-2.3 .5-.5 .5-7.3 .9-15 .9-10.2 0-14.2-.3-14.7-1.3-.4-.7-1.3-.9-2.2-.4-.9 .4-2.9 0-4.6-.8-1.6-.8-3.9-1.5-5-1.5-1.2 0-2.2-.8-2.5-2-.3-1.1-1.5-2.3-2.6-2.7-1.2-.5-3.1-2.8-4.2-5.3-1.2-2.5-2.3-4.7-2.6-5-.3-.3-1.4-2-2.3-3.7-1-1.8-1.6-4.1-1.3-5 .3-1.2-.4-2.2-2-3-1.4-.7-3.2-1.1-4-.8-.8 .3-1.7 .1-2-.5-.3-.5-1.2-1-2-1-.8 0-1.3 .5-1 1 .3 .6 .1 1-.5 1-.5 0-1-.4-1-1 0-.5-1.7-.9-3.7-.7-2.1 .1-4.1 .7-4.5 1.2-.4 .6-1.3 .4-2.3-.5l-1.7-1.5 .9 1.8c0.7 1.4 .4 1.7-1.4 1.2-1.3-.3-2.3-.9-2.3-1.5 0-.6-3.2-1-7.5-1-4.3 0-7.5 .4-7.5 1 0 .6-1.1 .9-2.5 .8-1.3-.2-2.6 .2-2.8 .7-.2 .6-.9 .5-1.8-.2-.8-.7-1.6-1.1-1.9-.8-.3 .2-2.6 .7-5.2 1-2.9 .3-4.8 .1-4.8-.5 0-.5-.7-1-1.5-1-.8 0-1.5 .5-1.5 1 0 .6-.7 1-1.5 1-.8 0-1.5 .9-1.5 2 0 1.1-1 2.9-2.2 4-1.3 1-1.7 1.9-1 2 .9 0 .8 .8-.4 3.3-.9 1.7-1.4 4-1 5 .4 1 0 1.9-.9 2.2-.8 .3-1.3 1.2-1 2 .3 .8 .1 1.7-.5 2-.6 .3-.5 1.1 .3 2 .6 .9 .8 1.6 .2 1.5-.5 0-1.1 1.9-1.2 4.3-.1 2.3-.6 4.7-1.2 5.2-.6 .6-1.1 2.7-1.1 4.8 0 2-.4 3.9-1 4.2-.5 .3-1 1.6-1 3 0 1.4-.6 2.7-1.2 2.9-1 .3-.9 .7 .2 1.5 1.2 .8 1.3 1.3 .2 2.3-.7 .7-1.2 1.6-1.2 2.1 0 .4 .5 .5 1 .2 .6-.3 1 0 1 .5 0 .6-.4 1-1 1-.6 0-.9 2.9-.8 7.3l0.2 7.2 4.3 4.3c3 2.9 5.6 4.5 8.8 5.2 2.5 .6 8.7 1 13.8 1l9.2 0 3.3 0c1.7 0 3.2 .5 3.2 1 0 .6 1.1 1 2.5 1 1.4 0 3.5 1 4.7 2.3 1.4 1.4 2.3 1.8 2.5 1 .2-.9 .9-.7 2.3 .7 1.1 1.1 2 2.2 2 2.5l0 .5-1.5-.5c-1.1-.4-1 .2 .5 2.5 1.1 1.7 2.3 3 2.8 3 .4 0 1.6 1.5 2.6 3.3 1.1 1.7 2.5 4.1 3.1 5.2 .6 1.1 1.4 3.2 1.8 4.8 .4 1.5 1.5 3.4 2.5 4.3 1.3 1.3 1.4 1.7 .4 2.2-1.1 .5-1.1 1.2-.4 2.7 .6 1.1 .9 4.5 .7 7.5-.1 3-.6 6.3-.9 7.3-.3 .9-.3 1.7 .2 1.7 .4 0 .7 1.8 .7 4 0 2.2-.2 4-.5 4-.3 0-.5 4.6-.5 10.2 .1 5.7 .4 10.8 .7 11.3 .3 .6 .2 4.6-.3 9-.5 4.4-.6 9.1-.4 10.5 .3 1.4 1.2 3.2 2 4 .7 .8 1.3 2.2 1.2 3.2-.1 .9-.6 2-1 2.5-.4 .4-.7 2-.7 3.6 0 1.6 .9 3.5 2.3 4.6l2.2 1.8-1.7 2.7c-1 1.4-1.9 4.7-2 7.4-.1 3.5 .4 5.5 2.1 7.7 1.4 2 1.8 3.2 1 3.5-.8 .3-.6 1.3 .6 3 1.1 1.7 1.5 3.6 1.1 6.3-.5 3.1-.2 3.9 1.7 5.2l2.2 1.5-1.6 2.7c-1.1 1.9-1.5 4.5-1.3 8.1 .3 3.7 0 5.5-1.1 6.5-1.3 1.1-1.3 1.6 .5 4.5 1.1 1.7 1.9 4.4 1.8 6-.2 2.1 .1 2.6 1.5 2.5 .9-.2 1.7 .2 1.7 .7 0 .6-.3 1-.7 1-.5 0-1.4 1.9-2.1 4.2-.9 3-1 5.1-.3 6.8 .5 1.4 .9 4.4 .8 6.8-.1 2.3-.5 4.2-.9 4.2-.5 0-1.4 1.7-2.2 3.8-.8 2-1.3 5.6-1.3 8 .1 2.6 .8 4.6 1.7 5.2 1 .6 1.1 1 .3 1-.9 0-1.3 2.1-1.2 7.3l0.1 7.2-.1 3.8c-.1 2-.5 4.6-1.1 5.7-.6 1.1-2 2-3.2 2l-2.3-.1 1.5 1.6 1.5 1.7-1.5 .9c-.8 .5-2.5 .9-3.7 .9-1.6 0-2.2 .5-2 1.7 .1 1.3-.8 1.9-3.8 2.4-2.2 .4-5.2 .4-6.8 .1-1.6-.4-2.7-.3-2.7 .3-.1 .7-1.5 .7-4.3 0-2.3-.5-4.8-1.7-5.4-2.5-1.1-1.3-1.4-1.3-2.2 0-.9 1.3-1.1 1.3-1.5-.2-.4-1-1-1.8-1.6-1.8-.5 0-2.2 1.2-3.7 2.8-1.9 1.8-2.9 3.9-3 6.5-.2 2-.7 4.6-1.3 5.7-.5 1.1-.7 3.5-.4 5.3 .3 1.7 .5 3.7 .5 4.2-.1 .6-.4 2.8-.8 5-.5 3.3-.4 3.8 .7 3 1.2-.8 1.3-.5 .8 1.5-.4 1.4-.2 3.4 .4 4.5 .6 1.3 .6 2.2 0 2.5-.5 .3-1.2 2.6-1.6 5.3-.4 3.1-.2 5.2 .7 6.2 .6 .8 1.8 2.1 2.5 3 .6 .8 1.2 1.7 1.2 2 0 .3-.7 .2-1.5-.2-1.2-.6-1.4-.3-1 1.5 .3 1.2 1 2.2 1.5 2.2 .6 0 1-.8 1.1-1.7 .1-1 .9 .7 1.9 3.7 1.1 3 1.9 5.1 1.9 4.5l0.1-1 1 1c0.5 .6 1.2 3.1 1.5 5.8 .3 2.7 1.5 6 2.8 7.6 1.2 1.6 2.8 2.8 3.5 2.5 .6-.2 1.2 .1 1.2 .6 0 .6-.4 1-1 1-.5 0-1 2.5-1 5.5 0 3-.4 5.5-1 5.5-.5 0-1 .9-1 2 0 1.1 .3 2.2 .8 2.4 .4 .2 .5 3.6 .2 7.5-.4 6.3-.3 7.1 1.3 7.1 1.1 0 1.5 .5 1.2 1.5-.3 .8 0 1.7 .5 2 .6 .3 .5 1.5-.4 3.3-.9 1.7-1.2 3.5-.7 4.7 .5 1.1 .5 2.9 .1 4-.4 1.1-.6 2.6-.4 3.3 .2 .6 0 1.4-.6 1.7-.6 .3-.5 1.5 .5 3.3 .8 1.6 1.3 5 1.2 8.5-.1 3.3 .1 6.1 .6 6.3 .4 .2 .3 1-.2 1.7-.5 .6-.7 2.7-.5 4.5 .2 1.7 .9 3 1.4 2.7 .6-.3 .8 1.2 .3 4.3-.3 2.6-.6 7.6-.5 11.2 .1 3.6 .2 7.2 .3 8 0 .8 .3 2.2 .7 3 .3 .8 .6 2.4 .7 3.5 .1 1.1 .6 3.4 1.1 5 .7 2.5 .6 2.8-.6 2-1.1-.7-1.3-.7-.7 .3 .4 .6 .3 1.4-.3 1.7-.6 .3-.3 1.6 .8 3.1 1.5 2.3 1.5 2.9 .3 4.7-.8 1.2-1.5 4.7-1.5 7.7-.1 3.5-.9 6.6-2.1 8.5-1.1 1.7-1.8 3.6-1.7 4.3 .1 .6-.6 1.4-1.5 1.6l-1.8 .4 1.8 .1c1.5 .1 1.4 .4-.5 2.6-1.3 1.4-3.1 2.5-4 2.5-1 0-1.8 .6-1.8 1.3 0 .8-1.9 1.2-6.1 1.2-4.4 0-6.6 .5-8 1.8-1 .9-2.6 1.5-3.4 1.2-.8-.3-2.5 .2-3.7 1-1.3 .8-3.2 1.5-4.3 1.5-1.1 .1-4 .2-6.5 .4-2.5 .1-5.1 .6-5.7 .9-.7 .4-1.5 .3-1.8-.3-.3-.5-.2-1 .3-1 .4 0-.4-.8-1.8-2-1.4-1.1-2.9-1.6-3.5-1.2-.5 .4-1.7 .7-2.5 .8-.8 0-3 .5-4.7 1-1.8 .5-3.5 1.7-3.8 2.7-.3 .9-1.1 1.6-1.7 1.5-.7-.1-2.4 .2-3.8 .6-1.4 .5-3.3 1.6-4.3 2.5-1.5 1.3-3 1.5-8 .9-3.4-.5-7.4-.9-8.8-1-1.4-.2-3.3-1-4.3-1.8-1.4-1.2-1.9-1.2-2.4-.2-.4 .7-1.1 1.2-1.7 1.1-.5-.1-1.4-.1-2-.1-.6 .1-.5 .8 .3 1.7 1 1.2 .8 2-.8 4.5-1.1 1.7-2 3.9-2 5 0 1.1 .5 3 1.2 4.3 .6 1.2 1.2 6.5 1.3 11.7 .1 5.8-.3 9.8-.9 10.3-.8 .6-.7 1 .2 1.3 .6 .2 1.2 1.5 1.2 2.9 0 1.4 .5 2.3 1 2 .6-.3 1.8 1.6 2.9 4.3 1 2.6 2.6 5 3.5 5.5 .9 .4 1.6 1.3 1.6 2 0 .6 1.1 1.9 2.5 2.7 1.7 1 2.5 2.3 2.5 4 0 1.4 .8 3.7 2 5.3 1.1 1.5 2 3.5 2 4.5 0 .9 .4 2.2 1 2.7 .5 .6 1.2 4.7 1.5 9.3 .3 4.5 1 9.4 1.6 11 .7 1.5 1.3 6.8 1.5 11.7 .2 5 .4 11.6 .4 14.8 0 3.1 .3 6.3 .7 7 .4 .6 .9 3 1 5.2 0 2.2 .4 6.3 .6 9 .3 2.8 1 5.1 1.6 5.3 .6 .1 1.1 .8 1.1 1.5 0 .6-.8 2-1.8 3.1-.9 1-1.8 3.1-1.9 4.7-.2 1.6 .2 3.1 .7 3.4 .6 .3 .6 1 .1 1.8-.4 .6-1.3 2.7-2 4.5-.7 2.1-.8 3.4-.1 3.7 .6 .3 .9 6 .8 14.8-.2 10.6 0 14.8 1 15.8 .7 .8 1.4 4.3 1.6 7.9 .2 3.6 .7 8.1 1.1 10 .7 3 .6 3.4-.8 2.8-1.5-.7-1.6-.2-1.1 4.5 .3 2.8 .5 5.9 .5 6.7-.1 .8-.2 2.4-.3 3.5-.2 1.1-1 2.5-1.8 3.1-1.3 1-1.3 1.5 .3 3.8 .9 1.4 1.3 2.6 .7 2.6-.5 0-1.1 1.1-1.2 2.5-.2 1.3-.1 2.5 .2 2.5 .3 0 .4 1.4 .3 3-.2 1.7-.7 3-1.3 3-.5 0-1 1.4-1 3 0 1.7-.4 3.2-1 3.5-.6 .3-.9 4-.7 8.9 .1 4.6 .5 8.2 1 8 .4-.2 .5 4.9 .3 11.4-.1 6.4-.4 11.9-.6 12.2-.1 .3-.1 3.2 0 6.5 .2 4.8 0 5.8-1 5-1.1-.8-1.2-.4-.6 2 .4 1.7 .9 6.5 1.1 10.8 .3 4.6 .1 7.9-.5 8.2-.6 .3-.7 1.4-.2 2.6 .5 1.6 .2 2.1-1.5 2.5l-2.3 .4 1.5 3.5 1.5 3.5-1.5 1.5c-.8 .8-1.5 1.8-1.5 2.3 0 .4 .3 1.1 .7 1.5 .5 .5 .8 3.3 .8 6.4 0 3-.3 5.7-.7 5.9-.5 .2-.8 1.5-.8 2.9 0 1.4-.4 3.4-1 4.5l-1 2 1 1.5c0.7 1 .6 2.5-.2 4.8-.6 1.7-1.7 3.9-2.4 4.7-.9 1-1.3 4-1.1 9.2 .1 4.3-.1 7.9-.6 8-.4 .2-.2 1.5 .5 3 .7 1.6 1.6 2.8 2.1 2.8 .4 0-.2 1.5-1.3 3.3-1.1 1.7-2 3.7-2 4.2-.1 .6 .6 .3 1.5-.5 1.4-1.3 1.6-1.3 1.5 .3 0 .9-.4 1.9-1 2.2-.5 .3-.7 1.5-.4 2.8 .4 1.2 1.3 2.5 2 3 1.2 .6 1.2 1.3-.1 4.2-.8 1.9-1.2 3.5-.7 3.5 .4 0 .2 .5-.5 1.2-.7 .8-.9 1.9-.4 2.8 .4 .8 .8 4.2 .9 7.5 .1 3.3-.2 5.4-.6 4.7-.4-.7-1.5-1-2.4-.7-1.2 .3-1.6 1.2-1.3 2.5 .3 1.1-.2 3.2-1.2 4.8-1.1 1.8-1.3 2.8-.5 3 .7 .1 1.2 1.7 1.2 3.5 .1 2.5-.2 3-1.2 2-1-.9-1.3-.5-1.5 2-.1 1.8-.3 4.3-.4 5.7-.2 1.4-.8 2.9-1.3 3.3-.8 .6-.7 1 .2 1.3 .9 .3 .9 1-.3 2.9l-1.5 2.5 1.5 .5c0.8 .3 1.5 1.5 1.5 2.8 0 1.2-.5 2.7-1.1 3.2-.7 .7-.8 1.6-.1 3 .6 1.1 .7 2.9 .2 4-.4 1.1-1 5.5-1.4 9.8-.3 4.2-1 7.9-1.6 8.2-.5 .3-1 2.4-1 4.8 .1 2.3-.5 4.8-1.2 5.6-.7 .8-1.2 2.7-1 4.2 .1 1.6 .9 3.6 1.7 4.4 .8 .8 1.5 2.1 1.5 2.8 0 .6 1.2 2.3 2.7 3.7l2.8 2.6 7-.3c3.9-.2 7.6-.8 8.3-1.3 .6-.6 1.7-.8 2.2-.5l1 .5 1-.5c0.6-.3 .5-1.1-.2-2-1.2-1.4-.6-1.6 4.5-1.5 3.7 0 6.1-.5 7-1.4 .9-1.1 2.2-1.2 5.2-.6 2.2 .5 4.5 .6 5 .3 .6-.3 5.1-.5 10-.4 5 .1 12.4 .8 16.5 1.5 4.5 .8 7.7 .9 8 .3 .3-.5 1.3-.5 2.5 .1 1.1 .6 4.7 .9 8 .7 3.3-.2 9.2-.7 13-1.1 4.6-.5 7.4-1.3 8.2-2.3 .9-1.2 2.9-1.6 8.7-1.6 4.2 0 7.6 .2 7.6 .5 0 .3 3.5 .5 7.7 .6 4.3 .1 12 .3 17 .5 5.1 .2 9.4 .1 9.5-.3 .2-.4 2.8-1 5.8-1.3 3-.3 8.4-.8 12-.9 3.6-.2 6.5-.5 6.5-.6 0-.2 1.4-.4 3-.6 1.7-.2 3.7-.4 4.5-.5 .8 0 4.9 .2 9 .5 4.1 .4 11.2 .8 15.8 1.1 4.5 .3 8.7 .7 9.2 1 .6 .3 3.3 .7 6 1 3 .3 5 .1 5-.5 0-.5 .9-1 2-1 1.1 0 2 .5 2 1 0 .6 1.4 .1 3-1l3-2 1 1.8c0.7 1.3 .9 1.4 1 .2 0-1.2 1.6-1.5 8.3-1.5 4.5 .1 8.9 .5 9.7 .9 1 .6 1.8 .4 2.5-.6 .8-1.1 3.4-1.4 12-1.3 6.1 0 11.7 .5 12.5 .9 .8 .5 4 1.1 7 1.3 3 .3 7.3 .5 9.5 .7 2.2 .1 4.6 .5 5.3 .9 .6 .4 3.3 .3 6-.2 2.6-.5 5.4-.9 6.2-1 .8 0 4.9-.3 9-.6 4.1-.2 10-.7 13-1.1 3-.3 6.3-1 7.3-1.5 .9-.5 2.9-1 4.5-1 1.5-.1 4-.6 5.5-1.3 1.5-.6 2.8-1.4 2.7-1.8 0-.5 .6-.8 1.3-.8 .6-.1 2.2-1.3 3.4-2.8 1.2-1.5 2-3 1.7-3.4-.2-.5 .1-.8 .6-.8 .6 0 1-.7 1-1.5 0-.8-.4-1.5-1-1.5-.6 0-.6-1.7 .1-4.7 .6-2.7 1.7-5.1 2.3-5.5 .8-.5 .8-1 0-2-.7-.7-1-3.1-.8-5.3 .2-2.2-.1-5.5-.6-7.2-.8-2.5-.7-3.4 .3-3.7 .9-.3 .8-.7-.3-1.5l-1.5-1.1 1.5-.9 1.5-.9-1.5-1.6c-.8-.9-1.2-2-.8-2.4 .5-.4 .4-1.1-.2-1.7-.6-.6-.6-2.2 0-4.2 .7-2.2 .7-3.5 0-3.8-.6-.3-.7-.9 0-1.7 .5-.8 .6-3.6 .2-6.6-.4-2.9-.5-5.5-.2-5.8 .3-.3 .5-6.8 .5-14.5 0-7.6-.3-13.9-.7-13.9-.5 0-.7-3.5-.6-7.7 .1-4.3-.1-8.4-.5-9-.4-.7-.3-1.9 .3-2.5 .6-.9 .6-2.3-.1-4.3-.6-1.6-.8-6.4-.6-10.5 .3-4.1 .1-10-.4-13-.5-3.5-.5-5.9 .1-6.5 .6-.5 1-1.9 1-3 0-1.6-.2-1.7-1-.5-.5 .8-1.2 1.3-1.5 1-.3-.3-.2-4.3 .3-9 .6-6 .6-8.7-.2-9.1-.8-.5-.7-.8 .2-1.3 .6-.3 1.2-1.9 1.2-3.6 0-1.6-.3-3.2-.7-3.4-.5-.2-.7-2.6-.6-5.3 .1-2.6 .4-6.1 .6-7.8 .2-1.6 0-4.3-.4-6-.6-2.1-.5-3.2 .4-3.7 .8-.5 .6-.8-.5-.8l-1.8 0 1.1-4.7 1.1-4.8-1.1-1.7c-.8-1.3-.8-2.4 0-4 .7-1.4 .9-4.5 .5-8-.4-3.5-.2-6 .4-6.3 .6-.3 .9-3.3 .8-6.7-.1-3.5 .1-6.9 .5-7.5 .4-.7 .7-3.4 .7-6l0.1-4.8-.1-3.2c0-2.1 .6-3.5 1.5-3.8 1-.3 1.2-.9 .5-1.7-.5-.7-.9-2.6-1-4.3 0-1.6-.1-4.6-.3-6.7-.1-2-.6-4-1-4.5-.4-.4-.7-1.4-.7-2 0-.7 .7-1.4 1.6-1.5 1.1-.2 1.8-1.6 2.1-4.3 .3-2.2 .5-6.2 .4-9 0-2.7 .2-5.7 .5-6.5l0.5-1.5 .9 1.5c0.7 1 1 1.1 1 .3 0-.7-.4-1.5-1-1.8l-1-.5 1-2c0.6-1.1 .8-2.4 .5-3-.3-.5 .2-2.2 1.2-3.7 .9-1.6 1.7-4.7 1.7-7 .1-3.6-.2-4.2-1.6-3.8-1 .3-1.8 .1-1.8-.5 0-.5 .8-1.6 1.9-2.2 1.5-1.1 1.7-1.9 1-4.8-.5-1.9-.6-5.1-.3-7 .4-1.9 1.5-4.8 2.4-6.5 1.1-1.7 1.8-4.7 1.7-6.8-.1-2.7 .3-4.2 1.5-5 1-.7 1.8-2.5 1.8-4.2 .1-1.6 .5-3.9 1-5 .5-1.3 .3-2.6-.6-3.7-1.2-1.6-1.1-2.1 .6-3.8 1.1-1.1 2-3.2 2-4.7 0-1.6-.5-3.4-1.2-4-1.1-1.1-.9-1.6 .7-2.7 1.5-1.1 2-2.6 2-6 0-2.5 .3-4.6 .8-4.6 .4 0 .7-.8 .7-1.7 0-1.5 .2-1.6 1-.3 .7 1.1 1 .4 1-2.7 0-2.4 .5-4.5 1-4.8 .6-.3 .8-2 .5-3.7-.5-2.8-.2-3.6 2.4-5.3 1.8-1.2 3.2-3.2 3.6-5 .3-1.6 1.2-3.8 2-4.7 .9-1.1 1.1-2 .5-2.3-.6-.3-.4-1.5 .5-3.2 .8-1.6 1.5-3.4 1.5-4 0-.7 .7-1.3 1.5-1.3 .8 0 1.3-.4 1-1-.3-.5 .4-2.2 1.4-3.7 1-1.6 1.9-3.1 2-3.5 .1-.5 .1-1.7 .1-2.8 0-1.1 .5-1.8 1-1.5 .6 .3 1.4-.1 1.9-.7 .5-.7 1.1-2.8 1.5-4.5 .3-1.8 1.1-3.5 1.6-3.8 .6-.3 1.5-1.7 2.1-3.2 .7-1.6 1.2-3.7 1.3-4.8 .1-1.1 .8-2 1.6-2 .8-.1 1.4-.6 1.3-1.3-.2-.7 .4-1.2 1.2-1.2 .8 0 1.5-.7 1.5-1.5 0-.8 1.2-2.8 2.8-4.4 1.5-1.6 3.3-2.6 4.2-2.3 .9 .4 1.2 .2 .8-.3-.4-.6-.2-2.2 .5-3.7 .7-1.6 1.5-2.8 2-2.8 .4 0 1.6-.9 2.7-2 1.2-1.2 2.8-1.8 4-1.5 1.4 .3 1.8 .1 1.3-.7-.6-.8-.2-1 1.5-.5 1.2 .4 3.6 .1 5.5-.7 1.7-.8 6.5-1.6 10.4-1.8 4.4-.2 7.3 .1 7.4 .7 .1 .6 .1 1.3 0 1.8 0 .4 .4 .7 .9 .7 .6 0 1.1-.7 1.3-1.6 .2-1.3 .6-1.2 2.5 .5 1.2 1.2 2.9 2.1 3.7 2.1 .8 0 1.7 .7 2 1.5 .3 .8 1.9 2 3.5 2.5 2 .7 3 1.7 3 3 0 1.1 .7 2 1.5 2 .8 0 1.5 .7 1.5 1.5 0 .8 .5 1.5 1 1.5 .6 0 .8 .5 .5 1-.3 .6 .8 2 2.3 3.3 1.6 1.2 3.1 3.4 3.5 5 .5 2 1.1 2.5 2.5 2.1 1.3-.5 1.5-.2 1 1-.6 1.1 0 2.4 1.7 4.1 1.4 1.4 2.5 2.3 2.5 2 0-.3 1.7 1.1 3.8 3.1 2.3 2.2 3.3 3.8 2.6 4.2-.6 .4-1.1 2.6-1 4.8 .1 2.8 .5 4 1.4 3.8 .6-.2 1.4 .5 1.7 1.6 .3 1.1 1.2 2 2 2 .8 0 1.3 .6 .9 1.3-.3 .6 .2 1.5 1 2 .9 .4 1.6 1.8 1.6 3.2 0 1.8 .5 2.5 2 2.5 1.5 0 1.9 .5 1.5 2-.3 1.1 0 2 .5 2 .6 0 1.7 1.5 2.5 3.3 1 2.2 1.2 3.6 .5 4.5-.7 .8-.4 2 1 3.7 1.1 1.4 1.7 3.1 1.4 3.8-.3 .6 .8 3.3 2.5 6 1.7 2.6 3.6 4.7 4.1 4.7 .6 0 1.2 .9 1.5 2 .3 1.1 .1 2-.5 2-.6 0-.5 1 .3 2.5 1 2 1.5 2.2 2.6 1.2 1.1-1 1.2-.7 .6 1.8-.6 2.4-.4 3.3 1.1 4.2 1.7 1.1 1.7 1.4 .4 2.8-1.3 1.4-1.3 1.6 .3 1.5 .9 0 1.7-.6 1.7-1.2 0-1 .2-1 .8-.1 .4 .6 .7 4.5 .7 8.7 0 5.7 .3 7.5 1.3 7.1 .6-.3 1.2 0 1.2 .5 0 .6-.4 1-1 1-.5 0-1 .5-1 1 0 .6 1 1.2 2.3 1.5 1.7 .3 1.9 .7 1 1.7-.8 1-.8 1.9 .3 3.8 .8 1.4 1.4 3.1 1.4 3.8 0 .6 .7 1.2 1.5 1.2 1.2 0 1.3 .4 .5 2-.8 1.5-.4 3 1.5 6.5 1.6 2.8 2.3 5.4 2 7-.3 1.4 0 2.5 .5 2.5 .6 0 .8 .5 .5 1-.3 .6-.9 .8-1.5 .5-.5-.3-.8 .2-.5 1 .3 .8 1.2 1.5 2 1.5 .8 0 1.5 .3 1.5 .8 0 .4-.5 1.3-1.2 1.9-1.1 1-.9 1.7 .7 3.4 1.6 1.7 2 3.3 1.8 7.8-.2 3.1-.7 6.1-1.2 6.6-.5 .6-.5 1.9 0 3.3 .5 1.2 1.5 2.2 2.2 2.2l1.2-.1-1.2 1.6c-1 1.1-1 2.4-.2 5.3 .7 2 1.2 8 1.3 13.3 .1 8.1 .3 9.5 1.6 9 1-.4 1.3-.2 .8 .7-.5 .6-.3 1.2 .2 1.2 .6 0 1.2 1.5 1.5 3.3 .3 1.7 .8 4.8 1.1 6.7 .3 2.3 0 4.3-1 5.8-.9 1.2-1.3 2.2-.8 2.2 .4 0 .8 1.5 .9 3.2 .1 1.8-.5 4.3-1.3 5.6-.7 1.2-1.4 2.9-1.4 3.7 0 .8 .5 1.3 1 1 .6-.3 .8 .7 .4 2.8-.4 1.7-1.1 4-1.5 5-.6 1-.4 4 .5 7.5 .8 3.1 1 6.4 .6 7.2-.4 .8-.4 3.8-.1 6.5 .4 2.8 .5 7.6 .2 10.8-.3 3.2-.3 6.1 .2 6.3 .4 .2 .5 1.6 .2 3.2-.3 1.5-.1 3.3 .5 4 .5 .6 .8 2.2 .6 3.5-.3 1.2 .1 2.9 .7 3.8 1 1.3 .8 2-.5 3.3-1 .9-1.8 1.9-1.8 2.4 0 .4 .8 1.5 1.8 2.5l1.7 1.8-1.7-.1c-1.5 0-1.7 .6-1.1 3.3 .5 2.3 .3 3-.5 2.5-.8-.6-1.1-.1-.9 1.5 .2 1.2 .8 3.1 1.4 4.2 .6 1.1 1.3 3.5 1.7 5.3 .3 1.9 .2 3.2-.4 3.2-.7 0-.7 .6 0 1.8 .6 1.1 .6 2.1-.1 2.7-.5 .6-1.1 4.4-1.3 8.5-.2 4.2 .1 7.7 .6 8 .6 .3 .3 1.8-.6 3.8-1.4 2.8-1.4 3.3-.1 3.7 .9 .3 1.2 1 .8 1.8-.5 .6-.8 3.5-.9 6.2 0 2.8 .4 5.2 .9 5.5 .5 .3 .4 1.6-.3 3-1 2-.9 2.6 .2 3.3 1.1 .6 1 .9-.2 1.7-1.2 .7-1.2 1.3-.4 2.7 .6 1 1.4 3.2 1.8 4.8 .4 1.7 .2 4.9-.4 7.3-.6 2.8-.7 4.2 0 4.2 .6 0 .8 2.3 .3 6.3-.3 3.4-1 6.3-1.5 6.5-.4 .1-.8 1.6-.8 3.2 0 1.7 .4 2.8 1 2.5 .6-.3 1.2 .2 1.5 1 .3 .8 .1 1.7-.5 2-.5 .3-.8 1-.5 1.5 .3 .6 .6 3.6 .6 6.8 .1 4.3 .6 6 2 7 1.1 .6 1.9 1.7 1.9 2.2 0 .6-.4 .8-1 .5l-1-.5 1 2.5c0.6 1.4 .8 5.1 .6 8.3-.2 3.1-.5 6-.5 6.5-.1 .4-.5 .5-1.1 .2-.5-.3-1.2 .3-1.5 1.3-.3 .9-.3 3.3 .1 5.2 .4 1.9 1.2 4.1 1.8 4.8 .8 1 .7 1.3-.6 1.2-1 0-1.8 .2-1.8 .5 0 .3 .8 2.1 1.8 4 .9 2 2.2 3.5 2.7 3.5 .6 0 2.7 1.1 4.8 2.5 3 2 5.3 2.6 12 3 4.5 .3 11.1 .6 14.7 .6 3.6 .1 11.2-.1 17-.5 5.8-.4 12.8-.8 15.5-1 2.8-.2 5.7-.1 6.5 .1l1.5 .6-1.5 .9c-1 .6-.7 .7 1 .3 1.4-.3 5.7-.7 9.5-.8 3.9-.1 7.5-.5 8-.9 .6-.3 6.2-.4 12.5-.2 6.3 .2 12 .4 12.5 .4 .6 .1 5.1-.2 10.1-.7 6.4-.6 9.5-.5 10.5 .3 .9 .7 3.5 .9 7.1 .5 4.6-.5 5.4-.9 4.5-1.9-.9-1-.9-1.3 .1-1.2 .6 0 1.5 .7 2 1.5 .4 .8 2.1 1.5 3.7 1.5 1.7 0 11.3 0 21.5 0 10.2 0 19.5 0 20.8 0 1.2 0 2.4 .5 2.7 1 .3 .6 2.8 .8 6 .5 3-.3 5.7-.2 5.9 .3 .2 .4 2.8 .6 5.8 .5 2.9-.1 8-.6 11.3-1.2 3.3-.6 8.1-1.1 10.8-1.1 2.6 0 4.7-.4 4.7-1 0-.6 1.3-.6 3.8 .1 2.3 .7 6 .8 9.7 .4 3.3-.4 8.5-.9 11.5-1 3-.2 9.3-.8 14-1.5 4.7-.7 9.6-1.1 11-1 1.4 0 4.3 .2 6.5 .4 2.2 .2 4.5 .4 5 .6 .6 .1 1.2 .2 1.5 .1 .3-.1 2.2-.4 4.3-.7 2.7-.3 3.5-.1 3 .8-.6 .9 .9 1 6.2 .6 3.9-.3 8.6-.2 10.5 .3 1.9 .4 3.7 .5 4 .1 .3-.4 1.9-.8 3.5-.9 1.7-.1 4-.4 5.3-.5 1.3-.2 2-.8 1.7-1.5-.3-.8 .3-1.3 1.5-1.3 1.1 0 2.2-.4 2.5-1 .3-.5 1.3-.7 2.3-.4 1.3 .5 1.5 .2 1-1-.5-.9-.4-1.6 .2-1.6 .6 0 .8-.4 .5-1-.3-.5 .2-1 1-1 1 0 1.4-.8 1.2-2.2-.2-1.3-.1-4.5 .3-7.3 .5-3.6 .3-5.6-.6-7.2-.8-1.3-1.2-2.7-.9-3.3 .3-.5 .1-1.7-.5-2.5-.5-.8-.8-2.2-.5-3 .3-.8 .1-1.3-.5-1-.5 .3-1 1.3-1 2.3l0.1 1.7-2.1-2c-1.1-1.1-2.1-2.6-2-3.2 0-.7 .7-1.3 1.5-1.3 1 0 1.5-1.1 1.5-3.5 0-1.9-.4-4.4-1-5.5-.7-1.3-1.6-1.8-2.7-1.4-1.5 .5-1.4 .3 .2-1 1.5-1.2 2.1-1.3 2.6-.4 .4 .7 1.2 1 1.8 .6 .6-.5 .8-1.6 .5-2.5-.6-1.5-.8-1.6-1.4-.3-.6 1.1-.9 1.2-1.4 .3-.3-.7-.1-2.2 .4-3.3 .8-1.6 .4-2.6-2-5-1.6-1.6-3-3.2-3-3.5 0-.3 .6-.3 1.3-.1 .7 .2 1.2-.6 1.2-2 0-1.5-.6-2.4-1.5-2.4-1.2 .1-1.3-.2-.2-1.5 .8-1 1-2.8 .4-5.7-.4-2.4-.8-6.1-.7-8.3 0-2.2-.6-4.7-1.3-5.5-.7-.8-1.1-2.1-.8-2.7 .3-.7 .3-1.9-.1-2.5-.4-.7-.8-2.4-.9-3.8-.2-1.4-.5-4.7-.8-7.5-.4-2.7-1.1-5.1-1.6-5.2-.7-.2-.7-1.1 0-2.8 .7-1.7 .7-3.9-.1-6.7-.6-2.4-.8-5.3-.5-6.5 .4-1.3-.1-3.3-1-4.5-1-1.6-1.3-3.4-.9-5.8 .5-2.7 .4-3.2-.5-2-.9 1.2-1.1 .9-.7-1.5 .3-1.8 0-3.7-.9-4.7-1.1-1.4-1.2-2.5-.4-4.8l1-3-1 0c-.5 0-1.3-1.9-1.7-4.2-.5-2.3-1.8-5.3-3-6.7-1.6-1.8-2.1-3.3-1.6-5.1 .3-1.4 .9-3.2 1.4-4 .4-.9 .3-2.6-.4-4-.7-1.4-1.4-5.2-1.5-8.5-.1-3.3-.5-7.8-.8-10-.4-2.2-1-4.8-1.5-5.7-.6-1.1-.5-2.3 .1-3 .7-.9 .7-2.3 0-4.3-.6-1.6-1-4.8-.9-7 .1-2.2-.1-5.6-.5-7.5-.4-1.9-1.1-3.7-1.5-4-.4-.3-.9-3.4-1-7-.2-3.6-.4-7.2-.5-8.2 0-.9-.4-1.4-.8-1.2-.5 .2-.7-6.4-.5-14.8 .1-11-.2-15.9-1.1-17.8-.7-1.4-1.2-3.4-1.1-4.5 0-1.1 0-2.4-.1-3-.2-.5-.4-2.6-.5-4.5 0-1.9-.2-5.5-.4-8-.1-2.5-.4-3.9-.7-3.2-.2 .6-.8 1-1.4 .7-.6-.3-.7-1.4-.1-2.7 .4-1.3 .7-2.9 .5-3.5-.2-.7 0-1.9 .6-2.5 .5-.7 .7-1.7 .2-2.1-.4-.5-.8-2.3-.9-4-.1-1.8-.3-5.6-.5-8.5-.1-2.8-.1-5.4 .2-5.5 .3-.2-.1-.2-.7 0-.7 .1-1.3 0-1.3-.4 0-.5 .4-1.5 1-2.3 .5-.8 .5-1.9 .1-2.5-.5-.5-1.1-2.2-1.5-3.7-.3-1.6-.2-2.8 .4-2.8 .6 0 .8-6.9 .5-19.7-.3-10.9-.6-24.5-.8-30.3-.2-5.8-.7-11.5-1.1-12.7-.3-1.3-.2-2.3 .4-2.3 .6 0 .9-2.1 .8-4.9-.2-2.7-.7-5.3-1.1-5.8-.4-.4-.7-2.3-.7-4 0-1.8-.4-3.3-1-3.3-.7 0-.7-1.1 0-3.2 .5-1.8 1.2-5.2 1.5-7.5 .3-2.4 .1-6-.4-8-.5-2.2-.5-4.2-.1-4.8 .5-.5 1-3.8 1.2-7.3 .2-3.4 .6-6.2 1.1-6.2 .4 0 .5-1.1 .2-2.5-.4-2.1-.2-2.4 1.3-1.8 1.3 .6 1.5 .4 1-1-.5-1 0-3.9 1-6.9 1-2.9 2.8-6.4 4-7.8 1.2-1.4 2.4-3.7 2.7-5.2 .3-1.6 1-3 1.5-3.3 .6-.3 1-1.4 1-2.5 0-1.1 .6-2 1.3-2 .7 0 1.6-2 2-4.7 .5-2.7 1.1-7.2 1.3-10 .2-3.2 0-5.3-.6-5.3-.5 0-1-.8-1-1.7-.1-1.6 .1-1.6 1.5-.3l1.6 1.5-.3-3.2c-.2-1.7-.5-3-.8-2.8-.3 .2-1.2 0-2-.6-1.3-.7-1.2-.9 .3-.9 1.5 0 1.7-1.1 1.5-10.2-.1-9.1-.4-10.5-2.2-12.1-1.2-1-2.4-1.7-2.8-1.7-.5 0-.8 .3-.8 .8 0 .4-2.6 .7-5.8 .6-3.1 0-6.1-.3-6.7-.6-.5-.3-2.8-.9-5-1.3-2.2-.4-5.3-.9-7-1.1-1.6-.2-7.5-.6-13-.8-6.3-.3-11.4-.1-13.8 .7-3.4 1.1-4 1-4.8-.5-.5-1.1-1.9-1.7-3.1-1.6-1.4 .1-3.6-1-5.5-3-1.8-1.8-3.3-3.5-3.3-3.9 0-.5-1.4-1.4-3.2-2.1-2.3-1-2.8-1.5-1.8-1.9 1.1-.4 .6-.9-1.5-1.9-2.7-1.1-2.7-1.2-.7-1.3 1.5-.1 2-.6 1.7-1.6-.3-.8 0-1.7 .5-2 .6-.3 1 0 1 .5 0 .6 .5 1 1 1 .6 0 1-.7 1-1.5 0-.8-.8-1.5-1.7-1.5-1.5 0-1.6-.2-.3-.9 .8-.5 1.2-1.4 .8-2-.5-.6-.3-2 .2-3.1 .6-1.1 .7-2 .3-2-.5 0-.8-4.9-.8-11 0-6-.3-11-.7-11-.5 0-.5-2.4-.2-5.2 .3-3.1 .1-5.8-.5-6.5-.7-.9-.8-1.5-.1-1.8 .6-.3 1.2-.2 1.3 .3l0.4 .7-.4-1.2c-.1-.7-.2-5.7-.2-11 .1-5.4 .1-11.6 .1-13.8 0-2.2-.3-6.7-.6-10-.4-3.3-1-8-1.5-10.5-.5-2.5-.6-4.9-.1-5.5 .4-.5 .6-2.6 .5-4.5-.2-1.9 .3-5.4 1.1-7.7 .8-2.4 1.1-4.9 .7-5.5-.3-.7-.7-6.4-.7-12.6-.1-6.1 .2-11.2 .7-11.2 .4 0 1.2-1.2 1.7-2.7 .6-1.6 1.8-4.3 2.8-6.1 .9-1.7 2-3.2 2.5-3.2 .4 0 .7-.7 .7-1.5 0-.8 .5-1.5 1-1.5 .6 0 .7-.5 .3-1.1-.5-.6-.3-1.4 .2-1.8 .6-.3 2-2.1 3.3-3.8 1.2-1.8 2-4 1.7-4.8-.3-.9 .3-1.7 1.5-2 1.5-.4 2-1.3 2-3.7 0-1.8 .6-4.2 1.4-5.3 1.2-1.7 1.1-2.8-.3-7.3-.9-3-1.9-5-2.4-4.5-.4 .4-.8-.1-.8-1.2l0-2-.9 2c-.7 1.7-.9 1.4-1-1.5l-.2-3.5-.8 2.5-.8 2.5-.1-2.2c-.1-1.5-.9-2.4-2.3-2.7-1.3-.3-2.6-1.4-3-2.5-.6-1.4-1.4-1.9-2.5-1.6-1.1 .4-3-.6-5-2.5-2.3-2.1-3.8-2.8-5-2.3-1.3 .5-1.6 .4-1-.5 .4-.7 0-1.7-.9-2.4-.9-.7-2.1-2.3-2.5-3.5-.6-1.5-1.7-2.3-3.1-2.3-1.8 0-2-.2-.8-1 1.2-.7 1-1-1.3-1.7-1.5-.4-3-1.5-3.3-2.3l-.5-1.5-.9 1.5c-.8 1.3-1 1.2-1-.2 0-1-.4-1.8-1-1.8-.5 0-1-.7-1-1.5 0-.8-.9-2.1-2-2.7-1.1-.7-1.7-1.7-1.2-2.1 .4-.4-.2-.8-1.3-.8-1.1 0-3-1.1-4.2-2.4-1.3-1.4-2.3-3.2-2.3-4 0-.8-.7-1.5-1.5-1.5-.8 0-1.5-.4-1.5-1 0-.5 .5-1 1-1 .6 0 1-1 1-2.2 0-1.3-.9-3.4-2-4.8-1.1-1.4-2-3.1-2-3.7 0-.7 .6-2.5 1.3-3.9 1.1-2.3 .9-2.8-1-4.5-1.3-1.1-2.3-2.8-2.3-3.9 0-1.3 .5-1.8 1.5-1.5 .8 .3 1.7 .1 2-.5 .3-.5-.2-1.6-1-2.2-.9-.7-1.6-1.9-1.5-2.5 0-.7 .5-1.3 1-1.3 .6 0 1.2 .6 1.4 1.3 .3 .6 .5 .4 .5-.5 .1-1 .4-1.8 .9-1.8 .4 0 .8-4.2 .9-9.3 .1-5 .3-11.9 .5-15.2 .3-3.3 0-6.9-.5-8-.6-1.3-.4-3.8 .4-7.1 .9-3 1-4.9 .4-4.7-.5 .2-1.3-.4-1.8-1.4-.5-1.2-.1-2.5 1.1-3.8 1.4-1.5 1.7-3.5 1.6-8.5-.1-3.6-.5-10.2-.8-14.7-.3-4.6-.8-8.7-1.1-9.3-.3-.5 0-1.8 .7-2.7 .8-1.4 .7-2.7-.5-5.8-.9-2.2-1.4-4.2-1.1-4.5 .3-.3 .5-2.5 .6-5 0-2.5-.2-7.5-.6-11.2-.4-4.3-.2-6.8 .4-6.8 .6 0 .7-.6 .4-1.2-.4-.7-.6-4.7-.6-8.8 .1-4.1 .3-10 .4-13.2 .2-3.1 .1-5.5-.2-5.3-.3 .2-.5-1.4-.5-3.5 0-2.3 .4-3.5 1-3.2 .6 .5 .6 0 0-1.3-.5-1.1-.9-5.4-.8-9.5 0-4.5-.4-7.8-1.1-8.2-.6-.4-.9-2.2-.8-4 .2-1.8 .9-3.9 1.5-4.7 .7-.8 1.3-3.5 1.4-6 .1-3.1-.1-3.9-.6-2.6l-.8 2-.6-2.2c-.5-1.6-.2-2.5 .8-2.8 .8-.3 1.5-1.3 1.5-2.2 0-1-.2-2-.5-2.3-.3-.3-.7-3.2-.9-6.5-.2-3.3-.2-5.2 0-4.2 .2 .9 .9 1.7 1.4 1.7 .6 0 .7-1.2 .4-2.7-.5-2.2-.2-3.1 1.5-4.3 1.1-.8 1.8-1.9 1.3-2.4-.4-.5 0-.6 1.1-.3 1 .4 1.6 .3 1.5-.4-.2-.6 1.5-1.1 4-1.2 2.3-.1 4.6-.8 5-1.5 .4-.7 1.5-1 2.5-.7 1.2 .3 1.7 0 1.7-1.2 0-1.5 .5-1.7 3-1 1.9 .4 2.8 .3 2.5-.3-.3-.5 .4-1 1.5-1 1.1 0 2.3-.8 2.7-1.7 .3-1 2.4-3.5 4.5-5.5l3.8-3.8 0-6.5c0-3.6-.3-6.5-.7-6.5-.5 0-1-1.5-1.1-3.2-.2-1.8-.4-8.7-.3-15.3 0-6.6-.5-15.8-1.1-20.5-.6-4.7-1.1-9-1.2-9.6 0-.7-.9-2.1-1.8-3.3-1-1.1-1.6-2.5-1.3-3.1 .3-.5-.2-1.2-1-1.5-.8-.3-2.2 .2-3 1-.8 .8-1.7 1.5-2 1.5-.3 0-1.2-.7-2-1.5-.8-.8-1.5-1.9-1.5-2.5 0-.5-.7-1-1.5-1-.8 0-1.3 .5-1 1 .3 .6-.2 1.5-1 2-.8 .6-2.6 .8-4 .5-1.4-.3-2.3-.9-2-1.5 .3-.5-.1-1-.7-1-.7 0-1.7 .5-2.3 1-.7 .8-1.5 .7-2.7-.4-1-.9-2.2-1.6-2.8-1.6-.5 0-.8 .7-.5 1.5 .3 .9-.2 1.5-1.2 1.6-1 0-3.8 0-6.3 0-2.5 0-6.7-.1-9.5-.2-2.7-.1-6.1 .3-7.5 .8-1.4 .6-2.9 2.2-3.4 3.9-.5 1.6-.9 3.2-.8 3.7 .1 .4-.4 .7-1 .7-.8 0-1.3 1.5-1.3 4 0 2.2-.3 4-.7 4-.5 0-.8 .7-.8 1.5 0 .8-.7 1.5-1.5 1.5-.9 0-1.5 .9-1.5 2.5 0 1.4-.4 2.5-1 2.5-.5 0-1.2 1.1-1.5 2.5-.3 1.5-1.7 3.1-3.5 4-1.6 .8-3.4 1.3-4 1-.5-.3-2.8 .9-5 2.5-2.8 2.1-4.7 2.8-6.2 2.4-1.3-.3-3.3-1.2-4.5-2-1.3-.8-2.6-1.2-3-.9-.5 .3-.2 .5 .5 .5 .6 0 1.2 .5 1.2 1 0 .6-1.2 .8-2.7 .6-1.6-.3-4.8-.9-7.3-1.5-2.5-.5-4.6-1.4-4.7-2-.2-.6-1-1.1-1.8-1.1-.8 0-3.7-2.1-6.5-4.7-3.9-3.8-5-5.6-5.2-8.3-.2-2.5-.7-3.4-1.8-3.1-1.2 .2-1.3-.2-.7-2 .5-1.3 1-3.2 1.3-4.1 .3-1.2-.2-1.8-1.3-1.8l-1.8-.1 1.8-.9c1.1-.7 1.4-1.5 1-2.6-.5-.8-1.4-1.3-2-1-.7 .3-1.3 0-1.3-.6 0-.9-.4-.8-1 .2-.8 1.2-1 1.1-1-.7 0-1.8-.4-2.1-1.6-1.5-1 .4-1.9 .1-2.4-.8-.7-1.2-1.1-1.3-2.4-.2-.9 .6-2.2 1-2.8 .8-.7-.3-3 .3-5 1.2-2.5 1.1-4.1 1.4-4.8 .7-.7-.7-2.2-.6-4.5 .3-1.9 .6-3.9 1-4.5 .7-.5-.3-2.6-.2-4.5 .3-2.3 .4-3.4 1.1-3 2 .3 .6-.3 1.5-1.2 1.8-1.4 .5-1.6 .2-1-1 .4-.9 .3-1.8-.3-2.1l-1-.5-3 .5c-1.9 .3-2.8 1-2.5 1.8 .3 .6-.7 1.9-2.2 2.8-1.6 .9-4.3 1.4-6.3 1.2-1.9-.2-3.6-.8-3.7-1.3-.2-.6-1-1-1.8-1-.8 0-1.7 .7-2 1.5-.3 .8-.5 2.1-.5 2.8 0 .8 .4 .7 1-.3 .8-1.3 1-1.2 1 .3 0 .9-.7 1.9-1.5 2.2-.8 .3-1.3 1-1 1.5 .3 .6-.4 3-1.5 5.5-1.1 2.5-2.3 6.4-2.6 8.8-.4 2.3-.6 5.3-.6 6.7 .1 1.4 .2 3.4 .2 4.5 0 1.1-.3 2.1-.7 2.3-.4 .1-.5 1.9-.2 4 .4 2 .5 4.9 .3 6.5-.3 1.8-.8 2.4-1.6 2-.8-.6-1 .1-.7 2.4 .2 1.8 .2 3.3-.1 3.3-.3 0-.6 1.6-.7 3.5-.2 1.9-.5 4-.8 4.5-.3 .6 .2 2.4 1 4 .8 1.7 1.3 3.7 1 4.5-.3 1 .2 1.5 1.5 1.5 1.1 0 2 .5 2 1 0 .6-.6 .8-1.2 .7l-1.3-.4 .8 .4c0.4 .1 .7 1 .7 1.8 0 .8 1.4 3 3.2 4.8 1.7 1.7 3.5 3.1 4 3 .4-.2 .8 .2 .8 .7 0 .6 .7 .8 1.5 .5 1-.3 1.5 .1 1.5 1.3 0 .9 .2 1.4 .5 1 .3-.5 1.7 .3 3.3 1.7 1.5 1.4 3.3 2.5 4 2.5 .6 0 1.2 .3 1.1 .8-.1 .4 .2 1.7 .5 3 .4 1.5 1.4 2.2 3.1 2.2 1.8 0 2.6 .6 3 2.3 .3 1.2 .5 3.8 .5 5.7 0 1.9 .4 5.1 1 7 .6 2.3 .6 3.9 0 4.8-.7 .8-.6 1.7 .3 2.7 .9 1.2 .9 1.9 0 2.8l-1.2 1.2 1.2 1.8c0.9 1.3 .9 2.2 0 3.7-.7 1.1-1.3 4-1.3 6.5 0 3.9-.2 4.4-1.7 3.8-1.2-.6-1.5-.4-1.1 .7 .3 .8 1.1 1.4 1.7 1.3 .6-.2 1.1 .4 1.1 1.2 0 .8-.6 2-1.2 2.6-.8 .7-1.1 2.7-.9 4.8 .2 2 .7 4.1 1.1 4.6 .4 .6 1.3 3.3 2 6 .7 2.8 1.7 5.6 2.2 6.3 .4 .6 .6 1.7 .3 2.2-.3 .6 .3 1.8 1.4 2.8 1.3 1.2 1.6 2.2 1 3.5-.6 1-.4 3.1 .4 5.4l1.2 3.6-1.2 .4c-.7 .1-1.3 1.4-1.3 2.8 0 1.7-.7 2.7-2 3-1.2 .3-2 1.3-2 2.5 0 1.5-.5 1.9-2 1.5-1.1-.3-2 0-2 .5 0 .6-1.8 1.3-4 1.8-2.2 .4-4.2 1.3-4.5 2-.3 .6-1.2 1-2 .7-.8-.3-1.5 0-1.5 .5 0 .6-.9 1-2 1-1.1 0-2 .5-2 1 0 .6 .8 1 1.8 1 1.4 0 1.5 .2 .2 .9-.8 .5-4.2 1-7.5 1.1-4.9 .1-5.8-.1-4.7-1.2 .7-.7 1.2-1.6 1.2-2 0-.5-.8-.8-1.7-.8-1 0-2.8 .9-4 2-1.3 1.1-2.3 2.6-2.3 3.3 0 .9-.2 .9-1.2-.1-.7-.7-1.7-1.2-2.3-1.2-.5 0-.3 .4 .5 .9 1.2 .7 .9 1.2-1.7 3-2.4 1.5-3.2 2.6-2.8 4.1 .3 1.1 .1 2.9-.5 4-.8 1.6-.6 2.4 1 4 1.1 1.1 1.8 2.7 1.5 3.5-.3 .8 .3 1.9 1.3 2.4l1.7 1-1.7 1.3c-1.1 .8-1.6 2.1-1.3 3.6 .3 1.2 1 2.2 1.5 2.2 .6 0 .5 .8-.2 2-1.1 1.7-1 2.2 .2 3 .8 .5 2 1 2.5 1 .6 0 .3-.5-.5-1.1-1.2-.8-1.1-.9 .5-.7 1.2 .2 1.9 1 1.8 2.1-.2 .9 .2 1.5 .7 1.2 .6-.3 1 0 1 .5 0 .6-.9 1.3-2.1 1.8-1.8 .6-2 1.4-1.7 5.9 .2 3.7-.1 5.3-.9 5.3-.7 0-1.6 1.2-1.9 2.8-.3 1.5-.8 3.3-1 4-.2 .6-.8 1-1.4 .7-.5-.3-.9 0-.7 .6 .1 .6-.5 1.5-1.3 1.9-.8 .5-2.4 1.2-3.5 1.6-1.1 .4-2.6 .6-3.2 .6-.7-.1-1.3 .3-1.3 .8 0 .6-1.1 1.7-2.5 2.5-2 1.2-2.8 1.3-4.2 .3-.9-.7-2.7-1.4-4-1.5-1.2-.2-2.3 .2-2.3 .7 0 .6-.6 .7-1.2 .3-.9-.5-1-.4-.5 .5 .5 .9-1.7 1.2-10 1.1-6-.1-12.4 .1-14.3 .3-1.9 .3-5 1.3-6.7 2.2-2.7 1.3-3.7 1.4-5.4 .4-1.7-1.1-2.2-1-3.5 .7-1.3 1.7-1.6 1.8-2.3 .5-.6-1.1-1-1.2-1.5-.2-.3 .6-1 1-1.6 .7-.5-.3-.8-1.1-.7-1.7l0.4-1.3-.4 .8c-.1 .4-1.6 .7-3.3 .7-2.3 0-2.9-.4-2.7-1.7 .1-1.3-.5-1.8-2.3-1.9-1.4 0-4.1-.8-6-1.8-2.2-1-4.6-1.5-6.5-1.1-2.6 .5-2.8 .4-1.3-.7 1-.7 1.7-1.6 1.8-2 0-.5-.4-.8-1-.8-.5 0-1.6-.6-2.3-1.2-.8-.7-1.7-2.6-2.1-4.3-.4-1.6-1.8-5.5-3-8.5-1.3-3-2.9-8.6-3.6-12.5-.7-3.8-1.4-8.6-1.7-10.5-.3-1.9 0-4.5 .6-5.7 .8-1.8 .8-2.4-.1-2.6-1-.3-.9-.8 .2-2.1 1-1.2 1.2-2 .4-2.4-.6-.4-1.4-3.6-1.7-7.2-.3-3.6-.6-6.9-.7-7.5-.2-.5-.2-3.6-.1-6.7 .1-4.7 .4-5.7 1.6-5.3 1 .3 1.5-.2 1.5-1.5 0-1.3-.5-1.8-1.5-1.5-.8 .3-1.7 .1-2-.5-.3-.5 .3-1.2 1.3-1.4 1.3-.2 1.6-1.1 1.3-3.7-.3-2.5-.1-3.2 .7-2.6 .7 .4 1.5 .1 1.8-.5 .3-.7 .1-3-.5-5-.9-3.2-.9-3.8 .4-3.8 .8 0 1.5-.7 1.5-1.5 0-.8-.7-1.7-1.5-2-.8-.3-1.5-1.4-1.5-2.5 0-1.1 .5-2 1-2 .6 0 1-1 1-2.2 0-1.3-.5-2.8-1.2-3.5-.7-.6-1.9-1-2.5-.7-.7 .2-1.3 .2-1.3-.1 0-.3 .6-1.1 1.3-1.9 .9-1.1 1.5-1.2 2.5-.3 1 .9 1.2 .8 1.2-.5 0-1-.6-2-1.2-2.1-.9-.3-1.3-3-1.3-9.5 0-5.1 .3-9.2 .8-9.2 .4 0 .5-.4 .2-1-.3-.5 .1-1.7 .8-2.5 1-1.3 .9-1.9-.5-3.3-1-.9-1.8-2.3-1.8-2.9 0-.7 .6-1.5 1.3-1.7 .9-.3 .8-.7-.3-1.6-1.1-.9-1.2-1.3-.2-1.6 .6-.2 1.2-1 1.2-1.6-.1-.7-.8-1.8-1.8-2.5-.9-.7-1.2-1.3-.7-1.3 .6 0 1-3.2 1-7.5 0-4.1 .3-7.5 .8-7.5 .4 0 .7-.4 .7-1 0-.5-.8-1.8-1.7-2.7-1.4-1.5-1.7-4-1.8-13.8-.1-6.6-.5-13.6-1-15.5-.5-2.4-.3-4.2 .6-5.7 1.1-1.7 1.1-2.5 .3-3.5-.7-.8-1-3.8-.8-7.5 .3-5.5 .2-6.3-1.3-6.3-1.6-.1-1.6-.2-.3-1.3 .8-.7 2.1-2.2 2.8-3.5 .6-1.2 1.2-2.4 1.2-2.7 0-.3-.8-.5-1.7-.6-1 0-1.2-.2-.5-.5 .6-.2 1.2-1.1 1.2-1.9 0-.8-.7-1.5-1.5-1.5-.8 0-1.6-1-1.7-2.2l-.1-2.3 .1-2.2c0.1-1.3-.2-3.1-.8-4-.6-1.2-.5-2.4 .4-3.8 .7-1.1 1.7-3.3 2-5 .6-2.2 .3-3.2-.8-3.7-.9-.5-1.6-1.2-1.6-1.8 0-.5 .9-1 2-1 1.5 0 1.8-.4 1.3-1.7-.4-1-1.3-2.4-2-3-.7-.7-1.3-1.7-1.3-2.3 0-.5 .5-.7 1.2-.2 .9 .5 .9 0 .3-1.8-.6-1.8-.6-2.3 .3-1.7 .7 .4 1.2 .1 1.2-.8 0-.8-.4-1.3-1-1-.5 .3-1.2-.3-1.6-1.2-.3-1 .2-2.2 1-2.8 1.2-.8 1.3-1.3 .3-2.3-.9-1-.9-1.5 .3-2.1 1-.6 1.2-1.3 .5-2.2-.5-.8-.8-2.5-.6-3.9 .2-1.4 .7-2.9 1.1-3.5 .5-.5 .7-1.9 .5-3-.2-1.1-.4-2.2-.5-2.5-.1-.3-.5 .4-.9 1.5-.5 1.4-.9 1.6-1.4 .8-.4-.7 .4-2.9 1.8-4.8l2.5-3.5-2 0c-1.1 0-2-.4-2-1 0-.5 .3-1.2 .8-1.4 .4-.2 .7-6 .6-12.8 0-9.7 .3-12.7 1.5-14.4 .9-1.1 2.3-1.8 3.1-1.5 1 .3 1.2 .1 .8-.7-.5-.7-.2-1.9 .5-2.8 1-1.3 .9-1.7-.3-2.4-1.1-.6-1.2-.9-.2-1.4 .6-.3 .9-1.1 .5-1.7-.5-.6-.1-1.5 .7-1.9l1.5-.8-1.5-1.7c-1.3-1.5-1.3-1.8 .3-2.6 1-.5 1.4-1.4 1-2.1-.6-.8-.2-1 1.5-.5 1.8 .6 2.9-.1 6.2-4 2.9-3.4 4-5.7 4-8 0-1.8-1.1-5-2.5-7-1.6-2.6-2.1-4.1-1.5-4.8 .6-.5 1-1.3 1-1.7 0-.5-.8-.6-1.7-.3-1.2 .4-2.1-.1-2.8-1.7-.5-1.2-2.1-2.5-3.5-2.9-1.4-.4-1.8-.7-1-.8 1.1-.1 .8-.7-1-2.5-1.4-1.3-2.8-2.2-3.2-2-.5 .2-1.4-1.1-2.2-2.8-.7-1.8-2.1-5.8-3-8.8-.8-3-3.6-14-6.2-24.5-2.5-10.4-5.5-21.1-6.5-23.7-1-2.7-1.7-5.2-1.4-5.8 .3-.5 .2-1.1-.2-1.2-.5-.2-1.9-2.5-3.2-5.3-1.3-2.7-2.4-6.2-2.5-7.7-.1-1.6 .2-2.8 .7-2.8 .4 0 .7-.4 .7-1 0-.5-1.1-1.4-2.5-2-1.4-.5-2.5-1.7-2.5-2.5 0-.8-.7-1.7-1.5-2-.9-.3-1.3-1.3-1-2.5 .3-1.1 .1-2-.5-2-.5 0-1-.9-1-2 0-1.1-.6-2-1.2-2-.7 .1-2.1-1.9-3-4.2-.9-2.4-2.4-4.6-3.2-5-.9-.5-1.6-1.2-1.6-1.8 0-.5 .5-.7 1.2-.2 .8 .5 1 .1 .5-1.3-.6-1.5-.1-2.3 1.8-3.2 1.4-.7 2.5-1.6 2.5-2 .1-.5-.6-1.5-1.5-2.3l-1.6-1.5 .1 2.8c0 1.5-.4 2.7-1 2.7-.5 0-.9-1.2-.7-2.7 .2-1.6 .7-3.5 1.1-4.3 .5-.8 .5-2.6 .1-4-.4-1.4-1.1-2.7-1.6-3-.5-.3-1.2-2.1-1.5-4-.4-1.9-1.5-5.4-2.5-7.7-1.1-2.4-3-5-4.4-5.8-1.5-.9-2.3-2.1-2-3 .3-.9-.1-1.5-1.2-1.5-1-.1-2.2-.7-2.8-1.4-.5-.8-2.7-1.7-4.7-2ZM880.5 215.1c1.1-.1 1.8 .1 1.5 .4-.3 .4-1.2 .4-2 .2-1-.4-.9-.6 .5-.6ZM884.7 215.3l0.8 .7-.8 .8c-.4 .4-.8 0-.8-.8 0-.8 .4-1.2 .8-.7ZM861.7 245.3l0.8 .7-.8 .8c-.4 .4-.8 0-.8-.8 0-.8 .4-1.2 .8-.7ZM861.5 255.5c0.8 .3 1.5 .7 1.5 1 0 .3-.7 .5-1.5 .5-.8 0-1.5-.4-1.5-1 0-.5 .7-.8 1.5-.5ZM898.5 255c0.3 0 .7 .5 1 1 .3 .6 .1 1-.5 1-.5 0-1-.4-1-1 0-.5 .2-1 .5-1ZM905 256.5c-.5-.3-1 0-1 .5 0 .6 .5 1.2 1 1.5 .6 .3 1 .1 1-.5 0-.5-.4-1.2-1-1.5ZM906.7 260.3c-.4-.5-.8-.1-.8 .7 0 .8 .4 1.2 .8 .8l0.8-.8-.8-.7ZM901 262c0.5 .8 1 2 1 2.5 0 .6-.5 .3-1-.5-.5-.8-1-1.9-1-2.5 0-.5 .5-.3 1 .5ZM903.7 267.3l0.8 .7-.8 .8c-.4 .4-.8 0-.8-.8 0-.8 .4-1.2 .8-.7ZM910.5 269c-.3-.3-.5 .4-.4 1.5 0 1.4 .2 1.5 .6 .5 .2-.8 .2-1.7-.2-2ZM912.7 274.3c-.4-.5-.8-.1-.8 .7 0 .8 .4 1.2 .8 .8l0.8-.8-.8-.7ZM910.5 283c0.3 0 .7 .5 1 1l0.5 1-.5 0c-.3 0-.7-.4-1-1l-.5-1 .5 0ZM914 286c0.6 0 1.2 .5 1.5 1 .3 .6 .1 1-.5 1-.5 0-1.2-.4-1.5-1-.3-.5 0-1 .5-1ZM918.5 289c-.3 0-.5 .5-.5 1 0 .6 .5 1 1 1 .6 0 .8-.4 .5-1-.3-.5-.7-1-1-1ZM827.7 418.3c-.4-.5-.8-.1-.8 .7 0 .8 .4 1.2 .8 .8l0.8-.8-.8-.7ZM933.7 470.3l0.8 .7-.8 .8c-.4 .4-.8 0-.8-.8 0-.8 .4-1.2 .8-.7ZM1100.7 490.3l0.8 .7-.8 .8c-.4 .4-.8 0-.8-.8 0-.8 .4-1.2 .8-.7ZM1074 491.9c-.8 0-1.2 .4-.7 .8l0.7 .8 .8-.8c0.4-.4 0-.8-.8-.8ZM1109.5 495c0.3 0 .5 .2 .5 .5 0 .3-.6 .8-1.2 1.2-.9 .5-1 .4-.5-.5 .4-.6 .9-1.2 1.2-1.2ZM1132.7 506.3l0.8 .7-.8 .8c-.4 .4-.8 0-.8-.8 0-.8 .4-1.2 .8-.7ZM939 509c-.5 0-1 .5-1 1 0 .6 .5 .8 1 .5 .6-.3 1-.7 1-1 0-.3-.4-.5-1-.5ZM940.7 512.3c-.4-.5-.8-.1-.8 .7 0 .8 .4 1.2 .8 .8l0.8-.8-.8-.7ZM939 515.5c-.5-.3-1 .2-1 1 0 .8 .5 1.5 1 1.5 .6 0 1-.4 1-1 0-.5-.4-1.2-1-1.5ZM1176.5 521.1c1.1-.1 1.8 .1 1.5 .4-.3 .4-1.2 .4-2 .2-1-.4-.9-.6 .5-.6ZM936 528c0.6 0 1.2 .5 1.5 1 .3 .6-.2 1-1 1-.8 0-1.5-.4-1.5-1 0-.5 .5-1 1-1ZM935.5 533c0.3 0 .7 .5 1 1l0.5 1-.5 0c-.3 0-.7-.4-1-1l-.5-1 .5 0ZM935 539.9c0.8 0 1.2 .4 .8 .8l-.8 .8-.7-.8c-.5-.4-.1-.8 .7-.8ZM837.7 563.3c-.4-.5-.8-.1-.8 .7 0 .8 .4 1.2 .8 .8l0.8-.8-.8-.7ZM939 616c0.6 0 1 .7 1 1.5 0 .8-.4 1.3-1 1-.5-.3-1-.9-1-1.5 0-.5 .5-1 1-1ZM703 648c-.5 0-.8 .5-.5 1 .3 .6 .7 1 1 1 .3 0 .5-.4 .5-1 0-.5-.4-1-1-1ZM941.5 648c0.4 .3 .4 1.2 .2 2-.4 1-.6 .9-.6-.5-.1-1.1 .1-1.8 .4-1.5ZM727.7 652.3c-.4-.5-.8-.1-.8 .7 0 .8 .4 1.2 .8 .8l0.8-.8-.8-.7ZM721 657c0.6 0 1 .5 1 1 0 .6-.4 1-1 1-.5 0-1-.4-1-1 0-.5 .5-1 1-1ZM939.7 659.3l0.8 .7-.8 .8c-.4 .4-.8 0-.8-.8 0-.8 .4-1.2 .8-.7ZM941.7 660.3l0.8 .7-.8 .8c-.4 .4-.8 0-.8-.8 0-.8 .4-1.2 .8-.7ZM845.7 668.3l0.8 .7-.8 .8c-.4 .4-.8 0-.8-.8 0-.8 .4-1.2 .8-.7ZM940 675.9c0.8 0 1.2 .4 .8 .8l-.8 .8-.7-.8c-.5-.4-.1-.8 .7-.8ZM842.5 690c0.3 0 .7 .5 1 1l0.5 1-.5 0c-.3 0-.7-.4-1-1l-.5-1 .5 0ZM1063.7 701.3l0.8 .7-.8 .8c-.4 .4-.8 0-.8-.8 0-.8 .4-1.2 .8-.7ZM1067.5 701c0.3 0 .5 .2 .5 .5 0 .3-.6 .8-1.2 1.2-.9 .5-1 .4-.5-.5 .4-.6 .9-1.2 1.2-1.2ZM943.7 717.3c-.4-.5-.8-.1-.8 .7 0 .8 .4 1.2 .8 .8l0.8-.8-.8-.7ZM1050 723.9c0.8 0 1.2 .4 .8 .8l-.8 .8-.7-.8c-.5-.4-.1-.8 .7-.8ZM1223 729.9c0.8 0 1.2 .4 .8 .8l-.8 .8-.7-.8c-.5-.4-.1-.8 .7-.8ZM557.5 750c-.3-.3-.5 .4-.4 1.5 0 1.4 .2 1.5 .6 .5 .2-.8 .2-1.7-.2-2ZM1042.7 754.3c-.4-.5-.8-.1-.8 .7 0 .8 .4 1.2 .8 .8l0.8-.8-.8-.7ZM1041 756.9c-.8 0-1.2 .4-.7 .8l0.7 .8 .8-.8c0.4-.4 0-.8-.8-.8ZM958 763.9c0.8 0 1.2 .4 .8 .8l-.8 .8-.7-.8c-.5-.4-.1-.8 .7-.8ZM557.7 832.3c-.4-.5-.8-.1-.8 .7 0 .8 .4 1.2 .8 .8l0.8-.8-.8-.7ZM1235 837.9c0.8 0 1.2 .4 .8 .8l-.8 .8-.7-.8c-.5-.4-.1-.8 .7-.8ZM513 900c0.6 0 1 .2 1 .5 0 .3-.4 .7-1 1-.5 .3-1 .1-1-.5 0-.5 .5-1 1-1ZM516.7 918.3c-.4-.5-.8-.1-.8 .7 0 .8 .4 1.2 .8 .8l0.8-.8-.8-.7ZM524.7 927.3l0.8 .7-.8 .8c-.4 .4-.8 0-.8-.8 0-.8 .4-1.2 .8-.7ZM527.5 961c0.4 .3 .4 1.2 .2 2-.4 1-.6 .9-.6-.5-.1-1.1 .1-1.8 .4-1.5ZM531 1076.9c0.8 0 1.2 .4 .8 .8l-.8 .8-.7-.8c-.5-.4-.1-.8 .7-.8ZM507 1094.9c0.8 0 1.2 .4 .8 .8l-.8 .8-.7-.8c-.5-.4-.1-.8 .7-.8ZM499 1098.9c0.8 0 1.2 .4 .8 .8l-.8 .8-.7-.8c-.5-.4-.1-.8 .7-.8ZM1333.7 1103.3l0.8 .7-.8 .8c-.4 .4-.8 0-.8-.8 0-.8 .4-1.2 .8-.7ZM918.7 1135.3l0.8 .7-.8 .8c-.4 .4-.8 0-.8-.8 0-.8 .4-1.2 .8-.7ZM870.5 1139c0.3 0 .7 .5 1 1 .3 .6 .1 1-.5 1-.5 0-1-.4-1-1 0-.5 .2-1 .5-1ZM950.6 1176.2c0.6 1.8 1 3.6 .8 4.1-.2 .4-.8 .5-1.4 .2-.5-.3-.8-.9-.5-1.5 .3-.5 .1-1.8-.5-2.7-.5-1-.6-2.2-.2-2.6 .4-.5 1.2 .7 1.8 2.5ZM837.7 1200.3l0.8 .7-.8 .8c-.4 .4-.8 0-.8-.8 0-.8 .4-1.2 .8-.7ZM825.7 1249.3c-.4-.5-.8-.1-.8 .7 0 .8 .4 1.2 .8 .8l0.8-.8-.8-.7ZM454 1320.5c-.3-.3-.9 .3-1.3 1.2-.7 1.5-.6 1.6 .5 .6 .7-.7 1.1-1.5 .8-1.8ZM455.7 1355.3l0.8 .7-.8 .8c-.4 .4-.8 0-.8-.8 0-.8 .4-1.2 .8-.7ZM451 1367.5c0.3 .3-.1 1.1-.8 1.8-1.1 1-1.2 .9-.5-.6 .4-.9 1-1.5 1.3-1.2ZM805 1375c0.6 0 1 .2 1 .5 0 .3-.4 .7-1 1-.5 .3-1 .1-1-.5 0-.5 .5-1 1-1ZM1003.7 1453.3l0.8 .7-.8 .8c-.4 .4-.8 0-.8-.8 0-.8 .4-1.2 .8-.7ZM441.7 1517.3l0.8 .7-.8 .8c-.4 .4-.8 0-.8-.8 0-.8 .4-1.2 .8-.7ZM444.7 1525.3l0.8 .7-.8 .8c-.4 .4-.8 0-.8-.8 0-.8 .4-1.2 .8-.7ZM1006 1572c0.6 0 1.2 .7 1.5 1.5 .3 .8 .2 2.1-.1 2.8-.5 .9-.9 .8-1.5-.3-.5-.8-.9-2.1-.9-2.7 0-.7 .5-1.3 1-1.3ZM433.7 1578.3l0.8 .7-.8 .8c-.4 .4-.8 0-.8-.8 0-.8 .4-1.2 .8-.7ZM1208 1625.9c-.8 0-1.2 .4-.7 .8l0.7 .8 .8-.8c0.4-.4 0-.8-.8-.8ZM694 1629.9c0.8 0 1.2 .4 .8 .8l-.8 .8-.7-.8c-.5-.4-.1-.8 .7-.8ZM700 1631.9c0.8 0 1.2 .4 .8 .8l-.8 .8-.7-.8c-.5-.4-.1-.8 .7-.8ZM1575 2125.4c-.8-.3-2.1 .2-2.7 1.1-1 1.2-2.7 1.4-7.8 1-5.2-.4-6.6-.2-7 1-.3 .9-1.2 1.3-2.2 .9-1-.3-3 0-4.5 .5-1.8 .7-2.8 1.8-2.8 3.1 0 1.3-.5 1.8-1.5 1.5-.8-.3-1.7 .2-2 1-.3 .8-1.4 1.5-2.5 1.5-1.1 0-2 .5-2 1 0 .6-3.6 4.6-8 9-4.4 4.4-9.1 9.7-10.3 11.8-1.3 2-3.1 4.5-4 5.5-1 .9-1.2 1.7-.7 1.7 .6 0 1 .5 1 1 0 .6-.7 1-1.5 1-.8 0-3.6 2-6.2 4.5-3.3 3.1-5.7 4.6-7.8 4.7-1.6 .1-3.7 .1-4.5 .1-.8-.1-3.4-.4-5.7-.7-3.2-.5-5.2-1.5-7.8-4.3-2.8-3-4-3.7-5.8-3.1-1.4 .5-3.6 .1-6-1-2-.9-3.7-2-3.7-2.4 0-.5-1.6-.8-3.5-.8-1.9 0-3.5-.4-3.5-1 0-.5-1.2-1.2-2.7-1.4-1.6-.2-3.9 0-5.3 .5-1.4 .5-2.9 .5-3.5 0-.5-.4-2.7-1.1-4.7-1.5-2.1-.3-3.8-.3-3.8 .2 0 .4-2.8 2.2-6.2 4-3.5 1.8-8.5 4.6-11.3 6.2-2.7 1.6-5.8 3.2-6.7 3.5-1 .3-1.8 1-1.8 1.5 0 .6-1.2 1.2-2.7 1.5-1.6 .3-2.5 .9-2.1 1.3 .4 .4-.7 2.1-2.5 3.9-1.8 1.7-4.1 4.3-5.2 5.9-1.5 2-2 4.1-1.9 8.3 .1 3.1-.1 6.1-.4 6.6-.3 .6-.7 2.4-.9 4-.1 1.7-.9 3.7-1.6 4.5-.8 .8-1.8 2.6-2.2 4-.5 1.4-1.4 3.1-2.2 3.8-.7 .6-1.3 1.7-1.3 2.2 0 .6 .8 1.6 1.8 2.3 .9 .6 1.7 2 1.7 3 0 1-.7 2.2-1.5 2.7-.8 .5-1.2 1-.7 1 .4 0 .3 .9-.3 2-.8 1.5-.6 2.2 .6 2.8 1.3 .6 1.4 1.1 .5 3-.6 1.2-1.1 2.7-1.1 3.2 0 .6 .9 1.8 2 2.8 1.2 1 2.1 3.2 2.2 5.5 .2 2.2 .8 3.7 1.6 3.7 .6 0 1.3 .6 1.3 1.3 .1 .6 .3 2.1 .4 3.2 .2 1.1 .9 3.6 1.6 5.5 .6 1.9 1.6 4.4 2.2 5.5 .5 1.1 .9 4.3 1 7 0 2.8-.5 7.4-1.2 10.3-.6 2.8-1.5 5.2-2.1 5.2-.5 0-.8 .5-.5 1 .3 .6-.2 1-1 1-.8 0-1.8 1-2.1 2.3-.3 1.2-.8 2.9-1 3.7-.2 .8-.9 2-1.6 2.5-.7 .6-1.4 2.6-1.5 4.5-.2 2.2-1.1 4.2-2.5 5.3-1.7 1.4-2 2-1 2.5 1 .5 .8 1.7-1 5.5-1.3 2.6-2.6 4.7-3 4.7-.5 0-.6 .8-.3 1.8 .3 1-.4 2.7-1.8 4.2-1.4 1.4-2.7 3.5-3.1 4.8-.3 1.2-1.5 2.4-2.6 2.7-1.1 .3-2.2 1.4-2.5 2.5-.3 1.1-1.1 2.1-1.7 2.1l-1.3 .1-.7-.1c-.5 0-1.4 1.2-2 2.9-.9 2.1-1.8 2.9-3 2.5-1.2-.3-2 .1-2.3 1.3-.2 .9-1.3 2-2.5 2.5-1.1 .4-2 1.5-2 2.5 0 1-1.8 2.6-4.3 3.8-2.6 1.4-4.2 2.8-4.2 4 0 1.3-.6 1.8-2 1.5l-2-.3 1.5 1.8 1.5 1.8-1.7-.7c-1.2-.5-2-.1-2.5 1.1-.4 .9-1.5 2.5-2.5 3.5-1 .9-2.1 1.7-2.5 1.7-.5 .1-1.8 1-3 2-1.3 1.1-2.3 2.7-2.3 3.5 0 .8-.7 1.5-1.5 1.5-1 0-1.3 .7-1 2 .3 1.1 .2 1.9-.2 1.8-.5-.2-1 .2-1.1 .7-.2 .6-.7 1.2-1 1.5-.4 .3-1.2 1.4-1.8 2.5-.6 1.1-2.1 2.1-3.3 2.3-1.3 .1-2.1 .9-2.1 2.2 0 1.2-.8 2.2-2 2.5-1.1 .3-2.2 1.4-2.5 2.5-.3 1.1-1.1 1.8-1.7 1.6-.7-.2-2.4 1-3.8 2.7-1.4 1.7-2.3 3.1-2 3.3 .3 .1-.6 1.1-2 2.3-1.4 1.1-2 2.1-1.5 2.1 .6 .1-1.2 1.2-4 2.5-2.7 1.3-4.4 2.4-3.7 2.5 .6 0 1.2 .3 1.2 .8 0 .4-1 1.2-2.2 1.7-1.6 .7-2.4 2-2.5 4.3-.2 2.3-.7 3.1-1.8 2.7-.8-.3-1.5 0-1.5 .5 0 .6-1.1 1.6-2.5 2.3-1.4 .6-2.4 1.7-2.2 2.2 .2 .6-.5 1.8-1.5 2.8-1 .9-2.2 1.7-2.8 1.7-.5 0-1 .9-1 2 0 1.1-.9 2.8-2 3.8-1.1 .9-2 2.7-2 4 0 1.2-.7 2.4-1.5 2.7-.8 .3-1.5 1.5-1.5 2.8 0 1.6-1.1 2.7-3.8 3.9-2 1-4.3 1.8-4.9 1.8-.7 0-1.6 1.2-1.9 2.8-.3 1.7-.8 2.2-1.2 1.4-.4-.7-1.5-1-2.4-.7-1 .3-1.6 1.1-1.3 1.8 .4 .7-.9 2-2.9 3.2-2 1.1-4 3-4.6 4.3-.5 1.2-2.2 2.8-3.7 3.5-1.4 .6-2.8 1.8-3 2.5-.2 .6 .5 1.2 1.5 1.3 1.4 0 1.4 .2 .2 .7-.8 .3-3 2.2-4.8 4.1-1.8 2-3.3 3.9-3.2 4.4 0 .4-.9 .9-2 1.2-1.1 .3-2.8 1.7-3.7 3.1-1 1.4-2.4 2.3-3 2-.7-.3-1.4 0-1.6 .7-.3 .8-2.3 1.2-5.8 1.1-3 0-5.7 .5-6.1 1-.5 .7-2.9 0-7-2.1-3.5-1.8-7.3-3.3-8.5-3.3-1.3 0-2.3-.6-2.3-1.2 0-.9-.8-1.1-2.7-.6-1.9 .5-3.5 .3-4.8-.7-1.1-.8-2.8-1.5-3.7-1.5-1 0-1.8-.7-1.8-1.5 0-1-1.5-1.7-4.7-2.1l-4.8-.6-1.2 .6c-.7 .3-2-.1-2.8-.9-.8-.8-4-1.7-7-2-3-.3-5.5-.9-5.5-1.5 0-.5-1-1-2.2-.9-1.3 .1-6.6-.2-11.8-.6-6-.5-10-1.2-10.7-2.1-.7-.8-2.2-1.2-3.3-.9-1.1 .3-2 1-2 1.5 0 .6 .9 .8 2 .5 1.1-.3 2 0 2 .5 0 .6-.8 1.4-1.7 1.9-1.3 .7-2.3 .5-3.7-.7-1-1-3.5-1.7-5.7-1.7-2.1 0-3.9-.3-3.9-.7 0-.5-.8-.5-1.7-.2-1.2 .4-3.1-.6-5.3-2.6-2.2-1.9-4.2-2.9-5.2-2.5-1.3 .3-1.8-.1-1.8-1.5 0-1.1-.4-1.8-1-1.5-.5 .3-1.4-.1-1.9-.7-.5-.7-.8-3.4-.7-5.9 .1-3 .8-5.2 2-6.5 1-1 2.5-2.8 3.3-3.9 1.2-1.7 1.5-1.8 2.3-.5 .8 1.3 1 1.2 1-.2 0-1-.1-2.1-.2-2.4-.2-.4 .7-1.1 2-1.5 1.2-.5 2.2-1.6 2.2-2.4 0-.9 .6-1.3 1.5-1 1 .3 2.1-.8 3.3-3.3 .9-2.1 2.2-3.7 2.7-3.5 .6 .2 1.6-1.5 2.3-3.7 .6-2.2 2.3-5.1 3.7-6.5 1.4-1.4 2.7-3.6 3-5 .3-1.4 1.2-2.5 2-2.5 .8 0 1.5-.7 1.5-1.5 0-.8 .5-1.5 1-1.5 .6 0 .7-.6 .4-1.2-.4-.7-.4-2.2 0-3.3 .3-1.1 1.9-3.5 3.6-5.2 1.6-1.8 2.9-3.9 2.8-4.5-.1-.7 .1-2.5 .5-4 .4-1.6 1.2-2.8 1.7-2.8 .6 0 1-.9 1-2 0-1.1 .5-2 1-2 .6 0 .8-.7 .5-1.5-.3-.8 0-1.7 .5-2 .6-.3 1-1.6 1-3 0-1.4 .5-2.7 1-3 .6-.3 .8-1.3 .5-2.2-.3-1-.1-2 .5-2.3 .6-.3 1.3-2.1 1.5-4 .3-1.9 .5-5.3 .5-7.5 0-2.2 .6-4.7 1.4-5.5 .8-.8 1.7-2.7 2-4.2 .3-1.6 .3-2.8-.1-2.8-.5 0-.7-4.2-.6-9.3 .1-5 .5-11.9 .8-15.2 .4-3.6 .3-7.4-.4-9.5-.6-1.9-1.4-5.7-1.7-8.5-.3-2.7-.7-6.2-.8-7.7 0-1.6-.5-2.8-1.1-2.8-.6 0-.7-1.6-.2-4.5 .6-3.7 .4-4.5-.8-4.5-.8 0-1.7-.6-1.9-1.2l-.4-1.3 .4-2.7c0.2-1.6-.2-3.4-1.1-4.3-.8-.8-1.6-1.3-1.7-1-.2 .2-.6-.9-1-2.5l-.8-3 .8-1.6c0.5-1.1 .1-1.7-1.5-2-1.3-.2-2.3-1.1-2.3-1.9 0-.8 0-1.8-.1-2.2 0-.5-.7-1.5-1.4-2.3-.7-.8-1.9-2.8-2.6-4.5-.7-1.6-1.2-3.3-1.1-3.7 .1-.5-.4-.8-1-.8-.7 0-1.8-1.4-2.5-3.2-.7-2-2.1-3.6-3.5-4-1.7-.5-2.1-1.2-1.7-2.5 .4-1.2 0-2.2-1.2-3-1.1-.7-1.9-2-1.9-2.8 0-.8-.4-1.5-1-1.5-.5 0-1-.7-1-1.5 0-.8-.8-1.8-1.7-2.2-1-.4-2.4-1.3-3-2-.7-.7-1-1.5-.5-1.8 .4-.3 .1-.5-.5-.5-.7 0-1.3-.7-1.3-1.5 0-.8-.6-1.4-1.2-1.2-.7 .2-2-1-2.8-2.7-.9-2-2.2-3-3.3-2.8-1 .1-2.6-1.2-3.9-3.3-1.3-1.8-3.3-3.9-4.5-4.5-1.5-.6-2-1.5-1.5-2.2 .4-.9 .3-1-.5-.5-.7 .4-1.3 .3-1.3-.3 0-.5-.7-1-1.5-1-.8 0-1.7-.7-2-1.5-.3-.8-.9-1.5-1.5-1.5-.5 0-3.6-1.2-6.7-2.6-3.2-1.4-7.3-3.2-9-4-1.8-.8-4-1.4-4.8-1.4-.8 0-2.3-.9-3.2-2-1-1.1-2.8-2-4-2-1.3 0-2.3-.4-2.3-1 0-.5-1-1.3-2.2-1.6-1.3-.3-2.6-.6-3-.5-.5 .1-2.3-1.2-4-2.8-2.5-2.3-4.6-3.1-8.8-3.5-3-.3-5.6-1-5.7-1.6-.2-.5-1.2-.8-2.3-.5-1.1 .3-2 .1-2-.5 0-.5 .6-1.2 1.3-1.5 .6-.3 .2-.4-1-.3-1.3 .2-2.4-.4-2.7-1.4-.3-1-1.5-2-2.6-2.3-1.1-.3-2-.9-2-1.5 0-.5-.4-1-1-1-.5 0-2.2-.5-3.7-1.2-1.6-.6-5.5-1.3-8.8-1.4-3.3-.1-7.9-.4-10.2-.6-2.4-.2-4.3-.1-4.3 .2 0 .3-1.7 .4-3.8 .2-2-.2-4.4-.6-5.2-.9-.8-.4-2.8-.8-4.5-.9-1.6-.2-8.4-.5-15-.8-6.6-.3-17.6-.7-24.5-1-6.9-.3-12.9-.5-13.5-.5-.5-.1-2.8 .1-5 .4-2.2 .2-5.7 .7-7.7 1-2.2 .3-3.8 .1-3.8-.5 0-.5-.8-1-1.7-1-1 0-2.2 .4-2.8 1-.5 .5-3.7 1.2-7 1.4-3.3 .2-7.3 .7-9 1.1-1.6 .4-3.4 1.3-4 1.9-.5 .7-3.7 1.8-7 2.4-3.3 .7-6.1 1.7-6.2 2.2-.2 .7-.8 .7-1.8 0-1.1-.7-1.6-.6-2 .5-.3 .8-1.2 1.5-2 1.5-.8 0-1.5-.4-1.5-1 0-.5-.6-1-1.2-1-.7 0-2.6 .6-4.3 1.5-1.6 .8-4.9 1.5-7.2 1.5-2.4 0-5.2 .5-6.3 1-1.1 .6-2 1.7-2 2.5 0 1-1 1.5-3 1.5-1.6 0-3.7 .7-4.5 1.5-1.1 1.1-2 1.2-3.5 .5-1.4-.7-2.6-.6-4 .3-1.1 .6-2 1.5-2 2 0 .4-.6 .4-1.2 .1-.7-.3-1.8 .1-2.5 .8-.7 .7-2.2 1.1-3.5 .9-1.4-.2-3.4 .6-5.1 2-1.6 1.3-3.2 2.3-3.5 2.2-.4-.1-2 .9-3.7 2.2-1.6 1.2-5.2 2.9-7.9 3.6-2.7 .8-5.4 2-6 2.7-.6 .8-.7 1.3-.1 1.2 .6 0 .3 .6-.5 1.5-.8 .9-2.2 1.6-3 1.5-.8 0-2.6 1.3-4 3-1.4 1.7-3.3 3.1-4.2 3-1 0-1.9 .4-2 .9-.2 .5-1 1.1-1.8 1.3-.8 .2-1.8 .8-2.2 1.3-.5 .6-1.2 .4-1.8-.5-.8-1.2-1-1.1-1 .8 0 1.8-.4 2.1-2.2 1.6l-2.3-.7 .8 .7c0.4 .3 .1 1.2-.5 1.9-.7 .7-2.9 2-4.8 2.9-1.9 .9-4.3 2.6-5.2 3.7-1 1.2-1.6 2.1-1.3 2.1 .3 0-.2 .7-1 1.5-.8 .8-1.5 2.2-1.5 3 0 .8-.6 1.4-1.2 1.3-.7-.2-1.2 .3-1 1 .1 .6-.5 1.2-1.3 1.2-.8 0-1.7 .8-2 1.8-.2 .9-1.5 2.8-2.9 4.2-1.5 1.5-2.2 3-1.8 3.9 .5 .9 .2 1.1-.8 .6-.8-.3-2.2 .1-3 1l-1.5 1.6 1.5 0c1 0 .6 .8-1.2 2.4-1.6 1.4-2.8 3-2.8 3.5 0 .6-.7 1-1.5 1-.8 0-1.5 .5-1.5 1 0 .6-1.1 2-2.5 3.3-1.4 1.2-2.2 2.4-2 2.7 .3 .3 .1 1.7-.5 3.3-.6 1.7-1.5 2.5-2.5 2.2-.8-.3-1.5-.2-1.6 .3 0 .4-.2 2.1-.4 3.7-.2 1.7-.9 3.1-1.5 3.3-.5 .1-1 1.3-1 2.7 0 1.4-.3 2.4-.7 2.4-.5-.1-1.2-.1-1.8-.1-.6 .1-.5 .7 .2 1.4 .9 1 1 2.2 .3 4.6-.6 1.7-1.4 3.2-2 3.2-.5 0-1.4 1.7-2 3.8-.5 2-.6 4.8-.3 6.2 .6 2.1 .4 2.4-1 1.8-1.2-.6-1.7-.3-1.7 .7 0 .8 .5 1.5 1 1.5 .6 0 1 .7 1 1.5 0 .8-.4 1.5-1 1.5-.5 0-.8 .5-.5 1 .3 .6-.2 1.5-1 2-1.1 .7-1.4 2.1-1 5 .4 3.1 .2 4-1 4-1.1 0-1.3 .6-.9 2.3 .4 1.2 .6 2.4 .7 2.7 0 .3-.7 2.1-1.5 4-1.1 2.5-1.3 4.5-.7 7 .4 1.9 .4 4-.1 4.5-.4 .6-.7 3-.5 5.5 .1 2.5-.4 5.6-1.2 7-1.1 1.8-1.2 2.8-.4 3.5 .6 .6 1.1 2 1.1 3.3 0 1.2-.4 2.2-1 2.2-.5 0-1 .6-1 1.3 0 .6 .7 2.4 1.5 4 .8 1.5 1.3 3.5 .9 4.5-.3 .9-.1 4.3 .3 7.5 .4 3.2 .5 6 .1 6.3-.5 .2-.8 1.5-.8 2.9 0 1.4 .3 2.3 .8 2 .4-.2 1.3 .8 2 2.3 .8 1.7 .9 2.9 .3 3.2-.6 .3-.7 2-.1 4.5 .5 2.2 .6 4.5 .2 5-.4 .6-.2 .7 .6 .3 .6-.5 1.5-.2 1.9 .5 .5 .6 .9 2.3 1.1 3.7 .2 1.4 .3 4.4 .2 6.8 0 2.3 .5 4.2 1 4.2 .6 0 .8 .7 .5 1.5-.3 .8 0 1.7 .5 2 .6 .3 1 1.4 1 2.5 0 1.3 .5 1.8 1.5 1.5 1.2-.4 1.4 .1 1 2.3-.5 2.2 .4 3.7 4.7 8.5 2.9 3.1 5.9 5.7 6.6 5.7 .7 0 .9 .6 .5 1.6-.5 .9-.3 1.9 .2 2.2 .6 .4 1.6 2.6 2.3 5 .7 2.5 1.8 4.2 2.7 4.2 1.1 0 1.4 .7 1 2.5-.4 1.8 .3 3.4 2.5 5.8 2 2.1 2.6 3.5 2 4.2-.6 .6-1 1.3-1 1.8 0 .4 .7 .5 1.5 .2 .9-.3 1.5 .1 1.5 1 0 .8 .3 1.4 .8 1.4l0.7-.1 1.3 .1c0.6 0 1.2 1 1.2 2.1 0 1.2 2 3.7 4.8 6 2.6 2.1 5.5 3.9 6.5 4 .9 0 1.7 .7 1.7 1.5 0 .8 1.1 2.2 2.5 3 1.4 .8 2.5 2.1 2.5 2.8-.1 .6 .6 1.9 1.5 2.7l1.7 1.5 .8-1.5c0.6-1.3 .8-1.2 1.4 .3 .3 .9 .4 2.2 .1 2.7-.3 .6 .1 1.1 .8 1.1l1.2 .1 1.3-.1c0.6 0 1.2 .5 1.2 1.2 0 .6 1.1 2.2 2.5 3.5 1.4 1.2 3.2 2.2 4 2.2 .8 0 1.3 .5 1 1-.3 .6 1.4 1.5 3.8 2.2 2.3 .7 4.4 1.4 4.7 1.8 .3 .3 4.3 2 9 3.8 4.7 1.8 9.7 4 11.3 4.8 1.5 .8 3.4 1.4 4.2 1.4 .8 0 1.5 .3 1.5 .8 0 .4 1.9 1.3 4.2 2 2.4 .7 5.3 2.1 6.6 3 1.2 .9 2.4 2.8 2.7 4.2 .3 1.4 .8 2.8 1 3.3 .3 .4-.3 1.5-1.3 2.5-1 .9-2 2.2-2.2 2.7-.3 .6-2.4 2.5-4.7 4.3-2.4 1.7-5 3.2-5.8 3.2-.8 0-2.4 1.2-3.6 2.8-1.7 2.3-2.2 2.5-3 1.2-.8-1.1-.8-.8-.3 1l0.7 2.5-1.7-1.5-1.7-1.5 .1 2.3c0 1.2-.4 2.2-1 2.2-.5 0-1.1-.5-1.2-1-.2-.6-1.2-.3-2.3 .7-1.1 1-3.6 2.4-5.5 3-1.9 .7-4.4 1.3-5.5 1.2-1.1 0-2.6 .6-3.2 1.3-.7 .7-1 1.7-.5 2.1 .4 .5-.5 .6-2 .3-2.2-.5-3-.1-3.8 1.4-.6 1.2-2.3 2.2-4.5 2.5-2.2 .3-3.5 1-3.5 2 0 1-1 1.5-3 1.5-1.7 0-3 .5-3 1.3 0 .7-1.6 1.3-4.2 1.4-2.4 .1-4.9-.2-5.5-.8-.8-.6-1.5-.5-1.8 .1-.3 .7-1.6 .6-3.7-.1-1.8-.6-5.5-1.2-8.3-1.5-3.3-.2-5.4-1-6.3-2.1-.9-1.4-1.5-1.5-2.5-.6-.9 .8-1.8 .8-3.7-.3-1.4-.8-3.2-1.4-4-1.4l-1.5 0 1.5-1c1.2-.8 .9-1-1.2-1-1.6 0-2.6-.4-2.3-1 .3-.6-1.2-1-3.7-1-3.1 0-4.8-.6-6-2-1-1.1-2.7-2-3.8-2-1.1 0-2-.4-2-1 0-.5-.8-.8-1.7-.5-1 .2-3-.7-4.5-2-1.6-1.4-2.8-2.9-2.8-3.5 0-.5-.4-.8-1-.5-.5 .3-2.3-.6-4-2-1.6-1.4-2.8-2.5-2.5-2.5 .3 0-.7-1.4-2.2-3-2.1-2.3-3.3-2.8-4.6-2.3-1.3 .5-2.2 .3-2.8-.7l-.9-1.5 0 1.5c0 1.1-.3 1-1.4-.5-.7-1.1-1.2-2.7-1.1-3.5 .1-.8 .1-.9-.1-.2-.2 .6-.8 1.2-1.4 1.2-.5 0-1.2-.4-1.5-1-.3-.5 .1-1.2 .8-1.5 .9-.4 .8-.7-.3-1.2-.8-.4-2.1-1.3-2.7-2-.7-.7-1.4-1.1-1.5-.8-.2 .2-2.1-1.6-4.3-4.1-2.2-2.4-4.8-4.4-5.7-4.4-1.1 0-1.9-.9-2.1-2.2-.1-1.5-.8-2.2-2-2-1 .1-2.4-1-3.4-2.5-1-1.6-2.6-3.7-3.8-4.9-1.1-1.1-2.6-2.9-3.3-4-.7-1-.9-1.2-.5-.4 .6 1 .4 1.2-.7 .9-.8-.3-1.5-1.2-1.6-2 0-.8-.3-2.2-.7-3.1-.4-1-1.1-1.6-1.7-1.3-.5 .3-.9-.1-.9-.7l0.1-1.3-.1-1.2c-.1-.8-.7-1-1.7-.5-1.2 .5-1.4 .3-.9-.8 .4-1-.6-2.7-2.9-5-2.7-2.7-3.4-4.1-3.1-6.2 .4-2.4 .2-2.7-1.5-2.3-1.5 .4-1.9 .1-1.5-1.2 .2-1 .1-2.2-.3-2.8-.4-.5-1.7-1.6-2.9-2.2l-2.3-1.3-.4 1.3c-.3 .8-.5 .7-.6-.3 0-.8-2-3.2-4.3-5.2-2.6-2.4-5.5-4-7.7-4.2-1.9-.3-5 0-6.7 .7-2 .7-3.4 2-3.5 3.2-.2 1.1-1.4 2.5-2.8 3.2-1.4 .7-2.9 1.8-3.5 2.4-.7 .9-.5 1 1 .5 1.8-.7 1.9-.5 1.2 1.6-.5 1.2-.9 4-1 6-.1 2-.5 4-1 4.5-.4 .4-.8 2.2-.7 3.8 0 1.7 .5 3.6 1.2 4.3 .8 .8 .9 1.5 .3 2-.5 .4-1.6 2.2-2.2 4l-1.3 3.2 2.5 2c1.4 1.1 2.5 2.2 2.5 2.5l0 .5-1.5-.5c-1.2-.4-1.3-.1-.5 1.5 .6 1.1 1.3 2.1 1.8 2.3 .4 .1 1.7 1.7 3 3.5 1.2 1.7 2 3.4 1.7 3.7-.3 .3 .4 1.5 1.5 2.8 1.1 1.2 2.1 3.1 2.2 4.2 .1 1.1 0 2.8 0 3.8-.1 .9 .5 1.7 1.3 1.7 .8 0 1.5 .6 1.5 1.3 0 .6-.5 1.8-1.2 2.6-1 1.1-1 1.3 0 .7 .6-.3 1.8 .1 2.5 .9 .7 .9 .8 1.6 .2 1.7-.5 0-1.3 0-1.7-.1-.5 0-.8 .4-.8 .9 0 .6 1 1.2 2.3 1.4 1.7 .4 2 .9 1.5 2.5-.5 1.2-.4 2.1 .2 2.1 .6 0 1-.6 1-1.2 0-.7 .5-.5 1 .5 .6 .9 .8 2.6 .5 3.7-.4 1.4 0 2 1.3 2 1.2 0 1.3 .3 .5 .8-1 .5-.9 1.2 .2 3 .8 1.2 2 2 2.5 1.7 .6-.3 1 .4 1 1.5 0 1.1 .3 2 .8 2 .4 0 1.5 1.2 2.5 2.5 1.4 2.1 1.5 2.8 .5 4.2-1.1 1.4-1 1.6 .2 1.1 .9-.4 2 .2 2.8 1.3 .6 1 1.7 1.7 2.2 1.4 .6-.3 1 .4 1 1.5 0 1.1 .7 2 1.5 2 .8 0 1.5 .5 1.5 1 0 .6 1.1 1.9 2.5 3 1.4 1.1 2.5 2.7 2.5 3.5 0 .8 .7 1.5 1.5 1.5 .8 0 1.4 .3 1.4 .8l-.1 .7 .1 1.8c0.1 1 .9 1.7 2.1 1.7 1.1 0 2 .5 2 1 0 .6 1.1 1.6 2.4 2.3 1.4 .6 2.2 1.7 2 2.2-.2 .6 .3 1.9 1.1 3 1.4 1.7 1.7 1.7 2.2 .5 .4-1.2 1.1-.8 3.1 1.6 1.5 1.7 3.8 3.3 5.2 3.7 1.4 .3 4.4 2.3 6.6 4.4 2.3 2.1 4.7 4.8 5.3 6.1 .6 1.2 .9 2.7 .6 3.2-.3 .6 0 2 .6 3.3 .6 1.2 .7 2.9 .3 3.7-.4 .8-.6 2.2-.5 3 .1 .8 0 2.5-.3 3.8-.4 1.4-1.1 2-2.1 1.7-.9-.3-1.9 .4-2.5 2-.5 1.4-1.6 2.5-2.2 2.5-.8 0-1.2 1-1 2.3 .2 1.2-.3 2.9-1.3 3.7-.9 .8-1.6 1.2-1.5 .8 0-.5-1.5 .6-3.2 2.2-1.8 1.7-3.6 3-4 3-.5 0-1.9 .9-3.3 2-1.4 1.1-2.9 1.8-3.5 1.5-.5-.3-1.8-.1-2.7 .4-1 .5-3.7 .6-6.3 .1-2.6-.5-5-.4-5.7 .1-.8 .5-1.5 .5-1.8-.1-.3-.5-1.5-.7-2.7-.4-1.4 .3-2.9 0-3.8-.8-.8-.8-2.4-1.8-3.5-2.3-1.1-.4-2.8-.7-3.7-.7-1 .1-2.7-.7-3.8-1.8-1.2-1.2-2.7-1.8-3.7-1.4-1 .3-2.5-.1-3.3-1.1-.8-.9-2.1-1.6-2.7-1.5-.7 0-1.3-.4-1.3-1 0-.5-1.3-1.7-3-2.5-1.6-.8-3.6-1.2-4.2-.9-.7 .3-2.8-.8-4.5-2.5-1.8-1.7-3.3-3.4-3.3-3.8 0-.5-1-.6-2.3-.4-1.2 .2-3.5-.5-5.2-1.5-1.6-1.1-3.6-2.1-4.5-2.2-.8-.2-2.5-.4-3.7-.3-1.4 .1-2.5-.6-2.8-1.6-.2-1-1.6-2.4-3-3-1.4-.7-3.3-2.5-4.2-3.9-1-1.4-2.5-2.4-3.3-2.3-.8 .1-2.7-.3-4.2-.9-1.6-.7-2.8-1.6-2.8-2.2 0-.5-1.9-3-4.2-5.4-2.4-2.4-5.3-4.6-6.5-5-1.3-.3-2.7-1.5-3.3-2.6-.5-1.1-1.7-2-2.5-2-.8 0-2.2-1.1-3-2.5-.8-1.4-1.5-3.2-1.5-4 0-.8-.6-1.6-1.2-1.6-.7-.1-1.5-.2-1.8-.3-.3-.2-1.8-.9-3.3-1.7-1.6-.8-3-2.3-3.3-3.4-.3-1.1-1.8-2.9-3.4-4-1.7-1.1-3-2.6-3-3.2 0-.7-.4-1.3-1-1.3-.5 0-2.9-2-5.2-4.5-2.4-2.5-4.9-4.5-5.5-4.5-.7 0-1.6-.6-2-1.4-.5-.8-2.1-1.8-3.8-2.1-1.6-.4-3.9-.7-5-.6-1.1 0-2.4 .6-3 1.4-.5 .8-1.6 1.2-2.2 1-.7-.1-1.7 .8-2.3 2.2-.5 1.4-1.6 2.8-2.2 3.3-.7 .4-1.9 2.3-2.7 4.2-.7 1.9-1.7 5.9-2.2 8.8-.7 4-.6 5.7 .5 7.5 .8 1.2 1.3 4.3 1.2 6.9-.1 3.3 .3 4.8 1.2 4.8 .6 0 1.9 1.4 2.7 3l1.5 3-1.5 .5c-1.3 .4-1.3 1-.2 4 .6 2 1.5 3.5 2 3.5 .4 0 1.4 1.8 2.2 4 .8 2.2 1.5 4.9 1.5 6 0 1.1 1.1 2.9 2.5 4 1.5 1.2 2 2.1 1.3 2.3-.9 .3-.8 .8 .5 2 .9 .9 1.7 2.3 1.7 3 .1 .6 1.4 2.4 3 4 1.7 1.5 3 3.2 3 3.7 0 .6 .7 1 1.5 1 .8 0 1.3 .5 1 1-.3 .6 .7 2.7 2.2 4.8 1.5 2 4.1 5.2 5.8 7 1.6 1.9 4.2 4.7 5.8 6.3 1.5 1.6 3.6 2.9 4.7 2.9 1.1 0 2.2 .7 2.5 1.5 .3 .8-.1 1.6-.7 1.8-.7 .2 .2 1 2 1.8 2.2 .9 3 1.9 2.6 2.9-.3 .8-.2 1.2 .3 .8 .4-.4 2.3 .5 4.1 2 1.8 1.5 3.3 3.3 3.2 4 0 .6 .7 1.2 1.5 1.2 .8 0 1.4 .7 1.3 1.7-.2 1 2 3.2 6 6 3.4 2.3 5.9 4.5 5.5 4.8-.5 .3 .3 .2 1.7-.1 1.7-.5 2.8-.2 3.5 .8 .7 1 3.4 1.7 8 2 4.2 .3 8.3 1.3 10.2 2.4 1.8 1.1 3.3 2.5 3.3 3.2 0 .6 .6 1.3 1.3 1.3l1.2 .2 4.3-.2c2.3 0 4.2 .4 4.2 .9 0 .6 .8 1 1.8 1 .9 0 2.8 1.2 4.2 2.7 1.4 1.6 2.6 3.9 2.8 5.3 .1 1.4 .3 4.3 .3 6.5 0 2.2 0 5 0 6.3-.1 1.5-.6 2-1.6 1.7-1.1-.4-1.6 .4-1.7 3.3-.2 2.3-.8 3.6-1.5 3.5-.7-.2-2 .8-2.8 2.2-.8 1.4-1.9 2.5-2.5 2.5-.5 0-2.2 .9-3.7 2.1-1.6 1.1-3.7 1.9-4.8 1.8-1.1-.2-3.1 .3-4.5 1.1-1.4 .8-4.5 1.5-7 1.7-2.5 .1-6.3-.2-8.5-.8-2.7-.7-4.2-.7-4.5 0-.3 .6-1.9 .7-4.5 .1-2.2-.5-4.3-.7-4.7-.4-.5 .2-2.9 .6-5.5 .9-2.7 .2-5.4 0-6-.5-.7-.6-1.6-.9-2-.9l-.8 .1-1.2-.1c-.7 0-1.1-.4-.9-.8 .2-.5-2.6-.8-6.2-.9-5.2-.1-6.6-.4-6.3-1.5 .2-1-.2-1.2-1.5-.6-1.1 .4-2.3 .3-2.9-.2-.5-.4-3.4-1.6-6.2-2.5-3.5-1-5.9-1.3-7-.7-1.3 .6-2.8 .2-5.3-1.5-1.9-1.3-4.5-2.4-5.7-2.4-1.3 0-2.3-.4-2.3-1 0-.5-.6-.8-1.2-.5-.7 .3-2.9-.5-4.8-1.7-2-1.3-5-3.1-6.8-4-1.8-1-3.5-1.7-3.9-1.7l-.8 .1-1.2-.1c-.7 0-1.1-.8-.8-1.6 .4-1.1-.6-1.6-4-2-2.5-.3-4.3-.9-4-1.5 .3-.5-.6-1.6-2-2.2-1.4-.7-2.5-1.9-2.5-2.5 0-.7-.4-1.3-1-1.3-.5 0-2.2-.9-3.7-2.1-1.9-1.4-3.6-1.9-5-1.5-1.5 .4-2.8 0-3.5-1-.7-.8-2.6-1.9-4.3-2.4-1.6-.5-4.5-1.2-6.2-1.5-2.6-.4-3.2-.2-2.8 1 .3 .8-.2 2.2-1 3-.8 .8-1.9 1.5-2.5 1.5-.5 0-1.4 .9-2 2-.5 1.1-.8 2.5-.5 3 .3 .6-.2 1-1 1-.8 0-2 1-2.6 2.3-.7 1.2-1.2 4.7-1.2 7.7 .1 3 .4 7.3 .8 9.5 .5 2.2 1.7 4.9 2.7 6 1 1.1 1.8 2.6 1.8 3.3 0 .6 1 1.3 2.2 1.5 1.5 .1 2.6 1.2 3.3 3.2 .5 1.7 2.4 4.4 4 6.2 1.7 1.7 3.9 4.2 5 5.5 1.1 1.3 1.9 3.1 1.7 3.9-.1 .8 1.1 1.9 2.8 2.7 1.6 .6 3.2 2.1 3.5 3.2 .3 1.3 1.6 2.2 3.5 2.5 2.5 .4 3 1 3 3.3-.1 2.2 .8 3.2 4.7 5.3 2.6 1.5 5.9 4.1 7.3 5.7 1.4 1.7 3 2.8 3.5 2.5 .6-.3 2-.3 3.3 .1 1.2 .3 2 1.2 1.8 1.9-.2 .6 .3 1.8 1 2.5 .8 .6 1.7 .9 2 .5 .3-.5 .9-.1 1.4 .7 .7 1.2 1.1 1.3 2.4 .3 1.3-1.1 1.7-1 2.1 .2 .3 .8 1 1.3 1.5 1 .6-.3 2.2 .4 3.8 1.5 1.5 1.2 2.1 2.1 1.5 2-.7 0-1.1 .5-.8 1 .3 .6 1.4 .8 2.5 .5 1.1-.3 3 .1 4.3 .9 1.2 .8 3.9 1.8 6.1 2.3 2.1 .4 4 1.1 4.2 1.6 .2 .4 2.1 .7 4.2 .7 2.1-.1 4.3 .6 5.2 1.5 .9 .9 1.9 1.2 2.5 .6 .6-.6 1.9-.4 3.5 .4 1.4 .8 4.2 1.4 6.3 1.5 2 0 3.7 .5 3.7 1 0 .6 .5 .8 1 .5 .6-.3 1.2 .1 1.3 .8 .3 .9 .7 .9 1.8 0 1.1-.9 2.3-.7 5.4 .8 2.2 1.1 5.6 2.1 7.5 2.2 1.9 .1 4.3 .9 5.2 1.7 1.1 .9 1.8 2.8 1.8 4.8 0 2.4 .6 3.5 2.5 4.5 1.4 .6 2.6 1.4 2.5 1.7 0 .3-.4 1-1 1.5-.6 .6-1.3 6.7-1.5 14-.2 7.2-.5 13-.5 13-.1 0-.2 1.6-.3 3.7-.1 2 .1 4 .6 4.5 .4 .4 .8 1.7 .8 2.8 0 1.7-.3 1.8-1.6 .8l-1.5-1.3-.4 1.3c-.2 .6 .1 2.3 .6 3.7 .5 1.4 .5 2.7 .1 3-.4 .3-1.3 1.4-1.9 2.5-.7 1.3-.8 2.9-.2 4.5 .5 1.5 .5 2.9-.1 3.5-.5 .6-.8 1.5-.5 2 .3 .6-.4 1.9-1.6 3-1.3 1.3-1.8 2.8-1.5 4.3 .4 1.6 0 2.3-1.5 2.7-1.4 .4-1.9 1.1-1.5 2.5 .3 1.3 0 2-1 2-.8 0-2.2 .7-3 1.5-.8 .8-2.1 1.2-2.7 .9-.7-.3-2.6 0-4.1 .7-1.5 .8-2.8 1.7-2.7 2.2l0 .7-1.2-.7c-.7-.5-5.6-.8-11-.8-5.3 0-9.4 .3-9.2 .8 .2 .4 0 .7-.6 .7-.5 0-1.1-.5-1.2-1.1-.2-.6-5.1-1.1-13-1.2-7.8-.1-12.8-.6-12.8-1.2 .1-.5-.5-.4-1.2 .3-1 1-1.9 .9-4.3-.3-1.6-.8-3.4-1.5-4-1.5-.5-.1-.4 .6 .3 1.5 .6 .8 .9 1.7 .5 2-.5 .2-2.5 0-4.5-.5-2.1-.6-4.2-.8-4.8-.5-.5 .3-4.9 .8-9.7 1.1-6.2 .4-9 1-9.5 2-.5 .9-1.8 1.2-3.8 .9-2.2-.4-3-.1-3 1 0 .8-.9 1.7-2 2-1.1 .3-2 .1-2-.5 0-.5-.8-1-1.7-1-1 0-2.4 .9-3 2-.8 1.1-2.9 2.3-5 2.7-2.1 .3-4.9 1.2-6.3 2-1.4 .7-4 1.3-5.7 1.3-1.8 0-3.5 .5-3.8 1-.3 .6-1.4 .6-3.1-.2-2.1-1.1-2.7-1.1-3.3 .2l-.8 1.5-.5-1.5c-.3-.8-1.9-1.8-3.7-2.2-1.7-.5-3.1-1.4-3.1-2 0-.7-.9-2.1-2-3-1.1-1-2.3-1.8-2.7-1.8-.5 0-1.4-.9-2-2-.7-1.1-1.1-3.3-.8-5 .3-1.7 .1-3-.5-3-.5 0-.8-1-.5-2.2 .4-1.6-.3-3.3-2.5-5.8-1.9-2-2.9-4.1-2.6-5 .4-.8-.7-3.5-2.4-6-1.6-2.5-3.2-5.6-3.5-7-.3-1.4-1.2-2.9-1.9-3.5-.7-.5-2.2-2.7-3.4-4.7-1.2-2.1-2.2-4.5-2.2-5.3 0-.8-.9-2.3-2-3.2-1.1-1-2-2.6-2-3.5 0-1-.4-2-1-2.3-.5-.3-.8-1.2-.5-2 .3-1-.4-1.7-2.2-2.1-1.9-.4-2.7-1.2-2.5-2.3 .2-.9-.6-2.6-1.7-3.8-1.2-1.3-2.5-2.3-3.1-2.3-.5 0-1-1-1-2.2 .1-1.3-1.5-4.1-3.4-6.3-2-2.2-3.9-3.7-4.3-3.3-.5 .4-.1 1.5 .7 2.3 1.1 1.1 1.1 1.6 .3 1.5-.7 0-1.6-.8-2-1.7-.4-1-1.5-2.4-2.5-3-1-.7-1.6-1.7-1.3-2.3 .3-.5-.4-1-1.5-1-1.5 0-1.8-.5-1.4-1.7 .4-1.3 .2-1.6-.7-1.1-.9 .4-3.6-1.4-7.4-5-3.3-3.1-7.5-6.5-9.2-7.4-1.8-1-5-1.8-7-1.8-2.1 0-4.9-.7-6.3-1.6-2-1.4-3.7-1.5-9-.9-3.6 .5-8.5 .9-11 .9-2.5 .1-5.2 .6-6 1.1-.8 .5-2.4 1.1-3.5 1.3-1.1 .1-3.1 .3-4.5 .4-1.7 0-2.6 .7-2.7 1.9-.2 1.1-.9 1.9-1.5 1.9-.7 0-2.8 1.4-4.5 3-1.8 1.7-3.3 2.6-3.3 2 0-.5-.3-1-.7-1-.5-.1-2.9 2.1-5.6 4.7-2.6 2.6-4.7 4.2-4.7 3.6 0-.7-.4-1.3-1-1.3-.5 0-1 .9-1 2 0 1.1-.3 2-.7 2-.5 0-1.4 1.1-2 2.5-.8 1.4-2.2 2.5-3.3 2.5-1.4 0-2.4 1.2-3.5 4-.8 2.2-1.5 4.6-1.5 5.3 0 .6-1 1.7-2.2 2.3-1.3 .6-3 2.4-3.8 4-.8 1.6-1.9 3.1-2.3 3.4-.5 .3-.4 1.5 .2 2.8 .6 1.2 .8 2.2 .4 2.2-.5 0-1.4 1.1-2 2.5-.8 1.5-.9 2.5-.3 2.5 .6 0 .2 1.2-.9 2.8-1 1.5-1.7 3.3-1.5 4 .2 .6 0 1.2-.6 1.2-.5 0-1 .9-1 2 0 1.1 .5 2 1 2 .6 0 .5 1.2-.2 3-.7 1.7-1.7 3-2.3 3-.5-.1-.4 .6 .3 1.5 .6 .8 1 2.1 .8 2.8-.3 .6 0 1.7 .5 2.2 .7 .7 .5 2-.5 4-.8 1.7-1.3 3.2-1 3.5 .2 .3 .7 3 .9 6 .3 3 1 5.8 1.7 6.3 1 .5 1 .9-.2 1.6-1.1 .6-1.2 1-.2 1.5 .6 .3 1.2 1.6 1.2 2.9 0 1.2 .4 2.7 .9 3.2 .5 .6 1.4 3.6 2 6.8 .6 3.1 1.8 6.4 2.6 7.2 .8 .8 2 1.5 2.5 1.5 .6 0 1 .9 1 2 0 1.1 .6 2.6 1.4 3.3 .9 .7 1.2 2.1 .8 3.7-.4 1.8-.3 2.3 .6 1.8 .8-.5 1.7 .3 2.6 2.5 .8 1.7 2.8 4.7 4.5 6.5 1.7 1.7 3.1 3.7 3.1 4.2 0 .6 .3 .9 .8 .8 .4-.2 .9 .2 1 .7 .2 .6 .7 1.2 1.1 1.5 .3 .3 1.2 1.7 1.9 3.3 .8 1.8 1.7 2.5 3 2.2 1.1-.3 2.3 .6 3.6 2.8 1.1 1.7 1.9 4 1.8 5-.1 .9 .3 1.5 .8 1.2 .6-.3 1.5 .4 2 1.5 .6 1.1 2.2 2.3 3.8 2.6 1.5 .3 2.4 .8 2 1-.5 .2 .4 1.7 2 3.4 1.5 1.6 3.3 2.9 4 3 .6 0 1.3 .3 1.3 .8 .1 .4 .2 1.3 .3 2 0 .8 .9 1.9 1.8 2.5 1 .7 1.8 1.7 1.8 2.2 0 .6 1.2 2 2.5 3.3 2.2 1.9 2.5 2 2.5 .5 0-1.6 .1-1.6 1.4 .2 .8 1.1 1.2 2.6 1 3.3-.2 .7 .5 1.2 1.6 1.2 1.1 0 2.3 .6 2.8 1.3 .4 .8 1.9 2.1 3.5 3 1.5 1 2.7 2.5 2.7 3.5 0 1.4 .2 1.5 1 .2 .8-1.2 1-1.2 1 .5 0 1.6 1.3 2.4 7.5 4 4.3 1.1 7.5 2.5 7.5 3.3 0 .7 .8 1 2 .7 1.1-.3 2 0 2 .5 0 .6 1.1 1 2.5 1 1.4 0 2.3 .5 2 1-.3 .6 0 1 .5 1 .6 0 1.8 .8 2.8 1.8 1 .9 1.7 2.3 1.5 3-.2 .6 .5 1.9 1.5 2.8 1.3 1.2 1.4 1.7 .4 2.2-.8 .5-.4 1.1 1.3 2 1.4 .6 2.5 2 2.5 3 0 1.5-.2 1.5-1.1 .2-.8-1.1-.9-.9-.3 1 .3 1.4 .8 2.7 1.1 3 .2 .3 .8-.2 1.3-1 .8-1.3 1-1.2 1 .3 0 .9-.4 1.7-1 1.7-.5 0-1 .7-1 1.5 0 .8 .4 1.6 .9 1.8 .4 .1 1.1 3 1.5 6.5 .5 5.1 .3 6.2-.9 6.2-.8 0-1.5 .9-1.5 2 0 1.1 .7 2.2 1.5 2.5 1.2 .4 1.3 .8 .3 2.4l-1.3 1.9 1.3 1.6c0.7 1 .8 1.8 .2 2.1l-1 .5 1 1.5c0.7 1 .7 1.9 0 2.8-.5 .6-.7 1.4-.4 1.7 .2 .3 .5 3.1 .4 6.3 0 3.1 .5 5.9 1 6.2 .6 .3 .8 1.4 .5 2.5-.3 1.1 0 2.7 .5 3.5 .6 .8 .8 2.4 .5 3.5-.3 1.1 0 2 .5 2 .6 0 1.6 2.6 2.2 5.8 .7 3.1 1.1 6.5 1 7.5-.1 .9 .3 1.7 .8 1.7 .6 0 1 1 1 2.3 0 1.2 1.1 3.3 2.5 4.7 1.4 1.4 2.8 4.1 3.2 6 .3 1.9 .9 3.7 1.3 4 .4 .3 1.7 2.6 2.9 5.3 1.1 2.6 2.1 5.2 2.1 5.7 0 .6 .9 1.2 2 1.5 1.3 .3 2 1.4 2.1 3.3 .1 1.5 .2 3.4 .3 4.3 .1 .9 1.6 3.1 3.4 5 2 2.1 3.2 2.8 3.2 1.9 0-1 .6-.6 2 1 1.1 1.4 2.1 3 2.1 3.5 .1 .6 .1 1.3 0 1.8 0 .4 1.5 1.5 3.5 2.5 1.9 .9 3.7 2.6 4 3.7 .2 1.1 2.1 3.6 4.3 5.5 2.2 1.9 3.7 4.1 3.5 4.8-.2 .6 .4 1.3 1.4 1.4 .9 0 2.2 .2 2.7 .3 .6 .2 2 .7 3.3 1.1 1.4 .6 2.1 1.5 1.8 2.4-.3 .8 0 2.2 .7 3 .7 .8 2.6 2.4 4.2 3.5 1.7 1.1 3.3 2 3.7 2 .3 0 1 .4 1.5 .8 .4 .4 1.7 .7 2.8 .7 1.6 0 1.7 .2 .8 1.2l-1.2 1.3 1.2 1.1c0.7 .6 2.2 1.4 3.5 1.7 1.2 .4 3 2.3 4 4.2 .9 1.9 2.4 3.8 3.2 4.1 1.2 .4 1.3 .3 .2-.8-.7-.7-1.2-1.6-1.2-2 0-.5 .9-.3 2 .2 1.3 .7 1.8 1.7 1.5 3-.4 1.7 .1 2.1 3.3 2.7 2 .3 4.9 .7 6.4 .7 1.6 .1 2.8 .4 2.8 .9 0 .4 2 1.6 4.5 2.7 2.5 1.1 5 1.8 5.5 1.5 .6-.3 1.6 .2 2.3 1 .6 .9 1.8 1.6 2.5 1.5 .6 0 1.8 1.2 2.5 2.8 .7 1.7 2.2 2.8 3.7 3.1 1.4 .2 3.4 1.3 4.6 2.5 1.1 1.1 3.6 3.5 5.5 5.2 1.9 1.8 4.6 3.7 6.2 4.3 1.5 .6 2.7 1.6 2.7 2.1 0 .6 .6 1 1.3 1 .6 0 2.3 1 3.6 2.2 1.7 1.5 2.6 1.9 2.8 1.1 .2-1 1.2-1.1 4.1-.2 2 .5 4.4 1.1 5.2 1.1 .8 0 2 .4 2.5 .9 .6 .4 2.9 .7 5.3 .6 2.3-.1 4.2-.5 4.2-.9 0-.5 .5-.6 1-.3 .6 .3 .8 1 .5 1.5-.3 .6 .3 1.6 1.3 2.3l1.7 1.2-1.5-1.8-1.5-1.8 2.8 .1c1.8 0 3.2 .8 4.2 2.5 1.1 1.8 1.9 2.2 2.8 1.6 .8-.7 1.6-.4 2.5 1 .6 1 2.3 1.9 3.7 1.9 1.4 0 2.3 .5 2 1-.3 .6 1.2 1 3.5 1 2.3 0 4.2 .5 4.4 1.3l0.4 1.2 .1-1.2c0.1-.7 .8-1.3 1.6-1.3 .8 0 1.6 .5 1.8 1.1 .1 .6 2.5 1.3 5.2 1.5 2.8 .1 5.1 .8 5.3 1.4 .1 .7 .7 .7 1.7 0 1.1-.7 2.2-.3 4.3 1.6 2.1 2 3.3 2.5 5.5 2 1.6-.4 2.5-.2 2.2 .4-.3 .6 1 .9 3.1 .8 2.5-.2 3.8 .2 4.5 1.5 .5 .9 1.4 1.5 1.9 1.2 .6-.3 .8-.9 .5-1.5-.3-.5 0-1 .5-1 .6 0 1 .6 1 1.3 0 .9 .2 .8 .8-.2 .5-1 1.2-1.1 2.7-.2 1.1 .6 1.4 1.1 .8 1.1-.7 0-1.1 .5-.8 1 .3 .6 1.4 .5 3-.2 1.4-.7 2.5-1.6 2.5-2 0-.5 .8-.8 1.8-.7 .9 0 1.1 .2 .5 .5-.7 .2-1.1 .9-.8 1.4l0.5 1 2.5-1 2.5-1 .5 1c0.3 .6 1.7 1.2 3.3 1.5 1.5 .2 3.2 1 3.9 1.7 .6 .7 2.7 1.2 4.5 1 2.3-.1 4.1 .5 5.8 2.1 1.4 1.3 3.3 2.6 4.3 3 .9 .4 1.7 1.2 1.7 1.7 0 .6 .7 1 1.5 1 .9 0 1.3-.6 1-1.5-.3-1 .2-1.5 1.5-1.5 1.1 0 1.8 .3 1.6 .8-.2 .4 1.7 .8 4.2 .8 2.6 .1 6.5 .7 8.7 1.4 2.4 .7 5.4 .9 7.5 .5 1.9-.4 4.1-.9 4.8-1.1 .6-.2 1.2 .3 1.2 1.1 0 .8 .5 1.5 1 1.5 .6 0 .8-.8 .5-1.7-.3-1.4 .1-1.8 1.9-1.8 1.2 0 3 .6 3.9 1.3 1.3 .9 2.4 .9 4.5 .1 2.1-.9 3.4-.8 6.2 .5 2.2 1 3.9 1.3 4.5 .7 .6-.6 1.8-.4 3.3 .7 1.2 .9 2.6 1.3 3 .9 .4-.4-.3-1-1.5-1.2-1.3-.3-2.3-.9-2.3-1.5 0-.5 1-.7 2.3-.4 1.2 .3 6.8 .7 12.4 .8 6.1 0 10.3 .5 10.3 1.1 0 .6 .5 .4 1.2-.3 .7-.7 1.9-1.2 2.6-1.2 .6 0 1 .7 .7 1.5-.4 1.2 .5 1.4 5.3 1.1 3.1-.2 4.8-.1 3.7 .3-1.6 .6-1.7 .9-.6 1.7 .9 .6 1.5 .5 2-.4 .3-.7 2.8-1.2 6.1-1.3 3 0 6.9-.1 8.6-.2 1.9-.1 2.7-.5 2-1-.6-.4 1.1-.6 3.7-.5 2.7 .2 5.1 0 5.3-.4 .2-.5 .9-.8 1.4-.8 .6 0 1 .7 1 1.5 0 .8 .3 1.5 .8 1.5 .4 0 1.3-.5 2-1.2 .7-.7 1.2-.8 1.2-.3-.1 .6 .5 .5 1.2-.2 .7-.6 2.5-.9 4.1-.7 1.5 .2 2.5 .9 2.2 1.4-.3 .6 .1 .9 .9 .8 .8-.2 1.8-.6 2.3-1.1 .4-.4 2.3-.5 4.1-.2 1.7 .3 3.9 .1 4.7-.5l1.5-1 .5 1c0.3 .6 2.1 1 4 1 1.9 0 4.1-.6 4.8-1.4l1.2-1.5 2.3 1.5c1.2 .8 3 1.1 4 .7 .9-.3 2-1.1 2.4-1.7 .5-.8 2-.7 5.3 .2 2.5 .6 5 1 5.5 .7 .6-.3 2.6 .5 4.5 1.8 2 1.2 3.9 1.8 4.3 1.4 .4-.5 .7-1.4 .7-2 0-.7 .9-1.4 2-1.6 1.4-.3 1.8 0 1.4 1-.5 1 .1 1.4 2 1.3 1.4-.1 2.7-.5 2.9-1 .1-.5 1.9-.8 4-.6 2.6 .2 3.3 .1 2.2-.6-.9-.6-1.1-1.2-.5-1.5 .6-.4 2 .2 3.3 1.3 1.7 1.6 2.2 1.7 2.2 .5l0-1.5 2.5 1.5c1.4 .8 3.2 1.5 4 1.5 .8 0 1.3-.6 1.1-1.2-.3-.7-.2-1.6 .2-2 .4-.4 2.1-.2 3.7 .3 1.7 .6 4.6 1.3 6.5 1.5 1.9 .2 4.7 .7 6.3 .9 1.8 .3 2.6 .1 2.5-.7-.2-.8 .8-1.1 3.2-.9 1.9 .2 3.8 .8 4.1 1.5 .5 .7 .9 .6 1.3-.4 .4-1.1 .7-1.2 1.1-.2 .3 .6 1.2 1.2 2 1.2 .9 0 1.3-.6 1-1.7-.4-1.4 .2-1.8 2.8-2 1.7-.1 3.4-.6 3.7-1.2 .3-.6 2.1-1.5 4-2.1 1.9-.5 4.7-1 6.3-1 1.5 0 2.5-.4 2.2-1-.3-.5 .7-1.2 2.3-1.4 1.5-.2 3.4 0 4.2 .4 .9 .5 2.5 .4 4-.4 1.4-.7 3.2-1.1 4-.8 .8 .2 1.8-.2 2.3-.9 .5-1.1 .9-1.1 1.5-.2 .4 .6 1.9 1.6 3.5 2.2 2.2 .9 2.9 .8 4-.4 .6-.9 2.4-1.6 4-1.5 1.5 0 2.5-.3 2.3-.7-.3-.5 1.9-1.3 4.7-2 2.9-.7 6.9-1.5 9-1.8 2-.3 3.8-1 4-1.6 .1-.5 2.2-1.2 4.7-1.5 2.5-.3 5-.9 5.5-1.2 .6-.4 1.9-.5 3-.3 1.1 .2 2.3 .8 2.7 1.5 .4 .6 .8 .7 .8 .1 0-.5 1.9-1.4 4.2-1.8 2.4-.5 4.6-1.4 5-2 .5-.9 1.1-.6 2 .7l1.3 1.9 2.3-2.2c1.2-1.1 2.7-1.9 3.2-1.6 .6 .3 1.1 0 1.3-.6 .1-.7 2.8-1.1 6.7-1.1 3.8 0 6.8-.5 7.2-1.2 .5-.7 4.4-1.1 10.5-1.2 5.4-.1 10.7-.6 11.8-1.2 1.4-.8 1.6-1.2 .5-1.2-1.2 0-1.1-.3 .3-1 1.1-.7 2.8-.6 5 .2l3.2 1.1 .3-1.1c0.1-.7 1.1-1.2 2.2-1.2 1.1 0 2-.3 2-.7 0-.5 1.8-1.1 4-1.5 2.2-.5 4-1.2 4-1.8 0-.5 .9-1 2-1 1.1 0 2.2-.4 2.5-1 .3-.5 1-1 1.5-1 .6 0 .8 .5 .5 1-.3 .6 .6 1 2 1 1.4 0 2.3-.4 2-1-.3-.6 1.5-.9 4.8-.8 4.5 .2 5.6-.2 8-2.5 2-2 3.7-2.7 6.7-2.7 2.2 0 4.2-.4 4.5-1 .3-.5 1.7-1 3.3-.9l2.7 .1 1.3-.1c0.6-.1 1-.7 .7-1.3-.3-.8 1.1-2 3.3-3 2-1 4.3-1.8 5-1.8 .6 0 1.6-.8 2.2-1.7 .5-1 1-1.2 1-.5 0 .7 1.6 0 3.8-1.7 2-1.5 4.2-2.6 4.7-2.4 .6 .2 1.7-.3 2.5-1.2 .8-.9 1.8-1.6 2.3-1.5 .4 0 1.7-.4 3-.9 1.2-.5 2.7-.9 3.2-1.1 .6-.1 2.6-1.3 4.5-2.8 3-2.4 3.4-2.5 2.7-.7l-.7 2 1.7-2.1c1-1.1 3.2-2.8 4.8-3.6 1.7-.9 3.9-1.6 5-1.5 1.3 .1 1.9-.3 1.6-1.3-.2-1.1 .1-1.3 1.3-.7 1 .4 1.8 .2 2.1-.8 .3-.8 1.3-1.5 2.3-1.5 .9 0 2.5-.9 3.5-2 .9-1.1 2.4-2 3.2-2 .8 0 2-1 2.6-2.2 .7-1.3 1.7-2.6 2.3-3 .6-.4 3-.9 5.4-1.2 2.3-.3 4.2-1 4.2-1.6 0-.5-.6-1-1.2-1-.7 0-.3-.7 1-1.5 1.2-.8 2.7-1.3 3.2-1 .6 .3 1.5-.4 2-1.5 .6-1.1 1.7-2 2.5-2 .9 0 1.4-.7 1.3-1.7-.2-1.4 .4-1.7 3-1.5 2.3 .1 3.9-.5 5.7-2.3 1.4-1.4 2.2-2.7 1.8-3-.5-.3 .1-1.4 1.2-2.4 1.2-1.2 2.8-1.7 4-1.4 1.2 .4 2.5-.1 3.3-1.1 .6-.9 1.7-1.4 2.2-1.1 .6 .3 1.6-.4 2.3-1.5 .6-1.1 2-2 3-2 .9 0 1.7-.3 1.7-.7-.1-.5 1.1-2 2.5-3.5 1.4-1.6 3.2-2.6 4-2.3 .9 .3 2-.5 2.7-2.2 .7-1.6 2.1-3.4 3-4 1-.7 1.6-1.7 1.3-2.3-.3-.5 .1-1.7 .8-2.6 .9-1.2 1.3-1.2 1.8-.2 .4 .7 1-.6 1.3-2.9 .4-2.9 1.1-4.3 2.1-4.3 .8 0 1.5-.7 1.5-1.5 0-.8 1.5-2.1 3.3-2.9 1.9-.9 3.2-2.2 3.2-3.2 0-1.1 1-2.1 2.5-2.4 1.8-.5 2.4-1.2 2.3-2.8-.3-1.8 .4-2.3 3.2-2.9 2-.5 3.4-1.2 3.1-1.8-.2-.5 0-1.7 .4-2.5 .5-.8 1.5-1.5 2.2-1.5 .7 0 1.2-.9 1-2-.2-1.2 .8-3 2.3-4.2 1.4-1.3 2.5-2.7 2.5-3.3 0-.5 .8-1.2 1.8-1.5 .9-.3 2.5-2.2 3.4-4.3 1.1-2.2 3.1-4.3 5-5.3 2.6-1.3 3.2-2.1 3.1-4.2-.2-1.9 .1-2.5 .9-1.9 .9 .4 1 .3 .5-.5-.4-.8-.1-1.5 .8-1.8 .8-.3 1.5-1.6 1.5-3 0-1.6 1.6-4.1 4.5-7 2.7-2.7 4.3-5.1 4-6-.3-.8 .3-1.8 1.3-2.2 .9-.3 2-.5 2.5-.5 .4 .1 .5-.9 .2-2.3-.4-1.9 0-2.6 1.5-3 1.2-.3 2-1.3 2-2.5 0-1.1 .5-2 1-2 .6 0 1.3-1.2 1.6-2.7 .3-1.6 1.7-3.8 3-5 1.3-1.3 2.4-2.5 2.4-2.8 0-.3-.8-.6-1.7-.8-1.6-.2-1.6-.5 .5-2.5 1.2-1.2 2.2-2.9 2.2-3.7 0-.8 .9-2.3 2-3.2 1.1-1 2-2.6 2-3.5 0-1 .5-2 1-2.3 .6-.3 1-2.1 1-4 0-1.9 .3-3.5 .8-3.5 .4 0 1.6-2.4 2.6-5.2 1.1-2.9 1.9-5.7 1.8-6.3-.2-.5 .4-1.7 1.3-2.5 .8-.8 1.3-1.7 1-2-.2-.3 .4-2.3 1.5-4.5 1.1-2.2 2-5.5 2-7.2 0-1.8 .5-3.3 1-3.3 .6 0 .8-.8 .5-1.7-.3-1-.1-2.2 .4-2.8 .5-.5 1-2.6 1.2-4.5 .2-1.9 0-4.1-.4-4.7-.4-.8 .1-1.6 1.4-2 1.5-.6 2-1.5 1.7-3-.1-1.3 .1-2.4 .6-2.5 .4-.2 .8-1.6 .8-3.3 .1-2 1-3.8 2.7-5.4 1.4-1.3 2-2.1 1.4-1.7-.7 .3-1.3 .2-1.3-.4 0-.5 .9-1.9 2-3 1.6-1.6 1.8-2.4 1-4-.8-1.5-.6-2.3 .5-3.2 .9-.7 1.6-1.7 1.5-2.3 0-.5 1.6-2.3 3.6-4 2-1.6 3.9-3 4.2-3.1 .4 0 2.1-.6 3.7-1.3 1.9-.8 3.5-.9 4.5-.3 .8 .5 3 .8 4.8 .6 2.5-.3 3.1-.1 2.7 1.1-.4 1.1 .1 1.4 1.8 1.3 1.3-.2 2.1 .2 2 1-.2 .6 .2 1.2 .7 1.2 .6 0 1-.6 1-1.2 0-.9 .3-.8 .9 .2 .5 .8 .7 2 .5 2.5-.3 .6 .4 1.3 1.6 1.8 1.1 .4 2 1.6 2 2.7 0 1.1 .6 2.3 1.3 2.7 .6 .4 1.9 .9 2.7 1 .8 .1 1.8 .8 2.2 1.5 .4 .7 .5 1.6 .2 2.1-.2 .4 .4 .4 1.4 0 1.3-.6 1.5-.4 1 1-.5 .9-.3 1.9 .2 2.2 .6 .3 1.2 .1 1.5-.5 .3-.5 1.1-.7 1.8-.4 .9 .5 .8 .9-.3 1.5-1.2 .7-1.3 1-.2 2.1 .7 .7 1.9 1.4 2.5 1.5 .7 0 2.4 .6 4 1.2 1.5 .6 2.9 1.8 3.2 2.6 .3 .8 1.6 1.5 3 1.5 1.4 0 2.3 .5 2 1-.3 .6 .6 .8 2.3 .4l2.7-.7-.7 .7c-.5 .3-.1 1.3 .7 2.1 .8 .8 2.1 1.3 2.8 1.1 .6-.2 1.9 0 2.7 .4 .9 .6 2 .4 2.8-.3 1-1 1.4-.6 1.8 1.8 .3 1.9 1.4 3.5 3.2 4.4 1.5 .8 3.3 1.4 4 1.3 .6-.1 1.2 .4 1.2 1.1 0 .6 .8 1.7 1.8 2.2 1 .6 3.5 2 5.5 3.3 3 1.8 3.6 2.6 3.1 4.5-.4 1.3-.1 2.5 .8 2.9 .9 .6 1 .8 .1 .8-.7 0-1 .6-.7 1.3 .5 .9 .9 .8 1.5-.3 .8-1.3 1.1-1.3 2.2 .1 .8 1.2 2.1 1.5 4.2 1.2 2.1-.3 3.8 .1 5.8 1.6 1.5 1.2 3.3 2.2 3.9 2.4 .7 .1 1.8 .8 2.5 1.5 .7 .6 3 1.3 5.1 1.4l3.7 .1 1.3-.1c0.6-.1 1.2 .5 1.2 1.3 0 .8 .6 2.1 1.3 2.8 .6 .6 2.2 1.3 3.5 1.5 1.7 .1 2.1-.2 1.6-1.5-.4-1 .4-.6 1.7 1 1.9 2.1 3.3 2.8 6.2 2.7 2 0 3.7 .5 3.7 1 0 .6 .9 .8 2 .5 1.1-.3 3 .1 4.3 .9l2.2 1.3 1.3-1.3c0.6-.8 2.4-1.4 4-1.4 1.5 0 3.5 .8 4.5 1.8 1.1 1.1 1.8 1.3 1.7 .5 0-.7 .9-1.3 2-1.3 1.1 0 2.2 .5 2.5 1 .3 .6 1.2 1 2 1 .9 0 1.3-.6 1-1.5-.3-.9 .1-1.5 1.3-1.5 .9 0 3.3 .5 5.2 1.1 2.6 .8 4.2 .8 6.3 0 1.8-.7 3.1-.8 4-.1 .6 .5 2.8 .7 4.7 .4 1.9-.3 4.2-.8 5-1.2 .8-.3 1.7-.6 2-.7 .3-.2 .7-.3 1-.5 .3-.1 1.4-.4 2.5-.7 1.1-.2 4.3-.7 7-.9 2.8-.2 6.2-.4 7.8-.4 1.5 0 2.9-.4 3.2-1 .3-.6 1.7-.7 3.5-.2 2.4 .6 3.4 .3 5-1.5 1.2-1.4 1.5-2.3 .8-2.3-.7 0-1.1-.2-.8-.5 .3-.2 1.9-.8 3.5-1.1 1.7-.3 4.9-.7 7.3-.8 2.3 0 4.2-.4 4.2-.8 0-.5 .9-.6 2-.3 1.1 .3 2.7 .2 3.5-.2 .7-.5 2.6-2.4 4-4.3 1.4-1.9 2.5-2.9 2.5-2.2 0 .8 1 1 3.3 .6 1.7-.4 3.5-1.3 4-2 .4-.8 1.4-1.4 2.2-1.4 .8 0 2.1-.9 2.8-2 .6-1.1 1.8-2 2.5-2 .6 0 1.2-.3 1.2-.7 0-.5 1.2-1.3 2.8-2 1.6-.7 4-.9 6-.5 2.3 .5 3.2 .3 3.2-.5 0-.7 1.1-1.9 2.5-2.5 1.4-.7 2.4-1.7 2.2-2.3-.2-.5 1-1.6 2.7-2.3 1.7-.6 2.8-1.4 2.4-1.7-.5-.3 0-1.4 1-2.4 .9-1.1 2.3-1.8 3-1.5 .6 .2 1.4-.5 1.7-1.6 .3-1.1 1.2-2 2-2 .8 0 1.3-.4 1-1-.3-.5 .4-1 1.5-1 1.5 0 1.9-.5 1.5-2-.4-1.5-.1-1.9 1-1.5 .9 .3 1.5-.1 1.5-1 0-.8 .8-1.8 1.8-2.2 .9-.5 1.7-1.7 1.7-2.8 0-1.5 .6-2 2.5-1.8 1.4 .1 1.9 0 1.3-.3l-1.3-.4 1.3-1.9c0.8-1.3 1.7-1.7 2.7-1.2 1 .6 2.2 .2 3.5-1.1 1.5-1.4 1.7-1.8 .5-1.8-1 0-1.1-.3-.4-.8 .7-.4 1.9-2.7 2.7-5.2 .9-2.5 1.6-4 1.7-3.5 0 .6 .5 .3 1-.5 .6-1 1-1.1 1-.2 0 .6 .6 .9 1.3 .6 .9-.5 .9-.8-.1-1.3l-1.4-.6 1.4-2.3c0.7-1.2 1.9-2 2.6-1.7 .8 .3 1-.2 .6-1.7-.6-2-.5-2.1 1-1 1 .7 1.8 .8 2.1 .2 .3-.5 .2-1.7-.2-2.5-.5-.9-.1-2.3 1-3.5 .9-1.1 1.5-2.4 1.2-3-.3-.5 .9-2.3 2.5-4 1.7-1.6 2.8-3.4 2.5-4-.3-.5 .4-1.4 1.5-2 1.3-.7 1.8-1.7 1.5-3-.3-1.2 .1-2.2 1-2.5 .8-.3 1.2-1.1 .9-1.7-.3-.7 .4-2.9 1.5-4.8 1.2-1.9 2.4-3.3 2.8-3 .5 .3 .9-1.4 1.1-3.7 .1-2.4 .7-4.3 1.2-4.3 .6 0 1-1.3 1-3 0-1.8 .6-3.2 1.5-3.5 .8-.3 1.5-1.2 1.5-2 0-.8 .5-1.5 1-1.5 .6 0 .8-.9 .5-2-.3-1.1 0-2 .5-2 .6 0 1-.7 1-1.5 0-.8-.6-1.7-1.2-1.9l-1.3-.4 1.3-.1c0.6-.1 1.2-.8 1.2-1.6 0-.8 .3-1.3 .8-1.1 .4 .3 1-1.7 1.3-4.2 .3-2.6 .5-7.3 .5-10.4l-.1-5.8 2.3 0c1.2 0 2.2-.6 2.2-1.2 0-.7-.4-1.7-1-2.3-.7-.7-.5-1.7 .7-3.1 1.1-1.3 1.9-4.2 2.1-7.5 .2-3 .3-6.1 .3-6.9-.1-.8-.1-3.7 0-6.5 0-2.7 .1-7.1 .2-9.7 .1-3.3-.2-4.8-1-4.8-.7 0-1.3-.4-1.3-1 0-.5 .3-1 .8-1 .4 0 .8-1 .9-2.2 .1-1.3-.2-3.8-.7-5.5-.7-2.4-.6-4 .3-5.8 .6-1.4 1.7-2.6 2.2-2.6 .6 0 .1-.6-1-1.4-1.6-1.2-1.8-1.7-.7-2.8 .7-.6 1.2-1.5 1.2-1.9 0-.5-.4-.6-1-.3-.5 .3-1-.3-1-1.2 .1-1 .8-2.3 1.8-3 1-.8 1.2-1.2 .5-1.3-.7 0-1.3-1.1-1.3-2.5 0-1.4-.4-2.7-1-3-.5-.3-1-1.4-1-2.5 0-1.1-.4-2-1-2l-1 0 1-2.5c0.6-1.4 1-2.7 1-3l0-.5-2 .5-2 .5 .3-6.5c0.1-3.6-.1-6.5-.5-6.5-.5 0-.5-1.2-.2-2.7 .4-1.7 .1-4-.9-5.8-.8-1.6-1.3-4.3-1.1-6 .2-1.6 0-5-.5-7.5-.5-2.5-1-3.6-1.1-2.5-.1 1.1-.8-.9-1.4-4.5-.6-3.6-1.5-6.3-1.9-6-.4 .3-1.2-.2-1.7-1-.5-.8-.7-2.5-.5-3.7 .3-1.3 .1-3-.5-3.8-.5-.8-.8-2.2-.5-3 .3-1 .1-1.2-.7-.7-.9 .5-1 0-.5-2 .4-1.8 .3-2.6-.3-2.3-.5 .3-.9-.5-.9-1.7 .1-1.3-.3-3.8-1-5.5-.6-1.8-1.5-3.3-2.1-3.3-.5 0-.8-.9-.5-2 .3-1.1 .2-1.9-.2-1.9l-.8 .1-1.2-.1c-.7 0-1.3-.8-1.3-1.6 0-.8-.4-1.5-1-1.5-.5 0-1-1.2-1-2.7 0-1.7-1.2-4-2.8-5.8-1.6-1.6-3.2-4.3-3.7-6-.5-1.6-.9-3.5-.9-4.2-.1-.6-1.1-2.2-2.3-3.5-1.3-1.3-2.3-2.6-2.3-3 0-.5 .8-.5 1.8-.2 1.5 .5 1.5 .4 .2-1-.8-.9-1.6-1.4-1.7-1.1-.2 .3-1-.2-1.8-1-.8-.8-1.5-2.1-1.5-2.7 .1-.7-1.5-2.6-3.4-4.3-1.9-1.6-3.5-3.3-3.6-3.7 0-.5-1.2-2.1-2.7-3.7-1.6-1.6-4.5-4.7-6.5-7-2.1-2.3-3.8-4.4-3.8-4.8 0-.5-1.4-2.3-3-4-1.7-1.8-3-3.7-3-4.3 0-.5-2-2.2-4.5-3.7-2.4-1.6-4.4-3.6-4.5-4.5 0-1-.9-2.2-2-2.8-1.1-.5-2.2-1.8-2.5-2.7-.3-1-1.7-2.6-3.2-3.6-1.6-1-3.8-3.6-5-5.8-1.3-2.1-2.9-3.9-3.5-3.9-.7 .1-2.2-.9-3.3-2.1-1.1-1.2-3.7-3-5.7-4-2.1-1-3.8-2.3-3.8-2.9 0-.5-.3-1-.7-.9-.5 .1-1.8-.2-3-.5-1.3-.3-2.3-1-2.3-1.6 0-.5-.7-1-1.5-1-.9 0-1.3-.6-1-1.5 .4-1.1-.3-1.5-2.2-1.7-1.6 0-3.3-.1-3.9-.2-.6-.1-1.7-.6-2.5-1.2-.8-.6-2.6-1.4-4.1-1.8-1.6-.3-2.8-1-2.8-1.6 0-.5-.6-1-1.2-1-.7 .1-2.5-1-3.9-2.2-1.4-1.3-3.6-2.4-5-2.6-1.3-.2-3.9-.4-5.7-.5-1.8-.1-3.6-.7-4-1.4-.4-.7-2.9-1.4-5.6-1.5-2.8-.2-5-.8-5.2-1.5-.2-.7-1.6-1.2-3.1-1.1-1.6 .1-5.2-.6-8-1.5-2.9-.9-5.7-1.5-6.3-1.2-.5 .3-1.1 .1-1.2-.4-.2-.6-4.6-.7-10.8-.3-5.8 .3-10.9 1.1-11.4 1.7-.5 .5-2.7 .8-5 .6-2.2-.2-6.8 .4-10.1 1.4-3.3 .9-7.1 2.3-8.5 3-1.4 .8-4 1.2-5.7 1-1.9-.3-3.3-.1-3.3 .5 0 .6-.8 1-1.7 1-1 0-2.2 .5-2.8 1.1-.5 .6-3.2 1.1-5.8 1.2-2.6 .1-5.1 .7-5.5 1.3-.4 .6-1.6 1.4-2.7 1.9-1.1 .4-2.2 .9-2.5 .9-.3 .1-2.4 1.4-4.7 2.9-2.4 1.5-5 2.7-5.8 2.7-.8 0-1.5 .7-1.5 1.5 0 .9-.9 1.5-2.5 1.5-1.7 0-2.8 .8-3.5 2.5-.5 1.4-1.6 2.5-2.2 2.5-.7 0-2.9 1.1-4.8 2.5-1.9 1.4-4.1 2.3-4.7 2-.8-.3-1.3 .3-1.3 1.5 0 1.1-.3 2-.7 2-.5 0-2.6 1.7-4.9 3.7-2.2 2.1-3.9 4.4-3.7 5.1 .2 .6-.3 1-.9 .7-.8-.3-2.2 1.1-3.4 3.2-1.1 2.1-2.6 3.7-3.2 3.6-.7-.2-1.2 .6-1.2 1.7 0 1.1-.4 2-1 2-.5 0-1.3 .8-1.7 1.8-.4 .9-1.5 2.5-2.5 3.5-1 .9-2.2 1.7-2.8 1.7-.5 0-.8 .6-.5 1.3 .3 .6-.6 2.3-2 3.7-1.4 1.4-2.5 3.3-2.5 4.3 0 .9-.7 2.8-1.5 4.2-1.2 2-1.3 2.8-.2 4l1.2 1.6-1.2-.1c-.7 0-1.4 1.2-1.5 2.7-.2 1.7-1.1 3.1-2.5 3.8-1.8 .8-2 1.3-1 2.3 1 1 .4 2-2.8 5-2.9 2.7-5 3.7-7.3 3.7-1.7 0-3.2-.3-3.2-.7 0-.5-1.1-.8-2.5-.8-1.5 0-2.9-.8-3.5-2-.5-1.1-1.7-2-2.5-2-.8 0-2.5-1.2-3.7-2.6-1.3-1.4-2.3-3.1-2.4-3.7 0-.7-.3-1.9-.7-2.7-.3-.8-1-3.5-1.5-6-.6-2.6-.7-5.3-.2-6.5 .5-1.2 .4-3.7-.1-6-.6-2.2-.8-4.8-.5-5.7 .4-1.1-.1-2.5-1.1-3.5-1-.9-1.9-2.8-2.1-4.2-.1-1.4-.3-3.8-.5-5.4-.1-1.5-.5-2.7-.9-2.7-.5 0-.8-1.1-.8-2.5 0-1.4-.4-2.5-1-2.5-.5 0-.8-.6-.6-1.2 .2-.7-.3-2.9-1.1-4.8-.8-1.9-1.9-4.3-2.4-5.2-.5-1-.7-2.2-.4-2.8 .3-.5 .2-.9-.2-.9l-.8 .1-1.2-.1c-.7 0-1.3-.9-1.3-1.8 0-1.5 .2-1.6 1-.3 .8 1.2 1 1.1 1-.7 0-1.4-.6-2.3-1.5-2.3-.8 0-1.7-1-2-2.2-.4-1.9-.7-2-1.4-.8-.6 1.1-1 1.2-1.5 .3-.3-.7-.1-2 .4-2.8 .7-1 .7-1.9 0-2.7-.5-.7-.7-1.6-.2-2.1 .4-.4 .1-.7-.5-.7-.7 0-2-1.5-2.9-3.2-.8-1.8-2.3-4.6-3.2-6.3-1-1.6-2.2-3.7-2.7-4.5-.5-.8-1.1-3.5-1.2-6-.1-2.5-.5-6.5-.8-9-.5-3.4-.2-4.9 1-6 .9-.8 1.5-2.4 1.3-3.5-.2-1.2 .5-3.3 1.5-4.8 1-1.7 2.2-2.4 2.9-1.9 .9 .5 1 .1 .6-1.3-.4-1.3 0-2.7 1.3-4 1.1-1.1 2-2.6 1.9-3.2 0-.7 .7-1.3 1.5-1.3 .8 0 1.5-.6 1.5-1.2 0-.7 .3-1 .7-.6 .5 .4 1.6-.4 2.6-1.7 .9-1.4 1.7-3.2 1.7-4 0-.8 .5-1.5 1-1.5 .6 0 1-.9 1-2 0-1.1 .7-2 1.5-2 .8 0 1.3-.4 1-1-.3-.5 .6-1.2 2-1.5 1.4-.3 2.5-.9 2.5-1.5 0-.5 1-2.1 2.3-3.5 1.2-1.4 2.8-2.5 3.5-2.5 .6 0 1.2-.4 1.2-1 0-.5 .5-.7 1.2-.2 .8 .5 1 .1 .5-1.5-.4-1.3-.2-2.5 .3-2.8 .6-.3 1 0 1 .5 0 .6 .5 1 1 1 .6 0 .9-.5 .8-1.1-.2-.6 1.1-1.8 2.7-2.7 1.7-1 3-2.4 3.1-3.2 .1-.8 .2-1.8 .3-2.2 0-.5 .7-.8 1.4-.8 .6 0 2-.9 3-2 .9-1.1 2.4-3.1 3.2-4.5 .8-1.4 2-2.3 2.5-2 .6 .3 1-.2 1-1 0-.8 .5-1.5 1-1.5 .6 0 .8-.3 .5-.7-.2-.5 .4-1.7 1.5-2.8 1.1-1.1 2.2-3 2.5-4.2 .3-1.5 1.2-2.3 2.5-2.3 1.1 0 2-.7 2-1.5 0-.8 1-1.9 2.3-2.4 1.2-.5 3.9-2.8 6-5 2-2.3 3.8-4 4-3.8 .1 .1-.3-.2-1-.8-1-.8-.5-1.4 1.8-2.5 1.6-.8 3-2.1 2.9-2.7 0-.7 1.1-1.3 2.5-1.3 1.6 0 2.5-.6 2.5-1.5 0-.8 .9-1.7 2-2 1.2-.3 2-1.3 2-2.5 0-1.2 .7-2.1 1.8-2.2l1.7-.1 1.3 .1c0.6 .1 1.1-.4 1-1.1-.2-.8 1.4-3.3 3.5-5.5 2-2.3 4.2-4.2 4.7-4.2 .6 0 .8-.4 .5-1-.3-.5 .2-1 1-1 .8 0 1.3-.6 1.1-1.2-.3-.7 .6-2.3 2-3.5 1.3-1.3 2.9-2.1 3.4-1.8 .6 .3 .9-.3 .8-1.2-.2-1 .2-1.7 .7-1.6 .6 .1 1.7-.9 2.5-2.3 .8-1.3 2.2-2.5 3-2.6 .8 0 2.2-.1 3-.2 .8-.1 3.9-2.3 6.7-5.1 2.9-2.7 5.3-5.6 5.3-6.2 0-.7 1.1-1.5 2.5-1.8l2.5-.5 1 .5c0.6 .3 1-.2 1-1 0-1 .5-1.3 1.8-.8 1.2 .5 1.5 .4 1-.5-.5-.6-.3-1.5 .3-1.9 .6-.5 1.5-.1 2 .7 .7 1.3 1 1.2 2.1-.3 1.1-1.6 1.6-1.7 4-.5 1.5 .7 3.1 .9 3.5 .5 .5-.4 .1-1.2-.7-1.7-1.2-.8-1-1 .8-1 1.7 0 2 .4 1.5 1.8l-.7 1.7 1.8-1.5c0.9-.8 1.6-1 1.6-.5-.1 .6 .4 .6 1.2-.1 .7-.6 3.6-1.2 6.3-1.3 2.8-.1 5.6-.8 6.4-1.4 1.1-.9 1.5-.9 1.8 .1 .1 .6 1 1.2 1.8 1.2 .8 0 1.5-.7 1.5-1.5 0-1.3 1.4-1.4 8.8-1 4.8 .3 10.8 1.2 13.5 2 3.7 1.2 4.6 1.9 4.2 3.3-.3 1 .4 2.6 2 4 1.4 1.2 3.2 2.2 4 2.2 .8 0 1.8 .6 2.2 1.3 .4 .6 .6 2.2 .5 3.5-.1 1.6 .2 2.1 1.3 1.7 .8-.3 1.8 .3 2.2 1.3 .4 .9 2 3.2 3.7 5.1 1.7 1.9 3.8 4.1 4.7 5 .9 .9 2.6 2.4 3.7 3.4 1.2 .9 2.7 1.7 3.2 1.7 .6 0 1 .7 1 1.5 0 .8 .8 1.6 1.8 1.6 .9 .1 2.6 .1 3.7 0 1.6-.2 1.7 0 .5 .7-1.1 .7-.2 1.3 3.8 2.1 2.8 .6 5.2 1.4 5.2 1.9 0 .4 1.4 1.2 3.2 1.9 1.8 .7 3.7 .9 4.3 .5 .6-.4 .7 0 .2 1.1-.5 1.2-.2 1.9 1.1 2.2 .9 .3 2.2 .1 2.7-.4 .6-.6 2.4-.4 5 .5 2.2 .8 4.3 1.4 4.8 1.4 .4 0 .7-.7 .7-1.5 0-1.1 1.2-1.5 4.8-1.6 3.5 0 4.2-.3 2.7-.9l-2-.9 2.3 0c1.2-.1 2.4-.5 2.7-1.1 .3-.5-.2-1-1-1-1.2 0-1.1-.3 .3-1.7 1-1 2.8-2.4 4-3 1.2-.7 2.8-1.3 3.5-1.3 .6 0 1.7-1 2.2-2.2 .7-1.6 1.8-2.2 3.3-2 1.5 .1 2.4-.4 2.7-1.8 .3-1.1 1.2-2 2-2 .8 0 1.8-.6 2.3-1.3 .4-.6 1.8-1.8 3.2-2.5 1.4-.7 3.5-2.9 4.8-5 1.3-2 2.4-4.1 2.5-4.7 0-.5 .6-1.4 1.2-2 .6-.5 1.4-3.2 1.9-6 .5-3.5 1-4.5 1.6-3.5 .7 1.2 .9 1.2 1.4-.5 .4-1.1 .4-2.8 .1-3.7-.3-1 0-1.8 .5-1.8 .6 0 .9-.8 .8-1.7-.1-1 .3-3.4 .9-5.3 .7-2.2 .7-5.2 .2-8-.4-2.5-.8-4.8-.9-5.2 0-.5 .6-.8 1.3-.8 .6 0 1.9-1.8 2.7-4 .8-2.3 2.8-5.1 4.3-6.3 1.5-1.2 2.7-2.9 2.7-3.7-.1-1.2 .2-1.3 1.2-.3 1 1 1.7 1 3.3-.1 1.1-.8 2.5-1.2 3-.9 .6 .2 3-.5 5.5-1.5 2.5-1.1 6.9-2.4 9.8-2.9 2.9-.4 5.2-1.1 5.2-1.5 0-.5 .9-1 2-1.3 1.4-.3 1.8-1.1 1.5-2.2-.3-1 .1-2.4 1-3 .8-.7 1.8-1.2 2.3-1.1 .4 .1 1.9-.4 3.5-1 1.5-.7 2.9-2.1 3.2-3.2 .3-1.1 1.1-1.8 1.8-1.5 .8 .3 1.1-.4 .8-2.3-.4-1.9-.1-2.5 .7-1.9 .7 .4 1 1.2 .7 1.7-.3 .6 0 1 .5 1 .6 0 1-.8 1-1.7-.1-1 1.3-3.6 2.9-5.8 1.7-2.2 3.7-4.7 4.4-5.5 .7-.8 2.6-4.2 4.3-7.5 1.6-3.3 3.3-6.2 3.7-6.5 .5-.3 .4-1.5-.2-2.7-.6-1.3-.9-2.7-.6-3.3 .3-.5 1-.8 1.5-.5 .6 .3 .9 .2 .9-.2l-.1-.8 .1-1.2c0-.7 .6-1.1 1.1-.8 .6 .3 .8-.6 .5-2.2-.3-1.6-.6-3.7-.8-4.9-.1-1.1-.8-2.7-1.5-3.5-.9-1.1-1-2.1-.1-4.4 .7-2.1 .7-3.1 0-3.2-.6-.2-.9-1.4-.6-2.8 .3-1.4 .2-2.5-.2-2.5-.5 0-1.4-1.8-2-4-.9-2.7-1.9-4-3-4-1.5 0-1.7-.5-1-3 .6-2.6 .4-3-1.3-3-1.3 0-2-.7-2-2 0-1.1-.6-1.9-1.2-1.7-.7 .2-1.8-.8-2.4-2.2-.5-1.4-2.5-3.3-4.2-4.1-1.9-.9-3-2-2.7-2.7 .3-.7 .1-1.1-.5-.8-.5 .3-3.2-1.1-6-3-2.7-1.9-5.6-3.5-6.2-3.5-.7 0-3.4-1.1-6-2.5-2.7-1.4-5-2.2-5.3-1.7-.2 .4-3.3-.7-6.7-2.5-3.5-1.8-7.3-4.2-8.5-5.3-1.3-1.1-2.1-2.4-1.8-3 .3-.5-.1-.8-.7-.5-.9 .4-2-2.1-3.5-7.7-1.2-4.7-1.8-8.4-1.3-8.5 .6-.2 1-1.8 1-3.5 0-1.8-.5-3.7-1.1-4.3-.8-.7-.7-2.1 .1-5 .7-2.2 1.7-5.1 2.2-6.5 .4-1.4 .6-2.7 .3-3-.3-.3-.5 .1-.5 .8 0 .6-.4 1.2-1 1.2-.5 0-1-.7-1-1.5 0-.8 .8-1.9 1.8-2.4l1.7-.9-2.2-6.6c-1.6-4.5-2-7-1.3-7.8 .6-.9 .5-2.2-.3-4-.6-1.6-1.5-2.8-1.9-2.8-.5 0-.6-.4-.3-1 .3-.5 .1-1-.5-1-.6 0-.7-.8-.3-1.7 .5-1.3 .4-1.6-.5-1-.8 .4-1.2 0-1.2-1.3 0-1.1-.9-2.6-2-3.2-1.1-.7-2-1.9-2-2.5 0-.7-.4-1.1-1-.8-.5 .3-1-.4-1-1.5 0-1.1-.4-2-1-2-.5 0-1-.7-1-1.5 0-.8-.7-1.5-1.5-1.5-.8 0-1.5-.7-1.5-1.5 0-.8-.4-1.3-1-1-.5 .3-1.4-.3-2-1.2-.5-1-1-1.2-1-.5 0 .6-.4 1-1 .7-.5-.3-.8-.9-.5-1.5 .3-.5-.7-1.5-2.2-2.2-1.6-.6-3.6-1.9-4.7-2.7-1-.9-2.8-1.7-4-1.9-1.1-.1-3.4-.4-5.1-.6-1.6-.1-4.1-.6-5.5-1-1.4-.4-3.2-1-4-1.2ZM1623.7 2169.3c-.4-.5-.8-.1-.8 .7 0 .8 .4 1.2 .8 .8l0.8-.8-.8-.7ZM1625 2172.9c-.8 0-1.2 .4-.7 .8l0.7 .8 .8-.8c0.4-.4 0-.8-.8-.8ZM1623.3 2176.5c0.4 .3 .7 1.2 .7 2 0 .8-.4 1.5-1 1.5-.5 0-1.2-.6-1.4-1.2-.3-.7-.2-1.6 .2-2 .4-.4 1-.5 1.5-.3ZM849.5 2181c-.3 0-.5 .5-.5 1 0 .6 .5 1 1 1 .6 0 .8-.4 .5-1-.3-.5-.7-1-1-1ZM823.5 2194c0.3 0 .5 .2 .5 .5 0 .3-.6 .8-1.2 1.2-.9 .5-1 .4-.5-.5 .4-.6 .9-1.2 1.2-1.2ZM1621.7 2200.3l0.8 .7-.8 .8c-.4 .4-.8 0-.8-.8 0-.8 .4-1.2 .8-.7ZM800.5 2204c-.3 0-.8 .6-1.2 1.2-.5 .9-.4 1 .5 .5 .6-.4 1.2-.9 1.2-1.2 0-.3-.2-.5-.5-.5ZM1400.5 2212c0.3 0 .7 .5 1 1l0.5 1-.5 0c-.3 0-.7-.4-1-1l-.5-1 .5 0ZM1397 2222.5c0.3 .3-.1 1.1-.8 1.8-.7 .6-1.2 .8-1.2 .2-.1-.5 .3-1.3 .7-1.7 .5-.5 1-.6 1.3-.3ZM1396.5 2242c0.3 0 .7 .5 1 1l0.5 1-.5 0c-.3 0-.7-.4-1-1l-.5-1 .5 0ZM1406.7 2286.3l0.8 .7-.8 .8c-.4 .4-.8 0-.8-.8 0-.8 .4-1.2 .8-.7ZM1403.5 2288c-.3 0-.8 .6-1.2 1.2-.5 .9-.4 1 .5 .5 .6-.4 1.2-.9 1.2-1.2 0-.3-.2-.5-.5-.5ZM1670.7 2334.3c-.4-.5-.8-.1-.8 .7 0 .8 .4 1.2 .8 .8l0.8-.8-.8-.7ZM1652.7 2344.3l0.8 .7-.8 .8c-.4 .4-.8 0-.8-.8 0-.8 .4-1.2 .8-.7ZM1634 2348.9c0.8 0 1.2 .4 .8 .8l-.8 .8-.7-.8c-.5-.4-.1-.8 .7-.8ZM1618.7 2376.3c-.4-.5-.8-.1-.8 .7 0 .8 .4 1.2 .8 .8l0.8-.8-.8-.7ZM1503 2395.9c0.8 0 1.2 .4 .8 .8l-.8 .8-.7-.8c-.5-.4-.1-.8 .7-.8ZM1316.5 2404c0.3 0 .5 .2 .5 .5 0 .3-.6 .8-1.2 1.2-.9 .5-1 .4-.5-.5 .4-.6 .9-1.2 1.2-1.2ZM1561.7 2435.3l0.8 .7-.8 .8c-.4 .4-.8 0-.8-.8 0-.8 .4-1.2 .8-.7ZM1381.7 2443.3l0.8 .7-.8 .8c-.4 .4-.8 0-.8-.8 0-.8 .4-1.2 .8-.7ZM1274.7 2456.3l0.8 .7-.8 .8c-.4 .4-.8 0-.8-.8 0-.8 .4-1.2 .8-.7ZM674.8 2526c0.4 .1 1.2 .8 1.9 1.8 .7 .9 1.3 2 1.3 2.5 0 .4-.9-.2-2-1.3-1.1-1.1-2-2.2-2-2.5 0-.3 .3-.5 .8-.5ZM680 2531.9c0.8 0 1.2 .4 .8 .8l-.8 .8-.7-.8c-.5-.4-.1-.8 .7-.8ZM1294.5 2542c0.3 0 .2 .7-.2 1.5-.5 .8-.9 1.3-1 1-.2-.3-.1-.9 .2-1.5 .3-.5 .7-1 1-1ZM777 2572.9c-.8 0-1.2 .4-.7 .8l0.7 .8 .8-.8c0.4-.4 0-.8-.8-.8ZM492.7 2601.3l0.8 .7-.8 .8c-.4 .4-.8 0-.8-.8 0-.8 .4-1.2 .8-.7ZM683.7 2632.3c-.4-.5-.8-.1-.8 .7 0 .8 .4 1.2 .8 .8l0.8-.8-.8-.7ZM638.5 2653c-.8 0-1.5 .2-1.5 .5 0 .3 .7 .7 1.5 1 .8 .3 1.5 .1 1.5-.5 0-.5-.7-1-1.5-1ZM515.7 2657.3c-.4-.5-.8-.1-.8 .7 0 .8 .4 1.2 .8 .8l0.8-.8-.8-.7ZM610.7 2722.3l0.8 .7-.8 .8c-.4 .4-.8 0-.8-.8 0-.8 .4-1.2 .8-.7ZM1675.5 2773c-.3 0-.5 .9-.5 2 0 1.1 .5 1.8 1 1.5 .6-.3 .8-1.2 .5-2-.3-.8-.7-1.5-1-1.5ZM1678.5 2804c0.3 0 .7 .5 1 1l0.5 1-.5 0c-.3 0-.7-.4-1-1l-.5-1 .5 0ZM553 2823c0.6 0 1 .5 1 1 0 .6-.2 1-.5 1-.3 0-.7-.4-1-1-.3-.5 0-1 .5-1ZM357.7 2843.3l0.8 .7-.8 .8c-.4 .4-.8 0-.8-.8 0-.8 .4-1.2 .8-.7ZM568.7 2858.3l0.8 .7-.8 .8c-.4 .4-.8 0-.8-.8 0-.8 .4-1.2 .8-.7ZM1671 2875.9c0.8 0 1.2 .4 .8 .8l-.8 .8-.7-.8c-.5-.4-.1-.8 .7-.8ZM232.7 2890.3l0.8 .7-.8 .8c-.4 .4-.8 0-.8-.8 0-.8 .4-1.2 .8-.7ZM233 2902c0.6 0 1 .2 1 .5 0 .3-.4 .7-1 1-.5 .3-1 .1-1-.5 0-.5 .5-1 1-1ZM1662.7 2905.3l0.8 .7-.8 .8c-.4 .4-.8 0-.8-.8 0-.8 .4-1.2 .8-.7ZM233 2907.9c0.8 0 1.2 .4 .8 .8l-.8 .8-.7-.8c-.5-.4-.1-.8 .7-.8ZM476 2916.9c0.8 0 1.2 .4 .8 .8l-.8 .8-.7-.8c-.5-.4-.1-.8 .7-.8ZM1649.7 2933.3l0.8 .7-.8 .8c-.4 .4-.8 0-.8-.8 0-.8 .4-1.2 .8-.7ZM1628.5 2967c0.3 0 .7 .5 1 1l0.5 1-.5 0c-.3 0-.7-.4-1-1l-.5-1 .5 0ZM262.1 2969.5c0.6 .6 .9 1.7 .7 2.5-.3 1-.7 .6-1.1-1-.5-1.8-.4-2.2 .4-1.5ZM275.7 2983.3l0.8 .7-.8 .8c-.4 .4-.8 0-.8-.8 0-.8 .4-1.2 .8-.7ZM293.7 3002.3l0.8 .7-.8 .8c-.4 .4-.8 0-.8-.8 0-.8 .4-1.2 .8-.7ZM1571.7 3007.3l0.8 .7-.8 .8c-.4 .4-.8 0-.8-.8 0-.8 .4-1.2 .8-.7ZM1400.5 3008c-.3 0-.5 .5-.5 1 0 .6 .5 1 1 1 .6 0 .8-.4 .5-1-.3-.5-.7-1-1-1ZM366.7 3150.3l0.8 .7-.8 .8c-.4 .4-.8 0-.8-.8 0-.8 .4-1.2 .8-.7ZM1187 3174.9c0.8 0 1.2 .4 .8 .8l-.8 .8-.7-.8c-.5-.4-.1-.8 .7-.8ZM408 3198c0.6 0 1 .5 1 1 0 .6-.4 1-1 1-.5 0-1-.4-1-1 0-.5 .5-1 1-1ZM435 3219.9c0.8 0 1.2 .4 .8 .8l-.8 .8-.7-.8c-.5-.4-.1-.8 .7-.8ZM491 3252.9c0.8 0 1.2 .4 .8 .8l-.8 .8-.7-.8c-.5-.4-.1-.8 .7-.8ZM511.5 3255.1c1.1-.1 1.8 .1 1.5 .4-.3 .4-1.2 .4-2 .2-1-.4-.9-.6 .5-.6ZM528 3265.9c-.8 0-1.2 .4-.7 .8l0.7 .8 .8-.8c0.4-.4 0-.8-.8-.8ZM547 3266.9c0.8 0 1.2 .4 .8 .8l-.8 .8-.7-.8c-.5-.4-.1-.8 .7-.8ZM553.5 3268.1c1.1-.1 1.8 .1 1.5 .4-.3 .4-1.2 .4-2 .2-1-.4-.9-.6 .5-.6ZM600 3281.9c-.8 0-1.2 .4-.7 .8l0.7 .8 .8-.8c0.4-.4 0-.8-.8-.8ZM603.5 3283c-.3 0-.5 .5-.5 1 0 .6 .5 1 1 1 .6 0 .8-.4 .5-1-.3-.5-.7-1-1-1ZM626 3289.9c-.8 0-1.2 .4-.7 .8l0.7 .8 .8-.8c0.4-.4 0-.8-.8-.8ZM629.7 3290.3c-.4-.5-.8-.1-.8 .7 0 .8 .4 1.2 .8 .8l0.8-.8-.8-.7ZM838.7 3290.3c-.4-.5-.8-.1-.8 .7 0 .8 .4 1.2 .8 .8l0.8-.8-.8-.7ZM711.5 3294c-.3 0-.5 .5-.5 1 0 .6 .7 1.2 1.5 1.5 .8 .3 1.7 .5 2 .5 .3 0-.2-.7-1-1.5-.8-.8-1.7-1.5-2-1.5Z"/>
</svg>