<svg xmlns="http://www.w3.org/2000/svg" width="2002" height="2134">
<path d="M1839.5 38.7c-3.3-.3-7.6-.1-9.5 .4-1.9 .5-9.1 .9-16 1-6.9 0-13.7-.2-15.2-.5-1.6-.4-3-.1-3.3 .4-.3 .6-2.9 .8-6.2 .5-3.5-.4-6-.2-6.3 .4-.3 .7-1.6 .7-3.5 .1-1.6-.5-3.4-.6-3.8-.2-.5 .4-3 .7-5.7 .7-2.6 0-4.7-.2-4.5-.5 .2-.3-1.8-.5-4.3-.4-2.6 .1-5.4 .4-6.2 .8-.8 .4-4.4 .7-8 .7-3.6 .1-8.3 0-10.5 0-2.2-.1-4.3 .5-4.7 1.2-.6 .9-.8 .9-.8 0 0-.9-1-1.1-3.2-.6-2.4 .5-3.1 .3-2.5-.5 .4-.7 .5-1.2 .2-1.2-.3 0-1.7 .5-3.2 1-2.1 .8-3 .7-3.5-.2-.5-1-1-1-2-.1-.9 .7-3.5 .9-8 .5-3.8-.4-6.8-.4-6.8 .1 0 .4-4.3 .6-9.5 .5-5.2-.2-9.5 0-9.5 .5 0 .4-2.8 .5-6.2 .4-3.6-.2-6.9 .1-7.6 .7-.9 .7-1.6 .8-2 .1-.4-.5-1.4-1.2-2.2-1.4-.8-.2-2.2-.3-3-.3-.8 .1-4 .4-7 .7-3 .3-7.3 .6-9.5 .6-2.2 .1-5.6-.1-7.5-.3-1.9-.2-4.2-.9-5-1.4-1.1-.6-1.3-.5-.7 .4 .4 .6 .5 1.2 .2 1.2-.3 0-1.6-.4-3-1l-2.5-1 0 1c0 .6-2.1 .9-4.9 .8-2.7-.2-4.8-.1-4.6 .2 .2 .3-2 .7-4.8 .8-2.9 .2-5.6 .4-6.2 .3-.5 0-4.6-.2-9-.5-5.2-.2-8.5 0-9.4 .7-1.2 1-1.3 .9-.8-.5l0.7-1.8-3 1.5c-2 1-3.7 1.2-5.2 .6-1.3-.5-2.7-.8-3.3-.8-.5 0-2.3 .6-4 1.2-2.2 .9-3.7 1-5.5 .2-1.4-.5-4.1-1.1-6-1.1-1.9-.1-3.8 .3-4.2 .9-.5 .6-1.2 .4-1.8-.5l-1-1.5-.9 1.5-.9 1.5-.6-1.5c-.4-1.1-.7-1.2-1.1-.2-.3 .6-1.4 1.2-2.5 1.2-1.1 0-2-.4-2-1 0-.5-.6-.8-1.2-.5-.7 .3-2.6 .1-4.3-.3-2.3-.7-3.3-.5-4.2 .7-.8 1.1-1.5 1.2-2 .5-.5-.6-6.2-1-15.3-1-8 .1-15.1 .4-15.7 .9l-1.3 .7-.4-.7c-.2-.5-2.9-.8-6-.8-4 0-6 .5-6.6 1.5-.5 .8-1 1.1-1 .5 0-.5-1.7-.9-3.8-.8-2 .1-7.1 .4-11.2 .8-4.1 .4-8.3 1.1-9.2 1.6-1.1 .6-2 .5-2.3-.1-.3-.5-1.4-1-2.5-1-1.1 0-1.8-.3-1.6-.7 .2-.5-1.7-.4-4.3 0-2.5 .4-6.2 .6-8.1 .3-1.9-.3-4.3-.8-5.2-1.1-1.2-.3-1.8 0-1.8 1 0 1-.5 1.2-1.5 .8-.8-.5-4.5-.5-8.2-.1-3.7 .4-7.6 .6-8.5 .3-1-.3-2.4-.1-3 .4-.7 .5-2.2 .7-3.3 .6-1.1-.1-2.9-.6-4-1-1.1-.4-2.7-.4-3.5 0-.8 .4-2.5 .9-3.7 1.1-1.3 .2-3-.3-3.8-1.1-1.1-1.1-1.9-1.2-3-.5-.8 .6-2.7 .7-4.2 .3-2.3-.6-2.6-.5-1.8 .7 .8 1.2 .6 1.3-1 .6-1.1-.4-5.6-.8-10-.8-4.4 .1-9.8 .3-12 .5-2.2 .2-4.6 0-5.2-.5-.7-.4-2-.4-2.8 .2-.8 .6-2.3 .7-3.2 .3-1-.3-2.2-.5-2.8-.4-.5 .2-3.7 .5-7 .8-3.3 .3-6.9 .5-8 .5-1.1 0-2.9 0-4-.1-1.1 0-3.2 0-4.7-.1-1.6 0-2.6 .5-2.3 1l0.5 1-.5 0c-.3 0-1.8-.7-3.5-1.5-1.6-.8-2.8-1-2.5-.5 .3 .7-3.6 .8-11.2 .5-6.5-.3-13.5-.7-15.5-1-2.1-.3-3.9-.1-4 .4-.2 .5-3.1 1.2-6.5 1.5-4.8 .5-6.2 .3-6-.6 .1-.7-.2-1.2-.8-1.2-.5 .1-3.4 .4-6.2 .8-3.3 .4-5.3 .2-5.3-.4 0-.5-.8-.8-1.7-.6-1 .2-3.6 0-5.8-.4-2.5-.5-5.5-.3-8 .4-2.7 .8-9.5 1.1-20.5 .8-9.1-.2-18.3-.4-20.5-.4-2.2 0-4.1 .5-4.2 1.1-.2 .6-.7 1.1-1.3 1.1-.5 0-1-.7-1-1.5 0-.8-.4-1.7-1-2-.5-.3-3.5 .5-6.6 1.8-4.6 1.8-5.9 2-7.5 1-1.1-.8-3.4-1.1-5.4-.8-2.4 .3-3.3 .9-2.7 1.7 .5 .8-.2 .9-2.8 .3-1.9-.5-9.1-.8-16-.6-6.9 .1-12.9 .6-13.5 1.1-.6 .5-2.4 .4-4.2-.1-2-.5-3.8-.5-4.5 0-.7 .5-8.5 .9-17.3 .9-8.8 0-16.8-.4-17.7-.9-1.1-.6-1.8-.5-1.8 .1 0 .6-1.3 1-3 1-1.6 0-3.9-.6-5-1.2-1.7-1.1-2.2-1-2.8 0-.4 .9-1.9 1.3-3.9 1-1.8-.1-3.3-.1-3.3 .2 0 .3-2.4 .4-5.3 .3-2.8-.1-7.1-.6-9.5-1-2.5-.5-4.6-.4-5.3 .2-.5 .6-5.1 .9-10.4 .8-5.2-.2-9.7 0-9.9 .5-.2 .4-2.8 .6-5.8 .4-2.9-.2-6.8-.3-8.5-.3-1.8 .1-3.3-.3-3.3-.9 0-.5-.4-1-1-1-.5 0-1.7 .7-2.5 1.5-.8 .8-2.3 1.2-3.2 .9-1-.3-5.3-.8-9.5-1-5.8-.3-7.8-.1-7.8 .9l0.1 1.2-1.6-1.2c-1.1-1-3-1.1-7.2-.4l-5.8 .9-1.7-.9c-1-.5-2.4-.6-3-.2-.7 .5-11.4 .9-23.8 1-12.4 .2-24.5 .5-27 .8-2.5 .4-4.9 .1-5.5-.4-.7-.7-2-.5-4 .5-1.8 .9-3.8 1.2-5 .7-1.1-.4-4.1-.8-6.7-.8-2.5 0-4.4 .3-4.2 .8 .2 .4 0 .7-.6 .7-.5 0-1-.7-1-1.5 0-1-.9-1.5-2.7-1.4-1.6 .1-3.2 .5-3.8 1-.6 .5-2.8 .5-5.5 0-3.4-.7-5.2-.6-7.2 .5-1.6 .8-3 1.4-3.3 1.4-.3 0-.2-.6 .3-1.2 .5-.9 .3-1-.8-.4-.8 .5-4.1 .9-7.2 1-3.2 .1-5.9-.3-6-.7-.2-.5-1.4-.4-2.8 0-1.4 .5-8.6 .8-16 .7-7.4-.2-15.2-.4-17.2-.6-2.1-.2-3.8 0-3.8 .5 0 .4-1.7 .3-3.7-.3-2.1-.5-4.1-1-4.5-1l-.8 0 .8 1.2c0.5 .9 .2 1-1.3 .4-1.1-.5-4.5-1.1-7.5-1.4-3.1-.3-6.5 0-7.7 .7-1.9 .9-2.3 .8-2.3-.4 0-1.3-.6-1.2-3.7 .4-2.3 1.2-4 1.5-4.3 .9-.3-.6-2.1-.7-4.2-.4-2.1 .3-3.8 .3-3.8-.1 0-.5-6.6-.8-14.8-.8-8.1 .1-15.8-.3-17.2-.8-1.6-.5-2.6-.5-2.7 .2-.2 .7-1.8 .9-4 .6-2.1-.4-5.1-.8-6.8-1.1l-3-.5 2 1.6 2 1.6-3-.7c-1.6-.4-4.2-.8-5.6-.8-1.5-.1-2.5-.4-2.3-.8 .2-.5-1.2-.2-3.2 .5-2.6 .9-4.2 .9-6.2 .1-1.7-.6-4-.7-6.2-.1-2.8 .7-3.8 .5-4.7-.7l-1.3-1.6-3.2 1.5c-1.8 .9-4.5 1.5-6 1.5-1.6 0-3 .5-3.3 1l-.5 1-2.5-1c-1.4-.5-6.9-.9-12.2-.8-5.8 .1-10.7-.3-12-1-1.8-.9-2.7-.9-3.9 .1-1.3 1-1.7 .9-2.5-.3-.6-1-.9-1.1-.9-.2 0 .8-1.8 1.1-6.2 1-3.5-.2-6.9-.9-7.5-1.5-.7-.7-1.7-1.3-2.3-1.3-.5 0-1 .5-1 1 0 .6-1.8 1-4 1-2.2 0-3.8 .3-3.6 .8 .2 .4-3.3 .7-7.7 .6-4.5-.1-9.1 .2-10.2 .6-1.1 .4-3.2 .3-4.7-.1-1.8-.6-2.8-.5-2.8 .1 0 .6-.8 .5-2-.2-1.6-1-2.2-1-2.8-.1-.4 .7-1.7 1.1-3 1-1.2-.1-2.2-.5-2.2-.9 0-.5-1.7-.8-3.7-.8-2.1 0-4.4 .5-5.1 1.2-1 1.1-1.4 1.1-2 0-.4-.7-1.4-1-2.2-.7-.8 .3-3.6 .2-6.1-.2-2.6-.5-4.5-.5-4.3 0 .2 .4-1.1 1-2.8 1.4-1.8 .4-3.6 .6-4 .5-.5-.1-2.6-.4-4.8-.7-2.3-.3-4-.1-4 .5 0 .6-.4 1-1 1-.5 0-.8-.7-.5-1.5 .3-.8 .1-1.5-.5-1.5-.5 0-1.2 .5-1.5 1-.3 .6-2.9 .7-6.7 .3-3.5-.3-7.2-.6-8.3-.6-1.1 0-4.4 .3-7.2 .7-2.9 .3-5.9 .9-6.5 1.4-.9 .5-1 .2-.5-1 .5-1.4 .2-1.8-1.3-1.8-1.1 0-3.2 .5-4.7 1-1.6 .6-3 .7-3.3 .2-.3-.5-1.2-.9-2.2-.8-.9 .1-1.3 .5-1 1.1 .5 .6-.2 .6-1.8 .1-1.4-.4-3.4-.8-4.5-.7-1.1 0-2.1 .5-2.2 1.1-.2 .5-1.1 1-2 1-1 .1-2.5-.6-3.3-1.5-.8-.9-2.5-1.6-3.7-1.5-1.3 0-2.3 .3-2.3 .8 0 .4-1.2 .8-2.8 .8-1.5 .1-3.4 .3-4.2 .5-.8 .2-2.1 1-3 1.7l-1.5 1.4-.7-1.4c-.4-.7-.8-.8-.7-.3 0 .6-.7 .4-1.6-.2-1-.9-2.1-1-3.5-.3-1.1 .6-6.8 1-12.7 1-6 0-11.5 0-12.3 0-.8 0-4-.1-7-.3-3-.1-6.4 .2-7.5 .6-1.2 .6-2.8 .5-4-.1-1.4-.7-2.5-.6-3.7 .2-.9 .6-2.1 .7-2.5 .3-.4-.4-.1-1.3 .7-1.8 1.1-.8 .8-.8-1-.3-1.8 .6-2.3 .4-1.7-.4 .4-.7 .1-1.4-.8-1.7-.8-.3-2.2 .2-3 1-.8 .8-1.5 2.1-1.5 2.8l0.1 1.2-1.6-1.2c-.8-.7-1.9-1.1-2.5-.8-.5 .3-1 .1-1-.5 0-.5-.8-.7-1.7-.4-1 .3-4.4 .1-7.5-.5-4.3-.8-6.4-.8-8 0-1.3 .7-7.4 1.2-14.1 1.3-6.4 .1-11.7 .4-11.7 .9 0 .4-.6 .5-1.2 .3-.7-.3-1.8 .1-2.5 .7-.8 .8-1.9 .9-3 .3-1-.4-5.4-1-9.8-1.2-4.4-.2-9.3-.7-11-1-2.6-.6-2.9-.5-2.2 .9 .4 1 .3 1.9-.3 2.2-.5 .3-1-.1-1-.7 0-.9-1.8-1.3-5.5-1.3-3.7 0-5.5 .4-5.5 1.3 0 .6-.4 1.2-1 1.2-.5 0-3.4-.9-6.2-2.1-3.6-1.4-6.2-1.8-8.3-1.3-1.6 .4-3.9 .8-5 .9-1.1 .2-4.6 .6-7.7 .9-3.6 .4-5.8 .2-5.8-.4 0-.6-2-.8-5.2-.4-2.9 .3-6.3 1-7.5 1.5-1.6 .6-2.4 .5-2.5-.2-.2-.6-2.4-1.2-5-1.2-2.7-.1-4.8 .1-4.8 .6 0 .4 .8 .9 1.8 1.1 1.2 .3 1 .4-.5 .5-1.3 0-2.5-.3-2.8-.9-.3-.5-1.4-1-2.5-1-1.1 0-2 .5-2 1 0 .6-.7 1-1.5 1-.8 0-1.5-.4-1.5-1 0-.5-1.1-1-2.5-1-1.4 0-3.1 .6-3.7 1.4-1.1 1.2-1.7 1.1-3.8-.5-1.4-1-2.9-1.5-3.3-1.1-.5 .4-4.1 .9-8 1.1-5.7 .2-7.5 0-8.4-1.3-1.2-1.4-1.5-1.4-2.8-.1-1 1-3.3 1.5-6.7 1.4-2.9-.1-6.3 .2-7.5 .5-1.3 .3-2.9 .3-3.5-.1-.7-.3-3-.7-5-.7-2.1-.1-3.8 .4-3.8 .9 0 .6-1.4 1.3-3.2 1.7-1.8 .3-4.5 .4-6 .2-1.6-.2-2.8-1-2.8-1.9 0-.8-.4-1.5-1-1.5-.5 0-.8 .7-.5 1.5 .3 .9-.3 1.7-1.5 2l-2 .5-1-.5c-.5-.3-1.7 0-2.5 .5l-1.5 1-1.5-1c-.8-.5-2.3-.7-3.2-.3-1 .4-3.5 .7-5.5 .7-2.1 .1-3.8-.1-3.8-.4 0-.3-2.1-.4-4.8-.3-2.6 0-6.7-.3-9.2-.8-2.5-.5-4.7-.7-5-.3-.3 .3 .2 1.1 1.1 1.7 1.3 1 .5 1.2-4.3 1.2-3.2 0-5.8-.3-5.8-.7 0-.5-1-.7-2.2-.5-1.4 .1-2.2-.3-2-1 .1-.7-.5-1.3-1.3-1.3-.8 0-1.5 .5-1.5 1 0 .6-1.7 1.7-3.7 2.5l-3.8 1.5-2.3-2.2c-1.2-1.3-2.3-1.8-2.3-1.3-.1 .6-.1 1.3 0 1.8 0 .4-.2 .7-.6 .7-.5 0-1.6-.8-2.5-1.8-1-.9-2.4-1.4-3-1.1-.7 .4-1.7 .6-2.1 .5-.4 0-1.2 .6-1.7 1.4-.7 1.2-1.1 1.3-2.4 .3l-1.6-1.3-.4 1.3c-.2 .8-.9 .5-1.9-.8-1.3-1.8-1.8-1.8-4.1-.7-1.4 .6-3.4 .9-4.3 .6-1.5-.5-1.5-.4-.3 .4 .8 .5 1.1 1.1 .5 1.4-.5 .2-3.5 .5-6.5 .7-3 .1-6.7-.2-8.2-.8-2.3-.9-2.8-.8-2.8 .4 0 .8-.4 1.5-1 1.5-.5 0-.8-.7-.5-1.5 .3-.8 .1-1.5-.5-1.5-.5 0-1.2 .7-1.5 1.5-.3 .8-.9 1.5-1.5 1.5-.5 0-.8-.9-.5-2 .4-1.7 0-2-3.2-2-2.9 .1-4.3 .7-5.8 2.6-1.6 2.1-2.4 2.4-4 1.6-1.5-.8-3.3-.4-7.8 1.6-3.1 1.5-6.2 3.4-6.7 4.2-.8 1.2-1 1-1.1-1 0-1.4-.2-1.9-.5-1.2-.2 .6-1.2 1.2-2.1 1.2-1 .1-2.6 1.1-3.5 2.3-1.3 1.5-1.5 2.6-.8 3.5 .7 .8 .6 1.3-.5 1.7-.8 .3-1.5 1.2-1.5 2 0 .8-.7 1.8-1.6 2.3-1 .4-1.5 2.1-1.6 4.7 0 2.2-.4 4.5-.9 5-.6 .6-.1 2.1 1.1 3.8 1.4 1.9 1.7 3.1 1 4.2-.5 .8-.9 2.3-.7 3.3 .1 1.1-.5 2.7-1.3 3.7-.9 1.1-1.1 2-.5 2.2 .6 .2 .6 1.7-.2 4.1-.7 2-1.2 4.3-1.3 5 0 .6 .5 1 1 .7 .6-.3 1.2 .2 1.5 1 .3 .8 .1 1.5-.5 1.5-.5 0-1 .7-1 1.5 0 .8 .3 1.5 .8 1.5 .4 0 .8 5.3 .9 11.8 .1 6.4 .1 13.5 0 15.7 0 2.2-.1 5.5-.1 7.2-.1 1.8-.4 3.3-.8 3.3-.5 0-.5 .6-.1 1.3 .4 .6 .8 2.8 .9 4.7 0 1.9-.2 4.6-.6 6-.5 1.5-.2 3.8 .6 5.8 .9 2 1.1 4.2 .7 5.9-.5 1.4-1.7 3.2-2.8 4-1.7 1.2-1.8 1.5-.5 2.3 1.2 .8 1.3 1.3 .3 3-.8 1.2-.9 2-.3 2 .6 0 .8 .7 .5 1.5-.3 .8 .4 2.5 1.5 3.8 1.1 1.2 1.7 2.4 1.3 2.7-.5 .3-.9 1.5-1 2.8-.3 1.8 .1 2.1 2 1.5l2.2-.6-1.7 1.9c-1.2 1.4-1.5 2.9-1.1 5.9 .5 3.2 .2 4.4-1.6 6.3-1.5 1.5-1.8 2.6-1.1 3.5 .5 .6 .7 1.6 .2 2-.4 .4-.1 .7 .6 .7 .8 0 1.1 1.7 1 5.8-.1 3.1 .2 6.4 .7 7.2 .8 1.1 .6 1.3-.7 .7-1.5-.6-1.9 0-2.4 3.1-.5 2.4-.3 3.8 .5 4 .6 .1 1.1 1.1 1.1 2.2 0 1.1 .7 2 1.5 2 .8 0 1.3 .6 1.1 1.3-.2 .6 0 1.9 .4 2.7 .5 .8 .5 2.3-.1 3.3-.6 1.2-.5 1.7 .4 1.7 .9-.1 .9 .2 0 1.2l-1.3 1.3 1.3 1.4c1 1.1 .8 1.3-1 .7-1.6-.4-2.1-.2-1.7 .7 .3 .6-.2 2-1 3-1.4 1.5-1.4 1.9-.1 3.2 1.1 1.1 1.2 2 .5 3.5-.7 1.5-.7 2.1 .3 2.3 .9 .3 .7 1.1-.5 3-1 1.5-1.8 3.2-1.8 3.7 0 .6 .7 .8 1.5 .5 .8-.3 1.5-.2 1.5 .3 0 .4-.4 1.2-1 1.7-.7 .7-.4 1.9 1 3.8 1.1 1.5 2 3 2 3.5 .1 .4-.6 1.4-1.5 2.2l-1.5 1.5 1.7 1.9 1.8 1.9-2.5-.8-2.5-.8 1.8 2.2c0.9 1.1 1.5 2.6 1.2 3.1-.3 .6 .2 1 1 1 1.1 0 1.4 .8 1 3.5-.4 2.9-.2 3.6 1.5 4 1.1 .3 1.8 1 1.5 1.5-.3 .6 0 1.2 .5 1.5 .6 .3 1 1 1 1.5 0 .6-.9 .8-2 .5-1.5-.4-2 0-2 1.5 0 1.3-.4 1.7-1.2 1.3-.9-.5-1-.4-.5 .5 .4 .6 1.2 1 1.7 .7 .6-.3 1 1.2 .9 3.8-.1 3.5-.2 3.8-.8 1.7l-.8-2.5-.4 2.5c-.3 1.4-.1 3.7 .3 5.3 .4 1.5 .4 3.3 0 4-.4 .6-.8 2.3-.7 3.7 .1 1.4 .5 4.5 1 7 .4 2.5 1.3 4.8 1.9 5.2 .7 .5 .6 .8-.4 .8-1.2 0-1.5 1.4-1.5 6.5 0 3.6 .5 7 1.2 7.7 .8 .9 .9 1.9 .3 3.1-.7 1.1-.6 1.9 0 2.2 .7 .3 .6 .9-.1 1.8-.5 .6-.8 2.8-.6 4.7 .3 2.1-.1 4.1-.9 5-1 1.2-1.1 2.7-.4 7 .7 3.9 .6 6.3-.3 8.2-.7 1.6-1.5 2.8-1.9 2.8-.5 0-.8 .6-.8 1.3 0 .9 .2 .9 1.2-.1 .7-.7 1.6-1.2 2.1-1.2 .4 0 .5 .7 .2 1.5-.3 .8-.2 2.1 .2 2.8 .4 .6 .9 2.1 1 3.2 .2 1.1 .8 3.8 1.4 6 .9 3.2 .9 4.6-.3 7-1 1.9-1.2 3.6-.7 4.8 .5 .9 .7 2.2 .4 2.7-.3 .6 .2 1.3 1.1 1.8 1.1 .5 1.3 1.5 .9 3.2-.5 2-.2 2.6 1.7 3.2 1.5 .5 1.9 1.1 1.1 1.5-.6 .5-1.2 1.1-1.2 1.6-.1 .4-.1 1.3-.1 2 0 .8-.4 .7-1.1-.3-.8-1.2-.9-1.1-.5 .5 .3 1.1 .8 3.4 1.3 5 .5 2.2 .4 2.8-.5 2.3-.7-.5-1.2-.2-1.2 .7 0 .8-.8 1.7-1.7 2l-1.8 .5 2 2c1.6 1.7 1.8 2.3 .7 3.3-.7 .6-1.2 2.2-1.2 3.5 0 1.3 .6 2.2 1.5 2.2 .8 0 1.7 .9 2 2l0.5 2-.5 1c-.3 .6-1.5 .7-2.7 .3l-2.3-.6 1.8 2.6c0.9 1.5 1.7 3.2 1.7 3.7 0 .6-.5 .7-1.2 .3-.8-.6-1 .3-.5 3.2 .4 2.2 .7 5.6 .8 7.5 0 1.9-.2 4.5-.5 5.8-.3 1.2-.3 2.2 .2 2.2 .4 0 .8 1.1 1 2.5 .2 2-.1 2.4-1.5 1.8-1.4-.7-1.5-.3-.9 2.7 .6 2.7 .3 3.9-1.1 5.3l-1.8 1.8 2-.1c1.1-.1 2.5 .5 3.1 1.2 .6 .7 .9 3.5 .6 6.3l-.4 5-1.3-2.5-1.4-2.5 .1 4c0 2.2-.2 5-.6 6.3-.5 1.7-.1 2.3 1.4 2.7 1.7 .4 1.9 1.1 1.5 4.3-.3 2-.6 4.4-.7 5.2 0 .8 .6 2.9 1.3 4.7 1.2 2.8 1.2 3.4-.2 5-.9 1-1.6 2.6-1.5 3.6 0 .9 .8 1.7 1.6 1.7l1.5-.1-1.5 1.6c-1.3 1.4-1.3 1.6 .3 1.5 .9 0 1.9 .7 2.2 1.5 .3 .8 .5 2.1 .5 2.8 0 .8-.4 .7-1-.3l-1-1.5-.1 1.5c-.1 .8-.2 2.5-.3 3.6 0 1.2 .2 2 .7 1.8 .4-.2 .5 .6 .4 1.9-.2 1.2-.8 2.9-1.2 3.7-.5 .8-1 2.7-1.2 4.3-.2 2 .2 2.8 1.7 3.2l2 .5-1.7 2.6c-1.2 1.7-1.4 2.8-.7 3.2 .6 .4 1.1 2.5 1.1 4.7 .1 3-.1 3.6-.8 2.5-.8-1.1-.9-.7-.4 1.5 .4 1.7 .7 4 .8 5.2 .1 1.1 .5 1.9 1 1.7 .4-.2 .7 .2 .7 .9 0 .6-.7 2.4-1.5 4-.8 1.5-1 2.7-.5 2.7 .6 0 1 .9 1 2 0 1.1 .6 2 1.3 2 .8 0 .7 .3-.3 1-.9 .6-1.4 2.1-1.2 4 .1 1.9-.3 3-1 3-.7 0-1.8-.5-2.4-1.2-1-1-1.3-1-1.8 0-.3 .7 0 1.2 .9 1.2 .8 0 1.5 .3 1.5 .8 0 .4-.5 1.3-1.2 2.1-1.1 1.1-1 1.2 .7 .3l2-1 .2 8.1c0.2 4.5 .3 9 .3 10 0 .9-.1 3.1-.2 4.7-.2 1.7-.6 3-1 3-.5 0-.7 1.5-.5 3.3 .1 2.5 .7 3.3 2.5 3.5 1.5 .1 2.5 1.2 3.2 3.5 .5 1.7 .8 4.8 .5 6.7-.2 1.9-.8 3.6-1.2 3.8-.4 .1-.5 2.3 0 4.7 .5 3.3 .3 5.3-.8 7.5-.8 1.7-1.5 3.2-1.5 3.5 0 .3 .7 .5 1.5 .5 .9 0 1.3 .6 1 1.5-.3 .8 0 1.7 .5 2 .6 .3 .5 1.2-.2 2.5-1.1 1.6-1 2.3 .4 3.7 1.3 1.4 1.4 2.4 .7 4.1-.6 1.4-.5 2.2 .1 2.2 .6 0 .8 1.4 .5 3.3-.3 1.7-.8 5.6-1 8.5-.3 3.1-.1 5.2 .5 5.2 .6 0 1.2-.6 1.4-1.2 .2-.7 .6-1.1 1-.8 .4 .3 .1 1.9-.6 3.5-.7 1.7-1.7 3.3-2.3 3.7-.6 .5-.6 .8 0 .8 .6 0 .8 1.8 .6 4.3-.2 2.3 .2 5.9 .8 8 .8 2.8 .8 4.1-.1 5.2-1.1 1.3-1 1.6 .2 1.5 .8 0 1.2 .2 .8 .5-.5 .3-.2 2 .6 3.8 .7 1.7 1.3 4.8 1.2 6.8 0 2-.8 4.4-1.6 5.4-.9 1.1-1 1.6-.2 1.2 .6-.4 1.2-.4 1.2 .1 0 .4-.7 1.8-1.6 3.2-1 1.4-1.9 3.7-2.1 5.3-.2 1.9 .2 2.9 1.5 3.3 1.4 .4 1.6 1.3 1.1 5.7-.4 4-.2 5.5 1 6.5 1.1 .9 1.2 1.6 .5 2-.5 .4-1 1.7-1 3 .1 1.2 .4 2.2 .9 2.2 .4 0 .4 2.1 .1 4.8-.4 2.6-1 5.2-1.5 5.7-.5 .6-.9 1.3-.9 1.8 0 .4 .7 .5 1.5 .2 1-.3 1.5 .2 1.5 1.8 0 1.2 .2 5.9 .5 10.5 .3 5 .1 8.4-.5 8.7-.6 .3-.5 1.2 .4 2.3 .7 .9 1.6 3.2 2 5 .4 2.3 .2 3.6-.9 4.5-.9 .6-1.6 1.5-1.5 2 0 .4 .6 .5 1.3 .3 .6-.2 1.9 0 2.7 .5 1 .6 1.1 .9 .3 .9-.8 0-1.3 1.3-1.3 3.3 0 1.7 .5 5 1.2 7.2 .7 2.2 1.3 6.4 1.3 9.2 0 3.6 .4 5.3 1.3 5.3 .9 0 .9 .5 .2 2-.7 1.5-1.6 1.8-3.2 1.4l-2.3-.7 2.3 2.2c1.6 1.5 2.1 3.1 2 5.6-.2 1.9 0 3.5 .5 3.5 .4 0 .9 1.2 1.1 2.8 .2 1.5 .1 3.2-.2 3.7-.4 .6-.8 1.7-.9 2.5-.1 .8-.7 2-1.2 2.5-.5 .6-.3 2.1 .5 3.8 1 1.9 1.1 3.2 .4 4.2-.5 .8-.8 2.6-.5 4 .3 1.4 1 2.3 1.5 2 .6-.3 1 .3 1 1.3 0 .9 0 2.8 0 4.2 .1 1.4 0 6.7 0 11.8 0 5.1-.4 9.4-1 9.7l-1 .5 1 2c0.6 1.1 1 2.9 1 4 0 1.1-.6 2.2-1.2 2.4-1 .3-.9 1.1 .5 3.5 1.4 2.5 1.5 3.4 .5 4.7-1.1 1.3-.9 1.9 1 3.2 1.6 1.2 2.2 2.5 2 4.2-.2 1.4-.7 2.8-1.3 3.2-.6 .4-.4 1.3 .5 2.3 1.2 1.3 1.3 2 .3 4l-1.3 2.5 1.3 .4 1.2 .3-1.2 2.2c-.7 1.1-1.3 2.9-1.3 3.9 0 .9 .7 2.6 1.5 3.7 1.3 1.8 1.3 2.3 0 4.3-1.2 1.8-1.3 2.5-.2 3.8 .8 1.1 1 3 .5 6-.5 2.9-.4 5 .3 6.2 .8 1 .9 2.5 .4 3.7-.5 1.1-.9 2.5-1 3 0 .6-.4 1.6-.8 2.3-.4 .6-.3 1.8 .2 2.5 .4 .6 .7 3.7 .6 6.7-.1 3 .1 6 .6 6.5 .4 .6 .8 2.1 .8 3.5 0 1.4 .1 3.6 .1 5 0 1.4 0 3.4 .1 4.5 0 1.1 0 3.1 0 4.5-.1 1.4-.2 3.9-.4 5.5-.1 2 .2 2.9 1.1 2.8 .7-.2 1.2 .8 1.2 2.7 0 1.7-.7 3.7-1.5 4.5-.8 .8-1.5 1.8-1.5 2.3-.1 .4 .6 .1 1.5-.5 1.2-1.1 1.6-.9 2.3 1 .6 1.5 .4 3.1-.9 5.2-.9 1.7-1.9 4.1-2.1 5.5-.2 1.9 .1 2.4 1.5 2.3 .9-.2 1.7 .2 1.7 .7 0 .6-.8 1.1-1.8 1.3-1.3 .1-2 1.3-2.3 3.5-.2 1.9 .2 4.2 .9 5.3 .6 1 1.7 1.7 2.2 1.4 .6-.3 1 .2 1 1 0 1-.7 1.3-2 1-1.1-.3-2.2 0-2.5 .5-.3 .6-.2 .9 .3 .9l0.7-.1 1.3 .1c0.6 0 1.2 1.4 1.2 3.1 0 1.7-.6 3.2-1.2 3.4-.9 .3-.8 .5 .2 .5 1.1 .1 1 .4-.5 1.5l-2 1.4 1.8 1.6c0.9 .9 1.9 1.3 2.2 .9 .3-.5 .5-.1 .5 .7 0 .8-.5 3.1-1.1 5-.9 2.9-.8 4.1 .6 7 1.2 2.4 1.4 3.6 .6 3.8-.6 .1-1.1 1.3-1.1 2.7 0 1.4-.4 2.5-1 2.5-.5 0-1 .8-1 1.8 .1 1.5 .2 1.5 1.5-.3 .9-1.1 1.5-1.4 1.5-.7 0 .6-.7 2.6-1.5 4.2-.8 1.7-1.2 3.3-.9 3.8 .3 .4 .9 0 1.4-.8 .8-1.3 1-1.2 1 .3 0 1 .4 1.4 1.1 1 .6-.5 1.5-.1 1.9 .7 .5 .8 .4 2.3-.1 3.3-.5 .9-.6 2.9-.1 4.5 .4 1.5 .5 4.7 .2 7.2l-.6 4.5-.6-3-.5-3-.1 3c-.1 1.9 .7 3.8 2.1 5.3 1.9 1.9 2 2.5 1 4.7-1.1 2-1.1 2.5 0 2.8 1 .1 1.1 1 .4 3.7l-.9 3.5-1-2c-.8-1.5-.7-2.2 .3-2.7 .8-.4 1-.8 .4-.8-.5-.1-1.5 .5-2.2 1.2-1 1-1 1.7 .1 3.3 .7 1.1 1.5 3.2 1.7 4.7 .2 1.5 .1 2.8-.3 2.8-.5 0-.6 1.1-.3 2.5 .3 1.4 .1 2.5-.5 2.5-.5 0-.8 .5-.5 1 .3 .6 .2 1-.2 1-.5 0-.8 2.2-.8 4.9 0 2.7 .3 5.3 .8 5.8 .4 .4 .7 1.6 .7 2.6 0 1-.5 1.5-1.2 1.2-.8-.4-1.5 .5-1.9 2.2-.5 2.3-.3 2.8 1.2 3.1 1.1 .1 1.7 .7 1.4 1.2-.3 .6 .1 1.7 .8 2.5l1.2 1.6-1.2-.1c-.7 0-1.5 .7-1.8 1.5-.3 1 0 1.3 1 1 .8-.3 1.5 0 1.5 .5 0 .6-.4 1-1 1-.5 0-1 .3-1 .8 0 .4 1.1 1.9 2.5 3.5 1.4 1.5 2.5 2.9 2.5 3.2 0 .3-.9 .5-2 .5-1.5 0-2 .7-2.2 2.8 0 1.5-.1 3.4 0 4.2 .1 .8 .3 4.9 .5 9 .2 4.1 0 8.9-.5 10.5-.5 1.8-.4 4.9 .2 7.8 .6 2.7 .6 5.2 .1 6-.4 .6-.7 3.9-.6 7.2 .2 3.3 0 6.5-.3 7-.4 .6-.7 2.7-.7 4.7 0 3 .4 3.8 1.8 3.8 1.3 0 1.6 .6 1.1 2.8-.4 1.5-1.1 3.7-1.5 5-.5 1.2-.6 2.8-.2 3.5 .4 .6 .6 2 .5 3-.1 1 .5 1.7 1.6 1.7 1.3 0 .9 .7-1.5 2.8l-3.3 2.7 1.8 1.1c1.4 1 1.5 1.6 .6 3-.7 1.1-1.1 5.4-1 10.1 0 4.6-.2 8.4-.5 8.5-.3 .2-.9 2-1.2 4.1-.6 2.9-.4 3.7 .8 3.7 .8 0 1.3 .5 1 1-.3 .6-1.2 .8-2 .5-1-.3-1.7 .3-2 1.8-.2 1.2 .2 3.1 .9 4.2 .7 1.1 1.6 4 2.1 6.5 .4 2.5 .7 6.2 .6 8.3 0 2 .7 5 1.7 6.7 1.3 2.4 1.4 3.2 .5 4.2-1 1.1-1.7 .9-3.4-.7l-2.2-2 .8 2.5c0.4 1.4 1.2 2.7 1.7 3 .5 .3 1 2.1 1.2 4 .2 2-.3 4.1-1.1 5-.8 .8-1.2 2.1-.9 2.8 .3 .6 .1 1.3-.5 1.5-.6 .1-.8 1.4-.5 3 .3 1.5 1.1 2.5 1.6 2.2 .6-.3 1 0 1 .5 0 .6-.5 1.3-1.1 1.8-.8 .4-1 2.2-.5 5 .3 2.5 .2 4.4-.4 4.7-.5 .3-1 2.1-1 4 0 1.9 .5 3.7 1 4 .6 .3 1 4.6 1 9.8 0 5-.5 9.8-1 10.5-.7 .8-.7 1.4 0 1.7 .6 .3 1 1 1 1.5 0 .6-.6 .8-1.2 .5-.9-.3-1.2 .4-.9 2.3 .2 1.5 .9 3 1.5 3.4 .7 .5 .6 .8-.4 .8-1.1 0-1.2 .2-.2 .8 1 .5 1 1.4 .2 3.7-.8 2.1-.7 3.1 0 3.5 .6 .3 1.4 2.7 1.8 5.4l0.7 4.9-2.5-.8c-2.1-.7-2.3-.6-1.5 .6 .6 .8 1 2.3 1.1 3.4 0 1.1 .1 3.5 .2 5.3 .1 1.7 .7 3 1.2 2.7 .6-.3 1 0 1 .5 0 .6-.3 1-.7 1-.5 0-.8 1.5-.7 3.3 .1 1.7 .4 3.7 .7 4.2 .3 .6 .2 1.7-.4 2.5-.6 1-.9 1.1-.9 .3 0-.7-.6-1.3-1.2-1.3-1-.1-1 .2 0 1.2 .6 .7 1 2 .7 2.8-.4 .8-.2 3.8 .3 6.5 .5 2.8 .5 5.9 .1 7-.4 1.1-.8 1.4-.8 .8-.1-.7-.5-1.1-1.1-.8-.6 .3-.4 1.5 .5 3 .8 1.4 1.3 3.4 1 4.5-.3 1.1 0 2 .5 2 .6 0 1 .8 1 1.8 .1 1.5-.1 1.5-1.4 .2-1.4-1.3-1.5-1.2-1.3 1.1 .1 1.9 .6 2.5 1.7 2.1 1.2-.5 1.3-.3 .4 .9-.7 .8-1.5 6.1-1.8 11.9-.3 5.8-.6 11.4-.6 12.5 0 1.1 .5 2.3 1.2 2.6 1 .5 .7 1.4-.9 3.5-1.2 1.6-2.2 4.3-2.3 5.9-.1 1.7 .2 4.6 .7 6.6 .5 2.5 .4 4.1-.3 5-.7 .8-1 3-.9 4.9 .2 1.9 .8 8.5 1.4 14.5 .7 8.2 .6 11.4-.2 12.4-.8 .8-1 3-.6 6 .4 2.5 .3 5.4-.2 6.4-.6 1.1-.3 3.6 .7 7 1 3.2 1.3 6.2 .8 7.7-.4 1.4-.7 4.2-.6 6.3 .1 2-.5 4.7-1.3 6-.8 1.2-1.5 2.8-1.5 3.5 0 .6 .6 1.1 1.3 1 .9-.2 1.2 1.4 1 5.7-.1 3.3-.6 7.9-1.2 10.3-.7 2.8-.8 4.4-.1 4.7 .6 .3 .8 3.6 .4 8.8-.4 4.5-1 9-1.5 10-.5 1-.5 2.2 .1 3 .5 .6 1.1 3.9 1.3 7.2 .2 3.3-.1 6.8-.7 7.8-.8 1.3-.7 2.5 .7 5 1.4 2.5 1.5 3.3 .5 3.8-1 .5-1 .8 0 1.3 .6 .3 1.2 1.1 1.2 1.6 0 .6-.4 .8-1 .5-.5-.3-1.2 .5-1.4 1.8-.3 1.2-.2 2.7 .2 3.2 .4 .6 .8 3 .9 5.5 .1 2.5 .2 5.2 .3 6 .1 .8-.3 3.8-.8 6.5-.7 3.6-.7 5.5 .2 6.7 .8 1.1 .8 2 0 3-.5 .7-.9 3.8-.8 6.8 .1 3 .5 6.6 .9 8 .5 1.6 .1 3.7-.9 5.8-.9 1.7-1.1 3.2-.6 3.2 .6 0 .8 .7 .5 1.5-.3 .8-.1 2.7 .4 4.3 .6 1.7 .5 4.4-.2 7.7-.7 2.8-1.2 5.7-1.1 6.5 .1 .8 .2 2.1 .3 2.8 0 .6 .6 1 1.1 .7 .6-.3 .9 1.3 .8 4-.2 2.5-.6 4.5-1 4.5-.5 0-1-.6-1.2-1.2-.2-.7-.2 .5 .1 2.7 .4 2.2 1 4.2 1.4 4.5 .5 .3 .7 4 .6 8.3-.1 4.3 .1 8.1 .6 8.3 .4 .2 0 1.4-.8 2.7-1.1 1.6-1.3 3.3-.7 6 .5 2.9 .3 4-.8 4.7-.8 .6-1 1-.5 1 .6 0 .9 1.7 .9 3.8-.1 2-.3 3.7-.4 3.7-.1 0-.2 1.8-.2 4 0 2.2 .1 4.8 .1 5.8 .1 .9 .8 1.7 1.6 1.7 .8 0 1.5 .7 1.5 1.5 0 .8-.6 1.4-1.2 1.2-.7-.2-1.8-1.4-2.4-2.8-.8-1.6-1.4-2-1.8-1.1-.3 .6 0 1.8 .7 2.5 .8 .6 1.7 2.4 2 4 .4 1.7 .3 2.5-.3 2.2-.5-.3-.7 .1-.4 .8 .3 .6 .1 2.2-.5 3.5-.9 1.7-.7 2.7 .7 4.8 1.4 2.1 1.5 2.9 .5 5-.9 1.6-1 2.8-.3 3.7l1 1.2-1 2.8c-.7 1.8-.7 3.7 0 5.7 .6 1.7 .7 3.8 .4 4.8-.5 1.4-.4 1.5 .6 .2 .9-1.2 1-.7 .5 2.5-.4 2.2-.8 7.2-1 11-.1 3.9-.6 8.1-.9 9.5-.5 1.8-.5 2.1 .3 1 .7-1.1 .9-.3 .8 3 0 2.5 .1 6.9 .4 9.7 .3 3.6 .9 5.4 1.9 5.7 1.1 .3 .9 .6-.8 1.2-1.7 .7-2.1 1.4-1.6 2.9 .3 1.2 0 2.3-.8 2.7-1 .6-.8 .8 .5 .8 .9 0 1.7 .5 1.7 1 0 .6-.7 1-1.5 1-.8 0-1.5 .3-1.5 .8 0 .4 .4 1.2 1 1.7 .6 .7 .6 2.2 0 4.5-.5 1.9-.8 4.3-.5 5.3 .3 .9 1.3 1.7 2.3 1.7l1.7 .1-1.6 1.2c-1.2 .9-1.5 2.7-1.3 7.2 .1 3.3 .3 6.2 .4 6.5 .1 .3 .2 1.3 .1 2.3 0 .9 .5 1.7 1.2 1.7 .6 0 .2 .7-1.1 1.7l-2.2 1.8 1.5 1.5c0.9 .8 1.6 2 1.5 2.5 0 .6-.7 2.4-1.5 4-.9 1.7-1.2 3.2-.6 3.5 .5 .3 .9 .7 .9 1 .1 .3 .4 1.4 .8 2.5 .3 1.1 .1 2.9-.5 4-.6 1.1-1.3 3.5-1.4 5.2-.1 1.8-.6 3.3-1.2 3.3-.5 0-.5 .4 .1 .8 .7 .4 1.3 3.2 1.5 6.2 .2 3 0 6.1-.4 6.8-.4 .6-.8 3.5-.9 6.2-.2 2.8-.6 5-1 5l-.8 0 .8 1.1c0.4 .6 0 1.5-.8 2-1.3 .7-1.2 .9 .3 .9 1.2 0 1.5 .5 1 1.8-.5 1.2-.4 1.5 .5 1 .7-.5 1.6-.2 2.2 .7 .6 .8 1.5 1.3 2 1 .6-.3 1 .2 1 1 0 .8 .5 1.5 1 1.5 .6 0 2.1 1.1 3.5 2.5 1.4 1.4 2.2 2.8 1.8 3.1-.5 .3 .3 .3 1.7-.1 1.4-.4 3.4-.3 4.5 .3 1.3 .7 2.9 .7 4.5 0 1.4-.5 5-1.1 8-1.4 3-.3 6.4-.4 7.5-.4 1.1 .1 2.7 .2 3.5 .2 .8 0 3.1-.3 5-.5 1.9-.2 4-.6 4.5-.7 .6-.1 1.2-.2 1.5-.1 .3 .1 3.2 .4 6.5 .7 3.3 .2 7 .6 8.3 .9 1.6 .4 2.1 .1 1.7-1-.4-1.2 0-1.3 2.3-.7 1.5 .4 4.7 .7 7.2 .6 2.5-.1 9.3-.4 15.2-.6 6-.1 10.8-.6 10.8-1 0-.5 2.6-.7 5.8-.5 3.1 .2 6.2 .6 6.7 .9 .6 .3 3.9 .6 7.5 .6 3.6 0 7.1-.4 7.8-.9 .6-.5 1.7-.7 2.2-.4 .6 .3 1.7-.1 2.5-.7l1.6-1.3-.1 1.3c0 .9 2.4 1.1 9.8 .7 5.3-.2 11.1-.4 12.7-.4 1.7-.1 7.1-.1 12-.2 5 0 9.3-.2 9.8-.5 .4-.2 1.3 0 2 .6 .8 .6 2.4 .6 4.7-.2 1.9-.6 4.6-1.5 6-2 1.8-.6 2.7-.5 3.2 .4 .5 1 1.9 1.1 5.2 .6l4.6-.8 .3 .8 .4 .7-.4-1.2c-.2-.8 .6-1.2 2-1.1 1.2 .1 2.7 .5 3.2 .9 .6 .5 2.1 .6 3.5 .4 1.4-.3 6.6-.5 11.5-.6 5-.1 10 .3 11.3 1 1.2 .6 2.2 .8 2.2 .4-.1-.5 .6-.2 1.5 .5 .8 .6 2 1 2.5 .7 .6-.3 .8-.9 .5-1.5-.3-.6 2.8-.9 8.8-.7 5 .1 9.8 .6 10.5 1 .6 .4 1.3 .2 1.5-.5 .1-.7 3.2-1.2 8.7-1.3 4.7-.1 8.5-.3 8.5-.4 0-.2 3.4-.4 7.5-.6 4.1-.3 11.4-.6 16.2-.7 6.5-.2 8.8 0 8.8 1 0 .7 1.5 1.2 4 1.2 2.2 0 5.1-.4 6.5-1l2.5-1 .5 1c0.3 .6 1.3 .7 2.3 .3 .9-.3 2.5-1.3 3.5-2.2 1.3-1.1 2-1.3 2.5-.5 .4 .6 1.7 1.4 3 1.8 1.7 .4 2.1 .2 1.7-.9-.3-.9 .1-1.5 1-1.5 .8 0 1.7 .5 2 1 .3 .6 2.3 .9 4.6 .8 2.2-.2 4.3-.1 4.6 .2 .3 .3 1.9 .6 3.6 .7 1.8 0 3.7-.3 4.2-.8 .6-.6 2.9-.4 5.8 .3 4.2 1.1 5 1.1 6-.2 .7-.9 2.5-1.4 4.5-1.2 1.7 .1 3.2 .7 3.2 1.2 0 .6 .6 1 1.3 1 .9 .1 .9-.2 0-1.2-.7-.7-1-1.6-.5-2.1 .4-.4 1-.7 1.5-.7 .4 0 .7 .6 .7 1.3 0 .7 1.5 1.3 3.5 1.5 1.9 .1 3.5-.2 3.5-.8 0-.6 1.1-.7 2.8-.3 1.5 .3 3 1.1 3.4 1.7 .5 .6 .8 .7 .8 .1 0-.5 2.6-1.1 5.8-1.2 3.1-.1 11.9-.3 19.4-.5 9-.2 14.1-.7 15-1.5 .9-.8 1.9-.9 3.1-.3 .9 .6 3.3 .9 5.2 .8 2-.2 3.9 .2 4.3 .7 .4 .6 1.5 1.1 2.5 1.3 .9 .1 1.7-.2 1.7-.8 0-.6 .8-.6 2.3 .1 1.7 .8 2.4 .8 2.9-.3 .5-.9 3.1-1.3 9.3-1.3 5 0 8.5 .4 8.5 1 0 .6 .3 .7 .7 .3 .4-.4 2.5 0 4.6 1l3.7 1.7 1.8-1.7c0.9-1 2.5-1.8 3.5-1.8 .9 0 1.7 .5 1.7 1 0 .6 1.1 .9 2.5 .8 1.4-.2 2.5-.5 2.5-.8 0-.3 1.5-.5 3.3-.5 1.7 0 3.8 .4 4.5 .8 .6 .4 1.9 .1 2.9-.5 .9-.7 2.6-1.1 3.7-.9 1.2 .1 2.4 .8 2.9 1.5 .5 .8 1.1 .7 2-.4 1-1.2 4.8-1.5 21.2-1.7 11-.2 21.7-.4 23.7-.5 2.1-.2 3.8 0 3.8 .5 0 .4 1.2 .3 2.8-.1 1.5-.5 6.3-.8 10.7-.7 4.4 .2 9 .5 10.3 .9 1.2 .3 2.2 .2 2.2-.4 0-.5 .5-.8 1-.5 .6 .3 1.2 .2 1.4-.2 .2-.5 2.1-.8 4.3-.8 2.1 .1 4.4 .4 5.1 .8 .6 .4 3.3 .4 5.8 0l4.5-.8 .5 .8c0.2 .4 4.1 .5 8.7 .2 4.5-.3 10.3-.7 13-1 2.6-.3 4.7-.2 4.7 .3 0 .4 2.6 .5 5.8 .3 3.1-.2 5.9-.7 6.2-1 .3-.4 1.9-.5 3.5-.3 1.7 .1 4.1 .3 5.5 .3 1.4 0 3.6-.1 5-.3 1.4-.2 3-.9 3.5-1.7 .7-.9 1.5-1.1 2.5-.5 .8 .4 4 .9 7 1.1 3 .1 9.6 .4 14.5 .6 5 .2 9.6 .7 10.3 1 .6 .4 1.9 .3 2.7-.3l1.5-1 2 1c1.4 .7 2.5 .6 3.8-.4 1-.8 3.3-1.3 5.7-1.1 2.2 .2 4.8 .6 5.8 .9 .9 .3 1.9 .2 2.2-.4 .3-.5 2.1-1 4-1 2.2 0 3.5 .5 3.5 1.3l-.1 1.2 1.6-1.2c0.9-.8 1.7-.9 2-.3 .3 .7 2.1 .6 5.3-.1 2.6-.6 4.8-.8 5-.3 .1 .5 2 .5 4.2-.1 2.9-.7 4.5-.7 5.8 .1 1 .7 2.3 .8 3.2 .4 .8-.5 8.7-1.2 17.5-1.6 8.8-.4 19.8-.7 24.5-.6 4.7 .1 9.2 .2 10 .3 .8 0 6-.2 11.5-.4 6.4-.2 10.3 0 10.7 .7 .5 .7 .8 .5 .8-.4 0-1.1 1.2-1.5 5.3-1.5 2.8 0 5.8 .4 6.5 .8 .6 .4 2.4 .2 4-.3l2.7-1.1 2.8 1.1c2.1 .8 2.5 .7 2-.2-.6-.9-.3-1 1.2-.4 1.1 .5 3.1 1.1 4.5 1.4 2 .5 2.3 .3 1.5-.8-.8-1.1-.5-1.2 1.5-.5 1.4 .5 3.2 .8 4 .7 .8 0 3.6-.3 6.3-.6 2.8-.4 4.7-.2 4.7 .4 0 .6 .9 .7 2.1 .3 1.2-.5 2.7-1.4 3.3-2.1 .6-.7 1.4-1.3 1.9-1.2 .4 0 .8 .8 1 1.8 .1 1.3 1.3 2 3.6 2.3 2.1 .2 3.5-.1 3.7-.8 .3-.9 1.8-1.1 4.7-.8 2.5 .3 4.7 0 5.5-.8 .7-.7 1.3-.7 1.3-.2-.1 .6 .3 .4 .7-.3 .4-.8 2.7-1.4 5.7-1.5 2.8 0 9.3 .2 14.5 .5 5.2 .2 10.1 .8 10.8 1.1 .6 .4 2.4 .2 4-.4 1.5-.5 6.8-1 11.7-1 5 .1 9.2 .3 9.5 .6 .3 .2 1.7-.2 3.3-1 1.5-.8 2.9-1.2 3.1-.7 .2 .4 8.9 .5 19.3 .4 10.3-.2 20.8-.4 23.3-.4 2.5 .1 6.8 .3 9.5 .5 2.8 .2 8.6 0 13-.5 4.4-.5 9.8-.9 12-.9 2.2 .1 4.6-.5 5.3-1.2 1-1 1.3-.9 1.2 .3 0 1.1 1.1 1.5 3.7 1.6 3.2 .2 3.4 .1 1.3-.6l-2.5-.8 2.5-.3c1.4-.1 3.2-.2 4-.1 .8 0 7.4 .1 14.5 .1 7.2 .1 16.2-.2 20-.5 3.9-.4 11.1-.5 16-.4 5 .1 10.1-.1 11.5-.5 2.1-.6 2.2-.9 1-1.7-1-.6-.3-.7 2.5-.3 2.2 .4 5.8 .8 8 .9 2.2 .1 5.1-.2 6.5-.6 1.8-.6 2.9-.4 4 .7 .8 .8 1.8 1.5 2.3 1.5l0.7 0-.7-1.2c-.6-.9 1.2-1 7.7-.6 4.7 .3 12.6 .1 17.5-.5 5-.7 9.6-1.5 10.3-2 .6-.4 2.2-.3 3.5 .2 1.2 .5 8.7 .7 16.7 .5 8-.2 17.8-.5 21.8-.6 4.1-.2 7.6 0 7.8 .5 .2 .4 1 .3 1.7-.2 .6-.5 3.5-1.2 6.2-1.5 2.8-.4 6.1-1 7.5-1.3 2-.4 2.2-.2 1 .6-1.2 .9-1 1.1 1 1.1 1.4 0 4.1-.4 6-1 2.2-.6 3.7-.6 4 0 .3 .5 3.6 .7 7.5 .5 3.9-.3 12.9-.7 20-.9 7.2-.2 14.4 0 16 .5 1.7 .4 3.5 .5 4 .1 .6-.3 1.7-.8 2.5-.9 .8-.2 7.4-.4 14.5-.5 7.2-.2 13.3-.7 13.8-1.3 .4-.6 1.1-.4 1.7 .5 .6 .9 1.3 1.1 1.8 .5 .4-.5 3.6-1.1 7.2-1.1 3.6-.1 8.8-.5 11.5-.8 2.8-.4 16.1-.8 29.6-.9 17.9-.2 25-.5 26-1.4 .8-.7 1.8-1 2.2-.5 .5 .4 2.4 .8 4.3 1 2 .1 3.2-.2 2.9-.8-.3-.7 4.2-.8 13.3-.3 9.8 .4 13.9 .3 14.5-.5 .4-.7 1.3-.9 2-.5 .6 .4 2.4 .8 4 1 1.5 .2 2.9-.1 3.2-.7 .3-.6-.1-.7-1.1-.2-1.2 .5-1.4 .3-1-.8 .5-1.1 2.4-1.5 8.1-1.5 4.3 0 7.9 .5 8.7 1.2 .8 .8 2 .9 3.3 .3 1.1-.5 4.3-.6 7-.4 3.8 .4 4.6 .2 3.5-.6-1.1-.8-.5-.9 2.5-.4 2.2 .4 5.8 .7 8 .7 2.2 .1 5.6-.3 7.5-.8 2.6-.6 3.3-.5 2.8 .3l-.8 1.2 .8 0c0.4 0 1.2-.4 1.7-1 .6-.6 5.7-1.2 11.5-1.4 5.8-.2 11.5-.7 12.8-1 1.2-.3 2.2-.3 2.2 .2 0 .4 1.3 .8 3 1 1.6 .1 3-.2 3-.8l0-1 3 1c1.9 .6 3.7 .7 4.8 .1 .9-.5 5.8-1.2 10.7-1.5 5-.3 9.8-.8 10.8-1.1 .9-.3 1.9-.2 2.1 .3 .2 .4 3 .6 6.3 .4 3.2-.2 7.3-.3 9.1-.3 1.7 .1 3.2-.3 3.2-.9 0-.6 1-.6 2.8 .2 1.9 .8 4.3 .9 8.2 .2 3.3-.6 6.7-.7 8.5-.1 1.7 .5 3.7 .5 4.5 .1 .8-.4 6.5-.8 12.5-.9 6.1-.1 12-.5 13.3-.9 1.2-.3 2.8-.2 3.5 .3 .6 .5 4.1 .5 7.7 0 3.6-.4 10.6-.8 15.5-.8 5 0 10.5-.2 12.3-.5 1.7-.3 3.4-.3 3.6 .2 .2 .4 3.5 .6 7.3 .4 3.7-.1 10-.4 13.8-.6 3.9-.3 7.2-.8 7.5-1.3 .3-.4 5.5-.8 11.5-.7 6.1 0 11.8 .2 12.8 .2 .9 .1 1.5 .7 1.2 1.2-.3 .6 .2 1 1 1 .8 0 1.8-.7 2.3-1.6 .5-1.2 2.1-1.5 6.7-1.4 3.3 0 9.4 .2 13.5 .4 4.1 .2 8.4-.1 9.5-.7 1.1-.6 12.1-1.2 24.5-1.4 12.4-.2 23.6-.3 25-.3 1.4-.1 2.2-.4 1.7-.8-.4-.4 .3-1.2 1.5-1.7 1.7-.8 2.2-1.8 2.1-4-.2-1.7-.3-6-.3-9.7 0-3.8-.4-7-1-7.3-.6-.3-.7-1-.1-1.7 .6-.7 1.2-4.6 1.5-8.5 .5-5.6 .3-7.1-.6-6.5-.9 .5-1 .2-.5-1 .4-1 .7-8.9 .7-17.5 0-8.7-.2-22.5-.4-30.8-.3-8.2-.7-16.2-1-17.7-.3-1.6-.2-2.8 .4-2.8 .6 0 .8-1.6 .6-3.7-.3-2.1-.9-7.8-1.5-12.8-.5-4.9-1.4-11.2-2-14-.6-3.1-.7-6.1-.1-8 .5-1.6 .7-3.2 .4-3.5-.3-.3-.6-5.9-.8-12.5-.2-6.6-.8-12.8-1.2-13.8-.6-1.2-.5-2.1 .2-2.5 .8-.5 .9-2.7 .2-7.7-.5-3.8-1.1-8.8-1.3-11-.3-2.2-1-4.4-1.5-5-.5-.5-.8-1.2-.5-1.5 .3-.3 .7-5.3 1-11.2 .3-6.7 .1-11-.5-11.3-.5-.3-1-.9-1-1.5 0-.5 .7-.8 1.5-.5 .8 .3 1.5 .2 1.5-.2 0-.5-.4-1.2-1-1.8-.5-.6-1-6.5-1-13.5 0-6.9 0-13.8 0-15.5 0-1.6-.1-6.3-.2-10.3-.2-5.1-.7-7.6-1.8-8.2-1.2-.8-1.2-1.2-.2-1.7 .6-.5 1-1.7 .9-2.8-.2-1.1-.8-2.8-1.3-3.8-.6-1.2-.5-2.1 .1-2.5 .6-.4 1.1-3.7 1.3-7.4 .1-3.8-.1-6.8-.5-6.8-.5 0-.8-8.7-.8-19.3 0-10.5-.3-22.8-.8-27.2-.5-4.4-.9-16.7-1-27.2-.1-10.6-.4-19.3-.7-19.3-.3 0-.6-6.2-.8-13.7-.2-7.6-.5-23.5-.8-35.3-.2-11.8-.4-22.3-.4-23.2 0-1-.4-2-1-2.3-.5-.3-.7-1.1-.3-1.7 .3-.7 .5-5.1 .4-9.8-.1-4.7-.7-8.9-1.2-9.5-.5-.5-1.4-5.9-2-12-.5-6-1.4-12.6-1.9-14.5-.6-2.2-.6-4 0-4.7 .6-.8 .7-3.8 .1-8-.6-3.8-1-7.5-.9-8.3 0-.8-.1-3.7-.2-6.5-.2-2.7-.5-5.4-.8-6-.3-.5-.7-3.2-1-6-.2-2.7-.4-7.9-.4-11.5 0-3.6-.6-9.4-1.4-13-1-4.5-2.3-7.3-4.2-9.1-1.5-1.5-3.8-2.9-5.2-3.2-1.6-.4-4.1 .2-7 1.6-2.6 1.3-4.6 3-4.8 4.2-.3 1.1-1.9 3.4-3.7 5-1.8 1.7-3.6 4-3.9 5.3-.4 1.4-.2 2.2 .7 2.2 .6 0 .3 .7-.8 1.5-1.1 .8-2.3 1.2-2.7 1-.5-.3-1.5 1.1-2.3 3-.8 1.9-1.8 3.5-2.2 3.5-.5 0-1.4 1.5-2.2 3.2-1 2.5-1.5 2.9-2.1 1.8-.6-1.2-1.2-.9-2.8 1.5-1.5 2.1-1.8 3.3-1.1 4 .7 .7 .7 2.2-.3 4.8-.7 2-1.9 3.7-2.5 3.7-.7 0-2.2 1-3.3 2.3-1 1.2-2.2 3.8-2.6 5.7-.4 1.9-2 4.9-3.6 6.5-1.5 1.7-2.8 3.8-2.8 4.8 0 .9-.4 1.9-1 2.2-.5 .3-.8 1.2-.5 2 .3 1-.2 1.5-1.5 1.5-1.2 0-2 .7-2 1.8 0 .9-.4 2.2-1 2.7-.5 .6-1.6 2-2.3 3.2-.6 1.2-2.8 5.2-4.8 9-1.9 3.7-3.8 8-4.2 9.6-.4 1.5-1.1 2.7-1.7 2.7-.5 0-1 .7-1 1.5 0 .8-.6 1.7-1.2 2l-1.3 .5 1.3 .5c0.6 .3 1.2 1 1.2 1.5 0 .6-.7 1-1.5 1-.8 0-1.3 .3-1.1 .8 .3 .4-1.3 2.6-3.5 5-2.1 2.3-3.9 4.7-3.9 5.2 0 .6-1.7 2.9-3.7 5.2-2.1 2.3-5.1 5.6-6.7 7.2-1.6 1.7-2.4 3.2-1.7 3.4 .8 .1 .8 .6-.1 1.7-.7 .9-1.9 1.6-2.5 1.5-.7 0-1.5 .7-1.8 1.5-.3 .8-1.1 1.5-1.7 1.5-.7 0-2.4 1.5-3.8 3.3-1.4 1.7-3.6 4.1-4.9 5.2-1.3 1.1-3.4 3-4.7 4.3-1.3 1.2-2.6 2.2-2.9 2.2-.3 0-1.4 1-2.5 2.3-1.1 1.2-2.8 3.6-3.7 5.2-1 1.7-1.7 3.3-1.8 3.7 0 .3-2 2.2-4.5 4.1-2.5 1.9-5.4 4.7-6.5 6.1-1.1 1.5-2.3 2.7-2.7 2.6-.5 0-3.7 2.9-7.3 6.5-3.6 3.6-6.5 7.2-6.5 8 0 .8-.4 1.3-1 1-.5-.3-1 0-1 .5 0 .6-.4 1-1 1-.5 0-3.6 2.5-6.7 5.5-3.2 3.1-7.4 7.1-9.3 9-1.9 1.9-3.8 3.5-4.2 3.5-.5 0-1.7 .9-2.8 2-1.1 1.1-2 2.7-2 3.5 0 .9-.9 1.5-2.5 1.5-1.6 0-3.7 1.3-5.7 3.5-1.8 1.9-4.3 3.4-5.5 3.5-1.3 0-2.5 .6-2.6 1.3-.2 .6-1.7 1.2-3.3 1.3-1.6 0-5.5 1.2-8.6 2.7-3.2 1.5-6 3.4-6.3 4.2-.3 .8-1.1 1.5-1.7 1.5-.7 .1-2.8 2.1-4.5 4.5-1.8 2.5-4.5 5.3-6 6.2-1.6 1-3.7 2.6-4.8 3.6-1.1 .9-2.6 1.7-3.2 1.7-.7 0-1.3 .7-1.3 1.5 0 .8-1 1.9-2.2 2.5-1.3 .5-3 1.4-3.8 1.9-.8 .5-3 1.6-4.8 2.3-1.7 .7-3.2 1.9-3.2 2.6 0 .6-.4 1-1 .7-.5-.3-4.3 1-8.2 2.8-5.7 2.6-7.6 4-8.8 6.6-1.2 2.6-1.9 3.2-3.7 2.7-1.9-.5-2.5 0-3.5 2.4-.8 1.7-1.8 2.8-2.5 2.5-.7-.3-2.2 .9-3.3 2.5-1.2 1.9-3.1 3.2-5 3.5-1.6 .3-3.2 1.2-3.5 2-.3 .8-1.4 1.5-2.5 1.5-1.2 0-2 .7-2 1.8 0 1.2-.3 1.3-.8 .4-.5-.8-1.4-.3-2.9 1.8-1.5 1.9-3.2 3-4.8 3-1.5 0-2.9 .8-3.5 2-.5 1.1-1.9 2-3 2-1.1 0-2.7 .7-3.5 1.5-.8 .8-1.9 1.5-2.5 1.5-.5 0-1.2 .7-1.5 1.5-.3 .8-.9 1.3-1.5 1-.5-.3-1 0-1 .5 0 .6-.9 1-2 1-1.1 0-2 .7-2 1.5 0 1-1 1.5-3 1.5-1.6 0-3.2 .6-3.4 1.3-.1 .6-3.3 2.2-7 3.5-3.6 1.2-7 2.2-7.6 2.2-.5 0-2.2 .5-3.7 1.2-1.6 .6-3.1 1.1-3.5 1-.5-.1-2 .6-3.5 1.6-1.6 1-4.5 2.5-6.5 3.5-2.1 .9-4.8 1.7-6 1.7-1.3 0-2.7 .4-3.3 .9-.5 .6-2.6 1.2-4.5 1.5-1.9 .2-6.2 1.8-9.5 3.4-3.3 1.6-8 3.6-10.4 4.3-2.4 .8-5.1 2.1-6 2.9-.9 .9-4.4 2.8-7.8 4.3-3.5 1.5-7.6 2.7-9.3 2.7-1.6 0-3.3 .5-3.7 1.1-.5 .6-1.6 .8-2.5 .5-1.1-.3-1.6-.2-1.3 .4 .3 .6-.1 1.3-.7 1.7-.7 .3-3 .5-5 .5-2.5-.1-4.1 .3-4.5 1.3-.5 .9-1.5 1.7-2.3 1.8-.8 .1-2.2 .7-3 1.1-.8 .5-4.3 1-7.8 1-4.1 .1-6.5 .6-7 1.4-.5 1-2 1.2-5.7 .7-4-.6-5.1-.4-5.7 .9-.5 .9-1.4 1.5-2 1.5l-1.3-.1-1.2 .1c-.7 0-1.9 .7-2.5 1.4-.7 .7-3.3 2.3-5.8 3.5-2.5 1.2-5.3 2.2-6.2 2.2-1 0-1.8 .5-1.8 1 0 .6-.7 1-1.5 1-.8 0-2.3 .4-3.2 .9-1 .4-3.6 1.7-5.8 2.7-2.2 1-4.2 2.2-4.5 2.6-.3 .4-2.5 1-5 1.3-2.5 .3-4.7 .9-5 1.3-.3 .4-1.8 .8-3.5 .9-1.6 .1-5.2 1.4-8 2.8-2.7 1.4-5.8 2.5-6.7 2.5-1 0-3 .6-4.5 1.4-1.6 .8-5.3 1.6-8.3 1.8-3 .2-6.2 .9-7 1.6-.8 .8-2.3 1.1-3.2 .8-1.4-.5-1.6-.2-1.1 1.2 .5 1.4 .4 1.5-.8 .5-.9-.8-4.4-1-10.4-.7-5.3 .2-9.5 .9-10.3 1.6-1 .9-1.5 1-2 .2-.4-.6-2.4-1.1-4.5-1-2.2 .1-4.1 .7-4.6 1.6-.5 .8-1.4 1.2-2 .8-.6-.5-1.7-.2-2.3 .5-.7 .6-3.5 1.4-6.3 1.5-2.7 .2-5.4 .8-6 1.3-.5 .5-7.1 1.1-14.5 1.3-8.1 .3-12.9 .1-12-.4 .8-.5 1.3-1.1 1-1.4-.3-.3-2.3 0-4.5 .8-2.5 .8-6.8 1.2-11.5 .9-4.1-.2-7.7-.9-8-1.4-.3-.6-3.4-1.1-7-1.3-3.6-.1-6.9 .1-7.5 .5-.5 .4-3.5 .3-6.5-.1-3.7-.5-6-.4-6.9 .4-.8 .6-4.1 1.2-7.3 1.4-3.2 .1-6.1 .4-6.5 .6-.5 .3-3.5-.3-6.8-1.4-3.6-1.1-7.9-1.6-10.7-1.4-2.7 .2-5 .1-5.2-.3-.2-.5-2.4-.8-4.8-.8-2.3 .1-4.9 .4-5.5 .8-.7 .4-3.6 .8-6.4 1-3.9 .1-5.3-.2-6.2-1.5-.7-1-1.5-1.7-1.9-1.8l-.8 0 .8 1.2c0.5 .9 .2 1-1.3 .4-1.1-.5-3.6-1.2-5.5-1.6-1.9-.5-6.9-1.2-11-1.5-4.1-.4-8.6-1.3-10-2-1.4-.8-3.5-1.2-4.7-.9-1.3 .2-2.3 0-2.3-.6 0-.5-.9-.8-2-.5-1.1 .3-2.2 .1-2.5-.5-.3-.5-2.2-1-4.2-1.1l-3.8 0-2.2 0c-1.3 .1-2.1-.3-1.8-.9 .3-.5-.5-1.1-1.7-1.2-1.3 0-3 0-3.8 .1-.8 .1-4.4 .2-8 .2-3.6-.1-7.2 .3-8 .9-1 .6-2.1 .4-3.3-.8-1.1-1.1-2.1-1.3-2.5-.7-.4 .6-1.8 1-3.2 1.1-1.4 0-5.5 .3-9.2 .7-4.8 .5-7.4 .3-8.7-.5-1.6-1.1-2.2-1-3.6 .2l-1.6 1.5-.5-2.2c-.2-1.3-.8-2.3-1.4-2.3-.5 0-1 .6-1 1.3 0 .9-.2 .9-1.2-.1-.7-.7-2.8-1.2-4.5-1.2-1.8 0-3.3-.4-3.3-1 0-.5-1-.9-2.2-.7-1.8 .1-2.3-.3-2.3-2 0-1.8-.4-2.1-2-1.6-1.4 .5-1.8 .3-1.2-.5 .4-.7 .2-1.2-.5-1.2-.7 0-1.9 .5-2.7 1.2-1.1 1-1.4 1-1.7 .1-.2-.7-1.2-1.3-2.1-1.3-1 0-3.6-1.2-5.8-2.7-2.2-1.4-5-2.7-6.2-2.7-1.5-.1-1.9-.5-1.2-1.3 .6-.9 .4-1.5-.6-1.8-.8-.3-1.5-.2-1.5 .3 0 .4-1.6 .3-3.5-.3-1.9-.5-3.5-1.6-3.5-2.2 0-.7-.3-1.4-.7-1.4-.5-.1-1.9-.3-3.3-.4-1.4-.1-2.7 .1-3 .5-.3 .5-3 0-6-1.1-3-1.1-5.7-1.8-5.9-1.7-.2 .2-.7-.4-1-1.2-.3-.8-1.3-1.5-2.1-1.6-.8-.1-2.4-.2-3.5-.3-1.6-.1-1.7-.3-.5-1 1.1-.6 .5-.9-2-.9-2.4-.1-3 .2-2 .7 1.1 .7 1.2 1 .3 1.5-.7 .3-1.9-.1-2.5-.9-.7-.9-2.1-1.6-3-1.5-1 0-1.8 .5-1.8 1 0 .6-.4 1-1 1-.5 0-1-.7-1-1.5 0-.8-.6-1.7-1.2-1.9-1-.3-.9-.7 .2-1.4 1.2-.8 .8-1-1.5-1-1.6 0-3.3-.6-3.7-1.4-.6-1-.8-1-.8 .2 0 1.1-.7 .8-2.5-1-1.4-1.4-2.5-2-2.5-1.5 .1 .6-.5 .4-1.2-.2-.7-.7-1.6-1.1-2-.8-.5 .3-1.8-.4-3-1.5-1.5-1.4-3.1-1.9-4.5-1.5-1.3 .3-2.5 .1-2.8-.5-.3-.5-1.4-1-2.5-1-1.1 0-2-.3-2-.7 0-.5-1.4-1.5-3.1-2.3-2.3-1.1-2.9-2-2.5-3.2 .4-1.2 .1-1.8-.9-1.8-.8 0-2.1-.8-2.7-1.9-.8-1.1-3.2-2.1-6.3-2.6-2.7-.4-6.8-.8-9-.9-2.2-.2-6.6-1.1-9.8-2.2-3.2-1-5.7-2.2-5.7-2.6 0-.5-1-.9-2.2-1-1.7-.2-2.2-.8-1.9-2.3 .3-1.7 .1-1.8-1.3-.7-1 .7-1.8 .8-2.1 .2-.3-.5-.9-.8-1.5-.5-.5 .3-1.3-.2-1.7-1.1-.5-.8-1.2-1.3-1.8-1-.5 .2-2.3-.4-4-1.4-1.6-1-3.7-1.6-4.5-1.2-1 .4-1.3 .3-.7-.6 .4-.8 .1-1.2-1-1.2-1 0-2.4-.9-3-2-.7-1.1-2-2-2.8-2-1 0-1.3-.6-.9-1.7 .5-1.4 .2-1.6-1-1-1 .4-2.2 0-3.3-1.3-1-1.1-2.2-2-2.8-2-.5 .1-1.7-.6-2.5-1.5-1-1.1-1.9-1.2-2.7-.5-.9 .7-2.2 .5-4.3-.7-1.6-1-3.2-2.6-3.5-3.5-.3-1.1-1.5-1.8-3-1.8-1.4 0-2.7 .1-2.9 .3-.2 .1-1.6-1.1-3-2.8-1.4-1.6-3.2-3-3.8-3.1-.7-.1-2.3-.2-3.5-.2-1.6-.2-2.3-.8-2.3-2.2 0-1.1-.7-2-1.5-2-.8 0-1.7-.7-2-1.5-.3-.8-.9-1.5-1.5-1.5-.5 0-2.3-1.1-4-2.5-2.1-1.8-3.4-2.2-4.2-1.5-.9 .7-2 .2-3.5-1.5-1.3-1.4-2.9-2.5-3.5-2.5-.7 0-2.3-.7-3.5-1.7-1.2-1-3.8-3-5.7-4.5-2-1.6-5.3-5.4-7.5-8.5-3.1-4.7-4.4-5.8-6.7-5.9-1.6-.1-3-.7-3.1-1.3-.2-.6-1.2-1.1-2.3-1.1-1.2 0-2.5-1.1-3.2-2.7-.7-1.5-2.3-3.7-3.5-5-1.3-1.3-3-2.1-3.8-1.8-.8 .3-1.5 .2-1.5-.2 0-.5 .5-1.3 1.2-1.9 1-1 1-1.3 .1-1.8-.7-.3-1.3-1.3-1.3-2.1 0-.8 .7-1.5 1.5-1.5 .8 0 1.8-.8 2.1-1.7 .5-1.5 .2-1.7-1.5-1-1.2 .4-2.1 .3-2.1-.3 0-.5 .2-1.7 .5-2.5 .3-.8 1.2-1.3 2-1 1 .3 1.5-.1 1.5-1.2 0-1 1-2.8 2.2-4 1.5-1.4 3-2 4.3-1.7 1.5 .4 2.2-.1 2.7-1.8 .7-1.9 1-2 1.8-.8 .6 1 1 1.1 1 .3 0-.7 .7-1.1 1.5-.8 .9 .3 1.2 1 .8 1.7-.6 .9-.3 1 1 .5 1-.4 1.9-.2 2.1 .6l0.4 1.2 .1-1.2c0.1-.8 .9-.5 2.1 .7 1.1 1.1 3.4 2.2 5 2.5 1.9 .3 2.8 1 2.4 1.8-.3 .6 .2 1.9 1.1 2.7 1.3 1.2 1.8 1.2 2.3 .2 .5-1 1.8-.7 5.7 1.2 2.8 1.3 6.3 4.1 7.9 6.2 1.7 2.2 3.1 3.3 3.3 2.7 .2-.9 1.1-.7 3.1 .7 1.5 1.1 3.1 1.6 3.5 1.2 .4-.4 1.2 0 1.7 .8 .7 1.2 3.1 1.5 10.2 1.5 7.5 .1 9.7-.3 11.6-1.7 1.2-1 2.8-1.6 3.5-1.3 .6 .3 2.6-.6 4.2-2 1.7-1.5 4-3.1 5.3-3.6 1.2-.5 2-1.5 1.8-2.1-.3-.7 .8-2.6 2.3-4.3 1.6-1.6 2.7-3.4 2.4-4-.2-.5 .3-1.7 1.2-2.5 1.1-1 1.2-1.9 .5-2.7-.5-.7-.7-1.9-.2-2.7 .4-.8 .6-3.7 .5-6.5-.2-3.7-.6-4.9-1.5-4.3-.9 .5-1-.1-.4-2.3 .7-2.6 .6-2.9-.8-2.2-1.4 .6-1.5 .1-1.1-3 .2-2.1 .1-4.2-.3-4.8-.4-.5-1.6-1.5-2.7-2.1-1.1-.6-2.7-2.4-3.5-4.1-.9-1.8-3-3.7-5.2-4.7-2.1-.9-4-2.2-4.3-2.8-.2-.7-2.9-2.4-5.9-3.8-3.1-1.4-5.2-2.9-4.8-3.5 .4-.6 0-.7-1-.2-1.3 .5-2.2 0-3.3-1.8-.9-1.5-2.1-2.3-3-2-1 .3-1.5-.2-1.5-1.5 0-1.3-.8-2.2-2.5-2.5-1.5-.3-2.3-1-1.9-1.7 .3-.7-1.1-2.8-3-4.5-2-1.8-4.2-3.3-4.8-3.3-.7 0-3.7-1.6-6.5-3.5-2.9-1.9-5.3-3.9-5.3-4.5 0-.5-.9-1-2-1-1.1 0-2-.7-2-1.5 0-.8-.6-1.6-1.2-1.6l-1.3-.1-.7 .1c-.5 0-.7-.8-.5-1.8 .1-1-1-3.1-2.5-4.5-1.6-1.4-3.2-2.4-3.8-2.1-.5 .3-1.6-.4-2.2-1.5-.7-1.1-1.9-2-2.5-2-.7 0-2-1.1-2.8-2.5-.8-1.4-2.4-2.7-3.5-3-1.3-.3-1.7-1-1.3-1.7 .5-.9 .4-1-.5-.5-.6 .4-1.2 .3-1.2-.3 0-.5-.8-1.8-1.7-2.7-.9-1-1.8-1.6-2-1.3-.2 .3-1.1-.6-2.1-2-.9-1.4-2.4-2.6-3.2-2.8-.8-.2-1.6-.8-1.7-1.3-.2-.5-1.2-.9-2.3-.9-1.5 0-1.9-.6-1.7-2.2 .1-1.4-.3-2.2-1-2-.7 .1-1.3-.4-1.3-1-.1-.7-1.3-2.5-2.8-4-1.5-1.4-3.5-3.8-4.4-5.2-1-1.4-2.2-2.4-2.8-2.1-.5 .3-1 .1-1-.5 0-.5-1.1-1.4-2.5-2-1.4-.5-3.3-2.3-4.2-3.8-1-1.6-2.4-2.7-3-2.5-.7 .1-1.3-.4-1.3-1.2 0-.8-1.7-2.2-3.7-3-2.1-.8-4.5-1.9-5.3-2.4-.8-.5-1.4-1.5-1.2-2.3 .1-.7-1.2-2.4-3-3.8-1.8-1.4-6.5-5.6-10.4-9.5-4-3.8-8.4-8.7-9.8-10.7-1.4-2.1-2.5-4.1-2.5-4.5 .1-.5 .1-1.5-.1-2.3-.1-1.1-.4-.9-1 .5-.7 1.7-.9 1.7-.9 .3-.1-1-.5-1.8-1.1-1.8-.5 0-1.9-.8-3-1.7-1.1-1-2-2.9-2-4.3 0-1.4-.9-3.6-2-5-1.4-1.8-2-4.1-2-8.2 0-4.3 .4-5.9 1.5-6.3 .8-.3 1.5-1.3 1.5-2.2 0-1 .7-2.8 1.7-4 1.4-1.7 2.8-2.2 6.8-2.1 2.8 0 5.8 .6 6.7 1.2 1.4 .9 2.1 .7 3.2-.9 .9-1.1 1.6-1.4 1.6-.7 0 .6 .7 1.2 1.5 1.2 .8 0 1.5-.4 1.5-1 0-.5 .7-1 1.5-1 .8 0 1.8 .6 2.3 1.4 .4 .7 1.7 1.8 3 2.5 1.2 .6 2.9 .9 3.7 .6 .8-.3 2.8 .7 4.4 2.3 1.5 1.5 4.4 4.2 6.5 6 2.2 2 3.3 3.7 2.9 4.4-.6 1-.4 1 .7 .3 1.2-.8 1.3-.6 .7 .8-.5 1.2-.3 1.6 .8 1.2 .8-.3 1.7 0 2 .5 .3 .6 .1 1-.5 1-.5 0-1 .6-1 1.3 0 .9 .2 .9 1.2 0 1-1 1.9-.6 4.1 2 1.5 1.7 2.7 3.5 2.7 4 0 .4 .6 .7 1.3 .7 .6 0 3.9 2.7 7.2 6 3.3 3.4 7 6.5 8.3 7.1 1.2 .5 2.2 1.6 2.2 2.4 0 .8 1 1.7 2.3 1.9 1.6 .3 2 .9 1.5 2-.6 1.2-.4 1.5 .7 1.1 1-.3 1.5 .2 1.5 1.5 0 1.1 .5 1.8 1.3 1.6 .6-.2 2.2 .7 3.5 2 1.2 1.4 1.9 2.9 1.5 3.6-.6 .8-.2 1 1.5 .5 1.6-.5 2.2-.3 2.2 .8 0 .8 .6 1.5 1.3 1.5 .6 0 2.4 1.3 4 3 1.5 1.6 2.7 3.5 2.7 4 0 .6 .5 1 1 1 .6 0 2.6 1.6 4.5 3.5 1.9 1.9 3.8 3.5 4.3 3.5 .4 0 1.7 1.1 3 2.5l2.2 2.5-1.7 .4c-1.5 .3-1.4 .5 .5 1 1.2 .3 2.2 1.1 2.2 1.6 0 .6 1.2 2.1 2.8 3.4 1.6 1.5 3.3 2.2 4.2 1.8 1-.4 1.3-.3 .8 .6-.5 .7 0 1.5 1.5 2.1 1.2 .5 2.6 .6 3.1 .2 .6-.3 .7 .4 .2 1.9-.5 1.7-.4 2 .2 1 .8-1.2 1.9-.5 6.3 4 2.9 3 5.2 5.8 5.1 6.3-.1 .4 .3 .7 .8 .7 .6 0 1-.7 1-1.5 0-.8 .5-1.3 1-1 .6 .3 .8 1 .5 1.5-.3 .6 .4 1.3 1.5 1.8 1.2 .4 2.3 1.5 2.5 2.5 .3 .9 1.5 2 2.8 2.4 1.2 .4 4.1 2.7 6.5 5.2 2.4 2.5 4.9 4.6 5.5 4.6 .7 .1 1.1 .6 1 1.3-.2 .7 .8 1.2 2.2 1.2 1.4 0 2.5 .5 2.5 1 0 .6 1.5 1.9 3.3 2.9 2.4 1.5 3.4 1.7 4 .8 .5-.8 .9-.5 1.5 1.1 .4 1.2 1.3 2.5 2 2.7 .8 .3 1-.1 .5-1.2-.5-1.4 0-1.2 2.4 .7 1.8 1.4 3.2 3.1 3.2 3.8 .1 .6 .4 1.2 .9 1.2 .4 0 1.4 1.1 2.2 2.5 .8 1.4 2.1 2.5 2.8 2.5 .6 0 1.5 .7 2 1.6 .4 .8 1.3 1.3 2 1 .6-.3 2.6 .8 4.2 2.4 2.1 2.1 3.2 2.6 3.6 1.8 .4-.9 1-.4 1.8 1.2 .6 1.4 1.8 2.5 2.6 2.6 .8 0 3.2 1 5.3 2.2 2 1.2 3.7 2.7 3.7 3.2 0 .6 .6 1 1.3 1 .6 0 2.7 1.3 4.5 3 1.7 1.6 4.1 3 5.2 3 1.1 0 2 .7 2 1.5 0 .8 .6 1.8 1.3 2.2 .6 .3 4.1 .7 7.7 .8 3.6 .1 7.5 .3 8.8 .4 1.2 0 2 .6 1.7 1.1-.3 .6 .3 1.3 1.3 1.6 .9 .3 2.5 1 3.5 1.5 .9 .5 2.2 .7 2.7 .4 .6-.3 1.2 0 1.5 .5 .3 .6 1.1 .5 2-.2 1.3-1.1 2-.9 4.3 1.3 1.5 1.4 3.4 2.8 4.2 3.1 .8 .3 1.9 .5 2.3 .4 .5 0 1.3 .7 1.8 1.7 .5 .9 1.4 1.7 1.9 1.7 .6 0 .8-.7 .5-1.5-.3-.8-.2-1.5 .3-1.5 .4 0 1.7 .7 2.9 1.7 1.3 1 1.9 2.2 1.5 2.6-.4 .4 .8 .7 2.6 .7 1.7 0 4.7 .7 6.5 1.7 1.7 .9 3.2 1.5 3.2 1.4 0-.1 .9 .1 2 .5 1.1 .3 2.8 .4 3.8 0 .9-.3 2 0 2.5 .7 .4 .6 4.1 2.1 8.2 3.1 4.1 1 9.1 2 11 2.1 1.9 .2 4 .9 4.5 1.7 .6 .7 2.1 1.2 3.5 1.2 1.4-.1 3.9-.3 5.5-.5 1.7-.1 4 0 5.3 .4 1.2 .4 3.7 .3 5.5-.2 2.4-.6 3.6-.4 4.7 .7 1 1 2.5 1.2 4.8 .8 1.7-.3 3.2-.3 3.2 .2 0 .4 1.4 1.1 3.2 1.5 1.8 .5 5.4 1 8.1 1 2.6 .1 4.7 .5 4.7 1 0 .4 1.5 .3 3.3-.2 1.7-.5 3.4-.8 3.7-.6 .3 .2 6.4 .7 13.5 1.1 7.2 .4 13.7 .6 14.5 .6 .8-.1 3.8-.3 6.5-.6 2.8-.3 5.3-1.1 5.6-1.8 .5-.9 1.1-1 2-.3 .8 .6 4.1 1.1 7.4 1.3 3.3 .2 9.2 .2 13 .1 3.9-.1 8.1-.3 9.5-.4 1.4-.1 3.3-.3 4.3-.4 .9 0 1.7-.8 1.7-1.6 0-.8 .8-1.5 1.8-1.5 .9 0 3.1-.6 4.7-1.4 1.7-.8 5-1.7 7.5-1.8 2.5-.2 6.2-1.4 8.3-2.6 2.6-1.5 5.4-2.2 9.5-2.3 3.1 0 6.9-.2 8.5-.5 1.5-.2 2.5-.8 2.2-1.4-.3-.5-.2-1 .3-1 .4 0 1.3 .5 2 1.2 1.1 1.1 1.6 1 2.5-.3 .7-.9 1.7-1.4 2.2-1.2 .6 .2 2.7-.8 4.8-2.2 2-1.4 4-2.5 4.5-2.5 .4 .1 1.6-.9 2.7-2 1.1-1.1 2.7-2.1 3.5-2 .8 0 4.2-1.4 7.5-3 3.3-1.7 7.5-4.4 9.3-6 1.7-1.7 3.5-2.8 4-2.5 .4 .3 2.3-1.1 4.2-2.9 1.9-1.9 3.8-3.3 4.3-3 .4 .2 .7 0 .7-.6 0-.5 .7-1 1.5-1 .8 0 2.5-1.3 3.8-2.8 1.2-1.6 3.2-3.2 4.5-3.5 1.2-.4 3-1.8 4-3.2 .9-1.3 2-2.1 2.5-1.7 .4 .4 .8 0 .8-.8 .1-.8 .1-1.8 0-2.2 0-.5 .6-.8 1.4-.8 .8 0 1.5-.7 1.5-1.5 0-.8 .7-2.3 1.6-3.2 .8-1 3.1-4.2 5-7 1.8-2.9 3.4-5.9 3.4-6.5 0-.7 1.6-3.1 3.5-5.3 2.3-2.5 3.4-4.6 3-5.7-.3-1.1 .1-2 1-2.3 .8-.3 1.4-.8 1.3-1.2 0-.5 .2-1.6 .5-2.5 .5-1.2 1.3-1.6 2.5-1.1 1.4 .6 1.5 .4 .5-1-1-1.3-1-1.9-.2-2.4 .7-.5 1-2.3 .8-4-.2-1.8-.1-3.3 .4-3.3 .4 0 .5-1.1 .2-2.5-.3-1.4 0-2.7 .5-3 .6-.3 1 .2 1 1 0 .8 .5 1.3 1 1 .6-.3 1-1.3 .9-2.2 0-1 .2-3.6 .5-5.8 .2-2.2 .9-4.2 1.4-4.5 .6-.3 1.2-2.6 1.4-5.2 .1-2.5 0-5-.5-5.5-.4-.4-.8-1.2-.8-1.8 0-.5 .8-.3 1.7 .5l1.7 1.5-.6-2.5c-.3-1.4-.1-6.1 .5-10.5 .5-4.4 1.2-9.1 1.4-10.5 .3-1.4 .7-5.9 .9-10 .3-4.1 .6-12.3 .8-18.2 .1-6-.2-10.9-.6-11-.4-.2-1.2-2.1-1.7-4.3-.5-2.2-.7-5.7-.4-7.7 .3-2.8 0-3.9-1.1-4.3-1-.3-1.2-.9-.6-1.7 .5-.7 1-2.8 1.2-4.5 .3-2.4 0-3.2-.8-2.8-.8 .3-1.3-.3-1.3-1.5 0-1.1-.6-2-1.2-2-1 0-1.1-1-.5-4 .5-3 .2-5.1-1.3-8.5-1.1-2.5-2-6-2-7.7 0-2.1-.9-4.4-2.5-6.3-1.4-1.6-2.5-3.7-2.4-4.5 .1-.8-.4-2.9-1.2-4.6-.8-1.7-2-2.9-2.6-2.7-.9 .2-1.2-1.1-1.1-4.4 .1-3.8-.3-5.3-2-7-1.2-1.3-2-3-1.7-3.8 .3-.9-.1-1.5-1-1.5-1 0-1.8-1.4-2.2-4-.5-2.2-1.1-4-1.5-4-.5 0-1.5-2.1-2.3-4.7-.7-2.7-2.1-5.5-3-6.3-.9-.8-1.6-2.5-1.5-3.7 0-1.5-.7-2.5-2-2.8-1.2-.3-2-1.3-2-2.5 0-1.2-.5-1.8-1.2-1.5-.8 .3-1.4-.4-1.5-1.7-.2-1.3-.4-2.9-.5-3.5-.2-.7-.6-1.3-1-1.3-.5 0-.7-1.1-.5-2.5 .1-1.3-.2-2.6-.8-2.8-.6-.2-.5-.9 .3-1.8 .7-.8 1.1-3.1 1-5.1-.2-2 0-4 .5-4.5 .4-.4 .8-1.5 .8-2.3 0-.8 1.1-2.7 2.4-4.2 1.4-1.6 3-2.6 3.5-2.3 .6 .3 1.5-.4 2-1.5 .6-1.1 1.9-2 3-2 1.1 0 2.1-.4 2.3-.9 .1-.5 3-.2 6.5 .8 5.1 1.3 6.4 2 6.8 3.9 .2 1.2 .7 2.2 1.2 2.2 .4 0 2.5 1.6 4.7 3.5 2.2 2 3.4 3.6 2.8 3.5-1 0-1 .5 .1 2.3 .7 1.2 2.2 3.8 3.3 5.7 1.1 1.9 2.6 4.6 3.4 6 .8 1.4 2.4 3.7 3.7 5.2 1.2 1.6 2.2 3.5 2.2 4.3 0 .8 .7 1.5 1.5 1.5 .8 0 1.5 .5 1.5 1 0 .6 1.1 1 2.5 1 1.4 0 2.7 .3 2.9 .8 .2 .4 2.6 1 5.2 1.4 2.7 .4 5.2 1.3 5.6 2 .5 .9 3.5 1.4 9.3 1.6 6.9 .2 8.9-.1 10.4-1.5 1.5-1.4 3.2-1.7 6.8-1.4 2.9 .2 5.1-.1 5.6-.8 .4-.6 1.6-1.1 2.7-1.1 1.1 0 2 .5 2 1 0 .6 .5 .8 1 .5 .6-.3 .8-.8 .5-1.2-.2-.5 1.3-1.6 3.3-2.6l3.7-1.9 1.3 1.9c0.7 1 1.2 1.2 1.2 .6 0-1 .5-1 2.3-.2 1.3 .7 4 .8 6.7 .4 2.7-.4 6.1-.2 8.5 .6 2.3 .7 4.8 .8 6 .4 1.1-.5 3.1-.9 4.5-1 1.4-.1 3.9 .5 5.5 1.4 1.7 .8 3.8 1.4 4.8 1.3 .9-.1 1.6 .4 1.5 1.1-.2 .6 .5 1.1 1.5 1 1-.2 1.7 .3 1.7 1.2 0 .8 .9 1.5 2 1.5 1.1 0 3.7 .7 5.8 1.5 2.9 1.2 3.9 1.3 4.4 .3 .5-.8 .8-.5 .8 1 0 1.7 .7 2.3 3 2.7 2.4 .4 2.9 .9 2.5 2.5-.3 1.3 .2 2.4 1.3 3 .9 .5 1.1 1 .5 1-.7 0-1.1 .5-.8 1 .3 .6 1 .8 1.5 .5 .6-.3 1.7 .9 2.5 2.5 .8 1.7 1.2 3.2 .8 3.4-.5 .2-1.1 1.8-1.5 3.5-.5 2.1-1.2 2.8-2 2.4-.9-.6-1-.1-.5 1.7 .4 1.5 .2 3.3-.6 4.3-.8 1.3-2.7 2-6.2 2.1-2.7 .2-6.8 .7-9 1.1-2.2 .4-4.3 1.3-4.7 1.9-.5 .7-1.2 .4-2.2-.9-1.4-1.8-1.5-1.8-1.6-.2 0 1.2-.8 1.7-2.7 1.8-1.6 0-4.3 .2-6 .5-2.2 .3-3.3 0-3.3-.8 .1-1-.2-1-1.2-.1-.7 .7-4.8 1.4-9.5 1.5-5.9 .2-8.4-.1-8.8-.9-.3-.9-.9-1-1.7-.3-.7 .5-4.1 .8-7.5 .5-5-.4-6.4-.2-6.8 1-.3 .8-1.2 1.5-2 1.5-.8 0-3.2 1-5.2 2.1-2.1 1.2-4.5 3.1-5.3 4.3-.8 1.1-1.7 3.3-2 4.8l-.5 2.8 .5 0c0.3 0 .6 2.1 .7 4.7 .2 2.7 .8 5.3 1.3 5.8 .6 .6 1 2.1 1 3.5 0 1.4 .4 3 1 3.5 .5 .6 1.1 2.4 1.2 4 .1 1.7 1.1 3.7 2.1 4.5 1.3 1.1 1.5 1.8 .8 2.5-.6 .6-1.1 1.5-1.2 2 0 .6 .8 .3 1.7-.5l1.6-1.5-.8 4c-.4 2.2-.7 4.5-.6 5 0 .6 .3 1.9 .5 3 .2 1.1-.2 3.1-1 4.5-.7 1.4-1.1 3.3-.8 4.3 .3 1.1-.2 2-1.5 2.5-1.5 .5-1.9 1.2-1.3 2.7 .5 1.4 .3 1.8-.5 1.3-.8-.5-1.7 .2-2.6 2-.7 1.5-2.1 3.3-3 4-.9 .6-1.4 1.5-1.2 2 .3 .4-1.1 2.4-3 4.5-2.6 2.8-3.2 4.2-2.6 5.8 .5 1.4 .2 2.3-.8 2.9-1.3 .7-1.2 1.1 .4 2.7 1.2 1.2 1.7 2.7 1.4 4.8-.3 1.7 .3 4.8 1.3 7.3 1.1 2.3 2.2 4.2 2.7 4.2 .4 0 2.5 1.6 4.7 3.5 2.2 2 4.6 3.5 5.3 3.5 .6 0 1.2 .5 1.2 1 0 .6 1 1.3 2.3 1.6 1.2 .4 3 .7 3.9 .8 1 0 1.8-.2 1.8-.6 0-.5 .5-.8 1-.8 .6 0 .8 .5 .5 1-.3 .6 .4 .8 1.5 .5 1.1-.3 2 0 2 .5 0 .6 1.1 1 2.5 1 1.4 0 5.1 .7 8.3 1.6 3.1 .8 6.4 1.3 7.2 .9 1-.5 1.3-.3 .9 .6-.5 1.1 .5 1.4 4 1.6 2.5 .1 5.5 .3 6.6 .5 1.1 .2 2.7 1.1 3.5 2.1 1.1 1.3 2.8 1.7 6.5 1.5 2.8-.1 5.6 .1 6.3 .5 .6 .4 4.2 .8 7.8 1 3.8 .1 7 .7 7.5 1.5 .6 .8 1.9 1 4 .5 2.2-.6 3.3-.4 4 .7 .7 1.2 1 1.3 1.7 .2 .5-1.1 2.1-1.2 7.7-.4 5.5 .7 8.1 .6 12-.6 2.8-.8 6-2.2 7.2-3.1 1.2-.9 2.3-2 2.3-2.6 0-.5 .9-1.7 1.8-2.5 1-.8 2.3-3.1 2.8-5 .6-1.9 1.6-3.4 2.2-3.2 .7 .1 1.2-.7 1.2-1.8 0-1.1 .5-2 1-2 .6 0 .9-2.8 .9-6.7-.1-6 .2-7.4 2.9-11.8 1.7-2.7 3.2-5.3 3.2-5.7 0-.5 .9-1.7 2-2.8 1.1-1.1 2.3-2 2.8-2 .4-.1 1.2-.8 1.7-1.6 .7-1.1 3.2-1.6 9.5-1.8 4.7-.1 9.1-.5 9.8-.9 .6-.4 1.3-.2 1.5 .4 .1 .7 1.8-.3 3.8-2.2 1.9-1.9 4.2-5 5.1-6.9 .9-1.9 2.2-5.5 2.9-8 .7-2.5 1.6-4.9 2.1-5.5 .5-.5 .8-1.8 .8-2.7 0-1 .5-1.8 1-1.8 .6 0 1-.6 1-1.2 0-.7 .6-2.6 1.5-4.3 .8-1.6 1.5-3.7 1.5-4.5 0-.8 1.2-3.3 2.6-5.5 1.5-2.2 3.2-6 3.7-8.5 .5-2.5 .9-6.2 .8-8.2-.1-3 .3-3.9 1.9-4.3 1.5-.4 2-1.3 2-4 0-1.9 .5-3.8 1.1-4.2 .6-.5 .9-1.5 .6-2.3-.3-.8 .6-3.1 1.9-5 1.3-1.9 2.4-4.3 2.4-5.2 0-1 .5-1.8 1-1.8 .6 0 1-1.5 1-3.2 0-1.9 .8-4.3 2-5.5 1.1-1.3 2.5-3.5 3-5 .6-1.6 .8-3.7 .4-4.8l-.7-2 1.7 1.5c0.9 .8 1.7 1.1 1.8 .5 0-.5 0-2-.1-3.2-.1-1.3 .4-2.5 .9-2.8 .6-.3 .8-1.3 .5-2.2-.3-1.1 .7-3.2 2.5-5.3 1.6-1.9 2.7-3.7 2.5-4-.2-.3 .5-2.2 1.5-4.2 1.1-2.1 2.5-4 3-4.3 .6-.3 1-1.6 1-3 0-1.4 .3-2.5 .8-2.5 .4 0 .7-1.4 .7-3 0-1.7 .7-3.5 1.5-4 .8-.5 1.2-1 .8-1-.5 0 0-1.7 1.1-3.7 1-2.1 2.4-4.9 3-6.3 .6-1.4 2-4 3.1-5.7 1.1-1.8 1.8-4 1.5-4.8-.3-.8 .4-2.4 1.5-3.5 1.1-1.1 2-2.2 2-2.5l0-.5 0-1.5c0-.8 1.1-2.6 2.5-4 1.4-1.4 2.5-3.1 2.4-3.7-.1-.7 .2-2.3 .5-3.5 .3-1.3 .9-2.3 1.4-2.3 .4 0 .8-1.2 .9-2.8 .1-1.5 1-3.5 2-4.5 1-1 1.5-1.8 1.1-1.7-.5 0 .1-1.1 1.2-2.5 1.1-1.4 1.8-2.9 1.5-3.5-.3-.5 0-1 .5-1 .6 0 .8-.4 .5-1-.3-.5 .6-3.1 2-5.7 1.4-2.7 2.5-5.4 2.5-6 0-.7 .7-1.5 1.5-1.8 .8-.3 1.5-1.4 1.5-2.5 0-1.1 .5-2.2 1-2.5 .6-.3 1-1.4 1-2.5 0-1.1 .3-2 .8-2 .4 0 1.6-2.7 2.7-5.9 1.5-4.3 2.4-5.7 3.4-5.3 1.1 .6 1.2-.1 .7-3-.3-2.1-.3-4 .2-4.2 .4-.2 1.1-1.6 1.5-3.2 .4-1.6 1.9-5.8 3.3-9.4 1.4-3.6 3-7.3 3.5-8.2 .5-1 .9-2.4 .9-3 0-.7 .6-2.6 1.5-4.3 .8-1.6 1.5-4 1.5-5.2 0-1.3 .5-2.5 1-2.8 .6-.3 .8-1.2 .5-2-.3-.8 .2-2.1 1.1-2.7 .9-.8 1.3-2.1 1-3-.3-1 .1-2.5 .9-3.3 .8-.8 1.5-1.8 1.5-2.2 0-.5 1-1.8 2.2-2.9 1.3-1.2 4.1-2.5 6.3-2.9 2.2-.4 4.9-1.3 6-2.1 1.1-.8 2.7-1.4 3.5-1.4 1.1 0 1.2 .2 .2 .8-.9 .5-.5 1.1 1.3 2.2 1.4 .8 2.5 2.2 2.5 3 0 .8 .7 2.3 1.7 3.2 1 1 2.4 1.8 3.1 1.8 .6 0 1.1 .6 1 1.3-.2 .7 .7 2.5 2 4 1.3 1.6 2.7 2.4 3.4 2 .8-.6 1-.2 .5 1.2-.4 1.5 .3 2.7 3.3 5 2.1 1.7 4.1 3.7 4.4 4.5 .4 .8 1.2 2.5 1.9 3.6 .6 1.2 2.2 3.2 3.4 4.5 1.2 1.3 2.2 2.7 2.2 3.2 .1 .4 .1 1.4 .1 2.2 0 .8 1 1.8 2.3 2.2 1.2 .3 3.8 1.7 5.7 3 1.9 1.4 4.7 3.8 6.3 5.4 1.5 1.6 2.7 3.6 2.7 4.4 0 .8 1.4 2.6 3 4 1.7 1.4 3 3 3 3.5 0 .6 1 .7 2.3 .3 1.6-.5 2-.3 1.5 .5-.5 .7-.2 1.4 .7 1.7 .8 .3 1.3 1 1 1.5l-.5 1 2-1c1.5-.8 2.3-.6 3.4 .8 .7 .9 3.1 2.1 5.2 2.6 2.1 .4 4.8 1.3 5.9 2 1.1 .6 2.7 1.6 3.5 2.3 .8 .6 2.6 1.3 4 1.6 1.4 .2 3.4 .7 4.5 1.2 1.1 .4 3.5 .5 5.3 .1 1.7-.3 3-.3 2.8 .2-.2 .4 .6 .7 1.7 .6 1.2 0 2.8-.3 3.5-.7 .6-.4 1.9-.1 2.8 .6 1.2 .9 1.7 .9 2.2 0 .5-.9 1.8-.9 4.7-.3 2.2 .6 7.4 .7 11.5 .4 4.8-.4 8.1-1.2 9.3-2.3 1.1-1 2.5-1.4 4-.9 1.5 .4 4.3-.3 8.5-2.3 3.4-1.6 6.2-3.5 6.2-4.1 0-.7 1.8-2.5 4-4 2.7-1.9 4.9-4.7 6.7-8.5 1.6-3.2 2.7-6.2 2.5-6.8-.1-.5 .5-2.1 1.5-3.5 1-1.4 1.8-2.8 1.8-3.2 0-.3 .4-1 .8-1.5 .4-.4 .7-1.7 .7-2.8 0-1.1 .6-3.7 1.5-5.7 .8-2.1 2.1-3.8 2.8-3.8 .8 0 1-.8 .5-3-.7-2.6-.6-2.9 .9-2.2 1.5 .6 1.5 .4 .5-1.3-.8-1.5-.8-2.8 .1-5.3 1-2.9 1-3.5-.5-4.3-1.5-.8-1.6-1.2-.5-3.1 .6-1.3 1.7-2.6 2.2-3 .6-.5 .7-4 .2-10-.6-6.4-1.3-9.5-2.3-10-.9-.6-1.3-2.1-1.1-4.9 .1-3-.2-4.3-1.5-5-1.4-.7-1.7-1.7-1.2-4.6 .4-2.4 .3-4.1-.5-4.5-.6-.5-1.1-1.9-1.1-3.3 0-1.4-.8-3.7-1.8-5.2-1.1-1.6-3-4.9-4.3-7.6-1.3-2.6-2.7-4.7-3.1-4.7-.5 0-.8-.9-.8-2 0-1.1-.7-2-1.5-2-.8 0-1.5-.4-1.5-1 0-.5-1-2.5-2.2-4.2-1.3-1.8-3.8-4.8-5.5-6.5-1.8-1.8-3.3-3.9-3.3-4.5 .1-.7-.6-2-1.5-2.8-.9-.8-1.6-1.2-1.5-.7 0 .4-2.5-1.9-5.5-5-3.1-3.2-5.5-6.1-5.5-6.5 0-.5-.7-.8-1.5-.8-.8 0-3-1.4-4.7-3-1.8-1.7-4.6-4.4-6.3-6-1.6-1.7-3.7-3-4.5-3-.8-.1-3.9-2.5-6.7-5.5-2.9-3-5.3-5-5.3-4.5 0 .6-.4 1-1 1-.5 0-1-.7-1-1.5 0-.8-.7-1.5-1.5-1.5-.8 0-2.7-1.2-4.1-2.7-2.2-2.3-2.8-2.6-3.5-1.3-.7 1.2-1 1.1-1.4-.7-.3-1.5-1.2-2.3-2.5-2.3-1.1 0-2-.3-2-.7 0-.5-1.1-.9-2.5-1-1.4-.2-3.3-1.1-4.2-2-1-.9-1.6-1.7-1.4-1.7 .2-.1 .1-1.2-.3-2.6-.6-2-1-2.2-1.9-1.2-.7 .7-2 1.2-2.9 1.2-1 0-1.8-.7-1.8-1.5 0-.8-.4-1.3-1-1-.5 .3-1 .1-1-.5 0-.5-1.3-1-3-1-1.6 0-3.8-.8-4.7-1.7-.9-1-2.1-1.8-2.7-1.9-.6 0-2-.4-3.1-.9-1.1-.4-4.5-1.9-7.5-3.3-3-1.4-6.4-2.6-7.5-2.7-1.1-.1-3.9-.2-6.2-.3-2.4-.1-5-.9-5.8-1.7-.8-.8-3.1-1.5-5-1.5-1.9 0-3.5-.4-3.5-1 0-.5-1.1-1.2-2.5-1.5-1.4-.3-3.3-1.7-4.2-3.2-1-1.6-2.3-3.1-3-3.5-.7-.5-1.3-1.9-1.3-3.3 0-1.4-.6-2.7-1.2-2.9-.7-.3-1.9 .1-2.6 .7-1 .9-1.2 .8-1.2-.5 0-1 .5-1.8 1-1.8 .6 0 .8-2.2 .5-5.7-.3-3.2-.8-7.8-1-10.3-.3-2.5-.7-8.3-.9-13-.2-4.7-.6-9.2-.9-10-.3-.8-.8-6.9-1.2-13.5-.4-9.8-.9-12.2-2.3-13.3-1.1-.8-1.4-1.5-.7-2.2 .7-.6 .6-2.9-.2-6.7-.6-3.2-1.2-5.8-1.3-5.8-.2 0-.4-1.1-.6-2.5-.2-1.4-.6-5.4-.8-9-.3-3.6-.9-7.6-1.4-9-.6-1.4-1.4-5.1-1.8-8.4-.5-3.2-1.2-6-1.6-6.2-.5-.2-.8-1.3-.8-2.4 0-1.3-.4-1.7-1.2-1.2-.9 .5-1 0-.5-2 .5-1.9 .2-3.6-.8-5-.8-1.3-1.5-3.8-1.5-5.5 0-1.8-.7-4-1.5-4.8-.8-.8-1.3-1.9-1-2.5 .3-.5 0-2.7-.6-4.7-.6-2.1-1.5-4.7-2-5.8-.5-1.1-1-2.9-1.1-4-.2-1.1-1-3.2-1.9-4.5-.9-1.4-2.4-5.4-3.4-9-1-3.6-2.4-7.4-3.2-8.5-.7-1.1-1.3-3-1.3-4.2 0-1.3-.4-2.5-1-2.8-.5-.3-1-1.6-1-3 0-1.4-1.1-3.6-2.5-5-1.4-1.4-2.5-3.4-2.5-4.5 0-1.1-1.1-3-2.4-4.2-1.4-1.3-2.8-3.9-3.2-5.8-.4-1.9-1.3-3.8-2.1-4.2-.7-.5-1.3-1.7-1.3-2.8 0-1.1-1.4-3.2-3-4.7-1.7-1.6-3-3.6-3-4.5 0-1-.4-1.8-1-1.8-.5 0-1-.8-1-1.7 .1-1-.9-2.7-2-3.8-1.2-1.1-1.8-2.6-1.5-3.2 .3-.7 0-1.2-.6-1-.6 .1-1.4-.5-1.9-1.3-.4-.8-1.8-3.5-3-6-1.3-2.5-3.1-5.4-4.1-6.5-1-1.1-1.9-2.3-1.9-2.7 0-.5-2.6-3.3-5.7-6.3-3.2-3.1-6.1-5.5-6.5-5.5-.5 0-.8-.4-.8-1 0-.5-.7-1.7-1.5-2.5-.8-.8-1.3-2.2-1-3 .3-.8-.1-1.5-.7-1.5-.7-.1-2.3-1-3.5-2-1.3-1.1-2.3-2.4-2.3-3 0-.5-2.7-3.8-6-7.2-3.9-4.2-6.1-7.4-6.5-9.5-.3-1.8-.9-3.4-1.5-3.5-.5-.2-1.1-2.4-1.2-4.9-.2-3.7-.5-4.3-1.4-3-.8 1.2-1.3 1.3-1.7 .4-.4-.7-1.1-1.1-1.7-.8-.5 .3-1-.2-1-1 0-.8 .9-2.1 2-2.7 1.1-.7 2-1.6 2-2 0-.5-.4-.6-1-.3-.5 .3-1.2 .1-1.5-.5-.3-.5 .2-1 1-1 .8 0 1.5-.7 1.5-1.5 0-.8 1-1.8 2.3-2.1 1.3-.3 2.5-.1 3 .8 .4 .7 .5 2.8 .2 4.6-.4 2.5-.2 3.1 1 2.7 .8-.3 3.2 0 5.3 .6 2.3 .7 5.6 .8 8.9 .2 2.9-.4 5.3-.5 5.3 0 0 .4 1.7 .9 3.8 1.1 2 .2 6.7 .9 10.5 1.5 3.7 .6 9.2 1.3 12.2 1.6 4.9 .4 5.4 .3 4.9-1.2l-.6-1.8 1.4 1.7c0.7 1 1.7 1.4 2.1 1 .5-.4 5.7-.8 11.5-1 5.9-.1 13.2 .2 16.2 .8 4.2 .7 5.7 .7 6.2-.3 .5-.9 1.8-.9 6 .1 2.9 .7 6.7 1 8.3 .6 2.1-.4 3.2-.2 3.7 .7 .6 1.2 1.8 1.2 6.5 .3 3.2-.7 6-.8 6.3-.4 .3 .4 1.5 1 2.8 1.3 1.2 .4 2 .4 1.8 0-.2-.5 3.9-1 9.2-1.1 6.3-.3 10.4-.9 11.7-1.8 1.1-.8 4.1-1.6 6.8-1.9 2.6-.3 4.6-1 4.5-1.6-.2-.6 1.3-1.2 3.2-1.3 1.9-.1 5.1-1 7-1.9 1.9-1 3.6-1.7 3.8-1.7 .1 0 0 .5-.3 1-.3 .6 1.9-.2 4.8-1.7 2.8-1.6 5.7-3.3 6.2-3.8 .6-.6 2.9-1.9 5.3-3 2.3-1.1 4.2-2.2 4.2-2.5 0-.3 1.5-2.2 3.5-4.2 1.9-2.1 3.5-4.8 3.5-6 0-1.8 .2-2 .9-.8 .7 1.2 1 1 1.6-1 .4-1.4 .8-3.2 .9-4 0-.8 .8-1.5 1.6-1.5 .8 0 2-1.5 2.5-3.3 .6-1.8 1.3-3.2 1.8-3.2 .4 0 .7-1.3 .7-3 0-1.6 .7-4.2 1.5-5.7 .8-1.6 1.2-3 1-3.3-.2-.3-.7-3.2-1-6.5-.3-3.3-.5-8.1-.5-10.7 0-3.4-.4-4.9-1.5-5.3-.8-.3-1.5-1.3-1.5-2.2 0-1.5 .2-1.6 1.2-.5 .7 .7 1.8 1.2 2.3 1.2 .6 .1 .3-.7-.6-1.7-.9-1-2.7-4.2-4-7-1.3-2.9-3.1-5.5-3.9-5.7-.8-.3-2.3-2.3-3.2-4.5-1-2.3-2.2-4.1-2.8-4.1-.5 0-1-.8-1-1.7 0-1-2.9-4.9-6.5-8.8-3.5-3.8-6.3-7.2-6.1-7.5 .2-.3-.4-.6-1.5-.7-1-.2-3.6-2-5.8-4-2.1-2.1-5.7-5.4-8-7.3-2.3-1.9-5.3-3.8-6.7-4.2-1.3-.5-2.2-1.2-1.9-1.8 .3-.5-.4-1-1.5-1-1.1 0-2-.3-2-.7 0-.5-2.3-2.6-5.1-4.8-2.8-2.2-5.9-4.7-6.8-5.6-.9-.8-2.7-2.2-4.1-3.1-1.9-1.3-2.8-1.4-3.8-.5-1 1-1.3 .7-1.3-1.3-.1-1.5-.3-1.8-.5-.7-.2 .9-.8 1.7-1.4 1.7-.5 0-1-.6-1-1.2 0-.7-1.2-1.4-2.7-1.5-1.6-.1-5-1.1-7.8-2.3-2.7-1.2-5.9-1.9-7-1.6-1.1 .3-3-.1-4.2-.9-1.3-.8-3.2-1.3-4.3-1-1.2 .3-2.2-.1-2.5-1-.3-.9-1.7-1.5-3.2-1.5-1.6 0-3.8-.7-5-1.5-1.4-.9-2.5-1.1-2.8-.5-.3 .6-2 .8-3.7 .6-1.8-.2-3.2-.9-3-1.5 .1-.6-.4-1.1-1-1.2l-1.3-.1-3.7 .1c-2.1 .1-3.8-.2-3.8-.6 0-.5-2.4-.7-5.3-.6-2.8 .1-7.3 .4-9.8 .5-2.6 .2-4.5 0-4.3-.4 .2-.5-.8-.5-2.3-.1-1.6 .3-3.1 1.1-3.5 1.7-.5 .8-1 .8-2 0-.8-.8-3.1-1-6.1-.5-2.7 .3-5 .3-5.3-.1-.2-.5-1.4-.3-2.6 .3-1.3 .6-6 1.3-10.5 1.5-4.6 .2-8.7 .6-9.3 .9-.5 .3-3.2 .1-6-.5-3.6-.7-5.6-.7-7.2 .2-1.3 .6-3.4 1.3-4.8 1.4-1.4 .2-2.6 .8-2.7 1.4-.2 .5-1 1-1.8 1-.8 0-1.3 .5-1 1 .3 .6 .1 1-.5 1-.5 0-1.1-.4-1.2-1-.2-.5-2.6-.2-6 .8-3.1 .9-6.7 2.6-8 3.7-1.2 1.1-4.8 2.8-7.8 3.7-3 1-6.7 1.8-8.2 1.8-1.6 0-3.5 .2-4.3 .5-.9 .3-1.2 1-.7 1.7 .5 .9 0 1-2 .5-1.7-.4-2.8-.3-2.8 .3 0 .6-.7 .8-1.5 .5-.8-.3-2.4 .4-3.5 1.5-1.1 1.1-2.8 2-3.7 2-1 0-2.9 1.1-4.3 2.5-1.4 1.4-3.2 2.5-4 2.5-.8-.1-2.2 .6-3 1.5-.8 .9-1.9 1.4-2.5 1.1-.5-.3-2 .2-3.2 1-1.4 .8-2.4 1-2.5 .4-.2-.6-3.1 1.7-6.5 5-3.5 3.3-7.2 6-8.3 6-1.1 0-2 .5-2 1 0 .6-1.2 2.4-2.7 4-1.6 1.7-3.2 3.1-3.8 3.1-.5 0-2 1.1-3.2 2.4-1.3 1.4-2.3 3-2.3 3.5 0 .6-.6 1-1.2 1-.7 0-2.4 1.1-3.8 2.5-1.4 1.4-3.2 2.5-4 2.5-.8 0-3.7 2.1-6.3 4.7-2.6 2.6-4.8 5.1-4.7 5.6 0 .4-1.2 1.8-2.7 3.2-1.6 1.4-3.4 2.5-4 2.5-.7 0-2.1 .8-3 1.7-1 1-2.9 1.7-4.3 1.6-1.4-.1-5.3-.2-8.7-.2-4.4-.1-6.6-.5-7.3-1.6-.8-1.1-1.9-1.3-5-.7-3 .5-4 .4-4-.5 0-.7-.7-1.3-1.5-1.3-.8 0-1.6-.5-1.7-1-.2-.6-2-1.2-4-1.3-2.1-.1-3.8-.5-3.8-.9 0-.5-.4-.6-1-.3-.5 .3-1.6-.2-2.2-1.1-1-1.2-3.7-1.6-11.3-1.9-6-.2-10.1-.8-10.2-1.4-.2-.6-1.3-1.1-2.5-1.1-1.3 0-3 .4-3.8 .9-.8 .5-3.7 .5-6.5 0-3.2-.5-5.1-.5-5.2 .1-.2 .6-1.9 .1-3.8-1-1.9-1.1-4.1-2-4.7-2-.9 0-.8 .3 .2 .9 .9 .5 1.1 1.1 .5 1.4-.5 .3-1.7 .2-2.5-.4-.8-.5-2.5-.9-3.7-.9-1.3 0-3.3 .5-4.5 1.2-1.3 .7-3.5 1.1-5 1-1.6-.1-3 .3-3.3 .8-.3 .6-1.2 .3-2.2-.7l-1.8-1.7-.2 1.7c-.2 .9-.7 1.7-1.3 1.7-.5 0-1-.7-1-1.5 0-1.1-.7-1.3-2.2-.9-1.3 .3-7.6 .6-14 .7-6.5 .1-11.8 .4-11.8 .7 0 .3-1.5 .4-3.3 .4-1.7-.1-4 .6-5 1.5-1.3 1.2-2 1.3-3 .4-.7-.7-2-.9-3.2-.4-1.1 .5-5.8 .7-10.5 .6-5.5-.2-9.8 .2-12.2 1.1-2.3 .8-3.8 1-3.8 .4 0-.6-2.5-.8-6.7-.4-4.1 .4-7.5 1.3-8.6 2.3-1.6 1.4-1.9 1.4-2.7 .1-.6-.8-1-1-1-.5 0 .6-2 .9-4.8 .7-2.6-.2-6.7 .2-9.2 .9-2.5 .6-4.9 1.6-5.5 2.1-.5 .4-3.7 1.1-7 1.5-3.3 .3-7.2 .7-8.7 .7-1.6 .1-2.8 .7-2.8 1.4 0 .6-.8 1.4-1.7 1.7-1 .3-3.1 .2-4.8-.2-2.2-.5-2.8-.4-2.2 .5 .5 .8-.1 1.2-1.8 1.2-1.4 0-2.5-.4-2.5-1 0-.6-1-.7-2.2-.3-1.3 .3-2.5 1-2.8 1.5-.3 .5-3.6 1.2-7.5 1.5-3.8 .3-7.3 1.1-7.7 1.7-.4 .6-2.4 1.2-4.5 1.4-2.1 .1-5.4 1-7.3 1.8-2.2 1-6.6 1.7-11.6 1.8-6.7 .1-8 .4-7.5 1.6 .5 1.1 0 1.3-1.9 .8-1.4-.4-3.2-.3-4 .1-.8 .5-2.8 1.3-4.5 1.9-1.6 .5-3.7 .6-4.5 .2-.8-.5-2.4-.3-3.5 .3-1.1 .7-2.4 1.7-2.8 2.2-.6 .6-1 .6-1.3-.2-.2-.7-1.1-1.3-1.9-1.3-.8 0-1.7 .7-2 1.5-.3 .8-1.2 1.3-2 1-.8-.3-2.2 .4-3 1.5-.8 1.1-2.2 1.8-3 1.5-.8-.3-2.5 .2-3.7 1-1.5 1-3 1.2-4.3 .8-1.5-.6-1.8-.5-1.4 .7 .5 1.2-.2 1.5-4.2 1.3-3.6-.2-5 .1-5.4 1.2-.3 .8-.8 1.3-1.2 1-.5-.2-2.3 0-4 .5-2.5 .8-3.3 .7-3.3-.2-.1-.7-.7-.1-1.5 1.5-1.2 2.1-2.1 2.6-4.2 2.3-1.6-.2-3.4 .3-4 1-.7 .8-1.1 1.7-.9 2.2 .2 .4-.6 .7-1.7 .8-1.2 .1-3.5 1-5.2 2-1.6 1-4.7 2-7 2.1-2.2 0-5 .3-6.1 .5-1.2 .1-3 1.1-4 2-1.1 1-5.2 2.3-9.5 3-4.1 .7-8.2 1.9-9 2.6-.8 .7-2.7 1.4-4.4 1.6-1.6 .2-4.8 1.1-7 1.9-2.2 .9-4.1 2-4.2 2.6-.2 .6-1.2 1.1-2.3 1.1-1.1 0-2.1 .6-2.3 1.3-.2 .6-1 1.2-1.8 1.3-.8 .1-2.6 .2-4.1 .2-1.6 .1-4.1 1.3-5.8 2.7-2.2 1.8-3.8 2.4-5.7 2-2.3-.4-2.5-.4-.8 .4 1.7 .8 1.8 1 .3 1-1 .1-1.8 .8-1.8 1.6 0 1-.7 1.3-2 1-1.2-.3-2.8 .3-4 1.5-1.1 1.1-2.8 1.8-3.7 1.6-1-.3-2.8 .4-4 1.5-1.3 1-3 1.9-3.8 1.9-.8 0-1.8 .5-2.2 1.1-.5 .7-2.3 1-4 .8-2-.3-3.5 .1-3.8 .9-.3 .6-.8 1.1-1.2 1-.5 0-1.7 .3-2.8 .8-1.1 .4-2.8 1.6-3.7 2.6-1 1-2.2 1.8-2.8 1.8-.5 0-.8-.4-.5-1 .3-.5 .2-1-.2-1-.5 .1-1.8 1-3 2-1.3 1.1-2.3 2.9-2.3 4 0 1.1-.4 2-1 2-.5 0-.8-.4-.5-1 .3-.5 .2-1-.2-1-.5 0-1.4 .9-2 2-.7 1.1-2 2-2.8 2-.8 0-1.5 .5-1.5 1 0 .6-1.3 1.2-3 1.5-1.6 .3-3 1-3 1.5 0 .6-1.3 2.2-2.9 3.8-1.6 1.5-3.9 3.5-5 4.5-1.5 1.2-1.9 2.5-1.6 4.2 .3 1.6 0 2.5-.7 2.5-.9 0-.8 .3 .2 .9 1.3 .8 1.3 1.2-.1 3.3-1.4 2-1.5 4.4-.8 17.3 .5 8.3 1.1 17 1.4 19.5 .3 2.5 .5 6.5 .4 9-.1 2.5-.1 5.4-.1 6.5 0 1.1 .2 4.3 .5 7 .2 2.8 .9 6 1.6 7.3 .6 1.2 .8 2.4 .4 2.6-.5 .2-.7 3-.5 6.3 .1 3.2 .7 7.4 1.3 9.3 .6 1.9 .8 5.2 .5 7.3-.4 2.6-.2 3.7 .7 3.7 .8 0 .7 .3-.3 1-1.1 .7-1.4 2.4-1.2 6.5 .1 3.2-.2 5.5-.8 5.5-.5 0-1 .9-1 2 0 1.1 .3 1.8 .8 1.6 .4-.3 1 1.4 1.4 3.7 .4 2.4 .3 4.3-.3 4.5-.5 .1-.5 .7 0 1.5 .7 .8 .5 2.8-.5 5.7-1.1 3.4-1.3 5.5-.6 8.5 .8 3.2 .7 4.3-.5 5.5-1.3 1.3-1.3 1.9-.1 4.5 1.1 2.4 1.2 4.2 .4 8.8-.6 3.2-.8 6.3-.4 7 .4 .7 .8-.2 .8-2 0-1.8 .5-3.3 1-3.3 .6 0 .8 1 .5 2.3-.3 1.2-.5 3-.5 4 0 .9-.4 1.5-1 1.2-.5-.3-1.1 .1-1.2 .8 0 .6-.2 2.5-.2 4-.1 1.5-.6 3.1-1.2 3.5-.6 .4-.8 1.6-.4 2.7 .4 1.3 0 3.1-1.2 5-1 1.7-1.8 4-1.8 5.3 0 1.2-.6 2.4-1.2 2.6-1 .4-1 .6-.1 1.3 .7 .4 1.4 3 1.5 5.6 .2 3.1-.1 5-1 5.5-1 .5-1.1 1.6-.3 5 .6 2.3 .8 4.8 .4 5.5-.3 .6-.8 4.6-1 8.7-.2 4.1-.7 8-1.2 8.5-.4 .6-.8 2.6-.8 4.5-.1 1.9-.9 5.5-1.8 8-1 2.5-1.8 5.9-1.9 7.7 0 1.7-.4 3.5-.9 4-.4 .4-.5 2.3-.2 4.1 .4 2.4 .1 3.2-1 3.2-.8 0-1.3 .3-1 .8 .2 .4-.2 1.7-1 3-.8 1.2-2.2 2.2-3 2.2-.9 0-1.7 1.2-2 2.8-.3 1.6-1.5 3.2-3 4-1.4 .6-3.2 1.2-4 1.2-.8 0-1.5 .7-1.5 1.5 0 1.1-.4 1.3-1.7 .6-1.2-.7-3.4-.5-6.5 .5l-4.8 1.4-1.7-3c-1-1.7-2.4-2.8-3-2.5-.9 .3-1.5-.7-1.8-3-.4-2.5-.9-3.4-2-3-.9 .3-1.5-.1-1.5-1 0-.8 .6-1.7 1.3-2l1.2-.5-1.2-.5c-.7-.3-1-1.1-.6-1.7 .4-.7 .9-3.1 1-5.3 .2-2.2 .4-5.6 .6-7.6 .1-2 .7-4.2 1.4-5 .6-.8 .9-2.9 .7-4.6-.2-1.8 .3-5.8 1.1-8.8 .8-3 1.2-6.1 .9-6.7-.3-.7 .2-3.7 1-6.5 .9-2.9 1.4-5.9 1.1-6.5-.3-.7 .1-3.1 .9-5.3 .9-2.6 1.1-4.6 .5-5.7-.6-1.2-.4-2.4 .6-3.5 .8-1 1.5-2.5 1.5-3.3l0-1.5-1 1.5c-.8 1.2-1 1.1-1-.7 0-1.3 .3-2.5 .8-2.7 .4-.2 .8-2.5 1-5 .1-2.5 .7-5.5 1.2-6.6l1-2-1-2c-.5-1.1-.7-3.2-.4-4.7 .4-1.6 1-3.2 1.4-3.8 .5-.5 .8-2.1 .8-3.5 0-1.4 .3-4.9 .6-7.7 .5-4 .3-5.1-.6-4.5-.8 .5-1 .1-.5-1.3 .4-1.1 .7-6.9 .7-13 0-6 0-11.7-.1-12.5-.1-.8 .2-3.5 .7-6 .7-3.7 .6-4.3-.6-3.5-1.1 .8-1.2 .5-.5-1.5 .5-1.4 .8-3.4 .8-4.5-.1-1.1-.4-6.5-.7-12-.3-5.5-.6-10.7-.6-11.5 0-.8 0-5.8 0-11 .1-5.2-.3-9.7-.7-10-.4-.3-.8-2.5-.9-5 0-2.5-.1-5.8-.2-7.5-.1-1.6-.2-3.7-.1-4.5 0-.8 0-3.7 0-6.5 0-2.7-.1-6.1-.2-7.5-.1-1.4-.2-4.2-.3-6.2 0-2.1-.3-3.8-.6-3.8-.3 0-.6-1.6-.7-3.5-.2-1.9-1-4.5-1.8-5.7-.8-1.3-1.2-3.2-.9-4.3 .4-1.1 .3-2.9-.1-4-.5-1.1-1-3.6-1.2-5.5-.1-1.9-.9-4.2-1.6-5-.8-.8-1.4-2.6-1.5-4 0-1.4 .4-2.8 1.1-3.2 .8-.5 .5-1.4-1.1-3l-2.3-2.3 1.3-3c0.8-1.6 1.4-3.7 1.3-4.5-.1-.8-.6-2.7-1.3-4.2-.7-1.6-1-3.2-.7-3.8 .3-.5-.2-1.6-1-2.2-.9-.7-1.6-1.9-1.5-2.5 0-.7-.6-1.5-1.2-1.6l-1.3-.4 1.3-1.6c1-1.4 .9-2.2-.3-4.2-.8-1.4-1.2-2.5-.7-2.5 .4 .1 0-.7-.8-1.7-1-1.2-1.5-3.4-1.3-6.3 .1-3.3-.3-5.1-1.8-6.7-1-1.3-1.7-2.4-1.4-2.5 .3-.2-1.1-2-3-4-1.9-2.1-3.5-4.2-3.5-4.8 0-.5-1.6-2.6-3.5-4.5-1.9-1.9-3.9-3.3-4.5-3-.5 .3-1.6-.7-2.2-2.1-.7-1.4-2.6-3.2-4.3-4-1.6-.7-4.3-1.6-6-1.8-1.6-.3-3.4-1.2-4-2-.5-.7-1.9-1.5-3-1.7-1.1-.2-2.6 0-3.2 .4-.7 .4-1.3 .3-1.3-.3 0-.5-1.7-.9-3.7-.7-2.1 .1-4.1 .7-4.5 1.2-.4 .6-1.2 .6-2.2-.2-1.1-.9-2.1-1-3.1-.3-.8 .6-2.3 .9-3.2 .8-1-.2-1.7 .3-1.5 1 .1 .6-.4 1.1-1 1-.7 0-2.5 .4-4 1-1.6 .7-3.5 1.2-4.3 1.2-.8 0-1.5 .7-1.5 1.5 0 1-.6 1.3-1.7 .9-1.2-.4-2.7 .4-4.3 2-1.4 1.4-2.9 2.6-3.5 2.6-.5-.1-1.7 1.1-2.5 2.5-.8 1.4-2.1 2.5-2.7 2.5-.7 0-1.5 .9-1.8 2-.3 1.1-1.4 2.2-2.5 2.5-1.1 .3-2 1.2-2 2 0 .8-.7 1.5-1.5 1.5-1.1 0-1.3 .6-.7 2.1 .5 1.6 .3 2.1-.8 1.9-.8-.1-2.5-.2-3.7-.1-1.5 .1-2.8 1.1-3.6 2.9-.8 1.7-2 2.6-3.2 2.5-1.1-.1-3.7 .4-5.7 1.2l-3.8 1.5-3.2-1.7c-1.8-1-3.5-2-3.8-2.3-.3-.3-3.9-1.6-8-3-4-1.4-8.7-3.6-10.2-5-1.6-1.4-2.9-3.2-2.9-4 0-1-.2-1.1-.5-.2l-.4 1.2-2.5-1.2c-1.4-.7-2.5-1.6-2.5-2 0-.5-.6-.8-1.2-.8-.7 .1-2-1.3-2.8-3-1.1-2.2-2-2.9-3.2-2.5-1.1 .3-1.7 0-1.5-.7 .1-.8-1.2-1.4-3.3-1.6-1.9-.2-4.1-1.1-4.7-2-.7-.9-1.6-1.4-2-1-.5 .4-1.9 .1-3.3-.7-2-1.1-2.8-1.1-3.8-.2-1 .9-1.2 .9-1.2 0 0-.7 1-2 2.3-2.8 1.2-.8 1.8-1.5 1.2-1.5-.5 0-1.8 .8-2.8 1.8-1.4 1.4-2 1.5-3 .4-.6-.7-2-1.2-2.9-1.2-1 0-1.8-.4-1.8-1 0-.5-1-1.4-2.2-1.9-1.3-.5-2.7-.5-3.3 0-.6 .5-2.5-.6-4.7-2.7-2.1-1.8-4.2-3.4-4.8-3.4-.5 0-.8-.4-.5-1 .3-.5-.4-1.6-1.5-2.2-1.1-.7-2-1.9-2-2.5 0-.7 .3-1.3 .8-1.3 .4 0 .6-3.3 .4-7.3-.2-4.6 0-6.7 .6-5.7 .8 1.3 1.2 1.1 2.6-1 .9-1.4 1.6-3.5 1.6-4.7 0-1.6 .6-2.3 2-2.3 1.1 0 2.1-.6 2.1-1.2l0.1-1.3-.1-.7c0-.5 .8-1.2 1.9-1.8l2-1 0 1c0 .6 .5 .8 1 .5 .6-.3 .8-1.2 .5-2-.3-.9 .1-1.5 1-1.5 .8 0 1.5-.9 1.5-2 0-1.1 .7-2.2 1.5-2.5 1-.3 1.2-1.1 .8-2.2-.6-1.4-.4-1.6 1-1 1.3 .5 1.7 .2 1.7-1.3 0-1.1 .5-2 1-2 .6 0 1-.7 1-1.5 0-.8 1.2-2.1 2.6-2.7 1.4-.7 3-2.5 3.7-4.1 .7-1.5 1.8-2.7 2.5-2.7 .6 0 1.2-.9 1.2-2 0-1.2 .8-2.2 2-2.5 1.1-.3 2-.9 2-1.5 0-.5 1.4-1.4 3-2 2-.7 3-1.7 3-3 0-1.2 1-2.4 2.5-3 1.4-.5 2.5-1.7 2.5-2.5 0-.8 .5-1.5 1-1.5 .6 0 1-.6 1-1.2-.1-.7 1-2.2 2.4-3.3 1.5-1.2 2.2-2.6 1.8-3.5-.6-1.1-.3-1.3 1.3-.7 1.1 .5 1.7 .5 1.3 0-.5-.4-.2-1.4 .5-2.1 .6-.7 .8-1.3 .2-1.3-.5 0 .5-.6 2.3-1.4 1.7-.8 3.8-2.6 4.5-4 .6-1.4 1.5-2.5 2-2.5 .4 0 2.2-1.5 4-3.3 1.7-1.8 4-3.6 5-4 .9-.4 1.7-1.5 1.7-2.4 0-1 1-2.2 2.2-2.8 1.3-.5 2.4-2 2.6-3.2 .1-1.3 .7-2.3 1.2-2.3 .6 0 .8 .5 .5 1-.3 .6 .5 .4 1.6-.2 1.2-.7 3.2-2.2 4.5-3.3 1.3-1.1 2.3-2.4 2.4-3 0-.5 2.7-3.8 6-7.2 3.3-3.5 6.5-6.3 7-6.3 .6 0 1-.6 1-1.2 0-.7 1.6-2.3 3.5-3.5 1.9-1.3 3.3-2.7 3-3.3-.3-.5 .2-1 1-1 .8 0 1.5-.4 1.5-1 0-.5 1-1 2.3-1 1.3-.1 4.6-2.4 8-5.5 3.1-3 6.4-5.5 7.2-5.5 .8 0 1.5-.4 1.5-1 0-.5 .8-.7 1.8-.4 1.3 .5 1.5 .2 1-1-.6-1.2-.1-1.7 2.2-2.1 2.4-.4 2.8-.9 2.3-2.2-.7-1.4-.4-1.5 1.7-.8 1.8 .6 2.3 .6 1.8-.3-.5-.8-.1-1.2 1.2-1.2 1.1 0 2.2-.7 2.5-1.5 .3-.8 1.4-1.7 2.5-2 1.1-.3 2-.9 2-1.5 0-.5-.4-.8-1-.5-.5 .3-1 .1-1-.5 0-.5 1.2-1 2.8-1 1.6 0 3.7-1 5.2-2.6 1.4-1.4 3.7-3.2 5.3-4 1.5-.8 3.3-1.1 3.9-.6 .9 .4 1 .3 .5-.5-.5-.9 .1-1.5 1.8-1.8 1.4-.3 2.7-1.4 3-2.5 .3-1.1 1-2 1.5-2 .6 0 1 .6 1.1 1.3 0 .6 .3 .4 .7-.5 .4-1 2.2-2.6 4.1-3.5 1.8-1 3.5-2.7 3.7-3.8 .2-1.1 .9-2.3 1.6-2.7 .7-.4 2.1-.8 3.1-.8 .9 0 1.7-.4 1.7-1 0-.5 1.4-1.2 3-1.5 1.7-.3 3.2-1.1 3.5-1.7 .2-.7 1.9-2.1 3.7-3.1 1.8-1 4.7-2.6 6.3-3.6 1.7-1 3.3-1.7 3.8-1.5 .4 .2 1.2-.5 1.7-1.6 .6-1.1 2.6-2.7 4.5-3.5 1.9-.8 3.5-1.9 3.5-2.5 0-.5 1-1.3 2.3-1.6 1.2-.3 2.5-.6 3-.5 .4 .1 .5-.3 .2-.9-.3-.5 .2-1 1-1 .8 0 2.2-1 3-2.2 1.1-1.8 2-2.1 3.7-1.6 1.8 .6 2.8 .1 4.6-2.2 1.2-1.7 3.1-3 4.2-3 1.1 0 2.2-.7 2.5-1.5 .3-.9 1.7-1.5 3.3-1.5 1.5 .1 3.4-.6 4.2-1.5 .8-.9 2.1-1.6 2.8-1.5 .6 0 1.8-.6 2.5-1.2 .6-.7 2.6-2 4.2-2.8 1.7-.8 4.1-2.3 5.5-3.3 1.4-1 3.2-1.7 4-1.7 .8 0 4.1-1.1 7.3-2.5 3.1-1.4 6.2-2.3 6.7-2 .6 .3 1.9-.5 3-1.7 1.8-2.1 2.1-2.1 3.5-.8l1.6 1.5-.1-1.5c0-.8 1.8-2.3 4-3.2 2.2-1 4.7-1.8 5.5-1.8 .8 0 2.3-.8 3.3-1.9 .9-1 3.2-2.1 5-2.5 1.7-.3 3.8-1.5 4.5-2.6 .6-1.1 1.5-1.7 1.9-1.2 .5 .4 1.7-.1 2.8-1 1.5-1.4 2.5-1.6 4-.8 1.6 .8 1.9 .7 1.5-.5-.3-.8 0-1.5 .5-1.5 .6 0 1 .5 1 1 0 .6 .5 1 1 1 .6 0 1-.4 1-1 0-.5 1-1.9 2.3-3 1.2-1 3-1.9 4-2 .9 0 1.9-.3 2.1-.7 .2-.5 1.8-.9 3.5-1 1.7-.2 3.1 .2 3.1 .7 0 .6 .8 .6 2.3-.1 1.8-.9 1.9-1.3 .7-2-1.1-.6-.4-.9 2.3-.9 2 0 4.3-.6 5-1.3 .6-.8 3.3-1.7 6-2 2.6-.4 4.5-1.1 4.2-1.7-.3-.5 .5-1.1 1.8-1.1 1.2-.1 2.7-.2 3.2-.4 .6-.1 2-.5 3.3-.9 1.2-.3 2.2-1.2 2.2-1.8 0-.9 .8-1.1 3-.5 1.8 .4 3 .3 3-.3 0-.5 .7-.8 1.5-.5 .9 .3 1.5-.1 1.5-1 0-.9 1.3-1.7 3.3-2 1.7-.3 4.9-.6 7-.8 2.1-.1 4.1-.8 4.5-1.5 .5-1.1 1.2-1.1 3-.3 1.8 .9 2.3 .8 3-.5l0.7-1.6 1.8 1.6c1 .9 1.9 1.2 2.2 .6 .3-.5 1.6-.8 3-.5 1.4 .3 2.5 .1 2.5-.5 0-.5 .5-.8 1-.5 .6 .3 1.2 .1 1.5-.5 .3-.5 1-.8 1.5-.5 .6 .3 2-.1 3.3-.9 1.2-.7 3.6-1.4 5.2-1.4 1.7 0 3.5-.6 4-1.4 .6-.7 2.6-1.4 4.5-1.5 1.9-.2 5-.4 6.8-.5 1.7-.2 3.2-.6 3.2-1 0-.5 .9-.8 2-.8 1.1 0 2.2-.4 2.5-1 .3-.6 2.5-.8 5.3-.5 3 .3 4.2 .2 3.2-.4l-1.5-.9 1.5-.4c0.8-.3 2.2 .2 3 .9 1.3 1.2 1.7 1.1 3.3-.6 1-1.2 2.4-1.9 3.5-1.6 .9 .3 2.3-.1 3-.7 1-1.1 1.3-1 1.2 .2l-.1 1.5 1.6-1.5 1.7-1.5 1 1.5c0.7 1.1 1.1 1.2 1.4 .3 .3-.9 1.5-1.1 4.2-.6 2.6 .5 4.5 .2 6.5-1 1.5-.9 3.6-1.7 4.7-1.7 1.1 0 2.1-.5 2.3-1 .1-.6 3.1-1.6 6.7-2.2 3.6-.6 8.4-1 10.8-.9 2.3 0 4.4-.3 4.7-.9 .3-.7 1.6-.7 3.8 0 1.7 .5 3.7 .6 4.2 .3 .6-.4 8.7-.7 18-.9 9.7-.1 19.4 .3 22.7 1 4.4 .9 5.9 .8 7-.2 .7-.6 2-1 2.8-.7 .8 .3 6.3 .7 12.2 .8 5.8 .1 10.4-.1 10.2-.5-.2-.5 .1-.8 .6-.8 .6 0 1.1 .6 1.3 1.3 .3 .9 1.1 1 4.3 0 2.1-.7 7.2-1.3 11.2-1.3 5.1 0 7.2 .4 7.2 1.3-.1 .8 .4 .8 1.6-.3 1.3-1.1 1.8-1.2 2.1-.2 .1 .6 .9 1.2 1.6 1.2 .6 .1 1.8-.6 2.5-1.5 .9-1.1 2.2-1.3 5-.9 2 .4 4.2 1 4.7 1.4 .6 .4 3.9 .5 7.5 .3 3.6-.2 11.8-.5 18.2-.6 8.9-.2 11.8 .1 11.8 1.1 0 .8 1 1 3 .7 1.7-.3 3.2 0 3.5 .5 .3 .6 1.4 .8 2.5 .5 1.1-.3 3.7 .5 5.8 1.6 2 1.2 3.9 2.5 4.2 2.9 .3 .4 1.6 1.3 3 2.1 1.4 .7 2.8 1.2 3.3 1.1 .4-.1 1.4 .4 2.2 1.1 .9 .6 1.6 .8 1.6 .2-.1-.5 .3-.4 .7 .3 .4 .7 2.3 1.3 4.2 1.4 1.9 .1 6 0 9-.2 3-.1 5-.5 4.4-.9-.9-.4-.8-1 .2-1.8 1.1-1.1 1.5-1 2.2 .2 .4 .9 2.8 1.7 6.2 2.1 3 .4 6.1 1.1 6.8 1.5 .6 .5 1.7 .7 2.2 .4 .6-.3 1.2 .2 1.5 1 .3 .8 1.6 1.5 3 1.5 1.4 0 3.2 1 4.3 2.3l1.7 2.3 11 0c6.1 0 11.2-.4 11.5-.9 .3-.5 1.6-.3 3 .5 1.4 .7 2.7 1.6 3 2 .3 .3 3.4 .9 7 1.3 3.6 .4 8.4 .6 10.8 .6 2.3-.1 5.2 .6 6.5 1.4 1.2 .9 4.7 1.7 7.7 2 3 .2 5.7 .8 6 1.4 .3 .6 2.3 .8 4.8 .6 2.7-.3 4.6 0 5.5 .8 .6 .7 3.5 2.3 6.2 3.6 2.8 1.3 6 2.8 7.3 3.4 1.2 .7 2.3 1.4 2.2 1.7 0 .3 1 .4 2.3 .2 1.4-.2 2.7 .5 3.7 1.9 .8 1.3 2.7 3.4 4.1 4.8 1.4 1.4 3.6 3.3 4.8 4.1 1.1 .8 2.1 2 2.1 2.5 0 .6 1.6 2 3.5 3.3 1.9 1.2 3.5 2.5 3.5 3 0 .4 2 .7 4.5 .7 2.5 0 4.5 .3 4.5 .8 0 .4 .5 .5 1 .2 .6-.3 2.5 .6 4.3 1.9 1.7 1.3 4.6 2.4 6.2 2.5 1.7 .1 4.2 .2 5.8 .2 1.5-.1 3.3 .6 4 1.4 .6 .9 2.2 1.6 3.5 1.5 1.2 0 2.5 .5 3 1.1 .4 .6 1.5 .8 2.5 .5 .9-.3 1.7-.3 1.7 .2 0 .4 .9 1.3 2 2 1.3 .8 2.8 .9 4.3 .3 1.6-.6 3.1-.3 5.2 1 1.7 1.1 4.1 1.9 5.5 1.9 1.4 0 4.8 1.3 7.5 2.7 2.8 1.5 5.8 3.5 6.8 4.5 1 1 2.5 1.6 3.7 1.3 1.1-.3 2.3 .1 2.8 .8 .4 .6 2.3 2.1 4.2 3.2 1.9 1 4.5 1.8 5.8 1.7 1.2-.1 2.7 .5 3.2 1.3 .6 .8 1.7 1.3 2.5 1 .8-.3 1.5-.2 1.5 .3 0 .4 2 1.3 4.5 2 3.3 .9 4.4 1.7 4.3 2.9-.2 1.2 .4 1.8 1.9 1.8 1.2 0 2.8 .8 3.5 1.8 .7 1.1 2.6 2 4.2 2 1.8 .1 3.4 1 4.2 2.5 .9 1.3 2.4 2.2 3.9 2.2 1.4 0 2.7 .7 3 1.5 .3 .8 1.4 1.5 2.5 1.5 1.1 0 2 .6 2 1.3 0 .6 1.3 2.7 3 4.5 1.8 1.9 3.5 2.9 4.2 2.5 .9-.6 .9-.1 .3 1.7-.7 2.1-.6 2.4 .8 1.8 1.1-.5 2.6-.1 4.2 1.2 1.4 1.1 2.5 1.7 2.5 1.3 0-.5 .4-.3 .8 .2 .4 .6 1.8 1.6 3.2 2.4 1.4 .7 3.1 1.1 3.8 .7 .7-.3 1.2 0 1.2 .9 0 .8 .5 1.3 1 1 .6-.3 2.4 .9 4 2.5 1.7 1.7 3.7 3 4.5 3 .8 0 2.6 1.1 4 2.5 1.4 1.4 2.5 3 2.5 3.5 0 .6 .9 .8 2 .5 1.3-.3 2 0 2 1 0 .8 2.2 2.5 5 3.8 2.8 1.2 5 2.8 5 3.5 0 .6 .5 1.2 1 1.2 .6 0 1 .7 1 1.5 0 .8 .5 1.3 1 1 .6-.3 2.1 .6 3.5 2 1.4 1.4 3.4 2.5 4.5 2.5 1.1 0 2.9 1.2 4 2.8 1.2 1.5 2.1 3.2 2.1 3.7-.1 .6 2 2.9 4.4 5.3 2.5 2.3 4.8 4.2 5.3 4.2 .4 0 1.3 .9 2 2 .6 1.1 1.9 2 2.7 2 .8 0 1.5 .5 1.5 1 0 .6 1.2 1.7 2.8 2.5 1.5 .8 3 1.2 3.5 1 .4-.3 1.3 .4 2 1.5 .6 1.1 1.8 2 2.5 2 .6 0 1.2 .3 1.2 .8 0 .4 1.8 1.6 4 2.7 2.5 1.2 4.1 2.7 4 3.8 0 .9 .7 1.7 1.5 1.7 .8 0 2.1 .9 2.8 2 .6 1.1 2 2 3 2 .9 0 1.7 .7 1.7 1.5 0 .8 .6 1.4 1.3 1.3 .6-.2 1.1 .3 1 1-.2 .6 .2 1 .7 .7 .6-.3 1 .1 1 .8 0 .6 .7 2.1 1.7 3.3 1 1.1 3.2 2.9 5 4 1.8 1 3.9 3.1 4.8 4.7 .8 1.5 2 2.7 2.5 2.7 .6 0 2.6 1.7 4.6 3.8 1.9 2 3.7 4.5 4 5.5 .2 1 1.4 1.7 2.9 1.7 1.4 0 2.5 .6 2.5 1.3 0 .6 1.3 2.1 2.9 3.2 1.7 1.1 4 3.7 5.3 5.8 1.3 2 2.9 3.7 3.6 3.7 .6 0 1.2 .5 1.2 1 0 .6 1.3 2.2 2.9 3.8 1.5 1.5 3.3 2.6 4 2.5 .6-.2 .9 .4 .6 1.2-.3 .8 0 1.5 .5 1.5 .6 0 2.6 2.3 4.5 5 1.9 2.8 4 4.8 4.5 4.5 .6-.3 1.3 .3 1.7 1.3 .3 .9 .5 2 .5 2.5-.1 .4 1.2 1.8 2.8 3.2 1.7 1.4 3 3 3 3.5 0 .6 .7 1 1.5 1 .8 0 1.5 .6 1.5 1.3-.1 .6 .9 2.1 2 3.2 1.1 1.1 2.1 2.7 2.1 3.5 0 .8 .9 2.3 1.9 3.3 1.1 .9 1.8 2.2 1.5 2.7-.3 .6 .1 1 .8 1 .6 0 1.9 1 2.7 2.1 .8 1.2 2.9 3.7 4.5 5.4 1.7 1.8 5 5.4 7.5 8.1 2.5 2.7 6.5 8.3 9 12.4 2.4 4.1 4.9 8.9 5.6 10.5 .7 1.7 2.9 4.8 5 7 2 2.2 4.5 5.4 5.5 7 1.1 1.7 1.9 2.6 1.9 2-.1-.5 .8 .2 2 1.8 1.1 1.5 2 3.2 2 3.7 0 .6 .5 1 1 1 .6 0 1.7 1.6 2.5 3.5 1 2.3 2 3.3 3 3 1-.3 1.5 .2 1.5 1.8 0 1.2 .7 3.3 1.5 4.7 .8 1.4 1.9 3.5 2.5 4.8 .5 1.2 1.5 2.2 2 2.2 .6 0 2.2 1.2 3.8 2.6 1.5 1.4 3.7 3 5 3.5 1.2 .5 2 1.4 1.7 1.9-.3 .6 .1 1.2 .8 1.4 .6 .2 2.5-1.2 4.1-3.2l3-3.7 .4-46.5c0.3-25.6 .5-50.5 .5-55.5 0-4.9-.2-15.3-.4-23-.1-7.7-.2-15.1-.1-16.5 .1-1.4 0-17.8-.3-36.5-.2-18.7-.4-44.1-.4-56.5 0-12.4 0-24.5 .1-27 0-2.5-.3-20.5-.7-40-.5-19.5-.9-38.5-.9-42.3-.1-3.7-.4-6.7-.8-6.7-.5 0-.4-1.5 .2-3.2 .6-2.1 .6-5.3-.1-8.8-.5-3.1-.7-15.2-.4-27.5 .3-12.1 .2-24.2-.2-26.8-.4-2.6-.6-5-.3-5.3 .3-.3 .6-3.3 .7-6.7 0-3.4 .3-8.8 .5-12 .2-3.3-.1-6.1-.8-6.5-.5-.4-1-3.1-1-6.1 .1-3-.3-6-.9-6.6-.5-.6-1.5-1.3-2.2-1.5-.8-.4-.9-1.9-.2-5.5 .5-2.7 .9-10.6 .8-17.5 0-6.9 0-12.9 .1-13.5 .1-.5 .1-1.4 0-2-.1-.5-.3-19.9-.4-43-.1-23.1-.5-42.6-.9-43.2-.4-.7-.4-1.5 .1-1.7 .4-.3 .5-1.7 .3-3.3-.2-1.5-.4-6.2-.5-10.3-.1-4.1-.5-7.9-.8-8.5-.4-.5-.1-2.1 .6-3.5 .7-1.5 1.2-5.9 1.2-10.8-.1-6.2-.5-8.5-1.6-9.2-.8-.5-2.7-1-4.2-1-1.6 0-2.7-.3-2.7-.7l0.1-.8-.1-.7c0-.5-.8-.1-1.6 .7-.8 .8-1.9 1.5-2.5 1.5-.5 0-.8-.3-.6-.7 .2-.5-.6-.9-1.7-.9-1.2-.1-4.9-.4-8.2-.7ZM1411.7 45.3c-.4-.5-.8-.1-.8 .7 0 .8 .4 1.2 .8 .8l0.8-.8-.8-.7ZM1285.5 47.1c-1.4 0-1.5 .2-.5 .6 .8 .2 1.7 .2 2-.2 .3-.3-.4-.5-1.5-.4ZM1378 47.9c0.8 0 1.2 .4 .8 .8l-.8 .8-.7-.8c-.5-.4-.1-.8 .7-.8ZM1251 48.9c0.8 0 1.2 .4 .8 .8l-.8 .8-.7-.8c-.5-.4-.1-.8 .7-.8ZM1334 49.9c0.8 0 1.2 .4 .8 .8l-.8 .8-.7-.8c-.5-.4-.1-.8 .7-.8ZM886 55.9c0.8 0 1.2 .4 .8 .8l-.8 .8-.7-.8c-.5-.4-.1-.8 .7-.8ZM636 57.9c0.8 0 1.2 .4 .8 .8l-.8 .8-.7-.8c-.5-.4-.1-.8 .7-.8ZM252 61.9c0.8 0 1.2 .4 .8 .8l-.8 .8-.7-.8c-.5-.4-.1-.8 .7-.8ZM62.5 66c-.3 0-.7 .5-1 1-.3 .6 .2 1 1 1 .8 0 1.3-.4 1-1-.3-.5-.7-1-1-1ZM121 68.9c0.8 0 1.2 .4 .8 .8l-.8 .8-.7-.8c-.5-.4-.1-.8 .7-.8ZM31.7 163.3c-.4-.5-.8-.1-.8 .7 0 .8 .4 1.2 .8 .8l0.8-.8-.8-.7ZM36.5 281c0.3 0 .7 .5 1 1 .3 .6 .1 1-.5 1-.5 0-1-.4-1-1 0-.5 .2-1 .5-1ZM29 302c-.5 0-1 .7-1 1.5 0 .8 .5 1.5 1 1.5 .6 0 1-.7 1-1.5 0-.8-.4-1.5-1-1.5ZM34.7 331.3c-.4-.5-.8-.1-.8 .7 0 .8 .4 1.2 .8 .8l0.8-.8-.8-.7ZM1866.7 335.3l0.8 .7-.8 .8c-.4 .4-.8 0-.8-.8 0-.8 .4-1.2 .8-.7ZM1574 516.9c0.8 0 1.2 .4 .8 .8l-.8 .8-.7-.8c-.5-.4-.1-.8 .7-.8ZM1512 520.9c0.8 0 1.2 .4 .8 .8l-.8 .8-.7-.8c-.5-.4-.1-.8 .7-.8ZM38.5 535c0.3 0 .7 .5 1 1 .3 .6-.2 1-1 1-.8 0-1.3-.4-1-1 .3-.5 .7-1 1-1ZM638 543.9c-.8 0-1.2 .4-.7 .8l0.7 .8 .8-.8c0.4-.4 0-.8-.8-.8ZM42.5 555c0.3 0 .7 .5 1 1 .3 .6 .1 1-.5 1-.5 0-1-.4-1-1 0-.5 .2-1 .5-1ZM43 578c0.6 0 1 .5 1 1 0 .6-.2 1-.5 1-.3 0-.7-.4-1-1-.3-.5 0-1 .5-1ZM1309 588.9c0.8 0 1.2 .4 .8 .8l-.8 .8-.7-.8c-.5-.4-.1-.8 .7-.8ZM39.8 607.3c-.2-.2-.9 .3-1.6 1-.7 .6-1.2 1.5-1.2 2 0 .4 .5 .7 1 .7 .6 0 1.2-.8 1.5-1.7 .3-1 .4-1.9 .3-2ZM682 657.9c0.8 0 1.2 .4 .8 .8l-.8 .8-.7-.8c-.5-.4-.1-.8 .7-.8ZM1706 663.9c0.8 0 1.2 .4 .8 .8l-.8 .8-.7-.8c-.5-.4-.1-.8 .7-.8ZM43.5 675c-.3 0-.7 .5-1 1-.3 .6 0 1 .5 1 .6 0 1-.4 1-1 0-.5-.2-1-.5-1ZM1627.5 685c0.8 0 1.5 .2 1.5 .5 0 .3-.4 .7-1 1-.5 .3-1.2 .1-1.5-.5-.3-.5 .2-1 1-1ZM49 822c-.5 0-.8 .5-.5 1 .3 .6 .7 1 1 1 .3 0 .5-.4 .5-1 0-.5-.4-1-1-1ZM52.7 824.3l0.8 .7-.8 .8c-.4 .4-.8 0-.8-.8 0-.8 .4-1.2 .8-.7ZM52 833.9c0.8 0 1.2 .4 .8 .8l-.8 .8-.7-.8c-.5-.4-.1-.8 .7-.8ZM53 864c-.5 0-1 .5-1 1 0 .6 .5 1 1 1 .6 0 1-.4 1-1 0-.5-.4-1-1-1ZM470.9 885.5c1.7 0 3.1 .3 3.1 .8 0 .4 1.1 .5 2.5 .2 1.8-.4 2.3-.2 1.8 .7-.6 .9-.3 1 1.2 .4 1.1-.5 3.6-.9 5.5-1 2.2-.1 4.2 .5 5.3 1.6 1.1 1.2 2.9 1.7 5.3 1.6 2.6-.2 3.9 .2 5.2 1.9 1.3 1.7 2.5 2.1 5.2 1.9 1.9-.2 4.5-.6 5.8-1 1.6-.4 2.1-.2 2 .9-.2 1.1 2.2 2.4 8.2 4.6 5.5 1.9 10.7 3.1 14.7 3.2 3.5 .1 6.3 .5 6.3 1 0 .4 1.1 .7 2.5 .7 1.4 0 2.7 .5 3 1 .3 .6 1.2 .8 2 .5 .8-.3 1.7 0 2 .5 .3 .6 1.3 1 2.3 1 .9 0 2.8 .8 4.2 1.7 1.4 1 3 1.8 3.5 1.9 .6 0 1.8 .2 2.8 .2 .9 .1 1.7 .9 1.7 1.7 0 .8 .9 2.4 2 3.5 1.1 1.1 2 2.9 2 4 0 1.1 .6 2 1.3 2 .6 0 1.2 1.2 1.2 2.8 .1 1.5 .4 4.7 .8 7.2 .5 3.6 .3 4.7-1.1 5.7-1.2 .8-1.7 2.5-1.7 6.2 0 2.8-.4 5.2-1 5.2l-1 .1-1.2-.1c-.7 0-1.3 .4-1.3 .9 0 .6 .5 1 1 1 .6 0 1 .6 1 1.3 0 .8-1.5 1.1-5 1-2.7-.2-5 0-5 .5 0 .4-2 .6-4.5 .5-3.4-.2-4.9 .2-6.2 1.7-1.6 1.7-2 1.8-3.3 .5-.8-.9-3.5-1.8-6-2-2.5-.3-5.4-.8-6.5-1.1-1.1-.4-2.3-1.2-2.7-1.8-.5-.7-.8-.6-.8 .4 0 1.2-.2 1.2-.8 .2-.4-.7-2.8-1.6-5.5-2-2.6-.4-4.7-1-4.7-1.4 0-.5-1.2-1.1-2.7-1.5-1.6-.4-3.2-.7-3.8-.8-.5-.1-2.8-.5-5-.9-2.2-.4-4.6-1.2-5.2-1.7-.7-.5-1.8-.6-2.4-.1-.6 .4-1.5 0-1.9-.8l-.9-1.5-2.5 1.5-2.6 1.5-2.7-2.5c-1.5-1.4-3-2.8-3.3-3.2-.3-.4-2.4-.8-4.7-1-2.4-.2-4.3-.6-4.3-1 0-.5-1.3-.8-3-.8-1.6 0-3.1-.5-3.2-1.2-.2-.8-1.3-.7-3.8 .5l-3.5 1.7-3.7-3c-2.1-1.6-4.5-3-5.3-3-1.1 0-1.3-.6-.8-2.2 .5-1.7 .3-2.1-.5-1.5-.8 .5-1.4-.4-1.7-2.8-.3-1.9 0-4.1 .5-4.7 .6-.8 .8-4.2 .5-8-.3-4.2-.1-6.8 .5-6.8 .6 0 1-.7 1-1.5 0-.8 .6-1.8 1.4-2.2 .7-.5 2.1-2.6 3.2-4.8 1-2.2 2.5-4.5 3.4-5.2 .8-.7 2.2-1.2 3-1.3 .8 0 2-.8 2.6-1.7 .7-1.1 2.3-1.8 4.3-1.8ZM542 902.9c-.8 0-1.2 .4-.7 .8l0.7 .8 .8-.8c0.4-.4 0-.8-.8-.8ZM491 940c-.5 0-1 .5-1 1 0 .6 .7 1 1.5 1 .8 0 1.3-.4 1-1-.3-.5-.9-1-1.5-1ZM839.7 949.3c-.4-.5-.8-.1-.8 .7 0 .8 .4 1.2 .8 .8l0.8-.8-.8-.7ZM58 952c0.6 0 1.2 .5 1.5 1 .3 .6 .1 1-.5 1-.5 0-1.2-.4-1.5-1-.3-.5 0-1 .5-1ZM531 952.9c0.8 0 1.2 .4 .8 .8l-.8 .8-.7-.8c-.5-.4-.1-.8 .7-.8ZM1373.8 1059.2c0.7-.1 .9 .3 .5 1-.6 .9-.3 1 1.2 .5 1.1-.5 3-1 4.3-1.3 1.2-.2 2.2 .1 2.2 .6 0 .6 2.7 1 6 1 3.3 0 6.1 .4 6.3 1 .1 .5 3.1 1.2 6.7 1.6 3.6 .3 6.6 1 6.8 1.5 .1 .5 .9 .9 1.7 .9 .8 0 1.5 .5 1.5 1 0 .6 1.1 .8 2.5 .5 1.4-.3 2.5-.2 2.5 .3 0 .4 1.9 1.7 4.2 2.9 2.4 1.2 5.9 2.5 7.8 2.9 1.9 .3 5.3 1.5 7.5 2.5 2.2 1.1 4.7 2 5.7 2.2 .9 .1 2.6 1.3 3.7 2.7 1.2 1.4 2.4 2.2 2.9 1.8 .4-.4 1.4 .3 2.3 1.5 .9 1.2 1.9 3.1 2.2 4.2 .3 1.1 1.6 2.4 2.9 2.9 1.3 .4 2.6 .8 3.1 .7 .4-.1 .7 .9 .7 2.2 0 1.4 .9 2.7 2.5 3.5 1.4 .6 3 1 3.5 .7 .6-.3 1.7 .9 2.5 2.5 .8 1.7 1.5 3.7 1.5 4.5 0 .8 .9 2 2 2.5 1.1 .6 2 1.7 2 2.5 0 .8 .5 1.5 1 1.5 .6 0 .9 .3 .9 .8l-.1 .7 .1 1.3c0 .6 .8 1.2 1.6 1.2 .8 0 1.8 1.2 2.2 2.8 .3 1.5 .6 3.3 .5 4-.1 .6 .7 1.4 1.8 1.7 1.1 .3 2 1 2 1.5 0 .6-.3 .8-.7 .6-.5-.3-1.5 0-2.3 .5-1.2 .7-1.1 1 .8 1.7 1.8 .5 2.2 1.2 1.8 3-.4 1.5-.1 2.4 1.2 2.8 1.2 .5 1.3 .8 .5 1.3-.9 .5-1 2.1-.2 7.1 .8 4.8 .7 8-.2 12.5-.7 3.3-1.9 6.7-2.8 7.5-1.1 1.1-1.5 1.2-1.8 .3-.2-.7-1.1-1.3-2-1.3-1.5 0-1.6 .2-.5 1.2 .7 .7 1.2 2.1 1.2 3.1 0 .9-.7 2-1.5 2.5-.9 .4-2.1 .2-2.8-.5-.9-.8-1.6-.9-2.7-.1-1.1 .8-2.5 .7-5.2-.5-2.1-1-3.8-2.1-3.8-2.7 0-.5-.8-1-1.7-1-1.4 .1-1.5-.2-.6-1.2 .9-1 .6-1.8-1.3-3.5-1.3-1.3-2.6-2-2.9-1.5-.3 .4-.5-.3-.5-1.5 0-1.3-.7-2.5-1.5-2.8-.8-.3-1.5-1.3-1.5-2.2 0-1 .6-2.7 1.5-3.8 .8-1.1 1.5-2.6 1.5-3.2 0-.7-1.4-2.1-3-3-1.7-1-3-2.1-3-2.5 0-.5-1.8-2.5-4-4.5-3.1-3-3.7-4.1-2.7-5.1 1-1 .5-1.2-2-1.2-2.5 0-3.4-.5-3.8-2l-.5-2 .5-1c0.3-.5 .1-1-.5-1-.5 0-1 .3-1 .8 0 .4-.6 .8-1.2 1-.7 .1-3 .4-5 .7-2.1 .3-3.8 .2-3.8-.2 0-.5-1.2-.8-2.8-.8-1.5-.1-5.1-.2-7.9-.3-3.2-.1-5.1-.6-4.8-1.2 .3-.5-.4-1-1.5-1-1.1 0-3 .7-4.2 1.6-1.5 1-3.3 1.3-5 1-1.6-.3-2.8-1.3-2.8-2.1 0-.9-.9-1.5-2.2-1.5-1.3 0-5.2-.2-8.8-.4-3.6-.3-6.6-1-6.7-1.6-.2-.5-1-1-1.8-1-.8 0-1.7-.7-2-1.5-.3-.8-3.1-2.2-6.2-3.1-3.2-.9-8-2.9-10.8-4.4-3-1.6-5.6-4-6.5-5.8-.8-1.7-2.5-4-3.7-5.1-1.3-1.2-2.6-3.8-2.9-5.8-.3-2.1 0-6.7 .7-10.2 .8-3.5 2-6.8 2.7-7.5 .7-.6 1.3-1.5 1.2-2.1 0-.5 1-2.2 2.3-3.7 1.2-1.5 2.8-2.7 3.5-2.8 .6 0 3.1-1 5.5-2.2 2.3-1.3 6-2.6 8.2-2.9 2.2-.3 4.6-.7 5.3-.7ZM1426 1069.9c0.8 0 1.2 .4 .8 .8l-.8 .8-.7-.8c-.5-.4-.1-.8 .7-.8ZM1461.7 1094.3l0.8 .7-.8 .8c-.4 .4-.8 0-.8-.8 0-.8 .4-1.2 .8-.7ZM58.7 1100.3c-.4-.5-.8-.1-.8 .7 0 .8 .4 1.2 .8 .8l0.8-.8-.8-.7ZM66 1105.5c0.3 .2-.2 1.1-1 2-.8 .9-1.7 1.3-2 1-.3-.2 .2-1.1 1-2 .8-.9 1.7-1.3 2-1ZM1439.5 1120c-.3 0-.5 .7-.5 1.5 0 .8 .5 1.3 1 1 .6-.3 .8-.9 .5-1.5-.3-.5-.7-1-1-1ZM1398 1120.9c-.8 0-1.2 .4-.7 .8l0.7 .8 .8-.8c0.4-.4 0-.8-.8-.8ZM1429.5 1122.1c-1.4 0-1.5 .2-.5 .6 .8 .2 1.7 .2 2-.2 .3-.3-.4-.5-1.5-.4ZM1617.5 1146.3c0.3 .4 .3 1.2 0 1.7-.3 .6-1.2 1-2 1-.8 0-1.3-.4-1-1 .3-.5 1-.8 1.5-.5 .6 .3 1-.1 1-.7 0-.7 .2-1 .5-.5ZM1611 1146.9c0.8 0 1.2 .4 .8 .8l-.8 .8-.7-.8c-.5-.4-.1-.8 .7-.8ZM1244.5 1152.1c0-.1 1.8 .8 4 1.9 2.2 1.2 4.3 2.6 4.8 3.3 .5 .9 .9 .8 1.7-.3 .8-1.3 1.4-1.2 4.4 .5 2 1.1 3.5 2.2 3.4 2.5 0 .3 0 1.1 .1 1.8 0 .6 .8 1.2 1.6 1.2 .8 0 1.5 .5 1.5 1 0 .6 .5 1 1 1 .6 0 2.2 1.2 3.8 2.6 1.5 1.4 2.7 3.1 2.7 3.8 .1 .6 .7 2.1 1.5 3.4 .8 1.2 2.2 2.2 3 2.3 1 0 1.1 .2 .3 .5-.7 .2-1.3 1.1-1.3 1.9 0 .8 .5 1.3 1 1 .6-.3 1 .4 1 1.5 0 1.1 .5 2.2 1 2.5 .6 .3 .7 1.8 .3 3.6-.7 2.7-.6 3 1 2.5 .9-.3 1.9-.1 2.2 .4 .3 .6-.2 2.5-1.1 4.3-1.3 2.6-1.3 3.3-.2 3.9 1 .5 .8 1.2-.9 2.8-1.3 1.1-2.4 3-2.4 4.3l-.1 2.2 .1 .8c0 .4-.5 .5-1.1 .1-.8-.3-1.9 .8-2.8 2.6-.8 1.7-1.8 3.1-2.2 3-.5 0-.6 .7-.3 1.5 .3 .9-.1 1.5-1 1.5-.8 0-2.4 .9-3.5 2-1.1 1.1-2.9 2-4 2-1.1 0-2.2 .3-2.4 .8-.2 .4-3.9 1-8.2 1.4-4.4 .4-9.2 1.2-10.9 1.8-1.6 .7-4.6 1.4-6.5 1.7-1.9 .2-4.6 .8-6 1.2-1.4 .5-4.7 .6-7.5 .3-2.7-.2-5.3-1.1-5.7-1.8-.5-.8-1.5-1.4-2.3-1.4-.8 0-1.5-.4-1.5-1 0-.5-.4-1-1-1-.5 0-3-1.9-5.5-4.2-3.6-3.4-4.4-4.7-3.8-6.3 .6-1.5 .4-1.8-.5-1.2-.7 .4-1.2 .2-1.1-.5 .1-.7 .1-2 0-2.8l-.1-1.5-1 1.5c-.7 1.1-1-.2-1-4.2 0-3.8-.4-5.9-1.2-6.2-1-.3-1-.6 0-1.7 .7-.8 1.2-2 1.2-2.6 0-.7-.6-1-1.2-.7-1 .6-1 .4 0-.7 .7-.8 1.2-2.2 1.2-3.1 0-1 .5-1.8 1-1.8 .6 0 .9-2 .8-4.5-.2-2.5 0-4.5 .5-4.5 .4 0 .7-.6 .7-1.2 0-.7 2.6-4 5.8-7.3 3.2-3.3 6.6-6.3 7.5-6.7 .9-.5 1.7-1.2 1.7-1.8 0-.5 .6-1 1.3-1 .6 0 2.3-.9 3.7-2 1.4-1.1 3.5-2 4.8-2 1.2 0 3.2-.5 4.5-1.2 1.2-.6 4.7-1.7 7.7-2.3 3-.7 5.5-1.3 5.5-1.4ZM1245.5 1153c-.3 0-.7 .5-1 1-.3 .6 .2 1 1 1 .8 0 1.3-.4 1-1-.3-.5-.7-1-1-1ZM1257.7 1157.3c-.4-.5-.8-.1-.8 .7 0 .8 .4 1.2 .8 .8l0.8-.8-.8-.7ZM1475 1164.9c-.8 0-1.2 .4-.7 .8l0.7 .8 .8-.8c0.4-.4 0-.8-.8-.8ZM65 1172c-.5 0-1 .5-1 1 0 .6 .5 .8 1 .5 .6-.3 1-.7 1-1 0-.3-.4-.5-1-.5ZM1653.3 1189c0.1-.1 .9 .6 1.7 1.5 1.1 1.1 1.1 1.6 .3 1.5-.7 0-1.5-.7-1.8-1.5-.3-.8-.4-1.5-.2-1.5ZM1242 1228c0.6 0 1 .2 1 .5 0 .3-.4 .7-1 1-.5 .3-1 .1-1-.5 0-.5 .5-1 1-1ZM830.3 1242c0.1-.1 .9 .6 1.7 1.5 1.3 1.5 1.3 1.6-.2 1.1-1-.3-1.8-.4-1.8-.1 0 .3 1.8 1.4 4 2.5 2.2 1.1 4.2 1.7 4.5 1.3 .3-.5 1.5 .3 2.8 1.6 1.7 1.8 2.8 2.2 5.2 1.7 2-.4 4.2 0 6.5 1.1 1.9 1 5.6 1.8 8.2 1.8 3.3 0 5.3 .6 7 2.1 1.3 1.2 3.8 2.9 5.6 3.8 1.7 .9 3.9 3 4.7 4.6 .9 1.8 2.5 3.2 4 3.5 1.4 .3 2.3 1 2 1.5-.3 .6 .9 1.7 2.5 2.5 1.7 .8 3 2 3 2.5 0 .6 .9 1 2 1 1.1 0 2 .5 2 1 0 .6 .6 1 1.3 1 .6 .1 2.3 1.3 3.7 2.8 1.3 1.5 2.3 3.2 2.2 3.7-.1 .6 1.3 2.4 3.1 4 1.9 1.7 4 4.7 4.8 6.9 .8 2.2 2.3 4.2 3.7 4.7 1.2 .5 2.2 1.2 2.3 1.7 0 .4 .2 1.8 .4 3.2 .2 1.4 .4 4.6 .5 7.3 0 4.2 .2 4.6 2 4.2 1.1-.3 2.2 0 2.5 .5 .3 .6 .1 1-.5 1-.5 0-1 1.4-1 3 0 1.7-.4 3-1 3-.5 0-1 1.4-1 3 0 1.7-1 4.4-2.2 6-1.3 1.7-2.9 3-3.5 3-.7 0-1.1 .5-.8 1 .3 .6-.6 1-2 1-1.5 0-2.4 .5-2.2 1.3 .1 .8-1.4 1.2-4.8 1.2-2.7 .1-5.7-.4-6.5-1.1-.8-.6-4.2-1.6-7.5-2.3-3.3-.6-6.2-1.5-6.5-2-.3-.4-2.7-1-5.5-1.3-2.7-.3-6.6-.1-8.5 .4-1.9 .5-4.8 1.5-6.5 2.3-1.6 .8-4 2.3-5.2 3.4-1.3 1.2-2.3 2.8-2.3 3.6 0 .8-1.1 2.9-2.5 4.5-1.4 1.7-2.7 2.7-3 2.3-.3-.5-.6-.3-.7 .2 0 .6-.1 1.5-.3 2-.1 .6-.5 1.9-1 3-.5 1.1-1.4 2.3-2.2 2.8-.8 .4-1.1 1.7-.8 3.2 .4 1.8 0 2.6-1.2 3-1.3 .3-1.8 1.4-1.6 3.7 .1 1.8-.3 3.9-.8 4.6-.5 .6-.7 1.7-.4 2.2 .3 .6-.2 1.8-1 2.8-.8 .9-1.7 3.5-1.9 5.7-.2 2.2-.6 4.8-1 5.8-.3 .9-.9 1.5-1.3 1.3-.5-.3-1.3-.2-1.8 .2-.6 .4-1.6 1.9-2.3 3.5-.7 1.7-1.8 2.5-2.7 2.2-.8-.3-1.7 .2-2 1-.3 .8-1.5 1.5-2.7 1.5-1.3 0-3.6 .9-5.3 2-1.6 1.1-4.2 2-5.7 2-1.6 0-3-.6-3.2-1.2-.3-.7-.5-.4-.6 .7-.1 1.7-.3 1.7-1.2-.5-.6-1.4-1.2-1.9-1.4-1.2-.2 .6-1.1 1-1.9 .7-.8-.3-1.5-1.2-1.5-2 0-.8-.4-1.5-1-1.5-.5 0-1-.6-1-1.2 0-.7-.8-2.2-1.8-3.3-1-1.1-2.2-3-2.5-4.2-.4-1.3-1.1-2.3-1.7-2.3-.5 0-1.5-1.2-2.1-2.7-.6-1.6-1.1-6.2-1-10.3 .1-4.2 .7-8.4 1.4-9.5 .7-1.1 1.2-3.6 1-5.5-.1-1.9 .3-4.1 1-4.8 .6-.7 .8-1.2 .2-1.2-.5 0-.4-.6 .3-1.5 .6-.8 1.5-1.3 2-1.1 .4 .2 .8-1.9 .9-4.7 .2-3.6 .9-5.8 2.3-7.2 1.1-1.1 2-2.6 2-3.2 0-.7 .9-3.2 2-5.5 1.1-2.4 2-4.9 2-5.5 0-.7 .7-1.3 1.5-1.3 .8 0 2-1 2.6-2.2 .6-1.3 .8-2.9 .5-3.5-.3-.7 0-1.3 .7-1.3 .6-.1 1.7-.8 2.4-1.8 .7-.9 1.3-3 1.3-4.7 0-1.6-.6-3.9-1.5-5-.8-1.1-1.5-2.8-1.5-3.7 0-1-.8-2.2-1.7-2.7-1-.5-1.7-1.2-1.5-1.5 .1-.3 .2-1.5 .2-2.6 0-1.3-.8-2.2-2.5-2.5-1.9-.4-2.5-1.1-2.5-3 0-1.4-.8-3.3-1.9-4.2-1-1-2.3-2.8-3-4-.8-1.7-.8-3.7 .1-8 .6-3.2 1.5-6 2-6.3 .5-.3 .9-1.7 .9-3.2-.1-1.6 .4-2.8 .9-2.8 .6 0 .9-1 .8-2.3-.2-1.8 .1-2.3 1.5-2 1.1 .2 1.9-.5 2.2-2.2 .3-1.7 1.4-2.7 3.3-3.1 1.5-.4 3.3-1.1 4-1.5 .6-.5 1.7-.7 2.2-.4 .6 .3 1 .1 1-.5 0-.5 .8-1 1.8-1 .9 0 2.5-.8 3.5-1.8 1.4-1.4 2-1.5 3-.4 .6 .7 1.5 1.2 2 1.2 .4 0 .5-.4 .2-1-.3-.5 .2-1 1-1 .8 0 1.5-.4 1.5-1 0-.5 .1-1 .3-1ZM845 1249.9c0.8 0 1.2 .4 .8 .8l-.8 .8-.7-.8c-.5-.4-.1-.8 .7-.8ZM1556.7 1270.3l0.8 .7-.8 .8c-.4 .4-.8 0-.8-.8 0-.8 .4-1.2 .8-.7ZM68.5 1311c0.3 0 .5 .7 .5 1.5 0 .8-.4 1.3-1 1-.5-.3-.8-.9-.5-1.5 .3-.5 .7-1 1-1ZM1401.5 1346.5c-.8-.8-1.5-1.2-1.5-.7 0 .4 .4 1.4 1 2.2 .5 .8 1.1 1.2 1.4 .8 .3-.5-.1-1.5-.9-2.3ZM1389.5 1365c0.8 0 1.3 .5 1 1-.3 .6-.9 1-1.5 1-.5 0-1-.4-1-1 0-.5 .7-1 1.5-1ZM1383 1366.9c0.8 0 1.2 .4 .8 .8l-.8 .8-.7-.8c-.5-.4-.1-.8 .7-.8ZM790.7 1376.3c-.4-.5-.8-.1-.8 .7 0 .8 .4 1.2 .8 .8l0.8-.8-.8-.7ZM1155.5 1377.6c0.6 .2 3.3 .6 6 .9 2.8 .4 6.2 .7 7.6 .8 1.5 .1 2.5 .5 2.3 1-.2 .4 .1 .9 .6 1.2 .6 .3 1 .1 1-.5 0-.5 1.1-.3 2.5 .5 1.9 1.1 2.6 1.2 2.8 .3 .2-.7 1.1-.1 2 1.5 .9 1.5 2.4 2.7 3.2 2.7 .8 0 1.3 .5 1 1-.3 .6 .3 1.6 1.3 2.4 1.3 1.1 2 1.2 3 .3 .8-.7 1.3-.8 1.4-.2 .1 .6 .2 1.5 .3 2 .2 .6 .3 1.8 .4 2.8 0 .9 .7 1.7 1.4 1.7 .6-.1 1.9 .6 2.7 1.5l1.5 1.7-1.5 1c-1.1 .7-1.2 1.1-.2 1.4 .6 .2 1.7 1.6 2.4 3.2 .6 1.5 1.1 3 1 3.5-.1 .4 .3 .7 .8 .7 .6 0 .8 .5 .5 1-.3 .6 .4 2 1.5 3.3 1.2 1.2 2.2 3.4 2.3 4.9 .1 1.6 .5 2.8 1 2.8 .4 0 .7 .7 .7 1.5 0 .8-.6 1.5-1.2 1.5-.9 0-.9 .3-.3 .8 .6 .4 1.1 1.8 1.2 3.2 0 1.4 .2 6.7 .4 11.8 .3 6.2 .9 9.8 1.7 10.5 .8 .7 1.2 2.6 1 4.5-.2 2 .2 3.6 1 4 .9 .5 1.2 1.6 .7 3.2-.4 1.4-.1 3.6 .5 5 .7 1.4 .9 3.4 .5 4.5-.4 1.1-.9 4.7-1.1 8-.2 3.3-.6 7.8-.8 10-.2 2.2-.6 4.8-1 5.8-.3 .9-1 1.7-1.6 1.7-.5 0-1 .9-1 2 0 1.1-.8 2.8-1.7 3.7-1 .9-1.8 1.9-1.8 2.2-.1 .3-.4 1.8-.8 3.4-.4 1.5-1.1 2.5-1.7 2.2l-1-.5-1.5 .5c-.8 .3-1.5 1.2-1.5 2 0 .8-.4 1.5-1 1.5-.5 0-.8 .7-.5 1.5 .3 .9-.6 2.1-2.2 3-1.6 .8-3.2 1.1-3.6 .7-.4-.4-.7-.1-.7 .6 0 .8-.6 .9-1.7 .5-1.3-.5-1.6-.4-1 .5 .5 .8 .2 1-1 .5-1.3-.5-1.6-.4-1 .5 .4 .7 .1 1.2-.8 1.2-.8 0-1.5 .5-1.5 1 0 .6-2.6 2.2-5.7 3.7-3.2 1.5-6.8 2.6-8 2.5-1.3-.1-3.2 .3-4.3 .8-1.6 .8-2.1 .6-2.5-1-.4-1.6-1.2-1.9-3.7-1.7-1.8 .1-3.9 .6-4.5 1-.7 .4-2.4 .5-3.8 .2-1.4-.3-2.5-.9-2.5-1.5 0-.6-.9-.7-2.1-.2-1.5 .5-2.4 .2-3-1-.5-1-2-1.8-3.4-1.8-1.4 0-2.5-.4-2.5-1 0-.5-1-1-2.2-1l-2.3 .1 1.5-1.7 1.5-1.6-2 .3c-1.1 .2-2.3 .9-2.7 1.4-.5 .7-1.1 .6-1.5-.1-.5-.6-1.9-2.4-3.3-4-1.4-1.7-4.1-3.9-6-4.9-1.9-1.1-3.8-2.4-4.2-3-.4-.5-1.1-.8-1.5-.5-.4 .3-.9-.3-1-1.2-.2-1-1.9-3.5-3.8-5.5-2-2.1-3.6-4.8-3.5-6 0-1.5-1-2.9-3-4-1.7-1-3-2.5-3-3.3 0-.8-1.1-2.6-2.5-4-1.4-1.4-2.5-3.5-2.5-4.7 0-1.3-.5-2.4-1.1-2.5-.5-.2-1.1-1.8-1.2-3.6-.1-1.7-.5-3.2-.9-3.2-.5 0-.1-2 .7-4.5 .8-2.5 1.2-5.7 .9-7.2-.4-1.7-.2-3.1 .5-3.5 .6-.5 .8-1.8 .4-3-.3-1.3-1.2-3.3-2-4.5-1.1-2-1.1-2.3 .2-2.3 1.2 0 1.3-.7 .8-3.5-.6-2.8-.5-3.5 .7-3.5 .8 0 2.1-.9 2.8-2 .6-1.1 1-2.4 .7-3-.3-.5-.1-1.8 .4-2.7 .5-1 1.6-3.5 2.5-5.5 .9-2.1 1.6-4.5 1.6-5.3 0-.8 .3-1.3 .8-1.2 .4 .2 1.4-.4 2.2-1.3 .8-.9 1.6-2.3 1.8-3.1 .2-.8 1.5-2.6 3-4.2 1.5-1.5 2.1-2.7 1.5-2.7-.7 0 1.1-2.4 4-5.4 2.8-2.9 6.4-6.7 7.8-8.2 1.5-1.6 4.5-4.6 6.8-6.6 2.2-2.1 4.1-4.2 4.1-4.8 0-.5 .7-.8 1.5-.5 .8 .3 3.2-.6 5.3-1.9 2.8-1.8 4.7-2.3 7.7-1.9 2.2 .2 5.1 0 6.5-.5 1.4-.5 3-.8 3.5-.6ZM1250.5 1377c0.3 0 .5 .5 .5 1 0 .6-.4 1-1 1-.5 0-.8-.4-.5-1 .3-.5 .7-1 1-1ZM833.7 1387.3c-.4-.5-.8-.1-.8 .7 0 .8 .4 1.2 .8 .8l0.8-.8-.8-.7ZM738.3 1470.7c0.9 .4 1.5 1 1.2 1.3-.3 .3-1.1-.1-1.8-.8-1-1.1-.9-1.2 .6-.5ZM65.5 1475.5c0.8 .3 1.5 1 1.5 1.5 0 .6-.7 .8-1.5 .5-.8-.3-1.5-.9-1.5-1.5 0-.5 .7-.8 1.5-.5ZM1208.7 1479.3c-.4-.5-.8-.1-.8 .7 0 .8 .4 1.2 .8 .8l0.8-.8-.8-.7ZM1340.7 1493.3c-.4-.5-.8-.1-.8 .7 0 .8 .4 1.2 .8 .8l0.8-.8-.8-.7ZM719 1517c0.6 0 1 .5 1 1 0 .6-.4 1-1 1-.5 0-1-.4-1-1 0-.5 .5-1 1-1ZM1141 1523c-.5 0-.8 .7-.5 1.5 .3 .8 1 1.5 1.5 1.5 .6 0 .8-.7 .5-1.5-.3-.8-.9-1.5-1.5-1.5ZM737.7 1534.3l0.8 .7-.8 .8c-.4 .4-.8 0-.8-.8 0-.8 .4-1.2 .8-.7ZM1209 1585.9c-.8 0-1.2 .4-.7 .8l0.7 .8 .8-.8c0.4-.4 0-.8-.8-.8ZM891.7 1590.3l0.8 .7-.8 .8c-.4 .4-.8 0-.8-.8 0-.8 .4-1.2 .8-.7ZM989 1618.9c0.8 0 1.2 .4 .8 .8l-.8 .8-.7-.8c-.5-.4-.1-.8 .7-.8ZM738.5 1631c0.3 0 .5 .5 .5 1 0 .6-.4 1-1 1-.5 0-.8-.4-.5-1 .3-.5 .7-1 1-1ZM60.7 1726.3l0.8 .7-.8 .8c-.4 .4-.8 0-.8-.8 0-.8 .4-1.2 .8-.7ZM937.7 1771.3l0.8 .7-.8 .8c-.4 .4-.8 0-.8-.8 0-.8 .4-1.2 .8-.7ZM993.5 1791c0.3 0 .7 .5 1 1l0.5 1-.5 0c-.3 0-.7-.4-1-1l-.5-1 .5 0ZM1109.5 1807c0.8 0 1.3 .5 1 1-.3 .6-.9 1-1.5 1-.5 0-1-.4-1-1 0-.5 .7-1 1.5-1ZM58.7 1868.3l0.8 .7-.8 .8c-.4 .4-.8 0-.8-.8 0-.8 .4-1.2 .8-.7ZM59 1944.9c0.8 0 1.2 .4 .8 .8l-.8 .8-.7-.8c-.5-.4-.1-.8 .7-.8ZM59.7 1955.5l0.5 1-.5 1.5c-.3 .8-.5 .4-.5-1 0-1.4 .2-2 .5-1.5ZM1552 2016.9c0.8 0 1.2 .4 .8 .8l-.8 .8-.7-.8c-.5-.4-.1-.8 .7-.8ZM1209 2031.9c-.8 0-1.2 .4-.7 .8l0.7 .8 .8-.8c0.4-.4 0-.8-.8-.8ZM1198 2032.9c-.8 0-1.2 .4-.7 .8l0.7 .8 .8-.8c0.4-.4 0-.8-.8-.8ZM949 2040.9c-.8 0-1.2 .4-.7 .8l0.7 .8 .8-.8c0.4-.4 0-.8-.8-.8ZM771.7 2042.3l0.8 .7-.8 .8c-.4 .4-.8 0-.8-.8 0-.8 .4-1.2 .8-.7ZM429.5 2046c0.3 0 .7 .5 1 1 .3 .6 .1 1-.5 1-.5 0-1-.4-1-1 0-.5 .2-1 .5-1ZM196 2050.9c0.8 0 1.2 .4 .8 .8l-.8 .8-.7-.8c-.5-.4-.1-.8 .7-.8ZM74 2055.9c0.8 0 1.2 .4 .8 .8l-.8 .8-.7-.8c-.5-.4-.1-.8 .7-.8Z"/>
</svg>